<svg xmlns="http://www.w3.org/2000/svg" xmlns:xlink="http://www.w3.org/1999/xlink" contentStyleType="text/css" data-diagram-type="SEQUENCE" height="1547px" preserveAspectRatio="none" style="width:1517px;height:1547px;background:#FFFFFF;" version="1.1" viewBox="0 0 1517 1547" width="1517px" zoomAndPan="magnify"><title>Sequence Diagram - US2.2.9 Update or Complete Vessel Visit Notification</title><defs/><g><text fill="#000000" font-family="sans-serif" font-size="14" font-weight="bold" lengthAdjust="spacing" textLength="530.4688" x="489.6521" y="28.5352">Sequence Diagram - US2.2.9 Update or Complete Vessel Visit Notification</text><rect fill="none" height="75.9316" style="stroke:#000000;stroke-width:1.5;" width="780.252" x="589.3052" y="385.7715"/><rect fill="none" height="46.6211" style="stroke:#000000;stroke-width:1.5;" width="780.252" x="589.3052" y="475.7031"/><rect fill="none" height="46.6211" style="stroke:#000000;stroke-width:1.5;" width="780.252" x="589.3052" y="536.3242"/><rect fill="none" height="46.6211" style="stroke:#000000;stroke-width:1.5;" width="780.252" x="589.3052" y="596.9453"/><rect fill="none" height="75.9316" style="stroke:#000000;stroke-width:1.5;" width="780.252" x="589.3052" y="657.5664"/><g><title>Shipping Agent Representative</title><rect fill="#000000" fill-opacity="0.00000" height="1421.5957" width="8" x="108.125" y="118.9766"/><line style="stroke:#181818;stroke-width:0.5;stroke-dasharray:5,5;" x1="112" x2="112" y1="118.9766" y2="1540.5723"/></g><g><title>VesselVisitNotificationController</title><rect fill="#000000" fill-opacity="0.00000" height="1421.5957" width="8" x="425.5962" y="118.9766"/><line style="stroke:#181818;stroke-width:0.5;stroke-dasharray:5,5;" x1="428.7222" x2="428.7222" y1="118.9766" y2="1540.5723"/></g><g><title>VesselVisitNotificationService</title><rect fill="#000000" fill-opacity="0.00000" height="1421.5957" width="8" x="721.7646" y="118.9766"/><line style="stroke:#181818;stroke-width:0.5;stroke-dasharray:5,5;" x1="725.3052" x2="725.3052" y1="118.9766" y2="1540.5723"/></g><g><title>IVesselVisitNotificationRepository</title><rect fill="#000000" fill-opacity="0.00000" height="1421.5957" width="8" x="999.0972" y="118.9766"/><line style="stroke:#181818;stroke-width:0.5;stroke-dasharray:5,5;" x1="1002.2241" x2="1002.2241" y1="118.9766" y2="1540.5723"/></g><g><title>VesselVisitNotification</title><rect fill="#000000" fill-opacity="0.00000" height="1421.5957" width="8" x="1252.7637" y="118.9766"/><line style="stroke:#181818;stroke-width:0.5;stroke-dasharray:5,5;" x1="1255.9702" x2="1255.9702" y1="118.9766" y2="1540.5723"/></g><g><title>IUnitOfWork</title><rect fill="#000000" fill-opacity="0.00000" height="1421.5957" width="8" x="1433.665" y="118.9766"/><line style="stroke:#181818;stroke-width:0.5;stroke-dasharray:5,5;" x1="1437.5571" x2="1437.5571" y1="118.9766" y2="1540.5723"/></g><g class="participant participant-head" data-participant="Agent"><text fill="#000000" font-family="sans-serif" font-size="14" lengthAdjust="spacing" textLength="208.25" x="5" y="116.0234">Shipping Agent Representative</text><ellipse cx="112.125" cy="50.9883" fill="#E3E3E3" rx="8" ry="8" style="stroke:#181818;stroke-width:0.5;"/><path d="M112.125,58.9883 L112.125,85.9883 M99.125,66.9883 L125.125,66.9883 M112.125,85.9883 L99.125,100.9883 M112.125,85.9883 L125.125,100.9883" fill="none" style="stroke:#181818;stroke-width:0.5;"/></g><g class="participant participant-head" data-participant="Controller"><rect fill="#E3E3E3" height="30.4883" rx="2.5" ry="2.5" style="stroke:#181818;stroke-width:0.5;" width="233.748" x="312.7222" y="87.4883"/><text fill="#000000" font-family="sans-serif" font-size="14" lengthAdjust="spacing" textLength="219.748" x="319.7222" y="108.0234">VesselVisitNotificationController</text></g><g class="participant participant-head" data-participant="Service"><rect fill="#E3E3E3" height="30.4883" rx="2.5" ry="2.5" style="stroke:#181818;stroke-width:0.5;" width="212.9189" x="619.3052" y="87.4883"/><text fill="#000000" font-family="sans-serif" font-size="14" lengthAdjust="spacing" textLength="198.9189" x="626.3052" y="108.0234">VesselVisitNotificationService</text></g><g class="participant participant-head" data-participant="Repo"><rect fill="#E3E3E3" height="30.4883" rx="2.5" ry="2.5" style="stroke:#181818;stroke-width:0.5;" width="241.7461" x="882.2241" y="87.4883"/><text fill="#000000" font-family="sans-serif" font-size="14" lengthAdjust="spacing" textLength="227.7461" x="889.2241" y="108.0234">IVesselVisitNotificationRepository</text></g><g class="participant participant-head" data-participant="VVN"><rect fill="#E3E3E3" height="30.4883" rx="2.5" ry="2.5" style="stroke:#181818;stroke-width:0.5;" width="165.5869" x="1173.9702" y="87.4883"/><text fill="#000000" font-family="sans-serif" font-size="14" lengthAdjust="spacing" textLength="151.5869" x="1180.9702" y="108.0234">VesselVisitNotification</text></g><g class="participant participant-head" data-participant="UoW"><rect fill="#E3E3E3" height="30.4883" rx="2.5" ry="2.5" style="stroke:#181818;stroke-width:0.5;" width="96.2158" x="1389.5571" y="87.4883"/><text fill="#000000" font-family="sans-serif" font-size="14" lengthAdjust="spacing" textLength="82.2158" x="1396.5571" y="108.0234">IUnitOfWork</text></g><rect fill="#EEEEEE" height="3" style="stroke:#EEEEEE;stroke-width:1;" width="1510.7729" x="0" y="149.6318"/><line style="stroke:#000000;stroke-width:1;" x1="0" x2="1510.7729" y1="149.6318" y2="149.6318"/><line style="stroke:#000000;stroke-width:1;" x1="0" x2="1510.7729" y1="152.6318" y2="152.6318"/><rect fill="#EEEEEE" height="23.3105" style="stroke:#000000;stroke-width:2;" width="101.1089" x="704.832" y="138.9766"/><text fill="#000000" font-family="sans-serif" font-size="13" font-weight="bold" lengthAdjust="spacing" textLength="82.8242" x="710.832" y="155.5449">Update Flow</text><g class="message" data-participant-1="Agent" data-participant-2="Controller"><polygon fill="#181818" points="417.5962,204.9082,427.5962,208.9082,417.5962,212.9082,421.5962,208.9082" style="stroke:#181818;stroke-width:1;"/><line style="stroke:#181818;stroke-width:1;" x1="112.125" x2="423.5962" y1="208.9082" y2="208.9082"/><text fill="#000000" font-family="sans-serif" font-size="13" lengthAdjust="spacing" textLength="229.252" x="156.2346" y="188.8555">PUT /api/VesselVisitNotification/{id}</text><text fill="#000000" font-family="sans-serif" font-size="13" lengthAdjust="spacing" textLength="216.4551" x="162.6331" y="204.166">(UpdateVesselVisitNotificationDto)</text></g><g class="message" data-participant-1="Controller" data-participant-2="Service"><polygon fill="#181818" points="713.7646,234.2188,723.7646,238.2188,713.7646,242.2188,717.7646,238.2188" style="stroke:#181818;stroke-width:1;"/><line style="stroke:#181818;stroke-width:1;" x1="429.5962" x2="719.7646" y1="238.2188" y2="238.2188"/><text fill="#000000" font-family="sans-serif" font-size="13" lengthAdjust="spacing" textLength="272.1685" x="441.5962" y="233.4766">UpdateAsync(VesselVisitNotificationId, dto)</text></g><g class="message" data-participant-1="Service" data-participant-2="Repo"><polygon fill="#181818" points="991.0972,263.5293,1001.0972,267.5293,991.0972,271.5293,995.0972,267.5293" style="stroke:#181818;stroke-width:1;"/><line style="stroke:#181818;stroke-width:1;" x1="725.7646" x2="997.0972" y1="267.5293" y2="267.5293"/><text fill="#000000" font-family="sans-serif" font-size="13" lengthAdjust="spacing" textLength="105.2061" x="811.8279" y="262.7871">GetByIdAsync(id)</text></g><g class="message" data-participant-1="Repo" data-participant-2="Service"><polygon fill="#181818" points="736.7646,292.8398,726.7646,296.8398,736.7646,300.8398,732.7646,296.8398" style="stroke:#181818;stroke-width:1;"/><line style="stroke:#181818;stroke-width:1;stroke-dasharray:2,2;" x1="730.7646" x2="1002.0972" y1="296.8398" y2="296.8398"/><text fill="#000000" font-family="sans-serif" font-size="13" lengthAdjust="spacing" textLength="231.4292" x="748.7163" y="292.0977">VesselVisitNotification instance (vvn)</text></g><g class="message" data-participant-1="Service" data-participant-2="VVN"><polygon fill="#181818" points="1244.7637,337.4609,1254.7637,341.4609,1244.7637,345.4609,1248.7637,341.4609" style="stroke:#181818;stroke-width:1;"/><line style="stroke:#181818;stroke-width:1;" x1="725.7646" x2="1250.7637" y1="341.4609" y2="341.4609"/><text fill="#000000" font-family="sans-serif" font-size="13" lengthAdjust="spacing" textLength="115.356" x="933.5862" y="321.4082">Validate IsEditable</text><text fill="#000000" font-family="sans-serif" font-size="13" lengthAdjust="spacing" textLength="251.4243" x="865.552" y="336.7188">(only InProgress or PendingInformation)</text></g><g class="message" data-participant-1="VVN" data-participant-2="Service"><polygon fill="#181818" points="736.7646,366.7715,726.7646,370.7715,736.7646,374.7715,732.7646,370.7715" style="stroke:#181818;stroke-width:1;"/><line style="stroke:#181818;stroke-width:1;stroke-dasharray:2,2;" x1="730.7646" x2="1255.7637" y1="370.7715" y2="370.7715"/><text fill="#000000" font-family="sans-serif" font-size="13" lengthAdjust="spacing" textLength="111.3823" x="935.573" y="366.0293">Validation passed</text></g><path d="M589.3052,385.7715 L651.4438,385.7715 L651.4438,393.082 L641.4438,403.082 L589.3052,403.082 L589.3052,385.7715" fill="#EEEEEE" style="stroke:#000000;stroke-width:1.5;"/><rect fill="none" height="75.9316" style="stroke:#000000;stroke-width:1.5;" width="780.252" x="589.3052" y="385.7715"/><text fill="#000000" font-family="sans-serif" font-size="13" font-weight="bold" lengthAdjust="spacing" textLength="17.1387" x="604.3052" y="399.3398">alt</text><text fill="#000000" font-family="sans-serif" font-size="11" font-weight="bold" lengthAdjust="spacing" textLength="102.3838" x="666.4438" y="398.4063">[ETA/ETD update]</text><g class="message" data-participant-1="Service" data-participant-2="VVN"><polygon fill="#181818" points="1244.7637,420.3926,1254.7637,424.3926,1244.7637,428.3926,1248.7637,424.3926" style="stroke:#181818;stroke-width:1;"/><line style="stroke:#181818;stroke-width:1;" x1="725.7646" x2="1250.7637" y1="424.3926" y2="424.3926"/><text fill="#000000" font-family="sans-serif" font-size="13" lengthAdjust="spacing" textLength="341.0215" x="820.7534" y="419.6504">UpdateEstimatedTimeArrival(new ClockTime(dto.ETA))</text></g><g class="message" data-participant-1="Service" data-participant-2="VVN"><polygon fill="#181818" points="1244.7637,449.7031,1254.7637,453.7031,1244.7637,457.7031,1248.7637,453.7031" style="stroke:#181818;stroke-width:1;"/><line style="stroke:#181818;stroke-width:1;" x1="725.7646" x2="1250.7637" y1="453.7031" y2="453.7031"/><text fill="#000000" font-family="sans-serif" font-size="13" lengthAdjust="spacing" textLength="363.9111" x="809.3086" y="448.9609">UpdateEstimatedTimeDeparture(new ClockTime(dto.ETD))</text></g><path d="M589.3052,475.7031 L651.4438,475.7031 L651.4438,483.0137 L641.4438,493.0137 L589.3052,493.0137 L589.3052,475.7031" fill="#EEEEEE" style="stroke:#000000;stroke-width:1.5;"/><rect fill="none" height="46.6211" style="stroke:#000000;stroke-width:1.5;" width="780.252" x="589.3052" y="475.7031"/><text fill="#000000" font-family="sans-serif" font-size="13" font-weight="bold" lengthAdjust="spacing" textLength="17.1387" x="604.3052" y="489.2715">alt</text><text fill="#000000" font-family="sans-serif" font-size="11" font-weight="bold" lengthAdjust="spacing" textLength="93.5752" x="666.4438" y="488.3379">[Volume update]</text><g class="message" data-participant-1="Service" data-participant-2="VVN"><polygon fill="#181818" points="1244.7637,510.3242,1254.7637,514.3242,1244.7637,518.3242,1248.7637,514.3242" style="stroke:#181818;stroke-width:1;"/><line style="stroke:#181818;stroke-width:1;" x1="725.7646" x2="1250.7637" y1="514.3242" y2="514.3242"/><text fill="#000000" font-family="sans-serif" font-size="13" lengthAdjust="spacing" textLength="173.6338" x="904.4473" y="509.582">UpdateVolume(dto.Volume)</text></g><path d="M589.3052,536.3242 L651.4438,536.3242 L651.4438,543.6348 L641.4438,553.6348 L589.3052,553.6348 L589.3052,536.3242" fill="#EEEEEE" style="stroke:#000000;stroke-width:1.5;"/><rect fill="none" height="46.6211" style="stroke:#000000;stroke-width:1.5;" width="780.252" x="589.3052" y="536.3242"/><text fill="#000000" font-family="sans-serif" font-size="13" font-weight="bold" lengthAdjust="spacing" textLength="17.1387" x="604.3052" y="549.8926">alt</text><text fill="#000000" font-family="sans-serif" font-size="11" font-weight="bold" lengthAdjust="spacing" textLength="100.9712" x="666.4438" y="548.959">[Dock list update]</text><g class="message" data-participant-1="Service" data-participant-2="VVN"><polygon fill="#181818" points="1244.7637,570.9453,1254.7637,574.9453,1244.7637,578.9453,1248.7637,574.9453" style="stroke:#181818;stroke-width:1;"/><line style="stroke:#181818;stroke-width:1;" x1="725.7646" x2="1250.7637" y1="574.9453" y2="574.9453"/><text fill="#000000" font-family="sans-serif" font-size="13" lengthAdjust="spacing" textLength="150.9473" x="915.7905" y="570.2031">UpdateListDocks(docks)</text></g><path d="M589.3052,596.9453 L651.4438,596.9453 L651.4438,604.2559 L641.4438,614.2559 L589.3052,614.2559 L589.3052,596.9453" fill="#EEEEEE" style="stroke:#000000;stroke-width:1.5;"/><rect fill="none" height="46.6211" style="stroke:#000000;stroke-width:1.5;" width="780.252" x="589.3052" y="596.9453"/><text fill="#000000" font-family="sans-serif" font-size="13" font-weight="bold" lengthAdjust="spacing" textLength="17.1387" x="604.3052" y="610.5137">alt</text><text fill="#000000" font-family="sans-serif" font-size="11" font-weight="bold" lengthAdjust="spacing" textLength="128.6592" x="666.4438" y="609.5801">[CrewManifest update]</text><g class="message" data-participant-1="Service" data-participant-2="VVN"><polygon fill="#181818" points="1244.7637,631.5664,1254.7637,635.5664,1244.7637,639.5664,1248.7637,635.5664" style="stroke:#181818;stroke-width:1;"/><line style="stroke:#181818;stroke-width:1;" x1="725.7646" x2="1250.7637" y1="635.5664" y2="635.5664"/><text fill="#000000" font-family="sans-serif" font-size="13" lengthAdjust="spacing" textLength="253.1255" x="864.7014" y="630.8242">UpdateCrewManifest(new CrewManifest)</text></g><path d="M589.3052,657.5664 L651.4438,657.5664 L651.4438,664.877 L641.4438,674.877 L589.3052,674.877 L589.3052,657.5664" fill="#EEEEEE" style="stroke:#000000;stroke-width:1.5;"/><rect fill="none" height="75.9316" style="stroke:#000000;stroke-width:1.5;" width="780.252" x="589.3052" y="657.5664"/><text fill="#000000" font-family="sans-serif" font-size="13" font-weight="bold" lengthAdjust="spacing" textLength="17.1387" x="604.3052" y="671.1348">alt</text><text fill="#000000" font-family="sans-serif" font-size="11" font-weight="bold" lengthAdjust="spacing" textLength="133.4717" x="666.4438" y="670.2012">[CargoManifest update]</text><g class="message" data-participant-1="Service" data-participant-2="VVN"><polygon fill="#181818" points="1244.7637,692.1875,1254.7637,696.1875,1244.7637,700.1875,1248.7637,696.1875" style="stroke:#181818;stroke-width:1;"/><line style="stroke:#181818;stroke-width:1;" x1="725.7646" x2="1250.7637" y1="696.1875" y2="696.1875"/><text fill="#000000" font-family="sans-serif" font-size="13" lengthAdjust="spacing" textLength="315.3579" x="833.5852" y="691.4453">UpdateLoadingCargoManifest(new CargoManifest)</text></g><g class="message" data-participant-1="Service" data-participant-2="VVN"><polygon fill="#181818" points="1244.7637,721.498,1254.7637,725.498,1244.7637,729.498,1248.7637,725.498" style="stroke:#181818;stroke-width:1;"/><line style="stroke:#181818;stroke-width:1;" x1="725.7646" x2="1250.7637" y1="725.498" y2="725.498"/><text fill="#000000" font-family="sans-serif" font-size="13" lengthAdjust="spacing" textLength="329.2593" x="826.6345" y="720.7559">UpdateUnloadingCargoManifest(new CargoManifest)</text></g><g class="message" data-participant-1="Service" data-participant-2="UoW"><polygon fill="#181818" points="1425.665,757.8086,1435.665,761.8086,1425.665,765.8086,1429.665,761.8086" style="stroke:#181818;stroke-width:1;"/><line style="stroke:#181818;stroke-width:1;" x1="725.7646" x2="1431.665" y1="761.8086" y2="761.8086"/><text fill="#000000" font-family="sans-serif" font-size="13" lengthAdjust="spacing" textLength="95.4434" x="1033.9932" y="757.0664">CommitAsync()</text></g><g class="message" data-participant-1="UoW" data-participant-2="Service"><polygon fill="#181818" points="736.7646,787.1191,726.7646,791.1191,736.7646,795.1191,732.7646,791.1191" style="stroke:#181818;stroke-width:1;"/><line style="stroke:#181818;stroke-width:1;stroke-dasharray:2,2;" x1="730.7646" x2="1436.665" y1="791.1191" y2="791.1191"/><text fill="#000000" font-family="sans-serif" font-size="13" lengthAdjust="spacing" textLength="145.8628" x="1008.7834" y="786.377">Transaction committed</text></g><g class="message" data-participant-1="Service" data-participant-2="Controller"><polygon fill="#181818" points="440.5962,816.4297,430.5962,820.4297,440.5962,824.4297,436.5962,820.4297" style="stroke:#181818;stroke-width:1;"/><line style="stroke:#181818;stroke-width:1;" x1="434.5962" x2="724.7646" y1="820.4297" y2="820.4297"/><text fill="#000000" font-family="sans-serif" font-size="13" lengthAdjust="spacing" textLength="163.3442" x="496.0083" y="815.6875">VesselVisitNotificationDto</text></g><g class="message" data-participant-1="Controller" data-participant-2="Agent"><polygon fill="#181818" points="123.125,845.7402,113.125,849.7402,123.125,853.7402,119.125,849.7402" style="stroke:#181818;stroke-width:1;"/><line style="stroke:#181818;stroke-width:1;stroke-dasharray:2,2;" x1="117.125" x2="428.5962" y1="849.7402" y2="849.7402"/><text fill="#000000" font-family="sans-serif" font-size="13" lengthAdjust="spacing" textLength="175.6523" x="183.0344" y="844.998">200 OK (Updated VVN DTO)</text></g><rect fill="#EEEEEE" height="3" style="stroke:#EEEEEE;stroke-width:1;" width="1510.7729" x="0" y="878.3955"/><line style="stroke:#000000;stroke-width:1;" x1="0" x2="1510.7729" y1="878.3955" y2="878.3955"/><line style="stroke:#000000;stroke-width:1;" x1="0" x2="1510.7729" y1="881.3955" y2="881.3955"/><rect fill="#EEEEEE" height="23.3105" style="stroke:#000000;stroke-width:2;" width="100.4614" x="705.1558" y="867.7402"/><text fill="#000000" font-family="sans-serif" font-size="13" font-weight="bold" lengthAdjust="spacing" textLength="82.1768" x="711.1558" y="884.3086">Submit Flow</text><g class="message" data-participant-1="Agent" data-participant-2="Controller"><polygon fill="#181818" points="417.5962,918.3613,427.5962,922.3613,417.5962,926.3613,421.5962,922.3613" style="stroke:#181818;stroke-width:1;"/><line style="stroke:#181818;stroke-width:1;" x1="112.125" x2="423.5962" y1="922.3613" y2="922.3613"/><text fill="#000000" font-family="sans-serif" font-size="13" lengthAdjust="spacing" textLength="279.7031" x="131.009" y="917.6191">PUT /api/VesselVisitNotification/{id}/submit</text></g><g class="message" data-participant-1="Controller" data-participant-2="Service"><polygon fill="#181818" points="713.7646,947.6719,723.7646,951.6719,713.7646,955.6719,717.7646,951.6719" style="stroke:#181818;stroke-width:1;"/><line style="stroke:#181818;stroke-width:1;" x1="429.5962" x2="719.7646" y1="951.6719" y2="951.6719"/><text fill="#000000" font-family="sans-serif" font-size="13" lengthAdjust="spacing" textLength="127.7148" x="513.823" y="946.9297">SubmitByIdAsync(id)</text></g><g class="message" data-participant-1="Service" data-participant-2="Repo"><polygon fill="#181818" points="991.0972,976.9824,1001.0972,980.9824,991.0972,984.9824,995.0972,980.9824" style="stroke:#181818;stroke-width:1;"/><line style="stroke:#181818;stroke-width:1;" x1="725.7646" x2="997.0972" y1="980.9824" y2="980.9824"/><text fill="#000000" font-family="sans-serif" font-size="13" lengthAdjust="spacing" textLength="105.2061" x="811.8279" y="976.2402">GetByIdAsync(id)</text></g><g class="message" data-participant-1="Repo" data-participant-2="Service"><polygon fill="#181818" points="736.7646,1006.293,726.7646,1010.293,736.7646,1014.293,732.7646,1010.293" style="stroke:#181818;stroke-width:1;"/><line style="stroke:#181818;stroke-width:1;stroke-dasharray:2,2;" x1="730.7646" x2="1002.0972" y1="1010.293" y2="1010.293"/><text fill="#000000" font-family="sans-serif" font-size="13" lengthAdjust="spacing" textLength="21.5249" x="853.6685" y="1005.5508">vvn</text></g><g class="message" data-participant-1="Service" data-participant-2="VVN"><polygon fill="#181818" points="1244.7637,1035.6035,1254.7637,1039.6035,1244.7637,1043.6035,1248.7637,1039.6035" style="stroke:#181818;stroke-width:1;"/><line style="stroke:#181818;stroke-width:1;" x1="725.7646" x2="1250.7637" y1="1039.6035" y2="1039.6035"/><text fill="#000000" font-family="sans-serif" font-size="13" lengthAdjust="spacing" textLength="52.4634" x="965.0325" y="1034.8613">Submit()</text></g><g class="message" data-participant-1="VVN" data-participant-2="Service"><polygon fill="#181818" points="736.7646,1064.9141,726.7646,1068.9141,736.7646,1072.9141,732.7646,1068.9141" style="stroke:#181818;stroke-width:1;"/><line style="stroke:#181818;stroke-width:1;stroke-dasharray:2,2;" x1="730.7646" x2="1255.7637" y1="1068.9141" y2="1068.9141"/><text fill="#000000" font-family="sans-serif" font-size="13" lengthAdjust="spacing" textLength="121.4561" x="930.5361" y="1064.1719">Status = Submitted</text></g><g class="message" data-participant-1="Service" data-participant-2="UoW"><polygon fill="#181818" points="1425.665,1094.2246,1435.665,1098.2246,1425.665,1102.2246,1429.665,1098.2246" style="stroke:#181818;stroke-width:1;"/><line style="stroke:#181818;stroke-width:1;" x1="725.7646" x2="1431.665" y1="1098.2246" y2="1098.2246"/><text fill="#000000" font-family="sans-serif" font-size="13" lengthAdjust="spacing" textLength="95.4434" x="1033.9932" y="1093.4824">CommitAsync()</text></g><g class="message" data-participant-1="UoW" data-participant-2="Service"><polygon fill="#181818" points="736.7646,1123.5352,726.7646,1127.5352,736.7646,1131.5352,732.7646,1127.5352" style="stroke:#181818;stroke-width:1;"/><line style="stroke:#181818;stroke-width:1;stroke-dasharray:2,2;" x1="730.7646" x2="1436.665" y1="1127.5352" y2="1127.5352"/><text fill="#000000" font-family="sans-serif" font-size="13" lengthAdjust="spacing" textLength="145.8628" x="1008.7834" y="1122.793">Transaction committed</text></g><g class="message" data-participant-1="Service" data-participant-2="Controller"><polygon fill="#181818" points="440.5962,1152.8457,430.5962,1156.8457,440.5962,1160.8457,436.5962,1156.8457" style="stroke:#181818;stroke-width:1;"/><line style="stroke:#181818;stroke-width:1;" x1="434.5962" x2="724.7646" y1="1156.8457" y2="1156.8457"/><text fill="#000000" font-family="sans-serif" font-size="13" lengthAdjust="spacing" textLength="163.3442" x="496.0083" y="1152.1035">VesselVisitNotificationDto</text></g><g class="message" data-participant-1="Controller" data-participant-2="Agent"><polygon fill="#181818" points="123.125,1182.1563,113.125,1186.1563,123.125,1190.1563,119.125,1186.1563" style="stroke:#181818;stroke-width:1;"/><line style="stroke:#181818;stroke-width:1;stroke-dasharray:2,2;" x1="117.125" x2="428.5962" y1="1186.1563" y2="1186.1563"/><text fill="#000000" font-family="sans-serif" font-size="13" lengthAdjust="spacing" textLength="154.9399" x="193.3906" y="1181.4141">200 OK (Submitted VVN)</text></g><rect fill="#EEEEEE" height="3" style="stroke:#EEEEEE;stroke-width:1;" width="1510.7729" x="0" y="1214.8115"/><line style="stroke:#000000;stroke-width:1;" x1="0" x2="1510.7729" y1="1214.8115" y2="1214.8115"/><line style="stroke:#000000;stroke-width:1;" x1="0" x2="1510.7729" y1="1217.8115" y2="1217.8115"/><rect fill="#EEEEEE" height="23.3105" style="stroke:#000000;stroke-width:2;" width="116.9463" x="696.9133" y="1204.1563"/><text fill="#000000" font-family="sans-serif" font-size="13" font-weight="bold" lengthAdjust="spacing" textLength="98.6616" x="702.9133" y="1220.7246">Withdraw Flow</text><g class="message" data-participant-1="Agent" data-participant-2="Controller"><polygon fill="#181818" points="417.5962,1254.7773,427.5962,1258.7773,417.5962,1262.7773,421.5962,1258.7773" style="stroke:#181818;stroke-width:1;"/><line style="stroke:#181818;stroke-width:1;" x1="112.125" x2="423.5962" y1="1258.7773" y2="1258.7773"/><text fill="#000000" font-family="sans-serif" font-size="13" lengthAdjust="spacing" textLength="293.4712" x="124.125" y="1254.0352">PUT /api/VesselVisitNotification/{id}/withdraw</text></g><g class="message" data-participant-1="Controller" data-participant-2="Service"><polygon fill="#181818" points="713.7646,1284.0879,723.7646,1288.0879,713.7646,1292.0879,717.7646,1288.0879" style="stroke:#181818;stroke-width:1;"/><line style="stroke:#181818;stroke-width:1;" x1="429.5962" x2="719.7646" y1="1288.0879" y2="1288.0879"/><text fill="#000000" font-family="sans-serif" font-size="13" lengthAdjust="spacing" textLength="142.2129" x="506.574" y="1283.3457">WithdrawByIdAsync(id)</text></g><g class="message" data-participant-1="Service" data-participant-2="Repo"><polygon fill="#181818" points="991.0972,1313.3984,1001.0972,1317.3984,991.0972,1321.3984,995.0972,1317.3984" style="stroke:#181818;stroke-width:1;"/><line style="stroke:#181818;stroke-width:1;" x1="725.7646" x2="997.0972" y1="1317.3984" y2="1317.3984"/><text fill="#000000" font-family="sans-serif" font-size="13" lengthAdjust="spacing" textLength="105.2061" x="811.8279" y="1312.6563">GetByIdAsync(id)</text></g><g class="message" data-participant-1="Repo" data-participant-2="Service"><polygon fill="#181818" points="736.7646,1342.709,726.7646,1346.709,736.7646,1350.709,732.7646,1346.709" style="stroke:#181818;stroke-width:1;"/><line style="stroke:#181818;stroke-width:1;stroke-dasharray:2,2;" x1="730.7646" x2="1002.0972" y1="1346.709" y2="1346.709"/><text fill="#000000" font-family="sans-serif" font-size="13" lengthAdjust="spacing" textLength="21.5249" x="853.6685" y="1341.9668">vvn</text></g><g class="message" data-participant-1="Service" data-participant-2="VVN"><polygon fill="#181818" points="1244.7637,1372.0195,1254.7637,1376.0195,1244.7637,1380.0195,1248.7637,1376.0195" style="stroke:#181818;stroke-width:1;"/><line style="stroke:#181818;stroke-width:1;" x1="725.7646" x2="1250.7637" y1="1376.0195" y2="1376.0195"/><text fill="#000000" font-family="sans-serif" font-size="13" lengthAdjust="spacing" textLength="66.9614" x="957.7834" y="1371.2773">Withdraw()</text></g><g class="message" data-participant-1="VVN" data-participant-2="Service"><polygon fill="#181818" points="736.7646,1401.3301,726.7646,1405.3301,736.7646,1409.3301,732.7646,1405.3301" style="stroke:#181818;stroke-width:1;"/><line style="stroke:#181818;stroke-width:1;stroke-dasharray:2,2;" x1="730.7646" x2="1255.7637" y1="1405.3301" y2="1405.3301"/><text fill="#000000" font-family="sans-serif" font-size="13" lengthAdjust="spacing" textLength="123.7349" x="929.3967" y="1400.5879">Status = Withdrawn</text></g><g class="message" data-participant-1="Service" data-participant-2="UoW"><polygon fill="#181818" points="1425.665,1430.6406,1435.665,1434.6406,1425.665,1438.6406,1429.665,1434.6406" style="stroke:#181818;stroke-width:1;"/><line style="stroke:#181818;stroke-width:1;" x1="725.7646" x2="1431.665" y1="1434.6406" y2="1434.6406"/><text fill="#000000" font-family="sans-serif" font-size="13" lengthAdjust="spacing" textLength="95.4434" x="1033.9932" y="1429.8984">CommitAsync()</text></g><g class="message" data-participant-1="UoW" data-participant-2="Service"><polygon fill="#181818" points="736.7646,1459.9512,726.7646,1463.9512,736.7646,1467.9512,732.7646,1463.9512" style="stroke:#181818;stroke-width:1;"/><line style="stroke:#181818;stroke-width:1;stroke-dasharray:2,2;" x1="730.7646" x2="1436.665" y1="1463.9512" y2="1463.9512"/><text fill="#000000" font-family="sans-serif" font-size="13" lengthAdjust="spacing" textLength="145.8628" x="1008.7834" y="1459.209">Transaction committed</text></g><g class="message" data-participant-1="Service" data-participant-2="Controller"><polygon fill="#181818" points="440.5962,1489.2617,430.5962,1493.2617,440.5962,1497.2617,436.5962,1493.2617" style="stroke:#181818;stroke-width:1;"/><line style="stroke:#181818;stroke-width:1;" x1="434.5962" x2="724.7646" y1="1493.2617" y2="1493.2617"/><text fill="#000000" font-family="sans-serif" font-size="13" lengthAdjust="spacing" textLength="163.3442" x="496.0083" y="1488.5195">VesselVisitNotificationDto</text></g><g class="message" data-participant-1="Controller" data-participant-2="Agent"><polygon fill="#181818" points="123.125,1518.5723,113.125,1522.5723,123.125,1526.5723,119.125,1522.5723" style="stroke:#181818;stroke-width:1;"/><line style="stroke:#181818;stroke-width:1;stroke-dasharray:2,2;" x1="117.125" x2="428.5962" y1="1522.5723" y2="1522.5723"/><text fill="#000000" font-family="sans-serif" font-size="13" lengthAdjust="spacing" textLength="157.2188" x="192.2512" y="1517.8301">200 OK (Withdrawn VVN)</text></g><!--SRC=[pPLBRnen483l_XMZd5Yf2MbkZKGb2hH2pGELHowzE6i38uozjGqKLVtl6TkGxYRPb5PKwXvMNdlccvTdrYrG5zpo9IoDDldScgK4RrUIkSSJD-V2R53FOCgLAv_GssEE1TT-m8K88XVdPKtvRILrBjlMcireZlb2I-VWxGiYrtJ0PxAjSAOXbzfBo-Oe94oDyVVcEsCUlP8mtCb35_ai04vXFBmukpXx1-D2S2_1MEYOPQ4ahIT4bGecwD33ZV4unPnxD9enddkIF1dEiIY2u-qP6OKlih3IqOgarl84k4i7Z9LYXPF4ZTWojMEqjqOfQQFchy-3j8VIhZ5FHdVhgbw_Hf6SDhHbx3RgXi-334RfoUJcYPMnHdyxlJDs4GN6vewnLckVte_ARA3LOYmbxFHzAKouXC5u14rUOBF6PlC7YfzVTIFHQeIwtcIiX2KZkuIGXQJPTbkTDshq- -8DYC3OQn4WP8MqFqd_OTiNIHr5nkB-QSL23HLGEy_3tMkirpfZPJfbCIXoXJ59VTSJwFczaXIgqMeBVJsmPcR3zQThDv0wT4jVJurTHdZ60kA97maNJ1USN19qQvM7tgZTx8swi8g9O43FCqzIadhE8-6b6E4oD26kkMfekO6EClaYR3OeJMS4pBA3ELqPhilAoXT9NI9HSCdJYL4hcYU_TpG9HaHQbY1TCW0AdJ-0SqLYGTurH7YNA1qhDzTSurGU12gBfpXB6sKijpFp1zmhmqFXAsg9NzvvjHXZhGw4H2zB5Efaej1mNA9F3P2ni5UzTIFBjQFf6AvT7cMzh78g3L_VmfKE9hKqC2xf5t4EjvzXDm943AuxkitYb1ckxidYKQPCqqLMxI19fghJuEy61es3vyCWuHilDVQGVYyh1_jeGtwFLARZL-dHnH1Mgj4T-hcmV7ESAcrsjDewxStziqhj3RnUgxsK_dzhzUXYgjK3]--></g></svg>