<svg xmlns="http://www.w3.org/2000/svg" xmlns:xlink="http://www.w3.org/1999/xlink" contentStyleType="text/css" data-diagram-type="CLASS" height="907px" preserveAspectRatio="none" style="width:2244px;height:907px;background:#FFFFFF;" version="1.1" viewBox="0 0 2244 907" width="2244px" zoomAndPan="magnify"><title>Class Diagram - US2.2.9 Update or Complete Vessel Visit Notification</title><defs/><g><g class="title" data-source-line="6"><text fill="#000000" font-family="sans-serif" font-size="14" font-weight="bold" lengthAdjust="spacing" textLength="501.334" x="864.333" y="23.5352">Class Diagram - US2.2.9 Update or Complete Vessel Visit Notification</text></g><!--cluster API Layer--><g class="cluster" data-entity="API Layer" data-source-line="8" data-uid="ent0002" id="cluster_API Layer"><path d="M1240.5,117.6883 L1308.752,117.6883 A3.75,3.75 0 0 1 1311.252,120.1883 L1318.252,140.1766 L1493.5,140.1766 A2.5,2.5 0 0 1 1496,142.6766 L1496,200.6683 A2.5,2.5 0 0 1 1493.5,203.1683 L1240.5,203.1683 A2.5,2.5 0 0 1 1238,200.6683 L1238,120.1883 A2.5,2.5 0 0 1 1240.5,117.6883" fill="none" style="stroke:#000000;stroke-width:1.5;"/><line style="stroke:#000000;stroke-width:1.5;" x1="1238" x2="1318.252" y1="140.1766" y2="140.1766"/><text fill="#000000" font-family="sans-serif" font-size="14" font-weight="bold" lengthAdjust="spacing" textLength="67.252" x="1242" y="133.2234">API Layer</text></g><!--cluster Application Layer--><g class="cluster" data-entity="Application Layer" data-source-line="17" data-uid="ent0004" id="cluster_Application Layer"><path d="M1251.5,326.3683 L1378.2266,326.3683 A3.75,3.75 0 0 1 1380.7266,328.8683 L1387.7266,348.8566 L1482.5,348.8566 A2.5,2.5 0 0 1 1485,351.3566 L1485,409.3583 A2.5,2.5 0 0 1 1482.5,411.8583 L1251.5,411.8583 A2.5,2.5 0 0 1 1249,409.3583 L1249,328.8683 A2.5,2.5 0 0 1 1251.5,326.3683" fill="none" style="stroke:#000000;stroke-width:1.5;"/><line style="stroke:#000000;stroke-width:1.5;" x1="1249" x2="1387.7266" y1="348.8566" y2="348.8566"/><text fill="#000000" font-family="sans-serif" font-size="14" font-weight="bold" lengthAdjust="spacing" textLength="125.7266" x="1253" y="341.9034">Application Layer</text></g><!--cluster Domain Layer--><g class="cluster" data-entity="Domain Layer" data-source-line="28" data-uid="ent0006" id="cluster_Domain Layer"><path d="M8.5,460.8583 L108.8125,460.8583 A3.75,3.75 0 0 1 111.3125,463.3583 L118.3125,483.3466 L1207.5,483.3466 A2.5,2.5 0 0 1 1210,485.8466 L1210,897.9483 A2.5,2.5 0 0 1 1207.5,900.4483 L8.5,900.4483 A2.5,2.5 0 0 1 6,897.9483 L6,463.3583 A2.5,2.5 0 0 1 8.5,460.8583" fill="none" style="stroke:#000000;stroke-width:1.5;"/><line style="stroke:#000000;stroke-width:1.5;" x1="6" x2="118.3125" y1="483.3466" y2="483.3466"/><text fill="#000000" font-family="sans-serif" font-size="14" font-weight="bold" lengthAdjust="spacing" textLength="99.3125" x="10" y="476.3934">Domain Layer</text></g><!--cluster Infrastructure Layer--><g class="cluster" data-entity="Infrastructure Layer" data-source-line="99" data-uid="ent0016" id="cluster_Infrastructure Layer"><path d="M1236.5,533.8783 L1381.4854,533.8783 A3.75,3.75 0 0 1 1383.9854,536.3783 L1390.9854,556.3666 L1620.5,556.3666 A2.5,2.5 0 0 1 1623,558.8666 L1623,616.8683 A2.5,2.5 0 0 1 1620.5,619.3683 L1236.5,619.3683 A2.5,2.5 0 0 1 1234,616.8683 L1234,536.3783 A2.5,2.5 0 0 1 1236.5,533.8783" fill="none" style="stroke:#000000;stroke-width:1.5;"/><line style="stroke:#000000;stroke-width:1.5;" x1="1234" x2="1390.9854" y1="556.3666" y2="556.3666"/><text fill="#000000" font-family="sans-serif" font-size="14" font-weight="bold" lengthAdjust="spacing" textLength="143.9854" x="1238" y="549.4134">Infrastructure Layer</text></g><!--cluster DTOs--><g class="cluster" data-entity="DTOs" data-source-line="112" data-uid="ent0019" id="cluster_DTOs"><path d="M1522.5,43.4883 L1563.7021,43.4883 A3.75,3.75 0 0 1 1566.2021,45.9883 L1573.2021,65.9766 L2234.5,65.9766 A2.5,2.5 0 0 1 2237,68.4766 L2237,274.8683 A2.5,2.5 0 0 1 2234.5,277.3683 L1522.5,277.3683 A2.5,2.5 0 0 1 1520,274.8683 L1520,45.9883 A2.5,2.5 0 0 1 1522.5,43.4883" fill="none" style="stroke:#000000;stroke-width:1.5;"/><line style="stroke:#000000;stroke-width:1.5;" x1="1520" x2="1573.2021" y1="65.9766" y2="65.9766"/><text fill="#000000" font-family="sans-serif" font-size="14" font-weight="bold" lengthAdjust="spacing" textLength="40.2021" x="1524" y="59.0234">DTOs</text></g><!--class VesselVisitNotificationController--><g class="entity" data-entity="VesselVisitNotificationController" data-source-line="9" data-uid="ent0003" id="entity_VesselVisitNotificationController"><rect fill="#F1F1F1" height="34.4883" rx="2.5" ry="2.5" style="stroke:#181818;stroke-width:0.5;" width="225.748" x="1254.13" y="152.6883"/><text fill="#000000" font-family="sans-serif" font-size="14" lengthAdjust="spacing" textLength="219.748" x="1257.13" y="171.2234">VesselVisitNotificationController</text><line style="stroke:#181818;stroke-width:0.5;" x1="1255.13" x2="1478.878" y1="179.1766" y2="179.1766"/></g><!--class VesselVisitNotificationService--><g class="entity" data-entity="VesselVisitNotificationService" data-source-line="18" data-uid="ent0005" id="entity_VesselVisitNotificationService"><rect fill="#F1F1F1" height="34.4883" rx="2.5" ry="2.5" style="stroke:#181818;stroke-width:0.5;" width="204.9189" x="1264.54" y="361.3683"/><text fill="#000000" font-family="sans-serif" font-size="14" lengthAdjust="spacing" textLength="198.9189" x="1267.54" y="379.9034">VesselVisitNotificationService</text><line style="stroke:#181818;stroke-width:0.5;" x1="1265.54" x2="1468.4589" y1="387.8566" y2="387.8566"/></g><!--class VesselVisitNotification--><g class="entity" data-entity="VesselVisitNotification" data-source-line="29" data-uid="ent0007" id="entity_VesselVisitNotification"><rect fill="#F1F1F1" height="180.5273" rx="2.5" ry="2.5" style="stroke:#181818;stroke-width:0.5;" width="274.7529" x="585.62" y="495.8583"/><text fill="#000000" font-family="sans-serif" font-size="12" font-style="italic" lengthAdjust="spacing" textLength="99.5156" x="673.2387" y="512.4598">&#171;AggregateRoot&#187;</text><text fill="#000000" font-family="sans-serif" font-size="14" lengthAdjust="spacing" textLength="151.5869" x="647.203" y="528.5263">VesselVisitNotification</text><line style="stroke:#181818;stroke-width:0.5;" x1="586.62" x2="859.3729" y1="536.4794" y2="536.4794"/><ellipse cx="596.62" cy="550.2235" fill="none" rx="3" ry="3" style="stroke:#545454;stroke-width:1;"/><text fill="#000000" font-family="sans-serif" font-size="14" lengthAdjust="spacing" textLength="103.7422" x="605.62" y="554.0145">Code: VvnCode</text><ellipse cx="596.62" cy="566.7118" fill="none" rx="3" ry="3" style="stroke:#545454;stroke-width:1;"/><text fill="#000000" font-family="sans-serif" font-size="14" lengthAdjust="spacing" textLength="224.9297" x="605.62" y="570.5028">EstimatedTimeArrival: ClockTime</text><ellipse cx="596.62" cy="583.2001" fill="none" rx="3" ry="3" style="stroke:#545454;stroke-width:1;"/><text fill="#000000" font-family="sans-serif" font-size="14" lengthAdjust="spacing" textLength="248.7529" x="605.62" y="586.9911">EstimatedTimeDeparture: ClockTime</text><ellipse cx="596.62" cy="599.6884" fill="none" rx="3" ry="3" style="stroke:#545454;stroke-width:1;"/><text fill="#000000" font-family="sans-serif" font-size="14" lengthAdjust="spacing" textLength="200.8057" x="605.62" y="603.4794">ActualTimeArrival: ClockTime</text><ellipse cx="596.62" cy="616.1766" fill="none" rx="3" ry="3" style="stroke:#545454;stroke-width:1;"/><text fill="#000000" font-family="sans-serif" font-size="14" lengthAdjust="spacing" textLength="224.6289" x="605.62" y="619.9677">ActualTimeDeparture: ClockTime</text><ellipse cx="596.62" cy="632.6649" fill="none" rx="3" ry="3" style="stroke:#545454;stroke-width:1;"/><text fill="#000000" font-family="sans-serif" font-size="14" lengthAdjust="spacing" textLength="188.8086" x="605.62" y="636.4559">AcceptanceDate: ClockTime</text><ellipse cx="596.62" cy="649.1532" fill="none" rx="3" ry="3" style="stroke:#545454;stroke-width:1;"/><text fill="#000000" font-family="sans-serif" font-size="14" lengthAdjust="spacing" textLength="106.9756" x="605.62" y="652.9442">Volume: double</text><ellipse cx="596.62" cy="665.6415" fill="none" rx="3" ry="3" style="stroke:#545454;stroke-width:1;"/><text fill="#000000" font-family="sans-serif" font-size="14" lengthAdjust="spacing" textLength="117.0859" x="605.62" y="669.4325">Status: VvnStatus</text></g><!--class VvnCode--><g class="entity" data-entity="VvnCode" data-source-line="50" data-uid="ent0008" id="entity_VvnCode"><rect fill="#F1F1F1" height="98.0859" rx="2.5" ry="2.5" style="stroke:#181818;stroke-width:0.5;" width="138.7246" x="25.64" y="537.0783"/><text fill="#000000" font-family="sans-serif" font-size="12" font-style="italic" lengthAdjust="spacing" textLength="82.4941" x="53.7552" y="553.6798">&#171;ValueObject&#187;</text><text fill="#000000" font-family="sans-serif" font-size="14" lengthAdjust="spacing" textLength="59.9854" x="65.0096" y="569.7463">VvnCode</text><line style="stroke:#181818;stroke-width:0.5;" x1="26.64" x2="163.3646" y1="577.6994" y2="577.6994"/><ellipse cx="36.64" cy="591.4435" fill="none" rx="3" ry="3" style="stroke:#545454;stroke-width:1;"/><text fill="#000000" font-family="sans-serif" font-size="14" lengthAdjust="spacing" textLength="78.4082" x="45.64" y="595.2345">Year: string</text><ellipse cx="36.64" cy="607.9318" fill="none" rx="3" ry="3" style="stroke:#545454;stroke-width:1;"/><text fill="#000000" font-family="sans-serif" font-size="14" lengthAdjust="spacing" textLength="110.626" x="45.64" y="611.7228">PortCode: string</text><ellipse cx="36.64" cy="624.4201" fill="none" rx="3" ry="3" style="stroke:#545454;stroke-width:1;"/><text fill="#000000" font-family="sans-serif" font-size="14" lengthAdjust="spacing" textLength="112.7246" x="45.64" y="628.2111">Sequence: string</text></g><!--class ClockTime--><g class="entity" data-entity="ClockTime" data-source-line="56" data-uid="ent0009" id="entity_ClockTime"><rect fill="#F1F1F1" height="65.1094" rx="2.5" ry="2.5" style="stroke:#181818;stroke-width:0.5;" width="137.3027" x="199.35" y="553.5683"/><text fill="#000000" font-family="sans-serif" font-size="12" font-style="italic" lengthAdjust="spacing" textLength="82.4941" x="226.7543" y="570.1698">&#171;ValueObject&#187;</text><text fill="#000000" font-family="sans-serif" font-size="14" lengthAdjust="spacing" textLength="71.4561" x="232.2733" y="586.2363">ClockTime</text><line style="stroke:#181818;stroke-width:0.5;" x1="200.35" x2="335.6527" y1="594.1894" y2="594.1894"/><ellipse cx="210.35" cy="607.9335" fill="none" rx="3" ry="3" style="stroke:#545454;stroke-width:1;"/><text fill="#000000" font-family="sans-serif" font-size="14" lengthAdjust="spacing" textLength="111.3027" x="219.35" y="611.7245">Value: DateTime</text></g><!--class VvnStatus--><g class="entity" data-entity="VvnStatus" data-source-line="60" data-uid="ent0010" id="entity_VvnStatus"><rect fill="#F1F1F1" height="131.0625" rx="2.5" ry="2.5" style="stroke:#181818;stroke-width:0.5;" width="146.0732" x="21.96" y="753.3883"/><text fill="#000000" font-family="sans-serif" font-size="12" font-style="italic" lengthAdjust="spacing" textLength="86.1738" x="51.9097" y="769.9898">&#171;Enumeration&#187;</text><text fill="#000000" font-family="sans-serif" font-size="14" lengthAdjust="spacing" textLength="66.6572" x="61.668" y="786.0563">VvnStatus</text><line style="stroke:#181818;stroke-width:0.5;" x1="22.96" x2="167.0332" y1="794.0094" y2="794.0094"/><text fill="#000000" font-family="sans-serif" font-size="14" lengthAdjust="spacing" text-decoration="underline" textLength="71.3193" x="27.96" y="811.5445">InProgress</text><text fill="#000000" font-family="sans-serif" font-size="14" lengthAdjust="spacing" text-decoration="underline" textLength="134.0732" x="27.96" y="828.0328">PendingInformation</text><text fill="#000000" font-family="sans-serif" font-size="14" lengthAdjust="spacing" text-decoration="underline" textLength="71.6953" x="27.96" y="844.5211">Withdrawn</text><text fill="#000000" font-family="sans-serif" font-size="14" lengthAdjust="spacing" text-decoration="underline" textLength="69.2412" x="27.96" y="861.0094">Submitted</text><text fill="#000000" font-family="sans-serif" font-size="14" lengthAdjust="spacing" text-decoration="underline" textLength="62.46" x="27.96" y="877.4977">Accepted</text></g><!--class CrewManifest--><g class="entity" data-entity="CrewManifest" data-source-line="68" data-uid="ent0011" id="entity_CrewManifest"><rect fill="#F1F1F1" height="81.5977" rx="2.5" ry="2.5" style="stroke:#181818;stroke-width:0.5;" width="165.3027" x="203.35" y="778.1183"/><text fill="#000000" font-family="sans-serif" font-size="12" font-style="italic" lengthAdjust="spacing" textLength="99.5156" x="236.2436" y="794.7198">&#171;AggregateRoot&#187;</text><text fill="#000000" font-family="sans-serif" font-size="14" lengthAdjust="spacing" textLength="91.8477" x="240.0775" y="810.7863">CrewManifest</text><line style="stroke:#181818;stroke-width:0.5;" x1="204.35" x2="367.6527" y1="818.7394" y2="818.7394"/><ellipse cx="214.35" cy="832.4835" fill="none" rx="3" ry="3" style="stroke:#545454;stroke-width:1;"/><text fill="#000000" font-family="sans-serif" font-size="14" lengthAdjust="spacing" textLength="95.2998" x="223.35" y="836.2745">TotalCrew: int</text><ellipse cx="214.35" cy="848.9718" fill="none" rx="3" ry="3" style="stroke:#545454;stroke-width:1;"/><text fill="#000000" font-family="sans-serif" font-size="14" lengthAdjust="spacing" textLength="139.3027" x="223.35" y="852.7628">CaptainName: string</text></g><!--class CargoManifest--><g class="entity" data-entity="CargoManifest" data-source-line="73" data-uid="ent0012" id="entity_CargoManifest"><rect fill="#F1F1F1" height="114.5742" rx="2.5" ry="2.5" style="stroke:#181818;stroke-width:0.5;" width="198.7373" x="403.63" y="761.6283"/><text fill="#000000" font-family="sans-serif" font-size="12" font-style="italic" lengthAdjust="spacing" textLength="99.5156" x="453.2408" y="778.2298">&#171;AggregateRoot&#187;</text><text fill="#000000" font-family="sans-serif" font-size="14" lengthAdjust="spacing" textLength="98.3213" x="453.838" y="794.2963">CargoManifest</text><line style="stroke:#181818;stroke-width:0.5;" x1="404.63" x2="601.3673" y1="802.2494" y2="802.2494"/><ellipse cx="414.63" cy="815.9935" fill="none" rx="3" ry="3" style="stroke:#545454;stroke-width:1;"/><text fill="#000000" font-family="sans-serif" font-size="14" lengthAdjust="spacing" textLength="83.3232" x="423.63" y="819.7845">Code: string</text><ellipse cx="414.63" cy="832.4818" fill="none" rx="3" ry="3" style="stroke:#545454;stroke-width:1;"/><text fill="#000000" font-family="sans-serif" font-size="14" lengthAdjust="spacing" textLength="172.7373" x="423.63" y="836.2728">Type: CargoManifestType</text><ellipse cx="414.63" cy="848.9701" fill="none" rx="3" ry="3" style="stroke:#545454;stroke-width:1;"/><text fill="#000000" font-family="sans-serif" font-size="14" lengthAdjust="spacing" textLength="116.5869" x="423.63" y="852.7611">CreatedBy: string</text><ellipse cx="414.63" cy="865.4584" fill="none" rx="3" ry="3" style="stroke:#545454;stroke-width:1;"/><text fill="#000000" font-family="sans-serif" font-size="14" lengthAdjust="spacing" textLength="141.5723" x="423.63" y="869.2494">CreatedAt: DateTime</text></g><!--class EntityDock--><g class="entity" data-entity="EntityDock" data-source-line="80" data-uid="ent0013" id="entity_EntityDock"><rect fill="#F1F1F1" height="81.5977" rx="2.5" ry="2.5" style="stroke:#181818;stroke-width:0.5;" width="139.0938" x="637.45" y="778.1183"/><text fill="#000000" font-family="sans-serif" font-size="12" font-style="italic" lengthAdjust="spacing" textLength="45.2402" x="684.3768" y="794.7198">&#171;Entity&#187;</text><text fill="#000000" font-family="sans-serif" font-size="14" lengthAdjust="spacing" textLength="72.5498" x="670.722" y="810.7863">EntityDock</text><line style="stroke:#181818;stroke-width:0.5;" x1="638.45" x2="775.5438" y1="818.7394" y2="818.7394"/><ellipse cx="648.45" cy="832.4835" fill="none" rx="3" ry="3" style="stroke:#545454;stroke-width:1;"/><text fill="#000000" font-family="sans-serif" font-size="14" lengthAdjust="spacing" textLength="113.0938" x="657.45" y="836.2745">Code: DockCode</text><ellipse cx="648.45" cy="848.9718" fill="none" rx="3" ry="3" style="stroke:#545454;stroke-width:1;"/><text fill="#000000" font-family="sans-serif" font-size="14" lengthAdjust="spacing" textLength="105.9639" x="657.45" y="852.7628">Location: string</text></g><!--class Vessel--><g class="entity" data-entity="Vessel" data-source-line="85" data-uid="ent0014" id="entity_Vessel"><rect fill="#F1F1F1" height="98.0859" rx="2.5" ry="2.5" style="stroke:#181818;stroke-width:0.5;" width="195.1484" x="811.43" y="769.8783"/><text fill="#000000" font-family="sans-serif" font-size="12" font-style="italic" lengthAdjust="spacing" textLength="99.5156" x="859.2464" y="786.4798">&#171;AggregateRoot&#187;</text><text fill="#000000" font-family="sans-serif" font-size="14" lengthAdjust="spacing" textLength="43.0732" x="887.4676" y="802.5463">Vessel</text><line style="stroke:#181818;stroke-width:0.5;" x1="812.43" x2="1005.5784" y1="810.4994" y2="810.4994"/><ellipse cx="822.43" cy="824.2435" fill="none" rx="3" ry="3" style="stroke:#545454;stroke-width:1;"/><text fill="#000000" font-family="sans-serif" font-size="14" lengthAdjust="spacing" textLength="169.1484" x="831.43" y="828.0345">ImoNumber: ImoNumber</text><ellipse cx="822.43" cy="840.7318" fill="none" rx="3" ry="3" style="stroke:#545454;stroke-width:1;"/><text fill="#000000" font-family="sans-serif" font-size="14" lengthAdjust="spacing" textLength="87.3701" x="831.43" y="844.5228">Name: string</text><ellipse cx="822.43" cy="857.2201" fill="none" rx="3" ry="3" style="stroke:#545454;stroke-width:1;"/><text fill="#000000" font-family="sans-serif" font-size="14" lengthAdjust="spacing" textLength="117.4893" x="831.43" y="861.0111">Type: VesselType</text></g><!--class EntityTask--><g class="entity" data-entity="EntityTask" data-source-line="91" data-uid="ent0015" id="entity_EntityTask"><rect fill="#F1F1F1" height="114.5742" rx="2.5" ry="2.5" style="stroke:#181818;stroke-width:0.5;" width="152.1777" x="1041.91" y="761.6283"/><text fill="#000000" font-family="sans-serif" font-size="12" font-style="italic" lengthAdjust="spacing" textLength="45.2402" x="1095.3788" y="778.2298">&#171;Entity&#187;</text><text fill="#000000" font-family="sans-serif" font-size="14" lengthAdjust="spacing" textLength="70.0137" x="1082.992" y="794.2963">EntityTask</text><line style="stroke:#181818;stroke-width:0.5;" x1="1042.91" x2="1193.0877" y1="802.2494" y2="802.2494"/><ellipse cx="1052.91" cy="815.9935" fill="none" rx="3" ry="3" style="stroke:#545454;stroke-width:1;"/><text fill="#000000" font-family="sans-serif" font-size="14" lengthAdjust="spacing" textLength="110.5576" x="1061.91" y="819.7845">Code: TaskCode</text><ellipse cx="1052.91" cy="832.4818" fill="none" rx="3" ry="3" style="stroke:#545454;stroke-width:1;"/><text fill="#000000" font-family="sans-serif" font-size="14" lengthAdjust="spacing" textLength="126.1777" x="1061.91" y="836.2728">Description: string</text><ellipse cx="1052.91" cy="848.9701" fill="none" rx="3" ry="3" style="stroke:#545454;stroke-width:1;"/><text fill="#000000" font-family="sans-serif" font-size="14" lengthAdjust="spacing" textLength="106.3193" x="1061.91" y="852.7611">Type: TaskType</text><ellipse cx="1052.91" cy="865.4584" fill="none" rx="3" ry="3" style="stroke:#545454;stroke-width:1;"/><text fill="#000000" font-family="sans-serif" font-size="14" lengthAdjust="spacing" textLength="123.9014" x="1061.91" y="869.2494">Status: TaskStatus</text></g><!--class IVesselVisitNotificationRepository--><g class="entity" data-entity="IVesselVisitNotificationRepository" data-source-line="100" data-uid="ent0017" id="entity_IVesselVisitNotificationRepository"><rect fill="#F1F1F1" height="34.4883" rx="2.5" ry="2.5" style="stroke:#181818;stroke-width:0.5;" width="233.7461" x="1250.13" y="568.8783"/><text fill="#000000" font-family="sans-serif" font-size="14" font-style="italic" lengthAdjust="spacing" textLength="227.7461" x="1253.13" y="587.4134">IVesselVisitNotificationRepository</text><line style="stroke:#181818;stroke-width:0.5;" x1="1251.13" x2="1482.8761" y1="595.3666" y2="595.3666"/></g><!--class IUnitOfWork--><g class="entity" data-entity="IUnitOfWork" data-source-line="107" data-uid="ent0018" id="entity_IUnitOfWork"><rect fill="#F1F1F1" height="34.4883" rx="2.5" ry="2.5" style="stroke:#181818;stroke-width:0.5;" width="88.2158" x="1518.89" y="568.8783"/><text fill="#000000" font-family="sans-serif" font-size="14" font-style="italic" lengthAdjust="spacing" textLength="82.2158" x="1521.89" y="587.4134">IUnitOfWork</text><line style="stroke:#181818;stroke-width:0.5;" x1="1519.89" x2="1606.1058" y1="595.3666" y2="595.3666"/></g><!--class UpdateVesselVisitNotificationDto--><g class="entity" data-entity="UpdateVesselVisitNotificationDto" data-source-line="113" data-uid="ent0020" id="entity_UpdateVesselVisitNotificationDto"><rect fill="#F1F1F1" height="182.8828" rx="2.5" ry="2.5" style="stroke:#181818;stroke-width:0.5;" width="382.5146" x="1535.74" y="78.4883"/><text fill="#000000" font-family="sans-serif" font-size="14" lengthAdjust="spacing" textLength="224" x="1614.9973" y="97.0234">UpdateVesselVisitNotificationDto</text><line style="stroke:#181818;stroke-width:0.5;" x1="1536.74" x2="1917.2546" y1="104.9766" y2="104.9766"/><ellipse cx="1546.74" cy="118.7207" fill="none" rx="3" ry="3" style="stroke:#545454;stroke-width:1;"/><text fill="#000000" font-family="sans-serif" font-size="14" lengthAdjust="spacing" textLength="193.04" x="1555.74" y="122.5117">EstimatedTimeArrival: string</text><ellipse cx="1546.74" cy="135.209" fill="none" rx="3" ry="3" style="stroke:#545454;stroke-width:1;"/><text fill="#000000" font-family="sans-serif" font-size="14" lengthAdjust="spacing" textLength="216.8633" x="1555.74" y="139">EstimatedTimeDeparture: string</text><ellipse cx="1546.74" cy="151.6973" fill="none" rx="3" ry="3" style="stroke:#545454;stroke-width:1;"/><text fill="#000000" font-family="sans-serif" font-size="14" lengthAdjust="spacing" textLength="106.9756" x="1555.74" y="155.4883">Volume: double</text><ellipse cx="1546.74" cy="168.1855" fill="none" rx="3" ry="3" style="stroke:#545454;stroke-width:1;"/><text fill="#000000" font-family="sans-serif" font-size="14" lengthAdjust="spacing" textLength="127.6133" x="1555.74" y="171.9766">Documents: object</text><ellipse cx="1546.74" cy="184.6738" fill="none" rx="3" ry="3" style="stroke:#545454;stroke-width:1;"/><text fill="#000000" font-family="sans-serif" font-size="14" lengthAdjust="spacing" textLength="202.0635" x="1555.74" y="188.4648">ListDocksCodes: List&lt;string&gt;</text><ellipse cx="1546.74" cy="201.1621" fill="none" rx="3" ry="3" style="stroke:#545454;stroke-width:1;"/><text fill="#000000" font-family="sans-serif" font-size="14" lengthAdjust="spacing" textLength="274.5244" x="1555.74" y="204.9531">CrewManifest: CreatingCrewManifestDto</text><ellipse cx="1546.74" cy="217.6504" fill="none" rx="3" ry="3" style="stroke:#545454;stroke-width:1;"/><text fill="#000000" font-family="sans-serif" font-size="14" lengthAdjust="spacing" textLength="341.5439" x="1555.74" y="221.4414">LoadingCargoManifest: CreatingCargoManifestDto</text><ellipse cx="1546.74" cy="234.1387" fill="none" rx="3" ry="3" style="stroke:#545454;stroke-width:1;"/><text fill="#000000" font-family="sans-serif" font-size="14" lengthAdjust="spacing" textLength="356.5146" x="1555.74" y="237.9297">UnloadingCargoManifest: CreatingCargoManifestDto</text><ellipse cx="1546.74" cy="250.627" fill="none" rx="3" ry="3" style="stroke:#545454;stroke-width:1;"/><text fill="#000000" font-family="sans-serif" font-size="14" lengthAdjust="spacing" textLength="128.5703" x="1555.74" y="254.418">ImoNumber: string</text></g><!--class VesselVisitNotificationDto--><g class="entity" data-entity="VesselVisitNotificationDto" data-source-line="125" data-uid="ent0021" id="entity_VesselVisitNotificationDto"><rect fill="#F1F1F1" height="133.418" rx="2.5" ry="2.5" style="stroke:#181818;stroke-width:0.5;" width="268.3203" x="1952.84" y="103.2183"/><text fill="#000000" font-family="sans-serif" font-size="14" lengthAdjust="spacing" textLength="175.9092" x="1999.0456" y="121.7534">VesselVisitNotificationDto</text><line style="stroke:#181818;stroke-width:0.5;" x1="1953.84" x2="2220.1603" y1="129.7066" y2="129.7066"/><ellipse cx="1963.84" cy="143.4507" fill="none" rx="3" ry="3" style="stroke:#545454;stroke-width:1;"/><text fill="#000000" font-family="sans-serif" font-size="14" lengthAdjust="spacing" textLength="53.3682" x="1972.84" y="147.2417">Id: Guid</text><ellipse cx="1963.84" cy="159.939" fill="none" rx="3" ry="3" style="stroke:#545454;stroke-width:1;"/><text fill="#000000" font-family="sans-serif" font-size="14" lengthAdjust="spacing" textLength="83.3232" x="1972.84" y="163.73">Code: string</text><ellipse cx="1963.84" cy="176.4273" fill="none" rx="3" ry="3" style="stroke:#545454;stroke-width:1;"/><text fill="#000000" font-family="sans-serif" font-size="14" lengthAdjust="spacing" textLength="218.4971" x="1972.84" y="180.2183">EstimatedTimeArrival: DateTime</text><ellipse cx="1963.84" cy="192.9155" fill="none" rx="3" ry="3" style="stroke:#545454;stroke-width:1;"/><text fill="#000000" font-family="sans-serif" font-size="14" lengthAdjust="spacing" textLength="242.3203" x="1972.84" y="196.7066">EstimatedTimeDeparture: DateTime</text><ellipse cx="1963.84" cy="209.4038" fill="none" rx="3" ry="3" style="stroke:#545454;stroke-width:1;"/><text fill="#000000" font-family="sans-serif" font-size="14" lengthAdjust="spacing" textLength="106.9756" x="1972.84" y="213.1948">Volume: double</text><ellipse cx="1963.84" cy="225.8921" fill="none" rx="3" ry="3" style="stroke:#545454;stroke-width:1;"/><text fill="#000000" font-family="sans-serif" font-size="14" lengthAdjust="spacing" textLength="89.9951" x="1972.84" y="229.6831">Status: string</text></g><!--link VesselVisitNotificationController to VesselVisitNotificationService--><g class="link" data-entity-1="VesselVisitNotificationController" data-entity-2="VesselVisitNotificationService" data-source-line="139" data-uid="lnk22" id="link_VesselVisitNotificationController_VesselVisitNotificationService"><path codeLine="139" d="M1367,187.4983 C1367,226.1983 1367,316.1883 1367,354.9683" fill="none" id="VesselVisitNotificationController-to-VesselVisitNotificationService" style="stroke:#181818;stroke-width:1;"/><polygon fill="#181818" points="1367,360.9683,1371,351.9683,1367,355.9683,1363,351.9683,1367,360.9683" style="stroke:#181818;stroke-width:1;"/><polygon fill="#000000" points="1372,307.0236,1374.9389,297.9785,1369.0611,297.9785,1372,307.0236" style="stroke:#000000;stroke-width:1;"/><text fill="#000000" font-family="sans-serif" font-size="13" lengthAdjust="spacing" textLength="28.5645" x="1381" y="306.9366">uses</text></g><!--link VesselVisitNotificationService to IVesselVisitNotificationRepository--><g class="link" data-entity-1="VesselVisitNotificationService" data-entity-2="IVesselVisitNotificationRepository" data-source-line="140" data-uid="lnk23" id="link_VesselVisitNotificationService_IVesselVisitNotificationRepository"><path codeLine="140" d="M1367,396.0883 C1367,434.5683 1367,524.0183 1367,562.5783" fill="none" id="VesselVisitNotificationService-to-IVesselVisitNotificationRepository" style="stroke:#181818;stroke-width:1;"/><polygon fill="#181818" points="1367,568.5783,1371,559.5783,1367,563.5783,1363,559.5783,1367,568.5783" style="stroke:#181818;stroke-width:1;"/><polygon fill="#000000" points="1372,441.5136,1374.9389,432.4685,1369.0611,432.4685,1372,441.5136" style="stroke:#000000;stroke-width:1;"/><text fill="#000000" font-family="sans-serif" font-size="13" lengthAdjust="spacing" textLength="54.8628" x="1381" y="441.4266">accesses</text></g><!--link VesselVisitNotificationService to IUnitOfWork--><g class="link" data-entity-1="VesselVisitNotificationService" data-entity-2="IUnitOfWork" data-source-line="141" data-uid="lnk24" id="link_VesselVisitNotificationService_IUnitOfWork"><path codeLine="141" d="M1413.35,396.2983 C1441.62,408.3983 1476.85,427.1683 1501,452.8583 C1533.31,487.2283 1549.805,535.6942 1557.275,562.7842" fill="none" id="VesselVisitNotificationService-to-IUnitOfWork" style="stroke:#181818;stroke-width:1;"/><polygon fill="#181818" points="1558.87,568.5683,1560.3336,558.8288,1557.5409,563.7482,1552.6215,560.9554,1558.87,568.5683" style="stroke:#181818;stroke-width:1;"/><polygon fill="#000000" points="1500.4899,440.2961,1496.7979,431.5314,1492.3512,435.3755,1500.4899,440.2961" style="stroke:#000000;stroke-width:1;"/><text fill="#000000" font-family="sans-serif" font-size="13" lengthAdjust="spacing" textLength="54.1646" x="1506.22" y="441.4266">commits</text></g><!--link VesselVisitNotificationService to VesselVisitNotification--><g class="link" data-entity-1="VesselVisitNotificationService" data-entity-2="VesselVisitNotification" data-source-line="142" data-uid="lnk25" id="link_VesselVisitNotificationService_VesselVisitNotification"><path codeLine="142" d="M1314.57,396.3483 C1216.57,427.6183 1008.436,494.0342 866.516,539.3242" fill="none" id="VesselVisitNotificationService-to-VesselVisitNotification" style="stroke:#181818;stroke-width:1;"/><polygon fill="#181818" points="860.8,541.1483,870.5901,542.2228,865.5633,539.6282,868.1579,534.6015,860.8,541.1483" style="stroke:#181818;stroke-width:1;"/><polygon fill="#000000" points="1211.6066,438.0336,1221.1171,438.0837,1219.3302,432.484,1211.6066,438.0336" style="stroke:#000000;stroke-width:1;"/><text fill="#000000" font-family="sans-serif" font-size="13" lengthAdjust="spacing" textLength="77.0605" x="1225.37" y="441.4266">manipulates</text></g><!--link VesselVisitNotification to CrewManifest--><g class="link" data-entity-1="VesselVisitNotification" data-entity-2="CrewManifest" data-source-line="143" data-uid="lnk26" id="link_VesselVisitNotification_CrewManifest"><path codeLine="143" d="M585.28,630.0783 C531.26,649.6783 469.9,675.4783 418,706.3883 C384.62,726.2683 355.6211,750.4795 330.7811,773.6095" fill="none" id="VesselVisitNotification-to-CrewManifest" style="stroke:#181818;stroke-width:1;"/><polygon fill="#181818" points="326.39,777.6983,335.7025,774.4925,330.0492,774.2909,330.2508,768.6377,326.39,777.6983" style="stroke:#181818;stroke-width:1;"/><polygon fill="#000000" points="418.6449,717.4997,427.9671,715.6163,425.0797,710.4966,418.6449,717.4997" style="stroke:#000000;stroke-width:1;"/><text fill="#000000" font-family="sans-serif" font-size="13" lengthAdjust="spacing" textLength="52.3618" x="432" y="719.9566">includes</text><text fill="#000000" font-family="sans-serif" font-size="13" lengthAdjust="spacing" textLength="8.2202" x="569.5359" y="629.6488">1</text><text fill="#000000" font-family="sans-serif" font-size="13" lengthAdjust="spacing" textLength="24.667" x="306.9676" y="767.5268">0..1</text></g><!--link VesselVisitNotification to CargoManifest--><g class="link" data-entity-1="VesselVisitNotification" data-entity-2="CargoManifest" data-source-line="144" data-uid="lnk27" id="link_VesselVisitNotification_CargoManifest"><path codeLine="144" d="M585.14,631.7383 C551.49,649.4883 519.58,673.7183 500,706.3883 C490.29,722.5883 487.9597,736.6452 489.3597,755.2452" fill="none" id="VesselVisitNotification-to-CargoManifest" style="stroke:#181818;stroke-width:1;"/><polygon fill="#181818" points="489.81,761.2283,493.1232,751.9534,489.4347,756.2424,485.1458,752.5539,489.81,761.2283" style="stroke:#181818;stroke-width:1;"/><polygon fill="#000000" points="501.9359,718.9947,509.8013,713.6481,505.1565,710.046,501.9359,718.9947" style="stroke:#000000;stroke-width:1;"/><text fill="#000000" font-family="sans-serif" font-size="13" lengthAdjust="spacing" textLength="47.0361" x="514" y="719.9566">loading</text><text fill="#000000" font-family="sans-serif" font-size="13" lengthAdjust="spacing" textLength="8.2202" x="569.3882" y="647.2199">1</text><text fill="#000000" font-family="sans-serif" font-size="13" lengthAdjust="spacing" textLength="24.667" x="462.7808" y="750.8709">0..1</text></g><!--link VesselVisitNotification to CargoManifest--><g class="link" data-entity-1="VesselVisitNotification" data-entity-2="CargoManifest" data-source-line="145" data-uid="lnk28" id="link_VesselVisitNotification_CargoManifest"><path codeLine="145" d="M637.63,676.6883 C610.45,705.1883 585.3001,731.5755 561.0001,757.0655" fill="none" id="VesselVisitNotification-to-CargoManifest-1" style="stroke:#181818;stroke-width:1;"/><polygon fill="#181818" points="556.86,761.4083,565.9653,757.6541,560.31,757.7893,560.1749,752.134,556.86,761.4083" style="stroke:#181818;stroke-width:1;"/><polygon fill="#000000" points="607.9498,718.6624,616.3184,714.1438,612.0641,710.0879,607.9498,718.6624" style="stroke:#000000;stroke-width:1;"/><text fill="#000000" font-family="sans-serif" font-size="13" lengthAdjust="spacing" textLength="63.1719" x="620.4" y="719.9566">unloading</text><text fill="#000000" font-family="sans-serif" font-size="13" lengthAdjust="spacing" textLength="8.2202" x="622.5174" y="697.0837">1</text><text fill="#000000" font-family="sans-serif" font-size="13" lengthAdjust="spacing" textLength="24.667" x="538.0025" y="751.0728">0..1</text></g><!--link VesselVisitNotification to EntityDock--><g class="link" data-entity-1="VesselVisitNotification" data-entity-2="EntityDock" data-source-line="146" data-uid="lnk29" id="link_VesselVisitNotification_EntityDock"><path codeLine="146" d="M716.79,676.6883 C714.37,711.6583 712.1244,743.9826 710.1944,771.8626" fill="none" id="VesselVisitNotification-to-EntityDock" style="stroke:#181818;stroke-width:1;"/><polygon fill="#181818" points="709.78,777.8483,714.392,769.146,710.1253,772.8602,706.4111,768.5935,709.78,777.8483" style="stroke:#181818;stroke-width:1;"/><polygon fill="#000000" points="719.1743,720.0316,722.7316,711.2113,716.8678,710.805,719.1743,720.0316" style="stroke:#000000;stroke-width:1;"/><text fill="#000000" font-family="sans-serif" font-size="13" lengthAdjust="spacing" textLength="56.4561" x="728.52" y="719.9566">berths at</text><text fill="#000000" font-family="sans-serif" font-size="13" lengthAdjust="spacing" textLength="8.2202" x="707.9854" y="697.0837">1</text><text fill="#000000" font-family="sans-serif" font-size="13" lengthAdjust="spacing" textLength="6.2651" x="703.766" y="767.3981">*</text></g><!--link VesselVisitNotification to Vessel--><g class="link" data-entity-1="VesselVisitNotification" data-entity-2="Vessel" data-source-line="147" data-uid="lnk30" id="link_VesselVisitNotification_Vessel"><path codeLine="147" d="M795.18,676.6883 C820.61,708.2383 844.4553,737.8263 866.1153,764.7063" fill="none" id="VesselVisitNotification-to-Vessel" style="stroke:#181818;stroke-width:1;"/><polygon fill="#181818" points="869.88,769.3783,867.3476,759.8606,866.7428,765.485,861.1183,764.8801,869.88,769.3783" style="stroke:#181818;stroke-width:1;"/><polygon fill="#000000" points="840.7975,718.9366,837.41,710.0498,832.8334,713.7382,840.7975,718.9366" style="stroke:#000000;stroke-width:1;"/><text fill="#000000" font-family="sans-serif" font-size="13" lengthAdjust="spacing" textLength="53.4917" x="846.66" y="719.9566">refers to</text><text fill="#000000" font-family="sans-serif" font-size="13" lengthAdjust="spacing" textLength="8.2202" x="792.6221" y="697.0837">1</text><text fill="#000000" font-family="sans-serif" font-size="13" lengthAdjust="spacing" textLength="8.2202" x="856.1" y="759.3024">1</text></g><!--link VesselVisitNotification to EntityTask--><g class="link" data-entity-1="VesselVisitNotification" data-entity-2="EntityTask" data-source-line="148" data-uid="lnk31" id="link_VesselVisitNotification_EntityTask"><path codeLine="148" d="M860.59,659.4783 C912.45,687.6983 971.55,720.9983 1024,753.3883 C1029.73,756.9183 1030.5637,757.3817 1036.4237,761.2017" fill="none" id="VesselVisitNotification-to-EntityTask" style="stroke:#181818;stroke-width:1;"/><polygon fill="#181818" points="1041.45,764.4783,1036.0949,756.2125,1037.2614,761.7478,1031.7261,762.9143,1041.45,764.4783" style="stroke:#181818;stroke-width:1;"/><polygon fill="#000000" points="976.8879,717.5474,970.5303,710.474,967.5869,715.5618,976.8879,717.5474" style="stroke:#000000;stroke-width:1;"/><text fill="#000000" font-family="sans-serif" font-size="13" lengthAdjust="spacing" textLength="62.4736" x="981.56" y="719.9566">schedules</text><text fill="#000000" font-family="sans-serif" font-size="13" lengthAdjust="spacing" textLength="8.2202" x="868.3394" y="660.6567">1</text><text fill="#000000" font-family="sans-serif" font-size="13" lengthAdjust="spacing" textLength="6.2651" x="1027.6325" y="755.965">*</text></g><!--SRC=[hLTRZ-es47xFhx1uAVHqL-rvQxH5ui3s26cxkrhOFUgZSGPmSUpKTbYXe_tl7IS1d2kXBG-GU6O-UyRVN30xBXEgQKnY9HNRQXK3iJg5m9maPaiZzSxbXgofC11iUGI4SSr4yHo3tQh8187bLW2P2ceCcN6wSTOtv7Nn-VRpxQ_aDOce1Q8qcQeu4O3FRs0C2FB63RVaKLc-venQhcGG99Jjw0R8OF8y9m_q07f0lWS4Fop3pqqpIzzmggJLIWZGXRRxVFeAzijX7Wrv59AlAOz68Pamf_u29XNshWLiPjNu39AV_uJn4uci2WklsW56Pu15kegvFH_YBFd6xJRIzBqY-mW-_40aYIXmhmZ80lIUC_2ZaHzvOWwIPHksMCvxkzWAWSAg- -uUUcpT4_COkFyLzMQw1RRxNUbSTovdgo6FCH36Qam319d7wZ6DLw0z6mqO9Fn-_uDAlWPZy_Da4So4QEgByy3vApKmgZUg2ysN5t3-KWE7PYgc_1hwaBkxoMQZOOFdUL7AZiS-awOg0WpfNhg7y_AziJn6WsZ9OvXepVTKuDc4OZktqg8u0wmtDjNGg8hvcb9n2V2iTGcDGMAfP333xHjLtfH8OnH5Abq9RtrXgKrDvdN-M4si9k-7xBZ1g5FzTEeEW_nWmttsKvC-SEG2cffXvBvhSfzmG-Qzr94KZQei6pB_hMRoAiKrHaL1R2g4tfghqUZliIJwdCs9XnnzeoA5fzLVm2eC_HEeFYRkUVLPQPjpjofPmDyf82rAajAc9wfqRPi9GkB8TM9LzUWvUn3bNg9_Eakt4iftWngSVP2vVDOAaz2OkkmPf0luNAwLZlFUMTCvHhL1b5y1igykodEaa9H3uD6ckq0ibQN2gOU4I-iL3ehPn-KZZRiYxTEcJo6gNkRoa42b9hebpoohiz6NGzss44rirotUInnv3YxTicjqBqtdSWhb2lcWylBQxdmn6dLwVMf3JHtfKosuNanoz5Cm6fnQKjFjb5CeEpK3mpHFQdvv-pgZyXKSowcJUFMqtBQGtPeYOifSRIotB-GLw3N54MVUqiDU856ufFIXOIRyJrD31Ss58yTZVcFiOp-9YfFizx9LVUJVGIgBcM1qpgtY7hsGl4fkdzRVbDwLRp36h2_CcyQ4vPCfZmUNPa0VlRdzLmdHrlkhUcrz69CArwL5xgYi0dlPTUo1BleeT-ztEUwubE6dAjOwelafM-zixREOrnaRUs8VIo-zkwl4fGkP5_ygBjNBveihbR_EgwjhNXgYIdwXPp-Gtre-A7e1aNbdjZmnNQh1vJ-7DpVZI_-OGf8QC6GSND1pK3rAJqWeDbJJ7z9BtP2mB6DxchRDyY69aMT9Yc7iEWKP_3B8S0O_tzxYOwdTksB3H1fT1L1gv24f4kBV0wJo2eWV1twV3WacbDqQGcqVO_mjEd58DAn16uAvTSskMID5fhCjHAd8mlOF]--></g></svg>