<svg xmlns="http://www.w3.org/2000/svg" xmlns:xlink="http://www.w3.org/1999/xlink" contentStyleType="text/css" data-diagram-type="SEQUENCE" height="832px" preserveAspectRatio="none" style="width:454px;height:832px;background:#FFFFFF;" version="1.1" viewBox="0 0 454 832" width="454px" zoomAndPan="magnify"><title>SSD: Update VVE Berth Time and Dock (with Authorization)</title><defs/><g><text fill="#000000" font-family="sans-serif" font-size="14" font-weight="bold" lengthAdjust="spacing" textLength="395.9102" x="25.1211" y="30.1074">SSD: Update VVE Berth Time and Dock (with Authorization)</text><rect fill="none" height="98.5039" style="stroke:#000000;stroke-width:1.5;" width="407.1523" x="20" y="217.8242"/><rect fill="none" height="323.4824" style="stroke:#000000;stroke-width:1.5;" width="427.1523" x="10" y="406.9102"/><rect fill="none" height="242.2695" style="stroke:#000000;stroke-width:1.5;" width="407.1523" x="20" y="433.2012"/><g><title>LogisticsOperator</title><rect fill="#000000" fill-opacity="0.00000" height="623.1504" width="8" x="83.8584" y="124.2422"/><line style="stroke:#181818;stroke-width:0.5;stroke-dasharray:5,5;" x1="87" x2="87" y1="124.2422" y2="747.3926"/></g><g><title>System</title><rect fill="#000000" fill-opacity="0.00000" height="623.1504" width="8" x="382.8145" y="124.2422"/><line style="stroke:#181818;stroke-width:0.5;stroke-dasharray:5,5;" x1="386.4766" x2="386.4766" y1="124.2422" y2="747.3926"/></g><g class="participant participant-head" data-participant="User"><text fill="#000000" font-family="sans-serif" font-size="14" lengthAdjust="spacing" textLength="109.7168" x="30" y="120.7285">LogisticsOperator</text><ellipse cx="87.8584" cy="61.1211" fill="#E2E2F0" rx="16" ry="16" style="stroke:#181818;stroke-width:0.5;"/><path d="M87.8584,81.1211 C91.8584,81.1211 94.8584,81.1211 98.8584,77.1211 C106.8584,77.1211 114.8584,85.1211 114.8584,93.1211 L114.8584,97.1211 C114.8584,101.1211 110.8584,105.1211 106.8584,105.1211 L68.8584,105.1211 C64.8584,105.1211 60.8584,101.1211 60.8584,97.1211 L60.8584,93.1211 C60.8584,85.1211 68.8584,77.1211 76.8584,77.1211 C80.8584,81.1211 83.8584,81.1211 87.8584,81.1211" fill="#E2E2F0" style="stroke:#181818;stroke-width:0.5;"/></g><g class="participant participant-tail" data-participant="User"><text fill="#000000" font-family="sans-serif" font-size="14" lengthAdjust="spacing" textLength="109.7168" x="30" y="761.5">LogisticsOperator</text><ellipse cx="87.8584" cy="781.5137" fill="#E2E2F0" rx="16" ry="16" style="stroke:#181818;stroke-width:0.5;"/><path d="M87.8584,801.5137 C91.8584,801.5137 94.8584,801.5137 98.8584,797.5137 C106.8584,797.5137 114.8584,805.5137 114.8584,813.5137 L114.8584,817.5137 C114.8584,821.5137 110.8584,825.5137 106.8584,825.5137 L68.8584,825.5137 C64.8584,825.5137 60.8584,821.5137 60.8584,817.5137 L60.8584,813.5137 C60.8584,805.5137 68.8584,797.5137 76.8584,797.5137 C80.8584,801.5137 83.8584,801.5137 87.8584,801.5137" fill="#E2E2F0" style="stroke:#181818;stroke-width:0.5;"/></g><g class="participant participant-head" data-participant="System"><rect fill="#E2E2F0" height="32.6211" rx="2.5" ry="2.5" style="stroke:#181818;stroke-width:0.5;" width="60.6758" x="356.4766" y="90.6211"/><text fill="#000000" font-family="sans-serif" font-size="14" lengthAdjust="spacing" textLength="46.6758" x="363.4766" y="112.7285">System</text></g><g class="participant participant-tail" data-participant="System"><rect fill="#E2E2F0" height="32.6211" rx="2.5" ry="2.5" style="stroke:#181818;stroke-width:0.5;" width="60.6758" x="356.4766" y="746.3926"/><text fill="#000000" font-family="sans-serif" font-size="14" lengthAdjust="spacing" textLength="46.6758" x="363.4766" y="768.5">System</text></g><rect fill="#EEEEEE" height="3" style="stroke:#EEEEEE;stroke-width:1;" width="447.1523" x="0" y="155.8877"/><line style="stroke:#000000;stroke-width:1;" x1="0" x2="447.1523" y1="155.8877" y2="155.8877"/><line style="stroke:#000000;stroke-width:1;" x1="0" x2="447.1523" y1="158.8877" y2="158.8877"/><rect fill="#EEEEEE" height="25.291" style="stroke:#000000;stroke-width:2;" width="119.4663" x="163.843" y="144.2422"/><text fill="#000000" font-family="sans-serif" font-size="13" font-weight="bold" lengthAdjust="spacing" textLength="101.8545" x="169.843" y="162.2705">Get Current VVE</text><g class="message" data-participant-1="User" data-participant-2="System"><polygon fill="#181818" points="374.8145,198.8242,384.8145,202.8242,374.8145,206.8242,378.8145,202.8242" style="stroke:#181818;stroke-width:1;"/><line style="stroke:#181818;stroke-width:1;" x1="87.8584" x2="380.8145" y1="202.8242" y2="202.8242"/><text fill="#000000" font-family="sans-serif" font-size="13" font-weight="bold" lengthAdjust="spacing" textLength="7.23" x="94.8584" y="197.5615">1</text><text fill="#000000" font-family="sans-serif" font-size="13" lengthAdjust="spacing" textLength="97.5444" x="106.0884" y="197.5615">GET /vve/{vveId}</text></g><path d="M20,217.8242 L80.1709,217.8242 L80.1709,227.1152 L70.1709,237.1152 L20,237.1152 L20,217.8242" fill="#EEEEEE" style="stroke:#000000;stroke-width:1.5;"/><rect fill="none" height="98.5039" style="stroke:#000000;stroke-width:1.5;" width="407.1523" x="20" y="217.8242"/><text fill="#000000" font-family="sans-serif" font-size="13" font-weight="bold" lengthAdjust="spacing" textLength="15.1709" x="35" y="232.8525">alt</text><text fill="#000000" font-family="sans-serif" font-size="11" font-weight="bold" lengthAdjust="spacing" textLength="64.7646" x="95.1709" y="231.6943">[Authorized]</text><g class="message" data-participant-1="System" data-participant-2="User"><polygon fill="#181818" points="98.8584,256.4063,88.8584,260.4063,98.8584,264.4063,94.8584,260.4063" style="stroke:#181818;stroke-width:1;"/><line style="stroke:#181818;stroke-width:1;stroke-dasharray:2,2;" x1="92.8584" x2="385.8145" y1="260.4063" y2="260.4063"/><text fill="#000000" font-family="sans-serif" font-size="13" font-weight="bold" lengthAdjust="spacing" textLength="7.23" x="104.8584" y="255.1436">2</text><text fill="#000000" font-family="sans-serif" font-size="13" lengthAdjust="spacing" textLength="220.397" x="116.0884" y="255.1436">200 OK (VVE details) / 404 Not Found</text></g><line style="stroke:#000000;stroke-width:1;stroke-dasharray:2,2;" x1="20" x2="427.1523" y1="269.4063" y2="269.4063"/><text fill="#000000" font-family="sans-serif" font-size="11" font-weight="bold" lengthAdjust="spacing" textLength="77.6016" x="25" y="281.2764">[Unauthorized]</text><g class="message" data-participant-1="System" data-participant-2="User"><polygon fill="#181818" points="98.8584,304.3281,88.8584,308.3281,98.8584,312.3281,94.8584,308.3281" style="stroke:#181818;stroke-width:1;"/><line style="stroke:#181818;stroke-width:1;stroke-dasharray:2,2;" x1="92.8584" x2="385.8145" y1="308.3281" y2="308.3281"/><text fill="#000000" font-family="sans-serif" font-size="13" font-weight="bold" lengthAdjust="spacing" textLength="7.23" x="104.8584" y="303.0654">3</text><text fill="#000000" font-family="sans-serif" font-size="13" lengthAdjust="spacing" textLength="197.3042" x="116.0884" y="303.0654">401 Unauthorized / 403 Forbidden</text></g><rect fill="#EEEEEE" height="3" style="stroke:#EEEEEE;stroke-width:1;" width="447.1523" x="0" y="344.9736"/><line style="stroke:#000000;stroke-width:1;" x1="0" x2="447.1523" y1="344.9736" y2="344.9736"/><line style="stroke:#000000;stroke-width:1;" x1="0" x2="447.1523" y1="347.9736" y2="347.9736"/><rect fill="#EEEEEE" height="25.291" style="stroke:#000000;stroke-width:2;" width="195.3081" x="125.9221" y="333.3281"/><text fill="#000000" font-family="sans-serif" font-size="13" font-weight="bold" lengthAdjust="spacing" textLength="177.6963" x="131.9221" y="351.3564">Update Berth Time and Dock</text><g class="message" data-participant-1="User" data-participant-2="System"><polygon fill="#181818" points="374.8145,387.9102,384.8145,391.9102,374.8145,395.9102,378.8145,391.9102" style="stroke:#181818;stroke-width:1;"/><line style="stroke:#181818;stroke-width:1;" x1="87.8584" x2="380.8145" y1="391.9102" y2="391.9102"/><text fill="#000000" font-family="sans-serif" font-size="13" font-weight="bold" lengthAdjust="spacing" textLength="7.23" x="94.8584" y="386.6475">4</text><text fill="#000000" font-family="sans-serif" font-size="13" lengthAdjust="spacing" textLength="263.7261" x="106.0884" y="386.6475">PUT /vve/{vveId}/berthing (berthTime, dockId)</text></g><path d="M10,406.9102 L70.1709,406.9102 L70.1709,416.2012 L60.1709,426.2012 L10,426.2012 L10,406.9102" fill="#EEEEEE" style="stroke:#000000;stroke-width:1.5;"/><rect fill="none" height="323.4824" style="stroke:#000000;stroke-width:1.5;" width="427.1523" x="10" y="406.9102"/><text fill="#000000" font-family="sans-serif" font-size="13" font-weight="bold" lengthAdjust="spacing" textLength="15.1709" x="25" y="421.9385">alt</text><text fill="#000000" font-family="sans-serif" font-size="11" font-weight="bold" lengthAdjust="spacing" textLength="64.7646" x="85.1709" y="420.7803">[Authorized]</text><path d="M20,433.2012 L80.1709,433.2012 L80.1709,442.4922 L70.1709,452.4922 L20,452.4922 L20,433.2012" fill="#EEEEEE" style="stroke:#000000;stroke-width:1.5;"/><rect fill="none" height="242.2695" style="stroke:#000000;stroke-width:1.5;" width="407.1523" x="20" y="433.2012"/><text fill="#000000" font-family="sans-serif" font-size="13" font-weight="bold" lengthAdjust="spacing" textLength="15.1709" x="35" y="448.2295">alt</text><text fill="#000000" font-family="sans-serif" font-size="11" font-weight="bold" lengthAdjust="spacing" textLength="241.7583" x="95.1709" y="447.0713">[Valid Request (VVE In Progress + Valid Data)]</text><g class="message" data-participant-1="System" data-participant-2="User"><polygon fill="#181818" points="98.8584,471.7832,88.8584,475.7832,98.8584,479.7832,94.8584,475.7832" style="stroke:#181818;stroke-width:1;"/><line style="stroke:#181818;stroke-width:1;stroke-dasharray:2,2;" x1="92.8584" x2="385.8145" y1="475.7832" y2="475.7832"/><text fill="#000000" font-family="sans-serif" font-size="13" font-weight="bold" lengthAdjust="spacing" textLength="7.23" x="104.8584" y="470.5205">5</text><text fill="#000000" font-family="sans-serif" font-size="13" lengthAdjust="spacing" textLength="135.1289" x="116.0884" y="470.5205">200 OK (VVE Updated)</text></g><line style="stroke:#000000;stroke-width:1;stroke-dasharray:2,2;" x1="20" x2="427.1523" y1="484.7832" y2="484.7832"/><text fill="#000000" font-family="sans-serif" font-size="11" font-weight="bold" lengthAdjust="spacing" textLength="212.0938" x="25" y="496.6533">[Planned Dock Differs from Actual Dock]</text><g class="message" data-participant-1="System" data-participant-2="User"><polygon fill="#181818" points="98.8584,519.7051,88.8584,523.7051,98.8584,527.7051,94.8584,523.7051" style="stroke:#181818;stroke-width:1;"/><line style="stroke:#181818;stroke-width:1;stroke-dasharray:2,2;" x1="92.8584" x2="385.8145" y1="523.7051" y2="523.7051"/><text fill="#000000" font-family="sans-serif" font-size="13" font-weight="bold" lengthAdjust="spacing" textLength="7.23" x="104.8584" y="518.4424">6</text><text fill="#000000" font-family="sans-serif" font-size="13" lengthAdjust="spacing" textLength="229.4233" x="116.0884" y="518.4424">200 OK (VVE Updated + Note/Warning)</text></g><line style="stroke:#000000;stroke-width:1;stroke-dasharray:2,2;" x1="20" x2="427.1523" y1="532.7051" y2="532.7051"/><text fill="#000000" font-family="sans-serif" font-size="11" font-weight="bold" lengthAdjust="spacing" textLength="267.7061" x="25" y="544.5752">[Invalid Data (missing/invalid berthTime or dockId)]</text><g class="message" data-participant-1="System" data-participant-2="User"><polygon fill="#181818" points="98.8584,567.627,88.8584,571.627,98.8584,575.627,94.8584,571.627" style="stroke:#181818;stroke-width:1;"/><line style="stroke:#181818;stroke-width:1;stroke-dasharray:2,2;" x1="92.8584" x2="385.8145" y1="571.627" y2="571.627"/><text fill="#000000" font-family="sans-serif" font-size="13" font-weight="bold" lengthAdjust="spacing" textLength="7.23" x="104.8584" y="566.3643">7</text><text fill="#000000" font-family="sans-serif" font-size="13" lengthAdjust="spacing" textLength="100.4644" x="116.0884" y="566.3643">400 Bad Request</text></g><line style="stroke:#000000;stroke-width:1;stroke-dasharray:2,2;" x1="20" x2="427.1523" y1="580.627" y2="580.627"/><text fill="#000000" font-family="sans-serif" font-size="11" font-weight="bold" lengthAdjust="spacing" textLength="114.2969" x="25" y="592.4971">[VVE Not In Progress]</text><g class="message" data-participant-1="System" data-participant-2="User"><polygon fill="#181818" points="98.8584,615.5488,88.8584,619.5488,98.8584,623.5488,94.8584,619.5488" style="stroke:#181818;stroke-width:1;"/><line style="stroke:#181818;stroke-width:1;stroke-dasharray:2,2;" x1="92.8584" x2="385.8145" y1="619.5488" y2="619.5488"/><text fill="#000000" font-family="sans-serif" font-size="13" font-weight="bold" lengthAdjust="spacing" textLength="7.23" x="104.8584" y="614.2861">8</text><text fill="#000000" font-family="sans-serif" font-size="13" lengthAdjust="spacing" textLength="100.4644" x="116.0884" y="614.2861">400 Bad Request</text></g><line style="stroke:#000000;stroke-width:1;stroke-dasharray:2,2;" x1="20" x2="427.1523" y1="628.5488" y2="628.5488"/><text fill="#000000" font-family="sans-serif" font-size="11" font-weight="bold" lengthAdjust="spacing" textLength="87.3716" x="25" y="640.4189">[VVE Not Found]</text><g class="message" data-participant-1="System" data-participant-2="User"><polygon fill="#181818" points="98.8584,663.4707,88.8584,667.4707,98.8584,671.4707,94.8584,667.4707" style="stroke:#181818;stroke-width:1;"/><line style="stroke:#181818;stroke-width:1;stroke-dasharray:2,2;" x1="92.8584" x2="385.8145" y1="667.4707" y2="667.4707"/><text fill="#000000" font-family="sans-serif" font-size="13" font-weight="bold" lengthAdjust="spacing" textLength="7.23" x="104.8584" y="662.208">9</text><text fill="#000000" font-family="sans-serif" font-size="13" lengthAdjust="spacing" textLength="86.0044" x="116.0884" y="662.208">404 Not Found</text></g><line style="stroke:#000000;stroke-width:1;stroke-dasharray:2,2;" x1="10" x2="437.1523" y1="683.4707" y2="683.4707"/><text fill="#000000" font-family="sans-serif" font-size="11" font-weight="bold" lengthAdjust="spacing" textLength="77.6016" x="15" y="695.3408">[Unauthorized]</text><g class="message" data-participant-1="System" data-participant-2="User"><polygon fill="#181818" points="98.8584,718.3926,88.8584,722.3926,98.8584,726.3926,94.8584,722.3926" style="stroke:#181818;stroke-width:1;"/><line style="stroke:#181818;stroke-width:1;stroke-dasharray:2,2;" x1="92.8584" x2="385.8145" y1="722.3926" y2="722.3926"/><text fill="#000000" font-family="sans-serif" font-size="13" font-weight="bold" lengthAdjust="spacing" textLength="14.46" x="104.8584" y="717.1299">10</text><text fill="#000000" font-family="sans-serif" font-size="13" lengthAdjust="spacing" textLength="197.3042" x="123.3184" y="717.1299">401 Unauthorized / 403 Forbidden</text></g><!--SRC=[hL9TRnCn47pthnZbAH5K5-2U8WMf9QMAG3GYJNZUn9lKwfqTxBrK1V7VsViWj5LAXU0UB6jtPyOpj-d6-Hr5Aa5h2N4kTmM3RZc5aWrL4dnLhZWQqxJH-nYsBebRfyiTHz9I3vImI3gYDDfmE_A2tlmk2PTDixqQ8qwKUpwVZB3OMHB6SdcECuvoZIjNggotc8Jr3VgtJckdbLo7wBwHkE07nep7k631kof6LeaQF1uRKslZv6qdWn4kpg-GxVUSVTTZQdyOAkH0njP0lsxuH74DVeJNmo4kFw1VqreMSaKQ84C-pF4f2Dw7obl3HM8iF3r7bWzVFHXhYDueILmvQzaRLhBQK1V4iH2EUfij7dhBLZNI-ItwpQscU0ch-AaT73DUbvPKE8lF_BNY9AtZgSSiXctabF2Y6vYGqA01FPzOwyEsuqrAiuAyvyxBn6qs71CsCPGuNKj5HTFuEtPzcVuAphvGz6hvdjZKxmzFHhzqAMa_Srtra0nqWtzbyxHohifdT0Zejqhzb7eNxeNrBpJjIls987yqn_zx1Ny2]--></g></svg>