<svg xmlns="http://www.w3.org/2000/svg" xmlns:xlink="http://www.w3.org/1999/xlink" contentStyleType="text/css" data-diagram-type="SEQUENCE" height="1408px" preserveAspectRatio="none" style="width:1984px;height:1408px;background:#FFFFFF;" version="1.1" viewBox="0 0 1984 1408" width="1984px" zoomAndPan="magnify"><defs/><g><g><title>Logistics Operator</title><rect fill="#000000" fill-opacity="0.00000" height="1241.4766" width="8" x="60.8032" y="83.6211"/><line style="stroke:#181818;stroke-width:0.5;stroke-dasharray:5,5;" x1="64" x2="64" y1="83.6211" y2="1325.0977"/></g><g><title>UI . API</title><rect fill="#000000" fill-opacity="0.00000" height="1241.4766" width="8" x="818.9604" y="83.6211"/><line style="stroke:#181818;stroke-width:0.5;stroke-dasharray:5,5;" x1="822.8433" x2="822.8433" y1="83.6211" y2="1325.0977"/></g><g><title>PhysicalResourceAppService</title><rect fill="#000000" fill-opacity="0.00000" height="1241.4766" width="8" x="1041.6421" y="83.6211"/><line style="stroke:#181818;stroke-width:0.5;stroke-dasharray:5,5;" x1="1044.8218" x2="1044.8218" y1="83.6211" y2="1325.0977"/></g><g><title>PhysicalResourceRepository</title><rect fill="#000000" fill-opacity="0.00000" height="1241.4766" width="8" x="1788.6821" y="83.6211"/><line style="stroke:#181818;stroke-width:0.5;stroke-dasharray:5,5;" x1="1792.1997" x2="1792.1997" y1="83.6211" y2="1325.0977"/></g><g><title>Audit Log</title><rect fill="#000000" fill-opacity="0.00000" height="1241.4766" width="8" x="1929.7437" y="83.6211"/><line style="stroke:#181818;stroke-width:0.5;stroke-dasharray:5,5;" x1="1933.1646" x2="1933.1646" y1="83.6211" y2="1325.0977"/></g><g class="participant participant-head" data-participant="Operator"><text fill="#000000" font-family="sans-serif" font-size="14" lengthAdjust="spacing" textLength="113.6064" x="5" y="80.1074">Logistics Operator</text><ellipse cx="64.8032" cy="13.5" fill="#E2E2F0" rx="8" ry="8" style="stroke:#181818;stroke-width:0.5;"/><path d="M64.8032,21.5 L64.8032,48.5 M51.8032,29.5 L77.8032,29.5 M64.8032,48.5 L51.8032,63.5 M64.8032,48.5 L77.8032,63.5" fill="none" style="stroke:#181818;stroke-width:0.5;"/></g><g class="participant participant-tail" data-participant="Operator"><text fill="#000000" font-family="sans-serif" font-size="14" lengthAdjust="spacing" textLength="113.6064" x="5" y="1339.2051">Logistics Operator</text><ellipse cx="64.8032" cy="1351.2188" fill="#E2E2F0" rx="8" ry="8" style="stroke:#181818;stroke-width:0.5;"/><path d="M64.8032,1359.2188 L64.8032,1386.2188 M51.8032,1367.2188 L77.8032,1367.2188 M64.8032,1386.2188 L51.8032,1401.2188 M64.8032,1386.2188 L77.8032,1401.2188" fill="none" style="stroke:#181818;stroke-width:0.5;"/></g><g class="participant participant-head" data-participant="UI"><text fill="#000000" font-family="sans-serif" font-size="14" lengthAdjust="spacing" textLength="48.2344" x="795.8433" y="80.1074">UI / API</text><path d="M802.4604,37 L802.4604,61 M802.4604,49 L819.4604,49" fill="none" style="stroke:#181818;stroke-width:0.5;"/><ellipse cx="831.4604" cy="49" fill="#E2E2F0" rx="12" ry="12" style="stroke:#181818;stroke-width:0.5;"/></g><g class="participant participant-tail" data-participant="UI"><text fill="#000000" font-family="sans-serif" font-size="14" lengthAdjust="spacing" textLength="48.2344" x="795.8433" y="1339.2051">UI / API</text><path d="M802.4604,1346.7188 L802.4604,1370.7188 M802.4604,1358.7188 L819.4604,1358.7188" fill="none" style="stroke:#181818;stroke-width:0.5;"/><ellipse cx="831.4604" cy="1358.7188" fill="#E2E2F0" rx="12" ry="12" style="stroke:#181818;stroke-width:0.5;"/></g><g class="participant participant-head" data-participant="App"><text fill="#000000" font-family="sans-serif" font-size="14" lengthAdjust="spacing" textLength="183.6406" x="950.8218" y="80.1074">PhysicalResourceAppService</text><ellipse cx="1045.6421" cy="49" fill="#E2E2F0" rx="12" ry="12" style="stroke:#181818;stroke-width:0.5;"/><polygon fill="#181818" points="1041.6421,37,1047.6421,32,1045.6421,37,1047.6421,42,1041.6421,37" style="stroke:#181818;stroke-width:1;"/></g><g class="participant participant-tail" data-participant="App"><text fill="#000000" font-family="sans-serif" font-size="14" lengthAdjust="spacing" textLength="183.6406" x="950.8218" y="1339.2051">PhysicalResourceAppService</text><ellipse cx="1045.6421" cy="1358.7188" fill="#E2E2F0" rx="12" ry="12" style="stroke:#181818;stroke-width:0.5;"/><polygon fill="#181818" points="1041.6421,1346.7188,1047.6421,1341.7188,1045.6421,1346.7188,1047.6421,1351.7188,1041.6421,1346.7188" style="stroke:#181818;stroke-width:1;"/></g><g class="participant participant-head" data-participant="Repo"><text fill="#000000" font-family="sans-serif" font-size="14" lengthAdjust="spacing" textLength="178.9648" x="1700.1997" y="80.1074">PhysicalResourceRepository</text><ellipse cx="1792.6821" cy="49" fill="#E2E2F0" rx="12" ry="12" style="stroke:#181818;stroke-width:0.5;"/><line style="stroke:#181818;stroke-width:0.5;" x1="1780.6821" x2="1804.6821" y1="63" y2="63"/></g><g class="participant participant-tail" data-participant="Repo"><text fill="#000000" font-family="sans-serif" font-size="14" lengthAdjust="spacing" textLength="178.9648" x="1700.1997" y="1339.2051">PhysicalResourceRepository</text><ellipse cx="1792.6821" cy="1358.7188" fill="#E2E2F0" rx="12" ry="12" style="stroke:#181818;stroke-width:0.5;"/><line style="stroke:#181818;stroke-width:0.5;" x1="1780.6821" x2="1804.6821" y1="1372.7188" y2="1372.7188"/></g><g class="participant participant-head" data-participant="Audit"><rect fill="#E2E2F0" height="32.6211" style="stroke:#181818;stroke-width:0.5;" width="73.1582" x="1899.1646" y="46"/><rect fill="#E2E2F0" height="32.6211" style="stroke:#181818;stroke-width:0.5;" width="73.1582" x="1895.1646" y="50"/><text fill="#000000" font-family="sans-serif" font-size="14" lengthAdjust="spacing" textLength="59.1582" x="1902.1646" y="72.1074">Audit Log</text></g><g class="participant participant-tail" data-participant="Audit"><rect fill="#E2E2F0" height="32.6211" style="stroke:#181818;stroke-width:0.5;" width="73.1582" x="1899.1646" y="1324.0977"/><rect fill="#E2E2F0" height="32.6211" style="stroke:#181818;stroke-width:0.5;" width="73.1582" x="1895.1646" y="1328.0977"/><text fill="#000000" font-family="sans-serif" font-size="14" lengthAdjust="spacing" textLength="59.1582" x="1902.1646" y="1350.2051">Audit Log</text></g><rect fill="#EEEEEE" height="3" style="stroke:#EEEEEE;stroke-width:1;" width="1977.3228" x="0" y="115.2666"/><line style="stroke:#000000;stroke-width:1;" x1="0" x2="1977.3228" y1="115.2666" y2="115.2666"/><line style="stroke:#000000;stroke-width:1;" x1="0" x2="1977.3228" y1="118.2666" y2="118.2666"/><rect fill="#EEEEEE" height="25.291" style="stroke:#000000;stroke-width:2;" width="58.0781" x="959.6223" y="103.6211"/><text fill="#000000" font-family="sans-serif" font-size="13" font-weight="bold" lengthAdjust="spacing" textLength="40.4663" x="965.6223" y="121.6494">Create</text><g class="message" data-participant-1="Operator" data-participant-2="UI"><polygon fill="#181818" points="810.9604,158.2031,820.9604,162.2031,810.9604,166.2031,814.9604,162.2031" style="stroke:#181818;stroke-width:1;"/><line style="stroke:#181818;stroke-width:1;" x1="64.8032" x2="816.9604" y1="162.2031" y2="162.2031"/><text fill="#000000" font-family="sans-serif" font-size="13" lengthAdjust="spacing" textLength="734.1572" x="71.8032" y="156.9404">Submit CreatePhysicalResource(alphaCode, description, type, operationalCapacity, setupTime, status, schedule, qualifications)</text></g><g class="message" data-participant-1="UI" data-participant-2="App"><polygon fill="#181818" points="1033.6421,189.4941,1043.6421,193.4941,1033.6421,197.4941,1037.6421,193.4941" style="stroke:#181818;stroke-width:1;"/><line style="stroke:#181818;stroke-width:1;" x1="822.9604" x2="1039.6421" y1="193.4941" y2="193.4941"/><text fill="#000000" font-family="sans-serif" font-size="13" lengthAdjust="spacing" textLength="176.2808" x="829.9604" y="188.2314">CreatePhysicalResource(cmd)</text></g><g class="message" data-participant-1="App" data-participant-2="Repo"><polygon fill="#181818" points="1780.6821,220.7852,1790.6821,224.7852,1780.6821,228.7852,1784.6821,224.7852" style="stroke:#181818;stroke-width:1;"/><line style="stroke:#181818;stroke-width:1;" x1="1045.6421" x2="1786.6821" y1="224.7852" y2="224.7852"/><text fill="#000000" font-family="sans-serif" font-size="13" lengthAdjust="spacing" textLength="205.2451" x="1052.6421" y="219.5225">isAlphaCodeAvailable(alphaCode)?</text></g><g class="message" data-participant-1="Repo" data-participant-2="App"><polygon fill="#181818" points="1056.6421,252.0762,1046.6421,256.0762,1056.6421,260.0762,1052.6421,256.0762" style="stroke:#181818;stroke-width:1;"/><line style="stroke:#181818;stroke-width:1;stroke-dasharray:2,2;" x1="1050.6421" x2="1791.6821" y1="256.0762" y2="256.0762"/><text fill="#000000" font-family="sans-serif" font-size="13" lengthAdjust="spacing" textLength="53.4727" x="1062.6421" y="250.8135">true/false</text></g><g class="message" data-participant-1="App" data-participant-2="App"><line style="stroke:#181818;stroke-width:1;" x1="1045.6421" x2="1087.6421" y1="287.3672" y2="287.3672"/><line style="stroke:#181818;stroke-width:1;" x1="1087.6421" x2="1087.6421" y1="287.3672" y2="300.3672"/><line style="stroke:#181818;stroke-width:1;" x1="1046.6421" x2="1087.6421" y1="300.3672" y2="300.3672"/><polygon fill="#181818" points="1056.6421,296.3672,1046.6421,300.3672,1056.6421,304.3672,1052.6421,300.3672" style="stroke:#181818;stroke-width:1;"/><text fill="#000000" font-family="sans-serif" font-size="13" lengthAdjust="spacing" textLength="733.04" x="1052.6421" y="282.1045">validate alphaCode unique, operationalCapacity &gt; 0, setupTime &gt;= 0, status in {ACTIVE, INACTIVE, UNDER_MAINTENANCE}</text></g><g class="message" data-participant-1="App" data-participant-2="Repo"><polygon fill="#181818" points="1780.6821,327.6582,1790.6821,331.6582,1780.6821,335.6582,1784.6821,331.6582" style="stroke:#181818;stroke-width:1;"/><line style="stroke:#181818;stroke-width:1;" x1="1045.6421" x2="1786.6821" y1="331.6582" y2="331.6582"/><text fill="#000000" font-family="sans-serif" font-size="13" lengthAdjust="spacing" textLength="704.5264" x="1052.6421" y="326.3955">save(PhysicalResource(id, alphaCode, description, type, operationalCapacity, setupTime, status, schedule, qualifications))</text></g><g class="message" data-participant-1="Repo" data-participant-2="App"><polygon fill="#181818" points="1056.6421,358.9492,1046.6421,362.9492,1056.6421,366.9492,1052.6421,362.9492" style="stroke:#181818;stroke-width:1;"/><line style="stroke:#181818;stroke-width:1;stroke-dasharray:2,2;" x1="1050.6421" x2="1791.6821" y1="362.9492" y2="362.9492"/><text fill="#000000" font-family="sans-serif" font-size="13" lengthAdjust="spacing" textLength="140.8799" x="1062.6421" y="357.6865">PhysicalResource(id, ...)</text></g><g class="message" data-participant-1="App" data-participant-2="Audit"><polygon fill="#181818" points="1921.7437,390.2402,1931.7437,394.2402,1921.7437,398.2402,1925.7437,394.2402" style="stroke:#181818;stroke-width:1;"/><line style="stroke:#181818;stroke-width:1;" x1="1045.6421" x2="1927.7437" y1="394.2402" y2="394.2402"/><text fill="#000000" font-family="sans-serif" font-size="13" lengthAdjust="spacing" textLength="357.2715" x="1052.6421" y="388.9775">log(CREATE, operatorId, id, timestamp, outcome=SUCCESS)</text></g><g class="message" data-participant-1="App" data-participant-2="UI"><polygon fill="#181818" points="833.9604,421.5313,823.9604,425.5313,833.9604,429.5313,829.9604,425.5313" style="stroke:#181818;stroke-width:1;"/><line style="stroke:#181818;stroke-width:1;stroke-dasharray:2,2;" x1="827.9604" x2="1044.6421" y1="425.5313" y2="425.5313"/><text fill="#000000" font-family="sans-serif" font-size="13" lengthAdjust="spacing" textLength="187.1035" x="839.9604" y="420.2686">success(PhysicalResourceDTO)</text></g><rect fill="#EEEEEE" height="3" style="stroke:#EEEEEE;stroke-width:1;" width="1977.3228" x="0" y="455.1768"/><line style="stroke:#000000;stroke-width:1;" x1="0" x2="1977.3228" y1="455.1768" y2="455.1768"/><line style="stroke:#000000;stroke-width:1;" x1="0" x2="1977.3228" y1="458.1768" y2="458.1768"/><rect fill="#EEEEEE" height="25.291" style="stroke:#000000;stroke-width:2;" width="61.6709" x="957.8259" y="443.5313"/><text fill="#000000" font-family="sans-serif" font-size="13" font-weight="bold" lengthAdjust="spacing" textLength="44.0591" x="963.8259" y="461.5596">Update</text><g class="message" data-participant-1="Operator" data-participant-2="UI"><polygon fill="#181818" points="810.9604,498.1133,820.9604,502.1133,810.9604,506.1133,814.9604,502.1133" style="stroke:#181818;stroke-width:1;"/><line style="stroke:#181818;stroke-width:1;" x1="64.8032" x2="816.9604" y1="502.1133" y2="502.1133"/><text fill="#000000" font-family="sans-serif" font-size="13" lengthAdjust="spacing" textLength="257.2197" x="71.8032" y="496.8506">Submit UpdatePhysicalResource(id, fields...)</text></g><g class="message" data-participant-1="UI" data-participant-2="App"><polygon fill="#181818" points="1033.6421,529.4043,1043.6421,533.4043,1033.6421,537.4043,1037.6421,533.4043" style="stroke:#181818;stroke-width:1;"/><line style="stroke:#181818;stroke-width:1;" x1="822.9604" x2="1039.6421" y1="533.4043" y2="533.4043"/><text fill="#000000" font-family="sans-serif" font-size="13" lengthAdjust="spacing" textLength="179.1816" x="829.9604" y="528.1416">UpdatePhysicalResource(cmd)</text></g><g class="message" data-participant-1="App" data-participant-2="Repo"><polygon fill="#181818" points="1780.6821,560.6953,1790.6821,564.6953,1780.6821,568.6953,1784.6821,564.6953" style="stroke:#181818;stroke-width:1;"/><line style="stroke:#181818;stroke-width:1;" x1="1045.6421" x2="1786.6821" y1="564.6953" y2="564.6953"/><text fill="#000000" font-family="sans-serif" font-size="13" lengthAdjust="spacing" textLength="65.749" x="1052.6421" y="559.4326">findById(id)</text></g><g class="message" data-participant-1="Repo" data-participant-2="App"><polygon fill="#181818" points="1056.6421,591.9863,1046.6421,595.9863,1056.6421,599.9863,1052.6421,595.9863" style="stroke:#181818;stroke-width:1;"/><line style="stroke:#181818;stroke-width:1;stroke-dasharray:2,2;" x1="1050.6421" x2="1791.6821" y1="595.9863" y2="595.9863"/><text fill="#000000" font-family="sans-serif" font-size="13" lengthAdjust="spacing" textLength="104.0444" x="1062.6421" y="590.7236">PhysicalResource</text></g><g class="message" data-participant-1="App" data-participant-2="App"><line style="stroke:#181818;stroke-width:1;" x1="1045.6421" x2="1087.6421" y1="627.2773" y2="627.2773"/><line style="stroke:#181818;stroke-width:1;" x1="1087.6421" x2="1087.6421" y1="627.2773" y2="640.2773"/><line style="stroke:#181818;stroke-width:1;" x1="1046.6421" x2="1087.6421" y1="640.2773" y2="640.2773"/><polygon fill="#181818" points="1056.6421,636.2773,1046.6421,640.2773,1056.6421,644.2773,1052.6421,640.2773" style="stroke:#181818;stroke-width:1;"/><text fill="#000000" font-family="sans-serif" font-size="13" lengthAdjust="spacing" textLength="484.5737" x="1052.6421" y="622.0146">validate; enforce unique alphaCode if changed, operationalCapacity &gt; 0, valid status</text></g><g class="message" data-participant-1="App" data-participant-2="Repo"><polygon fill="#181818" points="1780.6821,667.5684,1790.6821,671.5684,1780.6821,675.5684,1784.6821,671.5684" style="stroke:#181818;stroke-width:1;"/><line style="stroke:#181818;stroke-width:1;" x1="1045.6421" x2="1786.6821" y1="671.5684" y2="671.5684"/><text fill="#000000" font-family="sans-serif" font-size="13" lengthAdjust="spacing" textLength="187.1543" x="1052.6421" y="666.3057">save(updatedPhysicalResource)</text></g><g class="message" data-participant-1="Repo" data-participant-2="App"><polygon fill="#181818" points="1056.6421,698.8594,1046.6421,702.8594,1056.6421,706.8594,1052.6421,702.8594" style="stroke:#181818;stroke-width:1;"/><line style="stroke:#181818;stroke-width:1;stroke-dasharray:2,2;" x1="1050.6421" x2="1791.6821" y1="702.8594" y2="702.8594"/><text fill="#000000" font-family="sans-serif" font-size="13" lengthAdjust="spacing" textLength="104.0444" x="1062.6421" y="697.5967">PhysicalResource</text></g><g class="message" data-participant-1="App" data-participant-2="Audit"><polygon fill="#181818" points="1921.7437,730.1504,1931.7437,734.1504,1921.7437,738.1504,1925.7437,734.1504" style="stroke:#181818;stroke-width:1;"/><line style="stroke:#181818;stroke-width:1;" x1="1045.6421" x2="1927.7437" y1="734.1504" y2="734.1504"/><text fill="#000000" font-family="sans-serif" font-size="13" lengthAdjust="spacing" textLength="357.2715" x="1052.6421" y="728.8877">log(UPDATE, operatorId, id, timestamp, outcome=SUCCESS)</text></g><g class="message" data-participant-1="App" data-participant-2="UI"><polygon fill="#181818" points="833.9604,761.4414,823.9604,765.4414,833.9604,769.4414,829.9604,765.4414" style="stroke:#181818;stroke-width:1;"/><line style="stroke:#181818;stroke-width:1;stroke-dasharray:2,2;" x1="827.9604" x2="1044.6421" y1="765.4414" y2="765.4414"/><text fill="#000000" font-family="sans-serif" font-size="13" lengthAdjust="spacing" textLength="187.1035" x="839.9604" y="760.1787">success(PhysicalResourceDTO)</text></g><rect fill="#EEEEEE" height="3" style="stroke:#EEEEEE;stroke-width:1;" width="1977.3228" x="0" y="795.0869"/><line style="stroke:#000000;stroke-width:1;" x1="0" x2="1977.3228" y1="795.0869" y2="795.0869"/><line style="stroke:#000000;stroke-width:1;" x1="0" x2="1977.3228" y1="798.0869" y2="798.0869"/><rect fill="#EEEEEE" height="25.291" style="stroke:#000000;stroke-width:2;" width="82.6499" x="947.3364" y="783.4414"/><text fill="#000000" font-family="sans-serif" font-size="13" font-weight="bold" lengthAdjust="spacing" textLength="65.0381" x="953.3364" y="801.4697">Deactivate</text><g class="message" data-participant-1="Operator" data-participant-2="UI"><polygon fill="#181818" points="810.9604,838.0234,820.9604,842.0234,810.9604,846.0234,814.9604,842.0234" style="stroke:#181818;stroke-width:1;"/><line style="stroke:#181818;stroke-width:1;" x1="64.8032" x2="816.9604" y1="842.0234" y2="842.0234"/><text fill="#000000" font-family="sans-serif" font-size="13" lengthAdjust="spacing" textLength="228.3125" x="71.8032" y="836.7607">Submit DeactivatePhysicalResource(id)</text></g><g class="message" data-participant-1="UI" data-participant-2="App"><polygon fill="#181818" points="1033.6421,869.3145,1043.6421,873.3145,1033.6421,877.3145,1037.6421,873.3145" style="stroke:#181818;stroke-width:1;"/><line style="stroke:#181818;stroke-width:1;" x1="822.9604" x2="1039.6421" y1="873.3145" y2="873.3145"/><text fill="#000000" font-family="sans-serif" font-size="13" lengthAdjust="spacing" textLength="198.6816" x="829.9604" y="868.0518">DeactivatePhysicalResource(cmd)</text></g><g class="message" data-participant-1="App" data-participant-2="Repo"><polygon fill="#181818" points="1780.6821,900.6055,1790.6821,904.6055,1780.6821,908.6055,1784.6821,904.6055" style="stroke:#181818;stroke-width:1;"/><line style="stroke:#181818;stroke-width:1;" x1="1045.6421" x2="1786.6821" y1="904.6055" y2="904.6055"/><text fill="#000000" font-family="sans-serif" font-size="13" lengthAdjust="spacing" textLength="65.749" x="1052.6421" y="899.3428">findById(id)</text></g><g class="message" data-participant-1="Repo" data-participant-2="App"><polygon fill="#181818" points="1056.6421,931.8965,1046.6421,935.8965,1056.6421,939.8965,1052.6421,935.8965" style="stroke:#181818;stroke-width:1;"/><line style="stroke:#181818;stroke-width:1;stroke-dasharray:2,2;" x1="1050.6421" x2="1791.6821" y1="935.8965" y2="935.8965"/><text fill="#000000" font-family="sans-serif" font-size="13" lengthAdjust="spacing" textLength="104.0444" x="1062.6421" y="930.6338">PhysicalResource</text></g><g class="message" data-participant-1="App" data-participant-2="App"><line style="stroke:#181818;stroke-width:1;" x1="1045.6421" x2="1087.6421" y1="967.1875" y2="967.1875"/><line style="stroke:#181818;stroke-width:1;" x1="1087.6421" x2="1087.6421" y1="967.1875" y2="980.1875"/><line style="stroke:#181818;stroke-width:1;" x1="1046.6421" x2="1087.6421" y1="980.1875" y2="980.1875"/><polygon fill="#181818" points="1056.6421,976.1875,1046.6421,980.1875,1056.6421,984.1875,1052.6421,980.1875" style="stroke:#181818;stroke-width:1;"/><text fill="#000000" font-family="sans-serif" font-size="13" lengthAdjust="spacing" textLength="248.2061" x="1052.6421" y="961.9248">set status=INACTIVE, validate deactivation</text></g><g class="message" data-participant-1="App" data-participant-2="Repo"><polygon fill="#181818" points="1780.6821,1007.4785,1790.6821,1011.4785,1780.6821,1015.4785,1784.6821,1011.4785" style="stroke:#181818;stroke-width:1;"/><line style="stroke:#181818;stroke-width:1;" x1="1045.6421" x2="1786.6821" y1="1011.4785" y2="1011.4785"/><text fill="#000000" font-family="sans-serif" font-size="13" lengthAdjust="spacing" textLength="187.1543" x="1052.6421" y="1006.2158">save(updatedPhysicalResource)</text></g><g class="message" data-participant-1="Repo" data-participant-2="App"><polygon fill="#181818" points="1056.6421,1038.7695,1046.6421,1042.7695,1056.6421,1046.7695,1052.6421,1042.7695" style="stroke:#181818;stroke-width:1;"/><line style="stroke:#181818;stroke-width:1;stroke-dasharray:2,2;" x1="1050.6421" x2="1791.6821" y1="1042.7695" y2="1042.7695"/><text fill="#000000" font-family="sans-serif" font-size="13" lengthAdjust="spacing" textLength="104.0444" x="1062.6421" y="1037.5068">PhysicalResource</text></g><g class="message" data-participant-1="App" data-participant-2="Audit"><polygon fill="#181818" points="1921.7437,1070.0605,1931.7437,1074.0605,1921.7437,1078.0605,1925.7437,1074.0605" style="stroke:#181818;stroke-width:1;"/><line style="stroke:#181818;stroke-width:1;" x1="1045.6421" x2="1927.7437" y1="1074.0605" y2="1074.0605"/><text fill="#000000" font-family="sans-serif" font-size="13" lengthAdjust="spacing" textLength="386.166" x="1052.6421" y="1068.7979">log(DEACTIVATE, operatorId, id, timestamp, outcome=SUCCESS)</text></g><g class="message" data-participant-1="App" data-participant-2="UI"><polygon fill="#181818" points="833.9604,1101.3516,823.9604,1105.3516,833.9604,1109.3516,829.9604,1105.3516" style="stroke:#181818;stroke-width:1;"/><line style="stroke:#181818;stroke-width:1;stroke-dasharray:2,2;" x1="827.9604" x2="1044.6421" y1="1105.3516" y2="1105.3516"/><text fill="#000000" font-family="sans-serif" font-size="13" lengthAdjust="spacing" textLength="187.1035" x="839.9604" y="1100.0889">success(PhysicalResourceDTO)</text></g><rect fill="#EEEEEE" height="3" style="stroke:#EEEEEE;stroke-width:1;" width="1977.3228" x="0" y="1134.9971"/><line style="stroke:#000000;stroke-width:1;" x1="0" x2="1977.3228" y1="1134.9971" y2="1134.9971"/><line style="stroke:#000000;stroke-width:1;" x1="0" x2="1977.3228" y1="1137.9971" y2="1137.9971"/><rect fill="#EEEEEE" height="25.291" style="stroke:#000000;stroke-width:2;" width="60.9727" x="958.175" y="1123.3516"/><text fill="#000000" font-family="sans-serif" font-size="13" font-weight="bold" lengthAdjust="spacing" textLength="43.3608" x="964.175" y="1141.3799">Search</text><g class="message" data-participant-1="Operator" data-participant-2="UI"><polygon fill="#181818" points="810.9604,1177.9336,820.9604,1181.9336,810.9604,1185.9336,814.9604,1181.9336" style="stroke:#181818;stroke-width:1;"/><line style="stroke:#181818;stroke-width:1;" x1="64.8032" x2="816.9604" y1="1181.9336" y2="1181.9336"/><text fill="#000000" font-family="sans-serif" font-size="13" lengthAdjust="spacing" textLength="298.4478" x="71.8032" y="1176.6709">searchBy(alphaCode?, description?, type?, status?)</text></g><g class="message" data-participant-1="UI" data-participant-2="App"><polygon fill="#181818" points="1033.6421,1209.2246,1043.6421,1213.2246,1033.6421,1217.2246,1037.6421,1213.2246" style="stroke:#181818;stroke-width:1;"/><line style="stroke:#181818;stroke-width:1;" x1="822.9604" x2="1039.6421" y1="1213.2246" y2="1213.2246"/><text fill="#000000" font-family="sans-serif" font-size="13" lengthAdjust="spacing" textLength="80.1963" x="829.9604" y="1207.9619">search(query)</text></g><g class="message" data-participant-1="App" data-participant-2="Repo"><polygon fill="#181818" points="1780.6821,1240.5156,1790.6821,1244.5156,1780.6821,1248.5156,1784.6821,1244.5156" style="stroke:#181818;stroke-width:1;"/><line style="stroke:#181818;stroke-width:1;" x1="1045.6421" x2="1786.6821" y1="1244.5156" y2="1244.5156"/><text fill="#000000" font-family="sans-serif" font-size="13" lengthAdjust="spacing" textLength="304.916" x="1052.6421" y="1239.2529">searchByAlphaCodeDescriptionTypeOrStatus(query)</text></g><g class="message" data-participant-1="Repo" data-participant-2="App"><polygon fill="#181818" points="1056.6421,1271.8066,1046.6421,1275.8066,1056.6421,1279.8066,1052.6421,1275.8066" style="stroke:#181818;stroke-width:1;"/><line style="stroke:#181818;stroke-width:1;stroke-dasharray:2,2;" x1="1050.6421" x2="1791.6821" y1="1275.8066" y2="1275.8066"/><text fill="#000000" font-family="sans-serif" font-size="13" lengthAdjust="spacing" textLength="139.458" x="1062.6421" y="1270.5439">List&lt;PhysicalResource&gt;</text></g><g class="message" data-participant-1="App" data-participant-2="UI"><polygon fill="#181818" points="833.9604,1303.0977,823.9604,1307.0977,833.9604,1311.0977,829.9604,1307.0977" style="stroke:#181818;stroke-width:1;"/><line style="stroke:#181818;stroke-width:1;stroke-dasharray:2,2;" x1="827.9604" x2="1044.6421" y1="1307.0977" y2="1307.0977"/><text fill="#000000" font-family="sans-serif" font-size="13" lengthAdjust="spacing" textLength="74.439" x="839.9604" y="1301.835">PagedResult</text></g><!--SRC=[jLLDR-8m4BtdLumuWKJfdhiRK1foYDIbY91ULwvjYYKJf_v0YbRxttVY43xIjEnXEO4zps_U-8qdX5gbOV2ateInWXfuBhack3S0Sbe4hyeLZEWA1daAzn0jKn_Fqu2gmcebOR3SLaPG8bVSAASfZyeoutelAFTGN0QyiC9M7w4hNYeZC4_beVKIUQNar0fL61X4ZWaBABAXgbT148OGQquiXp0CMgLmDqLLy02PUztXcGRHJJWaijoIM34-1iODrQAiCut1LYLkAK-66qJ6f2GKHO_1SElAjTXXt5XYdS5VkkNCITnvTqIA3QRmWaS1Ia0XM3Cg-KG2tR5HK2CGM5UCI66YLbUq9qAILtacTJGBFExko6oru_SR8WrlYPhzFOfXzSKSpu8hnBlhBmscyEsiF9Y6Vkrh1570xoXUfo_96D95-ozVp9FLhvzHkbWdYsWH9tywbHYovyCF9GisXXlV_AXxHxqY9fF9yUwRtde0gTw6yIg9raahG-aKiJNUOd9ClIinv2nLEnvcUHmdMNQWQRlEE4gvCHzAdw-VHxvZyv9TwTW6qIjx8xXanei_Rx1FJlGqs4OKxB5A6R9TlQZ-bleElDWe31ywwgp5n0RebXHld7tHPfxdO6DVppXV2-kA-NUrPsxco_cDtPnpWYDgVyNH4wh7rKihlu3-LplnIHrC24-l-ZWsMAi23RorIVF4fx-nKHadccvxJJ8-z5YT1ktiOZJDcjaqQuVFxDAnvlWGduAkklwqrCUfFZ_Hhf7pMMUUiZtTkRud_2J_w9OqlQnyIV2zOSn96_m5]--></g></svg>