<svg xmlns="http://www.w3.org/2000/svg" xmlns:xlink="http://www.w3.org/1999/xlink" contentStyleType="text/css" data-diagram-type="SEQUENCE" height="2151px" preserveAspectRatio="none" style="width:1045px;height:2151px;background:#FFFFFF;" version="1.1" viewBox="0 0 1045 2151" width="1045px" zoomAndPan="magnify"><title>Physical Resources Management API - System Sequence Diagram</title><defs/><g><text fill="#000000" font-family="sans-serif" font-size="14" font-weight="bold" lengthAdjust="spacing" textLength="441.1709" x="297.9814" y="30.1074">Physical Resources Management API - System Sequence Diagram</text><g><title>Client</title><rect fill="#000000" fill-opacity="0.00000" height="1944.8262" width="8" x="21.8965" y="123.2422"/><line style="stroke:#181818;stroke-width:0.5;stroke-dasharray:5,5;" x1="25" x2="25" y1="123.2422" y2="2068.0684"/></g><g><title>Physical Resources API</title><rect fill="#000000" fill-opacity="0.00000" height="1944.8262" width="8" x="467.2095" y="123.2422"/><line style="stroke:#181818;stroke-width:0.5;stroke-dasharray:5,5;" x1="470.5132" x2="470.5132" y1="123.2422" y2="2068.0684"/></g><g class="participant participant-head" data-participant="Client"><text fill="#000000" font-family="sans-serif" font-size="14" lengthAdjust="spacing" textLength="35.793" x="5" y="119.7285">Client</text><ellipse cx="25.8965" cy="53.1211" fill="#E2E2F0" rx="8" ry="8" style="stroke:#181818;stroke-width:0.5;"/><path d="M25.8965,61.1211 L25.8965,88.1211 M12.8965,69.1211 L38.8965,69.1211 M25.8965,88.1211 L12.8965,103.1211 M25.8965,88.1211 L38.8965,103.1211" fill="none" style="stroke:#181818;stroke-width:0.5;"/></g><g class="participant participant-tail" data-participant="Client"><text fill="#000000" font-family="sans-serif" font-size="14" lengthAdjust="spacing" textLength="35.793" x="5" y="2082.1758">Client</text><ellipse cx="25.8965" cy="2094.1895" fill="#E2E2F0" rx="8" ry="8" style="stroke:#181818;stroke-width:0.5;"/><path d="M25.8965,2102.1895 L25.8965,2129.1895 M12.8965,2110.1895 L38.8965,2110.1895 M25.8965,2129.1895 L12.8965,2144.1895 M25.8965,2129.1895 L38.8965,2144.1895" fill="none" style="stroke:#181818;stroke-width:0.5;"/></g><g class="participant participant-head" data-participant="System"><text fill="#000000" font-family="sans-serif" font-size="14" lengthAdjust="spacing" textLength="149.3926" x="393.5132" y="119.7285">Physical Resources API</text><path d="M450.7095,76.6211 L450.7095,100.6211 M450.7095,88.6211 L467.7095,88.6211" fill="none" style="stroke:#181818;stroke-width:0.5;"/><ellipse cx="479.7095" cy="88.6211" fill="#E2E2F0" rx="12" ry="12" style="stroke:#181818;stroke-width:0.5;"/></g><g class="participant participant-tail" data-participant="System"><text fill="#000000" font-family="sans-serif" font-size="14" lengthAdjust="spacing" textLength="149.3926" x="393.5132" y="2082.1758">Physical Resources API</text><path d="M450.7095,2089.6895 L450.7095,2113.6895 M450.7095,2101.6895 L467.7095,2101.6895" fill="none" style="stroke:#181818;stroke-width:0.5;"/><ellipse cx="479.7095" cy="2101.6895" fill="#E2E2F0" rx="12" ry="12" style="stroke:#181818;stroke-width:0.5;"/></g><rect fill="#EEEEEE" height="3" style="stroke:#EEEEEE;stroke-width:1;" width="1038.1338" x="0" y="154.8877"/><line style="stroke:#000000;stroke-width:1;" x1="0" x2="1038.1338" y1="154.8877" y2="154.8877"/><line style="stroke:#000000;stroke-width:1;" x1="0" x2="1038.1338" y1="157.8877" y2="157.8877"/><rect fill="#EEEEEE" height="25.291" style="stroke:#000000;stroke-width:2;" width="59.5063" x="489.3137" y="143.2422"/><text fill="#000000" font-family="sans-serif" font-size="13" font-weight="bold" lengthAdjust="spacing" textLength="41.8945" x="495.3137" y="161.2705">Get All</text><g class="message" data-participant-1="Client" data-participant-2="System"><polygon fill="#181818" points="459.2095,197.8242,469.2095,201.8242,459.2095,205.8242,463.2095,201.8242" style="stroke:#181818;stroke-width:1;"/><line style="stroke:#181818;stroke-width:1;" x1="25.8965" x2="465.2095" y1="201.8242" y2="201.8242"/><text fill="#000000" font-family="sans-serif" font-size="13" lengthAdjust="spacing" textLength="158.9517" x="32.8965" y="196.5615">GET /api/PhysicalResource</text></g><g class="message" data-participant-1="System" data-participant-2="Client"><polygon fill="#181818" points="36.8965,246.4063,26.8965,250.4063,36.8965,254.4063,32.8965,250.4063" style="stroke:#181818;stroke-width:1;"/><line style="stroke:#181818;stroke-width:1;stroke-dasharray:2,2;" x1="30.8965" x2="470.2095" y1="250.4063" y2="250.4063"/><text fill="#000000" font-family="sans-serif" font-size="13" lengthAdjust="spacing" textLength="44.0845" x="42.8965" y="227.8525">200 OK</text><text fill="#000000" font-family="sans-serif" font-size="13" lengthAdjust="spacing" textLength="166.8989" x="42.8965" y="245.1436">List&lt;PhysicalResourceDTO&gt;</text></g><rect fill="#EEEEEE" height="3" style="stroke:#EEEEEE;stroke-width:1;" width="1038.1338" x="0" y="280.0518"/><line style="stroke:#000000;stroke-width:1;" x1="0" x2="1038.1338" y1="280.0518" y2="280.0518"/><line style="stroke:#000000;stroke-width:1;" x1="0" x2="1038.1338" y1="283.0518" y2="283.0518"/><rect fill="#EEEEEE" height="25.291" style="stroke:#000000;stroke-width:2;" width="76.1245" x="481.0046" y="268.4063"/><text fill="#000000" font-family="sans-serif" font-size="13" font-weight="bold" lengthAdjust="spacing" textLength="58.5127" x="487.0046" y="286.4346">Get By ID</text><g class="message" data-participant-1="Client" data-participant-2="System"><polygon fill="#181818" points="459.2095,322.9883,469.2095,326.9883,459.2095,330.9883,463.2095,326.9883" style="stroke:#181818;stroke-width:1;"/><line style="stroke:#181818;stroke-width:1;" x1="25.8965" x2="465.2095" y1="326.9883" y2="326.9883"/><text fill="#000000" font-family="sans-serif" font-size="13" lengthAdjust="spacing" textLength="203.0488" x="32.8965" y="321.7256">GET /api/PhysicalResource/get/{id}</text></g><g class="message" data-participant-1="System" data-participant-2="Client"><polygon fill="#181818" points="36.8965,406.1523,26.8965,410.1523,36.8965,414.1523,32.8965,410.1523" style="stroke:#181818;stroke-width:1;"/><line style="stroke:#181818;stroke-width:1;stroke-dasharray:2,2;" x1="30.8965" x2="470.2095" y1="410.1523" y2="410.1523"/><text fill="#000000" font-family="sans-serif" font-size="13" lengthAdjust="spacing" textLength="44.0845" x="42.8965" y="353.0166">200 OK</text><text fill="#000000" font-family="sans-serif" font-size="13" lengthAdjust="spacing" textLength="131.4854" x="42.8965" y="370.3076">PhysicalResourceDTO</text><line style="stroke:#181818;stroke-width:1;" x1="35.8965" x2="95.2773" y1="382.2158" y2="382.2158"/><text fill="#000000" font-family="sans-serif" font-size="13" lengthAdjust="spacing" textLength="19.5" x="98.8892" y="387.0986">OR</text><line style="stroke:#181818;stroke-width:1;" x1="122.001" x2="181.3818" y1="382.2158" y2="382.2158"/><text fill="#000000" font-family="sans-serif" font-size="13" lengthAdjust="spacing" textLength="86.0044" x="42.8965" y="404.8896">404 Not Found</text></g><rect fill="#EEEEEE" height="3" style="stroke:#EEEEEE;stroke-width:1;" width="1038.1338" x="0" y="439.7979"/><line style="stroke:#000000;stroke-width:1;" x1="0" x2="1038.1338" y1="439.7979" y2="439.7979"/><line style="stroke:#000000;stroke-width:1;" x1="0" x2="1038.1338" y1="442.7979" y2="442.7979"/><rect fill="#EEEEEE" height="25.291" style="stroke:#000000;stroke-width:2;" width="95.6245" x="471.2546" y="428.1523"/><text fill="#000000" font-family="sans-serif" font-size="13" font-weight="bold" lengthAdjust="spacing" textLength="78.0127" x="477.2546" y="446.1807">Get By Code</text><g class="message" data-participant-1="Client" data-participant-2="System"><polygon fill="#181818" points="459.2095,482.7344,469.2095,486.7344,459.2095,490.7344,463.2095,486.7344" style="stroke:#181818;stroke-width:1;"/><line style="stroke:#181818;stroke-width:1;" x1="25.8965" x2="465.2095" y1="486.7344" y2="486.7344"/><text fill="#000000" font-family="sans-serif" font-size="13" lengthAdjust="spacing" textLength="252.9224" x="32.8965" y="481.4717">GET /api/PhysicalResource/get/code/{code}</text></g><g class="message" data-participant-1="System" data-participant-2="Client"><polygon fill="#181818" points="36.8965,565.8984,26.8965,569.8984,36.8965,573.8984,32.8965,569.8984" style="stroke:#181818;stroke-width:1;"/><line style="stroke:#181818;stroke-width:1;stroke-dasharray:2,2;" x1="30.8965" x2="470.2095" y1="569.8984" y2="569.8984"/><text fill="#000000" font-family="sans-serif" font-size="13" lengthAdjust="spacing" textLength="44.0845" x="42.8965" y="512.7627">200 OK</text><text fill="#000000" font-family="sans-serif" font-size="13" lengthAdjust="spacing" textLength="131.4854" x="42.8965" y="530.0537">PhysicalResourceDTO</text><line style="stroke:#181818;stroke-width:1;" x1="35.8965" x2="95.2773" y1="541.9619" y2="541.9619"/><text fill="#000000" font-family="sans-serif" font-size="13" lengthAdjust="spacing" textLength="19.5" x="98.8892" y="546.8447">OR</text><line style="stroke:#181818;stroke-width:1;" x1="122.001" x2="181.3818" y1="541.9619" y2="541.9619"/><text fill="#000000" font-family="sans-serif" font-size="13" lengthAdjust="spacing" textLength="86.0044" x="42.8965" y="564.6357">404 Not Found</text></g><rect fill="#EEEEEE" height="3" style="stroke:#EEEEEE;stroke-width:1;" width="1038.1338" x="0" y="599.5439"/><line style="stroke:#000000;stroke-width:1;" x1="0" x2="1038.1338" y1="599.5439" y2="599.5439"/><line style="stroke:#000000;stroke-width:1;" x1="0" x2="1038.1338" y1="602.5439" y2="602.5439"/><rect fill="#EEEEEE" height="25.291" style="stroke:#000000;stroke-width:2;" width="134.6372" x="451.7483" y="587.8984"/><text fill="#000000" font-family="sans-serif" font-size="13" font-weight="bold" lengthAdjust="spacing" textLength="117.0254" x="457.7483" y="605.9268">Get By Description</text><g class="message" data-participant-1="Client" data-participant-2="System"><polygon fill="#181818" points="459.2095,642.4805,469.2095,646.4805,459.2095,650.4805,463.2095,646.4805" style="stroke:#181818;stroke-width:1;"/><line style="stroke:#181818;stroke-width:1;" x1="25.8965" x2="465.2095" y1="646.4805" y2="646.4805"/><text fill="#000000" font-family="sans-serif" font-size="13" lengthAdjust="spacing" textLength="322.2769" x="32.8965" y="641.2178">GET /api/PhysicalResource/get/description/{description}</text></g><g class="message" data-participant-1="System" data-participant-2="Client"><polygon fill="#181818" points="36.8965,725.6445,26.8965,729.6445,36.8965,733.6445,32.8965,729.6445" style="stroke:#181818;stroke-width:1;"/><line style="stroke:#181818;stroke-width:1;stroke-dasharray:2,2;" x1="30.8965" x2="470.2095" y1="729.6445" y2="729.6445"/><text fill="#000000" font-family="sans-serif" font-size="13" lengthAdjust="spacing" textLength="44.0845" x="42.8965" y="672.5088">200 OK</text><text fill="#000000" font-family="sans-serif" font-size="13" lengthAdjust="spacing" textLength="166.8989" x="42.8965" y="689.7998">List&lt;PhysicalResourceDTO&gt;</text><line style="stroke:#181818;stroke-width:1;" x1="35.8965" x2="112.9841" y1="701.708" y2="701.708"/><text fill="#000000" font-family="sans-serif" font-size="13" lengthAdjust="spacing" textLength="19.5" x="116.5959" y="706.5908">OR</text><line style="stroke:#181818;stroke-width:1;" x1="139.7078" x2="216.7954" y1="701.708" y2="701.708"/><text fill="#000000" font-family="sans-serif" font-size="13" lengthAdjust="spacing" textLength="86.0044" x="42.8965" y="724.3818">404 Not Found</text></g><rect fill="#EEEEEE" height="3" style="stroke:#EEEEEE;stroke-width:1;" width="1038.1338" x="0" y="759.29"/><line style="stroke:#000000;stroke-width:1;" x1="0" x2="1038.1338" y1="759.29" y2="759.29"/><line style="stroke:#000000;stroke-width:1;" x1="0" x2="1038.1338" y1="762.29" y2="762.29"/><rect fill="#EEEEEE" height="25.291" style="stroke:#000000;stroke-width:2;" width="102.8545" x="467.6396" y="747.6445"/><text fill="#000000" font-family="sans-serif" font-size="13" font-weight="bold" lengthAdjust="spacing" textLength="85.2427" x="473.6396" y="765.6729">Get By Status</text><g class="message" data-participant-1="Client" data-participant-2="System"><polygon fill="#181818" points="459.2095,805.2266,469.2095,809.2266,459.2095,813.2266,463.2095,809.2266" style="stroke:#181818;stroke-width:1;"/><line style="stroke:#181818;stroke-width:1;" x1="25.8965" x2="465.2095" y1="809.2266" y2="809.2266"/><text fill="#000000" font-family="sans-serif" font-size="13" lengthAdjust="spacing" textLength="265.9097" x="32.8965" y="803.9639">GET /api/PhysicalResource/get/status/{status}</text></g><path d="M476,787.9355 L476,814.9355 L809,814.9355 L809,797.9355 L799,787.9355 L476,787.9355" fill="#FEFFDD" style="stroke:#181818;stroke-width:0.5;"/><path d="M799,787.9355 L799,797.9355 L809,797.9355 L799,787.9355" fill="#FEFFDD" style="stroke:#181818;stroke-width:0.5;"/><text fill="#000000" font-family="sans-serif" font-size="13" lengthAdjust="spacing" textLength="312.1016" x="482" y="806.9639">status &#8712; { Available, Unavailable, UnderMaintenance }</text><g class="message" data-participant-1="System" data-participant-2="Client"><polygon fill="#181818" points="36.8965,891.3906,26.8965,895.3906,36.8965,899.3906,32.8965,895.3906" style="stroke:#181818;stroke-width:1;"/><line style="stroke:#181818;stroke-width:1;stroke-dasharray:2,2;" x1="30.8965" x2="470.2095" y1="895.3906" y2="895.3906"/><text fill="#000000" font-family="sans-serif" font-size="13" lengthAdjust="spacing" textLength="44.0845" x="42.8965" y="838.2549">200 OK</text><text fill="#000000" font-family="sans-serif" font-size="13" lengthAdjust="spacing" textLength="166.8989" x="42.8965" y="855.5459">List&lt;PhysicalResourceDTO&gt;</text><line style="stroke:#181818;stroke-width:1;" x1="35.8965" x2="112.9841" y1="867.4541" y2="867.4541"/><text fill="#000000" font-family="sans-serif" font-size="13" lengthAdjust="spacing" textLength="19.5" x="116.5959" y="872.3369">OR</text><line style="stroke:#181818;stroke-width:1;" x1="139.7078" x2="216.7954" y1="867.4541" y2="867.4541"/><text fill="#000000" font-family="sans-serif" font-size="13" lengthAdjust="spacing" textLength="86.0044" x="42.8965" y="890.1279">404 Not Found</text></g><rect fill="#EEEEEE" height="3" style="stroke:#EEEEEE;stroke-width:1;" width="1038.1338" x="0" y="925.0361"/><line style="stroke:#000000;stroke-width:1;" x1="0" x2="1038.1338" y1="925.0361" y2="925.0361"/><line style="stroke:#000000;stroke-width:1;" x1="0" x2="1038.1338" y1="928.0361" y2="928.0361"/><rect fill="#EEEEEE" height="25.291" style="stroke:#000000;stroke-width:2;" width="93.4663" x="472.3337" y="913.3906"/><text fill="#000000" font-family="sans-serif" font-size="13" font-weight="bold" lengthAdjust="spacing" textLength="75.8545" x="478.3337" y="931.4189">Get By Type</text><g class="message" data-participant-1="Client" data-participant-2="System"><polygon fill="#181818" points="459.2095,970.9727,469.2095,974.9727,459.2095,978.9727,463.2095,974.9727" style="stroke:#181818;stroke-width:1;"/><line style="stroke:#181818;stroke-width:1;" x1="25.8965" x2="465.2095" y1="974.9727" y2="974.9727"/><text fill="#000000" font-family="sans-serif" font-size="13" lengthAdjust="spacing" textLength="245.686" x="32.8965" y="969.71">GET /api/PhysicalResource/get/type/{type}</text></g><path d="M476,953.6816 L476,980.6816 L1027,980.6816 L1027,963.6816 L1017,953.6816 L476,953.6816" fill="#FEFFDD" style="stroke:#181818;stroke-width:0.5;"/><path d="M1017,953.6816 L1017,963.6816 L1027,963.6816 L1017,953.6816" fill="#FEFFDD" style="stroke:#181818;stroke-width:0.5;"/><text fill="#000000" font-family="sans-serif" font-size="13" lengthAdjust="spacing" textLength="530.9243" x="482" y="972.71">type &#8712; { STSCrane, YGCrane, MCrane, Truck, Forklift, RStacker, SCarrier, TugBoat, Other }</text><g class="message" data-participant-1="System" data-participant-2="Client"><polygon fill="#181818" points="36.8965,1057.1367,26.8965,1061.1367,36.8965,1065.1367,32.8965,1061.1367" style="stroke:#181818;stroke-width:1;"/><line style="stroke:#181818;stroke-width:1;stroke-dasharray:2,2;" x1="30.8965" x2="470.2095" y1="1061.1367" y2="1061.1367"/><text fill="#000000" font-family="sans-serif" font-size="13" lengthAdjust="spacing" textLength="44.0845" x="42.8965" y="1004.001">200 OK</text><text fill="#000000" font-family="sans-serif" font-size="13" lengthAdjust="spacing" textLength="166.8989" x="42.8965" y="1021.292">List&lt;PhysicalResourceDTO&gt;</text><line style="stroke:#181818;stroke-width:1;" x1="35.8965" x2="112.9841" y1="1033.2002" y2="1033.2002"/><text fill="#000000" font-family="sans-serif" font-size="13" lengthAdjust="spacing" textLength="19.5" x="116.5959" y="1038.083">OR</text><line style="stroke:#181818;stroke-width:1;" x1="139.7078" x2="216.7954" y1="1033.2002" y2="1033.2002"/><text fill="#000000" font-family="sans-serif" font-size="13" lengthAdjust="spacing" textLength="86.0044" x="42.8965" y="1055.874">404 Not Found</text></g><rect fill="#EEEEEE" height="3" style="stroke:#EEEEEE;stroke-width:1;" width="1038.1338" x="0" y="1090.7822"/><line style="stroke:#000000;stroke-width:1;" x1="0" x2="1038.1338" y1="1090.7822" y2="1090.7822"/><line style="stroke:#000000;stroke-width:1;" x1="0" x2="1038.1338" y1="1093.7822" y2="1093.7822"/><rect fill="#EEEEEE" height="25.291" style="stroke:#000000;stroke-width:2;" width="141.8545" x="448.1396" y="1079.1367"/><text fill="#000000" font-family="sans-serif" font-size="13" font-weight="bold" lengthAdjust="spacing" textLength="124.2427" x="454.1396" y="1097.165">Get By Qualification</text><g class="message" data-participant-1="Client" data-participant-2="System"><polygon fill="#181818" points="459.2095,1133.7188,469.2095,1137.7188,459.2095,1141.7188,463.2095,1137.7188" style="stroke:#181818;stroke-width:1;"/><line style="stroke:#181818;stroke-width:1;" x1="25.8965" x2="465.2095" y1="1137.7188" y2="1137.7188"/><text fill="#000000" font-family="sans-serif" font-size="13" lengthAdjust="spacing" textLength="344.6968" x="32.8965" y="1132.4561">GET /api/PhysicalResource/get/qualification/{qualificationId}</text></g><g class="message" data-participant-1="System" data-participant-2="Client"><polygon fill="#181818" points="36.8965,1216.8828,26.8965,1220.8828,36.8965,1224.8828,32.8965,1220.8828" style="stroke:#181818;stroke-width:1;"/><line style="stroke:#181818;stroke-width:1;stroke-dasharray:2,2;" x1="30.8965" x2="470.2095" y1="1220.8828" y2="1220.8828"/><text fill="#000000" font-family="sans-serif" font-size="13" lengthAdjust="spacing" textLength="44.0845" x="42.8965" y="1163.7471">200 OK</text><text fill="#000000" font-family="sans-serif" font-size="13" lengthAdjust="spacing" textLength="166.8989" x="42.8965" y="1181.0381">List&lt;PhysicalResourceDTO&gt;</text><line style="stroke:#181818;stroke-width:1;" x1="35.8965" x2="112.9841" y1="1192.9463" y2="1192.9463"/><text fill="#000000" font-family="sans-serif" font-size="13" lengthAdjust="spacing" textLength="19.5" x="116.5959" y="1197.8291">OR</text><line style="stroke:#181818;stroke-width:1;" x1="139.7078" x2="216.7954" y1="1192.9463" y2="1192.9463"/><text fill="#000000" font-family="sans-serif" font-size="13" lengthAdjust="spacing" textLength="86.0044" x="42.8965" y="1215.6201">404 Not Found</text></g><rect fill="#EEEEEE" height="3" style="stroke:#EEEEEE;stroke-width:1;" width="1038.1338" x="0" y="1250.5283"/><line style="stroke:#000000;stroke-width:1;" x1="0" x2="1038.1338" y1="1250.5283" y2="1250.5283"/><line style="stroke:#000000;stroke-width:1;" x1="0" x2="1038.1338" y1="1253.5283" y2="1253.5283"/><rect fill="#EEEEEE" height="25.291" style="stroke:#000000;stroke-width:2;" width="58.0781" x="490.0278" y="1238.8828"/><text fill="#000000" font-family="sans-serif" font-size="13" font-weight="bold" lengthAdjust="spacing" textLength="40.4663" x="496.0278" y="1256.9111">Create</text><g class="message" data-participant-1="Client" data-participant-2="System"><polygon fill="#181818" points="459.2095,1310.7559,469.2095,1314.7559,459.2095,1318.7559,463.2095,1314.7559" style="stroke:#181818;stroke-width:1;"/><line style="stroke:#181818;stroke-width:1;" x1="25.8965" x2="465.2095" y1="1314.7559" y2="1314.7559"/><text fill="#000000" font-family="sans-serif" font-size="13" lengthAdjust="spacing" textLength="167.6226" x="32.8965" y="1292.2021">POST /api/PhysicalResource</text><text fill="#000000" font-family="sans-serif" font-size="13" lengthAdjust="spacing" textLength="210.2661" x="32.8965" y="1309.4932">Body: CreatingPhysicalResourceDto</text></g><g class="message" data-participant-1="System" data-participant-2="Client"><polygon fill="#181818" points="36.8965,1393.9199,26.8965,1397.9199,36.8965,1401.9199,32.8965,1397.9199" style="stroke:#181818;stroke-width:1;"/><line style="stroke:#181818;stroke-width:1;stroke-dasharray:2,2;" x1="30.8965" x2="470.2095" y1="1397.9199" y2="1397.9199"/><text fill="#000000" font-family="sans-serif" font-size="13" lengthAdjust="spacing" textLength="71.5508" x="42.8965" y="1340.7842">201 Created</text><text fill="#000000" font-family="sans-serif" font-size="13" lengthAdjust="spacing" textLength="131.4854" x="42.8965" y="1358.0752">PhysicalResourceDTO</text><line style="stroke:#181818;stroke-width:1;" x1="35.8965" x2="95.2773" y1="1369.9834" y2="1369.9834"/><text fill="#000000" font-family="sans-serif" font-size="13" lengthAdjust="spacing" textLength="19.5" x="98.8892" y="1374.8662">OR</text><line style="stroke:#181818;stroke-width:1;" x1="122.001" x2="181.3818" y1="1369.9834" y2="1369.9834"/><text fill="#000000" font-family="sans-serif" font-size="13" lengthAdjust="spacing" textLength="100.4644" x="42.8965" y="1392.6572">400 Bad Request</text></g><rect fill="#EEEEEE" height="3" style="stroke:#EEEEEE;stroke-width:1;" width="1038.1338" x="0" y="1427.5654"/><line style="stroke:#000000;stroke-width:1;" x1="0" x2="1038.1338" y1="1427.5654" y2="1427.5654"/><line style="stroke:#000000;stroke-width:1;" x1="0" x2="1038.1338" y1="1430.5654" y2="1430.5654"/><rect fill="#EEEEEE" height="25.291" style="stroke:#000000;stroke-width:2;" width="118.7173" x="459.7083" y="1415.9199"/><text fill="#000000" font-family="sans-serif" font-size="13" font-weight="bold" lengthAdjust="spacing" textLength="101.1055" x="465.7083" y="1433.9482">Update (PATCH)</text><g class="message" data-participant-1="Client" data-participant-2="System"><polygon fill="#181818" points="459.2095,1487.793,469.2095,1491.793,459.2095,1495.793,463.2095,1491.793" style="stroke:#181818;stroke-width:1;"/><line style="stroke:#181818;stroke-width:1;" x1="25.8965" x2="465.2095" y1="1491.793" y2="1491.793"/><text fill="#000000" font-family="sans-serif" font-size="13" lengthAdjust="spacing" textLength="242.0742" x="32.8965" y="1469.2393">PATCH /api/PhysicalResource/update/{id}</text><text fill="#000000" font-family="sans-serif" font-size="13" lengthAdjust="spacing" textLength="421.313" x="32.8965" y="1486.5303">Body: { description?, operationalCapacity?, setupTime?, qualificationId? }</text></g><g class="message" data-participant-1="System" data-participant-2="Client"><polygon fill="#181818" points="36.8965,1622.8301,26.8965,1626.8301,36.8965,1630.8301,32.8965,1626.8301" style="stroke:#181818;stroke-width:1;"/><line style="stroke:#181818;stroke-width:1;stroke-dasharray:2,2;" x1="30.8965" x2="470.2095" y1="1626.8301" y2="1626.8301"/><text fill="#000000" font-family="sans-serif" font-size="13" lengthAdjust="spacing" textLength="44.0845" x="42.8965" y="1517.8213">200 OK</text><text fill="#000000" font-family="sans-serif" font-size="13" lengthAdjust="spacing" textLength="131.4854" x="42.8965" y="1535.1123">PhysicalResourceDTO</text><line style="stroke:#181818;stroke-width:1;" x1="35.8965" x2="206.1328" y1="1547.0205" y2="1547.0205"/><text fill="#000000" font-family="sans-serif" font-size="13" lengthAdjust="spacing" textLength="19.5" x="209.7446" y="1551.9033">OR</text><line style="stroke:#181818;stroke-width:1;" x1="232.8564" x2="403.0928" y1="1547.0205" y2="1547.0205"/><text fill="#000000" font-family="sans-serif" font-size="13" lengthAdjust="spacing" textLength="86.0044" x="42.8965" y="1569.6943">404 Not Found</text><line style="stroke:#181818;stroke-width:1;" x1="35.8965" x2="206.1328" y1="1581.6025" y2="1581.6025"/><text fill="#000000" font-family="sans-serif" font-size="13" lengthAdjust="spacing" textLength="19.5" x="209.7446" y="1586.4854">OR</text><line style="stroke:#181818;stroke-width:1;" x1="232.8564" x2="403.0928" y1="1581.6025" y2="1581.6025"/><text fill="#000000" font-family="sans-serif" font-size="13" lengthAdjust="spacing" textLength="100.4644" x="42.8965" y="1604.2764">400 Bad Request</text><text fill="#000000" font-family="sans-serif" font-size="13" lengthAdjust="spacing" textLength="353.1963" x="42.8965" y="1621.5674">{ error: "The following field(s) cannot be updated", fields: [...] }</text></g><rect fill="#EEEEEE" height="3" style="stroke:#EEEEEE;stroke-width:1;" width="1038.1338" x="0" y="1656.4756"/><line style="stroke:#000000;stroke-width:1;" x1="0" x2="1038.1338" y1="1656.4756" y2="1656.4756"/><line style="stroke:#000000;stroke-width:1;" x1="0" x2="1038.1338" y1="1659.4756" y2="1659.4756"/><rect fill="#EEEEEE" height="25.291" style="stroke:#000000;stroke-width:2;" width="82.6499" x="477.7419" y="1644.8301"/><text fill="#000000" font-family="sans-serif" font-size="13" font-weight="bold" lengthAdjust="spacing" textLength="65.0381" x="483.7419" y="1662.8584">Deactivate</text><g class="message" data-participant-1="Client" data-participant-2="System"><polygon fill="#181818" points="459.2095,1699.4121,469.2095,1703.4121,459.2095,1707.4121,463.2095,1703.4121" style="stroke:#181818;stroke-width:1;"/><line style="stroke:#181818;stroke-width:1;" x1="25.8965" x2="465.2095" y1="1703.4121" y2="1703.4121"/><text fill="#000000" font-family="sans-serif" font-size="13" lengthAdjust="spacing" textLength="261.5742" x="32.8965" y="1698.1494">PATCH /api/PhysicalResource/deactivate/{id}</text></g><g class="message" data-participant-1="System" data-participant-2="Client"><polygon fill="#181818" points="36.8965,1834.4492,26.8965,1838.4492,36.8965,1842.4492,32.8965,1838.4492" style="stroke:#181818;stroke-width:1;"/><line style="stroke:#181818;stroke-width:1;stroke-dasharray:2,2;" x1="30.8965" x2="470.2095" y1="1838.4492" y2="1838.4492"/><text fill="#000000" font-family="sans-serif" font-size="13" lengthAdjust="spacing" textLength="44.0845" x="42.8965" y="1729.4404">200 OK</text><text fill="#000000" font-family="sans-serif" font-size="13" lengthAdjust="spacing" textLength="131.4854" x="42.8965" y="1746.7314">PhysicalResourceDTO</text><line style="stroke:#181818;stroke-width:1;" x1="35.8965" x2="189.5051" y1="1758.6396" y2="1758.6396"/><text fill="#000000" font-family="sans-serif" font-size="13" lengthAdjust="spacing" textLength="19.5" x="193.1169" y="1763.5225">OR</text><line style="stroke:#181818;stroke-width:1;" x1="216.2288" x2="369.8374" y1="1758.6396" y2="1758.6396"/><text fill="#000000" font-family="sans-serif" font-size="13" lengthAdjust="spacing" textLength="86.0044" x="42.8965" y="1781.3135">404 Not Found</text><line style="stroke:#181818;stroke-width:1;" x1="35.8965" x2="189.5051" y1="1793.2217" y2="1793.2217"/><text fill="#000000" font-family="sans-serif" font-size="13" lengthAdjust="spacing" textLength="19.5" x="193.1169" y="1798.1045">OR</text><line style="stroke:#181818;stroke-width:1;" x1="216.2288" x2="369.8374" y1="1793.2217" y2="1793.2217"/><text fill="#000000" font-family="sans-serif" font-size="13" lengthAdjust="spacing" textLength="100.4644" x="42.8965" y="1815.8955">400 Bad Request</text><text fill="#000000" font-family="sans-serif" font-size="13" lengthAdjust="spacing" textLength="319.9409" x="42.8965" y="1833.1865">{ error: "The physical resource is already deactivated." }</text></g><rect fill="#EEEEEE" height="3" style="stroke:#EEEEEE;stroke-width:1;" width="1038.1338" x="0" y="1868.0947"/><line style="stroke:#000000;stroke-width:1;" x1="0" x2="1038.1338" y1="1868.0947" y2="1868.0947"/><line style="stroke:#000000;stroke-width:1;" x1="0" x2="1038.1338" y1="1871.0947" y2="1871.0947"/><rect fill="#EEEEEE" height="25.291" style="stroke:#000000;stroke-width:2;" width="82.6499" x="477.7419" y="1856.4492"/><text fill="#000000" font-family="sans-serif" font-size="13" font-weight="bold" lengthAdjust="spacing" textLength="65.0381" x="483.7419" y="1874.4775">Reactivate</text><g class="message" data-participant-1="Client" data-participant-2="System"><polygon fill="#181818" points="459.2095,1911.0313,469.2095,1915.0313,459.2095,1919.0313,463.2095,1915.0313" style="stroke:#181818;stroke-width:1;"/><line style="stroke:#181818;stroke-width:1;" x1="25.8965" x2="465.2095" y1="1915.0313" y2="1915.0313"/><text fill="#000000" font-family="sans-serif" font-size="13" lengthAdjust="spacing" textLength="258.6733" x="32.8965" y="1909.7686">PATCH /api/PhysicalResource/reactivate/{id}</text></g><g class="message" data-participant-1="System" data-participant-2="Client"><polygon fill="#181818" points="36.8965,2046.0684,26.8965,2050.0684,36.8965,2054.0684,32.8965,2050.0684" style="stroke:#181818;stroke-width:1;"/><line style="stroke:#181818;stroke-width:1;stroke-dasharray:2,2;" x1="30.8965" x2="470.2095" y1="2050.0684" y2="2050.0684"/><text fill="#000000" font-family="sans-serif" font-size="13" lengthAdjust="spacing" textLength="44.0845" x="42.8965" y="1941.0596">200 OK</text><text fill="#000000" font-family="sans-serif" font-size="13" lengthAdjust="spacing" textLength="131.4854" x="42.8965" y="1958.3506">PhysicalResourceDTO</text><line style="stroke:#181818;stroke-width:1;" x1="35.8965" x2="173.2393" y1="1970.2588" y2="1970.2588"/><text fill="#000000" font-family="sans-serif" font-size="13" lengthAdjust="spacing" textLength="19.5" x="176.8511" y="1975.1416">OR</text><line style="stroke:#181818;stroke-width:1;" x1="199.9629" x2="337.3057" y1="1970.2588" y2="1970.2588"/><text fill="#000000" font-family="sans-serif" font-size="13" lengthAdjust="spacing" textLength="86.0044" x="42.8965" y="1992.9326">404 Not Found</text><line style="stroke:#181818;stroke-width:1;" x1="35.8965" x2="173.2393" y1="2004.8408" y2="2004.8408"/><text fill="#000000" font-family="sans-serif" font-size="13" lengthAdjust="spacing" textLength="19.5" x="176.8511" y="2009.7236">OR</text><line style="stroke:#181818;stroke-width:1;" x1="199.9629" x2="337.3057" y1="2004.8408" y2="2004.8408"/><text fill="#000000" font-family="sans-serif" font-size="13" lengthAdjust="spacing" textLength="100.4644" x="42.8965" y="2027.5146">400 Bad Request</text><text fill="#000000" font-family="sans-serif" font-size="13" lengthAdjust="spacing" textLength="287.4092" x="42.8965" y="2044.8057">{ error: "The physical resource is already active." }</text></g><!--SRC=[pLLDRzf04BtxLumu9H9WMkM4IY8mRHgrAHGxXwhqC7W7M6NPTNRNgIoBUtvdVqdNnYGa3IYXITMBztFUl3SpdhNS2eBXF3CyHW4ZCYhLCHauHuapMf2qq1sUGGF2p5XQG4XNAScOeCznfd7XUHXRfI4GtDtr9YgL37K6jKSm7L0Dq5HGdjVfm2avV26Wq_5M2D0uNhjgm-dx27nCkBy6MsDvrPM6krtPjU5jgmM3JsFvcHlxxg55FneStthiPN3MVwvFVqRMppbRxdJ-YD-nR3HWC7Btn_AeTGHVb8KFHPms-GIAqLwCOcVevyNtTOZroSIQ9vOhkHS_TcVlvnkBvNuvV1BdqA9DpLvqJMdgvwjnwKbb2JIVpQstse9VDpUGG_SQkS29e3fSIDnSCDBdoAKbYSL_ilH8CYXWNb5mb2NxLOzrXdvUVEz9BJOgeM4K1Xgba_Rjj9gSLsEaq_YoxjZeIy6djWuZ5_ZuadGTmW2rviKiIcSzXUvmOEUa_qqulgRe23dJlQlsQXF1p-yjpzYhr6wW2UssB0u7uHQwOzbJB6klpBcS_U7OgYritrGksHEQGmjwo5mhTytVs9BkHS8AkWV3RXHyFDn6kpZS4kQq12Wxwbf33XiDugGEAY5TXXn5W0d6t6Pkrv1DauWloCqV9EO4Ngu9xWZ0MEP0MYlTXbeq9vWg8THF5toOSXBim1n2ZD8LEKm8LZfPhRuwD6tutcmsVpYcHHZxvDvFVhqZypj2o6wDN_PXUeRqPFtCwmeNk04Khh1O1dVyMBDM2HxzZM3zdmiksL6fzJS0]--></g></svg>