<svg xmlns="http://www.w3.org/2000/svg" xmlns:xlink="http://www.w3.org/1999/xlink" contentStyleType="text/css" data-diagram-type="SEQUENCE" height="903.6px" preserveAspectRatio="none" style="width:897px;height:903px;background:#FFFFFF;" version="1.1" viewBox="0 0 897 903" width="897px" zoomAndPan="magnify"><defs/><g><g><title>API .DockController.</title><rect fill="#FFFFFF" height="251.8699" style="stroke:#181818;stroke-width:0.6;" width="6" x="258.2915" y="97.3219"/></g><g><title>API .DockController.</title><rect fill="#FFFFFF" height="251.8699" style="stroke:#181818;stroke-width:0.6;" width="6" x="258.2915" y="395.141"/></g><g><title>API .DockController.</title><rect fill="#FFFFFF" height="150.1969" style="stroke:#181818;stroke-width:0.6;" width="6" x="258.2915" y="692.9602"/></g><g><title>DockService</title><rect fill="#FFFFFF" height="214.3207" style="stroke:#181818;stroke-width:0.6;" width="6" x="415.7106" y="116.0965"/></g><g><title>DockService</title><rect fill="#FFFFFF" height="214.3207" style="stroke:#181818;stroke-width:0.6;" width="6" x="415.7106" y="413.9156"/></g><g><title>DockService</title><rect fill="#FFFFFF" height="112.6477" style="stroke:#181818;stroke-width:0.6;" width="6" x="415.7106" y="711.7348"/></g><g><title>DockRepository</title><rect fill="#FFFFFF" height="18.7746" style="stroke:#181818;stroke-width:0.6;" width="6" x="624.2742" y="198.9949"/></g><g><title>DockRepository</title><rect fill="#FFFFFF" height="18.7746" style="stroke:#181818;stroke-width:0.6;" width="6" x="624.2742" y="432.6902"/></g><g><title>DockRepository</title><rect fill="#FFFFFF" height="18.7746" style="stroke:#181818;stroke-width:0.6;" width="6" x="624.2742" y="496.8141"/></g><g><title>DockRepository</title><rect fill="#FFFFFF" height="18.7746" style="stroke:#181818;stroke-width:0.6;" width="6" x="624.2742" y="730.5094"/></g><g><title>UnitOfWork</title><rect fill="#FFFFFF" height="18.7746" style="stroke:#181818;stroke-width:0.6;" width="6" x="685.2196" y="236.5441"/></g><g><title>UnitOfWork</title><rect fill="#FFFFFF" height="18.7746" style="stroke:#181818;stroke-width:0.6;" width="6" x="685.2196" y="534.3633"/></g><g><title>DockFactory</title><rect fill="#FFFFFF" height="18.7746" style="stroke:#181818;stroke-width:0.6;" width="6" x="740.0927" y="161.4457"/></g><g><title>DockFactory</title><rect fill="#FFFFFF" height="18.7746" style="stroke:#181818;stroke-width:0.6;" width="6" x="740.0927" y="274.0934"/></g><g><title>DockFactory</title><rect fill="#FFFFFF" height="18.7746" style="stroke:#181818;stroke-width:0.6;" width="6" x="740.0927" y="571.9125"/></g><g><title>DockFactory</title><rect fill="#FFFFFF" height="18.7746" style="stroke:#181818;stroke-width:0.6;" width="6" x="740.0927" y="768.0586"/></g><g><title>Port Authority Officer</title><rect fill="#000000" fill-opacity="0.00000" height="803.7844" width="4.8" x="41.3792" y="50.1727"/><line style="stroke:#181818;stroke-width:0.3;stroke-dasharray:3,3;" x1="43.2" x2="43.2" y1="50.1727" y2="853.957"/></g><g><title>API .DockController.</title><rect fill="#000000" fill-opacity="0.00000" height="803.7844" width="4.8" x="258.8915" y="50.1727"/><line style="stroke:#181818;stroke-width:0.3;stroke-dasharray:3,3;" x1="261.1819" x2="261.1819" y1="50.1727" y2="853.957"/></g><g><title>DockService</title><rect fill="#000000" fill-opacity="0.00000" height="803.7844" width="4.8" x="416.3106" y="50.1727"/><line style="stroke:#181818;stroke-width:0.3;stroke-dasharray:3,3;" x1="418.5369" x2="418.5369" y1="50.1727" y2="853.957"/></g><g><title>DockRepository</title><rect fill="#000000" fill-opacity="0.00000" height="803.7844" width="4.8" x="624.8742" y="50.1727"/><line style="stroke:#181818;stroke-width:0.3;stroke-dasharray:3,3;" x1="627.0302" x2="627.0302" y1="50.1727" y2="853.957"/></g><g><title>UnitOfWork</title><rect fill="#000000" fill-opacity="0.00000" height="803.7844" width="4.8" x="685.8196" y="50.1727"/><line style="stroke:#181818;stroke-width:0.3;stroke-dasharray:3,3;" x1="688.1183" x2="688.1183" y1="50.1727" y2="853.957"/></g><g><title>DockFactory</title><rect fill="#000000" fill-opacity="0.00000" height="803.7844" width="4.8" x="740.6927" y="50.1727"/><line style="stroke:#181818;stroke-width:0.3;stroke-dasharray:3,3;" x1="742.921" x2="742.921" y1="50.1727" y2="853.957"/></g><g><title>Audit.Logs .ILogger.Serilog.</title><rect fill="#000000" fill-opacity="0.00000" height="803.7844" width="4.8" x="829.7613" y="50.1727"/><line style="stroke:#181818;stroke-width:0.3;stroke-dasharray:3,3;" x1="832.0644" x2="832.0644" y1="50.1727" y2="853.957"/></g><g class="participant participant-head" data-participant="Officer"><text fill="#000000" font-family="sans-serif" font-size="8.4" lengthAdjust="spacing" textLength="77.9584" x="3" y="48.0645">Port Authority Officer</text><ellipse cx="43.7792" cy="8.1" fill="#E2E2F0" rx="4.8" ry="4.8" style="stroke:#181818;stroke-width:0.3;"/><path d="M43.7792,12.9 L43.7792,29.1 M35.9792,17.7 L51.5792,17.7 M43.7792,29.1 L35.9792,38.1 M43.7792,29.1 L51.5792,38.1" fill="none" style="stroke:#181818;stroke-width:0.3;"/></g><g class="participant participant-tail" data-participant="Officer"><text fill="#000000" font-family="sans-serif" font-size="8.4" lengthAdjust="spacing" textLength="77.9584" x="3" y="862.4215">Port Authority Officer</text><ellipse cx="43.7792" cy="869.6297" fill="#E2E2F0" rx="4.8" ry="4.8" style="stroke:#181818;stroke-width:0.3;"/><path d="M43.7792,874.4297 L43.7792,890.6297 M35.9792,879.2297 L51.5792,879.2297 M43.7792,890.6297 L35.9792,899.6297 M43.7792,890.6297 L51.5792,899.6297" fill="none" style="stroke:#181818;stroke-width:0.3;"/></g><g class="participant participant-head" data-participant="Controller"><text fill="#000000" font-family="sans-serif" font-size="8.4" lengthAdjust="spacing" textLength="77.0191" x="220.9819" y="48.0645">API (DockController)</text><path d="M248.9915,22.2 L248.9915,36.6 M248.9915,29.4 L259.1915,29.4" fill="none" style="stroke:#181818;stroke-width:0.3;"/><ellipse cx="266.3915" cy="29.4" fill="#E2E2F0" rx="7.2" ry="7.2" style="stroke:#181818;stroke-width:0.3;"/></g><g class="participant participant-tail" data-participant="Controller"><text fill="#000000" font-family="sans-serif" font-size="8.4" lengthAdjust="spacing" textLength="77.0191" x="220.9819" y="862.4215">API (DockController)</text><path d="M248.9915,866.9297 L248.9915,881.3297 M248.9915,874.1297 L259.1915,874.1297" fill="none" style="stroke:#181818;stroke-width:0.3;"/><ellipse cx="266.3915" cy="874.1297" fill="#E2E2F0" rx="7.2" ry="7.2" style="stroke:#181818;stroke-width:0.3;"/></g><g class="participant participant-head" data-participant="Service"><text fill="#000000" font-family="sans-serif" font-size="8.4" lengthAdjust="spacing" textLength="47.1475" x="393.3369" y="48.0645">DockService</text><ellipse cx="418.7106" cy="29.4" fill="#E2E2F0" rx="7.2" ry="7.2" style="stroke:#181818;stroke-width:0.3;"/><polygon fill="#181818" points="416.3106,22.2,419.9106,19.2,418.7106,22.2,419.9106,25.2,416.3106,22.2" style="stroke:#181818;stroke-width:0.6;"/></g><g class="participant participant-tail" data-participant="Service"><text fill="#000000" font-family="sans-serif" font-size="8.4" lengthAdjust="spacing" textLength="47.1475" x="393.3369" y="862.4215">DockService</text><ellipse cx="418.7106" cy="874.1297" fill="#E2E2F0" rx="7.2" ry="7.2" style="stroke:#181818;stroke-width:0.3;"/><polygon fill="#181818" points="416.3106,866.9297,419.9106,863.9297,418.7106,866.9297,419.9106,869.9297,416.3106,866.9297" style="stroke:#181818;stroke-width:0.6;"/></g><g class="participant participant-head" data-participant="Repo"><text fill="#000000" font-family="sans-serif" font-size="8.4" lengthAdjust="spacing" textLength="59.2881" x="595.8302" y="48.0645">DockRepository</text><ellipse cx="627.2742" cy="29.4" fill="#E2E2F0" rx="7.2" ry="7.2" style="stroke:#181818;stroke-width:0.3;"/><line style="stroke:#181818;stroke-width:0.3;" x1="620.0742" x2="634.4742" y1="37.8" y2="37.8"/></g><g class="participant participant-tail" data-participant="Repo"><text fill="#000000" font-family="sans-serif" font-size="8.4" lengthAdjust="spacing" textLength="59.2881" x="595.8302" y="862.4215">DockRepository</text><ellipse cx="627.2742" cy="874.1297" fill="#E2E2F0" rx="7.2" ry="7.2" style="stroke:#181818;stroke-width:0.3;"/><line style="stroke:#181818;stroke-width:0.3;" x1="620.0742" x2="634.4742" y1="882.5297" y2="882.5297"/></g><g class="participant participant-head" data-participant="UoW"><text fill="#000000" font-family="sans-serif" font-size="8.4" lengthAdjust="spacing" textLength="43.4027" x="664.7183" y="48.0645">UnitOfWork</text><ellipse cx="688.2196" cy="29.4" fill="#E2E2F0" rx="7.2" ry="7.2" style="stroke:#181818;stroke-width:0.3;"/><line style="stroke:#181818;stroke-width:0.3;" x1="681.0196" x2="695.4196" y1="37.8" y2="37.8"/></g><g class="participant participant-tail" data-participant="UoW"><text fill="#000000" font-family="sans-serif" font-size="8.4" lengthAdjust="spacing" textLength="43.4027" x="664.7183" y="862.4215">UnitOfWork</text><ellipse cx="688.2196" cy="874.1297" fill="#E2E2F0" rx="7.2" ry="7.2" style="stroke:#181818;stroke-width:0.3;"/><line style="stroke:#181818;stroke-width:0.3;" x1="681.0196" x2="695.4196" y1="882.5297" y2="882.5297"/></g><g class="participant participant-head" data-participant="Factory"><text fill="#000000" font-family="sans-serif" font-size="8.4" lengthAdjust="spacing" textLength="47.1434" x="717.721" y="48.0645">DockFactory</text><ellipse cx="743.0927" cy="29.4" fill="#E2E2F0" rx="7.2" ry="7.2" style="stroke:#181818;stroke-width:0.3;"/><polygon fill="#181818" points="740.6927,22.2,744.2927,19.2,743.0927,22.2,744.2927,25.2,740.6927,22.2" style="stroke:#181818;stroke-width:0.6;"/></g><g class="participant participant-tail" data-participant="Factory"><text fill="#000000" font-family="sans-serif" font-size="8.4" lengthAdjust="spacing" textLength="47.1434" x="717.721" y="862.4215">DockFactory</text><ellipse cx="743.0927" cy="874.1297" fill="#E2E2F0" rx="7.2" ry="7.2" style="stroke:#181818;stroke-width:0.3;"/><polygon fill="#181818" points="740.6927,866.9297,744.2927,863.9297,743.0927,866.9297,744.2927,869.9297,740.6927,866.9297" style="stroke:#181818;stroke-width:0.6;"/></g><g class="participant participant-head" data-participant="Log"><rect fill="#E2E2F0" height="19.5727" style="stroke:#181818;stroke-width:0.3;" width="112.9939" x="776.8644" y="27.6"/><rect fill="#E2E2F0" height="19.5727" style="stroke:#181818;stroke-width:0.3;" width="112.9939" x="774.4644" y="30"/><text fill="#000000" font-family="sans-serif" font-size="8.4" lengthAdjust="spacing" textLength="104.5939" x="778.6644" y="43.2645">Audit/Logs (ILogger/Serilog)</text></g><g class="participant participant-tail" data-participant="Log"><rect fill="#E2E2F0" height="19.5727" style="stroke:#181818;stroke-width:0.3;" width="112.9939" x="776.8644" y="853.357"/><rect fill="#E2E2F0" height="19.5727" style="stroke:#181818;stroke-width:0.3;" width="112.9939" x="774.4644" y="855.757"/><text fill="#000000" font-family="sans-serif" font-size="8.4" lengthAdjust="spacing" textLength="104.5939" x="778.6644" y="869.0215">Audit/Logs (ILogger/Serilog)</text></g><g><title>API .DockController.</title><rect fill="#FFFFFF" height="251.8699" style="stroke:#181818;stroke-width:0.6;" width="6" x="258.2915" y="97.3219"/></g><g><title>API .DockController.</title><rect fill="#FFFFFF" height="251.8699" style="stroke:#181818;stroke-width:0.6;" width="6" x="258.2915" y="395.141"/></g><g><title>API .DockController.</title><rect fill="#FFFFFF" height="150.1969" style="stroke:#181818;stroke-width:0.6;" width="6" x="258.2915" y="692.9602"/></g><g><title>DockService</title><rect fill="#FFFFFF" height="214.3207" style="stroke:#181818;stroke-width:0.6;" width="6" x="415.7106" y="116.0965"/></g><g><title>DockService</title><rect fill="#FFFFFF" height="214.3207" style="stroke:#181818;stroke-width:0.6;" width="6" x="415.7106" y="413.9156"/></g><g><title>DockService</title><rect fill="#FFFFFF" height="112.6477" style="stroke:#181818;stroke-width:0.6;" width="6" x="415.7106" y="711.7348"/></g><g><title>DockRepository</title><rect fill="#FFFFFF" height="18.7746" style="stroke:#181818;stroke-width:0.6;" width="6" x="624.2742" y="198.9949"/></g><g><title>DockRepository</title><rect fill="#FFFFFF" height="18.7746" style="stroke:#181818;stroke-width:0.6;" width="6" x="624.2742" y="432.6902"/></g><g><title>DockRepository</title><rect fill="#FFFFFF" height="18.7746" style="stroke:#181818;stroke-width:0.6;" width="6" x="624.2742" y="496.8141"/></g><g><title>DockRepository</title><rect fill="#FFFFFF" height="18.7746" style="stroke:#181818;stroke-width:0.6;" width="6" x="624.2742" y="730.5094"/></g><g><title>UnitOfWork</title><rect fill="#FFFFFF" height="18.7746" style="stroke:#181818;stroke-width:0.6;" width="6" x="685.2196" y="236.5441"/></g><g><title>UnitOfWork</title><rect fill="#FFFFFF" height="18.7746" style="stroke:#181818;stroke-width:0.6;" width="6" x="685.2196" y="534.3633"/></g><g><title>DockFactory</title><rect fill="#FFFFFF" height="18.7746" style="stroke:#181818;stroke-width:0.6;" width="6" x="740.0927" y="161.4457"/></g><g><title>DockFactory</title><rect fill="#FFFFFF" height="18.7746" style="stroke:#181818;stroke-width:0.6;" width="6" x="740.0927" y="274.0934"/></g><g><title>DockFactory</title><rect fill="#FFFFFF" height="18.7746" style="stroke:#181818;stroke-width:0.6;" width="6" x="740.0927" y="571.9125"/></g><g><title>DockFactory</title><rect fill="#FFFFFF" height="18.7746" style="stroke:#181818;stroke-width:0.6;" width="6" x="740.0927" y="768.0586"/></g><rect fill="#EEEEEE" height="1.8" style="stroke:#EEEEEE;stroke-width:0.6;" width="892.8583" x="0" y="69.16"/><line style="stroke:#000000;stroke-width:0.6;" x1="0" x2="892.8583" y1="69.16" y2="69.16"/><line style="stroke:#000000;stroke-width:0.6;" x1="0" x2="892.8583" y1="70.96" y2="70.96"/><rect fill="#EEEEEE" height="15.1746" style="stroke:#000000;stroke-width:1.2;" width="41.7785" x="425.5399" y="62.1727"/><text fill="#000000" font-family="sans-serif" font-size="7.8" font-weight="bold" lengthAdjust="spacing" textLength="31.2114" x="429.1399" y="72.9896">Register</text><g class="message" data-participant-1="Officer" data-participant-2="Controller"><polygon fill="#181818" points="251.0915,94.9219,257.0915,97.3219,251.0915,99.7219,253.4915,97.3219" style="stroke:#181818;stroke-width:0.6;"/><line style="stroke:#181818;stroke-width:0.6;" x1="43.7792" x2="254.6915" y1="97.3219" y2="97.3219"/><text fill="#000000" font-family="sans-serif" font-size="7.8" lengthAdjust="spacing" textLength="122.233" x="47.9792" y="94.1643">POST /api/Dock (RegisterDockDto)</text></g><g class="message" data-participant-1="Controller" data-participant-2="Service"><polygon fill="#181818" points="408.5106,113.6965,414.5106,116.0965,408.5106,118.4965,410.9106,116.0965" style="stroke:#181818;stroke-width:0.6;"/><line style="stroke:#181818;stroke-width:0.6;" x1="264.2915" x2="412.1106" y1="116.0965" y2="116.0965"/><text fill="#000000" font-family="sans-serif" font-size="7.8" lengthAdjust="spacing" textLength="51.157" x="268.4915" y="112.9389">AddAsync(dto)</text></g><g class="message" data-participant-1="Service" data-participant-2="Service"><line style="stroke:#181818;stroke-width:0.6;" x1="421.7106" x2="446.9106" y1="134.8711" y2="134.8711"/><line style="stroke:#181818;stroke-width:0.6;" x1="446.9106" x2="446.9106" y1="134.8711" y2="142.6711"/><line style="stroke:#181818;stroke-width:0.6;" x1="422.3106" x2="446.9106" y1="142.6711" y2="142.6711"/><polygon fill="#181818" points="428.3106,140.2711,422.3106,142.6711,428.3106,145.0711,425.9106,142.6711" style="stroke:#181818;stroke-width:0.6;"/><text fill="#000000" font-family="sans-serif" font-size="7.8" lengthAdjust="spacing" textLength="188.1636" x="425.9106" y="131.7135">validate constraints (location/type/capacity/occupancy)</text></g><g class="message" data-participant-1="Service" data-participant-2="Factory"><polygon fill="#181818" points="732.8927,159.0457,738.8927,161.4457,732.8927,163.8457,735.2927,161.4457" style="stroke:#181818;stroke-width:0.6;"/><line style="stroke:#181818;stroke-width:0.6;" x1="421.7106" x2="736.4927" y1="161.4457" y2="161.4457"/><text fill="#000000" font-family="sans-serif" font-size="7.8" lengthAdjust="spacing" textLength="76.2938" x="425.9106" y="158.2881">CreateBasicDock(dto)</text></g><g class="message" data-participant-1="Factory" data-participant-2="Service"><polygon fill="#181818" points="428.3106,177.8203,422.3106,180.2203,428.3106,182.6203,425.9106,180.2203" style="stroke:#181818;stroke-width:0.6;"/><line style="stroke:#181818;stroke-width:0.6;stroke-dasharray:1.2,1.2;" x1="424.7106" x2="742.4927" y1="180.2203" y2="180.2203"/><text fill="#000000" font-family="sans-serif" font-size="7.8" lengthAdjust="spacing" textLength="41.6089" x="431.9106" y="177.0627">Dock(entity)</text></g><g class="message" data-participant-1="Service" data-participant-2="Repo"><polygon fill="#181818" points="617.0742,196.5949,623.0742,198.9949,617.0742,201.3949,619.4742,198.9949" style="stroke:#181818;stroke-width:0.6;"/><line style="stroke:#181818;stroke-width:0.6;" x1="421.7106" x2="620.6742" y1="198.9949" y2="198.9949"/><text fill="#000000" font-family="sans-serif" font-size="7.8" lengthAdjust="spacing" textLength="58.957" x="425.9106" y="195.8373">AddAsync(entity)</text></g><g class="message" data-participant-1="Repo" data-participant-2="Service"><polygon fill="#181818" points="428.3106,215.3695,422.3106,217.7695,428.3106,220.1695,425.9106,217.7695" style="stroke:#181818;stroke-width:0.6;"/><line style="stroke:#181818;stroke-width:0.6;stroke-dasharray:1.2,1.2;" x1="424.7106" x2="626.6742" y1="217.7695" y2="217.7695"/><text fill="#000000" font-family="sans-serif" font-size="7.8" lengthAdjust="spacing" textLength="52.4596" x="431.9106" y="214.6119">entity persisted</text></g><g class="message" data-participant-1="Service" data-participant-2="UoW"><polygon fill="#181818" points="678.0196,234.1441,684.0196,236.5441,678.0196,238.9441,680.4196,236.5441" style="stroke:#181818;stroke-width:0.6;"/><line style="stroke:#181818;stroke-width:0.6;" x1="421.7106" x2="681.6196" y1="236.5441" y2="236.5441"/><text fill="#000000" font-family="sans-serif" font-size="7.8" lengthAdjust="spacing" textLength="53.3013" x="425.9106" y="233.3865">CommitAsync()</text></g><g class="message" data-participant-1="UoW" data-participant-2="Service"><polygon fill="#181818" points="428.3106,252.9188,422.3106,255.3188,428.3106,257.7188,425.9106,255.3188" style="stroke:#181818;stroke-width:0.6;"/><line style="stroke:#181818;stroke-width:0.6;stroke-dasharray:1.2,1.2;" x1="424.7106" x2="687.6196" y1="255.3188" y2="255.3188"/><text fill="#000000" font-family="sans-serif" font-size="7.8" lengthAdjust="spacing" textLength="76.2976" x="431.9106" y="252.1611">transaction committed</text></g><g class="message" data-participant-1="Service" data-participant-2="Factory"><polygon fill="#181818" points="732.8927,271.6934,738.8927,274.0934,732.8927,276.4934,735.2927,274.0934" style="stroke:#181818;stroke-width:0.6;"/><line style="stroke:#181818;stroke-width:0.6;" x1="421.7106" x2="736.4927" y1="274.0934" y2="274.0934"/><text fill="#000000" font-family="sans-serif" font-size="7.8" lengthAdjust="spacing" textLength="77.1583" x="425.9106" y="270.9357">CreateDtoDock(entity)</text></g><g class="message" data-participant-1="Factory" data-participant-2="Service"><polygon fill="#181818" points="428.3106,290.468,422.3106,292.868,428.3106,295.268,425.9106,292.868" style="stroke:#181818;stroke-width:0.6;"/><line style="stroke:#181818;stroke-width:0.6;stroke-dasharray:1.2,1.2;" x1="424.7106" x2="742.4927" y1="292.868" y2="292.868"/><text fill="#000000" font-family="sans-serif" font-size="7.8" lengthAdjust="spacing" textLength="29.9089" x="431.9106" y="289.7104">DockDto</text></g><g class="message" data-participant-1="Service" data-participant-2="Log"><polygon fill="#181818" points="824.9613,309.2426,830.9613,311.6426,824.9613,314.0426,827.3613,311.6426" style="stroke:#181818;stroke-width:0.6;"/><line style="stroke:#181818;stroke-width:0.6;" x1="421.7106" x2="828.5613" y1="311.6426" y2="311.6426"/><text fill="#000000" font-family="sans-serif" font-size="7.8" lengthAdjust="spacing" textLength="183.1515" x="425.9106" y="308.485">log(CREATE, officerId, dockId, outcome=SUCCESS)</text></g><g class="message" data-participant-1="Service" data-participant-2="Controller"><polygon fill="#181818" points="270.8915,328.0172,264.8915,330.4172,270.8915,332.8172,268.4915,330.4172" style="stroke:#181818;stroke-width:0.6;"/><line style="stroke:#181818;stroke-width:0.6;stroke-dasharray:1.2,1.2;" x1="267.2915" x2="418.1106" y1="330.4172" y2="330.4172"/><text fill="#000000" font-family="sans-serif" font-size="7.8" lengthAdjust="spacing" textLength="29.9089" x="274.4915" y="327.2596">DockDto</text></g><g class="message" data-participant-1="Controller" data-participant-2="Officer"><polygon fill="#181818" points="50.3792,346.7918,44.3792,349.1918,50.3792,351.5918,47.9792,349.1918" style="stroke:#181818;stroke-width:0.6;"/><line style="stroke:#181818;stroke-width:0.6;stroke-dasharray:1.2,1.2;" x1="46.7792" x2="260.6915" y1="349.1918" y2="349.1918"/><text fill="#000000" font-family="sans-serif" font-size="7.8" lengthAdjust="spacing" textLength="80.2014" x="53.9792" y="346.0342">201 Created (DockDto)</text></g><rect fill="#EEEEEE" height="1.8" style="stroke:#EEEEEE;stroke-width:0.6;" width="892.8583" x="0" y="366.9791"/><line style="stroke:#000000;stroke-width:0.6;" x1="0" x2="892.8583" y1="366.9791" y2="366.9791"/><line style="stroke:#000000;stroke-width:0.6;" x1="0" x2="892.8583" y1="368.7791" y2="368.7791"/><rect fill="#EEEEEE" height="15.1746" style="stroke:#000000;stroke-width:1.2;" width="37.0025" x="427.9279" y="359.9918"/><text fill="#000000" font-family="sans-serif" font-size="7.8" font-weight="bold" lengthAdjust="spacing" textLength="26.4354" x="431.5279" y="370.8088">Update</text><g class="message" data-participant-1="Officer" data-participant-2="Controller"><polygon fill="#181818" points="251.0915,392.741,257.0915,395.141,251.0915,397.541,253.4915,395.141" style="stroke:#181818;stroke-width:0.6;"/><line style="stroke:#181818;stroke-width:0.6;" x1="43.7792" x2="254.6915" y1="395.141" y2="395.141"/><text fill="#000000" font-family="sans-serif" font-size="7.8" lengthAdjust="spacing" textLength="95.0168" x="47.9792" y="391.9834">PUT /api/Dock/{id} (fields&#8230;)</text></g><g class="message" data-participant-1="Controller" data-participant-2="Service"><polygon fill="#181818" points="408.5106,411.5156,414.5106,413.9156,408.5106,416.3156,410.9106,413.9156" style="stroke:#181818;stroke-width:0.6;"/><line style="stroke:#181818;stroke-width:0.6;" x1="264.2915" x2="412.1106" y1="413.9156" y2="413.9156"/><text fill="#000000" font-family="sans-serif" font-size="7.8" lengthAdjust="spacing" textLength="72.8355" x="268.4915" y="410.758">UpdateAsync(id, dto)</text></g><g class="message" data-participant-1="Service" data-participant-2="Repo"><polygon fill="#181818" points="617.0742,430.2902,623.0742,432.6902,617.0742,435.0902,619.4742,432.6902" style="stroke:#181818;stroke-width:0.6;"/><line style="stroke:#181818;stroke-width:0.6;" x1="421.7106" x2="620.6742" y1="432.6902" y2="432.6902"/><text fill="#000000" font-family="sans-serif" font-size="7.8" lengthAdjust="spacing" textLength="60.6861" x="425.9106" y="429.5326">GetByIdAsync(id)</text></g><g class="message" data-participant-1="Repo" data-participant-2="Service"><polygon fill="#181818" points="428.3106,449.0648,422.3106,451.4648,428.3106,453.8648,425.9106,451.4648" style="stroke:#181818;stroke-width:0.6;"/><line style="stroke:#181818;stroke-width:0.6;stroke-dasharray:1.2,1.2;" x1="424.7106" x2="626.6742" y1="451.4648" y2="451.4648"/><text fill="#000000" font-family="sans-serif" font-size="7.8" lengthAdjust="spacing" textLength="17.7709" x="431.9106" y="448.3072">Dock</text></g><g class="message" data-participant-1="Service" data-participant-2="Service"><line style="stroke:#181818;stroke-width:0.6;" x1="421.7106" x2="446.9106" y1="470.2395" y2="470.2395"/><line style="stroke:#181818;stroke-width:0.6;" x1="446.9106" x2="446.9106" y1="470.2395" y2="478.0395"/><line style="stroke:#181818;stroke-width:0.6;" x1="422.3106" x2="446.9106" y1="478.0395" y2="478.0395"/><polygon fill="#181818" points="428.3106,475.6395,422.3106,478.0395,428.3106,480.4395,425.9106,478.0395" style="stroke:#181818;stroke-width:0.6;"/><text fill="#000000" font-family="sans-serif" font-size="7.8" lengthAdjust="spacing" textLength="179.937" x="425.9106" y="467.0818">validate changes (location/type/capacity/occupancy)</text></g><g class="message" data-participant-1="Service" data-participant-2="Repo"><polygon fill="#181818" points="617.0742,494.4141,623.0742,496.8141,617.0742,499.2141,619.4742,496.8141" style="stroke:#181818;stroke-width:0.6;"/><line style="stroke:#181818;stroke-width:0.6;" x1="421.7106" x2="620.6742" y1="496.8141" y2="496.8141"/><text fill="#000000" font-family="sans-serif" font-size="7.8" lengthAdjust="spacing" textLength="71.9786" x="425.9106" y="493.6564">Save(updated entity)</text></g><g class="message" data-participant-1="Repo" data-participant-2="Service"><polygon fill="#181818" points="428.3106,513.1887,422.3106,515.5887,428.3106,517.9887,425.9106,515.5887" style="stroke:#181818;stroke-width:0.6;"/><line style="stroke:#181818;stroke-width:0.6;stroke-dasharray:1.2,1.2;" x1="424.7106" x2="626.6742" y1="515.5887" y2="515.5887"/><text fill="#000000" font-family="sans-serif" font-size="7.8" lengthAdjust="spacing" textLength="49.0052" x="431.9106" y="512.4311">entity updated</text></g><g class="message" data-participant-1="Service" data-participant-2="UoW"><polygon fill="#181818" points="678.0196,531.9633,684.0196,534.3633,678.0196,536.7633,680.4196,534.3633" style="stroke:#181818;stroke-width:0.6;"/><line style="stroke:#181818;stroke-width:0.6;" x1="421.7106" x2="681.6196" y1="534.3633" y2="534.3633"/><text fill="#000000" font-family="sans-serif" font-size="7.8" lengthAdjust="spacing" textLength="53.3013" x="425.9106" y="531.2057">CommitAsync()</text></g><g class="message" data-participant-1="UoW" data-participant-2="Service"><polygon fill="#181818" points="428.3106,550.7379,422.3106,553.1379,428.3106,555.5379,425.9106,553.1379" style="stroke:#181818;stroke-width:0.6;"/><line style="stroke:#181818;stroke-width:0.6;stroke-dasharray:1.2,1.2;" x1="424.7106" x2="687.6196" y1="553.1379" y2="553.1379"/><text fill="#000000" font-family="sans-serif" font-size="7.8" lengthAdjust="spacing" textLength="76.2976" x="431.9106" y="549.9803">transaction committed</text></g><g class="message" data-participant-1="Service" data-participant-2="Factory"><polygon fill="#181818" points="732.8927,569.5125,738.8927,571.9125,732.8927,574.3125,735.2927,571.9125" style="stroke:#181818;stroke-width:0.6;"/><line style="stroke:#181818;stroke-width:0.6;" x1="421.7106" x2="736.4927" y1="571.9125" y2="571.9125"/><text fill="#000000" font-family="sans-serif" font-size="7.8" lengthAdjust="spacing" textLength="86.7103" x="425.9106" y="568.7549">CreateDtoDock(updated)</text></g><g class="message" data-participant-1="Factory" data-participant-2="Service"><polygon fill="#181818" points="428.3106,588.2871,422.3106,590.6871,428.3106,593.0871,425.9106,590.6871" style="stroke:#181818;stroke-width:0.6;"/><line style="stroke:#181818;stroke-width:0.6;stroke-dasharray:1.2,1.2;" x1="424.7106" x2="742.4927" y1="590.6871" y2="590.6871"/><text fill="#000000" font-family="sans-serif" font-size="7.8" lengthAdjust="spacing" textLength="29.9089" x="431.9106" y="587.5295">DockDto</text></g><g class="message" data-participant-1="Service" data-participant-2="Log"><polygon fill="#181818" points="824.9613,607.0617,830.9613,609.4617,824.9613,611.8617,827.3613,609.4617" style="stroke:#181818;stroke-width:0.6;"/><line style="stroke:#181818;stroke-width:0.6;" x1="421.7106" x2="828.5613" y1="609.4617" y2="609.4617"/><text fill="#000000" font-family="sans-serif" font-size="7.8" lengthAdjust="spacing" textLength="183.1515" x="425.9106" y="606.3041">log(UPDATE, officerId, dockId, outcome=SUCCESS)</text></g><g class="message" data-participant-1="Service" data-participant-2="Controller"><polygon fill="#181818" points="270.8915,625.8363,264.8915,628.2363,270.8915,630.6363,268.4915,628.2363" style="stroke:#181818;stroke-width:0.6;"/><line style="stroke:#181818;stroke-width:0.6;stroke-dasharray:1.2,1.2;" x1="267.2915" x2="418.1106" y1="628.2363" y2="628.2363"/><text fill="#000000" font-family="sans-serif" font-size="7.8" lengthAdjust="spacing" textLength="29.9089" x="274.4915" y="625.0787">DockDto</text></g><g class="message" data-participant-1="Controller" data-participant-2="Officer"><polygon fill="#181818" points="50.3792,644.6109,44.3792,647.0109,50.3792,649.4109,47.9792,647.0109" style="stroke:#181818;stroke-width:0.6;"/><line style="stroke:#181818;stroke-width:0.6;stroke-dasharray:1.2,1.2;" x1="46.7792" x2="260.6915" y1="647.0109" y2="647.0109"/><text fill="#000000" font-family="sans-serif" font-size="7.8" lengthAdjust="spacing" textLength="63.7216" x="53.9792" y="643.8533">200 OK (DockDto)</text></g><rect fill="#EEEEEE" height="1.8" style="stroke:#EEEEEE;stroke-width:0.6;" width="892.8583" x="0" y="664.7982"/><line style="stroke:#000000;stroke-width:0.6;" x1="0" x2="892.8583" y1="664.7982" y2="664.7982"/><line style="stroke:#000000;stroke-width:0.6;" x1="0" x2="892.8583" y1="666.5982" y2="666.5982"/><rect fill="#EEEEEE" height="15.1746" style="stroke:#000000;stroke-width:1.2;" width="57.8203" x="417.519" y="657.8109"/><text fill="#000000" font-family="sans-serif" font-size="7.8" font-weight="bold" lengthAdjust="spacing" textLength="47.2532" x="421.119" y="668.6279">Filter/Search</text><g class="message" data-participant-1="Officer" data-participant-2="Controller"><polygon fill="#181818" points="251.0915,690.5602,257.0915,692.9602,251.0915,695.3602,253.4915,692.9602" style="stroke:#181818;stroke-width:0.6;"/><line style="stroke:#181818;stroke-width:0.6;" x1="43.7792" x2="254.6915" y1="692.9602" y2="692.9602"/><text fill="#000000" font-family="sans-serif" font-size="7.8" lengthAdjust="spacing" textLength="203.1123" x="47.9792" y="689.8025">GET /api/Dock/filter?location=...&amp;vesselTypeId=...&amp;type=...</text></g><g class="message" data-participant-1="Controller" data-participant-2="Service"><polygon fill="#181818" points="408.5106,709.3348,414.5106,711.7348,408.5106,714.1348,410.9106,711.7348" style="stroke:#181818;stroke-width:0.6;"/><line style="stroke:#181818;stroke-width:0.6;" x1="264.2915" x2="412.1106" y1="711.7348" y2="711.7348"/><text fill="#000000" font-family="sans-serif" font-size="7.8" lengthAdjust="spacing" textLength="140.0191" x="268.4915" y="708.5771">FilterAsync(location, vesselTypeId, type)</text></g><g class="message" data-participant-1="Service" data-participant-2="Repo"><polygon fill="#181818" points="617.0742,728.1094,623.0742,730.5094,617.0742,732.9094,619.4742,730.5094" style="stroke:#181818;stroke-width:0.6;"/><line style="stroke:#181818;stroke-width:0.6;" x1="421.7106" x2="620.6742" y1="730.5094" y2="730.5094"/><text fill="#000000" font-family="sans-serif" font-size="7.8" lengthAdjust="spacing" textLength="140.0191" x="425.9106" y="727.3518">FilterAsync(location, vesselTypeId, type)</text></g><g class="message" data-participant-1="Repo" data-participant-2="Service"><polygon fill="#181818" points="428.3106,746.884,422.3106,749.284,428.3106,751.684,425.9106,749.284" style="stroke:#181818;stroke-width:0.6;"/><line style="stroke:#181818;stroke-width:0.6;stroke-dasharray:1.2,1.2;" x1="424.7106" x2="626.6742" y1="749.284" y2="749.284"/><text fill="#000000" font-family="sans-serif" font-size="7.8" lengthAdjust="spacing" textLength="39.019" x="431.9106" y="746.1264">List&lt;Dock&gt;</text></g><g class="message" data-participant-1="Service" data-participant-2="Factory"><polygon fill="#181818" points="732.8927,765.6586,738.8927,768.0586,732.8927,770.4586,735.2927,768.0586" style="stroke:#181818;stroke-width:0.6;"/><line style="stroke:#181818;stroke-width:0.6;" x1="421.7106" x2="736.4927" y1="768.0586" y2="768.0586"/><text fill="#000000" font-family="sans-serif" font-size="7.8" lengthAdjust="spacing" textLength="68.0481" x="425.9106" y="764.901">CreateDtoDock(list)</text></g><g class="message" data-participant-1="Factory" data-participant-2="Service"><polygon fill="#181818" points="428.3106,784.4332,422.3106,786.8332,428.3106,789.2332,425.9106,786.8332" style="stroke:#181818;stroke-width:0.6;"/><line style="stroke:#181818;stroke-width:0.6;stroke-dasharray:1.2,1.2;" x1="424.7106" x2="742.4927" y1="786.8332" y2="786.8332"/><text fill="#000000" font-family="sans-serif" font-size="7.8" lengthAdjust="spacing" textLength="51.157" x="431.9106" y="783.6756">List&lt;DockDto&gt;</text></g><g class="message" data-participant-1="Service" data-participant-2="Log"><polygon fill="#181818" points="824.9613,803.2078,830.9613,805.6078,824.9613,808.0078,827.3613,805.6078" style="stroke:#181818;stroke-width:0.6;"/><line style="stroke:#181818;stroke-width:0.6;" x1="421.7106" x2="828.5613" y1="805.6078" y2="805.6078"/><text fill="#000000" font-family="sans-serif" font-size="7.8" lengthAdjust="spacing" textLength="184.4426" x="425.9106" y="802.4502">log(SEARCH, officerId, criteria, outcome=SUCCESS)</text></g><g class="message" data-participant-1="Service" data-participant-2="Controller"><polygon fill="#181818" points="270.8915,821.9824,264.8915,824.3824,270.8915,826.7824,268.4915,824.3824" style="stroke:#181818;stroke-width:0.6;"/><line style="stroke:#181818;stroke-width:0.6;stroke-dasharray:1.2,1.2;" x1="267.2915" x2="418.1106" y1="824.3824" y2="824.3824"/><text fill="#000000" font-family="sans-serif" font-size="7.8" lengthAdjust="spacing" textLength="51.157" x="274.4915" y="821.2248">List&lt;DockDto&gt;</text></g><g class="message" data-participant-1="Controller" data-participant-2="Officer"><polygon fill="#181818" points="50.3792,840.757,44.3792,843.157,50.3792,845.557,47.9792,843.157" style="stroke:#181818;stroke-width:0.6;"/><line style="stroke:#181818;stroke-width:0.6;stroke-dasharray:1.2,1.2;" x1="46.7792" x2="260.6915" y1="843.157" y2="843.157"/><text fill="#000000" font-family="sans-serif" font-size="7.8" lengthAdjust="spacing" textLength="43.3456" x="53.9792" y="839.9994">200 OK (list)</text></g><!--SRC=[pLRHRjem57tFLrWyJ46YfDjZjJ3HG3kqIY12r6VFDc0rZIFRGOgcIVkQVTY-PDTEmfmEQ39fsfvmo3tdtdjyJWicMaWqM0cfqRJGUo6vBj5ok-M4oG72gZbxdqMHKInBD9Yk5iYV2V8KYKnBaQPC3ctfhsUFL4SqC7KnamVWi3NrsMEPDfti-pNBXU8mI6bBpEFnVP9nlTm-2lbatoNYiSrzXyaHM9-X06OWcejCmRG5vJfu43k5_0Lyx9WCO0YUYbqrDNpdUM48RNTSQIPH67hrqkXguYo5Rj1g6MzGW7CUcDx8Rp3cQQR5q8C9-05hvchXC01VBG2GJIcTgZ8ZFcqX6uMQmXRcW5DEJHM8eBJ4FDEmLoe8Dki6kinPG72E2OWN24AA76Ua7BfajKf05aa6LBTOSM8MU357esPJVzKQn0AgInfwbFs6SXgQ-tJNRL17ZBrmMzNkKNiWPr8PbQdRnsAS9c0Civ5uVkQwQkCqCAun1Mrwa2zJsFe4v3J05pqCx89mSE4j5Nee1z1NH0DNGYsOr8_My-bcFaAYykI2ZX052lCf2Ws3ip1EecWUnyurlpJkYQQDprnx0gon_WrwT_sstfHMURSETnWSZvi09RbrvgNu94vwWY-SVaN-bhEKgX_VllSBJzMikcbk97ajGxKBxvc-BHUq0NPmePdralDEXNEFinth6ynwmXWVc5_OzIZgcvKQzvycfPxkhqKbMSt-LLIkqV9JfvJSyLJRVq5OalsbiDpFtR1iBUn3OwXmF1w_EJ2bMBe1Qose_SAup1nw9QaQg792Gpz2BlS86U9EyVe3idEEVe2_-U_DxfDBRZvdjHJGdNrsR0NeIMUtnVFfElhOSXk1dq_msmBtyTlPvfrTL-rwqd8_0G00]--></g></svg>