<svg xmlns="http://www.w3.org/2000/svg" xmlns:xlink="http://www.w3.org/1999/xlink" contentStyleType="text/css" data-diagram-type="SEQUENCE" height="1864px" preserveAspectRatio="none" style="width:790px;height:1864px;background:#FFFFFF;" version="1.1" viewBox="0 0 790 1864" width="790px" zoomAndPan="magnify"><defs/><g><g><title>Shipping Agent Representative</title><rect fill="#000000" fill-opacity="0.00000" height="1702.4961" width="8" x="108.125" y="81.4883"/><line style="stroke:#181818;stroke-width:0.5;stroke-dasharray:5,5;" x1="112" x2="112" y1="81.4883" y2="1783.9844"/></g><g><title>Port Authority Officer</title><rect fill="#000000" fill-opacity="0.00000" height="1702.4961" width="8" x="300.8887" y="81.4883"/><line style="stroke:#181818;stroke-width:0.5;stroke-dasharray:5,5;" x1="304.25" x2="304.25" y1="81.4883" y2="1783.9844"/></g><g><title>Vessel Visit Notification Management API</title><rect fill="#000000" fill-opacity="0.00000" height="1702.4961" width="8" x="632.623" y="81.4883"/><line style="stroke:#181818;stroke-width:0.5;stroke-dasharray:5,5;" x1="636.4878" x2="636.4878" y1="81.4883" y2="1783.9844"/></g><g class="participant participant-head" data-participant="Agent"><text fill="#000000" font-family="sans-serif" font-size="14" lengthAdjust="spacing" textLength="208.25" x="5" y="78.5352">Shipping Agent Representative</text><ellipse cx="112.125" cy="13.5" fill="#E2E2F0" rx="8" ry="8" style="stroke:#181818;stroke-width:0.5;"/><path d="M112.125,21.5 L112.125,48.5 M99.125,29.5 L125.125,29.5 M112.125,48.5 L99.125,63.5 M112.125,48.5 L125.125,63.5" fill="none" style="stroke:#181818;stroke-width:0.5;"/></g><g class="participant participant-tail" data-participant="Agent"><text fill="#000000" font-family="sans-serif" font-size="14" lengthAdjust="spacing" textLength="208.25" x="5" y="1796.5195">Shipping Agent Representative</text><ellipse cx="112.125" cy="1807.9727" fill="#E2E2F0" rx="8" ry="8" style="stroke:#181818;stroke-width:0.5;"/><path d="M112.125,1815.9727 L112.125,1842.9727 M99.125,1823.9727 L125.125,1823.9727 M112.125,1842.9727 L99.125,1857.9727 M112.125,1842.9727 L125.125,1857.9727" fill="none" style="stroke:#181818;stroke-width:0.5;"/></g><g class="participant participant-head" data-participant="Officer"><text fill="#000000" font-family="sans-serif" font-size="14" lengthAdjust="spacing" textLength="145.2773" x="229.25" y="78.5352">Port Authority Officer</text><ellipse cx="304.8887" cy="13.5" fill="#E2E2F0" rx="8" ry="8" style="stroke:#181818;stroke-width:0.5;"/><path d="M304.8887,21.5 L304.8887,48.5 M291.8887,29.5 L317.8887,29.5 M304.8887,48.5 L291.8887,63.5 M304.8887,48.5 L317.8887,63.5" fill="none" style="stroke:#181818;stroke-width:0.5;"/></g><g class="participant participant-tail" data-participant="Officer"><text fill="#000000" font-family="sans-serif" font-size="14" lengthAdjust="spacing" textLength="145.2773" x="229.25" y="1796.5195">Port Authority Officer</text><ellipse cx="304.8887" cy="1807.9727" fill="#E2E2F0" rx="8" ry="8" style="stroke:#181818;stroke-width:0.5;"/><path d="M304.8887,1815.9727 L304.8887,1842.9727 M291.8887,1823.9727 L317.8887,1823.9727 M304.8887,1842.9727 L291.8887,1857.9727 M304.8887,1842.9727 L317.8887,1857.9727" fill="none" style="stroke:#181818;stroke-width:0.5;"/></g><g class="participant participant-head" data-participant="System"><text fill="#000000" font-family="sans-serif" font-size="14" lengthAdjust="spacing" textLength="278.2705" x="494.4878" y="78.5352">Vessel Visit Notification Management API</text><path d="M616.123,37 L616.123,61 M616.123,49 L633.123,49" fill="none" style="stroke:#181818;stroke-width:0.5;"/><ellipse cx="645.123" cy="49" fill="#E2E2F0" rx="12" ry="12" style="stroke:#181818;stroke-width:0.5;"/></g><g class="participant participant-tail" data-participant="System"><text fill="#000000" font-family="sans-serif" font-size="14" lengthAdjust="spacing" textLength="278.2705" x="494.4878" y="1796.5195">Vessel Visit Notification Management API</text><path d="M616.123,1803.4727 L616.123,1827.4727 M616.123,1815.4727 L633.123,1815.4727" fill="none" style="stroke:#181818;stroke-width:0.5;"/><ellipse cx="645.123" cy="1815.4727" fill="#E2E2F0" rx="12" ry="12" style="stroke:#181818;stroke-width:0.5;"/></g><rect fill="#EEEEEE" height="3" style="stroke:#EEEEEE;stroke-width:1;" width="783.7583" x="0" y="112.1436"/><line style="stroke:#000000;stroke-width:1;" x1="0" x2="783.7583" y1="112.1436" y2="112.1436"/><line style="stroke:#000000;stroke-width:1;" x1="0" x2="783.7583" y1="115.1436" y2="115.1436"/><rect fill="#EEEEEE" height="23.3105" style="stroke:#000000;stroke-width:2;" width="238.3833" x="272.6875" y="101.4883"/><text fill="#000000" font-family="sans-serif" font-size="13" font-weight="bold" lengthAdjust="spacing" textLength="220.0986" x="278.6875" y="118.0566">Register Vessel Visit Notification</text><g class="message" data-participant-1="Agent" data-participant-2="System"><polygon fill="#181818" points="624.623,198.041,634.623,202.041,624.623,206.041,628.623,202.041" style="stroke:#181818;stroke-width:1;"/><line style="stroke:#181818;stroke-width:1;" x1="112.125" x2="630.623" y1="202.041" y2="202.041"/><text fill="#000000" font-family="sans-serif" font-size="13" lengthAdjust="spacing" textLength="211.6816" x="119.125" y="151.3672">POST /api/vesselvisitnotifications</text><text fill="#000000" font-family="sans-serif" font-size="13" lengthAdjust="spacing" textLength="138.0742" x="119.125" y="166.6777">Body: CreatingVvnDto</text><text fill="#000000" font-family="sans-serif" font-size="13" lengthAdjust="spacing" textLength="264.145" x="119.125" y="181.9883">(vesselImo, eta, etd, volume, documents?,</text><text fill="#000000" font-family="sans-serif" font-size="13" lengthAdjust="spacing" textLength="466.6226" x="119.125" y="197.2988">crewManifest?, loadingCargoManifest?, unloadingCargoManifest?, docks[])</text></g><g class="message" data-participant-1="System" data-participant-2="Agent"><polygon fill="#181818" points="123.125,257.9727,113.125,261.9727,123.125,265.9727,119.125,261.9727" style="stroke:#181818;stroke-width:1;"/><line style="stroke:#181818;stroke-width:1;stroke-dasharray:2,2;" x1="117.125" x2="635.623" y1="261.9727" y2="261.9727"/><text fill="#000000" font-family="sans-serif" font-size="13" lengthAdjust="spacing" textLength="77.7969" x="129.125" y="226.6094">201 Created</text><text fill="#000000" font-family="sans-serif" font-size="13" lengthAdjust="spacing" textLength="202.0078" x="129.125" y="241.9199">Body: VesselVisitNotificationDto</text><text fill="#000000" font-family="sans-serif" font-size="13" lengthAdjust="spacing" textLength="380.1294" x="129.125" y="257.2305">(id, code, vesselImo, eta, etd, volume, status = "InProgress")</text></g><rect fill="#EEEEEE" height="3" style="stroke:#EEEEEE;stroke-width:1;" width="783.7583" x="0" y="290.6279"/><line style="stroke:#000000;stroke-width:1;" x1="0" x2="783.7583" y1="290.6279" y2="290.6279"/><line style="stroke:#000000;stroke-width:1;" x1="0" x2="783.7583" y1="293.6279" y2="293.6279"/><rect fill="#EEEEEE" height="23.3105" style="stroke:#000000;stroke-width:2;" width="305.0718" x="239.3433" y="279.9727"/><text fill="#000000" font-family="sans-serif" font-size="13" font-weight="bold" lengthAdjust="spacing" textLength="286.7871" x="245.3433" y="296.541">Update VVN (while In Progress or Pending)</text><g class="message" data-participant-1="Agent" data-participant-2="System"><polygon fill="#181818" points="624.623,361.2148,634.623,365.2148,624.623,369.2148,628.623,365.2148" style="stroke:#181818;stroke-width:1;"/><line style="stroke:#181818;stroke-width:1;" x1="112.125" x2="630.623" y1="365.2148" y2="365.2148"/><text fill="#000000" font-family="sans-serif" font-size="13" lengthAdjust="spacing" textLength="230.8008" x="119.125" y="329.8516">PUT /api/vesselvisitnotifications/{id}</text><text fill="#000000" font-family="sans-serif" font-size="13" lengthAdjust="spacing" textLength="129.2002" x="119.125" y="345.1621">Body: UpdateVvnDto</text><text fill="#000000" font-family="sans-serif" font-size="13" lengthAdjust="spacing" textLength="336.1465" x="119.125" y="360.4727">(eta?, etd?, volume?, manifests?, docks?, documents?)</text></g><g class="message" data-participant-1="System" data-participant-2="Agent"><polygon fill="#181818" points="123.125,421.1465,113.125,425.1465,123.125,429.1465,119.125,425.1465" style="stroke:#181818;stroke-width:1;"/><line style="stroke:#181818;stroke-width:1;stroke-dasharray:2,2;" x1="117.125" x2="635.623" y1="425.1465" y2="425.1465"/><text fill="#000000" font-family="sans-serif" font-size="13" lengthAdjust="spacing" textLength="47.3599" x="129.125" y="389.7832">200 OK</text><text fill="#000000" font-family="sans-serif" font-size="13" lengthAdjust="spacing" textLength="220.2954" x="129.125" y="405.0938">Updated VesselVisitNotificationDto</text><text fill="#000000" font-family="sans-serif" font-size="13" lengthAdjust="spacing" textLength="117.0444" x="129.125" y="420.4043">OR 404 Not Found</text></g><rect fill="#EEEEEE" height="3" style="stroke:#EEEEEE;stroke-width:1;" width="783.7583" x="0" y="453.8018"/><line style="stroke:#000000;stroke-width:1;" x1="0" x2="783.7583" y1="453.8018" y2="453.8018"/><line style="stroke:#000000;stroke-width:1;" x1="0" x2="783.7583" y1="456.8018" y2="456.8018"/><rect fill="#EEEEEE" height="23.3105" style="stroke:#000000;stroke-width:2;" width="229.5283" x="277.115" y="443.1465"/><text fill="#000000" font-family="sans-serif" font-size="13" font-weight="bold" lengthAdjust="spacing" textLength="211.2437" x="283.115" y="459.7148">Submit Vessel Visit Notification</text><g class="message" data-participant-1="Agent" data-participant-2="System"><polygon fill="#181818" points="624.623,493.7676,634.623,497.7676,624.623,501.7676,628.623,497.7676" style="stroke:#181818;stroke-width:1;"/><line style="stroke:#181818;stroke-width:1;" x1="112.125" x2="630.623" y1="497.7676" y2="497.7676"/><text fill="#000000" font-family="sans-serif" font-size="13" lengthAdjust="spacing" textLength="299.7617" x="119.125" y="493.0254">PATCH /api/vesselvisitnotifications/{id}/submit</text></g><g class="message" data-participant-1="System" data-participant-2="Agent"><polygon fill="#181818" points="123.125,553.6992,113.125,557.6992,123.125,561.6992,119.125,557.6992" style="stroke:#181818;stroke-width:1;"/><line style="stroke:#181818;stroke-width:1;stroke-dasharray:2,2;" x1="117.125" x2="635.623" y1="557.6992" y2="557.6992"/><text fill="#000000" font-family="sans-serif" font-size="13" lengthAdjust="spacing" textLength="47.3599" x="129.125" y="522.3359">200 OK</text><text fill="#000000" font-family="sans-serif" font-size="13" lengthAdjust="spacing" textLength="191.2993" x="129.125" y="537.6465">Status changed to "Submitted"</text><text fill="#000000" font-family="sans-serif" font-size="13" lengthAdjust="spacing" textLength="152.9531" x="129.125" y="552.957">VVN becomes read-only</text></g><rect fill="#EEEEEE" height="3" style="stroke:#EEEEEE;stroke-width:1;" width="783.7583" x="0" y="586.3545"/><line style="stroke:#000000;stroke-width:1;" x1="0" x2="783.7583" y1="586.3545" y2="586.3545"/><line style="stroke:#000000;stroke-width:1;" x1="0" x2="783.7583" y1="589.3545" y2="589.3545"/><rect fill="#EEEEEE" height="23.3105" style="stroke:#000000;stroke-width:2;" width="394.3198" x="194.7192" y="575.6992"/><text fill="#000000" font-family="sans-serif" font-size="13" font-weight="bold" lengthAdjust="spacing" textLength="376.0352" x="200.7192" y="592.2676">Mark Pending Information (requested by Port Authority)</text><g class="message" data-participant-1="Officer" data-participant-2="System"><polygon fill="#181818" points="624.623,626.3203,634.623,630.3203,624.623,634.3203,628.623,630.3203" style="stroke:#181818;stroke-width:1;"/><line style="stroke:#181818;stroke-width:1;" x1="304.8887" x2="630.623" y1="630.3203" y2="630.3203"/><text fill="#000000" font-family="sans-serif" font-size="13" lengthAdjust="spacing" textLength="307.7344" x="311.8887" y="625.5781">PATCH /api/vesselvisitnotifications/{id}/pending</text></g><g class="message" data-participant-1="System" data-participant-2="Officer"><polygon fill="#181818" points="315.8887,686.252,305.8887,690.252,315.8887,694.252,311.8887,690.252" style="stroke:#181818;stroke-width:1;"/><line style="stroke:#181818;stroke-width:1;stroke-dasharray:2,2;" x1="309.8887" x2="635.623" y1="690.252" y2="690.252"/><text fill="#000000" font-family="sans-serif" font-size="13" lengthAdjust="spacing" textLength="47.3599" x="321.8887" y="654.8887">200 OK</text><text fill="#000000" font-family="sans-serif" font-size="13" lengthAdjust="spacing" textLength="251.5005" x="321.8887" y="670.1992">Status changed to "PendingInformation"</text><text fill="#000000" font-family="sans-serif" font-size="13" lengthAdjust="spacing" textLength="119.5264" x="321.8887" y="685.5098">VVN editable again</text></g><rect fill="#EEEEEE" height="3" style="stroke:#EEEEEE;stroke-width:1;" width="783.7583" x="0" y="718.9072"/><line style="stroke:#000000;stroke-width:1;" x1="0" x2="783.7583" y1="718.9072" y2="718.9072"/><line style="stroke:#000000;stroke-width:1;" x1="0" x2="783.7583" y1="721.9072" y2="721.9072"/><rect fill="#EEEEEE" height="23.3105" style="stroke:#000000;stroke-width:2;" width="113.8931" x="334.9326" y="708.252"/><text fill="#000000" font-family="sans-serif" font-size="13" font-weight="bold" lengthAdjust="spacing" textLength="95.6084" x="340.9326" y="724.8203">Withdraw VVN</text><g class="message" data-participant-1="Agent" data-participant-2="System"><polygon fill="#181818" points="624.623,758.873,634.623,762.873,624.623,766.873,628.623,762.873" style="stroke:#181818;stroke-width:1;"/><line style="stroke:#181818;stroke-width:1;" x1="112.125" x2="630.623" y1="762.873" y2="762.873"/><text fill="#000000" font-family="sans-serif" font-size="13" lengthAdjust="spacing" textLength="313.5298" x="119.125" y="758.1309">PATCH /api/vesselvisitnotifications/{id}/withdraw</text></g><g class="message" data-participant-1="System" data-participant-2="Agent"><polygon fill="#181818" points="123.125,803.4941,113.125,807.4941,123.125,811.4941,119.125,807.4941" style="stroke:#181818;stroke-width:1;"/><line style="stroke:#181818;stroke-width:1;stroke-dasharray:2,2;" x1="117.125" x2="635.623" y1="807.4941" y2="807.4941"/><text fill="#000000" font-family="sans-serif" font-size="13" lengthAdjust="spacing" textLength="47.3599" x="129.125" y="787.4414">200 OK</text><text fill="#000000" font-family="sans-serif" font-size="13" lengthAdjust="spacing" textLength="193.5781" x="129.125" y="802.752">Status changed to "Withdrawn"</text></g><rect fill="#EEEEEE" height="3" style="stroke:#EEEEEE;stroke-width:1;" width="783.7583" x="0" y="836.1494"/><line style="stroke:#000000;stroke-width:1;" x1="0" x2="783.7583" y1="836.1494" y2="836.1494"/><line style="stroke:#000000;stroke-width:1;" x1="0" x2="783.7583" y1="839.1494" y2="839.1494"/><rect fill="#EEEEEE" height="23.3105" style="stroke:#000000;stroke-width:2;" width="179.4136" x="302.1724" y="825.4941"/><text fill="#000000" font-family="sans-serif" font-size="13" font-weight="bold" lengthAdjust="spacing" textLength="161.1289" x="308.1724" y="842.0625">Resume Withdrawn VVN</text><g class="message" data-participant-1="Agent" data-participant-2="System"><polygon fill="#181818" points="624.623,876.1152,634.623,880.1152,624.623,884.1152,628.623,880.1152" style="stroke:#181818;stroke-width:1;"/><line style="stroke:#181818;stroke-width:1;" x1="112.125" x2="630.623" y1="880.1152" y2="880.1152"/><text fill="#000000" font-family="sans-serif" font-size="13" lengthAdjust="spacing" textLength="302.7642" x="119.125" y="875.373">PATCH /api/vesselvisitnotifications/{id}/resume</text></g><g class="message" data-participant-1="System" data-participant-2="Agent"><polygon fill="#181818" points="123.125,920.7363,113.125,924.7363,123.125,928.7363,119.125,924.7363" style="stroke:#181818;stroke-width:1;"/><line style="stroke:#181818;stroke-width:1;stroke-dasharray:2,2;" x1="117.125" x2="635.623" y1="924.7363" y2="924.7363"/><text fill="#000000" font-family="sans-serif" font-size="13" lengthAdjust="spacing" textLength="47.3599" x="129.125" y="904.6836">200 OK</text><text fill="#000000" font-family="sans-serif" font-size="13" lengthAdjust="spacing" textLength="193.229" x="129.125" y="919.9941">Status changed to "InProgress"</text></g><rect fill="#EEEEEE" height="3" style="stroke:#EEEEEE;stroke-width:1;" width="783.7583" x="0" y="953.3916"/><line style="stroke:#000000;stroke-width:1;" x1="0" x2="783.7583" y1="953.3916" y2="953.3916"/><line style="stroke:#000000;stroke-width:1;" x1="0" x2="783.7583" y1="956.3916" y2="956.3916"/><rect fill="#EEEEEE" height="23.3105" style="stroke:#000000;stroke-width:2;" width="168.1021" x="307.8281" y="942.7363"/><text fill="#000000" font-family="sans-serif" font-size="13" font-weight="bold" lengthAdjust="spacing" textLength="149.8174" x="313.8281" y="959.3047">Accept Submitted VVN</text><g class="message" data-participant-1="Officer" data-participant-2="System"><polygon fill="#181818" points="624.623,993.3574,634.623,997.3574,624.623,1001.3574,628.623,997.3574" style="stroke:#181818;stroke-width:1;"/><line style="stroke:#181818;stroke-width:1;" x1="304.8887" x2="630.623" y1="997.3574" y2="997.3574"/><text fill="#000000" font-family="sans-serif" font-size="13" lengthAdjust="spacing" textLength="296.9116" x="311.8887" y="992.6152">PATCH /api/vesselvisitnotifications/{id}/accept</text></g><g class="message" data-participant-1="System" data-participant-2="Officer"><polygon fill="#181818" points="315.8887,1053.2891,305.8887,1057.2891,315.8887,1061.2891,311.8887,1057.2891" style="stroke:#181818;stroke-width:1;"/><line style="stroke:#181818;stroke-width:1;stroke-dasharray:2,2;" x1="309.8887" x2="635.623" y1="1057.2891" y2="1057.2891"/><text fill="#000000" font-family="sans-serif" font-size="13" lengthAdjust="spacing" textLength="47.3599" x="321.8887" y="1021.9258">200 OK</text><text fill="#000000" font-family="sans-serif" font-size="13" lengthAdjust="spacing" textLength="185.0024" x="321.8887" y="1037.2363">Status changed to "Accepted"</text><text fill="#000000" font-family="sans-serif" font-size="13" lengthAdjust="spacing" textLength="123.5889" x="321.8887" y="1052.5469">AcceptanceDate set</text></g><rect fill="#EEEEEE" height="3" style="stroke:#EEEEEE;stroke-width:1;" width="783.7583" x="0" y="1085.9443"/><line style="stroke:#000000;stroke-width:1;" x1="0" x2="783.7583" y1="1085.9443" y2="1085.9443"/><line style="stroke:#000000;stroke-width:1;" x1="0" x2="783.7583" y1="1088.9443" y2="1088.9443"/><rect fill="#EEEEEE" height="23.3105" style="stroke:#000000;stroke-width:2;" width="98.4302" x="342.6641" y="1075.2891"/><text fill="#000000" font-family="sans-serif" font-size="13" font-weight="bold" lengthAdjust="spacing" textLength="80.1455" x="348.6641" y="1091.8574">Query VVNs</text><g class="message" data-participant-1="Agent" data-participant-2="System"><polygon fill="#181818" points="624.623,1125.9102,634.623,1129.9102,624.623,1133.9102,628.623,1129.9102" style="stroke:#181818;stroke-width:1;"/><line style="stroke:#181818;stroke-width:1;" x1="112.125" x2="630.623" y1="1129.9102" y2="1129.9102"/><text fill="#000000" font-family="sans-serif" font-size="13" lengthAdjust="spacing" textLength="203.8359" x="119.125" y="1125.168">GET /api/vesselvisitnotifications</text></g><g class="message" data-participant-1="System" data-participant-2="Agent"><polygon fill="#181818" points="123.125,1170.5313,113.125,1174.5313,123.125,1178.5313,119.125,1174.5313" style="stroke:#181818;stroke-width:1;"/><line style="stroke:#181818;stroke-width:1;stroke-dasharray:2,2;" x1="117.125" x2="635.623" y1="1174.5313" y2="1174.5313"/><text fill="#000000" font-family="sans-serif" font-size="13" lengthAdjust="spacing" textLength="47.3599" x="129.125" y="1154.4785">200 OK</text><text fill="#000000" font-family="sans-serif" font-size="13" lengthAdjust="spacing" textLength="206.1909" x="129.125" y="1169.7891">List&lt;VesselVisitNotificationDto&gt;</text></g><g class="message" data-participant-1="Agent" data-participant-2="System"><polygon fill="#181818" points="624.623,1199.8418,634.623,1203.8418,624.623,1207.8418,628.623,1203.8418" style="stroke:#181818;stroke-width:1;"/><line style="stroke:#181818;stroke-width:1;" x1="112.125" x2="630.623" y1="1203.8418" y2="1203.8418"/><text fill="#000000" font-family="sans-serif" font-size="13" lengthAdjust="spacing" textLength="249.8057" x="119.125" y="1199.0996">GET /api/vesselvisitnotifications/id/{id}</text></g><g class="message" data-participant-1="System" data-participant-2="Agent"><polygon fill="#181818" points="123.125,1259.7734,113.125,1263.7734,123.125,1267.7734,119.125,1263.7734" style="stroke:#181818;stroke-width:1;"/><line style="stroke:#181818;stroke-width:1;stroke-dasharray:2,2;" x1="117.125" x2="635.623" y1="1263.7734" y2="1263.7734"/><text fill="#000000" font-family="sans-serif" font-size="13" lengthAdjust="spacing" textLength="47.3599" x="129.125" y="1228.4102">200 OK</text><text fill="#000000" font-family="sans-serif" font-size="13" lengthAdjust="spacing" textLength="163.3442" x="129.125" y="1243.7207">VesselVisitNotificationDto</text><text fill="#000000" font-family="sans-serif" font-size="13" lengthAdjust="spacing" textLength="117.0444" x="129.125" y="1259.0313">OR 404 Not Found</text></g><g class="message" data-participant-1="Agent" data-participant-2="System"><polygon fill="#181818" points="624.623,1289.084,634.623,1293.084,624.623,1297.084,628.623,1293.084" style="stroke:#181818;stroke-width:1;"/><line style="stroke:#181818;stroke-width:1;" x1="112.125" x2="630.623" y1="1293.084" y2="1293.084"/><text fill="#000000" font-family="sans-serif" font-size="13" lengthAdjust="spacing" textLength="286.0635" x="119.125" y="1288.3418">GET /api/vesselvisitnotifications/code/{code}</text></g><g class="message" data-participant-1="System" data-participant-2="Agent"><polygon fill="#181818" points="123.125,1349.0156,113.125,1353.0156,123.125,1357.0156,119.125,1353.0156" style="stroke:#181818;stroke-width:1;"/><line style="stroke:#181818;stroke-width:1;stroke-dasharray:2,2;" x1="117.125" x2="635.623" y1="1353.0156" y2="1353.0156"/><text fill="#000000" font-family="sans-serif" font-size="13" lengthAdjust="spacing" textLength="47.3599" x="129.125" y="1317.6523">200 OK</text><text fill="#000000" font-family="sans-serif" font-size="13" lengthAdjust="spacing" textLength="163.3442" x="129.125" y="1332.9629">VesselVisitNotificationDto</text><text fill="#000000" font-family="sans-serif" font-size="13" lengthAdjust="spacing" textLength="117.0444" x="129.125" y="1348.2734">OR 404 Not Found</text></g><rect fill="#EEEEEE" height="3" style="stroke:#EEEEEE;stroke-width:1;" width="783.7583" x="0" y="1381.6709"/><line style="stroke:#000000;stroke-width:1;" x1="0" x2="783.7583" y1="1381.6709" y2="1381.6709"/><line style="stroke:#000000;stroke-width:1;" x1="0" x2="783.7583" y1="1384.6709" y2="1384.6709"/><rect fill="#EEEEEE" height="23.3105" style="stroke:#000000;stroke-width:2;" width="219.5688" x="282.0947" y="1371.0156"/><text fill="#000000" font-family="sans-serif" font-size="13" font-weight="bold" lengthAdjust="spacing" textLength="201.2842" x="288.0947" y="1387.584">Validation and Business Rules</text><g class="message" data-participant-1="Agent" data-participant-2="System"><polygon fill="#181818" points="624.623,1421.6367,634.623,1425.6367,624.623,1429.6367,628.623,1425.6367" style="stroke:#181818;stroke-width:1;"/><line style="stroke:#181818;stroke-width:1;" x1="112.125" x2="630.623" y1="1425.6367" y2="1425.6367"/><text fill="#000000" font-family="sans-serif" font-size="13" lengthAdjust="spacing" textLength="200.7446" x="119.125" y="1420.8945">POST with duplicated VVN Code</text></g><g class="message" data-participant-1="System" data-participant-2="Agent"><polygon fill="#181818" points="123.125,1466.2578,113.125,1470.2578,123.125,1474.2578,119.125,1470.2578" style="stroke:#181818;stroke-width:1;"/><line style="stroke:#181818;stroke-width:1;stroke-dasharray:2,2;" x1="117.125" x2="635.623" y1="1470.2578" y2="1470.2578"/><text fill="#000000" font-family="sans-serif" font-size="13" lengthAdjust="spacing" textLength="77.6382" x="129.125" y="1450.2051">409 Conflict</text><text fill="#000000" font-family="sans-serif" font-size="13" lengthAdjust="spacing" textLength="376.708" x="129.125" y="1465.5156">BusinessRuleValidationException("VVN code already exists")</text></g><g class="message" data-participant-1="Agent" data-participant-2="System"><polygon fill="#181818" points="624.623,1495.5684,634.623,1499.5684,624.623,1503.5684,628.623,1499.5684" style="stroke:#181818;stroke-width:1;"/><line style="stroke:#181818;stroke-width:1;" x1="112.125" x2="630.623" y1="1499.5684" y2="1499.5684"/><text fill="#000000" font-family="sans-serif" font-size="13" lengthAdjust="spacing" textLength="191.1533" x="119.125" y="1494.8262">POST with invalid IMO number</text></g><g class="message" data-participant-1="System" data-participant-2="Agent"><polygon fill="#181818" points="123.125,1540.1895,113.125,1544.1895,123.125,1548.1895,119.125,1544.1895" style="stroke:#181818;stroke-width:1;"/><line style="stroke:#181818;stroke-width:1;stroke-dasharray:2,2;" x1="117.125" x2="635.623" y1="1544.1895" y2="1544.1895"/><text fill="#000000" font-family="sans-serif" font-size="13" lengthAdjust="spacing" textLength="106.1709" x="129.125" y="1524.1367">400 Bad Request</text><text fill="#000000" font-family="sans-serif" font-size="13" lengthAdjust="spacing" textLength="390.9966" x="129.125" y="1539.4473">BusinessRuleValidationException("Invalid vessel IMO number")</text></g><g class="message" data-participant-1="Agent" data-participant-2="System"><polygon fill="#181818" points="624.623,1569.5,634.623,1573.5,624.623,1577.5,628.623,1573.5" style="stroke:#181818;stroke-width:1;"/><line style="stroke:#181818;stroke-width:1;" x1="112.125" x2="630.623" y1="1573.5" y2="1573.5"/><text fill="#000000" font-family="sans-serif" font-size="13" lengthAdjust="spacing" textLength="239.8335" x="119.125" y="1568.7578">POST with invalid container identifiers</text></g><g class="message" data-participant-1="System" data-participant-2="Agent"><polygon fill="#181818" points="123.125,1614.1211,113.125,1618.1211,123.125,1622.1211,119.125,1618.1211" style="stroke:#181818;stroke-width:1;"/><line style="stroke:#181818;stroke-width:1;stroke-dasharray:2,2;" x1="117.125" x2="635.623" y1="1618.1211" y2="1618.1211"/><text fill="#000000" font-family="sans-serif" font-size="13" lengthAdjust="spacing" textLength="106.1709" x="129.125" y="1598.0684">400 Bad Request</text><text fill="#000000" font-family="sans-serif" font-size="13" lengthAdjust="spacing" textLength="432.3896" x="129.125" y="1613.3789">BusinessRuleValidationException("Invalid ISO 6346 container codes")</text></g><g class="message" data-participant-1="Agent" data-participant-2="System"><polygon fill="#181818" points="624.623,1643.4316,634.623,1647.4316,624.623,1651.4316,628.623,1647.4316" style="stroke:#181818;stroke-width:1;"/><line style="stroke:#181818;stroke-width:1;" x1="112.125" x2="630.623" y1="1647.4316" y2="1647.4316"/><text fill="#000000" font-family="sans-serif" font-size="13" lengthAdjust="spacing" textLength="225.2085" x="119.125" y="1642.6895">PATCH /accept when not submitted</text></g><g class="message" data-participant-1="System" data-participant-2="Agent"><polygon fill="#181818" points="123.125,1688.0527,113.125,1692.0527,123.125,1696.0527,119.125,1692.0527" style="stroke:#181818;stroke-width:1;"/><line style="stroke:#181818;stroke-width:1;stroke-dasharray:2,2;" x1="117.125" x2="635.623" y1="1692.0527" y2="1692.0527"/><text fill="#000000" font-family="sans-serif" font-size="13" lengthAdjust="spacing" textLength="106.1709" x="129.125" y="1672">400 Bad Request</text><text fill="#000000" font-family="sans-serif" font-size="13" lengthAdjust="spacing" textLength="464.9277" x="129.125" y="1687.3105">BusinessRuleValidationException("Only submitted VVNs can be accepted")</text></g><g class="message" data-participant-1="Agent" data-participant-2="System"><polygon fill="#181818" points="624.623,1717.3633,634.623,1721.3633,624.623,1725.3633,628.623,1721.3633" style="stroke:#181818;stroke-width:1;"/><line style="stroke:#181818;stroke-width:1;" x1="112.125" x2="630.623" y1="1721.3633" y2="1721.3633"/><text fill="#000000" font-family="sans-serif" font-size="13" lengthAdjust="spacing" textLength="302.5039" x="119.125" y="1716.6211">PATCH /submit when not InProgress or Pending</text></g><g class="message" data-participant-1="System" data-participant-2="Agent"><polygon fill="#181818" points="123.125,1761.9844,113.125,1765.9844,123.125,1769.9844,119.125,1765.9844" style="stroke:#181818;stroke-width:1;"/><line style="stroke:#181818;stroke-width:1;stroke-dasharray:2,2;" x1="117.125" x2="635.623" y1="1765.9844" y2="1765.9844"/><text fill="#000000" font-family="sans-serif" font-size="13" lengthAdjust="spacing" textLength="106.1709" x="129.125" y="1745.9316">400 Bad Request</text><text fill="#000000" font-family="sans-serif" font-size="13" lengthAdjust="spacing" textLength="365.8599" x="129.125" y="1761.2422">BusinessRuleValidationException("Invalid state transition")</text></g><!--SRC=[hPRVRzem4CVV-IjEUGA92hQXIgj64QNTXhOMLbhsCFPWOXEi9dPcEr1KxN_VsKvA9fMqjBmWazXtd_lU3uU4HYe89akUfbn4q8-OC73DKiKqheZXAnO0qVv5ZVZjOwaCz3Epb8gR3OmM2nuovVRbwzfSPe8IjO5WohHcCKovvWQkfE6u0UrA0PT4a8WbrcD_F7J79njjM5AhTRi84N7yes2tWMwtve6FJlEJS0BZqUG6MYJbhPKxkBBdHEcOdeapIJSdC50C7uXekXBdHiv4tHyO9h89p13xGvkmad6Mi2PG6MQMLVUQCn4gjaPylc3Qz9eGIqBHq82eI9OUPsB72xHrft_zRjHowYCCm4To0k_RxpmPemMeLy09K8xVGtDa32L5mafyZSdCD7GX68gnaX4cM0SDf_HjIj4RJATNK5ylUSnWAA3O0vZmCHCsYiOEmM-VqRlrmEdV8XRlx55o1Eqvqbw1YeiaLqeNKlNAykzGhGsZRpFXpTDAoKRNq6btR2d1PrkcJeH9Da-mllOjjlxDuEiBeczfPxwAVE8J52w9Y3008x4jtI4C9vW9cvqv2sN2D61rq2CfueqZloJghaWHPcuXLUA9wuhzoL16j3RVmFzDwtAPD-lh8agznt98XRtAe7BI4cWU7QFSa3bM7ua85owqdzmigI9hLvjlIy0wDxLd2We24UH3IMCLFdA90u0fPt9Fh58FEwv-6BBKm6F155nloZ1nHlTEi6TnHUkNH8Jit4uOpOoZ_P4nl1aGKJ-jtPUBPoPAbLhVyTRujBlzJsklSTZYr6bIvNY_aVCQ23lcMm_szu0Wc8yfYJdrCuC82cUPviAE_kiiPhhYbhKz1JHBO-iXBxe1qZq5rsb_n7TYWNiDtWMv2-jXw_tYtfOBBkg1DMK31HBRQRS1TezvTJTM5GmNAsiDXfSZ45aono-H9rdQS4OeThERZo_06UPsVMfAvbyA54hyca8V2ZZ5tPWKflHXsOQJ4Hn_w1oNV5a5TscMJm4_EDPB9W2B3NGnGGx3Di9BQclJjtn81DvaG8enKONdZsxnjdElz5roM1djXn83euZ0_h6tKwFs3m00]--></g></svg>