<svg xmlns="http://www.w3.org/2000/svg" xmlns:xlink="http://www.w3.org/1999/xlink" contentStyleType="text/css" data-diagram-type="SEQUENCE" height="1542px" preserveAspectRatio="none" style="width:1372px;height:1542px;background:#FFFFFF;" version="1.1" viewBox="0 0 1372 1542" width="1372px" zoomAndPan="magnify"><defs/><g><g><title>Port Authority Officer</title><rect fill="#000000" fill-opacity="0.00000" height="1380.2852" width="8" x="76.6387" y="81.4883"/><line style="stroke:#181818;stroke-width:0.5;stroke-dasharray:5,5;" x1="80" x2="80" y1="81.4883" y2="1461.7734"/></g><g><title>API .VesselTypeController.</title><rect fill="#000000" fill-opacity="0.00000" height="1380.2852" width="8" x="343.9888" y="81.4883"/><line style="stroke:#181818;stroke-width:0.5;stroke-dasharray:5,5;" x1="347.4995" x2="347.4995" y1="81.4883" y2="1461.7734"/></g><g><title>VesselTypeService</title><rect fill="#000000" fill-opacity="0.00000" height="1380.2852" width="8" x="511.0698" y="81.4883"/><line style="stroke:#181818;stroke-width:0.5;stroke-dasharray:5,5;" x1="514.478" x2="514.478" y1="81.4883" y2="1461.7734"/></g><g><title>VesselTypeRepository</title><rect fill="#000000" fill-opacity="0.00000" height="1380.2852" width="8" x="821.6729" y="81.4883"/><line style="stroke:#181818;stroke-width:0.5;stroke-dasharray:5,5;" x1="824.6841" x2="824.6841" y1="81.4883" y2="1461.7734"/></g><g><title>UnitOfWork</title><rect fill="#000000" fill-opacity="0.00000" height="1380.2852" width="8" x="950.7529" y="81.4883"/><line style="stroke:#181818;stroke-width:0.5;stroke-dasharray:5,5;" x1="954.6616" x2="954.6616" y1="81.4883" y2="1461.7734"/></g><g><title>VesselTypeFactory</title><rect fill="#000000" fill-opacity="0.00000" height="1380.2852" width="8" x="1068.4136" y="81.4883"/><line style="stroke:#181818;stroke-width:0.5;stroke-dasharray:5,5;" x1="1071.8442" x2="1071.8442" y1="81.4883" y2="1461.7734"/></g><g><title>Audit.Logs .ILogger.Serilog.</title><rect fill="#000000" fill-opacity="0.00000" height="1380.2852" width="8" x="1250.0669" y="81.4883"/><line style="stroke:#181818;stroke-width:0.5;stroke-dasharray:5,5;" x1="1253.9829" x2="1253.9829" y1="81.4883" y2="1461.7734"/></g><g class="participant participant-head" data-participant="Officer"><text fill="#000000" font-family="sans-serif" font-size="14" lengthAdjust="spacing" textLength="145.2773" x="5" y="78.5352">Port Authority Officer</text><ellipse cx="80.6387" cy="13.5" fill="#E2E2F0" rx="8" ry="8" style="stroke:#181818;stroke-width:0.5;"/><path d="M80.6387,21.5 L80.6387,48.5 M67.6387,29.5 L93.6387,29.5 M80.6387,48.5 L67.6387,63.5 M80.6387,48.5 L93.6387,63.5" fill="none" style="stroke:#181818;stroke-width:0.5;"/></g><g class="participant participant-tail" data-participant="Officer"><text fill="#000000" font-family="sans-serif" font-size="14" lengthAdjust="spacing" textLength="145.2773" x="5" y="1474.3086">Port Authority Officer</text><ellipse cx="80.6387" cy="1485.7617" fill="#E2E2F0" rx="8" ry="8" style="stroke:#181818;stroke-width:0.5;"/><path d="M80.6387,1493.7617 L80.6387,1520.7617 M67.6387,1501.7617 L93.6387,1501.7617 M80.6387,1520.7617 L67.6387,1535.7617 M80.6387,1520.7617 L93.6387,1535.7617" fill="none" style="stroke:#181818;stroke-width:0.5;"/></g><g class="participant participant-head" data-participant="Controller"><text fill="#000000" font-family="sans-serif" font-size="14" lengthAdjust="spacing" textLength="178.9785" x="255.4995" y="78.5352">API (VesselTypeController)</text><path d="M327.4888,37 L327.4888,61 M327.4888,49 L344.4888,49" fill="none" style="stroke:#181818;stroke-width:0.5;"/><ellipse cx="356.4888" cy="49" fill="#E2E2F0" rx="12" ry="12" style="stroke:#181818;stroke-width:0.5;"/></g><g class="participant participant-tail" data-participant="Controller"><text fill="#000000" font-family="sans-serif" font-size="14" lengthAdjust="spacing" textLength="178.9785" x="255.4995" y="1474.3086">API (VesselTypeController)</text><path d="M327.4888,1481.2617 L327.4888,1505.2617 M327.4888,1493.2617 L344.4888,1493.2617" fill="none" style="stroke:#181818;stroke-width:0.5;"/><ellipse cx="356.4888" cy="1493.2617" fill="#E2E2F0" rx="12" ry="12" style="stroke:#181818;stroke-width:0.5;"/></g><g class="participant participant-head" data-participant="Service"><text fill="#000000" font-family="sans-serif" font-size="14" lengthAdjust="spacing" textLength="123.1836" x="450.478" y="78.5352">VesselTypeService</text><ellipse cx="515.0698" cy="49" fill="#E2E2F0" rx="12" ry="12" style="stroke:#181818;stroke-width:0.5;"/><polygon fill="#181818" points="511.0698,37,517.0698,32,515.0698,37,517.0698,42,511.0698,37" style="stroke:#181818;stroke-width:1;"/></g><g class="participant participant-tail" data-participant="Service"><text fill="#000000" font-family="sans-serif" font-size="14" lengthAdjust="spacing" textLength="123.1836" x="450.478" y="1474.3086">VesselTypeService</text><ellipse cx="515.0698" cy="1493.2617" fill="#E2E2F0" rx="12" ry="12" style="stroke:#181818;stroke-width:0.5;"/><polygon fill="#181818" points="511.0698,1481.2617,517.0698,1476.2617,515.0698,1481.2617,517.0698,1486.2617,511.0698,1481.2617" style="stroke:#181818;stroke-width:1;"/></g><g class="participant participant-head" data-participant="Repo"><text fill="#000000" font-family="sans-serif" font-size="14" lengthAdjust="spacing" textLength="147.9775" x="748.6841" y="78.5352">VesselTypeRepository</text><ellipse cx="825.6729" cy="49" fill="#E2E2F0" rx="12" ry="12" style="stroke:#181818;stroke-width:0.5;"/><line style="stroke:#181818;stroke-width:0.5;" x1="813.6729" x2="837.6729" y1="63" y2="63"/></g><g class="participant participant-tail" data-participant="Repo"><text fill="#000000" font-family="sans-serif" font-size="14" lengthAdjust="spacing" textLength="147.9775" x="748.6841" y="1474.3086">VesselTypeRepository</text><ellipse cx="825.6729" cy="1493.2617" fill="#E2E2F0" rx="12" ry="12" style="stroke:#181818;stroke-width:0.5;"/><line style="stroke:#181818;stroke-width:0.5;" x1="813.6729" x2="837.6729" y1="1507.2617" y2="1507.2617"/></g><g class="participant participant-head" data-participant="UoW"><text fill="#000000" font-family="sans-serif" font-size="14" lengthAdjust="spacing" textLength="78.1826" x="912.6616" y="78.5352">UnitOfWork</text><ellipse cx="954.7529" cy="49" fill="#E2E2F0" rx="12" ry="12" style="stroke:#181818;stroke-width:0.5;"/><line style="stroke:#181818;stroke-width:0.5;" x1="942.7529" x2="966.7529" y1="63" y2="63"/></g><g class="participant participant-tail" data-participant="UoW"><text fill="#000000" font-family="sans-serif" font-size="14" lengthAdjust="spacing" textLength="78.1826" x="912.6616" y="1474.3086">UnitOfWork</text><ellipse cx="954.7529" cy="1493.2617" fill="#E2E2F0" rx="12" ry="12" style="stroke:#181818;stroke-width:0.5;"/><line style="stroke:#181818;stroke-width:0.5;" x1="942.7529" x2="966.7529" y1="1507.2617" y2="1507.2617"/></g><g class="participant participant-head" data-participant="Factory"><text fill="#000000" font-family="sans-serif" font-size="14" lengthAdjust="spacing" textLength="125.1387" x="1006.8442" y="78.5352">VesselTypeFactory</text><ellipse cx="1072.4136" cy="49" fill="#E2E2F0" rx="12" ry="12" style="stroke:#181818;stroke-width:0.5;"/><polygon fill="#181818" points="1068.4136,37,1074.4136,32,1072.4136,37,1074.4136,42,1068.4136,37" style="stroke:#181818;stroke-width:1;"/></g><g class="participant participant-tail" data-participant="Factory"><text fill="#000000" font-family="sans-serif" font-size="14" lengthAdjust="spacing" textLength="125.1387" x="1006.8442" y="1474.3086">VesselTypeFactory</text><ellipse cx="1072.4136" cy="1493.2617" fill="#E2E2F0" rx="12" ry="12" style="stroke:#181818;stroke-width:0.5;"/><polygon fill="#181818" points="1068.4136,1481.2617,1074.4136,1476.2617,1072.4136,1481.2617,1074.4136,1486.2617,1068.4136,1481.2617" style="stroke:#181818;stroke-width:1;"/></g><g class="participant participant-head" data-participant="Log"><rect fill="#E2E2F0" height="30.4883" style="stroke:#181818;stroke-width:0.5;" width="208.168" x="1151.9829" y="46"/><rect fill="#E2E2F0" height="30.4883" style="stroke:#181818;stroke-width:0.5;" width="208.168" x="1147.9829" y="50"/><text fill="#000000" font-family="sans-serif" font-size="14" lengthAdjust="spacing" textLength="194.168" x="1154.9829" y="70.5352">Audit/Logs (ILogger/Serilog)</text></g><g class="participant participant-tail" data-participant="Log"><rect fill="#E2E2F0" height="30.4883" style="stroke:#181818;stroke-width:0.5;" width="208.168" x="1151.9829" y="1460.7734"/><rect fill="#E2E2F0" height="30.4883" style="stroke:#181818;stroke-width:0.5;" width="208.168" x="1147.9829" y="1464.7734"/><text fill="#000000" font-family="sans-serif" font-size="14" lengthAdjust="spacing" textLength="194.168" x="1154.9829" y="1485.3086">Audit/Logs (ILogger/Serilog)</text></g><rect fill="#EEEEEE" height="3" style="stroke:#EEEEEE;stroke-width:1;" width="1365.1509" x="0" y="112.1436"/><line style="stroke:#000000;stroke-width:1;" x1="0" x2="1365.1509" y1="112.1436" y2="112.1436"/><line style="stroke:#000000;stroke-width:1;" x1="0" x2="1365.1509" y1="115.1436" y2="115.1436"/><rect fill="#EEEEEE" height="23.3105" style="stroke:#000000;stroke-width:2;" width="61.6011" x="651.7749" y="101.4883"/><text fill="#000000" font-family="sans-serif" font-size="13" font-weight="bold" lengthAdjust="spacing" textLength="43.3164" x="657.7749" y="118.0566">Create</text><g class="message" data-participant-1="Officer" data-participant-2="Controller"><polygon fill="#181818" points="335.9888,167.4199,345.9888,171.4199,335.9888,175.4199,339.9888,171.4199" style="stroke:#181818;stroke-width:1;"/><line style="stroke:#181818;stroke-width:1;" x1="80.6387" x2="341.9888" y1="171.4199" y2="171.4199"/><text fill="#000000" font-family="sans-serif" font-size="13" lengthAdjust="spacing" textLength="139.8071" x="87.6387" y="151.3672">POST /api/VesselType</text><text fill="#000000" font-family="sans-serif" font-size="13" lengthAdjust="spacing" textLength="185.2119" x="87.6387" y="166.6777">Body: CreatingVesselTypeDto</text></g><g class="message" data-participant-1="Controller" data-participant-2="Service"><polygon fill="#181818" points="503.0698,196.7305,513.0698,200.7305,503.0698,204.7305,507.0698,200.7305" style="stroke:#181818;stroke-width:1;"/><line style="stroke:#181818;stroke-width:1;" x1="347.9888" x2="509.0698" y1="200.7305" y2="200.7305"/><text fill="#000000" font-family="sans-serif" font-size="13" lengthAdjust="spacing" textLength="91.9331" x="354.9888" y="195.9883">AddAsync(dto)</text></g><g class="message" data-participant-1="Service" data-participant-2="Repo"><polygon fill="#181818" points="813.6729,226.041,823.6729,230.041,813.6729,234.041,817.6729,230.041" style="stroke:#181818;stroke-width:1;"/><line style="stroke:#181818;stroke-width:1;" x1="515.0698" x2="819.6729" y1="230.041" y2="230.041"/><text fill="#000000" font-family="sans-serif" font-size="13" lengthAdjust="spacing" textLength="178.8071" x="522.0698" y="225.2988">GetByNameAsync(dto.Name)</text></g><g class="message" data-participant-1="Repo" data-participant-2="Service"><polygon fill="#181818" points="526.0698,255.3516,516.0698,259.3516,526.0698,263.3516,522.0698,259.3516" style="stroke:#181818;stroke-width:1;"/><line style="stroke:#181818;stroke-width:1;stroke-dasharray:2,2;" x1="520.0698" x2="824.6729" y1="259.3516" y2="259.3516"/><text fill="#000000" font-family="sans-serif" font-size="13" lengthAdjust="spacing" textLength="109.1289" x="532.0698" y="254.6094">null / VesselType</text></g><g class="message" data-participant-1="Service" data-participant-2="Service"><line style="stroke:#181818;stroke-width:1;" x1="515.0698" x2="557.0698" y1="303.9727" y2="303.9727"/><line style="stroke:#181818;stroke-width:1;" x1="557.0698" x2="557.0698" y1="303.9727" y2="316.9727"/><line style="stroke:#181818;stroke-width:1;" x1="516.0698" x2="557.0698" y1="316.9727" y2="316.9727"/><polygon fill="#181818" points="526.0698,312.9727,516.0698,316.9727,526.0698,320.9727,522.0698,316.9727" style="stroke:#181818;stroke-width:1;"/><text fill="#000000" font-family="sans-serif" font-size="13" lengthAdjust="spacing" textLength="141.1274" x="522.0698" y="283.9199">Validate(name unique,</text><text fill="#000000" font-family="sans-serif" font-size="13" lengthAdjust="spacing" textLength="149.354" x="522.0698" y="299.2305">length, constraints &gt; 0)</text></g><g class="message" data-participant-1="Service" data-participant-2="Factory"><polygon fill="#181818" points="1060.4136,342.2832,1070.4136,346.2832,1060.4136,350.2832,1064.4136,346.2832" style="stroke:#181818;stroke-width:1;"/><line style="stroke:#181818;stroke-width:1;" x1="515.0698" x2="1066.4136" y1="346.2832" y2="346.2832"/><text fill="#000000" font-family="sans-serif" font-size="13" lengthAdjust="spacing" textLength="172.4595" x="522.0698" y="341.541">CreateBasicVesselType(dto)</text></g><g class="message" data-participant-1="Factory" data-participant-2="Service"><polygon fill="#181818" points="526.0698,371.5938,516.0698,375.5938,526.0698,379.5938,522.0698,375.5938" style="stroke:#181818;stroke-width:1;"/><line style="stroke:#181818;stroke-width:1;stroke-dasharray:2,2;" x1="520.0698" x2="1071.4136" y1="375.5938" y2="375.5938"/><text fill="#000000" font-family="sans-serif" font-size="13" lengthAdjust="spacing" textLength="118.5869" x="532.0698" y="370.8516">VesselType (entity)</text></g><g class="message" data-participant-1="Service" data-participant-2="Repo"><polygon fill="#181818" points="813.6729,400.9043,823.6729,404.9043,813.6729,408.9043,817.6729,404.9043" style="stroke:#181818;stroke-width:1;"/><line style="stroke:#181818;stroke-width:1;" x1="515.0698" x2="819.6729" y1="404.9043" y2="404.9043"/><text fill="#000000" font-family="sans-serif" font-size="13" lengthAdjust="spacing" textLength="106.4883" x="522.0698" y="400.1621">AddAsync(entity)</text></g><g class="message" data-participant-1="Repo" data-participant-2="Service"><polygon fill="#181818" points="526.0698,430.2148,516.0698,434.2148,526.0698,438.2148,522.0698,434.2148" style="stroke:#181818;stroke-width:1;"/><line style="stroke:#181818;stroke-width:1;stroke-dasharray:2,2;" x1="520.0698" x2="824.6729" y1="434.2148" y2="434.2148"/><text fill="#000000" font-family="sans-serif" font-size="13" lengthAdjust="spacing" textLength="97.5444" x="532.0698" y="429.4727">Entity persisted</text></g><g class="message" data-participant-1="Service" data-participant-2="UoW"><polygon fill="#181818" points="942.7529,459.5254,952.7529,463.5254,942.7529,467.5254,946.7529,463.5254" style="stroke:#181818;stroke-width:1;"/><line style="stroke:#181818;stroke-width:1;" x1="515.0698" x2="948.7529" y1="463.5254" y2="463.5254"/><text fill="#000000" font-family="sans-serif" font-size="13" lengthAdjust="spacing" textLength="95.4434" x="522.0698" y="458.7832">CommitAsync()</text></g><g class="message" data-participant-1="UoW" data-participant-2="Service"><polygon fill="#181818" points="526.0698,488.8359,516.0698,492.8359,526.0698,496.8359,522.0698,492.8359" style="stroke:#181818;stroke-width:1;"/><line style="stroke:#181818;stroke-width:1;stroke-dasharray:2,2;" x1="520.0698" x2="953.7529" y1="492.8359" y2="492.8359"/><text fill="#000000" font-family="sans-serif" font-size="13" lengthAdjust="spacing" textLength="145.8628" x="532.0698" y="488.0938">Transaction committed</text></g><g class="message" data-participant-1="Service" data-participant-2="Factory"><polygon fill="#181818" points="1060.4136,518.1465,1070.4136,522.1465,1060.4136,526.1465,1064.4136,522.1465" style="stroke:#181818;stroke-width:1;"/><line style="stroke:#181818;stroke-width:1;" x1="515.0698" x2="1066.4136" y1="522.1465" y2="522.1465"/><text fill="#000000" font-family="sans-serif" font-size="13" lengthAdjust="spacing" textLength="177.8994" x="522.0698" y="517.4043">CreateDtoVesselType(entity)</text></g><g class="message" data-participant-1="Factory" data-participant-2="Service"><polygon fill="#181818" points="526.0698,547.457,516.0698,551.457,526.0698,555.457,522.0698,551.457" style="stroke:#181818;stroke-width:1;"/><line style="stroke:#181818;stroke-width:1;stroke-dasharray:2,2;" x1="520.0698" x2="1071.4136" y1="551.457" y2="551.457"/><text fill="#000000" font-family="sans-serif" font-size="13" lengthAdjust="spacing" textLength="93.0186" x="532.0698" y="546.7148">VesselTypeDto</text></g><g class="message" data-participant-1="Service" data-participant-2="Log"><polygon fill="#181818" points="1242.0669,576.7676,1252.0669,580.7676,1242.0669,584.7676,1246.0669,580.7676" style="stroke:#181818;stroke-width:1;"/><line style="stroke:#181818;stroke-width:1;" x1="515.0698" x2="1248.0669" y1="580.7676" y2="580.7676"/><text fill="#000000" font-family="sans-serif" font-size="13" lengthAdjust="spacing" textLength="292.7412" x="522.0698" y="576.0254">Log(CREATE, officerId, vesselTypeId, SUCCESS)</text></g><g class="message" data-participant-1="Service" data-participant-2="Controller"><polygon fill="#181818" points="358.9888,606.0781,348.9888,610.0781,358.9888,614.0781,354.9888,610.0781" style="stroke:#181818;stroke-width:1;"/><line style="stroke:#181818;stroke-width:1;stroke-dasharray:2,2;" x1="352.9888" x2="514.0698" y1="610.0781" y2="610.0781"/><text fill="#000000" font-family="sans-serif" font-size="13" lengthAdjust="spacing" textLength="93.0186" x="364.9888" y="605.3359">VesselTypeDto</text></g><g class="message" data-participant-1="Controller" data-participant-2="Officer"><polygon fill="#181818" points="91.6387,635.3887,81.6387,639.3887,91.6387,643.3887,87.6387,639.3887" style="stroke:#181818;stroke-width:1;"/><line style="stroke:#181818;stroke-width:1;stroke-dasharray:2,2;" x1="85.6387" x2="346.9888" y1="639.3887" y2="639.3887"/><text fill="#000000" font-family="sans-serif" font-size="13" lengthAdjust="spacing" textLength="183.3838" x="97.6387" y="634.6465">201 Created (VesselTypeDto)</text></g><rect fill="#EEEEEE" height="3" style="stroke:#EEEEEE;stroke-width:1;" width="1365.1509" x="0" y="668.0439"/><line style="stroke:#000000;stroke-width:1;" x1="0" x2="1365.1509" y1="668.0439" y2="668.0439"/><line style="stroke:#000000;stroke-width:1;" x1="0" x2="1365.1509" y1="671.0439" y2="671.0439"/><rect fill="#EEEEEE" height="23.3105" style="stroke:#000000;stroke-width:2;" width="65.6128" x="649.769" y="657.3887"/><text fill="#000000" font-family="sans-serif" font-size="13" font-weight="bold" lengthAdjust="spacing" textLength="47.3281" x="655.769" y="673.957">Update</text><g class="message" data-participant-1="Officer" data-participant-2="Controller"><polygon fill="#181818" points="335.9888,723.3203,345.9888,727.3203,335.9888,731.3203,339.9888,727.3203" style="stroke:#181818;stroke-width:1;"/><line style="stroke:#181818;stroke-width:1;" x1="80.6387" x2="341.9888" y1="727.3203" y2="727.3203"/><text fill="#000000" font-family="sans-serif" font-size="13" lengthAdjust="spacing" textLength="158.9263" x="87.6387" y="707.2676">PUT /api/VesselType/{id}</text><text fill="#000000" font-family="sans-serif" font-size="13" lengthAdjust="spacing" textLength="176.3379" x="87.6387" y="722.5781">Body: UpdateVesselTypeDto</text></g><g class="message" data-participant-1="Controller" data-participant-2="Service"><polygon fill="#181818" points="503.0698,752.6309,513.0698,756.6309,503.0698,760.6309,507.0698,756.6309" style="stroke:#181818;stroke-width:1;"/><line style="stroke:#181818;stroke-width:1;" x1="347.9888" x2="509.0698" y1="756.6309" y2="756.6309"/><text fill="#000000" font-family="sans-serif" font-size="13" lengthAdjust="spacing" textLength="131.4219" x="354.9888" y="751.8887">UpdateAsync(id, dto)</text></g><g class="message" data-participant-1="Service" data-participant-2="Repo"><polygon fill="#181818" points="813.6729,781.9414,823.6729,785.9414,813.6729,789.9414,817.6729,785.9414" style="stroke:#181818;stroke-width:1;"/><line style="stroke:#181818;stroke-width:1;" x1="515.0698" x2="819.6729" y1="785.9414" y2="785.9414"/><text fill="#000000" font-family="sans-serif" font-size="13" lengthAdjust="spacing" textLength="105.2061" x="522.0698" y="781.1992">GetByIdAsync(id)</text></g><g class="message" data-participant-1="Repo" data-participant-2="Service"><polygon fill="#181818" points="526.0698,811.252,516.0698,815.252,526.0698,819.252,522.0698,815.252" style="stroke:#181818;stroke-width:1;"/><line style="stroke:#181818;stroke-width:1;stroke-dasharray:2,2;" x1="520.0698" x2="824.6729" y1="815.252" y2="815.252"/><text fill="#000000" font-family="sans-serif" font-size="13" lengthAdjust="spacing" textLength="133.396" x="532.0698" y="810.5098">VesselType (existing)</text></g><g class="message" data-participant-1="Service" data-participant-2="Service"><line style="stroke:#181818;stroke-width:1;" x1="515.0698" x2="557.0698" y1="859.873" y2="859.873"/><line style="stroke:#181818;stroke-width:1;" x1="557.0698" x2="557.0698" y1="859.873" y2="872.873"/><line style="stroke:#181818;stroke-width:1;" x1="516.0698" x2="557.0698" y1="872.873" y2="872.873"/><polygon fill="#181818" points="526.0698,868.873,516.0698,872.873,526.0698,876.873,522.0698,872.873" style="stroke:#181818;stroke-width:1;"/><text fill="#000000" font-family="sans-serif" font-size="13" lengthAdjust="spacing" textLength="106.7231" x="522.0698" y="839.8203">Validate changes</text><text fill="#000000" font-family="sans-serif" font-size="13" lengthAdjust="spacing" textLength="224.5166" x="522.0698" y="855.1309">(unique name, positive dimensions)</text></g><g class="message" data-participant-1="Service" data-participant-2="Repo"><polygon fill="#181818" points="813.6729,898.1836,823.6729,902.1836,813.6729,906.1836,817.6729,902.1836" style="stroke:#181818;stroke-width:1;"/><line style="stroke:#181818;stroke-width:1;" x1="515.0698" x2="819.6729" y1="902.1836" y2="902.1836"/><text fill="#000000" font-family="sans-serif" font-size="13" lengthAdjust="spacing" textLength="128.2036" x="522.0698" y="897.4414">Save(updated entity)</text></g><g class="message" data-participant-1="Repo" data-participant-2="Service"><polygon fill="#181818" points="526.0698,927.4941,516.0698,931.4941,526.0698,935.4941,522.0698,931.4941" style="stroke:#181818;stroke-width:1;"/><line style="stroke:#181818;stroke-width:1;stroke-dasharray:2,2;" x1="520.0698" x2="824.6729" y1="931.4941" y2="931.4941"/><text fill="#000000" font-family="sans-serif" font-size="13" lengthAdjust="spacing" textLength="91.3999" x="532.0698" y="926.752">Entity updated</text></g><g class="message" data-participant-1="Service" data-participant-2="UoW"><polygon fill="#181818" points="942.7529,956.8047,952.7529,960.8047,942.7529,964.8047,946.7529,960.8047" style="stroke:#181818;stroke-width:1;"/><line style="stroke:#181818;stroke-width:1;" x1="515.0698" x2="948.7529" y1="960.8047" y2="960.8047"/><text fill="#000000" font-family="sans-serif" font-size="13" lengthAdjust="spacing" textLength="95.4434" x="522.0698" y="956.0625">CommitAsync()</text></g><g class="message" data-participant-1="UoW" data-participant-2="Service"><polygon fill="#181818" points="526.0698,986.1152,516.0698,990.1152,526.0698,994.1152,522.0698,990.1152" style="stroke:#181818;stroke-width:1;"/><line style="stroke:#181818;stroke-width:1;stroke-dasharray:2,2;" x1="520.0698" x2="953.7529" y1="990.1152" y2="990.1152"/><text fill="#000000" font-family="sans-serif" font-size="13" lengthAdjust="spacing" textLength="145.8628" x="532.0698" y="985.373">Transaction committed</text></g><g class="message" data-participant-1="Service" data-participant-2="Factory"><polygon fill="#181818" points="1060.4136,1015.4258,1070.4136,1019.4258,1060.4136,1023.4258,1064.4136,1019.4258" style="stroke:#181818;stroke-width:1;"/><line style="stroke:#181818;stroke-width:1;" x1="515.0698" x2="1066.4136" y1="1019.4258" y2="1019.4258"/><text fill="#000000" font-family="sans-serif" font-size="13" lengthAdjust="spacing" textLength="194.2129" x="522.0698" y="1014.6836">CreateDtoVesselType(updated)</text></g><g class="message" data-participant-1="Factory" data-participant-2="Service"><polygon fill="#181818" points="526.0698,1044.7363,516.0698,1048.7363,526.0698,1052.7363,522.0698,1048.7363" style="stroke:#181818;stroke-width:1;"/><line style="stroke:#181818;stroke-width:1;stroke-dasharray:2,2;" x1="520.0698" x2="1071.4136" y1="1048.7363" y2="1048.7363"/><text fill="#000000" font-family="sans-serif" font-size="13" lengthAdjust="spacing" textLength="93.0186" x="532.0698" y="1043.9941">VesselTypeDto</text></g><g class="message" data-participant-1="Service" data-participant-2="Log"><polygon fill="#181818" points="1242.0669,1074.0469,1252.0669,1078.0469,1242.0669,1082.0469,1246.0669,1078.0469" style="stroke:#181818;stroke-width:1;"/><line style="stroke:#181818;stroke-width:1;" x1="515.0698" x2="1248.0669" y1="1078.0469" y2="1078.0469"/><text fill="#000000" font-family="sans-serif" font-size="13" lengthAdjust="spacing" textLength="294.4106" x="522.0698" y="1073.3047">Log(UPDATE, officerId, vesselTypeId, SUCCESS)</text></g><g class="message" data-participant-1="Service" data-participant-2="Controller"><polygon fill="#181818" points="358.9888,1103.3574,348.9888,1107.3574,358.9888,1111.3574,354.9888,1107.3574" style="stroke:#181818;stroke-width:1;"/><line style="stroke:#181818;stroke-width:1;stroke-dasharray:2,2;" x1="352.9888" x2="514.0698" y1="1107.3574" y2="1107.3574"/><text fill="#000000" font-family="sans-serif" font-size="13" lengthAdjust="spacing" textLength="93.0186" x="364.9888" y="1102.6152">VesselTypeDto</text></g><g class="message" data-participant-1="Controller" data-participant-2="Officer"><polygon fill="#181818" points="91.6387,1132.668,81.6387,1136.668,91.6387,1140.668,87.6387,1136.668" style="stroke:#181818;stroke-width:1;"/><line style="stroke:#181818;stroke-width:1;stroke-dasharray:2,2;" x1="85.6387" x2="346.9888" y1="1136.668" y2="1136.668"/><text fill="#000000" font-family="sans-serif" font-size="13" lengthAdjust="spacing" textLength="152.9468" x="97.6387" y="1131.9258">200 OK (VesselTypeDto)</text></g><rect fill="#EEEEEE" height="3" style="stroke:#EEEEEE;stroke-width:1;" width="1365.1509" x="0" y="1165.3232"/><line style="stroke:#000000;stroke-width:1;" x1="0" x2="1365.1509" y1="1165.3232" y2="1165.3232"/><line style="stroke:#000000;stroke-width:1;" x1="0" x2="1365.1509" y1="1168.3232" y2="1168.3232"/><rect fill="#EEEEEE" height="23.3105" style="stroke:#000000;stroke-width:2;" width="62.3374" x="651.4067" y="1154.668"/><text fill="#000000" font-family="sans-serif" font-size="13" font-weight="bold" lengthAdjust="spacing" textLength="44.0527" x="657.4067" y="1171.2363">Search</text><g class="message" data-participant-1="Officer" data-participant-2="Controller"><polygon fill="#181818" points="335.9888,1205.2891,345.9888,1209.2891,335.9888,1213.2891,339.9888,1209.2891" style="stroke:#181818;stroke-width:1;"/><line style="stroke:#181818;stroke-width:1;" x1="80.6387" x2="341.9888" y1="1209.2891" y2="1209.2891"/><text fill="#000000" font-family="sans-serif" font-size="13" lengthAdjust="spacing" textLength="243.3501" x="87.6387" y="1204.5469">GET /api/VesselType/filter?query=pan</text></g><g class="message" data-participant-1="Controller" data-participant-2="Service"><polygon fill="#181818" points="503.0698,1234.5996,513.0698,1238.5996,503.0698,1242.5996,507.0698,1238.5996" style="stroke:#181818;stroke-width:1;"/><line style="stroke:#181818;stroke-width:1;" x1="347.9888" x2="509.0698" y1="1238.5996" y2="1238.5996"/><text fill="#000000" font-family="sans-serif" font-size="13" lengthAdjust="spacing" textLength="113.0835" x="354.9888" y="1233.8574">FilterAsync(query)</text></g><g class="message" data-participant-1="Service" data-participant-2="Repo"><polygon fill="#181818" points="813.6729,1263.9102,823.6729,1267.9102,813.6729,1271.9102,817.6729,1267.9102" style="stroke:#181818;stroke-width:1;"/><line style="stroke:#181818;stroke-width:1;" x1="515.0698" x2="819.6729" y1="1267.9102" y2="1267.9102"/><text fill="#000000" font-family="sans-serif" font-size="13" lengthAdjust="spacing" textLength="286.603" x="522.0698" y="1263.168">FilterAsync(name/description contains query)</text></g><g class="message" data-participant-1="Repo" data-participant-2="Service"><polygon fill="#181818" points="526.0698,1293.2207,516.0698,1297.2207,526.0698,1301.2207,522.0698,1297.2207" style="stroke:#181818;stroke-width:1;"/><line style="stroke:#181818;stroke-width:1;stroke-dasharray:2,2;" x1="520.0698" x2="824.6729" y1="1297.2207" y2="1297.2207"/><text fill="#000000" font-family="sans-serif" font-size="13" lengthAdjust="spacing" textLength="113.2803" x="532.0698" y="1292.4785">List&lt;VesselType&gt;</text></g><g class="message" data-participant-1="Service" data-participant-2="Factory"><polygon fill="#181818" points="1060.4136,1322.5313,1070.4136,1326.5313,1060.4136,1330.5313,1064.4136,1326.5313" style="stroke:#181818;stroke-width:1;"/><line style="stroke:#181818;stroke-width:1;" x1="515.0698" x2="1066.4136" y1="1326.5313" y2="1326.5313"/><text fill="#000000" font-family="sans-serif" font-size="13" lengthAdjust="spacing" textLength="161.3193" x="522.0698" y="1321.7891">CreateDtoVesselType(list)</text></g><g class="message" data-participant-1="Factory" data-participant-2="Service"><polygon fill="#181818" points="526.0698,1351.8418,516.0698,1355.8418,526.0698,1359.8418,522.0698,1355.8418" style="stroke:#181818;stroke-width:1;"/><line style="stroke:#181818;stroke-width:1;stroke-dasharray:2,2;" x1="520.0698" x2="1071.4136" y1="1355.8418" y2="1355.8418"/><text fill="#000000" font-family="sans-serif" font-size="13" lengthAdjust="spacing" textLength="135.8652" x="532.0698" y="1351.0996">List&lt;VesselTypeDto&gt;</text></g><g class="message" data-participant-1="Service" data-participant-2="Log"><polygon fill="#181818" points="1242.0669,1381.1523,1252.0669,1385.1523,1242.0669,1389.1523,1246.0669,1385.1523" style="stroke:#181818;stroke-width:1;"/><line style="stroke:#181818;stroke-width:1;" x1="515.0698" x2="1248.0669" y1="1385.1523" y2="1385.1523"/><text fill="#000000" font-family="sans-serif" font-size="13" lengthAdjust="spacing" textLength="249.0439" x="522.0698" y="1380.4102">Log(SEARCH, officerId, query, SUCCESS)</text></g><g class="message" data-participant-1="Service" data-participant-2="Controller"><polygon fill="#181818" points="358.9888,1410.4629,348.9888,1414.4629,358.9888,1418.4629,354.9888,1414.4629" style="stroke:#181818;stroke-width:1;"/><line style="stroke:#181818;stroke-width:1;stroke-dasharray:2,2;" x1="352.9888" x2="514.0698" y1="1414.4629" y2="1414.4629"/><text fill="#000000" font-family="sans-serif" font-size="13" lengthAdjust="spacing" textLength="135.8652" x="364.9888" y="1409.7207">List&lt;VesselTypeDto&gt;</text></g><g class="message" data-participant-1="Controller" data-participant-2="Officer"><polygon fill="#181818" points="91.6387,1439.7734,81.6387,1443.7734,91.6387,1447.7734,87.6387,1443.7734" style="stroke:#181818;stroke-width:1;"/><line style="stroke:#181818;stroke-width:1;stroke-dasharray:2,2;" x1="85.6387" x2="346.9888" y1="1443.7734" y2="1443.7734"/><text fill="#000000" font-family="sans-serif" font-size="13" lengthAdjust="spacing" textLength="189.687" x="97.6387" y="1439.0313">200 OK (List&lt;VesselTypeDto))</text></g><!--SRC=[lLHTRzem57tFhxZYfK6YfUqZ6amKQCVMZegGzgKlRco2jM0pswaQJVllkuuJ4cXQgbKg3y6Ep_quzvpu2Fh__VEE862_KoOY1cDEOaNMS0nXS7voVd86_aWnOXWGGU66218pk6DQimGMsORfDaOFKxEIgWVVfSBJy94aLC9SKiNZb6a4ZAGmxDdqu5OgKsHPCs6mJ2qNt4YQ9Wpn7-3YaSX81QsyackCcmncooMFc6e1qUNQUvIfe4Hbq1hUJi5tdTX6RBjA9WbJxJoWsdkHMqAhGWTCFM6-75ciFUHcgzPGSxQHccDhMGwqsoqg5DpCblTI_ShFGddVLESoP-R2YpN2iAl8S2aqiaWfDzrh6Mlmf_WNCzN5XdWYOyS3ttbUlm-5eZYjOXHmFAYH1DHf5YoWIpQyMzL_41UIPZqNpKLSdOoDz6hXcAoO0sOQKZhKcOXyQcJRAzyZn4u0pw-OkSX-aZNReaxihktbvySxkKIQ9D25gd0zNmMx8mcdID0Nc0XImT7RdGUHC16RLGTmjDeemeNHC83JdQQAkKB1abqGpQEgdYDHWdQRgr3WEs6Rw6x7KK8QQ4wSBJPCQQuDe_Kqw0tRd5olkN69sfvzjvjXeOZG9FS5qhNOlJJxF5716ikojqD4hUwrf6WlFCQdFvfFXej91wIprvHsu6aRPNT1E1fDWg0seNq7lkukH9QsxS7vwLb1WTQ_uB7LoLeztD13LWzVEBtxXzE_fTrTXlUPtM6TBXnflkNvAIrnZIROiTCp-W2_kFRRVeTeHKJCz8FmdUd1VW0To2yU_iI0ShnqjRqicheAo1Fpqvm1XSFsB92VRiwYxWVS6TwEFysTfp3xqMZCW14LhTuovjNafJ6NF35CVKLjLTRV4F6g4ozpe1CXHpSfNWTPgtGfqv7Ycq8QOV2Ir524DpZX6ctvfUfky7uH4unyJS6zh1WuQDOnc0pdesyxEkQzlaV0fY87PNmPr6vx_m00]--></g></svg>