<svg xmlns="http://www.w3.org/2000/svg" xmlns:xlink="http://www.w3.org/1999/xlink" contentStyleType="text/css" data-diagram-type="SEQUENCE" height="1178px" preserveAspectRatio="none" style="width:1801px;height:1178px;background:#FFFFFF;" version="1.1" viewBox="0 0 1801 1178" width="1801px" zoomAndPan="magnify"><defs/><g><rect fill="none" height="118.2422" style="stroke:#000000;stroke-width:1.5;" width="1072.4028" x="535.2871" y="346.9727"/><rect fill="none" height="118.2422" style="stroke:#000000;stroke-width:1.5;" width="1072.4028" x="535.2871" y="479.2148"/><g><title>Port Authority Officer</title><rect fill="#000000" fill-opacity="0.00000" height="1015.9375" width="8" x="76.6387" y="81.4883"/><line style="stroke:#181818;stroke-width:0.5;stroke-dasharray:5,5;" x1="80" x2="80" y1="81.4883" y2="1097.4258"/></g><g><title>VesselVisitNotificationController</title><rect fill="#000000" fill-opacity="0.00000" height="1015.9375" width="8" x="275.1514" y="81.4883"/><line style="stroke:#181818;stroke-width:0.5;stroke-dasharray:5,5;" x1="278.2773" x2="278.2773" y1="81.4883" y2="1097.4258"/></g><g><title>VesselVisitNotificationService</title><rect fill="#000000" fill-opacity="0.00000" height="1015.9375" width="8" x="643.7466" y="81.4883"/><line style="stroke:#181818;stroke-width:0.5;stroke-dasharray:5,5;" x1="647.2871" x2="647.2871" y1="81.4883" y2="1097.4258"/></g><g><title>VesselVisitNotificationRepository</title><rect fill="#000000" fill-opacity="0.00000" height="1015.9375" width="8" x="974.4692" y="81.4883"/><line style="stroke:#181818;stroke-width:0.5;stroke-dasharray:5,5;" x1="977.6128" x2="977.6128" y1="81.4883" y2="1097.4258"/></g><g><title>DockRepository</title><rect fill="#000000" fill-opacity="0.00000" height="1015.9375" width="8" x="1155.6084" y="81.4883"/><line style="stroke:#181818;stroke-width:0.5;stroke-dasharray:5,5;" x1="1159.3257" x2="1159.3257" y1="81.4883" y2="1097.4258"/></g><g><title>TaskRepository</title><rect fill="#000000" fill-opacity="0.00000" height="1015.9375" width="8" x="1276.9058" y="81.4883"/><line style="stroke:#181818;stroke-width:0.5;stroke-dasharray:5,5;" x1="1280.8911" x2="1280.8911" y1="81.4883" y2="1097.4258"/></g><g><title>UnitOfWork</title><rect fill="#000000" fill-opacity="0.00000" height="1015.9375" width="8" x="1384.0117" y="81.4883"/><line style="stroke:#181818;stroke-width:0.5;stroke-dasharray:5,5;" x1="1387.9204" x2="1387.9204" y1="81.4883" y2="1097.4258"/></g><g><title>VesselVisitNotification</title><rect fill="#000000" fill-opacity="0.00000" height="1015.9375" width="8" x="1514.8965" y="81.4883"/><line style="stroke:#181818;stroke-width:0.5;stroke-dasharray:5,5;" x1="1518.103" x2="1518.103" y1="81.4883" y2="1097.4258"/></g><g><title>VesselVisitNotificationDto</title><rect fill="#000000" fill-opacity="0.00000" height="1015.9375" width="8" x="1694.6445" y="81.4883"/><line style="stroke:#181818;stroke-width:0.5;stroke-dasharray:5,5;" x1="1697.6899" x2="1697.6899" y1="81.4883" y2="1097.4258"/></g><g class="participant participant-head" data-participant="Officer"><text fill="#000000" font-family="sans-serif" font-size="14" lengthAdjust="spacing" textLength="145.2773" x="5" y="78.5352">Port Authority Officer</text><ellipse cx="80.6387" cy="13.5" fill="#E2E2F0" rx="8" ry="8" style="stroke:#181818;stroke-width:0.5;"/><path d="M80.6387,21.5 L80.6387,48.5 M67.6387,29.5 L93.6387,29.5 M80.6387,48.5 L67.6387,63.5 M80.6387,48.5 L93.6387,63.5" fill="none" style="stroke:#181818;stroke-width:0.5;"/></g><g class="participant participant-tail" data-participant="Officer"><text fill="#000000" font-family="sans-serif" font-size="14" lengthAdjust="spacing" textLength="145.2773" x="5" y="1109.9609">Port Authority Officer</text><ellipse cx="80.6387" cy="1121.4141" fill="#E2E2F0" rx="8" ry="8" style="stroke:#181818;stroke-width:0.5;"/><path d="M80.6387,1129.4141 L80.6387,1156.4141 M67.6387,1137.4141 L93.6387,1137.4141 M80.6387,1156.4141 L67.6387,1171.4141 M80.6387,1156.4141 L93.6387,1171.4141" fill="none" style="stroke:#181818;stroke-width:0.5;"/></g><g class="participant participant-head" data-participant="Controller"><text fill="#000000" font-family="sans-serif" font-size="14" lengthAdjust="spacing" textLength="219.748" x="166.2773" y="78.5352">VesselVisitNotificationController</text><path d="M258.6514,37 L258.6514,61 M258.6514,49 L275.6514,49" fill="none" style="stroke:#181818;stroke-width:0.5;"/><ellipse cx="287.6514" cy="49" fill="#E2E2F0" rx="12" ry="12" style="stroke:#181818;stroke-width:0.5;"/></g><g class="participant participant-tail" data-participant="Controller"><text fill="#000000" font-family="sans-serif" font-size="14" lengthAdjust="spacing" textLength="219.748" x="166.2773" y="1109.9609">VesselVisitNotificationController</text><path d="M258.6514,1116.9141 L258.6514,1140.9141 M258.6514,1128.9141 L275.6514,1128.9141" fill="none" style="stroke:#181818;stroke-width:0.5;"/><ellipse cx="287.6514" cy="1128.9141" fill="#E2E2F0" rx="12" ry="12" style="stroke:#181818;stroke-width:0.5;"/></g><g class="participant participant-head" data-participant="Service"><text fill="#000000" font-family="sans-serif" font-size="14" lengthAdjust="spacing" textLength="198.9189" x="545.2871" y="78.5352">VesselVisitNotificationService</text><ellipse cx="647.7466" cy="49" fill="#E2E2F0" rx="12" ry="12" style="stroke:#181818;stroke-width:0.5;"/><line style="stroke:#181818;stroke-width:0.5;" x1="635.7466" x2="659.7466" y1="63" y2="63"/></g><g class="participant participant-tail" data-participant="Service"><text fill="#000000" font-family="sans-serif" font-size="14" lengthAdjust="spacing" textLength="198.9189" x="545.2871" y="1109.9609">VesselVisitNotificationService</text><ellipse cx="647.7466" cy="1128.9141" fill="#E2E2F0" rx="12" ry="12" style="stroke:#181818;stroke-width:0.5;"/><line style="stroke:#181818;stroke-width:0.5;" x1="635.7466" x2="659.7466" y1="1142.9141" y2="1142.9141"/></g><g class="participant participant-head" data-participant="VVNRepo"><text fill="#000000" font-family="sans-serif" font-size="14" lengthAdjust="spacing" textLength="223.7129" x="863.6128" y="78.5352">VesselVisitNotificationRepository</text><ellipse cx="978.4692" cy="49" fill="#E2E2F0" rx="12" ry="12" style="stroke:#181818;stroke-width:0.5;"/><line style="stroke:#181818;stroke-width:0.5;" x1="966.4692" x2="990.4692" y1="63" y2="63"/></g><g class="participant participant-tail" data-participant="VVNRepo"><text fill="#000000" font-family="sans-serif" font-size="14" lengthAdjust="spacing" textLength="223.7129" x="863.6128" y="1109.9609">VesselVisitNotificationRepository</text><ellipse cx="978.4692" cy="1128.9141" fill="#E2E2F0" rx="12" ry="12" style="stroke:#181818;stroke-width:0.5;"/><line style="stroke:#181818;stroke-width:0.5;" x1="966.4692" x2="990.4692" y1="1142.9141" y2="1142.9141"/></g><g class="participant participant-head" data-participant="DockRepo"><text fill="#000000" font-family="sans-serif" font-size="14" lengthAdjust="spacing" textLength="106.5654" x="1103.3257" y="78.5352">DockRepository</text><ellipse cx="1159.6084" cy="49" fill="#E2E2F0" rx="12" ry="12" style="stroke:#181818;stroke-width:0.5;"/><line style="stroke:#181818;stroke-width:0.5;" x1="1147.6084" x2="1171.6084" y1="63" y2="63"/></g><g class="participant participant-tail" data-participant="DockRepo"><text fill="#000000" font-family="sans-serif" font-size="14" lengthAdjust="spacing" textLength="106.5654" x="1103.3257" y="1109.9609">DockRepository</text><ellipse cx="1159.6084" cy="1128.9141" fill="#E2E2F0" rx="12" ry="12" style="stroke:#181818;stroke-width:0.5;"/><line style="stroke:#181818;stroke-width:0.5;" x1="1147.6084" x2="1171.6084" y1="1142.9141" y2="1142.9141"/></g><g class="participant participant-head" data-participant="TaskRepo"><text fill="#000000" font-family="sans-serif" font-size="14" lengthAdjust="spacing" textLength="104.0293" x="1225.8911" y="78.5352">TaskRepository</text><ellipse cx="1280.9058" cy="49" fill="#E2E2F0" rx="12" ry="12" style="stroke:#181818;stroke-width:0.5;"/><line style="stroke:#181818;stroke-width:0.5;" x1="1268.9058" x2="1292.9058" y1="63" y2="63"/></g><g class="participant participant-tail" data-participant="TaskRepo"><text fill="#000000" font-family="sans-serif" font-size="14" lengthAdjust="spacing" textLength="104.0293" x="1225.8911" y="1109.9609">TaskRepository</text><ellipse cx="1280.9058" cy="1128.9141" fill="#E2E2F0" rx="12" ry="12" style="stroke:#181818;stroke-width:0.5;"/><line style="stroke:#181818;stroke-width:0.5;" x1="1268.9058" x2="1292.9058" y1="1142.9141" y2="1142.9141"/></g><g class="participant participant-head" data-participant="UoW"><text fill="#000000" font-family="sans-serif" font-size="14" lengthAdjust="spacing" textLength="78.1826" x="1345.9204" y="78.5352">UnitOfWork</text><ellipse cx="1388.0117" cy="49" fill="#E2E2F0" rx="12" ry="12" style="stroke:#181818;stroke-width:0.5;"/><line style="stroke:#181818;stroke-width:0.5;" x1="1376.0117" x2="1400.0117" y1="63" y2="63"/></g><g class="participant participant-tail" data-participant="UoW"><text fill="#000000" font-family="sans-serif" font-size="14" lengthAdjust="spacing" textLength="78.1826" x="1345.9204" y="1109.9609">UnitOfWork</text><ellipse cx="1388.0117" cy="1128.9141" fill="#E2E2F0" rx="12" ry="12" style="stroke:#181818;stroke-width:0.5;"/><line style="stroke:#181818;stroke-width:0.5;" x1="1376.0117" x2="1400.0117" y1="1142.9141" y2="1142.9141"/></g><g class="participant participant-head" data-participant="VVN"><text fill="#000000" font-family="sans-serif" font-size="14" lengthAdjust="spacing" textLength="151.5869" x="1440.103" y="78.5352">VesselVisitNotification</text><ellipse cx="1518.8965" cy="49" fill="#E2E2F0" rx="12" ry="12" style="stroke:#181818;stroke-width:0.5;"/><line style="stroke:#181818;stroke-width:0.5;" x1="1506.8965" x2="1530.8965" y1="63" y2="63"/></g><g class="participant participant-tail" data-participant="VVN"><text fill="#000000" font-family="sans-serif" font-size="14" lengthAdjust="spacing" textLength="151.5869" x="1440.103" y="1109.9609">VesselVisitNotification</text><ellipse cx="1518.8965" cy="1128.9141" fill="#E2E2F0" rx="12" ry="12" style="stroke:#181818;stroke-width:0.5;"/><line style="stroke:#181818;stroke-width:0.5;" x1="1506.8965" x2="1530.8965" y1="1142.9141" y2="1142.9141"/></g><g class="participant participant-head" data-participant="VVNDtO"><text fill="#000000" font-family="sans-serif" font-size="14" lengthAdjust="spacing" textLength="175.9092" x="1607.6899" y="78.5352">VesselVisitNotificationDto</text><ellipse cx="1698.6445" cy="49" fill="#E2E2F0" rx="12" ry="12" style="stroke:#181818;stroke-width:0.5;"/><line style="stroke:#181818;stroke-width:0.5;" x1="1686.6445" x2="1710.6445" y1="63" y2="63"/></g><g class="participant participant-tail" data-participant="VVNDtO"><text fill="#000000" font-family="sans-serif" font-size="14" lengthAdjust="spacing" textLength="175.9092" x="1607.6899" y="1109.9609">VesselVisitNotificationDto</text><ellipse cx="1698.6445" cy="1128.9141" fill="#E2E2F0" rx="12" ry="12" style="stroke:#181818;stroke-width:0.5;"/><line style="stroke:#181818;stroke-width:0.5;" x1="1686.6445" x2="1710.6445" y1="1142.9141" y2="1142.9141"/></g><rect fill="#EEEEEE" height="3" style="stroke:#EEEEEE;stroke-width:1;" width="1794.5991" x="0" y="112.1436"/><line style="stroke:#000000;stroke-width:1;" x1="0" x2="1794.5991" y1="112.1436" y2="112.1436"/><line style="stroke:#000000;stroke-width:1;" x1="0" x2="1794.5991" y1="115.1436" y2="115.1436"/><rect fill="#EEEEEE" height="23.3105" style="stroke:#000000;stroke-width:2;" width="63.1943" x="865.7024" y="101.4883"/><text fill="#000000" font-family="sans-serif" font-size="13" font-weight="bold" lengthAdjust="spacing" textLength="44.9097" x="871.7024" y="118.0566">Accept</text><g class="message" data-participant-1="Officer" data-participant-2="Controller"><polygon fill="#181818" points="267.1514,152.1094,277.1514,156.1094,267.1514,160.1094,271.1514,156.1094" style="stroke:#181818;stroke-width:1;"/><line style="stroke:#181818;stroke-width:1;" x1="80.6387" x2="273.1514" y1="156.1094" y2="156.1094"/><text fill="#000000" font-family="sans-serif" font-size="13" lengthAdjust="spacing" textLength="122.0972" x="87.6387" y="151.3672">PUT /accept/id/{id}</text></g><g class="message" data-participant-1="Controller" data-participant-2="Service"><polygon fill="#181818" points="635.7466,181.4199,645.7466,185.4199,635.7466,189.4199,639.7466,185.4199" style="stroke:#181818;stroke-width:1;"/><line style="stroke:#181818;stroke-width:1;" x1="279.1514" x2="641.7466" y1="185.4199" y2="185.4199"/><text fill="#000000" font-family="sans-serif" font-size="13" lengthAdjust="spacing" textLength="167.1401" x="286.1514" y="180.6777">AcceptVvnAsync(VvnCode)</text></g><g class="message" data-participant-1="Service" data-participant-2="VVNRepo"><polygon fill="#181818" points="966.4692,210.7305,976.4692,214.7305,966.4692,218.7305,970.4692,214.7305" style="stroke:#181818;stroke-width:1;"/><line style="stroke:#181818;stroke-width:1;" x1="647.7466" x2="972.4692" y1="214.7305" y2="214.7305"/><text fill="#000000" font-family="sans-serif" font-size="13" lengthAdjust="spacing" textLength="165.6104" x="654.7466" y="209.9883">GetCompleteByIdAsync(id)</text></g><g class="message" data-participant-1="VVNRepo" data-participant-2="Service"><polygon fill="#181818" points="658.7466,240.041,648.7466,244.041,658.7466,248.041,654.7466,244.041" style="stroke:#181818;stroke-width:1;"/><line style="stroke:#181818;stroke-width:1;stroke-dasharray:2,2;" x1="652.7466" x2="977.4692" y1="244.041" y2="244.041"/><text fill="#000000" font-family="sans-serif" font-size="13" lengthAdjust="spacing" textLength="26.603" x="664.7466" y="239.2988">VVN</text></g><g class="message" data-participant-1="Service" data-participant-2="DockRepo"><polygon fill="#181818" points="1147.6084,269.3516,1157.6084,273.3516,1147.6084,277.3516,1151.6084,273.3516" style="stroke:#181818;stroke-width:1;"/><line style="stroke:#181818;stroke-width:1;" x1="647.7466" x2="1153.6084" y1="273.3516" y2="273.3516"/><text fill="#000000" font-family="sans-serif" font-size="13" lengthAdjust="spacing" textLength="265.8843" x="654.7466" y="268.6094">BasicDockAttributionAlgorithm(vesselImo)</text></g><g class="message" data-participant-1="DockRepo" data-participant-2="Service"><polygon fill="#181818" points="658.7466,298.6621,648.7466,302.6621,658.7466,306.6621,654.7466,302.6621" style="stroke:#181818;stroke-width:1;"/><line style="stroke:#181818;stroke-width:1;stroke-dasharray:2,2;" x1="652.7466" x2="1158.6084" y1="302.6621" y2="302.6621"/><text fill="#000000" font-family="sans-serif" font-size="13" lengthAdjust="spacing" textLength="31.9795" x="664.7466" y="297.9199">Dock</text></g><g class="message" data-participant-1="Service" data-participant-2="VVN"><polygon fill="#181818" points="1506.8965,327.9727,1516.8965,331.9727,1506.8965,335.9727,1510.8965,331.9727" style="stroke:#181818;stroke-width:1;"/><line style="stroke:#181818;stroke-width:1;" x1="647.7466" x2="1512.8965" y1="331.9727" y2="331.9727"/><text fill="#000000" font-family="sans-serif" font-size="13" lengthAdjust="spacing" textLength="181.5874" x="654.7466" y="327.2305">Accept() / UpdateDock(dock)</text></g><path d="M535.2871,346.9727 L597.4258,346.9727 L597.4258,354.2832 L587.4258,364.2832 L535.2871,364.2832 L535.2871,346.9727" fill="#EEEEEE" style="stroke:#000000;stroke-width:1.5;"/><rect fill="none" height="118.2422" style="stroke:#000000;stroke-width:1.5;" width="1072.4028" x="535.2871" y="346.9727"/><text fill="#000000" font-family="sans-serif" font-size="13" font-weight="bold" lengthAdjust="spacing" textLength="17.1387" x="550.2871" y="360.541">alt</text><text fill="#000000" font-family="sans-serif" font-size="11" font-weight="bold" lengthAdjust="spacing" textLength="197.291" x="612.4258" y="359.6074">[If UnloadingCargoManifest exists]</text><g class="message" data-participant-1="Service" data-participant-2="Service"><line style="stroke:#181818;stroke-width:1;" x1="647.7466" x2="689.7466" y1="385.5938" y2="385.5938"/><line style="stroke:#181818;stroke-width:1;" x1="689.7466" x2="689.7466" y1="385.5938" y2="398.5938"/><line style="stroke:#181818;stroke-width:1;" x1="648.7466" x2="689.7466" y1="398.5938" y2="398.5938"/><polygon fill="#181818" points="658.7466,394.5938,648.7466,398.5938,658.7466,402.5938,654.7466,398.5938" style="stroke:#181818;stroke-width:1;"/><text fill="#000000" font-family="sans-serif" font-size="13" lengthAdjust="spacing" textLength="316.7227" x="654.7466" y="380.8516">CreateTasksAsync(UnloadingCargoManifest, dock)</text></g><g class="message" data-participant-1="Service" data-participant-2="TaskRepo"><polygon fill="#181818" points="1268.9058,423.9043,1278.9058,427.9043,1268.9058,431.9043,1272.9058,427.9043" style="stroke:#181818;stroke-width:1;"/><line style="stroke:#181818;stroke-width:1;" x1="647.7466" x2="1274.9058" y1="427.9043" y2="427.9043"/><text fill="#000000" font-family="sans-serif" font-size="13" lengthAdjust="spacing" textLength="180.2607" x="654.7466" y="423.1621">Add + save Unloading Tasks</text></g><g class="message" data-participant-1="Service" data-participant-2="VVN"><polygon fill="#181818" points="1506.8965,453.2148,1516.8965,457.2148,1506.8965,461.2148,1510.8965,457.2148" style="stroke:#181818;stroke-width:1;"/><line style="stroke:#181818;stroke-width:1;" x1="647.7466" x2="1512.8965" y1="457.2148" y2="457.2148"/><text fill="#000000" font-family="sans-serif" font-size="13" lengthAdjust="spacing" textLength="163.2363" x="654.7466" y="452.4727">SetTasks(unloadingTasks)</text></g><path d="M535.2871,479.2148 L597.4258,479.2148 L597.4258,486.5254 L587.4258,496.5254 L535.2871,496.5254 L535.2871,479.2148" fill="#EEEEEE" style="stroke:#000000;stroke-width:1.5;"/><rect fill="none" height="118.2422" style="stroke:#000000;stroke-width:1.5;" width="1072.4028" x="535.2871" y="479.2148"/><text fill="#000000" font-family="sans-serif" font-size="13" font-weight="bold" lengthAdjust="spacing" textLength="17.1387" x="550.2871" y="492.7832">alt</text><text fill="#000000" font-family="sans-serif" font-size="11" font-weight="bold" lengthAdjust="spacing" textLength="184.7871" x="612.4258" y="491.8496">[If LoadingCargoManifest exists]</text><g class="message" data-participant-1="Service" data-participant-2="Service"><line style="stroke:#181818;stroke-width:1;" x1="647.7466" x2="689.7466" y1="517.8359" y2="517.8359"/><line style="stroke:#181818;stroke-width:1;" x1="689.7466" x2="689.7466" y1="517.8359" y2="530.8359"/><line style="stroke:#181818;stroke-width:1;" x1="648.7466" x2="689.7466" y1="530.8359" y2="530.8359"/><polygon fill="#181818" points="658.7466,526.8359,648.7466,530.8359,658.7466,534.8359,654.7466,530.8359" style="stroke:#181818;stroke-width:1;"/><text fill="#000000" font-family="sans-serif" font-size="13" lengthAdjust="spacing" textLength="302.8213" x="654.7466" y="513.0938">CreateTasksAsync(LoadingCargoManifest, dock)</text></g><g class="message" data-participant-1="Service" data-participant-2="TaskRepo"><polygon fill="#181818" points="1268.9058,556.1465,1278.9058,560.1465,1268.9058,564.1465,1272.9058,560.1465" style="stroke:#181818;stroke-width:1;"/><line style="stroke:#181818;stroke-width:1;" x1="647.7466" x2="1274.9058" y1="560.1465" y2="560.1465"/><text fill="#000000" font-family="sans-serif" font-size="13" lengthAdjust="spacing" textLength="166.3594" x="654.7466" y="555.4043">Add + save Loading Tasks</text></g><g class="message" data-participant-1="Service" data-participant-2="VVN"><polygon fill="#181818" points="1506.8965,585.457,1516.8965,589.457,1506.8965,593.457,1510.8965,589.457" style="stroke:#181818;stroke-width:1;"/><line style="stroke:#181818;stroke-width:1;" x1="647.7466" x2="1512.8965" y1="589.457" y2="589.457"/><text fill="#000000" font-family="sans-serif" font-size="13" lengthAdjust="spacing" textLength="147.1006" x="654.7466" y="584.7148">SetTasks(loadingTasks)</text></g><g class="message" data-participant-1="Service" data-participant-2="VVNRepo"><polygon fill="#181818" points="966.4692,621.7676,976.4692,625.7676,966.4692,629.7676,970.4692,625.7676" style="stroke:#181818;stroke-width:1;"/><line style="stroke:#181818;stroke-width:1;" x1="647.7466" x2="972.4692" y1="625.7676" y2="625.7676"/><text fill="#000000" font-family="sans-serif" font-size="13" lengthAdjust="spacing" textLength="110.2588" x="654.7466" y="621.0254">Update VVN state</text></g><g class="message" data-participant-1="Service" data-participant-2="UoW"><polygon fill="#181818" points="1376.0117,651.0781,1386.0117,655.0781,1376.0117,659.0781,1380.0117,655.0781" style="stroke:#181818;stroke-width:1;"/><line style="stroke:#181818;stroke-width:1;" x1="647.7466" x2="1382.0117" y1="655.0781" y2="655.0781"/><text fill="#000000" font-family="sans-serif" font-size="13" lengthAdjust="spacing" textLength="86.9883" x="654.7466" y="650.3359">CommitAsync</text></g><g class="message" data-participant-1="Service" data-participant-2="VVNDtO"><polygon fill="#181818" points="1686.6445,680.3887,1696.6445,684.3887,1686.6445,688.3887,1690.6445,684.3887" style="stroke:#181818;stroke-width:1;"/><line style="stroke:#181818;stroke-width:1;" x1="647.7466" x2="1692.6445" y1="684.3887" y2="684.3887"/><text fill="#000000" font-family="sans-serif" font-size="13" lengthAdjust="spacing" textLength="239.2432" x="654.7466" y="679.6465">CreateVesselVisitNotificationDto(VVN)</text></g><g class="message" data-participant-1="Service" data-participant-2="Controller"><polygon fill="#181818" points="290.1514,709.6992,280.1514,713.6992,290.1514,717.6992,286.1514,713.6992" style="stroke:#181818;stroke-width:1;"/><line style="stroke:#181818;stroke-width:1;stroke-dasharray:2,2;" x1="284.1514" x2="646.7466" y1="713.6992" y2="713.6992"/><text fill="#000000" font-family="sans-serif" font-size="13" lengthAdjust="spacing" textLength="51.3018" x="296.1514" y="708.957">VVNDtO</text></g><g class="message" data-participant-1="Controller" data-participant-2="Officer"><polygon fill="#181818" points="91.6387,739.0098,81.6387,743.0098,91.6387,747.0098,87.6387,743.0098" style="stroke:#181818;stroke-width:1;"/><line style="stroke:#181818;stroke-width:1;stroke-dasharray:2,2;" x1="85.6387" x2="278.1514" y1="743.0098" y2="743.0098"/><text fill="#000000" font-family="sans-serif" font-size="13" lengthAdjust="spacing" textLength="106.8882" x="97.6387" y="738.2676">200 OK, VVNDtO</text></g><rect fill="#EEEEEE" height="3" style="stroke:#EEEEEE;stroke-width:1;" width="1794.5991" x="0" y="771.665"/><line style="stroke:#000000;stroke-width:1;" x1="0" x2="1794.5991" y1="771.665" y2="771.665"/><line style="stroke:#000000;stroke-width:1;" x1="0" x2="1794.5991" y1="774.665" y2="774.665"/><rect fill="#EEEEEE" height="23.3105" style="stroke:#000000;stroke-width:2;" width="59.0049" x="867.7971" y="761.0098"/><text fill="#000000" font-family="sans-serif" font-size="13" font-weight="bold" lengthAdjust="spacing" textLength="40.7202" x="873.7971" y="777.5781">Reject</text><g class="message" data-participant-1="Officer" data-participant-2="Controller"><polygon fill="#181818" points="267.1514,811.6309,277.1514,815.6309,267.1514,819.6309,271.1514,815.6309" style="stroke:#181818;stroke-width:1;"/><line style="stroke:#181818;stroke-width:1;" x1="80.6387" x2="273.1514" y1="815.6309" y2="815.6309"/><text fill="#000000" font-family="sans-serif" font-size="13" lengthAdjust="spacing" textLength="70.624" x="87.6387" y="810.8887">PUT /reject</text></g><g class="message" data-participant-1="Controller" data-participant-2="Service"><polygon fill="#181818" points="635.7466,840.9414,645.7466,844.9414,635.7466,848.9414,639.7466,844.9414" style="stroke:#181818;stroke-width:1;"/><line style="stroke:#181818;stroke-width:1;" x1="279.1514" x2="641.7466" y1="844.9414" y2="844.9414"/><text fill="#000000" font-family="sans-serif" font-size="13" lengthAdjust="spacing" textLength="344.5952" x="286.1514" y="840.1992">MarkAsPendingAsync(RejectVesselVisitNotificationDto)</text></g><g class="message" data-participant-1="Service" data-participant-2="VVNRepo"><polygon fill="#181818" points="966.4692,870.252,976.4692,874.252,966.4692,878.252,970.4692,874.252" style="stroke:#181818;stroke-width:1;"/><line style="stroke:#181818;stroke-width:1;" x1="647.7466" x2="972.4692" y1="874.252" y2="874.252"/><text fill="#000000" font-family="sans-serif" font-size="13" lengthAdjust="spacing" textLength="105.2061" x="654.7466" y="869.5098">GetByIdAsync(id)</text></g><g class="message" data-participant-1="VVNRepo" data-participant-2="Service"><polygon fill="#181818" points="658.7466,899.5625,648.7466,903.5625,658.7466,907.5625,654.7466,903.5625" style="stroke:#181818;stroke-width:1;"/><line style="stroke:#181818;stroke-width:1;stroke-dasharray:2,2;" x1="652.7466" x2="977.4692" y1="903.5625" y2="903.5625"/><text fill="#000000" font-family="sans-serif" font-size="13" lengthAdjust="spacing" textLength="26.603" x="664.7466" y="898.8203">VVN</text></g><g class="message" data-participant-1="Service" data-participant-2="VVN"><polygon fill="#181818" points="1506.8965,928.873,1516.8965,932.873,1506.8965,936.873,1510.8965,932.873" style="stroke:#181818;stroke-width:1;"/><line style="stroke:#181818;stroke-width:1;" x1="647.7466" x2="1512.8965" y1="932.873" y2="932.873"/><text fill="#000000" font-family="sans-serif" font-size="13" lengthAdjust="spacing" textLength="132.7803" x="654.7466" y="928.1309">MarkPending(reason)</text></g><g class="message" data-participant-1="Service" data-participant-2="VVNRepo"><polygon fill="#181818" points="966.4692,958.1836,976.4692,962.1836,966.4692,966.1836,970.4692,962.1836" style="stroke:#181818;stroke-width:1;"/><line style="stroke:#181818;stroke-width:1;" x1="647.7466" x2="972.4692" y1="962.1836" y2="962.1836"/><text fill="#000000" font-family="sans-serif" font-size="13" lengthAdjust="spacing" textLength="110.2588" x="654.7466" y="957.4414">Update VVN state</text></g><g class="message" data-participant-1="Service" data-participant-2="UoW"><polygon fill="#181818" points="1376.0117,987.4941,1386.0117,991.4941,1376.0117,995.4941,1380.0117,991.4941" style="stroke:#181818;stroke-width:1;"/><line style="stroke:#181818;stroke-width:1;" x1="647.7466" x2="1382.0117" y1="991.4941" y2="991.4941"/><text fill="#000000" font-family="sans-serif" font-size="13" lengthAdjust="spacing" textLength="86.9883" x="654.7466" y="986.752">CommitAsync</text></g><g class="message" data-participant-1="Service" data-participant-2="VVNDtO"><polygon fill="#181818" points="1686.6445,1016.8047,1696.6445,1020.8047,1686.6445,1024.8047,1690.6445,1020.8047" style="stroke:#181818;stroke-width:1;"/><line style="stroke:#181818;stroke-width:1;" x1="647.7466" x2="1692.6445" y1="1020.8047" y2="1020.8047"/><text fill="#000000" font-family="sans-serif" font-size="13" lengthAdjust="spacing" textLength="239.2432" x="654.7466" y="1016.0625">CreateVesselVisitNotificationDto(VVN)</text></g><g class="message" data-participant-1="Service" data-participant-2="Controller"><polygon fill="#181818" points="290.1514,1046.1152,280.1514,1050.1152,290.1514,1054.1152,286.1514,1050.1152" style="stroke:#181818;stroke-width:1;"/><line style="stroke:#181818;stroke-width:1;stroke-dasharray:2,2;" x1="284.1514" x2="646.7466" y1="1050.1152" y2="1050.1152"/><text fill="#000000" font-family="sans-serif" font-size="13" lengthAdjust="spacing" textLength="51.3018" x="296.1514" y="1045.373">VVNDtO</text></g><g class="message" data-participant-1="Controller" data-participant-2="Officer"><polygon fill="#181818" points="91.6387,1075.4258,81.6387,1079.4258,91.6387,1083.4258,87.6387,1079.4258" style="stroke:#181818;stroke-width:1;"/><line style="stroke:#181818;stroke-width:1;stroke-dasharray:2,2;" x1="85.6387" x2="278.1514" y1="1079.4258" y2="1079.4258"/><text fill="#000000" font-family="sans-serif" font-size="13" lengthAdjust="spacing" textLength="106.8882" x="97.6387" y="1074.6836">200 OK, VVNDtO</text></g><!--SRC=[tLDHRzem47xthpZnb6YjgFPOYKafI1CQBQWjzDcD3VK8FcGVQ6ZQVv_jn25DYTZMFYqFaNtttUVxplvuJcYWDqD3aEte1OsY0qoNIvLBqmDkuvgnPznfmSq1UWjfhImMoYgwGr8kpqcX7g8cWqLH5HwtJ6hoj5s53zBitHcXgbgVAxcNMtGXD8TGjLZS-KXTDS9ytOB4K8rvvBQDYQ4QCzUAfiidDEkGd-FJkSPYE-Tm8y887T6KiS40iZoNMuB1WB5gw73vfJ56k8RP_17wFE3wIlH_Al6BDG0ENitFOKkwnLvdzg3pn2s6A6JA8iA1gx4vy5T9Gzni2qdovZ0MPOaIAOkGorVSNc239yxMPMwuLRdVPqH6FU-yrgnO-NVriadsOHZZ3QQihddDxCEj5cijIGfzc6y59-bXYN2_b35U48oNCDS5Sg7qQiZD2c-vLajf2UGFPSaoS5-3zdZWq4Z7vs_UbgfFyrn0ULgB9xuOtwCGy0aityjZAo7_vl1IquEaa4rs4HssgNiveXOr-H19a_SAclo5d1DYJZwvyY93jIMtQgASqRmEt6mK1Gaj2cUPMcUtmHA7RBptjfagwpNzuo3HUjVm-UeAfjykcXQzbzzb_WSMDG7NQSrRRjQPdRdPk46LLrGoTslfzkq_-BMyCTz5rKFY9cbHf__7JVq6]--></g></svg>