<svg xmlns="http://www.w3.org/2000/svg" xmlns:xlink="http://www.w3.org/1999/xlink" contentStyleType="text/css" data-diagram-type="CLASS" height="763.2px" preserveAspectRatio="none" style="width:1061px;height:763px;background:#FFFFFF;" version="1.1" viewBox="0 0 1061 763" width="1061.4px" zoomAndPan="magnify"><defs/><g><!--cluster Domain--><g class="cluster" data-entity="Domain" data-source-line="8" data-uid="ent0002" id="cluster_Domain"><rect fill="none" height="315.6" rx="1.5" ry="1.5" style="stroke:#000000;stroke-width:0.9;" width="648" x="409.8" y="4.2"/><text fill="#000000" font-family="sans-serif" font-size="8.4" font-weight="bold" lengthAdjust="spacing" textLength="30.8027" x="718.3986" y="14.4645">Domain</text></g><!--cluster DTOs--><g class="cluster" data-entity="DTOs" data-source-line="60" data-uid="ent0010" id="cluster_DTOs"><rect fill="none" height="313.2" rx="1.5" ry="1.5" style="stroke:#000000;stroke-width:0.9;" width="486" x="222.6" y="334.2"/><text fill="#000000" font-family="sans-serif" font-size="8.4" font-weight="bold" lengthAdjust="spacing" textLength="22.4027" x="454.3986" y="344.4645">DTOs</text></g><!--cluster Application--><g class="cluster" data-entity="Application" data-source-line="106" data-uid="ent0016" id="cluster_Application"><rect fill="none" height="55.8" rx="1.5" ry="1.5" style="stroke:#000000;stroke-width:0.9;" width="232.5" x="118.2" y="264"/><text fill="#000000" font-family="sans-serif" font-size="8.4" font-weight="bold" lengthAdjust="spacing" textLength="45.7324" x="211.5838" y="274.2645">Application</text></g><!--cluster Infrastructure--><g class="cluster" data-entity="Infrastructure" data-source-line="134" data-uid="ent0019" id="cluster_Infrastructure"><rect fill="none" height="235.8" rx="1.5" ry="1.5" style="stroke:#000000;stroke-width:0.9;" width="148.2" x="232.8" y="13.8"/><text fill="#000000" font-family="sans-serif" font-size="8.4" font-weight="bold" lengthAdjust="spacing" textLength="54.6123" x="279.5938" y="24.0645">Infrastructure</text></g><!--cluster Presentation--><g class="cluster" data-entity="Presentation" data-source-line="166" data-uid="ent0025" id="cluster_Presentation"><rect fill="none" height="55.8" rx="1.5" ry="1.5" style="stroke:#000000;stroke-width:0.9;" width="94.2" x="4.2" y="622.8"/><text fill="#000000" font-family="sans-serif" font-size="8.4" font-weight="bold" lengthAdjust="spacing" textLength="50.8799" x="25.8601" y="633.0645">Presentation</text></g><!--cluster Cross-cutting--><g class="cluster" data-entity="Cross-cutting" data-source-line="181" data-uid="ent0027" id="cluster_Cross-cutting"><rect fill="none" height="55.8" rx="1.5" ry="1.5" style="stroke:#000000;stroke-width:0.9;" width="72" x="270.9" y="661.8"/><text fill="#000000" font-family="sans-serif" font-size="8.4" font-weight="bold" lengthAdjust="spacing" textLength="54.6" x="279.6" y="672.0645">Cross-cutting</text></g><!--class EntityDock--><g class="entity" data-entity="EntityDock" data-source-line="9" data-uid="ent0003" id="entity_EntityDock"><rect fill="#F1F1F1" height="124.5539" rx="1.5" ry="1.5" style="stroke:#181818;stroke-width:0.3;" width="279.6422" x="419.4" y="145.2"/><ellipse cx="536.598" cy="154.8" fill="#C2C2C2" rx="6.6" ry="6.6" style="stroke:#181818;stroke-width:0.6;"/><path d="M538.2574,152.325 Q538.3512,152.1937 538.4637,152.1281 Q538.5762,152.0625 538.7074,152.0625 Q538.9324,152.0625 539.073,152.2219 Q539.2137,152.3719 539.2137,152.7375 L539.2137,153.6094 Q539.2137,153.975 539.073,154.1344 Q538.9324,154.2937 538.7074,154.2937 Q538.5012,154.2937 538.3793,154.1719 Q538.2574,154.0594 538.1918,153.75 Q538.1637,153.5344 538.0512,153.4219 Q537.8543,153.1969 537.4887,153.0656 Q537.123,152.9344 536.748,152.9344 Q536.2887,152.9344 535.9043,153.1312 Q535.5293,153.3281 535.2293,153.7781 Q534.9387,154.2281 534.9387,154.8469 L534.9387,155.5031 Q534.9387,156.2437 535.473,156.7406 Q536.0074,157.2281 536.9637,157.2281 Q537.5262,157.2281 537.9199,157.0781 Q538.1543,156.9844 538.4074,156.7219 Q538.5668,156.5625 538.6512,156.5156 Q538.7449,156.4687 538.8668,156.4687 Q539.0637,156.4687 539.2137,156.6281 Q539.373,156.7781 539.373,156.9844 Q539.373,157.1906 539.1668,157.4344 Q538.8668,157.7812 538.3887,157.9781 Q537.7418,158.25 536.9637,158.25 Q536.0543,158.25 535.3324,157.875 Q534.7418,157.575 534.3293,156.9375 Q533.9168,156.2906 533.9168,155.5219 L533.9168,154.8281 Q533.9168,154.0312 534.2824,153.3469 Q534.6574,152.6531 535.3137,152.2875 Q535.9699,151.9125 536.7105,151.9125 Q537.1512,151.9125 537.5355,152.0156 Q537.9293,152.1094 538.2574,152.325 Z " fill="#000000"/><text fill="#000000" font-family="sans-serif" font-size="8.4" lengthAdjust="spacing" textLength="40.1461" x="548.898" y="158.2781">EntityDock</text><line style="stroke:#181818;stroke-width:0.3;" x1="420" x2="698.4422" y1="164.4" y2="164.4"/><text fill="#000000" font-family="sans-serif" font-size="8.4" lengthAdjust="spacing" textLength="57.4301" x="423" y="175.8645">-string Location</text><text fill="#000000" font-family="sans-serif" font-size="8.4" lengthAdjust="spacing" textLength="63.0451" x="423" y="187.0371">-double LengthM</text><text fill="#000000" font-family="sans-serif" font-size="8.4" lengthAdjust="spacing" textLength="59.768" x="423" y="198.2098">-double DepthM</text><text fill="#000000" font-family="sans-serif" font-size="8.4" lengthAdjust="spacing" textLength="71.4246" x="423" y="209.3824">-double MaxDraftM</text><text fill="#000000" font-family="sans-serif" font-size="8.4" lengthAdjust="spacing" textLength="71.8963" x="423" y="220.5551">-DockStatus Status</text><text fill="#000000" font-family="sans-serif" font-size="8.4" lengthAdjust="spacing" textLength="40.3881" x="423" y="231.7277">+DockId Id</text><text fill="#000000" font-family="sans-serif" font-size="8.4" lengthAdjust="spacing" textLength="66.5396" x="423" y="242.9004">+DockCode Code</text><text fill="#000000" font-family="sans-serif" font-size="8.4" lengthAdjust="spacing" textLength="272.4422" x="423" y="254.073">+IReadOnlyCollection~PhysicalResourceCode~ PhysicalResourceCodes</text><text fill="#000000" font-family="sans-serif" font-size="8.4" lengthAdjust="spacing" textLength="229.023" x="423" y="265.2457">+IReadOnlyCollection~VesselTypeId~ AllowedVesselTypeIds</text></g><!--class DockId--><g class="entity" data-entity="DockId" data-source-line="31" data-uid="ent0004" id="entity_DockId"><rect fill="#F1F1F1" height="35.1727" rx="1.5" ry="1.5" style="stroke:#181818;stroke-width:0.3;" width="51.5584" x="849" y="274.5"/><ellipse cx="860.7968" cy="284.1" fill="#C2C2C2" rx="6.6" ry="6.6" style="stroke:#181818;stroke-width:0.6;"/><path d="M862.4561,281.625 Q862.5499,281.4937 862.6624,281.4281 Q862.7749,281.3625 862.9061,281.3625 Q863.1311,281.3625 863.2718,281.5219 Q863.4124,281.6719 863.4124,282.0375 L863.4124,282.9094 Q863.4124,283.275 863.2718,283.4344 Q863.1311,283.5937 862.9061,283.5937 Q862.6999,283.5937 862.578,283.4719 Q862.4561,283.3594 862.3905,283.05 Q862.3624,282.8344 862.2499,282.7219 Q862.053,282.4969 861.6874,282.3656 Q861.3218,282.2344 860.9468,282.2344 Q860.4874,282.2344 860.103,282.4312 Q859.728,282.6281 859.428,283.0781 Q859.1374,283.5281 859.1374,284.1469 L859.1374,284.8031 Q859.1374,285.5437 859.6718,286.0406 Q860.2061,286.5281 861.1624,286.5281 Q861.7249,286.5281 862.1186,286.3781 Q862.353,286.2844 862.6061,286.0219 Q862.7655,285.8625 862.8499,285.8156 Q862.9436,285.7687 863.0655,285.7687 Q863.2624,285.7687 863.4124,285.9281 Q863.5718,286.0781 863.5718,286.2844 Q863.5718,286.4906 863.3655,286.7344 Q863.0655,287.0812 862.5874,287.2781 Q861.9405,287.55 861.1624,287.55 Q860.253,287.55 859.5311,287.175 Q858.9405,286.875 858.528,286.2375 Q858.1155,285.5906 858.1155,284.8219 L858.1155,284.1281 Q858.1155,283.3312 858.4811,282.6469 Q858.8561,281.9531 859.5124,281.5875 Q860.1686,281.2125 860.9093,281.2125 Q861.3499,281.2125 861.7343,281.3156 Q862.128,281.4094 862.4561,281.625 Z " fill="#000000"/><text fill="#000000" font-family="sans-serif" font-size="8.4" lengthAdjust="spacing" textLength="26.1434" x="869.8183" y="287.5781">DockId</text><line style="stroke:#181818;stroke-width:0.3;" x1="849.6" x2="899.9584" y1="293.7" y2="293.7"/><text fill="#000000" font-family="sans-serif" font-size="8.4" lengthAdjust="spacing" textLength="44.3584" x="852.6" y="305.1645">-Guid Value</text></g><!--class DockCode--><g class="entity" data-entity="DockCode" data-source-line="37" data-uid="ent0005" id="entity_DockCode"><rect fill="#F1F1F1" height="35.1727" rx="1.5" ry="1.5" style="stroke:#181818;stroke-width:0.3;" width="58.4191" x="845.7" y="218.1"/><ellipse cx="854.7" cy="227.7" fill="#C2C2C2" rx="6.6" ry="6.6" style="stroke:#181818;stroke-width:0.6;"/><path d="M856.3594,225.225 Q856.4531,225.0937 856.5656,225.0281 Q856.6781,224.9625 856.8094,224.9625 Q857.0344,224.9625 857.175,225.1219 Q857.3156,225.2719 857.3156,225.6375 L857.3156,226.5094 Q857.3156,226.875 857.175,227.0344 Q857.0344,227.1937 856.8094,227.1937 Q856.6031,227.1937 856.4812,227.0719 Q856.3594,226.9594 856.2937,226.65 Q856.2656,226.4344 856.1531,226.3219 Q855.9563,226.0969 855.5906,225.9656 Q855.225,225.8344 854.85,225.8344 Q854.3906,225.8344 854.0063,226.0312 Q853.6313,226.2281 853.3313,226.6781 Q853.0406,227.1281 853.0406,227.7469 L853.0406,228.4031 Q853.0406,229.1437 853.575,229.6406 Q854.1094,230.1281 855.0656,230.1281 Q855.6281,230.1281 856.0219,229.9781 Q856.2563,229.8844 856.5094,229.6219 Q856.6687,229.4625 856.7531,229.4156 Q856.8469,229.3687 856.9688,229.3687 Q857.1656,229.3687 857.3156,229.5281 Q857.475,229.6781 857.475,229.8844 Q857.475,230.0906 857.2688,230.3344 Q856.9688,230.6812 856.4906,230.8781 Q855.8438,231.15 855.0656,231.15 Q854.1563,231.15 853.4344,230.775 Q852.8438,230.475 852.4313,229.8375 Q852.0188,229.1906 852.0188,228.4219 L852.0188,227.7281 Q852.0188,226.9312 852.3844,226.2469 Q852.7594,225.5531 853.4156,225.1875 Q854.0719,224.8125 854.8125,224.8125 Q855.2531,224.8125 855.6375,224.9156 Q856.0313,225.0094 856.3594,225.225 Z " fill="#000000"/><text fill="#000000" font-family="sans-serif" font-size="8.4" lengthAdjust="spacing" textLength="39.2191" x="863.1" y="231.1781">DockCode</text><line style="stroke:#181818;stroke-width:0.3;" x1="846.3" x2="903.5191" y1="237.3" y2="237.3"/><text fill="#000000" font-family="sans-serif" font-size="8.4" lengthAdjust="spacing" textLength="49.2639" x="849.3" y="248.7645">+string Value</text></g><!--class PhysicalResourceCode--><g class="entity" data-entity="PhysicalResourceCode" data-source-line="41" data-uid="ent0006" id="entity_PhysicalResourceCode"><rect fill="#F1F1F1" height="35.1727" rx="1.5" ry="1.5" style="stroke:#181818;stroke-width:0.3;" width="106.51" x="821.4" y="161.7"/><ellipse cx="830.4" cy="171.3" fill="#C2C2C2" rx="6.6" ry="6.6" style="stroke:#181818;stroke-width:0.6;"/><path d="M832.0594,168.825 Q832.1531,168.6937 832.2656,168.6281 Q832.3781,168.5625 832.5094,168.5625 Q832.7344,168.5625 832.875,168.7219 Q833.0156,168.8719 833.0156,169.2375 L833.0156,170.1094 Q833.0156,170.475 832.875,170.6344 Q832.7344,170.7937 832.5094,170.7937 Q832.3031,170.7937 832.1813,170.6719 Q832.0594,170.5594 831.9938,170.25 Q831.9656,170.0344 831.8531,169.9219 Q831.6563,169.6969 831.2906,169.5656 Q830.925,169.4344 830.55,169.4344 Q830.0906,169.4344 829.7063,169.6312 Q829.3313,169.8281 829.0313,170.2781 Q828.7406,170.7281 828.7406,171.3469 L828.7406,172.0031 Q828.7406,172.7437 829.275,173.2406 Q829.8094,173.7281 830.7656,173.7281 Q831.3281,173.7281 831.7219,173.5781 Q831.9563,173.4844 832.2094,173.2219 Q832.3688,173.0625 832.4531,173.0156 Q832.5469,172.9687 832.6687,172.9687 Q832.8656,172.9687 833.0156,173.1281 Q833.175,173.2781 833.175,173.4844 Q833.175,173.6906 832.9688,173.9344 Q832.6687,174.2812 832.1906,174.4781 Q831.5437,174.75 830.7656,174.75 Q829.8562,174.75 829.1344,174.375 Q828.5437,174.075 828.1313,173.4375 Q827.7188,172.7906 827.7188,172.0219 L827.7188,171.3281 Q827.7188,170.5312 828.0844,169.8469 Q828.4594,169.1531 829.1156,168.7875 Q829.7719,168.4125 830.5125,168.4125 Q830.9531,168.4125 831.3375,168.5156 Q831.7312,168.6094 832.0594,168.825 Z " fill="#000000"/><text fill="#000000" font-family="sans-serif" font-size="8.4" lengthAdjust="spacing" textLength="87.31" x="838.8" y="174.7781">PhysicalResourceCode</text><line style="stroke:#181818;stroke-width:0.3;" x1="822" x2="927.31" y1="180.9" y2="180.9"/><text fill="#000000" font-family="sans-serif" font-size="8.4" lengthAdjust="spacing" textLength="49.2639" x="825" y="192.3645">+string Value</text></g><!--class VesselTypeId--><g class="entity" data-entity="VesselTypeId" data-source-line="45" data-uid="ent0007" id="entity_VesselTypeId"><rect fill="#F1F1F1" height="35.1727" rx="1.5" ry="1.5" style="stroke:#181818;stroke-width:0.3;" width="70.0922" x="839.7" y="105.3"/><ellipse cx="848.7" cy="114.9" fill="#C2C2C2" rx="6.6" ry="6.6" style="stroke:#181818;stroke-width:0.6;"/><path d="M850.3594,112.425 Q850.4531,112.2938 850.5656,112.2281 Q850.6781,112.1625 850.8094,112.1625 Q851.0344,112.1625 851.175,112.3219 Q851.3156,112.4719 851.3156,112.8375 L851.3156,113.7094 Q851.3156,114.075 851.175,114.2344 Q851.0344,114.3938 850.8094,114.3938 Q850.6031,114.3938 850.4812,114.2719 Q850.3594,114.1594 850.2937,113.85 Q850.2656,113.6344 850.1531,113.5219 Q849.9563,113.2969 849.5906,113.1656 Q849.225,113.0344 848.85,113.0344 Q848.3906,113.0344 848.0063,113.2313 Q847.6313,113.4281 847.3313,113.8781 Q847.0406,114.3281 847.0406,114.9469 L847.0406,115.6031 Q847.0406,116.3438 847.575,116.8406 Q848.1094,117.3281 849.0656,117.3281 Q849.6281,117.3281 850.0219,117.1781 Q850.2563,117.0844 850.5094,116.8219 Q850.6687,116.6625 850.7531,116.6156 Q850.8469,116.5688 850.9688,116.5688 Q851.1656,116.5688 851.3156,116.7281 Q851.475,116.8781 851.475,117.0844 Q851.475,117.2906 851.2688,117.5344 Q850.9688,117.8813 850.4906,118.0781 Q849.8438,118.35 849.0656,118.35 Q848.1563,118.35 847.4344,117.975 Q846.8438,117.675 846.4313,117.0375 Q846.0188,116.3906 846.0188,115.6219 L846.0188,114.9281 Q846.0188,114.1313 846.3844,113.4469 Q846.7594,112.7531 847.4156,112.3875 Q848.0719,112.0125 848.8125,112.0125 Q849.2531,112.0125 849.6375,112.1156 Q850.0313,112.2094 850.3594,112.425 Z " fill="#000000"/><text fill="#000000" font-family="sans-serif" font-size="8.4" lengthAdjust="spacing" textLength="50.8922" x="857.1" y="118.3781">VesselTypeId</text><line style="stroke:#181818;stroke-width:0.3;" x1="840.3" x2="909.1922" y1="124.5" y2="124.5"/><text fill="#000000" font-family="sans-serif" font-size="8.4" lengthAdjust="spacing" textLength="46.4666" x="843.3" y="135.9645">+Guid Value</text></g><!--class DockStatus--><g class="entity" data-entity="DockStatus" data-source-line="49" data-uid="ent0008" id="entity_DockStatus"><rect fill="#F1F1F1" height="57.518" rx="1.5" ry="1.5" style="stroke:#181818;stroke-width:0.3;" width="62.1516" x="843.6" y="26.4"/><ellipse cx="852.6" cy="36" fill="#ABABAB" rx="6.6" ry="6.6" style="stroke:#181818;stroke-width:0.6;"/><path d="M851.9156,36.4781 L851.9156,37.9781 L854.5125,37.9781 L854.5125,37.425 Q854.5125,37.0594 854.6531,36.9 Q854.8031,36.7406 855.0281,36.7406 Q855.2531,36.7406 855.3938,36.9 Q855.5344,37.0594 855.5344,37.425 L855.5344,39 L850.7344,39 Q850.3594,39 850.2,38.8594 Q850.05,38.7188 850.05,38.4844 Q850.05,38.2594 850.2094,38.1188 Q850.3688,37.9781 850.7344,37.9781 L850.8938,37.9781 L850.8938,33.9844 L850.7344,33.9844 Q850.3594,33.9844 850.2,33.8438 Q850.05,33.7031 850.05,33.4688 Q850.05,33.2438 850.2,33.1031 Q850.3594,32.9625 850.7344,32.9625 L855.3094,32.9625 L855.3094,34.5188 Q855.3094,34.8844 855.1687,35.0437 Q855.0375,35.1938 854.8031,35.1938 Q854.5781,35.1938 854.4375,35.0437 Q854.2969,34.8844 854.2969,34.5188 L854.2969,33.9844 L851.9156,33.9844 L851.9156,35.4563 L852.8063,35.4563 Q852.8063,35.0625 852.8813,34.95 Q853.0406,34.7063 853.3219,34.7063 Q853.5469,34.7063 853.6875,34.8656 Q853.8281,35.0156 853.8281,35.3813 L853.8281,36.5625 Q853.8281,36.8906 853.7531,37.0031 Q853.5938,37.2375 853.3219,37.2375 Q853.0406,37.2375 852.8813,36.9938 Q852.8063,36.8813 852.8063,36.4781 L851.9156,36.4781 Z " fill="#000000"/><text fill="#000000" font-family="sans-serif" font-size="8.4" lengthAdjust="spacing" textLength="42.9516" x="861" y="39.4781">DockStatus</text><line style="stroke:#181818;stroke-width:0.3;" x1="844.2" x2="905.1516" y1="45.6" y2="45.6"/><text fill="#000000" font-family="sans-serif" font-size="8.4" lengthAdjust="spacing" textLength="34.0881" x="847.2" y="57.0645">Available</text><text fill="#000000" font-family="sans-serif" font-size="8.4" lengthAdjust="spacing" textLength="43.8949" x="847.2" y="68.2371">Unavailable</text><text fill="#000000" font-family="sans-serif" font-size="8.4" lengthAdjust="spacing" textLength="48.099" x="847.2" y="79.4098">Maintenance</text></g><!--class VesselType--><g class="entity" data-entity="VesselType" data-source-line="55" data-uid="ent0009" id="entity_VesselType"><rect fill="#F1F1F1" height="35.1727" rx="1.5" ry="1.5" style="stroke:#181818;stroke-width:0.3;" width="63.0867" x="985.2" y="105.3"/><ellipse cx="994.2" cy="114.9" fill="#C2C2C2" rx="6.6" ry="6.6" style="stroke:#181818;stroke-width:0.6;"/><path d="M995.8594,112.425 Q995.9531,112.2938 996.0656,112.2281 Q996.1781,112.1625 996.3094,112.1625 Q996.5344,112.1625 996.675,112.3219 Q996.8156,112.4719 996.8156,112.8375 L996.8156,113.7094 Q996.8156,114.075 996.675,114.2344 Q996.5344,114.3938 996.3094,114.3938 Q996.1031,114.3938 995.9812,114.2719 Q995.8594,114.1594 995.7937,113.85 Q995.7656,113.6344 995.6531,113.5219 Q995.4563,113.2969 995.0906,113.1656 Q994.725,113.0344 994.35,113.0344 Q993.8906,113.0344 993.5062,113.2313 Q993.1312,113.4281 992.8313,113.8781 Q992.5406,114.3281 992.5406,114.9469 L992.5406,115.6031 Q992.5406,116.3438 993.075,116.8406 Q993.6094,117.3281 994.5656,117.3281 Q995.1281,117.3281 995.5219,117.1781 Q995.7562,117.0844 996.0094,116.8219 Q996.1687,116.6625 996.2531,116.6156 Q996.3469,116.5688 996.4688,116.5688 Q996.6656,116.5688 996.8156,116.7281 Q996.975,116.8781 996.975,117.0844 Q996.975,117.2906 996.7688,117.5344 Q996.4688,117.8813 995.9906,118.0781 Q995.3438,118.35 994.5656,118.35 Q993.6563,118.35 992.9344,117.975 Q992.3438,117.675 991.9313,117.0375 Q991.5188,116.3906 991.5188,115.6219 L991.5188,114.9281 Q991.5188,114.1313 991.8844,113.4469 Q992.2594,112.7531 992.9156,112.3875 Q993.5719,112.0125 994.3125,112.0125 Q994.7531,112.0125 995.1375,112.1156 Q995.5313,112.2094 995.8594,112.425 Z " fill="#000000"/><text fill="#000000" font-family="sans-serif" font-size="8.4" lengthAdjust="spacing" textLength="43.8867" x="1002.6" y="118.3781">VesselType</text><line style="stroke:#181818;stroke-width:0.3;" x1="985.8" x2="1047.6867" y1="124.5" y2="124.5"/><text fill="#000000" font-family="sans-serif" font-size="8.4" lengthAdjust="spacing" textLength="48.0785" x="988.8" y="135.9645">-string Name</text></g><!--class RegisterDockDto--><g class="entity" data-entity="RegisterDockDto" data-source-line="61" data-uid="ent0011" id="entity_RegisterDockDto"><rect fill="#F1F1F1" height="135.7266" rx="1.5" ry="1.5" style="stroke:#181818;stroke-width:0.3;" width="229.2135" x="444.6" y="502.2"/><ellipse cx="524.9127" cy="511.8" fill="#C2C2C2" rx="6.6" ry="6.6" style="stroke:#181818;stroke-width:0.6;"/><path d="M526.5721,509.325 Q526.6658,509.1937 526.7783,509.1281 Q526.8908,509.0625 527.0221,509.0625 Q527.2471,509.0625 527.3877,509.2219 Q527.5283,509.3719 527.5283,509.7375 L527.5283,510.6094 Q527.5283,510.975 527.3877,511.1344 Q527.2471,511.2937 527.0221,511.2937 Q526.8158,511.2937 526.6939,511.1719 Q526.5721,511.0594 526.5064,510.75 Q526.4783,510.5344 526.3658,510.4219 Q526.1689,510.1969 525.8033,510.0656 Q525.4377,509.9344 525.0627,509.9344 Q524.6033,509.9344 524.2189,510.1312 Q523.8439,510.3281 523.5439,510.7781 Q523.2533,511.2281 523.2533,511.8469 L523.2533,512.5031 Q523.2533,513.2437 523.7877,513.7406 Q524.3221,514.2281 525.2783,514.2281 Q525.8408,514.2281 526.2346,514.0781 Q526.4689,513.9844 526.7221,513.7219 Q526.8814,513.5625 526.9658,513.5156 Q527.0596,513.4687 527.1814,513.4687 Q527.3783,513.4687 527.5283,513.6281 Q527.6877,513.7781 527.6877,513.9844 Q527.6877,514.1906 527.4814,514.4344 Q527.1814,514.7812 526.7033,514.9781 Q526.0564,515.25 525.2783,515.25 Q524.3689,515.25 523.6471,514.875 Q523.0564,514.575 522.6439,513.9375 Q522.2314,513.2906 522.2314,512.5219 L522.2314,511.8281 Q522.2314,511.0312 522.5971,510.3469 Q522.9721,509.6531 523.6283,509.2875 Q524.2846,508.9125 525.0252,508.9125 Q525.4658,508.9125 525.8502,509.0156 Q526.2439,509.1094 526.5721,509.325 Z " fill="#000000"/><text fill="#000000" font-family="sans-serif" font-size="8.4" lengthAdjust="spacing" textLength="63.4881" x="537.2127" y="515.2781">RegisterDockDto</text><line style="stroke:#181818;stroke-width:0.3;" x1="445.2" x2="673.2135" y1="521.4" y2="521.4"/><text fill="#000000" font-family="sans-serif" font-size="8.4" lengthAdjust="spacing" textLength="47.8611" x="448.2" y="532.8645">+string Code</text><text fill="#000000" font-family="sans-serif" font-size="8.4" lengthAdjust="spacing" textLength="142.1725" x="448.2" y="544.0371">+List~string~ PhysicalResourceCodes</text><text fill="#000000" font-family="sans-serif" font-size="8.4" lengthAdjust="spacing" textLength="222.0135" x="448.2" y="555.2098">+List~PhysicalResourceCode~ PhysicalResourceCodesList</text><text fill="#000000" font-family="sans-serif" font-size="8.4" lengthAdjust="spacing" textLength="59.5383" x="448.2" y="566.3824">+string Location</text><text fill="#000000" font-family="sans-serif" font-size="8.4" lengthAdjust="spacing" textLength="65.1533" x="448.2" y="577.5551">+double LengthM</text><text fill="#000000" font-family="sans-serif" font-size="8.4" lengthAdjust="spacing" textLength="61.8762" x="448.2" y="588.7277">+double DepthM</text><text fill="#000000" font-family="sans-serif" font-size="8.4" lengthAdjust="spacing" textLength="73.5328" x="448.2" y="599.9004">+double MaxDraftM</text><text fill="#000000" font-family="sans-serif" font-size="8.4" lengthAdjust="spacing" textLength="150.5725" x="448.2" y="611.073">+List~string~ AllowedVesselTypeNames</text><text fill="#000000" font-family="sans-serif" font-size="8.4" lengthAdjust="spacing" textLength="150.5725" x="448.2" y="622.2457">+List~VesselTypeId~ VesselsTypesObjs</text><text fill="#000000" font-family="sans-serif" font-size="8.4" lengthAdjust="spacing" textLength="74.0045" x="448.2" y="633.4184">+DockStatus Status</text></g><!--class UpdateDockDto--><g class="entity" data-entity="UpdateDockDto" data-source-line="74" data-uid="ent0012" id="entity_UpdateDockDto"><rect fill="#F1F1F1" height="113.3813" rx="1.5" ry="1.5" style="stroke:#181818;stroke-width:0.3;" width="149.3725" x="232.2" y="446.7"/><ellipse cx="274.6881" cy="456.3" fill="#C2C2C2" rx="6.6" ry="6.6" style="stroke:#181818;stroke-width:0.6;"/><path d="M276.3475,453.825 Q276.4412,453.6937 276.5537,453.6281 Q276.6662,453.5625 276.7975,453.5625 Q277.0225,453.5625 277.1631,453.7219 Q277.3037,453.8719 277.3037,454.2375 L277.3037,455.1094 Q277.3037,455.475 277.1631,455.6344 Q277.0225,455.7937 276.7975,455.7937 Q276.5912,455.7937 276.4693,455.6719 Q276.3475,455.5594 276.2818,455.25 Q276.2537,455.0344 276.1412,454.9219 Q275.9443,454.6969 275.5787,454.5656 Q275.2131,454.4344 274.8381,454.4344 Q274.3787,454.4344 273.9943,454.6312 Q273.6193,454.8281 273.3193,455.2781 Q273.0287,455.7281 273.0287,456.3469 L273.0287,457.0031 Q273.0287,457.7437 273.5631,458.2406 Q274.0975,458.7281 275.0537,458.7281 Q275.6162,458.7281 276.01,458.5781 Q276.2443,458.4844 276.4975,458.2219 Q276.6568,458.0625 276.7412,458.0156 Q276.835,457.9687 276.9568,457.9687 Q277.1537,457.9687 277.3037,458.1281 Q277.4631,458.2781 277.4631,458.4844 Q277.4631,458.6906 277.2568,458.9344 Q276.9568,459.2812 276.4787,459.4781 Q275.8318,459.75 275.0537,459.75 Q274.1443,459.75 273.4225,459.375 Q272.8318,459.075 272.4193,458.4375 Q272.0068,457.7906 272.0068,457.0219 L272.0068,456.3281 Q272.0068,455.5312 272.3725,454.8469 Q272.7475,454.1531 273.4037,453.7875 Q274.06,453.4125 274.8006,453.4125 Q275.2412,453.4125 275.6256,453.5156 Q276.0193,453.6094 276.3475,453.825 Z " fill="#000000"/><text fill="#000000" font-family="sans-serif" font-size="8.4" lengthAdjust="spacing" textLength="59.2963" x="286.9881" y="459.7781">UpdateDockDto</text><line style="stroke:#181818;stroke-width:0.3;" x1="232.8" x2="380.9725" y1="465.9" y2="465.9"/><text fill="#000000" font-family="sans-serif" font-size="8.4" lengthAdjust="spacing" textLength="47.8611" x="235.8" y="477.3645">+string Code</text><text fill="#000000" font-family="sans-serif" font-size="8.4" lengthAdjust="spacing" textLength="142.1725" x="235.8" y="488.5371">+List~string~ PhysicalResourceCodes</text><text fill="#000000" font-family="sans-serif" font-size="8.4" lengthAdjust="spacing" textLength="59.5383" x="235.8" y="499.7098">+string Location</text><text fill="#000000" font-family="sans-serif" font-size="8.4" lengthAdjust="spacing" textLength="65.1533" x="235.8" y="510.8824">+double LengthM</text><text fill="#000000" font-family="sans-serif" font-size="8.4" lengthAdjust="spacing" textLength="61.8762" x="235.8" y="522.0551">+double DepthM</text><text fill="#000000" font-family="sans-serif" font-size="8.4" lengthAdjust="spacing" textLength="73.5328" x="235.8" y="533.2277">+double MaxDraftM</text><text fill="#000000" font-family="sans-serif" font-size="8.4" lengthAdjust="spacing" textLength="135.1711" x="235.8" y="544.4004">+List~string~ AllowedVesselTypeIds</text><text fill="#000000" font-family="sans-serif" font-size="8.4" lengthAdjust="spacing" textLength="74.0045" x="235.8" y="555.573">+DockStatus Status</text></g><!--class DockDto--><g class="entity" data-entity="DockDto" data-source-line="85" data-uid="ent0013" id="entity_DockDto"><rect fill="#F1F1F1" height="124.5539" rx="1.5" ry="1.5" style="stroke:#181818;stroke-width:0.3;" width="279.6422" x="419.4" y="356.4"/><ellipse cx="540.5663" cy="366" fill="#C2C2C2" rx="6.6" ry="6.6" style="stroke:#181818;stroke-width:0.6;"/><path d="M542.2257,363.525 Q542.3194,363.3937 542.4319,363.3281 Q542.5444,363.2625 542.6757,363.2625 Q542.9007,363.2625 543.0413,363.4219 Q543.1819,363.5719 543.1819,363.9375 L543.1819,364.8094 Q543.1819,365.175 543.0413,365.3344 Q542.9007,365.4937 542.6757,365.4937 Q542.4694,365.4937 542.3476,365.3719 Q542.2257,365.2594 542.1601,364.95 Q542.1319,364.7344 542.0194,364.6219 Q541.8226,364.3969 541.4569,364.2656 Q541.0913,364.1344 540.7163,364.1344 Q540.2569,364.1344 539.8726,364.3312 Q539.4976,364.5281 539.1976,364.9781 Q538.9069,365.4281 538.9069,366.0469 L538.9069,366.7031 Q538.9069,367.4437 539.4413,367.9406 Q539.9757,368.4281 540.9319,368.4281 Q541.4944,368.4281 541.8882,368.2781 Q542.1226,368.1844 542.3757,367.9219 Q542.5351,367.7625 542.6194,367.7156 Q542.7132,367.6687 542.8351,367.6687 Q543.0319,367.6687 543.1819,367.8281 Q543.3413,367.9781 543.3413,368.1844 Q543.3413,368.3906 543.1351,368.6344 Q542.8351,368.9812 542.3569,369.1781 Q541.7101,369.45 540.9319,369.45 Q540.0226,369.45 539.3007,369.075 Q538.7101,368.775 538.2976,368.1375 Q537.8851,367.4906 537.8851,366.7219 L537.8851,366.0281 Q537.8851,365.2312 538.2507,364.5469 Q538.6257,363.8531 539.2819,363.4875 Q539.9382,363.1125 540.6788,363.1125 Q541.1194,363.1125 541.5038,363.2156 Q541.8976,363.3094 542.2257,363.525 Z " fill="#000000"/><text fill="#000000" font-family="sans-serif" font-size="8.4" lengthAdjust="spacing" textLength="32.2096" x="552.8663" y="369.4781">DockDto</text><line style="stroke:#181818;stroke-width:0.3;" x1="420" x2="698.4422" y1="375.6" y2="375.6"/><text fill="#000000" font-family="sans-serif" font-size="8.4" lengthAdjust="spacing" textLength="31.9881" x="423" y="387.0645">+Guid Id</text><text fill="#000000" font-family="sans-serif" font-size="8.4" lengthAdjust="spacing" textLength="66.5396" x="423" y="398.2371">+DockCode Code</text><text fill="#000000" font-family="sans-serif" font-size="8.4" lengthAdjust="spacing" textLength="272.4422" x="423" y="409.4098">+IReadOnlyCollection~PhysicalResourceCode~ PhysicalResourceCodes</text><text fill="#000000" font-family="sans-serif" font-size="8.4" lengthAdjust="spacing" textLength="59.5383" x="423" y="420.5824">+string Location</text><text fill="#000000" font-family="sans-serif" font-size="8.4" lengthAdjust="spacing" textLength="65.1533" x="423" y="431.7551">+double LengthM</text><text fill="#000000" font-family="sans-serif" font-size="8.4" lengthAdjust="spacing" textLength="61.8762" x="423" y="442.9277">+double DepthM</text><text fill="#000000" font-family="sans-serif" font-size="8.4" lengthAdjust="spacing" textLength="73.5328" x="423" y="454.1004">+double MaxDraftM</text><text fill="#000000" font-family="sans-serif" font-size="8.4" lengthAdjust="spacing" textLength="74.0045" x="423" y="465.273">+DockStatus Status</text><text fill="#000000" font-family="sans-serif" font-size="8.4" lengthAdjust="spacing" textLength="229.023" x="423" y="476.4457">+IReadOnlyCollection~VesselTypeId~ AllowedVesselTypeIds</text></g><!--class DockFactory--><g class="entity" data-entity="DockFactory" data-source-line="97" data-uid="ent0014" id="entity_DockFactory"><rect fill="#F1F1F1" height="24" rx="1.5" ry="1.5" style="stroke:#181818;stroke-width:0.3;" width="66.3434" x="273.6" y="401.4"/><ellipse cx="282.6" cy="411" fill="#C2C2C2" rx="6.6" ry="6.6" style="stroke:#181818;stroke-width:0.6;"/><path d="M284.2594,408.525 Q284.3531,408.3937 284.4656,408.3281 Q284.5781,408.2625 284.7094,408.2625 Q284.9344,408.2625 285.075,408.4219 Q285.2156,408.5719 285.2156,408.9375 L285.2156,409.8094 Q285.2156,410.175 285.075,410.3344 Q284.9344,410.4937 284.7094,410.4937 Q284.5031,410.4937 284.3812,410.3719 Q284.2594,410.2594 284.1937,409.95 Q284.1656,409.7344 284.0531,409.6219 Q283.8563,409.3969 283.4906,409.2656 Q283.125,409.1344 282.75,409.1344 Q282.2906,409.1344 281.9063,409.3312 Q281.5313,409.5281 281.2313,409.9781 Q280.9406,410.4281 280.9406,411.0469 L280.9406,411.7031 Q280.9406,412.4437 281.475,412.9406 Q282.0094,413.4281 282.9656,413.4281 Q283.5281,413.4281 283.9219,413.2781 Q284.1563,413.1844 284.4094,412.9219 Q284.5687,412.7625 284.6531,412.7156 Q284.7469,412.6687 284.8688,412.6687 Q285.0656,412.6687 285.2156,412.8281 Q285.375,412.9781 285.375,413.1844 Q285.375,413.3906 285.1688,413.6344 Q284.8688,413.9812 284.3906,414.1781 Q283.7438,414.45 282.9656,414.45 Q282.0563,414.45 281.3344,414.075 Q280.7438,413.775 280.3313,413.1375 Q279.9188,412.4906 279.9188,411.7219 L279.9188,411.0281 Q279.9188,410.2312 280.2844,409.5469 Q280.6594,408.8531 281.3156,408.4875 Q281.9719,408.1125 282.7125,408.1125 Q283.1531,408.1125 283.5375,408.2156 Q283.9313,408.3094 284.2594,408.525 Z " fill="#000000"/><text fill="#000000" font-family="sans-serif" font-size="8.4" lengthAdjust="spacing" textLength="47.1434" x="291" y="414.4781">DockFactory</text><line style="stroke:#181818;stroke-width:0.3;" x1="274.2" x2="339.3434" y1="420.6" y2="420.6"/></g><!--class DockMapper--><g class="entity" data-entity="DockMapper" data-source-line="101" data-uid="ent0015" id="entity_DockMapper"><rect fill="#F1F1F1" height="24" rx="1.5" ry="1.5" style="stroke:#181818;stroke-width:0.3;" width="66.8191" x="273.6" y="356.4"/><ellipse cx="282.6" cy="366" fill="#C2C2C2" rx="6.6" ry="6.6" style="stroke:#181818;stroke-width:0.6;"/><path d="M284.2594,363.525 Q284.3531,363.3937 284.4656,363.3281 Q284.5781,363.2625 284.7094,363.2625 Q284.9344,363.2625 285.075,363.4219 Q285.2156,363.5719 285.2156,363.9375 L285.2156,364.8094 Q285.2156,365.175 285.075,365.3344 Q284.9344,365.4937 284.7094,365.4937 Q284.5031,365.4937 284.3812,365.3719 Q284.2594,365.2594 284.1937,364.95 Q284.1656,364.7344 284.0531,364.6219 Q283.8563,364.3969 283.4906,364.2656 Q283.125,364.1344 282.75,364.1344 Q282.2906,364.1344 281.9063,364.3312 Q281.5313,364.5281 281.2313,364.9781 Q280.9406,365.4281 280.9406,366.0469 L280.9406,366.7031 Q280.9406,367.4437 281.475,367.9406 Q282.0094,368.4281 282.9656,368.4281 Q283.5281,368.4281 283.9219,368.2781 Q284.1563,368.1844 284.4094,367.9219 Q284.5687,367.7625 284.6531,367.7156 Q284.7469,367.6687 284.8688,367.6687 Q285.0656,367.6687 285.2156,367.8281 Q285.375,367.9781 285.375,368.1844 Q285.375,368.3906 285.1688,368.6344 Q284.8688,368.9812 284.3906,369.1781 Q283.7438,369.45 282.9656,369.45 Q282.0563,369.45 281.3344,369.075 Q280.7438,368.775 280.3313,368.1375 Q279.9188,367.4906 279.9188,366.7219 L279.9188,366.0281 Q279.9188,365.2312 280.2844,364.5469 Q280.6594,363.8531 281.3156,363.4875 Q281.9719,363.1125 282.7125,363.1125 Q283.1531,363.1125 283.5375,363.2156 Q283.9313,363.3094 284.2594,363.525 Z " fill="#000000"/><text fill="#000000" font-family="sans-serif" font-size="8.4" lengthAdjust="spacing" textLength="47.6191" x="291" y="369.4781">DockMapper</text><line style="stroke:#181818;stroke-width:0.3;" x1="274.2" x2="339.8191" y1="375.6" y2="375.6"/></g><!--class IDockService--><g class="entity" data-entity="IDockService" data-source-line="107" data-uid="ent0017" id="entity_IDockService"><rect fill="#F1F1F1" height="24" rx="1.5" ry="1.5" style="stroke:#181818;stroke-width:0.3;" width="68.6812" x="272.7" y="286.2"/><ellipse cx="281.7" cy="295.8" fill="#B1B1B1" rx="6.6" ry="6.6" style="stroke:#181818;stroke-width:0.6;"/><path d="M282.2719,293.7844 L282.2719,297.7781 L283.3031,297.7781 Q283.6688,297.7781 283.8281,297.9187 Q283.9875,298.0594 283.9875,298.2937 Q283.9875,298.5187 283.8281,298.6594 Q283.6688,298.8 283.3031,298.8 L280.2188,298.8 Q279.8531,298.8 279.6937,298.6594 Q279.5344,298.5187 279.5344,298.2844 Q279.5344,298.0594 279.6937,297.9187 Q279.8531,297.7781 280.2188,297.7781 L281.25,297.7781 L281.25,293.7844 L280.2188,293.7844 Q279.8531,293.7844 279.6937,293.6437 Q279.5344,293.5031 279.5344,293.2687 Q279.5344,293.0437 279.6937,292.9031 Q279.8531,292.7625 280.2188,292.7625 L283.3031,292.7625 Q283.6688,292.7625 283.8281,292.9031 Q283.9875,293.0437 283.9875,293.2687 Q283.9875,293.5031 283.8281,293.6437 Q283.6688,293.7844 283.3031,293.7844 L282.2719,293.7844 Z " fill="#000000"/><text fill="#000000" font-family="sans-serif" font-size="8.4" font-style="italic" lengthAdjust="spacing" textLength="49.4812" x="290.1" y="299.2781">IDockService</text><line style="stroke:#181818;stroke-width:0.3;" x1="273.3" x2="340.7813" y1="305.4" y2="305.4"/></g><!--class DockService--><g class="entity" data-entity="DockService" data-source-line="120" data-uid="ent0018" id="entity_DockService"><rect fill="#F1F1F1" height="24" rx="1.5" ry="1.5" style="stroke:#181818;stroke-width:0.3;" width="66.3475" x="127.8" y="286.2"/><ellipse cx="136.8" cy="295.8" fill="#C2C2C2" rx="6.6" ry="6.6" style="stroke:#181818;stroke-width:0.6;"/><path d="M138.4594,293.325 Q138.5531,293.1937 138.6656,293.1281 Q138.7781,293.0625 138.9094,293.0625 Q139.1344,293.0625 139.275,293.2219 Q139.4156,293.3719 139.4156,293.7375 L139.4156,294.6094 Q139.4156,294.975 139.275,295.1344 Q139.1344,295.2937 138.9094,295.2937 Q138.7031,295.2937 138.5812,295.1719 Q138.4594,295.0594 138.3937,294.75 Q138.3656,294.5344 138.2531,294.4219 Q138.0563,294.1969 137.6906,294.0656 Q137.325,293.9344 136.95,293.9344 Q136.4906,293.9344 136.1063,294.1312 Q135.7313,294.3281 135.4313,294.7781 Q135.1406,295.2281 135.1406,295.8469 L135.1406,296.5031 Q135.1406,297.2437 135.675,297.7406 Q136.2094,298.2281 137.1656,298.2281 Q137.7281,298.2281 138.1219,298.0781 Q138.3563,297.9844 138.6094,297.7219 Q138.7687,297.5625 138.8531,297.5156 Q138.9469,297.4687 139.0688,297.4687 Q139.2656,297.4687 139.4156,297.6281 Q139.575,297.7781 139.575,297.9844 Q139.575,298.1906 139.3688,298.4344 Q139.0688,298.7812 138.5906,298.9781 Q137.9438,299.25 137.1656,299.25 Q136.2563,299.25 135.5344,298.875 Q134.9438,298.575 134.5313,297.9375 Q134.1188,297.2906 134.1188,296.5219 L134.1188,295.8281 Q134.1188,295.0312 134.4844,294.3469 Q134.8594,293.6531 135.5156,293.2875 Q136.1719,292.9125 136.9125,292.9125 Q137.3531,292.9125 137.7375,293.0156 Q138.1313,293.1094 138.4594,293.325 Z " fill="#000000"/><text fill="#000000" font-family="sans-serif" font-size="8.4" lengthAdjust="spacing" textLength="47.1475" x="145.2" y="299.2781">DockService</text><line style="stroke:#181818;stroke-width:0.3;" x1="128.4" x2="193.5475" y1="305.4" y2="305.4"/></g><!--class IDockRepository--><g class="entity" data-entity="IDockRepository" data-source-line="135" data-uid="ent0020" id="entity_IDockRepository"><rect fill="#F1F1F1" height="24" rx="1.5" ry="1.5" style="stroke:#181818;stroke-width:0.3;" width="80.8219" x="266.4" y="216"/><ellipse cx="275.4" cy="225.6" fill="#B1B1B1" rx="6.6" ry="6.6" style="stroke:#181818;stroke-width:0.6;"/><path d="M275.9719,223.5844 L275.9719,227.5781 L277.0031,227.5781 Q277.3688,227.5781 277.5281,227.7187 Q277.6875,227.8594 277.6875,228.0937 Q277.6875,228.3187 277.5281,228.4594 Q277.3688,228.6 277.0031,228.6 L273.9188,228.6 Q273.5531,228.6 273.3938,228.4594 Q273.2344,228.3187 273.2344,228.0844 Q273.2344,227.8594 273.3938,227.7187 Q273.5531,227.5781 273.9188,227.5781 L274.95,227.5781 L274.95,223.5844 L273.9188,223.5844 Q273.5531,223.5844 273.3938,223.4437 Q273.2344,223.3031 273.2344,223.0687 Q273.2344,222.8437 273.3938,222.7031 Q273.5531,222.5625 273.9188,222.5625 L277.0031,222.5625 Q277.3688,222.5625 277.5281,222.7031 Q277.6875,222.8437 277.6875,223.0687 Q277.6875,223.3031 277.5281,223.4437 Q277.3688,223.5844 277.0031,223.5844 L275.9719,223.5844 Z " fill="#000000"/><text fill="#000000" font-family="sans-serif" font-size="8.4" font-style="italic" lengthAdjust="spacing" textLength="61.6219" x="283.8" y="229.0781">IDockRepository</text><line style="stroke:#181818;stroke-width:0.3;" x1="267" x2="346.6219" y1="235.2" y2="235.2"/></g><!--class DockRepository--><g class="entity" data-entity="DockRepository" data-source-line="149" data-uid="ent0021" id="entity_DockRepository"><rect fill="#F1F1F1" height="24" rx="1.5" ry="1.5" style="stroke:#181818;stroke-width:0.3;" width="78.4881" x="267.6" y="81"/><ellipse cx="276.6" cy="90.6" fill="#C2C2C2" rx="6.6" ry="6.6" style="stroke:#181818;stroke-width:0.6;"/><path d="M278.2594,88.125 Q278.3531,87.9937 278.4656,87.9281 Q278.5781,87.8625 278.7094,87.8625 Q278.9344,87.8625 279.075,88.0219 Q279.2156,88.1719 279.2156,88.5375 L279.2156,89.4094 Q279.2156,89.775 279.075,89.9344 Q278.9344,90.0938 278.7094,90.0938 Q278.5031,90.0938 278.3812,89.9719 Q278.2594,89.8594 278.1937,89.55 Q278.1656,89.3344 278.0531,89.2219 Q277.8563,88.9969 277.4906,88.8656 Q277.125,88.7344 276.75,88.7344 Q276.2906,88.7344 275.9063,88.9312 Q275.5313,89.1281 275.2313,89.5781 Q274.9406,90.0281 274.9406,90.6469 L274.9406,91.3031 Q274.9406,92.0438 275.475,92.5406 Q276.0094,93.0281 276.9656,93.0281 Q277.5281,93.0281 277.9219,92.8781 Q278.1563,92.7844 278.4094,92.5219 Q278.5687,92.3625 278.6531,92.3156 Q278.7469,92.2688 278.8688,92.2688 Q279.0656,92.2688 279.2156,92.4281 Q279.375,92.5781 279.375,92.7844 Q279.375,92.9906 279.1688,93.2344 Q278.8688,93.5813 278.3906,93.7781 Q277.7438,94.05 276.9656,94.05 Q276.0563,94.05 275.3344,93.675 Q274.7438,93.375 274.3313,92.7375 Q273.9188,92.0906 273.9188,91.3219 L273.9188,90.6281 Q273.9188,89.8313 274.2844,89.1469 Q274.6594,88.4531 275.3156,88.0875 Q275.9719,87.7125 276.7125,87.7125 Q277.1531,87.7125 277.5375,87.8156 Q277.9313,87.9094 278.2594,88.125 Z " fill="#000000"/><text fill="#000000" font-family="sans-serif" font-size="8.4" lengthAdjust="spacing" textLength="59.2881" x="285" y="94.0781">DockRepository</text><line style="stroke:#181818;stroke-width:0.3;" x1="268.2" x2="345.4881" y1="100.2" y2="100.2"/></g><!--class IVesselTypeRepository--><g class="entity" data-entity="IVesselTypeRepository" data-source-line="152" data-uid="ent0022" id="entity_IVesselTypeRepository"><rect fill="#F1F1F1" height="24" rx="1.5" ry="1.5" style="stroke:#181818;stroke-width:0.3;" width="105.5707" x="254.1" y="126"/><ellipse cx="263.1" cy="135.6" fill="#B1B1B1" rx="6.6" ry="6.6" style="stroke:#181818;stroke-width:0.6;"/><path d="M263.6719,133.5844 L263.6719,137.5781 L264.7031,137.5781 Q265.0687,137.5781 265.2281,137.7187 Q265.3875,137.8594 265.3875,138.0937 Q265.3875,138.3187 265.2281,138.4594 Q265.0687,138.6 264.7031,138.6 L261.6188,138.6 Q261.2531,138.6 261.0938,138.4594 Q260.9344,138.3187 260.9344,138.0844 Q260.9344,137.8594 261.0938,137.7187 Q261.2531,137.5781 261.6188,137.5781 L262.65,137.5781 L262.65,133.5844 L261.6188,133.5844 Q261.2531,133.5844 261.0938,133.4437 Q260.9344,133.3031 260.9344,133.0687 Q260.9344,132.8437 261.0938,132.7031 Q261.2531,132.5625 261.6188,132.5625 L264.7031,132.5625 Q265.0687,132.5625 265.2281,132.7031 Q265.3875,132.8437 265.3875,133.0687 Q265.3875,133.3031 265.2281,133.4437 Q265.0687,133.5844 264.7031,133.5844 L263.6719,133.5844 Z " fill="#000000"/><text fill="#000000" font-family="sans-serif" font-size="8.4" font-style="italic" lengthAdjust="spacing" textLength="86.3707" x="271.5" y="139.0781">IVesselTypeRepository</text><line style="stroke:#181818;stroke-width:0.3;" x1="254.7" x2="359.0707" y1="145.2" y2="145.2"/></g><!--class IPhysicalResourceRepository--><g class="entity" data-entity="IPhysicalResourceRepository" data-source-line="157" data-uid="ent0023" id="entity_IPhysicalResourceRepository"><rect fill="#F1F1F1" height="24" rx="1.5" ry="1.5" style="stroke:#181818;stroke-width:0.3;" width="128.9127" x="242.4" y="171"/><ellipse cx="251.4" cy="180.6" fill="#B1B1B1" rx="6.6" ry="6.6" style="stroke:#181818;stroke-width:0.6;"/><path d="M251.9719,178.5844 L251.9719,182.5781 L253.0031,182.5781 Q253.3687,182.5781 253.5281,182.7187 Q253.6875,182.8594 253.6875,183.0937 Q253.6875,183.3187 253.5281,183.4594 Q253.3687,183.6 253.0031,183.6 L249.9188,183.6 Q249.5531,183.6 249.3937,183.4594 Q249.2344,183.3187 249.2344,183.0844 Q249.2344,182.8594 249.3937,182.7187 Q249.5531,182.5781 249.9188,182.5781 L250.95,182.5781 L250.95,178.5844 L249.9188,178.5844 Q249.5531,178.5844 249.3937,178.4437 Q249.2344,178.3031 249.2344,178.0687 Q249.2344,177.8437 249.3937,177.7031 Q249.5531,177.5625 249.9188,177.5625 L253.0031,177.5625 Q253.3687,177.5625 253.5281,177.7031 Q253.6875,177.8437 253.6875,178.0687 Q253.6875,178.3031 253.5281,178.4437 Q253.3687,178.5844 253.0031,178.5844 L251.9719,178.5844 Z " fill="#000000"/><text fill="#000000" font-family="sans-serif" font-size="8.4" font-style="italic" lengthAdjust="spacing" textLength="109.7127" x="259.8" y="184.0781">IPhysicalResourceRepository</text><line style="stroke:#181818;stroke-width:0.3;" x1="243" x2="370.7127" y1="190.2" y2="190.2"/></g><!--class IUnitOfWork--><g class="entity" data-entity="IUnitOfWork" data-source-line="161" data-uid="ent0024" id="entity_IUnitOfWork"><rect fill="#F1F1F1" height="24" rx="1.5" ry="1.5" style="stroke:#181818;stroke-width:0.3;" width="64.9365" x="274.5" y="36"/><ellipse cx="283.5" cy="45.6" fill="#B1B1B1" rx="6.6" ry="6.6" style="stroke:#181818;stroke-width:0.6;"/><path d="M284.0719,43.5844 L284.0719,47.5781 L285.1031,47.5781 Q285.4688,47.5781 285.6281,47.7188 Q285.7875,47.8594 285.7875,48.0938 Q285.7875,48.3188 285.6281,48.4594 Q285.4688,48.6 285.1031,48.6 L282.0188,48.6 Q281.6531,48.6 281.4938,48.4594 Q281.3344,48.3188 281.3344,48.0844 Q281.3344,47.8594 281.4938,47.7188 Q281.6531,47.5781 282.0188,47.5781 L283.05,47.5781 L283.05,43.5844 L282.0188,43.5844 Q281.6531,43.5844 281.4938,43.4438 Q281.3344,43.3031 281.3344,43.0688 Q281.3344,42.8438 281.4938,42.7031 Q281.6531,42.5625 282.0188,42.5625 L285.1031,42.5625 Q285.4688,42.5625 285.6281,42.7031 Q285.7875,42.8438 285.7875,43.0688 Q285.7875,43.3031 285.6281,43.4438 Q285.4688,43.5844 285.1031,43.5844 L284.0719,43.5844 Z " fill="#000000"/><text fill="#000000" font-family="sans-serif" font-size="8.4" font-style="italic" lengthAdjust="spacing" textLength="45.7365" x="291.9" y="49.0781">IUnitOfWork</text><line style="stroke:#181818;stroke-width:0.3;" x1="275.1" x2="338.8365" y1="55.2" y2="55.2"/></g><!--class DockController--><g class="entity" data-entity="DockController" data-source-line="167" data-uid="ent0026" id="entity_DockController"><rect fill="#F1F1F1" height="24" rx="1.5" ry="1.5" style="stroke:#181818;stroke-width:0.3;" width="74.7516" x="13.8" y="645"/><ellipse cx="22.8" cy="654.6" fill="#C2C2C2" rx="6.6" ry="6.6" style="stroke:#181818;stroke-width:0.6;"/><path d="M24.4594,652.125 Q24.5531,651.9938 24.6656,651.9281 Q24.7781,651.8625 24.9094,651.8625 Q25.1344,651.8625 25.275,652.0219 Q25.4156,652.1719 25.4156,652.5375 L25.4156,653.4094 Q25.4156,653.775 25.275,653.9344 Q25.1344,654.0938 24.9094,654.0938 Q24.7031,654.0938 24.5813,653.9719 Q24.4594,653.8594 24.3938,653.55 Q24.3656,653.3344 24.2531,653.2219 Q24.0563,652.9969 23.6906,652.8656 Q23.325,652.7344 22.95,652.7344 Q22.4906,652.7344 22.1063,652.9313 Q21.7313,653.1281 21.4313,653.5781 Q21.1406,654.0281 21.1406,654.6469 L21.1406,655.3031 Q21.1406,656.0437 21.675,656.5406 Q22.2094,657.0281 23.1656,657.0281 Q23.7281,657.0281 24.1219,656.8781 Q24.3563,656.7844 24.6094,656.5219 Q24.7688,656.3625 24.8531,656.3156 Q24.9469,656.2688 25.0687,656.2688 Q25.2656,656.2688 25.4156,656.4281 Q25.575,656.5781 25.575,656.7844 Q25.575,656.9906 25.3688,657.2344 Q25.0687,657.5813 24.5906,657.7781 Q23.9437,658.05 23.1656,658.05 Q22.2562,658.05 21.5344,657.675 Q20.9437,657.375 20.5313,656.7375 Q20.1188,656.0906 20.1188,655.3219 L20.1188,654.6281 Q20.1188,653.8313 20.4844,653.1469 Q20.8594,652.4531 21.5156,652.0875 Q22.1719,651.7125 22.9125,651.7125 Q23.3531,651.7125 23.7375,651.8156 Q24.1312,651.9094 24.4594,652.125 Z " fill="#000000"/><text fill="#000000" font-family="sans-serif" font-size="8.4" lengthAdjust="spacing" textLength="55.5516" x="31.2" y="658.0781">DockController</text><line style="stroke:#181818;stroke-width:0.3;" x1="14.4" x2="87.9516" y1="664.2" y2="664.2"/></g><!--class ILoggerT--><g class="entity" data-entity="ILoggerT" data-source-line="182" data-uid="ent0028" id="entity_ILoggerT"><rect fill="#F1F1F1" height="24" rx="1.5" ry="1.5" style="stroke:#181818;stroke-width:0.3;" width="52.8205" x="280.5" y="684"/><ellipse cx="289.5" cy="693.6" fill="#B1B1B1" rx="6.6" ry="6.6" style="stroke:#181818;stroke-width:0.6;"/><path d="M290.0719,691.5844 L290.0719,695.5781 L291.1031,695.5781 Q291.4688,695.5781 291.6281,695.7188 Q291.7875,695.8594 291.7875,696.0938 Q291.7875,696.3188 291.6281,696.4594 Q291.4688,696.6 291.1031,696.6 L288.0188,696.6 Q287.6531,696.6 287.4938,696.4594 Q287.3344,696.3188 287.3344,696.0844 Q287.3344,695.8594 287.4938,695.7188 Q287.6531,695.5781 288.0188,695.5781 L289.05,695.5781 L289.05,691.5844 L288.0188,691.5844 Q287.6531,691.5844 287.4938,691.4438 Q287.3344,691.3031 287.3344,691.0688 Q287.3344,690.8438 287.4938,690.7031 Q287.6531,690.5625 288.0188,690.5625 L291.1031,690.5625 Q291.4688,690.5625 291.6281,690.7031 Q291.7875,690.8438 291.7875,691.0688 Q291.7875,691.3031 291.6281,691.4438 Q291.4688,691.5844 291.1031,691.5844 L290.0719,691.5844 Z " fill="#000000"/><text fill="#000000" font-family="sans-serif" font-size="8.4" font-style="italic" lengthAdjust="spacing" textLength="33.6205" x="297.9" y="697.0781">ILoggerT</text><line style="stroke:#181818;stroke-width:0.3;" x1="281.1" x2="332.7205" y1="703.2" y2="703.2"/></g><!--reverse link EntityDock to DockId--><g class="link" data-entity-1="EntityDock" data-entity-2="DockId" data-source-line="190" data-uid="lnk29" id="link_EntityDock_DockId"><path codeLine="190" d="M706.0246,246.947 C762.8566,262.241 815.904,276.51 848.832,285.372" fill="none" id="EntityDock-backto-DockId" style="stroke:#181818;stroke-width:0.6;"/><polygon fill="#181818" points="699.072,245.076,701.9246,248.3291,706.0246,246.947,703.172,243.694,699.072,245.076" style="stroke:#181818;stroke-width:0.6;"/><text fill="#000000" font-family="sans-serif" font-size="7.8" lengthAdjust="spacing" textLength="4.338" x="703.732" y="254.8969">1</text><text fill="#000000" font-family="sans-serif" font-size="7.8" lengthAdjust="spacing" textLength="4.338" x="839.8232" y="293.5265">1</text></g><!--reverse link EntityDock to DockCode--><g class="link" data-entity-1="EntityDock" data-entity-2="DockCode" data-source-line="191" data-uid="lnk30" id="link_EntityDock_DockCode"><path codeLine="191" d="M706.2432,220.7355 C761.2692,225.6735 812.088,230.232 845.61,233.238" fill="none" id="EntityDock-backto-DockCode" style="stroke:#181818;stroke-width:0.6;"/><polygon fill="#181818" points="699.072,220.092,702.4431,222.8042,706.2432,220.7355,702.8721,218.0234,699.072,220.092" style="stroke:#181818;stroke-width:0.6;"/><text fill="#000000" font-family="sans-serif" font-size="7.8" lengthAdjust="spacing" textLength="4.338" x="703.732" y="229.0931">1</text><text fill="#000000" font-family="sans-serif" font-size="7.8" lengthAdjust="spacing" textLength="4.338" x="836.6125" y="242.0744">1</text></g><!--reverse link EntityDock to PhysicalResourceCode--><g class="link" data-entity-1="EntityDock" data-entity-2="PhysicalResourceCode" data-source-line="192" data-uid="lnk31" id="link_EntityDock_PhysicalResourceCode"><path codeLine="192" d="M706.2432,194.465 C749.6052,190.577 787.644,187.164 821.262,184.146" fill="none" id="EntityDock-backto-PhysicalResourceCode" style="stroke:#181818;stroke-width:0.6;"/><polygon fill="none" points="699.072,195.108,702.8719,197.1769,706.2432,194.465,702.4433,192.3961,699.072,195.108" style="stroke:#181818;stroke-width:0.6;"/><text fill="#000000" font-family="sans-serif" font-size="7.8" lengthAdjust="spacing" textLength="84.109" x="718.8" y="184.217">physicalResourceCodes</text><text fill="#000000" font-family="sans-serif" font-size="7.8" lengthAdjust="spacing" textLength="4.338" x="703.732" y="203.2893">1</text><text fill="#000000" font-family="sans-serif" font-size="7.8" lengthAdjust="spacing" textLength="3.0354" x="813.5462" y="193.4264">*</text></g><!--reverse link EntityDock to VesselTypeId--><g class="link" data-entity-1="EntityDock" data-entity-2="VesselTypeId" data-source-line="193" data-uid="lnk32" id="link_EntityDock_VesselTypeId"><path codeLine="193" d="M706.0247,168.253 C757.9307,154.285 805.524,141.48 839.676,132.288" fill="none" id="EntityDock-backto-VesselTypeId" style="stroke:#181818;stroke-width:0.6;"/><polygon fill="none" points="699.072,170.124,703.172,171.5061,706.0247,168.253,701.9247,166.871,699.072,170.124" style="stroke:#181818;stroke-width:0.6;"/><text fill="#000000" font-family="sans-serif" font-size="7.8" lengthAdjust="spacing" textLength="71.1026" x="725.4" y="141.617">allowedVesselTypes</text><text fill="#000000" font-family="sans-serif" font-size="7.8" lengthAdjust="spacing" textLength="4.338" x="703.732" y="177.4856">1</text><text fill="#000000" font-family="sans-serif" font-size="7.8" lengthAdjust="spacing" textLength="3.0354" x="831.7643" y="142.6654">*</text></g><!--link VesselTypeId to VesselType--><g class="link" data-entity-1="VesselTypeId" data-entity-2="VesselType" data-source-line="194" data-uid="lnk33" id="link_VesselTypeId_VesselType"><path codeLine="194" d="M910.002,123 C932.946,123 959.202,123 981.396,123" fill="none" id="VesselTypeId-to-VesselType" style="stroke:#181818;stroke-width:0.6;stroke-dasharray:4.2,4.2;"/><polygon fill="#181818" points="984.996,123,979.596,120.6,981.996,123,979.596,125.4,984.996,123" style="stroke:#181818;stroke-width:0.6;"/><text fill="#000000" font-family="sans-serif" font-size="7.8" lengthAdjust="spacing" textLength="19.938" x="946.8" y="120.617">refers</text></g><!--link EntityDock to DockStatus--><g class="link" data-entity-1="EntityDock" data-entity-2="DockStatus" data-source-line="195" data-uid="lnk34" id="link_EntityDock_DockStatus"><path codeLine="195" d="M682.842,145.146 C694.764,139.236 706.698,133.374 718.2,127.8 C761.484,106.83 808.7535,85.0159 840.3015,70.6039" fill="none" id="EntityDock-to-DockStatus" style="stroke:#181818;stroke-width:0.6;stroke-dasharray:4.2,4.2;"/><polygon fill="#181818" points="843.576,69.108,837.667,69.1688,840.8473,70.3546,839.6615,73.5348,843.576,69.108" style="stroke:#181818;stroke-width:0.6;"/></g><!--link DockService to IDockService--><g class="link" data-entity-1="DockService" data-entity-2="IDockService" data-source-line="197" data-uid="lnk35" id="link_DockService_IDockService"><path codeLine="197" d="M194.514,298.2 C217.842,298.2 238.29,298.2 261.816,298.2" fill="none" id="DockService-to-IDockService" style="stroke:#181818;stroke-width:0.6;stroke-dasharray:4.2,4.2;"/><polygon fill="none" points="272.616,298.2,261.816,294.6,261.816,301.8,272.616,298.2" style="stroke:#181818;stroke-width:0.6;"/></g><!--link DockService to IDockRepository--><g class="link" data-entity-1="DockService" data-entity-2="IDockRepository" data-source-line="198" data-uid="lnk36" id="link_DockService_IDockRepository"><path codeLine="198" d="M186.558,286.134 C213.126,273.234 251.7494,254.4841 278.2874,241.6021" fill="none" id="DockService-to-IDockRepository" style="stroke:#181818;stroke-width:0.6;"/><polygon fill="#181818" points="281.526,240.03,275.62,240.229,278.8272,241.3401,277.7161,244.5472,281.526,240.03" style="stroke:#181818;stroke-width:0.6;"/></g><!--link DockService to IVesselTypeRepository--><g class="link" data-entity-1="DockService" data-entity-2="IVesselTypeRepository" data-source-line="199" data-uid="lnk37" id="link_DockService_IVesselTypeRepository"><path codeLine="199" d="M162.972,286.146 C166.476,259.266 178.752,194.118 217.8,160.2 C227.904,151.422 237.4949,146.9088 250.4789,143.6088" fill="none" id="DockService-to-IVesselTypeRepository" style="stroke:#181818;stroke-width:0.6;"/><polygon fill="#181818" points="253.968,142.722,248.1432,141.7261,251.0604,143.461,249.3256,146.3782,253.968,142.722" style="stroke:#181818;stroke-width:0.6;"/></g><!--link DockService to IPhysicalResourceRepository--><g class="link" data-entity-1="DockService" data-entity-2="IPhysicalResourceRepository" data-source-line="200" data-uid="lnk38" id="link_DockService_IPhysicalResourceRepository"><path codeLine="200" d="M165.552,286.146 C172.584,266.13 189.45,226.17 217.8,205.2 C225.12,199.782 230.228,196.8782 239,193.7762" fill="none" id="DockService-to-IPhysicalResourceRepository" style="stroke:#181818;stroke-width:0.6;"/><polygon fill="#181818" points="242.394,192.576,236.5028,192.1136,239.5656,193.5762,238.1031,196.639,242.394,192.576" style="stroke:#181818;stroke-width:0.6;"/></g><!--link DockService to IUnitOfWork--><g class="link" data-entity-1="DockService" data-entity-2="IUnitOfWork" data-source-line="201" data-uid="lnk39" id="link_DockService_IUnitOfWork"><path codeLine="201" d="M163.038,286.122 C167.982,243.576 186.594,101.544 217.8,70.2 C232.494,55.44 251.8606,50.3317 270.7066,48.5137" fill="none" id="DockService-to-IUnitOfWork" style="stroke:#181818;stroke-width:0.6;"/><polygon fill="#181818" points="274.29,48.168,268.6845,46.2976,271.3039,48.4561,269.1454,51.0754,274.29,48.168" style="stroke:#181818;stroke-width:0.6;"/></g><!--link DockService to ILoggerT--><g class="link" data-entity-1="DockService" data-entity-2="ILoggerT" data-source-line="202" data-uid="lnk40" id="link_DockService_ILoggerT"><path codeLine="202" d="M162.234,310.2 C164.886,364.986 178.092,591.06 217.8,647.4 C232.746,668.604 256.5955,680.3407 276.9175,687.4807" fill="none" id="DockService-to-ILoggerT" style="stroke:#181818;stroke-width:0.6;"/><polygon fill="#181818" points="280.314,688.674,276.0149,684.6197,277.4836,687.6796,274.4238,689.1483,280.314,688.674" style="stroke:#181818;stroke-width:0.6;"/></g><!--link DockService to DockFactory--><g class="link" data-entity-1="DockService" data-entity-2="DockFactory" data-source-line="203" data-uid="lnk41" id="link_DockService_DockFactory"><path codeLine="203" d="M165.648,310.32 C172.77,330.234 189.696,369.738 217.8,390.6 C233.85,402.516 251.981,407.6862 269.873,410.4102" fill="none" id="DockService-to-DockFactory" style="stroke:#181818;stroke-width:0.6;"/><polygon fill="#181818" points="273.432,410.952,268.4547,407.7666,270.4662,410.5005,267.7323,412.5119,273.432,410.952" style="stroke:#181818;stroke-width:0.6;"/></g><!--link DockService to DockMapper--><g class="link" data-entity-1="DockService" data-entity-2="DockMapper" data-source-line="204" data-uid="lnk42" id="link_DockService_DockMapper"><path codeLine="204" d="M186.558,310.266 C213.126,323.166 251.7494,341.9159 278.2874,354.7979" fill="none" id="DockService-to-DockMapper" style="stroke:#181818;stroke-width:0.6;"/><polygon fill="#181818" points="281.526,356.37,277.7161,351.8528,278.8272,355.0599,275.62,356.171,281.526,356.37" style="stroke:#181818;stroke-width:0.6;"/></g><!--link DockService to RegisterDockDto--><g class="link" data-entity-1="DockService" data-entity-2="RegisterDockDto" data-source-line="205" data-uid="lnk43" id="link_DockService_RegisterDockDto"><path codeLine="205" d="M162.246,310.356 C164.712,358.782 176.49,536.928 217.8,570.6 C279.942,621.252 368.2445,618.8029 440.9345,604.6309" fill="none" id="DockService-to-RegisterDockDto" style="stroke:#181818;stroke-width:0.6;"/><polygon fill="#181818" points="444.468,603.942,438.7085,602.6197,441.5234,604.5161,439.6271,607.331,444.468,603.942" style="stroke:#181818;stroke-width:0.6;"/></g><!--link DockService to UpdateDockDto--><g class="link" data-entity-1="DockService" data-entity-2="UpdateDockDto" data-source-line="206" data-uid="lnk44" id="link_DockService_UpdateDockDto"><path codeLine="206" d="M164.358,310.302 C170.376,335.64 186.984,395.262 217.8,435.6 C222.09,441.216 224.3942,444.0748 229.5782,449.1928" fill="none" id="DockService-to-UpdateDockDto" style="stroke:#181818;stroke-width:0.6;"/><polygon fill="#181818" points="232.14,451.722,229.9834,446.2203,230.0051,449.6143,226.6111,449.6361,232.14,451.722" style="stroke:#181818;stroke-width:0.6;"/></g><!--link DockRepository to EntityDock--><g class="link" data-entity-1="DockRepository" data-entity-2="EntityDock" data-source-line="208" data-uid="lnk45" id="link_DockRepository_EntityDock"><path codeLine="208" d="M346.284,102.228 C359.064,105.732 373.224,110.124 385.8,115.2 C407.172,123.828 426.1349,132.7109 447.1709,143.5349" fill="none" id="DockRepository-to-EntityDock" style="stroke:#181818;stroke-width:0.6;"/><polygon fill="#181818" points="450.372,145.182,446.6684,140.5773,447.7044,143.8094,444.4723,144.8454,450.372,145.182" style="stroke:#181818;stroke-width:0.6;"/></g><!--link DockFactory to EntityDock--><g class="link" data-entity-1="DockFactory" data-entity-2="EntityDock" data-source-line="210" data-uid="lnk46" id="link_DockFactory_EntityDock"><path codeLine="210" d="M340.284,410.274 C355.626,407.328 373.248,401.622 385.8,390.6 C401.772,376.578 392.586,364.05 405,346.8 C425.13,318.834 448.9791,294.6873 474.3471,272.4453" fill="none" id="DockFactory-to-EntityDock" style="stroke:#181818;stroke-width:0.6;"/><polygon fill="#181818" points="477.054,270.072,471.4114,271.8274,474.7983,272.0498,474.5759,275.4366,477.054,270.072" style="stroke:#181818;stroke-width:0.6;"/></g><!--link DockFactory to RegisterDockDto--><g class="link" data-entity-1="DockFactory" data-entity-2="RegisterDockDto" data-source-line="211" data-uid="lnk47" id="link_DockFactory_RegisterDockDto"><path codeLine="211" d="M340.278,416.028 C355.806,418.854 373.584,424.596 385.8,436.2 C404.634,454.092 387.948,471.81 405,491.4 C416.16,504.222 426.8898,513.2825 441.5478,522.6425" fill="none" id="DockFactory-to-RegisterDockDto" style="stroke:#181818;stroke-width:0.6;"/><polygon fill="#181818" points="444.582,524.58,441.3224,519.651,442.0535,522.9654,438.7391,523.6965,444.582,524.58" style="stroke:#181818;stroke-width:0.6;"/></g><!--link DockMapper to DockDto--><g class="link" data-entity-1="DockMapper" data-entity-2="DockDto" data-source-line="213" data-uid="lnk48" id="link_DockMapper_DockDto"><path codeLine="213" d="M340.326,374.988 C361.134,379.164 386.0803,384.1739 415.6003,390.0959" fill="none" id="DockMapper-to-DockDto" style="stroke:#181818;stroke-width:0.6;"/><polygon fill="#181818" points="419.13,390.804,414.3075,387.3888,416.1886,390.2139,413.3634,392.095,419.13,390.804" style="stroke:#181818;stroke-width:0.6;"/></g><!--link DockMapper to EntityDock--><g class="link" data-entity-1="DockMapper" data-entity-2="EntityDock" data-source-line="214" data-uid="lnk49" id="link_DockMapper_EntityDock"><path codeLine="214" d="M328.338,356.31 C344.346,346.818 366.846,333.042 385.8,319.8 C392.184,315.342 393.24,313.5 399.6,309 C417.972,295.998 434.9237,284.6219 454.3097,272.0759" fill="none" id="DockMapper-to-EntityDock" style="stroke:#181818;stroke-width:0.6;"/><polygon fill="#181818" points="457.332,270.12,451.4946,271.039,454.8134,271.7499,454.1025,275.0688,457.332,270.12" style="stroke:#181818;stroke-width:0.6;"/></g><!--link DockController to DockService--><g class="link" data-entity-1="DockController" data-entity-2="DockService" data-source-line="216" data-uid="lnk50" id="link_DockController_DockService"><path codeLine="216" d="M55.578,644.856 C72.192,589.956 139.1649,368.6836 155.7849,313.7836" fill="none" id="DockController-to-DockService" style="stroke:#181818;stroke-width:0.6;"/><polygon fill="#181818" points="156.828,310.338,152.9663,314.811,155.9588,313.2093,157.5604,316.2017,156.828,310.338" style="stroke:#181818;stroke-width:0.6;"/></g><!--link DockController to ILoggerT--><g class="link" data-entity-1="DockController" data-entity-2="ILoggerT" data-source-line="217" data-uid="lnk51" id="link_DockController_ILoggerT"><path codeLine="217" d="M88.89,662.67 C141.12,670.68 231.5936,684.5466 276.9236,691.4946" fill="none" id="DockController-to-ILoggerT" style="stroke:#181818;stroke-width:0.6;"/><polygon fill="#181818" points="280.482,692.04,275.508,688.8496,277.5166,691.5855,274.7807,693.5942,280.482,692.04" style="stroke:#181818;stroke-width:0.6;"/></g><!--link DockController to RegisterDockDto--><g class="link" data-entity-1="DockController" data-entity-2="RegisterDockDto" data-source-line="218" data-uid="lnk52" id="link_DockController_RegisterDockDto"><path codeLine="218" d="M74.478,669.042 C129.384,696.636 273.594,759 385.8,717.6 C429.756,701.382 467.5669,671.0001 498.2089,640.3461" fill="none" id="DockController-to-RegisterDockDto" style="stroke:#181818;stroke-width:0.6;"/><polygon fill="#181818" points="500.754,637.8,495.239,639.9224,498.6331,639.9217,498.6338,643.3158,500.754,637.8" style="stroke:#181818;stroke-width:0.6;"/></g><!--link DockController to UpdateDockDto--><g class="link" data-entity-1="DockController" data-entity-2="UpdateDockDto" data-source-line="219" data-uid="lnk53" id="link_DockController_UpdateDockDto"><path codeLine="219" d="M71.862,644.946 C105.948,624.366 173.9362,583.3148 228.9382,550.1048" fill="none" id="DockController-to-UpdateDockDto" style="stroke:#181818;stroke-width:0.6;"/><polygon fill="#181818" points="232.02,548.244,226.1568,548.9806,229.4518,549.7946,228.6378,553.0897,232.02,548.244" style="stroke:#181818;stroke-width:0.6;"/></g><!--SRC=[xLXBSzis4BxpLs1ygHnRclRgWsSKoKurOzKUoqxECBcIK9401m2JgcdysuE7AE95EcwRvj8Sek7kOh7uTlV3mc97Q8qvhb35ACktd5M096yW4qTDZVCTti1Axaj077A9wQPq3SGM5-mJeHkqngM0h8IrH98XJZPRYGgYrn16ioqf05KWjwmGplAyn49CfUJagP6mo1bTaJy1_PnbXvtHoPnLcD0Jz3b3rXnTKKdaVixodH4YD4P2UL0ntB0Sc-sij63Dauhx1kX6RfU-S0vr95lYF-OShsKhrbki99QDGFR7oC-CV56WHU5ypvWweFxl85lS0ovkQRcViRAq83pVRVU2vBYy1y4QdeCsVqOfgHZmyXw4WF9XNyEYU4RJicIVe725xU8LIErhr8PtsibRe4OME5TZm1fPH1ovmIiMjv05cdkeIvn3ycYZnHLjAk1OsQSX2Rn4H_HTU7YqIw-eQ3ZyYaLYiHE-JUkeItIhMsA-UwJu8oQbtiIi-P8TI_1G0MtvlMj8WTxZiccpFnLQD3f55qPtbAuCt4PkaO_TcaBwV5XngElMjMEQ0kuRbhbW7Sszy8qnA7ZTyhUMqnOEy-N0OxwNgaqbK4pptZt3VlqDLzRsYzlm3xV2RVTxs10XWUjmvefQWaCwFNUZx9wjUBYjZE4hkb7R-xjwJ7EMOfgp1DESfPacY3mgMGsJ5xfF0VPBcEA-VVhTPQcGlPoiFDO5bl0lWleZaEd8xeNJXkSq9VyV4FZt0QNlOlhRrqM0r3NE9UFx8rfk2uw2VjHSrjt8iQybhclWILTgzQXRgXqTf14dJEkw91P2ImsQQlXQNGveOS00_f7a7G6-0wbEEXLxcX_fViP15RoLXMVebhtTBmfhOpdUK-dCMgL_RnfbgWnwZRi4z9XSarB5vohFqV2lvxyjk1xl2fosveMFqXsM-JO-wRdF5udhyFyK_8WKk4soe6kEbMsJIpNx9Fj4JLHC4A-t0rJ3OV45N5EQGPHTvdaDN6uosXZFlN4cJaeyrWtYtYd5DUETwsJCq-9Gemw13LJ-G5chCTITD8y9K7Jun5WPTrgGHADryjn5svTjFK_qjaKRP7ZeS9imyo-NLb-jX9uVAP6twm-CxuwUPgogYEmWzGl_ZeC0AfthmHsdgUJwDkI3p7Gu-aZF1Qzbgt_6Cc_ttv5dlfrA1dizoLxsCHTdOyQP4EEyaL8jYLZeXcqsm1-EoL3VYhSOhzptw3cQJ2QddSK7pAb-DwMrLvmp7kfCJ3-XSV1FpH-bsKb4gd7c_67Xv9SJz4QPwr_RhaDQCpO6UgRrRqxI3xKBL2U7nXuVtglj0k7eJPjv5fF9fVleka0Sri0zxzgaeySiSs_moUIlIs-iyhJZyMLubyJw50V5LlqK4jjsf13h3ZKLAPnHDgcpesca2dezqdkzOw5po4zREFDmvixJWIvKXHjdplpSnjm6v8Z3tHpAQrUvYGpK7dg1BeL4OEA3yHK0]--></g></svg>