<svg xmlns="http://www.w3.org/2000/svg" xmlns:xlink="http://www.w3.org/1999/xlink" contentStyleType="text/css" data-diagram-type="SEQUENCE" height="1711px" preserveAspectRatio="none" style="width:1761px;height:1711px;background:#FFFFFF;" version="1.1" viewBox="0 0 1761 1711" width="1761px" zoomAndPan="magnify"><defs/><g><g><title>DockController</title><rect fill="#FFFFFF" height="594.5293" style="stroke:#181818;stroke-width:1;" width="10" x="438.5215" y="162.2031"/></g><g><title>DockController</title><rect fill="#FFFFFF" height="557.9473" style="stroke:#181818;stroke-width:1;" width="10" x="438.5215" y="833.3145"/></g><g><title>DockController</title><rect fill="#FFFFFF" height="219.0371" style="stroke:#181818;stroke-width:1;" width="10" x="438.5215" y="1467.8438"/></g><g><title>DockService</title><rect fill="#FFFFFF" height="531.9473" style="stroke:#181818;stroke-width:1;" width="10" x="644.5576" y="193.4941"/></g><g><title>DockService</title><rect fill="#FFFFFF" height="495.3652" style="stroke:#181818;stroke-width:1;" width="10" x="644.5576" y="864.6055"/></g><g><title>DockService</title><rect fill="#FFFFFF" height="156.4551" style="stroke:#181818;stroke-width:1;" width="10" x="644.5576" y="1499.1348"/></g><g><title>IDockRepository</title><rect fill="#FFFFFF" height="31.291" style="stroke:#181818;stroke-width:1;" width="10" x="1002.2881" y="224.7852"/></g><g><title>IDockRepository</title><rect fill="#FFFFFF" height="31.291" style="stroke:#181818;stroke-width:1;" width="10" x="1002.2881" y="349.9492"/></g><g><title>IDockRepository</title><rect fill="#FFFFFF" height="31.291" style="stroke:#181818;stroke-width:1;" width="10" x="1002.2881" y="537.6953"/></g><g><title>IDockRepository</title><rect fill="#FFFFFF" height="31.291" style="stroke:#181818;stroke-width:1;" width="10" x="1002.2881" y="895.8965"/></g><g><title>IDockRepository</title><rect fill="#FFFFFF" height="31.291" style="stroke:#181818;stroke-width:1;" width="10" x="1002.2881" y="958.4785"/></g><g><title>IDockRepository</title><rect fill="#FFFFFF" height="31.291" style="stroke:#181818;stroke-width:1;" width="10" x="1002.2881" y="1021.0605"/></g><g><title>IDockRepository</title><rect fill="#FFFFFF" height="31.291" style="stroke:#181818;stroke-width:1;" width="10" x="1002.2881" y="1530.4258"/></g><g><title>IVesselTypeRepository</title><rect fill="#FFFFFF" height="31.291" style="stroke:#181818;stroke-width:1;" width="10" x="1152.3325" y="412.5313"/></g><g><title>IVesselTypeRepository</title><rect fill="#FFFFFF" height="31.291" style="stroke:#181818;stroke-width:1;" width="10" x="1152.3325" y="1083.6426"/></g><g><title>IPhysicalResourceRepository</title><rect fill="#FFFFFF" height="31.291" style="stroke:#181818;stroke-width:1;" width="10" x="1339.7354" y="287.3672"/></g><g><title>DockFactory</title><rect fill="#FFFFFF" height="31.291" style="stroke:#181818;stroke-width:1;" width="10" x="1494.4487" y="475.1133"/></g><g><title>DockMapper</title><rect fill="#FFFFFF" height="31.291" style="stroke:#181818;stroke-width:1;" width="10" x="1597.4175" y="662.8594"/></g><g><title>DockMapper</title><rect fill="#FFFFFF" height="31.291" style="stroke:#181818;stroke-width:1;" width="10" x="1597.4175" y="1297.3887"/></g><g><title>DockMapper</title><rect fill="#FFFFFF" height="31.291" style="stroke:#181818;stroke-width:1;" width="10" x="1597.4175" y="1593.0078"/></g><g><title>IUnitOfWork</title><rect fill="#FFFFFF" height="31.291" style="stroke:#181818;stroke-width:1;" width="10" x="1699.2139" y="600.2773"/></g><g><title>IUnitOfWork</title><rect fill="#FFFFFF" height="31.291" style="stroke:#181818;stroke-width:1;" width="10" x="1699.2139" y="1234.8066"/></g><g><title>Officer</title><rect fill="#000000" fill-opacity="0.00000" height="1621.2598" width="8" x="24.6138" y="83.6211"/><line style="stroke:#181818;stroke-width:0.5;stroke-dasharray:5,5;" x1="28" x2="28" y1="83.6211" y2="1704.8809"/></g><g><title>DockController</title><rect fill="#000000" fill-opacity="0.00000" height="1621.2598" width="8" x="439.5215" y="83.6211"/><line style="stroke:#181818;stroke-width:0.5;stroke-dasharray:5,5;" x1="443.2285" x2="443.2285" y1="83.6211" y2="1704.8809"/></g><g><title>DockService</title><rect fill="#000000" fill-opacity="0.00000" height="1621.2598" width="8" x="645.5576" y="83.6211"/><line style="stroke:#181818;stroke-width:0.5;stroke-dasharray:5,5;" x1="649.2681" x2="649.2681" y1="83.6211" y2="1704.8809"/></g><g><title>IDockRepository</title><rect fill="#000000" fill-opacity="0.00000" height="1621.2598" width="8" x="1003.2881" y="83.6211"/><line style="stroke:#181818;stroke-width:0.5;stroke-dasharray:5,5;" x1="1007.2192" x2="1007.2192" y1="83.6211" y2="1704.8809"/></g><g><title>IVesselTypeRepository</title><rect fill="#000000" fill-opacity="0.00000" height="1621.2598" width="8" x="1153.3325" y="83.6211"/><line style="stroke:#181818;stroke-width:0.5;stroke-dasharray:5,5;" x1="1156.3569" x2="1156.3569" y1="83.6211" y2="1704.8809"/></g><g><title>IPhysicalResourceRepository</title><rect fill="#000000" fill-opacity="0.00000" height="1621.2598" width="8" x="1340.7354" y="83.6211"/><line style="stroke:#181818;stroke-width:0.5;stroke-dasharray:5,5;" x1="1344.3081" x2="1344.3081" y1="83.6211" y2="1704.8809"/></g><g><title>DockFactory</title><rect fill="#000000" fill-opacity="0.00000" height="1621.2598" width="8" x="1495.4487" y="83.6211"/><line style="stroke:#181818;stroke-width:0.5;stroke-dasharray:5,5;" x1="1499.1626" x2="1499.1626" y1="83.6211" y2="1704.8809"/></g><g><title>DockMapper</title><rect fill="#000000" fill-opacity="0.00000" height="1621.2598" width="8" x="1598.4175" y="83.6211"/><line style="stroke:#181818;stroke-width:0.5;stroke-dasharray:5,5;" x1="1601.7349" x2="1601.7349" y1="83.6211" y2="1704.8809"/></g><g><title>IUnitOfWork</title><rect fill="#000000" fill-opacity="0.00000" height="1621.2598" width="8" x="1700.2139" y="83.6211"/><line style="stroke:#181818;stroke-width:0.5;stroke-dasharray:5,5;" x1="1704.1001" x2="1704.1001" y1="83.6211" y2="1704.8809"/></g><g class="participant participant-head" data-participant="Officer"><text fill="#000000" font-family="sans-serif" font-size="14" lengthAdjust="spacing" textLength="41.2275" x="5" y="80.1074">Officer</text><ellipse cx="28.6138" cy="13.5" fill="#E3E3E3" rx="8" ry="8" style="stroke:#181818;stroke-width:0.5;"/><path d="M28.6138,21.5 L28.6138,48.5 M15.6138,29.5 L41.6138,29.5 M28.6138,48.5 L15.6138,63.5 M28.6138,48.5 L41.6138,63.5" fill="none" style="stroke:#181818;stroke-width:0.5;"/></g><g class="participant participant-head" data-participant="C"><rect fill="#E3E3E3" height="32.6211" rx="2.5" ry="2.5" style="stroke:#181818;stroke-width:0.5;" width="106.5859" x="390.2285" y="50"/><text fill="#000000" font-family="sans-serif" font-size="14" lengthAdjust="spacing" textLength="92.5859" x="397.2285" y="72.1074">DockController</text></g><g class="participant participant-head" data-participant="S"><rect fill="#E3E3E3" height="32.6211" rx="2.5" ry="2.5" style="stroke:#181818;stroke-width:0.5;" width="92.5791" x="603.2681" y="50"/><text fill="#000000" font-family="sans-serif" font-size="14" lengthAdjust="spacing" textLength="78.5791" x="610.2681" y="72.1074">DockService</text></g><g class="participant participant-head" data-participant="R"><rect fill="#E3E3E3" height="51.2422" rx="2.5" ry="2.5" style="stroke:#181818;stroke-width:0.5;" width="122.1377" x="946.2192" y="31.3789"/><text fill="#000000" font-family="sans-serif" font-size="14" lengthAdjust="spacing" textLength="102.7031" x="955.9365" y="53.4863">IDockRepository</text><text fill="#000000" font-family="sans-serif" font-size="14" lengthAdjust="spacing" textLength="108.1377" x="953.2192" y="72.1074">(DockRepository)</text></g><g class="participant participant-head" data-participant="VTR"><rect fill="#E3E3E3" height="32.6211" rx="2.5" ry="2.5" style="stroke:#181818;stroke-width:0.5;" width="157.9512" x="1078.3569" y="50"/><text fill="#000000" font-family="sans-serif" font-size="14" lengthAdjust="spacing" textLength="143.9512" x="1085.3569" y="72.1074">IVesselTypeRepository</text></g><g class="participant participant-head" data-participant="PRR"><rect fill="#E3E3E3" height="32.6211" rx="2.5" ry="2.5" style="stroke:#181818;stroke-width:0.5;" width="196.8545" x="1246.3081" y="50"/><text fill="#000000" font-family="sans-serif" font-size="14" lengthAdjust="spacing" textLength="182.8545" x="1253.3081" y="72.1074">IPhysicalResourceRepository</text></g><g class="participant participant-head" data-participant="F"><rect fill="#E3E3E3" height="32.6211" rx="2.5" ry="2.5" style="stroke:#181818;stroke-width:0.5;" width="92.5723" x="1453.1626" y="50"/><text fill="#000000" font-family="sans-serif" font-size="14" lengthAdjust="spacing" textLength="78.5723" x="1460.1626" y="72.1074">DockFactory</text></g><g class="participant participant-head" data-participant="M"><rect fill="#E3E3E3" height="32.6211" rx="2.5" ry="2.5" style="stroke:#181818;stroke-width:0.5;" width="93.3652" x="1555.7349" y="50"/><text fill="#000000" font-family="sans-serif" font-size="14" lengthAdjust="spacing" textLength="79.3652" x="1562.7349" y="72.1074">DockMapper</text></g><g class="participant participant-head" data-participant="UoW"><rect fill="#E3E3E3" height="32.6211" rx="2.5" ry="2.5" style="stroke:#181818;stroke-width:0.5;" width="90.2275" x="1659.1001" y="50"/><text fill="#000000" font-family="sans-serif" font-size="14" lengthAdjust="spacing" textLength="76.2275" x="1666.1001" y="72.1074">IUnitOfWork</text></g><g><title>DockController</title><rect fill="#FFFFFF" height="594.5293" style="stroke:#181818;stroke-width:1;" width="10" x="438.5215" y="162.2031"/></g><g><title>DockController</title><rect fill="#FFFFFF" height="557.9473" style="stroke:#181818;stroke-width:1;" width="10" x="438.5215" y="833.3145"/></g><g><title>DockController</title><rect fill="#FFFFFF" height="219.0371" style="stroke:#181818;stroke-width:1;" width="10" x="438.5215" y="1467.8438"/></g><g><title>DockService</title><rect fill="#FFFFFF" height="531.9473" style="stroke:#181818;stroke-width:1;" width="10" x="644.5576" y="193.4941"/></g><g><title>DockService</title><rect fill="#FFFFFF" height="495.3652" style="stroke:#181818;stroke-width:1;" width="10" x="644.5576" y="864.6055"/></g><g><title>DockService</title><rect fill="#FFFFFF" height="156.4551" style="stroke:#181818;stroke-width:1;" width="10" x="644.5576" y="1499.1348"/></g><g><title>IDockRepository</title><rect fill="#FFFFFF" height="31.291" style="stroke:#181818;stroke-width:1;" width="10" x="1002.2881" y="224.7852"/></g><g><title>IDockRepository</title><rect fill="#FFFFFF" height="31.291" style="stroke:#181818;stroke-width:1;" width="10" x="1002.2881" y="349.9492"/></g><g><title>IDockRepository</title><rect fill="#FFFFFF" height="31.291" style="stroke:#181818;stroke-width:1;" width="10" x="1002.2881" y="537.6953"/></g><g><title>IDockRepository</title><rect fill="#FFFFFF" height="31.291" style="stroke:#181818;stroke-width:1;" width="10" x="1002.2881" y="895.8965"/></g><g><title>IDockRepository</title><rect fill="#FFFFFF" height="31.291" style="stroke:#181818;stroke-width:1;" width="10" x="1002.2881" y="958.4785"/></g><g><title>IDockRepository</title><rect fill="#FFFFFF" height="31.291" style="stroke:#181818;stroke-width:1;" width="10" x="1002.2881" y="1021.0605"/></g><g><title>IDockRepository</title><rect fill="#FFFFFF" height="31.291" style="stroke:#181818;stroke-width:1;" width="10" x="1002.2881" y="1530.4258"/></g><g><title>IVesselTypeRepository</title><rect fill="#FFFFFF" height="31.291" style="stroke:#181818;stroke-width:1;" width="10" x="1152.3325" y="412.5313"/></g><g><title>IVesselTypeRepository</title><rect fill="#FFFFFF" height="31.291" style="stroke:#181818;stroke-width:1;" width="10" x="1152.3325" y="1083.6426"/></g><g><title>IPhysicalResourceRepository</title><rect fill="#FFFFFF" height="31.291" style="stroke:#181818;stroke-width:1;" width="10" x="1339.7354" y="287.3672"/></g><g><title>DockFactory</title><rect fill="#FFFFFF" height="31.291" style="stroke:#181818;stroke-width:1;" width="10" x="1494.4487" y="475.1133"/></g><g><title>DockMapper</title><rect fill="#FFFFFF" height="31.291" style="stroke:#181818;stroke-width:1;" width="10" x="1597.4175" y="662.8594"/></g><g><title>DockMapper</title><rect fill="#FFFFFF" height="31.291" style="stroke:#181818;stroke-width:1;" width="10" x="1597.4175" y="1297.3887"/></g><g><title>DockMapper</title><rect fill="#FFFFFF" height="31.291" style="stroke:#181818;stroke-width:1;" width="10" x="1597.4175" y="1593.0078"/></g><g><title>IUnitOfWork</title><rect fill="#FFFFFF" height="31.291" style="stroke:#181818;stroke-width:1;" width="10" x="1699.2139" y="600.2773"/></g><g><title>IUnitOfWork</title><rect fill="#FFFFFF" height="31.291" style="stroke:#181818;stroke-width:1;" width="10" x="1699.2139" y="1234.8066"/></g><rect fill="#EEEEEE" height="3" style="stroke:#EEEEEE;stroke-width:1;" width="1754.3276" x="0" y="115.2666"/><line style="stroke:#000000;stroke-width:1;" x1="0" x2="1754.3276" y1="115.2666" y2="115.2666"/><line style="stroke:#000000;stroke-width:1;" x1="0" x2="1754.3276" y1="118.2666" y2="118.2666"/><rect fill="#EEEEEE" height="25.291" style="stroke:#000000;stroke-width:2;" width="93.479" x="830.4243" y="103.6211"/><text fill="#000000" font-family="sans-serif" font-size="13" font-weight="bold" lengthAdjust="spacing" textLength="75.8672" x="836.4243" y="121.6494">Create Dock</text><g class="message" data-participant-1="Officer" data-participant-2="C"><polygon fill="#181818" points="426.5215,158.2031,436.5215,162.2031,426.5215,166.2031,430.5215,162.2031" style="stroke:#181818;stroke-width:1;"/><line style="stroke:#181818;stroke-width:1;" x1="28.6138" x2="432.5215" y1="162.2031" y2="162.2031"/><text fill="#000000" font-family="sans-serif" font-size="13" lengthAdjust="spacing" textLength="181.3335" x="35.6138" y="156.9404">CreateAsync(RegisterDockDto)</text></g><g class="message" data-participant-1="C" data-participant-2="S"><polygon fill="#181818" points="632.5576,189.4941,642.5576,193.4941,632.5576,197.4941,636.5576,193.4941" style="stroke:#181818;stroke-width:1;"/><line style="stroke:#181818;stroke-width:1;" x1="448.5215" x2="638.5576" y1="193.4941" y2="193.4941"/><text fill="#000000" font-family="sans-serif" font-size="13" lengthAdjust="spacing" textLength="101.1499" x="455.5215" y="188.2314">CreateAsync(dto)</text></g><g class="message" data-participant-1="S" data-participant-2="R"><polygon fill="#181818" points="990.2881,220.7852,1000.2881,224.7852,990.2881,228.7852,994.2881,224.7852" style="stroke:#181818;stroke-width:1;"/><line style="stroke:#181818;stroke-width:1;" x1="654.5576" x2="996.2881" y1="224.7852" y2="224.7852"/><text fill="#000000" font-family="sans-serif" font-size="13" lengthAdjust="spacing" textLength="161.1479" x="661.5576" y="219.5225">Ensure DockCode is unique</text></g><g class="message" data-participant-1="R" data-participant-2="S"><polygon fill="#181818" points="665.5576,252.0762,655.5576,256.0762,665.5576,260.0762,661.5576,256.0762" style="stroke:#181818;stroke-width:1;"/><line style="stroke:#181818;stroke-width:1;stroke-dasharray:2,2;" x1="659.5576" x2="1006.2881" y1="256.0762" y2="256.0762"/><text fill="#000000" font-family="sans-serif" font-size="13" lengthAdjust="spacing" textLength="78.7808" x="671.5576" y="250.8135">ok / not found</text></g><g class="message" data-participant-1="S" data-participant-2="PRR"><polygon fill="#181818" points="1327.7354,283.3672,1337.7354,287.3672,1327.7354,291.3672,1331.7354,287.3672" style="stroke:#181818;stroke-width:1;"/><line style="stroke:#181818;stroke-width:1;" x1="654.5576" x2="1333.7354" y1="287.3672" y2="287.3672"/><text fill="#000000" font-family="sans-serif" font-size="13" lengthAdjust="spacing" textLength="259.4033" x="661.5576" y="282.1045">Validate PhysicalResourceCodes (existence)</text></g><g class="message" data-participant-1="PRR" data-participant-2="S"><polygon fill="#181818" points="665.5576,314.6582,655.5576,318.6582,665.5576,322.6582,661.5576,318.6582" style="stroke:#181818;stroke-width:1;"/><line style="stroke:#181818;stroke-width:1;stroke-dasharray:2,2;" x1="659.5576" x2="1343.7354" y1="318.6582" y2="318.6582"/><text fill="#000000" font-family="sans-serif" font-size="13" lengthAdjust="spacing" textLength="81.6309" x="671.5576" y="313.3955">all exist / error</text></g><g class="message" data-participant-1="S" data-participant-2="R"><polygon fill="#181818" points="990.2881,345.9492,1000.2881,349.9492,990.2881,353.9492,994.2881,349.9492" style="stroke:#181818;stroke-width:1;"/><line style="stroke:#181818;stroke-width:1;" x1="654.5576" x2="996.2881" y1="349.9492" y2="349.9492"/><text fill="#000000" font-family="sans-serif" font-size="13" lengthAdjust="spacing" textLength="220.3906" x="661.5576" y="344.6865">Ensure PRCs not used by other docks</text></g><g class="message" data-participant-1="R" data-participant-2="S"><polygon fill="#181818" points="665.5576,377.2402,655.5576,381.2402,665.5576,385.2402,661.5576,381.2402" style="stroke:#181818;stroke-width:1;"/><line style="stroke:#181818;stroke-width:1;stroke-dasharray:2,2;" x1="659.5576" x2="1006.2881" y1="381.2402" y2="381.2402"/><text fill="#000000" font-family="sans-serif" font-size="13" lengthAdjust="spacing" textLength="65.0254" x="671.5576" y="375.9775">ok / conflict</text></g><g class="message" data-participant-1="S" data-participant-2="VTR"><polygon fill="#181818" points="1140.3325,408.5313,1150.3325,412.5313,1140.3325,416.5313,1144.3325,412.5313" style="stroke:#181818;stroke-width:1;"/><line style="stroke:#181818;stroke-width:1;" x1="654.5576" x2="1146.3325" y1="412.5313" y2="412.5313"/><text fill="#000000" font-family="sans-serif" font-size="13" lengthAdjust="spacing" textLength="232.667" x="661.5576" y="407.2686">Validate AllowedVesselTypes (by name)</text></g><g class="message" data-participant-1="VTR" data-participant-2="S"><polygon fill="#181818" points="665.5576,439.8223,655.5576,443.8223,665.5576,447.8223,661.5576,443.8223" style="stroke:#181818;stroke-width:1;"/><line style="stroke:#181818;stroke-width:1;stroke-dasharray:2,2;" x1="659.5576" x2="1156.3325" y1="443.8223" y2="443.8223"/><text fill="#000000" font-family="sans-serif" font-size="13" lengthAdjust="spacing" textLength="81.6372" x="671.5576" y="438.5596">all valid / error</text></g><g class="message" data-participant-1="S" data-participant-2="F"><polygon fill="#181818" points="1482.4487,471.1133,1492.4487,475.1133,1482.4487,479.1133,1486.4487,475.1133" style="stroke:#181818;stroke-width:1;"/><line style="stroke:#181818;stroke-width:1;" x1="654.5576" x2="1488.4487" y1="475.1133" y2="475.1133"/><text fill="#000000" font-family="sans-serif" font-size="13" lengthAdjust="spacing" textLength="104.7554" x="661.5576" y="469.8506">RegisterDock(dto)</text></g><g class="message" data-participant-1="F" data-participant-2="S"><polygon fill="#181818" points="665.5576,502.4043,655.5576,506.4043,665.5576,510.4043,661.5576,506.4043" style="stroke:#181818;stroke-width:1;"/><line style="stroke:#181818;stroke-width:1;stroke-dasharray:2,2;" x1="659.5576" x2="1498.4487" y1="506.4043" y2="506.4043"/><text fill="#000000" font-family="sans-serif" font-size="13" lengthAdjust="spacing" textLength="62.1309" x="671.5576" y="501.1416">EntityDock</text></g><g class="message" data-participant-1="S" data-participant-2="R"><polygon fill="#181818" points="990.2881,533.6953,1000.2881,537.6953,990.2881,541.6953,994.2881,537.6953" style="stroke:#181818;stroke-width:1;"/><line style="stroke:#181818;stroke-width:1;" x1="654.5576" x2="996.2881" y1="537.6953" y2="537.6953"/><text fill="#000000" font-family="sans-serif" font-size="13" lengthAdjust="spacing" textLength="129.3208" x="661.5576" y="532.4326">AddAsync(EntityDock)</text></g><g class="message" data-participant-1="R" data-participant-2="S"><polygon fill="#181818" points="665.5576,564.9863,655.5576,568.9863,665.5576,572.9863,661.5576,568.9863" style="stroke:#181818;stroke-width:1;"/><line style="stroke:#181818;stroke-width:1;stroke-dasharray:2,2;" x1="659.5576" x2="1006.2881" y1="568.9863" y2="568.9863"/><text fill="#000000" font-family="sans-serif" font-size="13" lengthAdjust="spacing" textLength="36.1499" x="671.5576" y="563.7236">added</text></g><g class="message" data-participant-1="S" data-participant-2="UoW"><polygon fill="#181818" points="1687.2139,596.2773,1697.2139,600.2773,1687.2139,604.2773,1691.2139,600.2773" style="stroke:#181818;stroke-width:1;"/><line style="stroke:#181818;stroke-width:1;" x1="654.5576" x2="1693.2139" y1="600.2773" y2="600.2773"/><text fill="#000000" font-family="sans-serif" font-size="13" lengthAdjust="spacing" textLength="88.8354" x="661.5576" y="595.0146">CommitAsync()</text></g><g class="message" data-participant-1="UoW" data-participant-2="S"><polygon fill="#181818" points="665.5576,627.5684,655.5576,631.5684,665.5576,635.5684,661.5576,631.5684" style="stroke:#181818;stroke-width:1;"/><line style="stroke:#181818;stroke-width:1;stroke-dasharray:2,2;" x1="659.5576" x2="1703.2139" y1="631.5684" y2="631.5684"/><text fill="#000000" font-family="sans-serif" font-size="13" lengthAdjust="spacing" textLength="59.96" x="671.5576" y="626.3057">committed</text></g><g class="message" data-participant-1="S" data-participant-2="M"><polygon fill="#181818" points="1585.4175,658.8594,1595.4175,662.8594,1585.4175,666.8594,1589.4175,662.8594" style="stroke:#181818;stroke-width:1;"/><line style="stroke:#181818;stroke-width:1;" x1="654.5576" x2="1591.4175" y1="662.8594" y2="662.8594"/><text fill="#000000" font-family="sans-serif" font-size="13" lengthAdjust="spacing" textLength="169.0444" x="661.5576" y="657.5967">RegisterDockDto(EntityDock)</text></g><g class="message" data-participant-1="M" data-participant-2="S"><polygon fill="#181818" points="665.5576,690.1504,655.5576,694.1504,665.5576,698.1504,661.5576,694.1504" style="stroke:#181818;stroke-width:1;"/><line style="stroke:#181818;stroke-width:1;stroke-dasharray:2,2;" x1="659.5576" x2="1601.4175" y1="694.1504" y2="694.1504"/><text fill="#000000" font-family="sans-serif" font-size="13" lengthAdjust="spacing" textLength="49.8481" x="671.5576" y="688.8877">DockDto</text></g><g class="message" data-participant-1="S" data-participant-2="C"><polygon fill="#181818" points="459.5215,721.4414,449.5215,725.4414,459.5215,729.4414,455.5215,725.4414" style="stroke:#181818;stroke-width:1;"/><line style="stroke:#181818;stroke-width:1;stroke-dasharray:2,2;" x1="453.5215" x2="648.5576" y1="725.4414" y2="725.4414"/><text fill="#000000" font-family="sans-serif" font-size="13" lengthAdjust="spacing" textLength="49.8481" x="465.5215" y="720.1787">DockDto</text></g><g class="message" data-participant-1="C" data-participant-2="Officer"><polygon fill="#181818" points="39.6138,752.7324,29.6138,756.7324,39.6138,760.7324,35.6138,756.7324" style="stroke:#181818;stroke-width:1;"/><line style="stroke:#181818;stroke-width:1;stroke-dasharray:2,2;" x1="33.6138" x2="442.5215" y1="756.7324" y2="756.7324"/><text fill="#000000" font-family="sans-serif" font-size="13" lengthAdjust="spacing" textLength="136.2144" x="45.6138" y="751.4697">201 Created + DockDto</text></g><rect fill="#EEEEEE" height="3" style="stroke:#EEEEEE;stroke-width:1;" width="1754.3276" x="0" y="786.3779"/><line style="stroke:#000000;stroke-width:1;" x1="0" x2="1754.3276" y1="786.3779" y2="786.3779"/><line style="stroke:#000000;stroke-width:1;" x1="0" x2="1754.3276" y1="789.3779" y2="789.3779"/><rect fill="#EEEEEE" height="25.291" style="stroke:#000000;stroke-width:2;" width="97.0718" x="828.6279" y="774.7324"/><text fill="#000000" font-family="sans-serif" font-size="13" font-weight="bold" lengthAdjust="spacing" textLength="79.46" x="834.6279" y="792.7607">Update Dock</text><g class="message" data-participant-1="Officer" data-participant-2="C"><polygon fill="#181818" points="426.5215,829.3145,436.5215,833.3145,426.5215,837.3145,430.5215,833.3145" style="stroke:#181818;stroke-width:1;"/><line style="stroke:#181818;stroke-width:1;" x1="28.6138" x2="432.5215" y1="833.3145" y2="833.3145"/><text fill="#000000" font-family="sans-serif" font-size="13" lengthAdjust="spacing" textLength="250.7324" x="35.6138" y="828.0518">PatchByCodeAsync(code, UpdateDockDto)</text></g><g class="message" data-participant-1="C" data-participant-2="S"><polygon fill="#181818" points="632.5576,860.6055,642.5576,864.6055,632.5576,868.6055,636.5576,864.6055" style="stroke:#181818;stroke-width:1;"/><line style="stroke:#181818;stroke-width:1;" x1="448.5215" x2="638.5576" y1="864.6055" y2="864.6055"/><text fill="#000000" font-family="sans-serif" font-size="13" lengthAdjust="spacing" textLength="177.0361" x="455.5215" y="859.3428">PatchByCodeAsync(code, dto)</text></g><g class="message" data-participant-1="S" data-participant-2="R"><polygon fill="#181818" points="990.2881,891.8965,1000.2881,895.8965,990.2881,899.8965,994.2881,895.8965" style="stroke:#181818;stroke-width:1;"/><line style="stroke:#181818;stroke-width:1;" x1="654.5576" x2="996.2881" y1="895.8965" y2="895.8965"/><text fill="#000000" font-family="sans-serif" font-size="13" lengthAdjust="spacing" textLength="139.4517" x="661.5576" y="890.6338">GetByCodeAsync(code)</text></g><g class="message" data-participant-1="R" data-participant-2="S"><polygon fill="#181818" points="665.5576,923.1875,655.5576,927.1875,665.5576,931.1875,661.5576,927.1875" style="stroke:#181818;stroke-width:1;"/><line style="stroke:#181818;stroke-width:1;stroke-dasharray:2,2;" x1="659.5576" x2="1006.2881" y1="927.1875" y2="927.1875"/><text fill="#000000" font-family="sans-serif" font-size="13" lengthAdjust="spacing" textLength="127.1816" x="671.5576" y="921.9248">EntityDock / not found</text></g><g class="message" data-participant-1="S" data-participant-2="R"><polygon fill="#181818" points="990.2881,954.4785,1000.2881,958.4785,990.2881,962.4785,994.2881,958.4785" style="stroke:#181818;stroke-width:1;"/><line style="stroke:#181818;stroke-width:1;" x1="654.5576" x2="996.2881" y1="958.4785" y2="958.4785"/><text fill="#000000" font-family="sans-serif" font-size="13" lengthAdjust="spacing" textLength="244.9941" x="661.5576" y="953.2158">If changing DockCode, ensure uniqueness</text></g><g class="message" data-participant-1="R" data-participant-2="S"><polygon fill="#181818" points="665.5576,985.7695,655.5576,989.7695,665.5576,993.7695,661.5576,989.7695" style="stroke:#181818;stroke-width:1;"/><line style="stroke:#181818;stroke-width:1;stroke-dasharray:2,2;" x1="659.5576" x2="1006.2881" y1="989.7695" y2="989.7695"/><text fill="#000000" font-family="sans-serif" font-size="13" lengthAdjust="spacing" textLength="76.6035" x="671.5576" y="984.5068">ok / duplicate</text></g><g class="message" data-participant-1="S" data-participant-2="R"><polygon fill="#181818" points="990.2881,1017.0605,1000.2881,1021.0605,990.2881,1025.0605,994.2881,1021.0605" style="stroke:#181818;stroke-width:1;"/><line style="stroke:#181818;stroke-width:1;" x1="654.5576" x2="996.2881" y1="1021.0605" y2="1021.0605"/><text fill="#000000" font-family="sans-serif" font-size="13" lengthAdjust="spacing" textLength="289.7769" x="661.5576" y="1015.7979">If changing PRCs, ensure not used by other docks</text></g><g class="message" data-participant-1="R" data-participant-2="S"><polygon fill="#181818" points="665.5576,1048.3516,655.5576,1052.3516,665.5576,1056.3516,661.5576,1052.3516" style="stroke:#181818;stroke-width:1;"/><line style="stroke:#181818;stroke-width:1;stroke-dasharray:2,2;" x1="659.5576" x2="1006.2881" y1="1052.3516" y2="1052.3516"/><text fill="#000000" font-family="sans-serif" font-size="13" lengthAdjust="spacing" textLength="65.0254" x="671.5576" y="1047.0889">ok / conflict</text></g><g class="message" data-participant-1="S" data-participant-2="VTR"><polygon fill="#181818" points="1140.3325,1079.6426,1150.3325,1083.6426,1140.3325,1087.6426,1144.3325,1083.6426" style="stroke:#181818;stroke-width:1;"/><line style="stroke:#181818;stroke-width:1;" x1="654.5576" x2="1146.3325" y1="1083.6426" y2="1083.6426"/><text fill="#000000" font-family="sans-serif" font-size="13" lengthAdjust="spacing" textLength="262.3042" x="661.5576" y="1078.3799">If changing AllowedVesselTypes, validate IDs</text></g><g class="message" data-participant-1="VTR" data-participant-2="S"><polygon fill="#181818" points="665.5576,1110.9336,655.5576,1114.9336,665.5576,1118.9336,661.5576,1114.9336" style="stroke:#181818;stroke-width:1;"/><line style="stroke:#181818;stroke-width:1;stroke-dasharray:2,2;" x1="659.5576" x2="1156.3325" y1="1114.9336" y2="1114.9336"/><text fill="#000000" font-family="sans-serif" font-size="13" lengthAdjust="spacing" textLength="81.6372" x="671.5576" y="1109.6709">all valid / error</text></g><g class="message" data-participant-1="S" data-participant-2="S"><line style="stroke:#181818;stroke-width:1;" x1="654.5576" x2="696.5576" y1="1146.2246" y2="1146.2246"/><line style="stroke:#181818;stroke-width:1;" x1="696.5576" x2="696.5576" y1="1146.2246" y2="1159.2246"/><line style="stroke:#181818;stroke-width:1;" x1="655.5576" x2="696.5576" y1="1159.2246" y2="1159.2246"/><polygon fill="#181818" points="665.5576,1155.2246,655.5576,1159.2246,665.5576,1163.2246,661.5576,1159.2246" style="stroke:#181818;stroke-width:1;"/><text fill="#000000" font-family="sans-serif" font-size="13" lengthAdjust="spacing" textLength="323.7305" x="661.5576" y="1140.9619">Apply updates (location, length, depth, maxDraft, status)</text></g><g class="message" data-participant-1="S" data-participant-2="S"><line style="stroke:#181818;stroke-width:1;" x1="654.5576" x2="696.5576" y1="1190.5156" y2="1190.5156"/><line style="stroke:#181818;stroke-width:1;" x1="696.5576" x2="696.5576" y1="1190.5156" y2="1203.5156"/><line style="stroke:#181818;stroke-width:1;" x1="655.5576" x2="696.5576" y1="1203.5156" y2="1203.5156"/><polygon fill="#181818" points="665.5576,1199.5156,655.5576,1203.5156,665.5576,1207.5156,661.5576,1203.5156" style="stroke:#181818;stroke-width:1;"/><text fill="#000000" font-family="sans-serif" font-size="13" lengthAdjust="spacing" textLength="192.9116" x="661.5576" y="1185.2529">EnsureHasAllowedVesselTypes()</text></g><g class="message" data-participant-1="S" data-participant-2="UoW"><polygon fill="#181818" points="1687.2139,1230.8066,1697.2139,1234.8066,1687.2139,1238.8066,1691.2139,1234.8066" style="stroke:#181818;stroke-width:1;"/><line style="stroke:#181818;stroke-width:1;" x1="654.5576" x2="1693.2139" y1="1234.8066" y2="1234.8066"/><text fill="#000000" font-family="sans-serif" font-size="13" lengthAdjust="spacing" textLength="88.8354" x="661.5576" y="1229.5439">CommitAsync()</text></g><g class="message" data-participant-1="UoW" data-participant-2="S"><polygon fill="#181818" points="665.5576,1262.0977,655.5576,1266.0977,665.5576,1270.0977,661.5576,1266.0977" style="stroke:#181818;stroke-width:1;"/><line style="stroke:#181818;stroke-width:1;stroke-dasharray:2,2;" x1="659.5576" x2="1703.2139" y1="1266.0977" y2="1266.0977"/><text fill="#000000" font-family="sans-serif" font-size="13" lengthAdjust="spacing" textLength="59.96" x="671.5576" y="1260.835">committed</text></g><g class="message" data-participant-1="S" data-participant-2="M"><polygon fill="#181818" points="1585.4175,1293.3887,1595.4175,1297.3887,1585.4175,1301.3887,1589.4175,1297.3887" style="stroke:#181818;stroke-width:1;"/><line style="stroke:#181818;stroke-width:1;" x1="654.5576" x2="1591.4175" y1="1297.3887" y2="1297.3887"/><text fill="#000000" font-family="sans-serif" font-size="13" lengthAdjust="spacing" textLength="134.3735" x="661.5576" y="1292.126">RegisterDockDto(dock)</text></g><g class="message" data-participant-1="M" data-participant-2="S"><polygon fill="#181818" points="665.5576,1324.6797,655.5576,1328.6797,665.5576,1332.6797,661.5576,1328.6797" style="stroke:#181818;stroke-width:1;"/><line style="stroke:#181818;stroke-width:1;stroke-dasharray:2,2;" x1="659.5576" x2="1601.4175" y1="1328.6797" y2="1328.6797"/><text fill="#000000" font-family="sans-serif" font-size="13" lengthAdjust="spacing" textLength="49.8481" x="671.5576" y="1323.417">DockDto</text></g><g class="message" data-participant-1="S" data-participant-2="C"><polygon fill="#181818" points="459.5215,1355.9707,449.5215,1359.9707,459.5215,1363.9707,455.5215,1359.9707" style="stroke:#181818;stroke-width:1;"/><line style="stroke:#181818;stroke-width:1;stroke-dasharray:2,2;" x1="453.5215" x2="648.5576" y1="1359.9707" y2="1359.9707"/><text fill="#000000" font-family="sans-serif" font-size="13" lengthAdjust="spacing" textLength="49.8481" x="465.5215" y="1354.708">DockDto</text></g><g class="message" data-participant-1="C" data-participant-2="Officer"><polygon fill="#181818" points="39.6138,1387.2617,29.6138,1391.2617,39.6138,1395.2617,35.6138,1391.2617" style="stroke:#181818;stroke-width:1;"/><line style="stroke:#181818;stroke-width:1;stroke-dasharray:2,2;" x1="33.6138" x2="442.5215" y1="1391.2617" y2="1391.2617"/><text fill="#000000" font-family="sans-serif" font-size="13" lengthAdjust="spacing" textLength="108.748" x="45.6138" y="1385.999">200 OK + DockDto</text></g><rect fill="#EEEEEE" height="3" style="stroke:#EEEEEE;stroke-width:1;" width="1754.3276" x="0" y="1420.9072"/><line style="stroke:#000000;stroke-width:1;" x1="0" x2="1754.3276" y1="1420.9072" y2="1420.9072"/><line style="stroke:#000000;stroke-width:1;" x1="0" x2="1754.3276" y1="1423.9072" y2="1423.9072"/><rect fill="#EEEEEE" height="25.291" style="stroke:#000000;stroke-width:2;" width="146.2217" x="804.053" y="1409.2617"/><text fill="#000000" font-family="sans-serif" font-size="13" font-weight="bold" lengthAdjust="spacing" textLength="128.6099" x="810.053" y="1427.29">Search / Filter Docks</text><g class="message" data-participant-1="Officer" data-participant-2="C"><polygon fill="#181818" points="426.5215,1463.8438,436.5215,1467.8438,426.5215,1471.8438,430.5215,1467.8438" style="stroke:#181818;stroke-width:1;"/><line style="stroke:#181818;stroke-width:1;" x1="28.6138" x2="432.5215" y1="1467.8438" y2="1467.8438"/><text fill="#000000" font-family="sans-serif" font-size="13" lengthAdjust="spacing" textLength="390.9077" x="35.6138" y="1462.5811">GetByFilterAsync(code?, vesselTypeId?, location?, query?, status?)</text></g><g class="message" data-participant-1="C" data-participant-2="S"><polygon fill="#181818" points="632.5576,1495.1348,642.5576,1499.1348,632.5576,1503.1348,636.5576,1499.1348" style="stroke:#181818;stroke-width:1;"/><line style="stroke:#181818;stroke-width:1;" x1="448.5215" x2="638.5576" y1="1499.1348" y2="1499.1348"/><text fill="#000000" font-family="sans-serif" font-size="13" lengthAdjust="spacing" textLength="104.7363" x="455.5215" y="1493.8721">GetFilterAsync(...)</text></g><g class="message" data-participant-1="S" data-participant-2="R"><polygon fill="#181818" points="990.2881,1526.4258,1000.2881,1530.4258,990.2881,1534.4258,994.2881,1530.4258" style="stroke:#181818;stroke-width:1;"/><line style="stroke:#181818;stroke-width:1;" x1="654.5576" x2="996.2881" y1="1530.4258" y2="1530.4258"/><text fill="#000000" font-family="sans-serif" font-size="13" lengthAdjust="spacing" textLength="104.7363" x="661.5576" y="1525.1631">GetFilterAsync(...)</text></g><g class="message" data-participant-1="R" data-participant-2="S"><polygon fill="#181818" points="665.5576,1557.7168,655.5576,1561.7168,665.5576,1565.7168,661.5576,1561.7168" style="stroke:#181818;stroke-width:1;"/><line style="stroke:#181818;stroke-width:1;stroke-dasharray:2,2;" x1="659.5576" x2="1006.2881" y1="1561.7168" y2="1561.7168"/><text fill="#000000" font-family="sans-serif" font-size="13" lengthAdjust="spacing" textLength="97.5444" x="671.5576" y="1556.4541">List&lt;EntityDock&gt;</text></g><g class="message" data-participant-1="S" data-participant-2="M"><polygon fill="#181818" points="1585.4175,1589.0078,1595.4175,1593.0078,1585.4175,1597.0078,1589.4175,1593.0078" style="stroke:#181818;stroke-width:1;"/><line style="stroke:#181818;stroke-width:1;" x1="654.5576" x2="1591.4175" y1="1593.0078" y2="1593.0078"/><text fill="#000000" font-family="sans-serif" font-size="13" lengthAdjust="spacing" textLength="121.3608" x="661.5576" y="1587.7451">Map to DockDto (list)</text></g><g class="message" data-participant-1="M" data-participant-2="S"><polygon fill="#181818" points="665.5576,1620.2988,655.5576,1624.2988,665.5576,1628.2988,661.5576,1624.2988" style="stroke:#181818;stroke-width:1;"/><line style="stroke:#181818;stroke-width:1;stroke-dasharray:2,2;" x1="659.5576" x2="1601.4175" y1="1624.2988" y2="1624.2988"/><text fill="#000000" font-family="sans-serif" font-size="13" lengthAdjust="spacing" textLength="85.2617" x="671.5576" y="1619.0361">List&lt;DockDto&gt;</text></g><g class="message" data-participant-1="S" data-participant-2="C"><polygon fill="#181818" points="459.5215,1651.5898,449.5215,1655.5898,459.5215,1659.5898,455.5215,1655.5898" style="stroke:#181818;stroke-width:1;"/><line style="stroke:#181818;stroke-width:1;stroke-dasharray:2,2;" x1="453.5215" x2="648.5576" y1="1655.5898" y2="1655.5898"/><text fill="#000000" font-family="sans-serif" font-size="13" lengthAdjust="spacing" textLength="85.2617" x="465.5215" y="1650.3271">List&lt;DockDto&gt;</text></g><g class="message" data-participant-1="C" data-participant-2="Officer"><polygon fill="#181818" points="39.6138,1682.8809,29.6138,1686.8809,39.6138,1690.8809,35.6138,1686.8809" style="stroke:#181818;stroke-width:1;"/><line style="stroke:#181818;stroke-width:1;stroke-dasharray:2,2;" x1="33.6138" x2="442.5215" y1="1686.8809" y2="1686.8809"/><text fill="#000000" font-family="sans-serif" font-size="13" lengthAdjust="spacing" textLength="144.1616" x="45.6138" y="1681.6182">200 OK + List&lt;DockDto&gt;</text></g><!--SRC=[lLRBRjim4BppAnOvnQYJfZq6TG9NZjkWDMB8ULnwOKZA8YoJAacbqTztIScsB4jkWI8z9V7Ep79dTupObLGvDNGDQwqqIurU2t2c4CHkApQbNF-IQWa9pQmWgUG24gtTitubX3Ad3TmbYMJ246GuoMHEbOEJYMQhI2jdT9O9SmBKGdI8M0ZpWjnGNkoNRtqz5hcs4fkKFzJf_WU3G8fRf4TXhSZkorpia07uUD-6pjFIIaQpM5XT6DOcpEFuyBtJC745c1wMPpJFws5dhMuFIhgxv4cRLIW_w2T2HYE8ZA1EW2V3Q4HgA-7i2YAuhAjZMofs6ekbj4uO3vquFV3conTFZaZa2OiMWU-15eGiF2f6r8soXQcQHXhtAIqKIlx4nM_XCOdXh1RLAtWFIZlSUw4uuQA1gaJHAyGzqano_t7RMT_4mgbuzGCe9XhFyYvxzgONpJ88E6mfZD6csSw33wQOnv4DhokiuF1SWdOfEiXnE7ja7gPLaadckiR1MscECyuo_KlmtMdXBDX7qNLp4dzWdjYSvCLBT4tYmLMlAKARgssjRKgcMyKRvQGhFQWfDMrOCkQyslqEEkZsW78kEbU9X-dlIA_NqbLQ3GL_jHwmKM41vlQLmca7hLbhDZpRxfVDo6ohMGERYhEWLsUYexxm0S3o9ZsNyF7YGvq53k-wA558tqFEZwHlJXrBFvV-UYid6Fush4b7OzZ3x4_a5-7Qy9x5xVpxKoYzxcq2BALgwR_0Dt4VWgYIKsLUuLaVoGalSem9blwcXS_YLlujCjbiTXZBOHKuJxkTs7-EfeUEypmheGWhnzXd6gsGMWqX4shfKjofoFsFDNsT69gu8LX7NM47EudgU-ehjOSFncpzdzJnDy_R1TnzEnQrXQ26fMZuL6Rui02q7Q4BIQWmkonSusQthjro_7Ep2FmLRzYKrnlZhxiJYR9DqVFpy_uazWER5_iT3VwqI-DLrz7wLU3_1E3qnXWy8UJrh298ri2hteNqeewifPSJ_GO0]--></g></svg>