<svg xmlns="http://www.w3.org/2000/svg" xmlns:xlink="http://www.w3.org/1999/xlink" contentStyleType="text/css" data-diagram-type="CLASS" height="798.6px" preserveAspectRatio="none" style="width:952px;height:798px;background:#FFFFFF;" version="1.1" viewBox="0 0 952 798" width="952.8px" zoomAndPan="magnify"><defs/><g><!--cluster Domain--><g class="cluster" data-entity="Domain" data-source-line="2" data-uid="ent0002" id="cluster_Domain"><path d="M338.1,546.0082 L369.5027,546.0082 A2.25,2.25 0 0 1 371.0027,547.5082 L375.2027,560.7809 L512.1,560.7809 A1.5,1.5 0 0 1 513.6,562.2809 L513.6,792.9082 A1.5,1.5 0 0 1 512.1,794.4082 L338.1,794.4082 A1.5,1.5 0 0 1 336.6,792.9082 L336.6,547.5082 A1.5,1.5 0 0 1 338.1,546.0082" fill="none" style="stroke:#000000;stroke-width:0.9;"/><line style="stroke:#000000;stroke-width:0.9;" x1="336.6" x2="375.2027" y1="560.7809" y2="560.7809"/><text fill="#000000" font-family="sans-serif" font-size="8.4" font-weight="bold" lengthAdjust="spacing" textLength="30.8027" x="339" y="556.2727">Domain</text></g><!--cluster DTOs--><g class="cluster" data-entity="DTOs" data-source-line="26" data-uid="ent0006" id="cluster_DTOs"><path d="M474.9,398.4082 L497.9027,398.4082 A2.25,2.25 0 0 1 499.4027,399.9082 L503.6027,413.1809 L797.7,413.1809 A1.5,1.5 0 0 1 799.2,414.6809 L799.2,524.7082 A1.5,1.5 0 0 1 797.7,526.2082 L474.9,526.2082 A1.5,1.5 0 0 1 473.4,524.7082 L473.4,399.9082 A1.5,1.5 0 0 1 474.9,398.4082" fill="none" style="stroke:#000000;stroke-width:0.9;"/><line style="stroke:#000000;stroke-width:0.9;" x1="473.4" x2="503.6027" y1="413.1809" y2="413.1809"/><text fill="#000000" font-family="sans-serif" font-size="8.4" font-weight="bold" lengthAdjust="spacing" textLength="22.4027" x="475.8" y="408.6727">DTOs</text></g><!--cluster Application--><g class="cluster" data-entity="Application" data-source-line="45" data-uid="ent0009" id="cluster_Application"><path d="M428.1,139.8082 L474.4324,139.8082 A2.25,2.25 0 0 1 475.9324,141.3082 L480.1324,154.5809 L752.7,154.5809 A1.5,1.5 0 0 1 754.2,156.0809 L754.2,367.2082 A1.5,1.5 0 0 1 752.7,368.7082 L428.1,368.7082 A1.5,1.5 0 0 1 426.6,367.2082 L426.6,141.3082 A1.5,1.5 0 0 1 428.1,139.8082" fill="none" style="stroke:#000000;stroke-width:0.9;"/><line style="stroke:#000000;stroke-width:0.9;" x1="426.6" x2="480.1324" y1="154.5809" y2="154.5809"/><text fill="#000000" font-family="sans-serif" font-size="8.4" font-weight="bold" lengthAdjust="spacing" textLength="45.7324" x="429" y="150.0727">Application</text></g><!--cluster Infrastructure--><g class="cluster" data-entity="Infrastructure" data-source-line="60" data-uid="ent0012" id="cluster_Infrastructure"><path d="M5.1,274.8082 L60.3123,274.8082 A2.25,2.25 0 0 1 61.8123,276.3082 L66.0123,289.5809 L410.7,289.5809 A1.5,1.5 0 0 1 412.2,291.0809 L412.2,491.1082 A1.5,1.5 0 0 1 410.7,492.6082 L5.1,492.6082 A1.5,1.5 0 0 1 3.6,491.1082 L3.6,276.3082 A1.5,1.5 0 0 1 5.1,274.8082" fill="none" style="stroke:#000000;stroke-width:0.9;"/><line style="stroke:#000000;stroke-width:0.9;" x1="3.6" x2="66.0123" y1="289.5809" y2="289.5809"/><text fill="#000000" font-family="sans-serif" font-size="8.4" font-weight="bold" lengthAdjust="spacing" textLength="54.6123" x="6" y="285.0727">Infrastructure</text></g><!--cluster Presentation--><g class="cluster" data-entity="Presentation" data-source-line="79" data-uid="ent0019" id="cluster_Presentation"><path d="M625.5,3.6082 L676.9799,3.6082 A2.25,2.25 0 0 1 678.4799,5.1082 L682.6799,18.3809 L927.3,18.3809 A1.5,1.5 0 0 1 928.8,19.8809 L928.8,118.5082 A1.5,1.5 0 0 1 927.3,120.0082 L625.5,120.0082 A1.5,1.5 0 0 1 624,118.5082 L624,5.1082 A1.5,1.5 0 0 1 625.5,3.6082" fill="none" style="stroke:#000000;stroke-width:0.9;"/><line style="stroke:#000000;stroke-width:0.9;" x1="624" x2="682.6799" y1="18.3809" y2="18.3809"/><text fill="#000000" font-family="sans-serif" font-size="8.4" font-weight="bold" lengthAdjust="spacing" textLength="50.8799" x="626.4" y="13.8727">Presentation</text></g><!--cluster Cross-cutting--><g class="cluster" data-entity="Cross-cutting" data-source-line="89" data-uid="ent0021" id="cluster_Cross-cutting"><path d="M800.1,280.2082 L855.3,280.2082 A2.25,2.25 0 0 1 856.8,281.7082 L861,294.9809 L947.1,294.9809 A1.5,1.5 0 0 1 948.6,296.4809 L948.6,372.9082 A1.5,1.5 0 0 1 947.1,374.4082 L800.1,374.4082 A1.5,1.5 0 0 1 798.6,372.9082 L798.6,281.7082 A1.5,1.5 0 0 1 800.1,280.2082" fill="none" style="stroke:#000000;stroke-width:0.9;"/><line style="stroke:#000000;stroke-width:0.9;" x1="798.6" x2="861" y1="294.9809" y2="294.9809"/><text fill="#000000" font-family="sans-serif" font-size="8.4" font-weight="bold" lengthAdjust="spacing" textLength="54.6" x="801" y="290.4727">Cross-cutting</text></g><!--class Dock--><g class="entity" data-entity="Dock" data-source-line="3" data-uid="ent0003" id="entity_Dock"><rect fill="#F1F1F1" height="118.1812" rx="1.5" ry="1.5" style="stroke:#181818;stroke-width:0.3;" width="102.9182" x="360" y="568.2082"/><ellipse cx="399.3401" cy="577.8082" fill="#ADD1B2" rx="6.6" ry="6.6" style="stroke:#181818;stroke-width:0.6;"/><path d="M400.9995,575.3332 Q401.0933,575.202 401.2058,575.1363 Q401.3183,575.0707 401.4495,575.0707 Q401.6745,575.0707 401.8151,575.2301 Q401.9558,575.3801 401.9558,575.7457 L401.9558,576.6176 Q401.9558,576.9832 401.8151,577.1426 Q401.6745,577.302 401.4495,577.302 Q401.2433,577.302 401.1214,577.1801 Q400.9995,577.0676 400.9339,576.7582 Q400.9058,576.5426 400.7933,576.4301 Q400.5964,576.2051 400.2308,576.0738 Q399.8651,575.9426 399.4901,575.9426 Q399.0308,575.9426 398.6464,576.1395 Q398.2714,576.3363 397.9714,576.7863 Q397.6808,577.2363 397.6808,577.8551 L397.6808,578.5113 Q397.6808,579.252 398.2151,579.7488 Q398.7495,580.2363 399.7058,580.2363 Q400.2683,580.2363 400.662,580.0863 Q400.8964,579.9926 401.1495,579.7301 Q401.3089,579.5707 401.3933,579.5238 Q401.487,579.477 401.6089,579.477 Q401.8058,579.477 401.9558,579.6363 Q402.1151,579.7863 402.1151,579.9926 Q402.1151,580.1988 401.9089,580.4426 Q401.6089,580.7895 401.1308,580.9863 Q400.4839,581.2582 399.7058,581.2582 Q398.7964,581.2582 398.0745,580.8832 Q397.4839,580.5832 397.0714,579.9457 Q396.6589,579.2988 396.6589,578.5301 L396.6589,577.8363 Q396.6589,577.0395 397.0245,576.3551 Q397.3995,575.6613 398.0558,575.2957 Q398.712,574.9207 399.4526,574.9207 Q399.8933,574.9207 400.2776,575.0238 Q400.6714,575.1176 400.9995,575.3332 Z " fill="#000000"/><text fill="#000000" font-family="sans-serif" font-size="8.4" lengthAdjust="spacing" textLength="19.1379" x="411.6401" y="581.2863">Dock</text><line style="stroke:#181818;stroke-width:0.3;" x1="360.6" x2="462.3182" y1="587.4082" y2="587.4082"/><rect fill="none" height="3.6" style="stroke:#C82930;stroke-width:0.6;" width="3.6" x="364.8" y="594.4945"/><text fill="#000000" font-family="sans-serif" font-size="8.4" lengthAdjust="spacing" textLength="54.6328" x="372" y="598.8727">string Location</text><rect fill="none" height="3.6" style="stroke:#C82930;stroke-width:0.6;" width="3.6" x="364.8" y="605.6672"/><text fill="#000000" font-family="sans-serif" font-size="8.4" lengthAdjust="spacing" textLength="65.3666" x="372" y="610.0453">float TeuCapacity</text><rect fill="none" height="3.6" style="stroke:#C82930;stroke-width:0.6;" width="3.6" x="364.8" y="616.8398"/><text fill="#000000" font-family="sans-serif" font-size="8.4" lengthAdjust="spacing" textLength="81.2355" x="372" y="621.218">int CurrentOccupancy</text><rect fill="none" height="3.6" style="stroke:#C82930;stroke-width:0.6;" width="3.6" x="364.8" y="628.0125"/><text fill="#000000" font-family="sans-serif" font-size="8.4" lengthAdjust="spacing" textLength="41.5488" x="372" y="632.3906">string Type</text><line style="stroke:#181818;stroke-width:0.3;" x1="360.6" x2="462.3182" y1="636.8988" y2="636.8988"/><ellipse cx="366.6" cy="645.7852" fill="#84BE84" rx="1.8" ry="1.8" style="stroke:#038048;stroke-width:0.6;"/><text fill="#000000" font-family="sans-serif" font-size="8.4" lengthAdjust="spacing" textLength="87.3182" x="372" y="648.3633">ChangeLocation(string)</text><ellipse cx="366.6" cy="656.9578" fill="#84BE84" rx="1.8" ry="1.8" style="stroke:#038048;stroke-width:0.6;"/><text fill="#000000" font-family="sans-serif" font-size="8.4" lengthAdjust="spacing" textLength="83.5775" x="372" y="659.5359">ChangeCapacity(float)</text><ellipse cx="366.6" cy="668.1305" fill="#84BE84" rx="1.8" ry="1.8" style="stroke:#038048;stroke-width:0.6;"/><text fill="#000000" font-family="sans-serif" font-size="8.4" lengthAdjust="spacing" textLength="85.9113" x="372" y="670.7086">ChangeOccupancy(int)</text><ellipse cx="366.6" cy="679.3031" fill="#84BE84" rx="1.8" ry="1.8" style="stroke:#038048;stroke-width:0.6;"/><text fill="#000000" font-family="sans-serif" font-size="8.4" lengthAdjust="spacing" textLength="74.2342" x="372" y="681.8813">ChangeType(string)</text></g><!--class DockId--><g class="entity" data-entity="DockId" data-source-line="14" data-uid="ent0004" id="entity_DockId"><rect fill="#F1F1F1" height="51.1453" rx="1.5" ry="1.5" style="stroke:#181818;stroke-width:0.3;" width="73.4854" x="346.2" y="733.8082"/><ellipse cx="367.8639" cy="743.4082" fill="#ADD1B2" rx="6.6" ry="6.6" style="stroke:#181818;stroke-width:0.6;"/><path d="M369.5233,740.9332 Q369.617,740.802 369.7295,740.7363 Q369.842,740.6707 369.9733,740.6707 Q370.1983,740.6707 370.3389,740.8301 Q370.4795,740.9801 370.4795,741.3457 L370.4795,742.2176 Q370.4795,742.5832 370.3389,742.7426 Q370.1983,742.902 369.9733,742.902 Q369.767,742.902 369.6451,742.7801 Q369.5233,742.6676 369.4576,742.3582 Q369.4295,742.1426 369.317,742.0301 Q369.1201,741.8051 368.7545,741.6738 Q368.3889,741.5426 368.0139,741.5426 Q367.5545,741.5426 367.1701,741.7395 Q366.7951,741.9363 366.4951,742.3863 Q366.2045,742.8363 366.2045,743.4551 L366.2045,744.1113 Q366.2045,744.852 366.7389,745.3488 Q367.2733,745.8363 368.2295,745.8363 Q368.792,745.8363 369.1858,745.6863 Q369.4201,745.5926 369.6733,745.3301 Q369.8326,745.1707 369.917,745.1238 Q370.0108,745.077 370.1326,745.077 Q370.3295,745.077 370.4795,745.2363 Q370.6389,745.3863 370.6389,745.5926 Q370.6389,745.7988 370.4326,746.0426 Q370.1326,746.3895 369.6545,746.5863 Q369.0076,746.8582 368.2295,746.8582 Q367.3201,746.8582 366.5983,746.4832 Q366.0076,746.1832 365.5951,745.5457 Q365.1826,744.8988 365.1826,744.1301 L365.1826,743.4363 Q365.1826,742.6395 365.5483,741.9551 Q365.9233,741.2613 366.5795,740.8957 Q367.2358,740.5207 367.9764,740.5207 Q368.417,740.5207 368.8014,740.6238 Q369.1951,740.7176 369.5233,740.9332 Z " fill="#000000"/><text fill="#000000" font-family="sans-serif" font-size="8.4" lengthAdjust="spacing" textLength="26.1434" x="379.0781" y="746.8863">DockId</text><line style="stroke:#181818;stroke-width:0.3;" x1="346.8" x2="419.0854" y1="753.0082" y2="753.0082"/><rect fill="none" height="3.6" style="stroke:#C82930;stroke-width:0.6;" width="3.6" x="351" y="760.0945"/><text fill="#000000" font-family="sans-serif" font-size="8.4" lengthAdjust="spacing" textLength="41.5611" x="358.2" y="764.4727">Guid Value</text><line style="stroke:#181818;stroke-width:0.3;" x1="346.8" x2="419.0854" y1="768.9809" y2="768.9809"/><ellipse cx="352.8" cy="777.8672" fill="#84BE84" rx="1.8" ry="1.8" style="stroke:#038048;stroke-width:0.6;"/><text fill="#000000" font-family="sans-serif" font-size="8.4" lengthAdjust="spacing" textLength="57.8854" x="358.2" y="780.4453">AsGuid() : Guid</text></g><!--class VesselType--><g class="entity" data-entity="VesselType" data-source-line="20" data-uid="ent0005" id="entity_VesselType"><rect fill="#F1F1F1" height="39.9727" rx="1.5" ry="1.5" style="stroke:#181818;stroke-width:0.3;" width="63.0867" x="440.7" y="739.2082"/><ellipse cx="449.7" cy="748.8082" fill="#ADD1B2" rx="6.6" ry="6.6" style="stroke:#181818;stroke-width:0.6;"/><path d="M451.3594,746.3332 Q451.4531,746.202 451.5656,746.1363 Q451.6781,746.0707 451.8094,746.0707 Q452.0344,746.0707 452.175,746.2301 Q452.3156,746.3801 452.3156,746.7457 L452.3156,747.6176 Q452.3156,747.9832 452.175,748.1426 Q452.0344,748.302 451.8094,748.302 Q451.6031,748.302 451.4813,748.1801 Q451.3594,748.0676 451.2938,747.7582 Q451.2656,747.5426 451.1531,747.4301 Q450.9563,747.2051 450.5906,747.0738 Q450.225,746.9426 449.85,746.9426 Q449.3906,746.9426 449.0062,747.1395 Q448.6312,747.3363 448.3313,747.7863 Q448.0406,748.2363 448.0406,748.8551 L448.0406,749.5113 Q448.0406,750.252 448.575,750.7488 Q449.1094,751.2363 450.0656,751.2363 Q450.6281,751.2363 451.0219,751.0863 Q451.2562,750.9926 451.5094,750.7301 Q451.6688,750.5707 451.7531,750.5238 Q451.8469,750.477 451.9688,750.477 Q452.1656,750.477 452.3156,750.6363 Q452.475,750.7863 452.475,750.9926 Q452.475,751.1988 452.2688,751.4426 Q451.9688,751.7895 451.4906,751.9863 Q450.8438,752.2582 450.0656,752.2582 Q449.1563,752.2582 448.4344,751.8832 Q447.8438,751.5832 447.4313,750.9457 Q447.0188,750.2988 447.0188,749.5301 L447.0188,748.8363 Q447.0188,748.0395 447.3844,747.3551 Q447.7594,746.6613 448.4156,746.2957 Q449.0719,745.9207 449.8125,745.9207 Q450.2531,745.9207 450.6375,746.0238 Q451.0313,746.1176 451.3594,746.3332 Z " fill="#000000"/><text fill="#000000" font-family="sans-serif" font-size="8.4" lengthAdjust="spacing" textLength="43.8867" x="458.1" y="752.2863">VesselType</text><line style="stroke:#181818;stroke-width:0.3;" x1="441.3" x2="503.1867" y1="758.4082" y2="758.4082"/><rect fill="none" height="3.6" style="stroke:#C82930;stroke-width:0.6;" width="3.6" x="445.5" y="765.4945"/><text fill="#000000" font-family="sans-serif" font-size="8.4" lengthAdjust="spacing" textLength="45.2813" x="452.7" y="769.8727">string Name</text><line style="stroke:#181818;stroke-width:0.3;" x1="441.3" x2="503.1867" y1="774.3809" y2="774.3809"/></g><!--class RegisterDockDto--><g class="entity" data-entity="RegisterDockDto" data-source-line="27" data-uid="ent0007" id="entity_RegisterDockDto"><rect fill="#F1F1F1" height="84.6633" rx="1.5" ry="1.5" style="stroke:#181818;stroke-width:0.3;" width="143.0684" x="646.8" y="426.3082"/><ellipse cx="684.0401" cy="435.9082" fill="#ADD1B2" rx="6.6" ry="6.6" style="stroke:#181818;stroke-width:0.6;"/><path d="M685.6995,433.4332 Q685.7933,433.302 685.9058,433.2363 Q686.0183,433.1707 686.1495,433.1707 Q686.3745,433.1707 686.5151,433.3301 Q686.6558,433.4801 686.6558,433.8457 L686.6558,434.7176 Q686.6558,435.0832 686.5151,435.2426 Q686.3745,435.402 686.1495,435.402 Q685.9433,435.402 685.8214,435.2801 Q685.6995,435.1676 685.6339,434.8582 Q685.6058,434.6426 685.4933,434.5301 Q685.2964,434.3051 684.9308,434.1738 Q684.5651,434.0426 684.1901,434.0426 Q683.7308,434.0426 683.3464,434.2395 Q682.9714,434.4363 682.6714,434.8863 Q682.3808,435.3363 682.3808,435.9551 L682.3808,436.6113 Q682.3808,437.352 682.9151,437.8488 Q683.4495,438.3363 684.4058,438.3363 Q684.9683,438.3363 685.362,438.1863 Q685.5964,438.0926 685.8495,437.8301 Q686.0089,437.6707 686.0933,437.6238 Q686.187,437.577 686.3089,437.577 Q686.5058,437.577 686.6558,437.7363 Q686.8151,437.8863 686.8151,438.0926 Q686.8151,438.2988 686.6089,438.5426 Q686.3089,438.8895 685.8308,439.0863 Q685.1839,439.3582 684.4058,439.3582 Q683.4964,439.3582 682.7745,438.9832 Q682.1839,438.6832 681.7714,438.0457 Q681.3589,437.3988 681.3589,436.6301 L681.3589,435.9363 Q681.3589,435.1395 681.7245,434.4551 Q682.0995,433.7613 682.7558,433.3957 Q683.412,433.0207 684.1526,433.0207 Q684.5933,433.0207 684.9776,433.1238 Q685.3714,433.2176 685.6995,433.4332 Z " fill="#000000"/><text fill="#000000" font-family="sans-serif" font-size="8.4" lengthAdjust="spacing" textLength="63.4881" x="696.3401" y="439.3863">RegisterDockDto</text><line style="stroke:#181818;stroke-width:0.3;" x1="647.4" x2="789.2684" y1="445.5082" y2="445.5082"/><ellipse cx="653.4" cy="454.3945" fill="none" rx="1.8" ry="1.8" style="stroke:#038048;stroke-width:0.6;"/><text fill="#000000" font-family="sans-serif" font-size="8.4" lengthAdjust="spacing" textLength="54.6328" x="658.8" y="456.9727">string Location</text><ellipse cx="653.4" cy="465.5672" fill="none" rx="1.8" ry="1.8" style="stroke:#038048;stroke-width:0.6;"/><text fill="#000000" font-family="sans-serif" font-size="8.4" lengthAdjust="spacing" textLength="65.3666" x="658.8" y="468.1453">float TeuCapacity</text><ellipse cx="653.4" cy="476.7398" fill="none" rx="1.8" ry="1.8" style="stroke:#038048;stroke-width:0.6;"/><text fill="#000000" font-family="sans-serif" font-size="8.4" lengthAdjust="spacing" textLength="81.2355" x="658.8" y="479.318">int CurrentOccupancy</text><ellipse cx="653.4" cy="487.9125" fill="none" rx="1.8" ry="1.8" style="stroke:#038048;stroke-width:0.6;"/><text fill="#000000" font-family="sans-serif" font-size="8.4" lengthAdjust="spacing" textLength="41.5488" x="658.8" y="490.4906">string Type</text><ellipse cx="653.4" cy="499.0852" fill="none" rx="1.8" ry="1.8" style="stroke:#038048;stroke-width:0.6;"/><text fill="#000000" font-family="sans-serif" font-size="8.4" lengthAdjust="spacing" textLength="127.4684" x="658.8" y="501.6633">List&lt;Guid&gt; AllowedVesselTypeIds</text><line style="stroke:#181818;stroke-width:0.3;" x1="647.4" x2="789.2684" y1="506.1715" y2="506.1715"/></g><!--class DockDto--><g class="entity" data-entity="DockDto" data-source-line="35" data-uid="ent0008" id="entity_DockDto"><rect fill="#F1F1F1" height="95.8359" rx="1.5" ry="1.5" style="stroke:#181818;stroke-width:0.3;" width="143.0684" x="483" y="420.6082"/><ellipse cx="535.8794" cy="430.2082" fill="#ADD1B2" rx="6.6" ry="6.6" style="stroke:#181818;stroke-width:0.6;"/><path d="M537.5388,427.7332 Q537.6325,427.602 537.745,427.5363 Q537.8575,427.4707 537.9888,427.4707 Q538.2138,427.4707 538.3544,427.6301 Q538.495,427.7801 538.495,428.1457 L538.495,429.0176 Q538.495,429.3832 538.3544,429.5426 Q538.2138,429.702 537.9888,429.702 Q537.7825,429.702 537.6606,429.5801 Q537.5388,429.4676 537.4731,429.1582 Q537.445,428.9426 537.3325,428.8301 Q537.1356,428.6051 536.77,428.4738 Q536.4044,428.3426 536.0294,428.3426 Q535.57,428.3426 535.1856,428.5395 Q534.8106,428.7363 534.5106,429.1863 Q534.22,429.6363 534.22,430.2551 L534.22,430.9113 Q534.22,431.652 534.7544,432.1488 Q535.2888,432.6363 536.245,432.6363 Q536.8075,432.6363 537.2013,432.4863 Q537.4356,432.3926 537.6888,432.1301 Q537.8481,431.9707 537.9325,431.9238 Q538.0263,431.877 538.1481,431.877 Q538.345,431.877 538.495,432.0363 Q538.6544,432.1863 538.6544,432.3926 Q538.6544,432.5988 538.4481,432.8426 Q538.1481,433.1895 537.67,433.3863 Q537.0231,433.6582 536.245,433.6582 Q535.3356,433.6582 534.6138,433.2832 Q534.0231,432.9832 533.6106,432.3457 Q533.1981,431.6988 533.1981,430.9301 L533.1981,430.2363 Q533.1981,429.4395 533.5638,428.7551 Q533.9388,428.0613 534.595,427.6957 Q535.2513,427.3207 535.9919,427.3207 Q536.4325,427.3207 536.8169,427.4238 Q537.2106,427.5176 537.5388,427.7332 Z " fill="#000000"/><text fill="#000000" font-family="sans-serif" font-size="8.4" lengthAdjust="spacing" textLength="32.2096" x="548.1794" y="433.6863">DockDto</text><line style="stroke:#181818;stroke-width:0.3;" x1="483.6" x2="625.4684" y1="439.8082" y2="439.8082"/><ellipse cx="489.6" cy="448.6945" fill="none" rx="1.8" ry="1.8" style="stroke:#038048;stroke-width:0.6;"/><text fill="#000000" font-family="sans-serif" font-size="8.4" lengthAdjust="spacing" textLength="27.0826" x="495" y="451.2727">Guid Id</text><ellipse cx="489.6" cy="459.8672" fill="none" rx="1.8" ry="1.8" style="stroke:#038048;stroke-width:0.6;"/><text fill="#000000" font-family="sans-serif" font-size="8.4" lengthAdjust="spacing" textLength="54.6328" x="495" y="462.4453">string Location</text><ellipse cx="489.6" cy="471.0398" fill="none" rx="1.8" ry="1.8" style="stroke:#038048;stroke-width:0.6;"/><text fill="#000000" font-family="sans-serif" font-size="8.4" lengthAdjust="spacing" textLength="65.3666" x="495" y="473.618">float TeuCapacity</text><ellipse cx="489.6" cy="482.2125" fill="none" rx="1.8" ry="1.8" style="stroke:#038048;stroke-width:0.6;"/><text fill="#000000" font-family="sans-serif" font-size="8.4" lengthAdjust="spacing" textLength="81.2355" x="495" y="484.7906">int CurrentOccupancy</text><ellipse cx="489.6" cy="493.3852" fill="none" rx="1.8" ry="1.8" style="stroke:#038048;stroke-width:0.6;"/><text fill="#000000" font-family="sans-serif" font-size="8.4" lengthAdjust="spacing" textLength="41.5488" x="495" y="495.9633">string Type</text><ellipse cx="489.6" cy="504.5578" fill="none" rx="1.8" ry="1.8" style="stroke:#038048;stroke-width:0.6;"/><text fill="#000000" font-family="sans-serif" font-size="8.4" lengthAdjust="spacing" textLength="127.4684" x="495" y="507.1359">List&lt;Guid&gt; AllowedVesselTypeIds</text><line style="stroke:#181818;stroke-width:0.3;" x1="483.6" x2="625.4684" y1="511.6441" y2="511.6441"/></g><!--class DockService--><g class="entity" data-entity="DockService" data-source-line="46" data-uid="ent0010" id="entity_DockService"><rect fill="#F1F1F1" height="84.6633" rx="1.5" ry="1.5" style="stroke:#181818;stroke-width:0.3;" width="308.3244" x="436.2" y="162.0082"/><ellipse cx="564.2385" cy="171.6082" fill="#ADD1B2" rx="6.6" ry="6.6" style="stroke:#181818;stroke-width:0.6;"/><path d="M565.8979,169.1332 Q565.9916,169.002 566.1041,168.9363 Q566.2166,168.8707 566.3479,168.8707 Q566.5729,168.8707 566.7135,169.0301 Q566.8541,169.1801 566.8541,169.5457 L566.8541,170.4176 Q566.8541,170.7832 566.7135,170.9426 Q566.5729,171.102 566.3479,171.102 Q566.1416,171.102 566.0197,170.9801 Q565.8979,170.8676 565.8322,170.5582 Q565.8041,170.3426 565.6916,170.2301 Q565.4947,170.0051 565.1291,169.8738 Q564.7635,169.7426 564.3885,169.7426 Q563.9291,169.7426 563.5447,169.9395 Q563.1697,170.1363 562.8697,170.5863 Q562.5791,171.0363 562.5791,171.6551 L562.5791,172.3113 Q562.5791,173.052 563.1135,173.5488 Q563.6479,174.0363 564.6041,174.0363 Q565.1666,174.0363 565.5604,173.8863 Q565.7947,173.7926 566.0479,173.5301 Q566.2072,173.3707 566.2916,173.3238 Q566.3854,173.277 566.5072,173.277 Q566.7041,173.277 566.8541,173.4363 Q567.0135,173.5863 567.0135,173.7926 Q567.0135,173.9988 566.8072,174.2426 Q566.5072,174.5895 566.0291,174.7863 Q565.3822,175.0582 564.6041,175.0582 Q563.6947,175.0582 562.9729,174.6832 Q562.3822,174.3832 561.9697,173.7457 Q561.5572,173.0988 561.5572,172.3301 L561.5572,171.6363 Q561.5572,170.8395 561.9229,170.1551 Q562.2979,169.4613 562.9541,169.0957 Q563.6104,168.7207 564.351,168.7207 Q564.7916,168.7207 565.176,168.8238 Q565.5697,168.9176 565.8979,169.1332 Z " fill="#000000"/><text fill="#000000" font-family="sans-serif" font-size="8.4" lengthAdjust="spacing" textLength="47.1475" x="576.5385" y="175.0863">DockService</text><line style="stroke:#181818;stroke-width:0.3;" x1="436.8" x2="743.9244" y1="181.2082" y2="181.2082"/><line style="stroke:#181818;stroke-width:0.3;" x1="436.8" x2="743.9244" y1="186.0082" y2="186.0082"/><ellipse cx="442.8" cy="194.8945" fill="#84BE84" rx="1.8" ry="1.8" style="stroke:#038048;stroke-width:0.6;"/><text fill="#000000" font-family="sans-serif" font-size="8.4" lengthAdjust="spacing" textLength="113.4369" x="448.2" y="197.4727">GetAllAsync() : List&lt;DockDto&gt;</text><ellipse cx="442.8" cy="206.0672" fill="#84BE84" rx="1.8" ry="1.8" style="stroke:#038048;stroke-width:0.6;"/><text fill="#000000" font-family="sans-serif" font-size="8.4" lengthAdjust="spacing" textLength="124.1707" x="448.2" y="208.6453">GetByIdAsync(DockId) : DockDto</text><ellipse cx="442.8" cy="217.2398" fill="#84BE84" rx="1.8" ry="1.8" style="stroke:#038048;stroke-width:0.6;"/><text fill="#000000" font-family="sans-serif" font-size="8.4" lengthAdjust="spacing" textLength="292.7244" x="448.2" y="219.818">FilterAsync(string? location, Guid? vesselTypeId, string? type) : List&lt;DockDto&gt;</text><ellipse cx="442.8" cy="228.4125" fill="#84BE84" rx="1.8" ry="1.8" style="stroke:#038048;stroke-width:0.6;"/><text fill="#000000" font-family="sans-serif" font-size="8.4" lengthAdjust="spacing" textLength="146.1141" x="448.2" y="230.9906">AddAsync(RegisterDockDto) : DockDto</text><ellipse cx="442.8" cy="239.5852" fill="#84BE84" rx="1.8" ry="1.8" style="stroke:#038048;stroke-width:0.6;"/><text fill="#000000" font-family="sans-serif" font-size="8.4" lengthAdjust="spacing" textLength="180.6656" x="448.2" y="242.1633">UpdateAsync(Guid, RegisterDockDto) : DockDto</text></g><!--class DockFactory--><g class="entity" data-entity="DockFactory" data-source-line="54" data-uid="ent0011" id="entity_DockFactory"><rect fill="#F1F1F1" height="51.1453" rx="1.5" ry="1.5" style="stroke:#181818;stroke-width:0.3;" width="175.7127" x="489.9" y="308.1082"/><ellipse cx="551.6347" cy="317.7082" fill="#ADD1B2" rx="6.6" ry="6.6" style="stroke:#181818;stroke-width:0.6;"/><path d="M553.294,315.2332 Q553.3878,315.102 553.5003,315.0363 Q553.6128,314.9707 553.744,314.9707 Q553.969,314.9707 554.1097,315.1301 Q554.2503,315.2801 554.2503,315.6457 L554.2503,316.5176 Q554.2503,316.8832 554.1097,317.0426 Q553.969,317.202 553.744,317.202 Q553.5378,317.202 553.4159,317.0801 Q553.294,316.9676 553.2284,316.6582 Q553.2003,316.4426 553.0878,316.3301 Q552.8909,316.1051 552.5253,315.9738 Q552.1597,315.8426 551.7847,315.8426 Q551.3253,315.8426 550.9409,316.0395 Q550.5659,316.2363 550.2659,316.6863 Q549.9753,317.1363 549.9753,317.7551 L549.9753,318.4113 Q549.9753,319.152 550.5097,319.6488 Q551.044,320.1363 552.0003,320.1363 Q552.5628,320.1363 552.9565,319.9863 Q553.1909,319.8926 553.444,319.6301 Q553.6034,319.4707 553.6878,319.4238 Q553.7815,319.377 553.9034,319.377 Q554.1003,319.377 554.2503,319.5363 Q554.4097,319.6863 554.4097,319.8926 Q554.4097,320.0988 554.2034,320.3426 Q553.9034,320.6895 553.4253,320.8863 Q552.7784,321.1582 552.0003,321.1582 Q551.0909,321.1582 550.369,320.7832 Q549.7784,320.4832 549.3659,319.8457 Q548.9534,319.1988 548.9534,318.4301 L548.9534,317.7363 Q548.9534,316.9395 549.319,316.2551 Q549.694,315.5613 550.3503,315.1957 Q551.0065,314.8207 551.7472,314.8207 Q552.1878,314.8207 552.5722,314.9238 Q552.9659,315.0176 553.294,315.2332 Z " fill="#000000"/><text fill="#000000" font-family="sans-serif" font-size="8.4" lengthAdjust="spacing" textLength="47.1434" x="563.9347" y="321.1863">DockFactory</text><line style="stroke:#181818;stroke-width:0.3;" x1="490.5" x2="665.0127" y1="327.3082" y2="327.3082"/><line style="stroke:#181818;stroke-width:0.3;" x1="490.5" x2="665.0127" y1="332.1082" y2="332.1082"/><ellipse cx="496.5" cy="340.9945" fill="#84BE84" rx="1.8" ry="1.8" style="stroke:#038048;stroke-width:0.6;"/><text fill="#000000" font-family="sans-serif" font-size="8.4" lengthAdjust="spacing" textLength="160.1127" x="501.9" y="343.5727">CreateBasicDock(RegisterDockDto) : Dock</text><ellipse cx="496.5" cy="352.1672" fill="#84BE84" rx="1.8" ry="1.8" style="stroke:#038048;stroke-width:0.6;"/><text fill="#000000" font-family="sans-serif" font-size="8.4" lengthAdjust="spacing" textLength="121.3652" x="501.9" y="354.7453">CreateDtoDock(Dock) : DockDto</text></g><!--class IDockRepository--><g class="entity" data-entity="IDockRepository" data-source-line="61" data-uid="ent0013" id="entity_IDockRepository"><rect fill="#F1F1F1" height="73.4906" rx="1.5" ry="1.5" style="stroke:#181818;stroke-width:0.3;" width="295.2527" x="107.4" y="297.0082"/><ellipse cx="221.6654" cy="306.6082" fill="#B4A7E5" rx="6.6" ry="6.6" style="stroke:#181818;stroke-width:0.6;"/><path d="M222.2373,304.5926 L222.2373,308.5863 L223.2686,308.5863 Q223.6342,308.5863 223.7936,308.727 Q223.9529,308.8676 223.9529,309.102 Q223.9529,309.327 223.7936,309.4676 Q223.6342,309.6082 223.2686,309.6082 L220.1842,309.6082 Q219.8186,309.6082 219.6592,309.4676 Q219.4998,309.327 219.4998,309.0926 Q219.4998,308.8676 219.6592,308.727 Q219.8186,308.5863 220.1842,308.5863 L221.2154,308.5863 L221.2154,304.5926 L220.1842,304.5926 Q219.8186,304.5926 219.6592,304.452 Q219.4998,304.3113 219.4998,304.077 Q219.4998,303.852 219.6592,303.7113 Q219.8186,303.5707 220.1842,303.5707 L223.2686,303.5707 Q223.6342,303.5707 223.7936,303.7113 Q223.9529,303.852 223.9529,304.077 Q223.9529,304.3113 223.7936,304.452 Q223.6342,304.5926 223.2686,304.5926 L222.2373,304.5926 Z " fill="#000000"/><text fill="#000000" font-family="sans-serif" font-size="8.4" font-style="italic" lengthAdjust="spacing" textLength="61.6219" x="233.9654" y="310.0863">IDockRepository</text><line style="stroke:#181818;stroke-width:0.3;" x1="108" x2="402.0527" y1="316.2082" y2="316.2082"/><line style="stroke:#181818;stroke-width:0.3;" x1="108" x2="402.0527" y1="321.0082" y2="321.0082"/><ellipse cx="114" cy="329.8945" fill="#84BE84" rx="1.8" ry="1.8" style="stroke:#038048;stroke-width:0.6;"/><text fill="#000000" font-family="sans-serif" font-size="8.4" lengthAdjust="spacing" textLength="100.3652" x="119.4" y="332.4727">GetAllAsync() : List&lt;Dock&gt;</text><ellipse cx="114" cy="341.0672" fill="#84BE84" rx="1.8" ry="1.8" style="stroke:#038048;stroke-width:0.6;"/><text fill="#000000" font-family="sans-serif" font-size="8.4" lengthAdjust="spacing" textLength="111.099" x="119.4" y="343.6453">GetByIdAsync(DockId) : Dock</text><ellipse cx="114" cy="352.2398" fill="#84BE84" rx="1.8" ry="1.8" style="stroke:#038048;stroke-width:0.6;"/><text fill="#000000" font-family="sans-serif" font-size="8.4" lengthAdjust="spacing" textLength="279.6527" x="119.4" y="354.818">FilterAsync(string? location, Guid? vesselTypeId, string? type) : List&lt;Dock&gt;</text><ellipse cx="114" cy="363.4125" fill="#84BE84" rx="1.8" ry="1.8" style="stroke:#038048;stroke-width:0.6;"/><text fill="#000000" font-family="sans-serif" font-size="8.4" lengthAdjust="spacing" textLength="62.5529" x="119.4" y="365.9906">AddAsync(Dock)</text></g><!--class DockRepository--><g class="entity" data-entity="DockRepository" data-source-line="68" data-uid="ent0014" id="entity_DockRepository"><rect fill="#F1F1F1" height="28.8" rx="1.5" ry="1.5" style="stroke:#181818;stroke-width:0.3;" width="78.4881" x="285.3" y="454.2082"/><ellipse cx="294.3" cy="463.8082" fill="#ADD1B2" rx="6.6" ry="6.6" style="stroke:#181818;stroke-width:0.6;"/><path d="M295.9594,461.3332 Q296.0531,461.202 296.1656,461.1363 Q296.2781,461.0707 296.4094,461.0707 Q296.6344,461.0707 296.775,461.2301 Q296.9156,461.3801 296.9156,461.7457 L296.9156,462.6176 Q296.9156,462.9832 296.775,463.1426 Q296.6344,463.302 296.4094,463.302 Q296.2031,463.302 296.0813,463.1801 Q295.9594,463.0676 295.8938,462.7582 Q295.8656,462.5426 295.7531,462.4301 Q295.5563,462.2051 295.1906,462.0738 Q294.825,461.9426 294.45,461.9426 Q293.9906,461.9426 293.6063,462.1395 Q293.2313,462.3363 292.9313,462.7863 Q292.6406,463.2363 292.6406,463.8551 L292.6406,464.5113 Q292.6406,465.252 293.175,465.7488 Q293.7094,466.2363 294.6656,466.2363 Q295.2281,466.2363 295.6219,466.0863 Q295.8563,465.9926 296.1094,465.7301 Q296.2688,465.5707 296.3531,465.5238 Q296.4469,465.477 296.5687,465.477 Q296.7656,465.477 296.9156,465.6363 Q297.075,465.7863 297.075,465.9926 Q297.075,466.1988 296.8688,466.4426 Q296.5687,466.7895 296.0906,466.9863 Q295.4437,467.2582 294.6656,467.2582 Q293.7562,467.2582 293.0344,466.8832 Q292.4437,466.5832 292.0313,465.9457 Q291.6188,465.2988 291.6188,464.5301 L291.6188,463.8363 Q291.6188,463.0395 291.9844,462.3551 Q292.3594,461.6613 293.0156,461.2957 Q293.6719,460.9207 294.4125,460.9207 Q294.8531,460.9207 295.2375,461.0238 Q295.6312,461.1176 295.9594,461.3332 Z " fill="#000000"/><text fill="#000000" font-family="sans-serif" font-size="8.4" lengthAdjust="spacing" textLength="59.2881" x="302.7" y="467.2863">DockRepository</text><line style="stroke:#181818;stroke-width:0.3;" x1="285.9" x2="363.1881" y1="473.4082" y2="473.4082"/><line style="stroke:#181818;stroke-width:0.3;" x1="285.9" x2="363.1881" y1="478.2082" y2="478.2082"/></g><!--class IUnitOfWork--><g class="entity" data-entity="IUnitOfWork" data-source-line="71" data-uid="ent0016" id="entity_IUnitOfWork"><rect fill="#F1F1F1" height="39.9727" rx="1.5" ry="1.5" style="stroke:#181818;stroke-width:0.3;" width="73.0014" x="13.2" y="313.5082"/><ellipse cx="25.8292" cy="323.1082" fill="#B4A7E5" rx="6.6" ry="6.6" style="stroke:#181818;stroke-width:0.6;"/><path d="M26.4011,321.0926 L26.4011,325.0863 L27.4323,325.0863 Q27.7979,325.0863 27.9573,325.227 Q28.1167,325.3676 28.1167,325.602 Q28.1167,325.827 27.9573,325.9676 Q27.7979,326.1082 27.4323,326.1082 L24.3479,326.1082 Q23.9823,326.1082 23.8229,325.9676 Q23.6636,325.827 23.6636,325.5926 Q23.6636,325.3676 23.8229,325.227 Q23.9823,325.0863 24.3479,325.0863 L25.3792,325.0863 L25.3792,321.0926 L24.3479,321.0926 Q23.9823,321.0926 23.8229,320.952 Q23.6636,320.8113 23.6636,320.577 Q23.6636,320.352 23.8229,320.2113 Q23.9823,320.0707 24.3479,320.0707 L27.4323,320.0707 Q27.7979,320.0707 27.9573,320.2113 Q28.1167,320.352 28.1167,320.577 Q28.1167,320.8113 27.9573,320.952 Q27.7979,321.0926 27.4323,321.0926 L26.4011,321.0926 Z " fill="#000000"/><text fill="#000000" font-family="sans-serif" font-size="8.4" font-style="italic" lengthAdjust="spacing" textLength="45.7365" x="35.0357" y="326.5863">IUnitOfWork</text><line style="stroke:#181818;stroke-width:0.3;" x1="13.8" x2="85.6014" y1="332.7082" y2="332.7082"/><line style="stroke:#181818;stroke-width:0.3;" x1="13.8" x2="85.6014" y1="337.5082" y2="337.5082"/><ellipse cx="19.8" cy="346.3945" fill="#84BE84" rx="1.8" ry="1.8" style="stroke:#038048;stroke-width:0.6;"/><text fill="#000000" font-family="sans-serif" font-size="8.4" lengthAdjust="spacing" textLength="57.4014" x="25.2" y="348.9727">CommitAsync()</text></g><!--class UnitOfWork--><g class="entity" data-entity="UnitOfWork" data-source-line="75" data-uid="ent0017" id="entity_UnitOfWork"><rect fill="#F1F1F1" height="28.8" rx="1.5" ry="1.5" style="stroke:#181818;stroke-width:0.3;" width="62.6027" x="18.6" y="454.2082"/><ellipse cx="27.6" cy="463.8082" fill="#ADD1B2" rx="6.6" ry="6.6" style="stroke:#181818;stroke-width:0.6;"/><path d="M29.2594,461.3332 Q29.3531,461.202 29.4656,461.1363 Q29.5781,461.0707 29.7094,461.0707 Q29.9344,461.0707 30.075,461.2301 Q30.2156,461.3801 30.2156,461.7457 L30.2156,462.6176 Q30.2156,462.9832 30.075,463.1426 Q29.9344,463.302 29.7094,463.302 Q29.5031,463.302 29.3812,463.1801 Q29.2594,463.0676 29.1937,462.7582 Q29.1656,462.5426 29.0531,462.4301 Q28.8563,462.2051 28.4906,462.0738 Q28.125,461.9426 27.75,461.9426 Q27.2906,461.9426 26.9063,462.1395 Q26.5313,462.3363 26.2313,462.7863 Q25.9406,463.2363 25.9406,463.8551 L25.9406,464.5113 Q25.9406,465.252 26.475,465.7488 Q27.0094,466.2363 27.9656,466.2363 Q28.5281,466.2363 28.9219,466.0863 Q29.1563,465.9926 29.4094,465.7301 Q29.5687,465.5707 29.6531,465.5238 Q29.7469,465.477 29.8688,465.477 Q30.0656,465.477 30.2156,465.6363 Q30.375,465.7863 30.375,465.9926 Q30.375,466.1988 30.1688,466.4426 Q29.8688,466.7895 29.3906,466.9863 Q28.7438,467.2582 27.9656,467.2582 Q27.0563,467.2582 26.3344,466.8832 Q25.7438,466.5832 25.3313,465.9457 Q24.9188,465.2988 24.9188,464.5301 L24.9188,463.8363 Q24.9188,463.0395 25.2844,462.3551 Q25.6594,461.6613 26.3156,461.2957 Q26.9719,460.9207 27.7125,460.9207 Q28.1531,460.9207 28.5375,461.0238 Q28.9313,461.1176 29.2594,461.3332 Z " fill="#000000"/><text fill="#000000" font-family="sans-serif" font-size="8.4" lengthAdjust="spacing" textLength="43.4027" x="36" y="467.2863">UnitOfWork</text><line style="stroke:#181818;stroke-width:0.3;" x1="19.2" x2="80.6027" y1="473.4082" y2="473.4082"/><line style="stroke:#181818;stroke-width:0.3;" x1="19.2" x2="80.6027" y1="478.2082" y2="478.2082"/></g><!--class DockController--><g class="entity" data-entity="DockController" data-source-line="80" data-uid="ent0020" id="entity_DockController"><rect fill="#F1F1F1" height="84.6633" rx="1.5" ry="1.5" style="stroke:#181818;stroke-width:0.3;" width="285.45" x="633.6" y="25.8082"/><ellipse cx="745.9992" cy="35.4082" fill="#ADD1B2" rx="6.6" ry="6.6" style="stroke:#181818;stroke-width:0.6;"/><path d="M747.6586,32.9332 Q747.7523,32.802 747.8648,32.7363 Q747.9773,32.6707 748.1086,32.6707 Q748.3336,32.6707 748.4742,32.8301 Q748.6148,32.9801 748.6148,33.3457 L748.6148,34.2176 Q748.6148,34.5832 748.4742,34.7426 Q748.3336,34.902 748.1086,34.902 Q747.9023,34.902 747.7805,34.7801 Q747.6586,34.6676 747.593,34.3582 Q747.5648,34.1426 747.4523,34.0301 Q747.2555,33.8051 746.8898,33.6738 Q746.5242,33.5426 746.1492,33.5426 Q745.6898,33.5426 745.3055,33.7395 Q744.9305,33.9363 744.6305,34.3863 Q744.3398,34.8363 744.3398,35.4551 L744.3398,36.1113 Q744.3398,36.852 744.8742,37.3488 Q745.4086,37.8363 746.3648,37.8363 Q746.9273,37.8363 747.3211,37.6863 Q747.5555,37.5926 747.8086,37.3301 Q747.968,37.1707 748.0523,37.1238 Q748.1461,37.077 748.268,37.077 Q748.4648,37.077 748.6148,37.2363 Q748.7742,37.3863 748.7742,37.5926 Q748.7742,37.7988 748.568,38.0426 Q748.268,38.3895 747.7898,38.5863 Q747.143,38.8582 746.3648,38.8582 Q745.4555,38.8582 744.7336,38.4832 Q744.143,38.1832 743.7305,37.5457 Q743.318,36.8988 743.318,36.1301 L743.318,35.4363 Q743.318,34.6395 743.6836,33.9551 Q744.0586,33.2613 744.7148,32.8957 Q745.3711,32.5207 746.1117,32.5207 Q746.5523,32.5207 746.9367,32.6238 Q747.3305,32.7176 747.6586,32.9332 Z " fill="#000000"/><text fill="#000000" font-family="sans-serif" font-size="8.4" lengthAdjust="spacing" textLength="55.5516" x="758.2992" y="38.8863">DockController</text><line style="stroke:#181818;stroke-width:0.3;" x1="634.2" x2="918.45" y1="45.0082" y2="45.0082"/><line style="stroke:#181818;stroke-width:0.3;" x1="634.2" x2="918.45" y1="49.8082" y2="49.8082"/><ellipse cx="640.2" cy="58.6945" fill="#84BE84" rx="1.8" ry="1.8" style="stroke:#038048;stroke-width:0.6;"/><text fill="#000000" font-family="sans-serif" font-size="8.4" lengthAdjust="spacing" textLength="90.5625" x="645.6" y="61.2727">GetAll() : List&lt;DockDto&gt;</text><ellipse cx="640.2" cy="69.8672" fill="#84BE84" rx="1.8" ry="1.8" style="stroke:#038048;stroke-width:0.6;"/><text fill="#000000" font-family="sans-serif" font-size="8.4" lengthAdjust="spacing" textLength="92.8963" x="645.6" y="72.4453">GetById(Guid) : DockDto</text><ellipse cx="640.2" cy="81.0398" fill="#84BE84" rx="1.8" ry="1.8" style="stroke:#038048;stroke-width:0.6;"/><text fill="#000000" font-family="sans-serif" font-size="8.4" lengthAdjust="spacing" textLength="269.85" x="645.6" y="83.618">Filter(string? location, Guid? vesselTypeId, string? type) : List&lt;DockDto&gt;</text><ellipse cx="640.2" cy="92.2125" fill="#84BE84" rx="1.8" ry="1.8" style="stroke:#038048;stroke-width:0.6;"/><text fill="#000000" font-family="sans-serif" font-size="8.4" lengthAdjust="spacing" textLength="133.5059" x="645.6" y="94.7906">Create(RegisterDockDto) : DockDto</text><ellipse cx="640.2" cy="103.3852" fill="#84BE84" rx="1.8" ry="1.8" style="stroke:#038048;stroke-width:0.6;"/><text fill="#000000" font-family="sans-serif" font-size="8.4" lengthAdjust="spacing" textLength="157.7912" x="645.6" y="105.9633">Update(Guid, RegisterDockDto) : DockDto</text></g><!--class ILogger--><g class="entity" data-entity="ILogger" data-source-line="90" data-uid="ent0022" id="entity_ILogger"><rect fill="#F1F1F1" height="62.318" rx="1.5" ry="1.5" style="stroke:#181818;stroke-width:0.3;" width="130.4479" x="808.5" y="302.4082"/><ellipse cx="853.5302" cy="312.0082" fill="#B4A7E5" rx="6.6" ry="6.6" style="stroke:#181818;stroke-width:0.6;"/><path d="M854.1021,309.9926 L854.1021,313.9863 L855.1333,313.9863 Q855.4989,313.9863 855.6583,314.127 Q855.8177,314.2676 855.8177,314.502 Q855.8177,314.727 855.6583,314.8676 Q855.4989,315.0082 855.1333,315.0082 L852.0489,315.0082 Q851.6833,315.0082 851.5239,314.8676 Q851.3646,314.727 851.3646,314.4926 Q851.3646,314.2676 851.5239,314.127 Q851.6833,313.9863 852.0489,313.9863 L853.0802,313.9863 L853.0802,309.9926 L852.0489,309.9926 Q851.6833,309.9926 851.5239,309.852 Q851.3646,309.7113 851.3646,309.477 Q851.3646,309.252 851.5239,309.1113 Q851.6833,308.9707 852.0489,308.9707 L855.1333,308.9707 Q855.4989,308.9707 855.6583,309.1113 Q855.8177,309.252 855.8177,309.477 Q855.8177,309.7113 855.6583,309.852 Q855.4989,309.9926 855.1333,309.9926 L854.1021,309.9926 Z " fill="#000000"/><text fill="#000000" font-family="sans-serif" font-size="8.4" font-style="italic" lengthAdjust="spacing" textLength="28.4895" x="865.8302" y="315.4863">ILogger</text><rect fill="#FFFFFF" height="10.7766" style="stroke:#181818;stroke-width:0.6;stroke-dasharray:1.2,1.2;" width="5.598" x="935.1498" y="300.6082"/><text fill="#000000" font-family="sans-serif" font-size="7.2" font-style="italic" lengthAdjust="spacing" textLength="4.398" x="935.7498" y="308.9777">T</text><line style="stroke:#181818;stroke-width:0.3;" x1="809.1" x2="938.3479" y1="321.6082" y2="321.6082"/><line style="stroke:#181818;stroke-width:0.3;" x1="809.1" x2="938.3479" y1="326.4082" y2="326.4082"/><ellipse cx="815.1" cy="335.2945" fill="#84BE84" rx="1.8" ry="1.8" style="stroke:#038048;stroke-width:0.6;"/><text fill="#000000" font-family="sans-serif" font-size="8.4" lengthAdjust="spacing" textLength="114.8479" x="820.5" y="337.8727">LogInformation(string, params)</text><ellipse cx="815.1" cy="346.4672" fill="#84BE84" rx="1.8" ry="1.8" style="stroke:#038048;stroke-width:0.6;"/><text fill="#000000" font-family="sans-serif" font-size="8.4" lengthAdjust="spacing" textLength="104.1059" x="820.5" y="349.0453">LogWarning(string, params)</text><ellipse cx="815.1" cy="357.6398" fill="#84BE84" rx="1.8" ry="1.8" style="stroke:#038048;stroke-width:0.6;"/><text fill="#000000" font-family="sans-serif" font-size="8.4" lengthAdjust="spacing" textLength="91.4936" x="820.5" y="360.218">LogError(string, params)</text></g><!--reverse link IDockRepository to DockRepository--><g class="link" data-entity-1="IDockRepository" data-entity-2="DockRepository" data-uid="lnk15" id="link_IDockRepository_DockRepository"><path d="M278.7264,379.8202 C293.0964,407.4562 307.17,434.5042 317.394,454.1482" fill="none" id="IDockRepository-backto-DockRepository" style="stroke:#181818;stroke-width:0.6;stroke-dasharray:4.2,4.2;"/><polygon fill="none" points="273.744,370.2382,275.5324,381.4811,281.9204,378.1594,273.744,370.2382" style="stroke:#181818;stroke-width:0.6;"/></g><!--reverse link IUnitOfWork to UnitOfWork--><g class="link" data-entity-1="IUnitOfWork" data-entity-2="UnitOfWork" data-uid="lnk18" id="link_IUnitOfWork_UnitOfWork"><path d="M49.8,364.7482 C49.8,392.1562 49.8,430.2442 49.8,454.1182" fill="none" id="IUnitOfWork-backto-UnitOfWork" style="stroke:#181818;stroke-width:0.6;stroke-dasharray:4.2,4.2;"/><polygon fill="none" points="49.8,353.9482,46.2,364.7482,53.4,364.7482,49.8,353.9482" style="stroke:#181818;stroke-width:0.6;"/></g><!--reverse link Dock to DockId--><g class="link" data-entity-1="Dock" data-entity-2="DockId" data-source-line="98" data-uid="lnk23" id="link_Dock_DockId"><path codeLine="98" d="M397.1698,693.4518 C393.5158,710.0478 391.278,720.2122 388.314,733.6702" fill="none" id="Dock-backto-DockId" style="stroke:#181818;stroke-width:0.6;"/><polygon fill="#181818" points="398.718,686.4202,395.6001,689.4199,397.1698,693.4518,400.2878,690.4521,398.718,686.4202" style="stroke:#181818;stroke-width:0.6;"/><text fill="#000000" font-family="sans-serif" font-size="7.8" lengthAdjust="spacing" textLength="4.338" x="393.4332" y="699.5599">1</text><text fill="#000000" font-family="sans-serif" font-size="7.8" lengthAdjust="spacing" textLength="4.338" x="384.6464" y="726.9907">1</text></g><!--reverse link Dock to VesselType--><g class="link" data-entity-1="Dock" data-entity-2="VesselType" data-source-line="99" data-uid="lnk24" id="link_Dock_VesselType"><path codeLine="99" d="M441.7342,692.9534 C450.4942,711.8654 456.594,725.0182 463.098,739.0642" fill="none" id="Dock-backto-VesselType" style="stroke:#181818;stroke-width:0.6;"/><polygon fill="none" points="438.708,686.4202,438.0434,690.6955,441.7342,692.9534,442.3988,688.6781,438.708,686.4202" style="stroke:#181818;stroke-width:0.6;"/><text fill="#000000" font-family="sans-serif" font-size="7.8" lengthAdjust="spacing" textLength="71.5368" x="451.8" y="713.4252">allowed vessel types</text><text fill="#000000" font-family="sans-serif" font-size="7.8" lengthAdjust="spacing" textLength="4.338" x="436.3599" y="699.5599">1</text><text fill="#000000" font-family="sans-serif" font-size="7.8" lengthAdjust="spacing" textLength="3.0354" x="458.0721" y="732.4883">*</text></g><!--link DockService to IDockRepository--><g class="link" data-entity-1="DockService" data-entity-2="IDockRepository" data-source-line="101" data-uid="lnk25" id="link_DockService_IDockRepository"><path codeLine="101" d="M481.044,246.6742 C438.51,262.9222 393.615,280.0637 352.647,295.7117" fill="none" id="DockService-to-IDockRepository" style="stroke:#181818;stroke-width:0.6;"/><polygon fill="#181818" points="349.284,296.9962,355.1849,297.3114,352.0865,295.9258,353.4722,292.8274,349.284,296.9962" style="stroke:#181818;stroke-width:0.6;"/></g><!--link DockService to IUnitOfWork--><g class="link" data-entity-1="DockService" data-entity-2="IUnitOfWork" data-source-line="102" data-uid="lnk26" id="link_DockService_IUnitOfWork"><path codeLine="102" d="M436.05,212.1922 C313.098,220.3702 152.622,237.0742 96.6,270.0082 C79.566,280.0222 68.5315,295.7392 60.6775,310.2292" fill="none" id="DockService-to-IUnitOfWork" style="stroke:#181818;stroke-width:0.6;"/><polygon fill="#181818" points="58.962,313.3942,63.6452,309.7904,60.3916,310.7567,59.4253,307.5031,58.962,313.3942" style="stroke:#181818;stroke-width:0.6;"/></g><!--link DockService to DockFactory--><g class="link" data-entity-1="DockService" data-entity-2="DockFactory" data-source-line="103" data-uid="lnk27" id="link_DockService_DockFactory"><path codeLine="103" d="M586.29,246.6742 C584.304,266.9002 582.3351,286.9276 580.6191,304.3396" fill="none" id="DockService-to-DockFactory" style="stroke:#181818;stroke-width:0.6;"/><polygon fill="#181818" points="580.266,307.9222,583.184,302.7836,580.5602,304.9367,578.4072,302.3129,580.266,307.9222" style="stroke:#181818;stroke-width:0.6;"/></g><!--link DockService to ILogger--><g class="link" data-entity-1="DockService" data-entity-2="ILogger" data-source-line="104" data-uid="lnk28" id="link_DockService_ILogger"><path codeLine="104" d="M700.128,246.6322 C718.326,254.0902 736.902,262.0342 754.2,270.0082 C775.488,279.8182 795.1857,289.88 815.1597,300.566" fill="none" id="DockService-to-ILogger" style="stroke:#181818;stroke-width:0.6;"/><polygon fill="#181818" points="818.334,302.2642,814.7047,297.6007,815.6888,300.849,812.4404,301.8331,818.334,302.2642" style="stroke:#181818;stroke-width:0.6;"/></g><!--link DockService to RegisterDockDto--><g class="link" data-entity-1="DockService" data-entity-2="RegisterDockDto" data-source-line="105" data-uid="lnk29" id="link_DockService_RegisterDockDto"><path codeLine="105" d="M656.256,246.6142 C663.846,253.6582 670.788,261.4822 676.2,270.0082 C706.512,317.7802 715.1086,380.1797 717.4606,422.5877" fill="none" id="DockService-to-RegisterDockDto" style="stroke:#181818;stroke-width:0.6;"/><polygon fill="#181818" points="717.66,426.1822,719.7573,420.6576,717.4939,423.1868,714.9647,420.9234,717.66,426.1822" style="stroke:#181818;stroke-width:0.6;"/></g><!--link DockRepository to Dock--><g class="link" data-entity-1="DockRepository" data-entity-2="Dock" data-source-line="107" data-uid="lnk30" id="link_DockRepository_Dock"><path codeLine="107" d="M332.322,483.1882 C342.822,502.1962 360.5029,534.2112 377.5009,564.9732" fill="none" id="DockRepository-to-Dock" style="stroke:#181818;stroke-width:0.6;"/><polygon fill="#181818" points="379.242,568.1242,378.731,562.237,377.7911,565.4984,374.5297,564.5585,379.242,568.1242" style="stroke:#181818;stroke-width:0.6;"/></g><!--link DockFactory to Dock--><g class="link" data-entity-1="DockFactory" data-entity-2="Dock" data-source-line="109" data-uid="lnk31" id="link_DockFactory_Dock"><path codeLine="109" d="M515.31,359.2042 C499.716,368.0362 484.344,379.4002 473.4,393.6082 C434.442,444.1882 420.34,513.6459 415.006,564.4359" fill="none" id="DockFactory-to-Dock" style="stroke:#181818;stroke-width:0.6;"/><polygon fill="#181818" points="414.63,568.0162,417.5809,562.8964,414.9433,565.0326,412.8071,562.3951,414.63,568.0162" style="stroke:#181818;stroke-width:0.6;"/></g><!--link DockFactory to DockDto--><g class="link" data-entity-1="DockFactory" data-entity-2="DockDto" data-source-line="110" data-uid="lnk32" id="link_DockFactory_DockDto"><path codeLine="110" d="M573.426,359.2162 C570.426,376.3882 566.9662,396.17 563.3542,416.822" fill="none" id="DockFactory-to-DockDto" style="stroke:#181818;stroke-width:0.6;"/><polygon fill="#181818" points="562.734,420.3682,566.0284,415.4624,563.2508,417.4131,561.3002,414.6355,562.734,420.3682" style="stroke:#181818;stroke-width:0.6;"/></g><!--link DockFactory to RegisterDockDto--><g class="link" data-entity-1="DockFactory" data-entity-2="RegisterDockDto" data-source-line="111" data-uid="lnk33" id="link_DockFactory_RegisterDockDto"><path codeLine="111" d="M604.044,359.2162 C623.808,378.0502 648.7418,401.8167 671.8178,423.8067" fill="none" id="DockFactory-to-RegisterDockDto" style="stroke:#181818;stroke-width:0.6;"/><polygon fill="#181818" points="674.424,426.2902,672.1704,420.8275,672.2522,424.2206,668.8591,424.3024,674.424,426.2902" style="stroke:#181818;stroke-width:0.6;"/></g><!--link DockController to DockService--><g class="link" data-entity-1="DockController" data-entity-2="DockService" data-source-line="113" data-uid="lnk34" id="link_DockController_DockService"><path codeLine="113" d="M718.824,110.4982 C696.258,126.8782 673.3356,143.5137 650.7816,159.8817" fill="none" id="DockController-to-DockService" style="stroke:#181818;stroke-width:0.6;"/><polygon fill="#181818" points="647.868,161.9962,653.648,160.7669,650.296,160.2341,650.8287,156.8821,647.868,161.9962" style="stroke:#181818;stroke-width:0.6;"/></g><!--link DockController to ILogger--><g class="link" data-entity-1="DockController" data-entity-2="ILogger" data-source-line="114" data-uid="lnk35" id="link_DockController_ILogger"><path codeLine="114" d="M791.802,110.5882 C811.422,163.9342 843.6234,251.4975 861.0474,298.8735" fill="none" id="DockController-to-ILogger" style="stroke:#181818;stroke-width:0.6;"/><polygon fill="#181818" points="862.29,302.2522,862.6785,296.3557,861.2545,299.4366,858.1736,298.0125,862.29,302.2522" style="stroke:#181818;stroke-width:0.6;"/></g><!--link DockController to RegisterDockDto--><g class="link" data-entity-1="DockController" data-entity-2="RegisterDockDto" data-source-line="115" data-uid="lnk36" id="link_DockController_RegisterDockDto"><path codeLine="115" d="M777.522,110.5102 C778.224,170.7202 776.088,284.9782 754.2,379.2082 C750.528,395.0062 745.8319,408.3336 739.6879,422.8896" fill="none" id="DockController-to-RegisterDockDto" style="stroke:#181818;stroke-width:0.6;"/><polygon fill="#181818" points="738.288,426.2062,742.599,422.1645,739.4546,423.4423,738.1768,420.2979,738.288,426.2062" style="stroke:#181818;stroke-width:0.6;"/></g><!--SRC=[pLLDRzim3BtdLn2vD6cImwv5aI9DrY50i0nTsfu5MV64o98XoHsCOVzz-l27BDjR3Zqi21AOVE8Z-KWvH_Y2KWBJdSWGvLFuDG7032a5Eu4lxX5W1KfBobCu28mq5Roodfb06awasA8SOQhBoawvXcqX9U7wY76H8uxBRg1JcHDdMS3s1-8fgIFFF63USTRXPuwmwsi8PeQrwx8aGRpVaqvj-wIfxaj14tX5hAXpsYXhcitXpldgmpTmbYA3KXGICf4G1hEpa60Y2anT-Y0uA-SDpojHYZ2RHzp9hoWZFgpvveqAfwCADNWcALMQI9llJeigo69GZiM878jnEHO3SXmCuRqjUWqRniHFahH5x1FLxsEObslaFla_iWmRkybpHdqQyOn_9_ATOjBMGBG9kL4bnsu075LLwBh5F9Rxn8FyC5beXQf0JvGPwJp6L_00hEh5qhNg0Tw3h9TGexHv7gFU91LjD1jz_fSyGPfui6LRmb-FHB8-8Qo5B9ksR2KnqHwHejYwn-WxQ6DtMFiJauNgxFbP8bDyWNKXYHV8Z0EHPsI4sTjZpoGNYdOo6XNg2fK-NgAUFgxeVb-3GcYMCvAPULU3DRg3GHjUEDN7yvkGbrOKaMLKLoteSWNea2SAqjNXcoJAm0RNP2kube8n8YC1_hKaRlR6jkC35yEFtBLhSTr6XCtPIg7K2XTQcrHwCteGQKha_MdTTCTOp5mBcONljINaIA9CpLlG6vBSUCO1dwKKSi3jqhk1LVGnDJ57gNgkrSIzrAUVfd1hWFRVhqLh5zP-EmtVN7U0_1LRYU9KK9D9U7ckLkjuXll-TlPwlk36wP_plUtP8-ryGi4ErN6zexxF6kkGqOQ9xOCqmJRKPwlKXjnX1P4hZlu7]--></g></svg>