<svg xmlns="http://www.w3.org/2000/svg" xmlns:xlink="http://www.w3.org/1999/xlink" contentStyleType="text/css" data-diagram-type="SEQUENCE" height="1194px" preserveAspectRatio="none" style="width:1032px;height:1194px;background:#FFFFFF;" version="1.1" viewBox="0 0 1032 1194" width="1032px" zoomAndPan="magnify"><title>Sequence Diagram (Full) - Update VVE with Executed Operations (US 4.1.9)</title><defs/><g><text fill="#000000" font-family="sans-serif" font-size="7" font-weight="bold" lengthAdjust="spacing" textLength="249.7202" x="389.1732" y="15.0537">Sequence Diagram (Full) - Update VVE with Executed Operations (US 4.1.9)</text><rect fill="none" height="104.834" style="stroke:#000000;stroke-width:0.75;" width="740.5632" x="177.2769" y="217.9307"/><rect fill="none" height="605.3545" style="stroke:#000000;stroke-width:0.75;" width="861.2898" x="157.2769" y="538.9717"/><rect fill="none" height="526.957" style="stroke:#000000;stroke-width:0.75;" width="851.2898" x="162.2769" y="613.8691"/><rect fill="none" height="408.123" style="stroke:#000000;stroke-width:0.75;" width="841.2898" x="167.2769" y="729.2031"/><rect fill="none" height="351.8711" style="stroke:#000000;stroke-width:0.75;" width="831.2898" x="172.2769" y="781.9551"/><rect fill="none" height="110.1885" style="stroke:#000000;stroke-width:0.75;" width="546.4617" x="177.2769" y="817.2461"/><rect fill="none" height="62.252" style="stroke:#000000;stroke-width:0.75;" width="213.7617" x="504.9768" y="861.6826"/><g><title>Logistics Operator</title><rect fill="#000000" fill-opacity="0.00000" height="1091.2051" width="4" x="30.4016" y="61.6211"/><line style="stroke:#181818;stroke-width:0.25;stroke-dasharray:2.5,2.5;" x1="32" x2="32" y1="61.6211" y2="1152.8262"/></g><g><title>SPA</title><rect fill="#000000" fill-opacity="0.00000" height="1091.2051" width="4" x="192.5269" y="61.6211"/><line style="stroke:#181818;stroke-width:0.25;stroke-dasharray:2.5,2.5;" x1="194.2769" x2="194.2769" y1="61.6211" y2="1152.8262"/></g><g><title>VVE Routes</title><rect fill="#000000" fill-opacity="0.00000" height="1091.2051" width="4" x="313.6431" y="61.6211"/><line style="stroke:#181818;stroke-width:0.25;stroke-dasharray:2.5,2.5;" x1="315.5776" x2="315.5776" y1="61.6211" y2="1152.8262"/></g><g><title>VVE Controller</title><rect fill="#000000" fill-opacity="0.00000" height="1091.2051" width="4" x="372.968" y="61.6211"/><line style="stroke:#181818;stroke-width:0.25;stroke-dasharray:2.5,2.5;" x1="374.8198" x2="374.8198" y1="61.6211" y2="1152.8262"/></g><g><title>VVE Service</title><rect fill="#000000" fill-opacity="0.00000" height="1091.2051" width="4" x="529.1233" y="61.6211"/><line style="stroke:#181818;stroke-width:0.25;stroke-dasharray:2.5,2.5;" x1="530.9768" x2="530.9768" y1="61.6211" y2="1152.8262"/></g><g><title>VVE Repo</title><rect fill="#000000" fill-opacity="0.00000" height="1091.2051" width="4" x="771.9355" y="61.6211"/><line style="stroke:#181818;stroke-width:0.25;stroke-dasharray:2.5,2.5;" x1="773.5925" x2="773.5925" y1="61.6211" y2="1152.8262"/></g><g><title>Operation Plan Repo</title><rect fill="#000000" fill-opacity="0.00000" height="1091.2051" width="4" x="828.9663" y="61.6211"/><line style="stroke:#181818;stroke-width:0.25;stroke-dasharray:2.5,2.5;" x1="830.7786" x2="830.7786" y1="61.6211" y2="1152.8262"/></g><g><title>VVE Mapper</title><rect fill="#000000" fill-opacity="0.00000" height="1091.2051" width="4" x="889.4971" y="61.6211"/><line style="stroke:#181818;stroke-width:0.25;stroke-dasharray:2.5,2.5;" x1="891.1541" x2="891.1541" y1="61.6211" y2="1152.8262"/></g><g><title>MongoDB .Mongoose.</title><rect fill="#000000" fill-opacity="0.00000" height="1091.2051" width="4" x="959.8547" y="61.6211"/><line style="stroke:#181818;stroke-width:0.25;stroke-dasharray:2.5,2.5;" x1="961.6428" x2="961.6428" y1="61.6211" y2="1152.8262"/></g><g class="participant participant-head" data-participant="Operator"><text fill="#000000" font-family="sans-serif" font-size="7" lengthAdjust="spacing" textLength="56.8032" x="2.5" y="59.8643">Logistics Operator</text><ellipse cx="32.4016" cy="26.5605" fill="#E3E3E3" rx="4" ry="4" style="stroke:#181818;stroke-width:0.25;"/><path d="M32.4016,30.5605 L32.4016,44.0605 M25.9016,34.5605 L38.9016,34.5605 M32.4016,44.0605 L25.9016,51.5605 M32.4016,44.0605 L38.9016,51.5605" fill="none" style="stroke:#181818;stroke-width:0.25;"/></g><g class="participant participant-tail" data-participant="Operator"><text fill="#000000" font-family="sans-serif" font-size="7" lengthAdjust="spacing" textLength="56.8032" x="2.5" y="1159.8799">Logistics Operator</text><ellipse cx="32.4016" cy="1165.8867" fill="#E3E3E3" rx="4" ry="4" style="stroke:#181818;stroke-width:0.25;"/><path d="M32.4016,1169.8867 L32.4016,1183.3867 M25.9016,1173.8867 L38.9016,1173.8867 M32.4016,1183.3867 L25.9016,1190.8867 M32.4016,1183.3867 L38.9016,1190.8867" fill="none" style="stroke:#181818;stroke-width:0.25;"/></g><g class="participant participant-head" data-participant="SPA"><text fill="#000000" font-family="sans-serif" font-size="7" lengthAdjust="spacing" textLength="14.0068" x="186.0234" y="59.8643">SPA</text><path d="M184.2769,38.3105 L184.2769,50.3105 M184.2769,44.3105 L192.7769,44.3105" fill="none" style="stroke:#181818;stroke-width:0.25;"/><ellipse cx="198.7769" cy="44.3105" fill="#E3E3E3" rx="6" ry="6" style="stroke:#181818;stroke-width:0.25;"/></g><g class="participant participant-tail" data-participant="SPA"><text fill="#000000" font-family="sans-serif" font-size="7" lengthAdjust="spacing" textLength="14.0068" x="186.0234" y="1159.8799">SPA</text><path d="M184.2769,1163.6367 L184.2769,1175.6367 M184.2769,1169.6367 L192.7769,1169.6367" fill="none" style="stroke:#181818;stroke-width:0.25;"/><ellipse cx="198.7769" cy="1169.6367" fill="#E3E3E3" rx="6" ry="6" style="stroke:#181818;stroke-width:0.25;"/></g><g class="participant participant-head" data-participant="Routes"><text fill="#000000" font-family="sans-serif" font-size="7" lengthAdjust="spacing" textLength="38.1309" x="295.0776" y="59.8643">VVE Routes</text><path d="M305.3931,38.3105 L305.3931,50.3105 M305.3931,44.3105 L313.8931,44.3105" fill="none" style="stroke:#181818;stroke-width:0.25;"/><ellipse cx="319.8931" cy="44.3105" fill="#E3E3E3" rx="6" ry="6" style="stroke:#181818;stroke-width:0.25;"/></g><g class="participant participant-tail" data-participant="Routes"><text fill="#000000" font-family="sans-serif" font-size="7" lengthAdjust="spacing" textLength="38.1309" x="295.0776" y="1159.8799">VVE Routes</text><path d="M305.3931,1163.6367 L305.3931,1175.6367 M305.3931,1169.6367 L313.8931,1169.6367" fill="none" style="stroke:#181818;stroke-width:0.25;"/><ellipse cx="319.8931" cy="1169.6367" fill="#E3E3E3" rx="6" ry="6" style="stroke:#181818;stroke-width:0.25;"/></g><g class="participant participant-head" data-participant="Ctrl"><text fill="#000000" font-family="sans-serif" font-size="7" lengthAdjust="spacing" textLength="46.2964" x="350.3198" y="59.8643">VVE Controller</text><ellipse cx="374.968" cy="44.3105" fill="#E3E3E3" rx="6" ry="6" style="stroke:#181818;stroke-width:0.25;"/><polygon fill="#181818" points="372.968,38.3105,375.968,35.8105,374.968,38.3105,375.968,40.8105,372.968,38.3105" style="stroke:#181818;stroke-width:0.5;"/></g><g class="participant participant-tail" data-participant="Ctrl"><text fill="#000000" font-family="sans-serif" font-size="7" lengthAdjust="spacing" textLength="46.2964" x="350.3198" y="1159.8799">VVE Controller</text><ellipse cx="374.968" cy="1169.6367" fill="#E3E3E3" rx="6" ry="6" style="stroke:#181818;stroke-width:0.25;"/><polygon fill="#181818" points="372.968,1163.6367,375.968,1161.1367,374.968,1163.6367,375.968,1166.1367,372.968,1163.6367" style="stroke:#181818;stroke-width:0.5;"/></g><g class="participant participant-head" data-participant="Svc"><text fill="#000000" font-family="sans-serif" font-size="7" lengthAdjust="spacing" textLength="39.293" x="509.9768" y="59.8643">VVE Service</text><ellipse cx="531.1233" cy="44.3105" fill="#E3E3E3" rx="6" ry="6" style="stroke:#181818;stroke-width:0.25;"/><polygon fill="#181818" points="529.1233,38.3105,532.1233,35.8105,531.1233,38.3105,532.1233,40.8105,529.1233,38.3105" style="stroke:#181818;stroke-width:0.5;"/></g><g class="participant participant-tail" data-participant="Svc"><text fill="#000000" font-family="sans-serif" font-size="7" lengthAdjust="spacing" textLength="39.293" x="509.9768" y="1159.8799">VVE Service</text><ellipse cx="531.1233" cy="1169.6367" fill="#E3E3E3" rx="6" ry="6" style="stroke:#181818;stroke-width:0.25;"/><polygon fill="#181818" points="529.1233,1163.6367,532.1233,1161.1367,531.1233,1163.6367,532.1233,1166.1367,529.1233,1163.6367" style="stroke:#181818;stroke-width:0.5;"/></g><g class="participant participant-head" data-participant="VveRepo"><text fill="#000000" font-family="sans-serif" font-size="7" lengthAdjust="spacing" textLength="32.686" x="756.0925" y="59.8643">VVE Repo</text><ellipse cx="773.9355" cy="44.3105" fill="#E3E3E3" rx="6" ry="6" style="stroke:#181818;stroke-width:0.25;"/><line style="stroke:#181818;stroke-width:0.25;" x1="767.9355" x2="779.9355" y1="51.3105" y2="51.3105"/></g><g class="participant participant-tail" data-participant="VveRepo"><text fill="#000000" font-family="sans-serif" font-size="7" lengthAdjust="spacing" textLength="32.686" x="756.0925" y="1159.8799">VVE Repo</text><ellipse cx="773.9355" cy="1169.6367" fill="#E3E3E3" rx="6" ry="6" style="stroke:#181818;stroke-width:0.25;"/><line style="stroke:#181818;stroke-width:0.25;" x1="767.9355" x2="779.9355" y1="1176.6367" y2="1176.6367"/></g><g class="participant participant-head" data-participant="PlanRepo"><text fill="#000000" font-family="sans-serif" font-size="7" lengthAdjust="spacing" textLength="65.3755" x="796.7786" y="59.8643">Operation Plan Repo</text><ellipse cx="830.9663" cy="44.3105" fill="#E3E3E3" rx="6" ry="6" style="stroke:#181818;stroke-width:0.25;"/><line style="stroke:#181818;stroke-width:0.25;" x1="824.9663" x2="836.9663" y1="51.3105" y2="51.3105"/></g><g class="participant participant-tail" data-participant="PlanRepo"><text fill="#000000" font-family="sans-serif" font-size="7" lengthAdjust="spacing" textLength="65.3755" x="796.7786" y="1159.8799">Operation Plan Repo</text><ellipse cx="830.9663" cy="1169.6367" fill="#E3E3E3" rx="6" ry="6" style="stroke:#181818;stroke-width:0.25;"/><line style="stroke:#181818;stroke-width:0.25;" x1="824.9663" x2="836.9663" y1="1176.6367" y2="1176.6367"/></g><g class="participant participant-head" data-participant="Map"><text fill="#000000" font-family="sans-serif" font-size="7" lengthAdjust="spacing" textLength="39.686" x="870.1541" y="59.8643">VVE Mapper</text><ellipse cx="891.4971" cy="44.3105" fill="#E3E3E3" rx="6" ry="6" style="stroke:#181818;stroke-width:0.25;"/><line style="stroke:#181818;stroke-width:0.25;" x1="885.4971" x2="897.4971" y1="51.3105" y2="51.3105"/></g><g class="participant participant-tail" data-participant="Map"><text fill="#000000" font-family="sans-serif" font-size="7" lengthAdjust="spacing" textLength="39.686" x="870.1541" y="1159.8799">VVE Mapper</text><ellipse cx="891.4971" cy="1169.6367" fill="#E3E3E3" rx="6" ry="6" style="stroke:#181818;stroke-width:0.25;"/><line style="stroke:#181818;stroke-width:0.25;" x1="885.4971" x2="897.4971" y1="1176.6367" y2="1176.6367"/></g><g class="participant participant-head" data-participant="DB"><text fill="#000000" font-family="sans-serif" font-size="7" lengthAdjust="spacing" textLength="70.4238" x="925.1428" y="59.8643">MongoDB (Mongoose)</text><path d="M952.8547,34.3105 C952.8547,29.3105 961.8547,29.3105 961.8547,29.3105 C961.8547,29.3105 970.8547,29.3105 970.8547,34.3105 L970.8547,47.3105 C970.8547,52.3105 961.8547,52.3105 961.8547,52.3105 C961.8547,52.3105 952.8547,52.3105 952.8547,47.3105 L952.8547,34.3105" fill="#E3E3E3" style="stroke:#181818;stroke-width:0.25;"/><path d="M952.8547,34.3105 C952.8547,39.3105 961.8547,39.3105 961.8547,39.3105 C961.8547,39.3105 970.8547,39.3105 970.8547,34.3105" fill="none" style="stroke:#181818;stroke-width:0.25;"/></g><g class="participant participant-tail" data-participant="DB"><text fill="#000000" font-family="sans-serif" font-size="7" lengthAdjust="spacing" textLength="70.4238" x="925.1428" y="1159.8799">MongoDB (Mongoose)</text><path d="M952.8547,1166.6367 C952.8547,1161.6367 961.8547,1161.6367 961.8547,1161.6367 C961.8547,1161.6367 970.8547,1161.6367 970.8547,1166.6367 L970.8547,1179.6367 C970.8547,1184.6367 961.8547,1184.6367 961.8547,1184.6367 C961.8547,1184.6367 952.8547,1184.6367 952.8547,1179.6367 L952.8547,1166.6367" fill="#E3E3E3" style="stroke:#181818;stroke-width:0.25;"/><path d="M952.8547,1166.6367 C952.8547,1171.6367 961.8547,1171.6367 961.8547,1171.6367 C961.8547,1171.6367 970.8547,1171.6367 970.8547,1166.6367" fill="none" style="stroke:#181818;stroke-width:0.25;"/></g><rect fill="#EEEEEE" height="1.5" style="stroke:#EEEEEE;stroke-width:0.5;" width="1028.5667" x="0" y="77.4438"/><line style="stroke:#000000;stroke-width:0.5;" x1="0" x2="1028.5667" y1="77.4438" y2="77.4438"/><line style="stroke:#000000;stroke-width:0.5;" x1="0" x2="1028.5667" y1="78.9438" y2="78.9438"/><rect fill="#EEEEEE" height="12.6455" style="stroke:#000000;stroke-width:1;" width="103.2622" x="462.6522" y="71.6211"/><text fill="#000000" font-family="sans-serif" font-size="6.5" font-weight="bold" lengthAdjust="spacing" textLength="94.4563" x="465.6522" y="80.6353">Get VVE + Planned Operations</text><g class="message" data-participant-1="Operator" data-participant-2="SPA"><polygon fill="#181818" points="188.5269,98.9121,193.5269,100.9121,188.5269,102.9121,190.5269,100.9121" style="stroke:#181818;stroke-width:0.5;"/><line style="stroke:#181818;stroke-width:0.5;" x1="32.4016" x2="191.5269" y1="100.9121" y2="100.9121"/><text fill="#000000" font-family="sans-serif" font-size="6.5" lengthAdjust="spacing" textLength="81.6594" x="35.9016" y="98.2808">Open VVE execution screen</text></g><g class="message" data-participant-1="SPA" data-participant-2="Routes"><polygon fill="#181818" points="309.6431,114.5576,314.6431,116.5576,309.6431,118.5576,311.6431,116.5576" style="stroke:#181818;stroke-width:0.5;"/><line style="stroke:#181818;stroke-width:0.5;" x1="194.5269" x2="312.6431" y1="116.5576" y2="116.5576"/><text fill="#000000" font-family="sans-serif" font-size="6.5" lengthAdjust="spacing" textLength="48.7722" x="198.0269" y="113.9263">GET /vve/{vveId}</text></g><g class="message" data-participant-1="Routes" data-participant-2="Ctrl"><polygon fill="#181818" points="368.968,130.2031,373.968,132.2031,368.968,134.2031,370.968,132.2031" style="stroke:#181818;stroke-width:0.5;"/><line style="stroke:#181818;stroke-width:0.5;" x1="315.6431" x2="371.968" y1="132.2031" y2="132.2031"/><text fill="#000000" font-family="sans-serif" font-size="6.5" lengthAdjust="spacing" textLength="47.325" x="319.1431" y="129.5718">execute(req,res)</text></g><g class="message" data-participant-1="Ctrl" data-participant-2="Svc"><polygon fill="#181818" points="525.1233,145.8486,530.1233,147.8486,525.1233,149.8486,527.1233,147.8486" style="stroke:#181818;stroke-width:0.5;"/><line style="stroke:#181818;stroke-width:0.5;" x1="374.968" x2="528.1233" y1="147.8486" y2="147.8486"/><text fill="#000000" font-family="sans-serif" font-size="6.5" lengthAdjust="spacing" textLength="59.6077" x="378.468" y="145.2173">getByIdAsync(vveId)</text></g><g class="message" data-participant-1="Svc" data-participant-2="VveRepo"><polygon fill="#181818" points="767.9355,161.4941,772.9355,163.4941,767.9355,165.4941,769.9355,163.4941" style="stroke:#181818;stroke-width:0.5;"/><line style="stroke:#181818;stroke-width:0.5;" x1="531.1233" x2="770.9355" y1="163.4941" y2="163.4941"/><text fill="#000000" font-family="sans-serif" font-size="6.5" lengthAdjust="spacing" textLength="43.3513" x="534.6233" y="160.8628">findById(vveId)</text></g><g class="message" data-participant-1="VveRepo" data-participant-2="DB"><polygon fill="#181818" points="955.8547,177.1396,960.8547,179.1396,955.8547,181.1396,957.8547,179.1396" style="stroke:#181818;stroke-width:0.5;"/><line style="stroke:#181818;stroke-width:0.5;" x1="773.9355" x2="958.8547" y1="179.1396" y2="179.1396"/><text fill="#000000" font-family="sans-serif" font-size="6.5" lengthAdjust="spacing" textLength="57.4526" x="777.4355" y="176.5083">findOne({_id:vveId})</text></g><g class="message" data-participant-1="DB" data-participant-2="VveRepo"><polygon fill="#181818" points="779.4355,192.7852,774.4355,194.7852,779.4355,196.7852,777.4355,194.7852" style="stroke:#181818;stroke-width:0.5;"/><line style="stroke:#181818;stroke-width:0.5;stroke-dasharray:1,1;" x1="776.4355" x2="961.3547" y1="194.7852" y2="194.7852"/><text fill="#000000" font-family="sans-serif" font-size="6.5" lengthAdjust="spacing" textLength="22.4041" x="782.4355" y="192.1538">doc/null</text></g><g class="message" data-participant-1="VveRepo" data-participant-2="Svc"><polygon fill="#181818" points="536.6233,208.4307,531.6233,210.4307,536.6233,212.4307,534.6233,210.4307" style="stroke:#181818;stroke-width:0.5;"/><line style="stroke:#181818;stroke-width:0.5;stroke-dasharray:1,1;" x1="533.6233" x2="773.4355" y1="210.4307" y2="210.4307"/><text fill="#000000" font-family="sans-serif" font-size="6.5" lengthAdjust="spacing" textLength="28.5454" x="539.6233" y="207.7993">VVE?/null</text></g><path d="M177.2769,217.9307 L207.3623,217.9307 L207.3623,222.5762 L202.3623,227.5762 L177.2769,227.5762 L177.2769,217.9307" fill="#EEEEEE" style="stroke:#000000;stroke-width:0.75;"/><rect fill="none" height="104.834" style="stroke:#000000;stroke-width:0.75;" width="740.5632" x="177.2769" y="217.9307"/><text fill="#000000" font-family="sans-serif" font-size="6.5" font-weight="bold" lengthAdjust="spacing" textLength="7.5854" x="184.7769" y="225.4448">alt</text><text fill="#000000" font-family="sans-serif" font-size="5.5" font-weight="bold" lengthAdjust="spacing" textLength="41.5454" x="214.8623" y="224.8657">[VVE not found]</text><g class="message" data-participant-1="Svc" data-participant-2="Ctrl"><polygon fill="#181818" points="380.468,237.2217,375.468,239.2217,380.468,241.2217,378.468,239.2217" style="stroke:#181818;stroke-width:0.5;"/><line style="stroke:#181818;stroke-width:0.5;stroke-dasharray:1,1;" x1="377.468" x2="530.6233" y1="239.2217" y2="239.2217"/><text fill="#000000" font-family="sans-serif" font-size="6.5" lengthAdjust="spacing" textLength="115.6099" x="383.468" y="236.5903">BusinessRuleValidationError(NotFound)</text></g><g class="message" data-participant-1="Ctrl" data-participant-2="SPA"><polygon fill="#181818" points="200.0269,252.8672,195.0269,254.8672,200.0269,256.8672,198.0269,254.8672" style="stroke:#181818;stroke-width:0.5;"/><line style="stroke:#181818;stroke-width:0.5;stroke-dasharray:1,1;" x1="197.0269" x2="374.468" y1="254.8672" y2="254.8672"/><text fill="#000000" font-family="sans-serif" font-size="6.5" lengthAdjust="spacing" textLength="43.0022" x="203.0269" y="252.2358">404 Not Found</text></g><line style="stroke:#000000;stroke-width:0.5;stroke-dasharray:1,1;" x1="177.2769" x2="917.8401" y1="259.3672" y2="259.3672"/><text fill="#000000" font-family="sans-serif" font-size="5.5" font-weight="bold" lengthAdjust="spacing" textLength="18.9331" x="179.7769" y="265.3022">[found]</text><g class="message" data-participant-1="Svc" data-participant-2="Map"><polygon fill="#181818" points="885.4971,276.8281,890.4971,278.8281,885.4971,280.8281,887.4971,278.8281" style="stroke:#181818;stroke-width:0.5;"/><line style="stroke:#181818;stroke-width:0.5;" x1="531.1233" x2="888.4971" y1="278.8281" y2="278.8281"/><text fill="#000000" font-family="sans-serif" font-size="6.5" lengthAdjust="spacing" textLength="36.4768" x="534.6233" y="276.1968">toDTO(VVE)</text></g><g class="message" data-participant-1="Svc" data-participant-2="Ctrl"><polygon fill="#181818" points="380.468,292.4736,375.468,294.4736,380.468,296.4736,378.468,294.4736" style="stroke:#181818;stroke-width:0.5;"/><line style="stroke:#181818;stroke-width:0.5;stroke-dasharray:1,1;" x1="377.468" x2="530.6233" y1="294.4736" y2="294.4736"/><text fill="#000000" font-family="sans-serif" font-size="6.5" lengthAdjust="spacing" textLength="40.46" x="383.468" y="291.8423">Result.ok(dto)</text></g><g class="message" data-participant-1="Ctrl" data-participant-2="SPA"><polygon fill="#181818" points="200.0269,316.7646,195.0269,318.7646,200.0269,320.7646,198.0269,318.7646" style="stroke:#181818;stroke-width:0.5;"/><line style="stroke:#181818;stroke-width:0.5;stroke-dasharray:1,1;" x1="197.0269" x2="374.468" y1="318.7646" y2="318.7646"/><text fill="#000000" font-family="sans-serif" font-size="6.5" lengthAdjust="spacing" textLength="22.0422" x="203.0269" y="307.4878">200 OK</text><text fill="#000000" font-family="sans-serif" font-size="6.5" lengthAdjust="spacing" textLength="26.7268" x="203.0269" y="316.1333">VVEDTO</text></g><rect fill="#EEEEEE" height="1.5" style="stroke:#EEEEEE;stroke-width:0.5;" width="1028.5667" x="0" y="337.0874"/><line style="stroke:#000000;stroke-width:0.5;" x1="0" x2="1028.5667" y1="337.0874" y2="337.0874"/><line style="stroke:#000000;stroke-width:0.5;" x1="0" x2="1028.5667" y1="338.5874" y2="338.5874"/><rect fill="#EEEEEE" height="12.6455" style="stroke:#000000;stroke-width:1;" width="97.6604" x="465.4531" y="331.2646"/><text fill="#000000" font-family="sans-serif" font-size="6.5" font-weight="bold" lengthAdjust="spacing" textLength="88.8545" x="468.4531" y="340.2788">Update Executed Operations</text><g class="message" data-participant-1="Operator" data-participant-2="SPA"><polygon fill="#181818" points="188.5269,358.5557,193.5269,360.5557,188.5269,362.5557,190.5269,360.5557" style="stroke:#181818;stroke-width:0.5;"/><line style="stroke:#181818;stroke-width:0.5;" x1="32.4016" x2="191.5269" y1="360.5557" y2="360.5557"/><text fill="#000000" font-family="sans-serif" font-size="6.5" lengthAdjust="spacing" textLength="150.1252" x="35.9016" y="357.9243">Confirm/adjust operation start/end + resource usage</text></g><g class="message" data-participant-1="SPA" data-participant-2="Routes"><polygon fill="#181818" points="309.6431,382.8467,314.6431,384.8467,309.6431,386.8467,311.6431,384.8467" style="stroke:#181818;stroke-width:0.5;"/><line style="stroke:#181818;stroke-width:0.5;" x1="194.5269" x2="312.6431" y1="384.8467" y2="384.8467"/><text fill="#000000" font-family="sans-serif" font-size="6.5" lengthAdjust="spacing" textLength="109.1162" x="198.0269" y="373.5698">PUT /vve/{vveId}/executed-operations</text><text fill="#000000" font-family="sans-serif" font-size="6.5" lengthAdjust="spacing" textLength="78.7522" x="198.0269" y="382.2153">(ExecutedOperations DTO)</text></g><g class="message" data-participant-1="Routes" data-participant-2="Ctrl"><polygon fill="#181818" points="368.968,398.4922,373.968,400.4922,368.968,402.4922,370.968,400.4922" style="stroke:#181818;stroke-width:0.5;"/><line style="stroke:#181818;stroke-width:0.5;" x1="315.6431" x2="371.968" y1="400.4922" y2="400.4922"/><text fill="#000000" font-family="sans-serif" font-size="6.5" lengthAdjust="spacing" textLength="47.325" x="319.1431" y="397.8608">execute(req,res)</text></g><g class="message" data-participant-1="Ctrl" data-participant-2="Svc"><polygon fill="#181818" points="525.1233,414.1377,530.1233,416.1377,525.1233,418.1377,527.1233,416.1377" style="stroke:#181818;stroke-width:0.5;"/><line style="stroke:#181818;stroke-width:0.5;" x1="374.968" x2="528.1233" y1="416.1377" y2="416.1377"/><text fill="#000000" font-family="sans-serif" font-size="6.5" lengthAdjust="spacing" textLength="109.1162" x="378.468" y="413.5063">updateExecutedOpsAsync(vveId, dto)</text></g><g class="message" data-participant-1="Svc" data-participant-2="VveRepo"><polygon fill="#181818" points="767.9355,429.7832,772.9355,431.7832,767.9355,433.7832,769.9355,431.7832" style="stroke:#181818;stroke-width:0.5;"/><line style="stroke:#181818;stroke-width:0.5;" x1="531.1233" x2="770.9355" y1="431.7832" y2="431.7832"/><text fill="#000000" font-family="sans-serif" font-size="6.5" lengthAdjust="spacing" textLength="43.3513" x="534.6233" y="429.1519">findById(vveId)</text></g><g class="message" data-participant-1="VveRepo" data-participant-2="DB"><polygon fill="#181818" points="955.8547,445.4287,960.8547,447.4287,955.8547,449.4287,957.8547,447.4287" style="stroke:#181818;stroke-width:0.5;"/><line style="stroke:#181818;stroke-width:0.5;" x1="773.9355" x2="958.8547" y1="447.4287" y2="447.4287"/><text fill="#000000" font-family="sans-serif" font-size="6.5" lengthAdjust="spacing" textLength="57.4526" x="777.4355" y="444.7974">findOne({_id:vveId})</text></g><g class="message" data-participant-1="DB" data-participant-2="VveRepo"><polygon fill="#181818" points="779.4355,461.0742,774.4355,463.0742,779.4355,465.0742,777.4355,463.0742" style="stroke:#181818;stroke-width:0.5;"/><line style="stroke:#181818;stroke-width:0.5;stroke-dasharray:1,1;" x1="776.4355" x2="961.3547" y1="463.0742" y2="463.0742"/><text fill="#000000" font-family="sans-serif" font-size="6.5" lengthAdjust="spacing" textLength="22.4041" x="782.4355" y="460.4429">doc/null</text></g><g class="message" data-participant-1="VveRepo" data-participant-2="Svc"><polygon fill="#181818" points="536.6233,476.7197,531.6233,478.7197,536.6233,480.7197,534.6233,478.7197" style="stroke:#181818;stroke-width:0.5;"/><line style="stroke:#181818;stroke-width:0.5;stroke-dasharray:1,1;" x1="533.6233" x2="773.4355" y1="478.7197" y2="478.7197"/><text fill="#000000" font-family="sans-serif" font-size="6.5" lengthAdjust="spacing" textLength="28.5454" x="539.6233" y="476.0884">VVE?/null</text></g><g class="message" data-participant-1="Svc" data-participant-2="Ctrl"><polygon fill="#181818" points="380.468,505.5107,375.468,507.5107,380.468,509.5107,378.468,507.5107" style="stroke:#181818;stroke-width:0.5;"/><line style="stroke:#181818;stroke-width:0.5;stroke-dasharray:1,1;" x1="377.468" x2="530.6233" y1="507.5107" y2="507.5107"/><text fill="#000000" font-family="sans-serif" font-size="6.5" lengthAdjust="spacing" textLength="115.6099" x="383.468" y="504.8794">BusinessRuleValidationError(NotFound)</text></g><g class="message" data-participant-1="Ctrl" data-participant-2="SPA"><polygon fill="#181818" points="200.0269,521.1563,195.0269,523.1563,200.0269,525.1563,198.0269,523.1563" style="stroke:#181818;stroke-width:0.5;"/><line style="stroke:#181818;stroke-width:0.5;stroke-dasharray:1,1;" x1="197.0269" x2="374.468" y1="523.1563" y2="523.1563"/><text fill="#000000" font-family="sans-serif" font-size="6.5" lengthAdjust="spacing" textLength="43.0022" x="203.0269" y="520.5249">404 Not Found</text></g><path d="M157.2769,538.9717 L187.3623,538.9717 L187.3623,543.6172 L182.3623,548.6172 L157.2769,548.6172 L157.2769,538.9717" fill="#EEEEEE" style="stroke:#000000;stroke-width:0.75;"/><rect fill="none" height="605.3545" style="stroke:#000000;stroke-width:0.75;" width="861.2898" x="157.2769" y="538.9717"/><text fill="#000000" font-family="sans-serif" font-size="6.5" font-weight="bold" lengthAdjust="spacing" textLength="7.5854" x="164.7769" y="546.4858">alt</text><text fill="#000000" font-family="sans-serif" font-size="5.5" font-weight="bold" lengthAdjust="spacing" textLength="75.9714" x="194.8623" y="545.9067">[VVE status != "In Progress"]</text><g class="message" data-participant-1="Svc" data-participant-2="Ctrl"><polygon fill="#181818" points="380.468,558.2627,375.468,560.2627,380.468,562.2627,378.468,560.2627" style="stroke:#181818;stroke-width:0.5;"/><line style="stroke:#181818;stroke-width:0.5;stroke-dasharray:1,1;" x1="377.468" x2="530.6233" y1="560.2627" y2="560.2627"/><text fill="#000000" font-family="sans-serif" font-size="6.5" lengthAdjust="spacing" textLength="121.0308" x="383.468" y="557.6313">BusinessRuleValidationError(InvalidState)</text></g><g class="message" data-participant-1="Ctrl" data-participant-2="SPA"><polygon fill="#181818" points="200.0269,573.9082,195.0269,575.9082,200.0269,577.9082,198.0269,575.9082" style="stroke:#181818;stroke-width:0.5;"/><line style="stroke:#181818;stroke-width:0.5;stroke-dasharray:1,1;" x1="197.0269" x2="374.468" y1="575.9082" y2="575.9082"/><text fill="#000000" font-family="sans-serif" font-size="6.5" lengthAdjust="spacing" textLength="50.2322" x="203.0269" y="573.2769">400 Bad Request</text></g><line style="stroke:#000000;stroke-width:0.5;stroke-dasharray:1,1;" x1="157.2769" x2="1018.5667" y1="580.4082" y2="580.4082"/><text fill="#000000" font-family="sans-serif" font-size="5.5" font-weight="bold" lengthAdjust="spacing" textLength="62.9814" x="159.7769" y="586.3433">[status is "In Progress"]</text><g class="message" data-participant-1="Svc" data-participant-2="Svc"><line style="stroke:#181818;stroke-width:0.5;" x1="531.1233" x2="552.1233" y1="599.8691" y2="599.8691"/><line style="stroke:#181818;stroke-width:0.5;" x1="552.1233" x2="552.1233" y1="599.8691" y2="606.3691"/><line style="stroke:#181818;stroke-width:0.5;" x1="531.6233" x2="552.1233" y1="606.3691" y2="606.3691"/><polygon fill="#181818" points="536.6233,604.3691,531.6233,606.3691,536.6233,608.3691,534.6233,606.3691" style="stroke:#181818;stroke-width:0.5;"/><text fill="#000000" font-family="sans-serif" font-size="6.5" lengthAdjust="spacing" textLength="71.5413" x="534.6233" y="597.2378">validate(dto.operations[])</text></g><path d="M162.2769,613.8691 L192.3623,613.8691 L192.3623,618.5146 L187.3623,623.5146 L162.2769,623.5146 L162.2769,613.8691" fill="#EEEEEE" style="stroke:#000000;stroke-width:0.75;"/><rect fill="none" height="526.957" style="stroke:#000000;stroke-width:0.75;" width="851.2898" x="162.2769" y="613.8691"/><text fill="#000000" font-family="sans-serif" font-size="6.5" font-weight="bold" lengthAdjust="spacing" textLength="7.5854" x="169.7769" y="621.3833">alt</text><text fill="#000000" font-family="sans-serif" font-size="5.5" font-weight="bold" lengthAdjust="spacing" textLength="73.6431" x="199.8623" y="620.8042">[Invalid data in operations[]]</text><g class="message" data-participant-1="Svc" data-participant-2="Ctrl"><polygon fill="#181818" points="380.468,633.1602,375.468,635.1602,380.468,637.1602,378.468,635.1602" style="stroke:#181818;stroke-width:0.5;"/><line style="stroke:#181818;stroke-width:0.5;stroke-dasharray:1,1;" x1="377.468" x2="530.6233" y1="635.1602" y2="635.1602"/><text fill="#000000" font-family="sans-serif" font-size="6.5" lengthAdjust="spacing" textLength="119.5835" x="383.468" y="632.5288">BusinessRuleValidationError(InvalidData)</text></g><g class="message" data-participant-1="Ctrl" data-participant-2="SPA"><polygon fill="#181818" points="200.0269,648.8057,195.0269,650.8057,200.0269,652.8057,198.0269,650.8057" style="stroke:#181818;stroke-width:0.5;"/><line style="stroke:#181818;stroke-width:0.5;stroke-dasharray:1,1;" x1="197.0269" x2="374.468" y1="650.8057" y2="650.8057"/><text fill="#000000" font-family="sans-serif" font-size="6.5" lengthAdjust="spacing" textLength="50.2322" x="203.0269" y="648.1743">400 Bad Request</text></g><line style="stroke:#000000;stroke-width:0.5;stroke-dasharray:1,1;" x1="162.2769" x2="1013.5667" y1="655.3057" y2="655.3057"/><text fill="#000000" font-family="sans-serif" font-size="5.5" font-weight="bold" lengthAdjust="spacing" textLength="50.1123" x="164.7769" y="661.2407">[Valid operations[]]</text><g class="message" data-participant-1="Svc" data-participant-2="PlanRepo"><polygon fill="#181818" points="824.9663,672.7666,829.9663,674.7666,824.9663,676.7666,826.9663,674.7666" style="stroke:#181818;stroke-width:0.5;"/><line style="stroke:#181818;stroke-width:0.5;" x1="531.1233" x2="827.9663" y1="674.7666" y2="674.7666"/><text fill="#000000" font-family="sans-serif" font-size="6.5" lengthAdjust="spacing" textLength="118.1331" x="534.6233" y="672.1353">findByVveOrVvnRef(vve.referenceVvnId)</text></g><g class="message" data-participant-1="PlanRepo" data-participant-2="DB"><polygon fill="#181818" points="955.8547,688.4121,960.8547,690.4121,955.8547,692.4121,957.8547,690.4121" style="stroke:#181818;stroke-width:0.5;"/><line style="stroke:#181818;stroke-width:0.5;" x1="830.9663" x2="958.8547" y1="690.4121" y2="690.4121"/><text fill="#000000" font-family="sans-serif" font-size="6.5" lengthAdjust="spacing" textLength="106.5867" x="834.4663" y="687.7808">findOne({vvnId: vve.referenceVvnId})</text></g><g class="message" data-participant-1="DB" data-participant-2="PlanRepo"><polygon fill="#181818" points="836.4663,704.0576,831.4663,706.0576,836.4663,708.0576,834.4663,706.0576" style="stroke:#181818;stroke-width:0.5;"/><line style="stroke:#181818;stroke-width:0.5;stroke-dasharray:1,1;" x1="833.4663" x2="961.3547" y1="706.0576" y2="706.0576"/><text fill="#000000" font-family="sans-serif" font-size="6.5" lengthAdjust="spacing" textLength="35.7722" x="839.4663" y="703.4263">planDoc/null</text></g><g class="message" data-participant-1="PlanRepo" data-participant-2="Svc"><polygon fill="#181818" points="536.6233,719.7031,531.6233,721.7031,536.6233,723.7031,534.6233,721.7031" style="stroke:#181818;stroke-width:0.5;"/><line style="stroke:#181818;stroke-width:0.5;stroke-dasharray:1,1;" x1="533.6233" x2="830.4663" y1="721.7031" y2="721.7031"/><text fill="#000000" font-family="sans-serif" font-size="6.5" lengthAdjust="spacing" textLength="57.094" x="539.6233" y="719.0718">OperationPlan?/null</text></g><path d="M167.2769,729.2031 L197.3623,729.2031 L197.3623,733.8486 L192.3623,738.8486 L167.2769,738.8486 L167.2769,729.2031" fill="#EEEEEE" style="stroke:#000000;stroke-width:0.75;"/><rect fill="none" height="408.123" style="stroke:#000000;stroke-width:0.75;" width="841.2898" x="167.2769" y="729.2031"/><text fill="#000000" font-family="sans-serif" font-size="6.5" font-weight="bold" lengthAdjust="spacing" textLength="7.5854" x="174.7769" y="736.7173">alt</text><text fill="#000000" font-family="sans-serif" font-size="5.5" font-weight="bold" lengthAdjust="spacing" textLength="69.6577" x="204.8623" y="736.1382">[Operation Plan not found]</text><g class="message" data-participant-1="Svc" data-participant-2="Ctrl"><polygon fill="#181818" points="380.468,748.4941,375.468,750.4941,380.468,752.4941,378.468,750.4941" style="stroke:#181818;stroke-width:0.5;"/><line style="stroke:#181818;stroke-width:0.5;stroke-dasharray:1,1;" x1="377.468" x2="530.6233" y1="750.4941" y2="750.4941"/><text fill="#000000" font-family="sans-serif" font-size="6.5" lengthAdjust="spacing" textLength="128.6194" x="383.468" y="747.8628">BusinessRuleValidationError(PlanNotFound)</text></g><g class="message" data-participant-1="Ctrl" data-participant-2="SPA"><polygon fill="#181818" points="200.0269,764.1396,195.0269,766.1396,200.0269,768.1396,198.0269,766.1396" style="stroke:#181818;stroke-width:0.5;"/><line style="stroke:#181818;stroke-width:0.5;stroke-dasharray:1,1;" x1="197.0269" x2="374.468" y1="766.1396" y2="766.1396"/><text fill="#000000" font-family="sans-serif" font-size="6.5" lengthAdjust="spacing" textLength="43.0022" x="203.0269" y="763.5083">404 Not Found</text></g><line style="stroke:#000000;stroke-width:0.5;stroke-dasharray:1,1;" x1="167.2769" x2="1008.5667" y1="770.6396" y2="770.6396"/><text fill="#000000" font-family="sans-serif" font-size="5.5" font-weight="bold" lengthAdjust="spacing" textLength="32.0762" x="169.7769" y="776.5747">[Plan found]</text><path d="M172.2769,781.9551 L208.4941,781.9551 L208.4941,786.6006 L203.4941,791.6006 L172.2769,791.6006 L172.2769,781.9551" fill="#EEEEEE" style="stroke:#000000;stroke-width:0.75;"/><rect fill="none" height="351.8711" style="stroke:#000000;stroke-width:0.75;" width="831.2898" x="172.2769" y="781.9551"/><text fill="#000000" font-family="sans-serif" font-size="6.5" font-weight="bold" lengthAdjust="spacing" textLength="13.7173" x="179.7769" y="789.4692">loop</text><text fill="#000000" font-family="sans-serif" font-size="5.5" font-weight="bold" lengthAdjust="spacing" textLength="107.8704" x="215.9941" y="788.8901">[for each executedOp in dto.operations[]]</text><g class="message" data-participant-1="Svc" data-participant-2="Svc"><line style="stroke:#181818;stroke-width:0.5;" x1="531.1233" x2="552.1233" y1="803.2461" y2="803.2461"/><line style="stroke:#181818;stroke-width:0.5;" x1="552.1233" x2="552.1233" y1="803.2461" y2="809.7461"/><line style="stroke:#181818;stroke-width:0.5;" x1="531.6233" x2="552.1233" y1="809.7461" y2="809.7461"/><polygon fill="#181818" points="536.6233,807.7461,531.6233,809.7461,536.6233,811.7461,534.6233,809.7461" style="stroke:#181818;stroke-width:0.5;"/><text fill="#000000" font-family="sans-serif" font-size="6.5" lengthAdjust="spacing" textLength="170.7456" x="534.6233" y="800.6147">plannedOp = plan.findOperation(executedOp.plannedOpId)</text></g><path d="M177.2769,817.2461 L207.3623,817.2461 L207.3623,821.8916 L202.3623,826.8916 L177.2769,826.8916 L177.2769,817.2461" fill="#EEEEEE" style="stroke:#000000;stroke-width:0.75;"/><rect fill="none" height="110.1885" style="stroke:#000000;stroke-width:0.75;" width="546.4617" x="177.2769" y="817.2461"/><text fill="#000000" font-family="sans-serif" font-size="6.5" font-weight="bold" lengthAdjust="spacing" textLength="7.5854" x="184.7769" y="824.7603">alt</text><text fill="#000000" font-family="sans-serif" font-size="5.5" font-weight="bold" lengthAdjust="spacing" textLength="59.262" x="214.8623" y="824.1812">[plannedOp not found]</text><g class="message" data-participant-1="Svc" data-participant-2="Ctrl"><polygon fill="#181818" points="380.468,836.5371,375.468,838.5371,380.468,840.5371,378.468,838.5371" style="stroke:#181818;stroke-width:0.5;"/><line style="stroke:#181818;stroke-width:0.5;stroke-dasharray:1,1;" x1="377.468" x2="530.6233" y1="838.5371" y2="838.5371"/><text fill="#000000" font-family="sans-serif" font-size="6.5" lengthAdjust="spacing" textLength="144.1553" x="383.468" y="835.9058">BusinessRuleValidationError(OperationNotFound)</text></g><g class="message" data-participant-1="Ctrl" data-participant-2="SPA"><polygon fill="#181818" points="200.0269,852.1826,195.0269,854.1826,200.0269,856.1826,198.0269,854.1826" style="stroke:#181818;stroke-width:0.5;"/><line style="stroke:#181818;stroke-width:0.5;stroke-dasharray:1,1;" x1="197.0269" x2="374.468" y1="854.1826" y2="854.1826"/><text fill="#000000" font-family="sans-serif" font-size="6.5" lengthAdjust="spacing" textLength="43.0022" x="203.0269" y="851.5513">404 Not Found</text></g><path d="M504.9768,861.6826 L544.8218,861.6826 L544.8218,866.3281 L539.8218,871.3281 L504.9768,871.3281 L504.9768,861.6826" fill="#EEEEEE" style="stroke:#000000;stroke-width:0.75;"/><rect fill="none" height="62.252" style="stroke:#000000;stroke-width:0.75;" width="213.7617" x="504.9768" y="861.6826"/><text fill="#000000" font-family="sans-serif" font-size="6.5" font-weight="bold" lengthAdjust="spacing" textLength="17.345" x="512.4768" y="869.1968">break</text><line style="stroke:#000000;stroke-width:0.5;stroke-dasharray:1,1;" x1="504.9768" x2="718.7385" y1="871.8281" y2="871.8281"/><text fill="#000000" font-family="sans-serif" font-size="5.5" font-weight="bold" lengthAdjust="spacing" textLength="49.1831" x="507.4768" y="877.7632">[plannedOp found]</text><g class="message" data-participant-1="Svc" data-participant-2="Svc"><line style="stroke:#181818;stroke-width:0.5;" x1="531.1233" x2="552.1233" y1="891.2891" y2="891.2891"/><line style="stroke:#181818;stroke-width:0.5;" x1="552.1233" x2="552.1233" y1="891.2891" y2="897.7891"/><line style="stroke:#181818;stroke-width:0.5;" x1="531.6233" x2="552.1233" y1="897.7891" y2="897.7891"/><polygon fill="#181818" points="536.6233,895.7891,531.6233,897.7891,536.6233,899.7891,534.6233,897.7891" style="stroke:#181818;stroke-width:0.5;"/><text fill="#000000" font-family="sans-serif" font-size="6.5" lengthAdjust="spacing" textLength="125.0139" x="534.6233" y="888.6577">vve.upsertExecutedOperation(executedOp)</text></g><g class="message" data-participant-1="Svc" data-participant-2="Svc"><line style="stroke:#181818;stroke-width:0.5;" x1="531.1233" x2="552.1233" y1="913.4346" y2="913.4346"/><line style="stroke:#181818;stroke-width:0.5;" x1="552.1233" x2="552.1233" y1="913.4346" y2="919.9346"/><line style="stroke:#181818;stroke-width:0.5;" x1="531.6233" x2="552.1233" y1="919.9346" y2="919.9346"/><polygon fill="#181818" points="536.6233,917.9346,531.6233,919.9346,536.6233,921.9346,534.6233,919.9346" style="stroke:#181818;stroke-width:0.5;"/><text fill="#000000" font-family="sans-serif" font-size="6.5" lengthAdjust="spacing" textLength="178.1152" x="534.6233" y="910.8032">plannedOp.markStartedOrCompletedOrDelayed(executedOp)</text></g><g class="message" data-participant-1="Svc" data-participant-2="Svc"><line style="stroke:#181818;stroke-width:0.5;" x1="531.1233" x2="552.1233" y1="942.5801" y2="942.5801"/><line style="stroke:#181818;stroke-width:0.5;" x1="552.1233" x2="552.1233" y1="942.5801" y2="949.0801"/><line style="stroke:#181818;stroke-width:0.5;" x1="531.6233" x2="552.1233" y1="949.0801" y2="949.0801"/><polygon fill="#181818" points="536.6233,947.0801,531.6233,949.0801,536.6233,951.0801,534.6233,949.0801" style="stroke:#181818;stroke-width:0.5;"/><text fill="#000000" font-family="sans-serif" font-size="6.5" lengthAdjust="spacing" textLength="235.8123" x="534.6233" y="939.9487">vve.appendAudit(operatorId, timestamp, "UPDATE_EXECUTED_OPERATIONS")</text></g><g class="message" data-participant-1="Svc" data-participant-2="VveRepo"><polygon fill="#181818" points="767.9355,962.7256,772.9355,964.7256,767.9355,966.7256,769.9355,964.7256" style="stroke:#181818;stroke-width:0.5;"/><line style="stroke:#181818;stroke-width:0.5;" x1="531.1233" x2="770.9355" y1="964.7256" y2="964.7256"/><text fill="#000000" font-family="sans-serif" font-size="6.5" lengthAdjust="spacing" textLength="28.1741" x="534.6233" y="962.0942">save(vve)</text></g><g class="message" data-participant-1="VveRepo" data-participant-2="DB"><polygon fill="#181818" points="955.8547,978.3711,960.8547,980.3711,955.8547,982.3711,957.8547,980.3711" style="stroke:#181818;stroke-width:0.5;"/><line style="stroke:#181818;stroke-width:0.5;" x1="773.9355" x2="958.8547" y1="980.3711" y2="980.3711"/><text fill="#000000" font-family="sans-serif" font-size="6.5" lengthAdjust="spacing" textLength="116.7112" x="777.4355" y="977.7397">updateOne({_id:vveId}, persistenceVVE)</text></g><g class="message" data-participant-1="DB" data-participant-2="VveRepo"><polygon fill="#181818" points="779.4355,994.0166,774.4355,996.0166,779.4355,998.0166,777.4355,996.0166" style="stroke:#181818;stroke-width:0.5;"/><line style="stroke:#181818;stroke-width:0.5;stroke-dasharray:1,1;" x1="776.4355" x2="961.3547" y1="996.0166" y2="996.0166"/><text fill="#000000" font-family="sans-serif" font-size="6.5" lengthAdjust="spacing" textLength="46.2554" x="782.4355" y="993.3853">updatedVveDoc</text></g><g class="message" data-participant-1="VveRepo" data-participant-2="Svc"><polygon fill="#181818" points="536.6233,1009.6621,531.6233,1011.6621,536.6233,1013.6621,534.6233,1011.6621" style="stroke:#181818;stroke-width:0.5;"/><line style="stroke:#181818;stroke-width:0.5;stroke-dasharray:1,1;" x1="533.6233" x2="773.4355" y1="1011.6621" y2="1011.6621"/><text fill="#000000" font-family="sans-serif" font-size="6.5" lengthAdjust="spacing" textLength="13.0063" x="539.6233" y="1009.0308">VVE</text></g><g class="message" data-participant-1="Svc" data-participant-2="PlanRepo"><polygon fill="#181818" points="824.9663,1025.3076,829.9663,1027.3076,824.9663,1029.3076,826.9663,1027.3076" style="stroke:#181818;stroke-width:0.5;"/><line style="stroke:#181818;stroke-width:0.5;" x1="531.1233" x2="827.9663" y1="1027.3076" y2="1027.3076"/><text fill="#000000" font-family="sans-serif" font-size="6.5" lengthAdjust="spacing" textLength="30.3481" x="534.6233" y="1024.6763">save(plan)</text></g><g class="message" data-participant-1="PlanRepo" data-participant-2="DB"><polygon fill="#181818" points="955.8547,1040.9531,960.8547,1042.9531,955.8547,1044.9531,957.8547,1042.9531" style="stroke:#181818;stroke-width:0.5;"/><line style="stroke:#181818;stroke-width:0.5;" x1="830.9663" x2="958.8547" y1="1042.9531" y2="1042.9531"/><text fill="#000000" font-family="sans-serif" font-size="6.5" lengthAdjust="spacing" textLength="118.8884" x="834.4663" y="1040.3218">updateOne({_id:planId}, persistencePlan)</text></g><g class="message" data-participant-1="DB" data-participant-2="PlanRepo"><polygon fill="#181818" points="836.4663,1056.5986,831.4663,1058.5986,836.4663,1060.5986,834.4663,1058.5986" style="stroke:#181818;stroke-width:0.5;"/><line style="stroke:#181818;stroke-width:0.5;stroke-dasharray:1,1;" x1="833.4663" x2="961.3547" y1="1058.5986" y2="1058.5986"/><text fill="#000000" font-family="sans-serif" font-size="6.5" lengthAdjust="spacing" textLength="48.0645" x="839.4663" y="1055.9673">updatedPlanDoc</text></g><g class="message" data-participant-1="PlanRepo" data-participant-2="Svc"><polygon fill="#181818" points="536.6233,1072.2441,531.6233,1074.2441,536.6233,1076.2441,534.6233,1074.2441" style="stroke:#181818;stroke-width:0.5;"/><line style="stroke:#181818;stroke-width:0.5;stroke-dasharray:1,1;" x1="533.6233" x2="830.4663" y1="1074.2441" y2="1074.2441"/><text fill="#000000" font-family="sans-serif" font-size="6.5" lengthAdjust="spacing" textLength="41.5549" x="539.6233" y="1071.6128">OperationPlan</text></g><g class="message" data-participant-1="Svc" data-participant-2="Map"><polygon fill="#181818" points="885.4971,1087.8896,890.4971,1089.8896,885.4971,1091.8896,887.4971,1089.8896" style="stroke:#181818;stroke-width:0.5;"/><line style="stroke:#181818;stroke-width:0.5;" x1="531.1233" x2="888.4971" y1="1089.8896" y2="1089.8896"/><text fill="#000000" font-family="sans-serif" font-size="6.5" lengthAdjust="spacing" textLength="36.4768" x="534.6233" y="1087.2583">toDTO(VVE)</text></g><g class="message" data-participant-1="Svc" data-participant-2="Ctrl"><polygon fill="#181818" points="380.468,1103.5352,375.468,1105.5352,380.468,1107.5352,378.468,1105.5352" style="stroke:#181818;stroke-width:0.5;"/><line style="stroke:#181818;stroke-width:0.5;stroke-dasharray:1,1;" x1="377.468" x2="530.6233" y1="1105.5352" y2="1105.5352"/><text fill="#000000" font-family="sans-serif" font-size="6.5" lengthAdjust="spacing" textLength="40.46" x="383.468" y="1102.9038">Result.ok(dto)</text></g><g class="message" data-participant-1="Ctrl" data-participant-2="SPA"><polygon fill="#181818" points="200.0269,1127.8262,195.0269,1129.8262,200.0269,1131.8262,198.0269,1129.8262" style="stroke:#181818;stroke-width:0.5;"/><line style="stroke:#181818;stroke-width:0.5;stroke-dasharray:1,1;" x1="197.0269" x2="374.468" y1="1129.8262" y2="1129.8262"/><text fill="#000000" font-family="sans-serif" font-size="6.5" lengthAdjust="spacing" textLength="22.0422" x="203.0269" y="1118.5493">200 OK</text><text fill="#000000" font-family="sans-serif" font-size="6.5" lengthAdjust="spacing" textLength="26.7268" x="203.0269" y="1127.1948">VVEDTO</text></g><!--SRC=[vLRRRjj647tdLqpr4XAr9BVmImCeXMqfWT4a4YJRAD0KnfeSowofNMPtgKG8yk-TsUMTCbhtjG4YavpxcJEpQvvIcGijTh1JKiMFMkqGh2umCBN4F8f4VKdb5Xv4PZ2mgSqGDlYvG1aZp5EnPRNmRP5b4OpX9a-4HRYzNS2Nr3x2uYl6XSK4bZbgOLCb3OGt6pYR_3Jv9Ge24LkbOVHURLDZqzYKUagFG3GlmRqgP2Bq0KQRrRaJqT_MLuwtLXJ8EA5_368bhLQP5r_wbmozwqkhiwx21lK-ZT5xtyS1IYgsyesvSeBRFV9pBQpBWbKcPAF7Rnr5zl91v7aPdXu3GahS2uCm-g3aLiql87GFoc3abEONGJ2RmJkq3j0VdLVP1NCs2ogKOFo6OO7NB9VE11tyd9w9DQ8CM4vg7Y3IVBUuXkb-ZzDlz7ELV0zA2UamGgJXNM2eyVE9HXC5xZk7siSatgAzE5mbv-OWuz3veAwoY3HAi4Zh8PK9grKQbOIKg6mlNqeClzsboMkVIHIGPDpnagXuAebeZNcT1XNxgvS58lDmIMNXWHaIW5CQDpLT52QLQCowoF1MP6dYm5nehNJuKTctR1MHcI-rXlNiz0n834uU8Cr3Dy0RRYlfMJM_NeQKGpGClKPJP7QYdiB4gYCnVZuzXULldoHPanEYJ-8uKCxLiN4woW1Y-qEgTrEH_5KO2wgcgR52socv9JfHErMXQOmB8xOuuCRgfikDQKc5P5oxCvzaMENKIeaoZrxCfCALs7WpBKwTW4ChU3KUZ-6z4edhCBtyFwZMvPe3eVI5t53wPIW0gdpuMs7WXncChcWpQRKblCs8D5wKtvNSyvSDHuYSyI3BKxYWPgpvF32ML5oYPVZK70dVJJuNXuoxwTElnyW3lI-rU58c3UN- -9E8mCfSRPaYy2w5L49RpIdzbuBdv2mghV-nuh9cv-fO-8Qo6ZFHcLr_PeHMGQnsTDuI7kM2tvjgMfAe1gU6fpfSQhOJIPVwTayV7vZs4uqFgFc0fczNILLARJOOXJsh4U03q- -LRJaWhSYSwhoQadw0keTrhIohniPhS_jwKBJdwCNDOm_jYNgcV-svyYgkVov-DxRht7cUPuUw6Qq6b_lAjDe3a2cLanSDAEB7scgPCpNxBAwDUhGlEK16C_SySMsg3CF6wQJMT8TkuuwHRRmCGNqXi7Ni8Rh_4c7_xrwZU6fzSRWtUGvpV4MRHD5KDBSO7lDX6VN28FuMkK5j1sTI2xQe5yFtqILIRIxke1_9r2ZvVC0w-SbEwASD7wtqfY_9D4FtEAUPFs3oJ7Xi5UnE-YxrYYIri4Cht7PhysnGDjyiPU8iGbNU1lZOjEcErfJOvISmkbdDpwyNTulV5vStrulvtNArM9zVNoq_RaPHB_GAjQ4BESIFGcvx71-Sk4RiaTTEKrd_pFKGzqxT4yXz5BTj_6MfisoQ2Du-eG-qSOPHsaTpqC-pjR9Sejop9jHW9_PIPUr-hgkEX-5cBBDT-GLv9DJnxTXhmHfjeILVfOwXV-IYUNIk1zVDepFRktHsoUd_yY___ni0]--></g></svg>