<svg xmlns="http://www.w3.org/2000/svg" xmlns:xlink="http://www.w3.org/1999/xlink" contentStyleType="text/css" data-diagram-type="SEQUENCE" height="632px" preserveAspectRatio="none" style="width:743px;height:632px;background:#FFFFFF;" version="1.1" viewBox="0 0 743 632" width="743px" zoomAndPan="magnify"><title>System Sequence Diagram - Create &amp; Update Vessel Type</title><defs/><g><text fill="#000000" font-family="sans-serif" font-size="14" font-weight="bold" lengthAdjust="spacing" textLength="416.3154" x="159.3621" y="28.5352">System Sequence Diagram - Create &amp; Update Vessel Type</text><g><title>Port Authority Officer</title><rect fill="#000000" fill-opacity="0.00000" height="432.9688" width="8" x="76.6387" y="118.9766"/><line style="stroke:#181818;stroke-width:0.5;stroke-dasharray:5,5;" x1="80" x2="80" y1="118.9766" y2="551.9453"/></g><g><title>Vessel Type Management API</title><rect fill="#000000" fill-opacity="0.00000" height="432.9688" width="8" x="624.9868" y="118.9766"/><line style="stroke:#181818;stroke-width:0.5;stroke-dasharray:5,5;" x1="628.9341" x2="628.9341" y1="118.9766" y2="551.9453"/></g><g class="participant participant-head" data-participant="Officer"><text fill="#000000" font-family="sans-serif" font-size="14" lengthAdjust="spacing" textLength="145.2773" x="5" y="116.0234">Port Authority Officer</text><ellipse cx="80.6387" cy="50.9883" fill="#E3E3E3" rx="8" ry="8" style="stroke:#181818;stroke-width:0.5;"/><path d="M80.6387,58.9883 L80.6387,85.9883 M67.6387,66.9883 L93.6387,66.9883 M80.6387,85.9883 L67.6387,100.9883 M80.6387,85.9883 L93.6387,100.9883" fill="none" style="stroke:#181818;stroke-width:0.5;"/></g><g class="participant participant-tail" data-participant="Officer"><text fill="#000000" font-family="sans-serif" font-size="14" lengthAdjust="spacing" textLength="145.2773" x="5" y="564.4805">Port Authority Officer</text><ellipse cx="80.6387" cy="575.9336" fill="#E3E3E3" rx="8" ry="8" style="stroke:#181818;stroke-width:0.5;"/><path d="M80.6387,583.9336 L80.6387,610.9336 M67.6387,591.9336 L93.6387,591.9336 M80.6387,610.9336 L67.6387,625.9336 M80.6387,610.9336 L93.6387,625.9336" fill="none" style="stroke:#181818;stroke-width:0.5;"/></g><g class="participant participant-head" data-participant="System"><text fill="#000000" font-family="sans-serif" font-size="14" lengthAdjust="spacing" textLength="198.1055" x="526.9341" y="116.0234">Vessel Type Management API</text><path d="M608.4868,74.4883 L608.4868,98.4883 M608.4868,86.4883 L625.4868,86.4883" fill="none" style="stroke:#181818;stroke-width:0.5;"/><ellipse cx="637.4868" cy="86.4883" fill="#E3E3E3" rx="12" ry="12" style="stroke:#181818;stroke-width:0.5;"/></g><g class="participant participant-tail" data-participant="System"><text fill="#000000" font-family="sans-serif" font-size="14" lengthAdjust="spacing" textLength="198.1055" x="526.9341" y="564.4805">Vessel Type Management API</text><path d="M608.4868,571.4336 L608.4868,595.4336 M608.4868,583.4336 L625.4868,583.4336" fill="none" style="stroke:#181818;stroke-width:0.5;"/><ellipse cx="637.4868" cy="583.4336" fill="#E3E3E3" rx="12" ry="12" style="stroke:#181818;stroke-width:0.5;"/></g><rect fill="#EEEEEE" height="3" style="stroke:#EEEEEE;stroke-width:1;" width="736.0396" x="0" y="149.6318"/><line style="stroke:#000000;stroke-width:1;" x1="0" x2="736.0396" y1="149.6318" y2="149.6318"/><line style="stroke:#000000;stroke-width:1;" x1="0" x2="736.0396" y1="152.6318" y2="152.6318"/><rect fill="#EEEEEE" height="23.3105" style="stroke:#000000;stroke-width:2;" width="146.1963" x="294.9216" y="138.9766"/><text fill="#000000" font-family="sans-serif" font-size="13" font-weight="bold" lengthAdjust="spacing" textLength="127.9116" x="300.9216" y="155.5449">Create Vessel Type</text><g class="message" data-participant-1="Officer" data-participant-2="System"><polygon fill="#181818" points="616.9868,204.9082,626.9868,208.9082,616.9868,212.9082,620.9868,208.9082" style="stroke:#181818;stroke-width:1;"/><line style="stroke:#181818;stroke-width:1;" x1="80.6387" x2="622.9868" y1="208.9082" y2="208.9082"/><text fill="#000000" font-family="sans-serif" font-size="13" lengthAdjust="spacing" textLength="134.6782" x="87.6387" y="188.8555">POST /api/vesseltype</text><text fill="#000000" font-family="sans-serif" font-size="13" lengthAdjust="spacing" textLength="505.8003" x="87.6387" y="204.166">Body: CreatingVesselTypeDto(name, description, maxBays, maxRows, maxTiers)</text></g><g class="message" data-participant-1="System" data-participant-2="Officer"><polygon fill="#181818" points="91.6387,249.5293,81.6387,253.5293,91.6387,257.5293,87.6387,253.5293" style="stroke:#181818;stroke-width:1;"/><line style="stroke:#181818;stroke-width:1;stroke-dasharray:2,2;" x1="85.6387" x2="627.9868" y1="253.5293" y2="253.5293"/><text fill="#000000" font-family="sans-serif" font-size="13" lengthAdjust="spacing" textLength="77.7969" x="97.6387" y="233.4766">201 Created</text><text fill="#000000" font-family="sans-serif" font-size="13" lengthAdjust="spacing" textLength="131.6821" x="97.6387" y="248.7871">Body: VesselTypeDto</text></g><rect fill="#EEEEEE" height="3" style="stroke:#EEEEEE;stroke-width:1;" width="736.0396" x="0" y="282.1846"/><line style="stroke:#000000;stroke-width:1;" x1="0" x2="736.0396" y1="282.1846" y2="282.1846"/><line style="stroke:#000000;stroke-width:1;" x1="0" x2="736.0396" y1="285.1846" y2="285.1846"/><rect fill="#EEEEEE" height="23.3105" style="stroke:#000000;stroke-width:2;" width="150.208" x="292.9158" y="271.5293"/><text fill="#000000" font-family="sans-serif" font-size="13" font-weight="bold" lengthAdjust="spacing" textLength="131.9233" x="298.9158" y="288.0977">Update Vessel Type</text><g class="message" data-participant-1="Officer" data-participant-2="System"><polygon fill="#181818" points="616.9868,337.4609,626.9868,341.4609,616.9868,345.4609,620.9868,341.4609" style="stroke:#181818;stroke-width:1;"/><line style="stroke:#181818;stroke-width:1;" x1="80.6387" x2="622.9868" y1="341.4609" y2="341.4609"/><text fill="#000000" font-family="sans-serif" font-size="13" lengthAdjust="spacing" textLength="153.7974" x="87.6387" y="321.4082">PUT /api/vesseltype/{id}</text><text fill="#000000" font-family="sans-serif" font-size="13" lengthAdjust="spacing" textLength="524.3481" x="87.6387" y="336.7188">Body: UpdateVesselTypeDto(name?, description?, maxBays?, maxRows?, maxTiers?)</text></g><g class="message" data-participant-1="System" data-participant-2="Officer"><polygon fill="#181818" points="91.6387,397.3926,81.6387,401.3926,91.6387,405.3926,87.6387,401.3926" style="stroke:#181818;stroke-width:1;"/><line style="stroke:#181818;stroke-width:1;stroke-dasharray:2,2;" x1="85.6387" x2="627.9868" y1="401.3926" y2="401.3926"/><text fill="#000000" font-family="sans-serif" font-size="13" lengthAdjust="spacing" textLength="47.3599" x="97.6387" y="366.0293">200 OK</text><text fill="#000000" font-family="sans-serif" font-size="13" lengthAdjust="spacing" textLength="196.1489" x="97.6387" y="381.3398">Body: VesselTypeDto (updated)</text><text fill="#000000" font-family="sans-serif" font-size="13" lengthAdjust="spacing" textLength="124.4902" x="97.6387" y="396.6504">OR 400 BadRequest</text></g><rect fill="#EEEEEE" height="3" style="stroke:#EEEEEE;stroke-width:1;" width="736.0396" x="0" y="430.0479"/><line style="stroke:#000000;stroke-width:1;" x1="0" x2="736.0396" y1="430.0479" y2="430.0479"/><line style="stroke:#000000;stroke-width:1;" x1="0" x2="736.0396" y1="433.0479" y2="433.0479"/><rect fill="#EEEEEE" height="23.3105" style="stroke:#000000;stroke-width:2;" width="154.2832" x="290.8782" y="419.3926"/><text fill="#000000" font-family="sans-serif" font-size="13" font-weight="bold" lengthAdjust="spacing" textLength="135.9985" x="296.8782" y="435.9609">Search Vessel Types</text><g class="message" data-participant-1="Officer" data-participant-2="System"><polygon fill="#181818" points="616.9868,470.0137,626.9868,474.0137,616.9868,478.0137,620.9868,474.0137" style="stroke:#181818;stroke-width:1;"/><line style="stroke:#181818;stroke-width:1;" x1="80.6387" x2="622.9868" y1="474.0137" y2="474.0137"/><text fill="#000000" font-family="sans-serif" font-size="13" lengthAdjust="spacing" textLength="426.0356" x="87.6387" y="469.2715">GET /api/vesseltype/filter?name={name}&amp;description={description}</text></g><g class="message" data-participant-1="System" data-participant-2="Officer"><polygon fill="#181818" points="91.6387,529.9453,81.6387,533.9453,91.6387,537.9453,87.6387,533.9453" style="stroke:#181818;stroke-width:1;"/><line style="stroke:#181818;stroke-width:1;stroke-dasharray:2,2;" x1="85.6387" x2="627.9868" y1="533.9453" y2="533.9453"/><text fill="#000000" font-family="sans-serif" font-size="13" lengthAdjust="spacing" textLength="47.3599" x="97.6387" y="498.582">200 OK</text><text fill="#000000" font-family="sans-serif" font-size="13" lengthAdjust="spacing" textLength="174.5288" x="97.6387" y="513.8926">Body: List&lt;VesselTypeDto&gt;</text><text fill="#000000" font-family="sans-serif" font-size="13" lengthAdjust="spacing" textLength="112.9312" x="97.6387" y="529.2031">OR 404 NotFound</text></g><!--SRC=[ZP9DJy9048Rl-oic70Wa4j1m8fP6H8tn0qB14vUnEz2DxMxTtOeDuR_R3uebIE9bCvkTUT_tsOpv4396ZH54IYe_q2eYi3eXPWul9a2kDaAkOOMX8MQ53Gcyr5YAmAFFXAHFC1QuphixSAi9BK4J5Z7FYpSoXaAOfp4nXhvL6XfJfItS93PGMjWK9gkLy4at04rLitULI8uwXKPD05vGufeYajduzB4OA9CmvZYLTNt0STXU4Jh3AlK0fXDl3bsCHVUhQBPPxrAE54y7fKh6MyhaAcEhMX8ZkW1EnjSYjaB92uZmUuIfAOgPsfJ5N90sRRPtwcIcbVy0hdgN-uoyCZioAI1El-qinEA4eRiLV5Tfbqgd6EuHXti0SGyaxY-AUvQb1vEdFp6WbHJElBsKandqiyuHybc-AiOMZ1wXzeCwepa7-N1t2haIeINjvYpEDZztpHgGiwrTTlz9_ooClJv26EwJz-5LsVjy5Ny0]--></g></svg>