<svg xmlns="http://www.w3.org/2000/svg" xmlns:xlink="http://www.w3.org/1999/xlink" contentStyleType="text/css" data-diagram-type="SEQUENCE" height="488px" preserveAspectRatio="none" style="width:581px;height:488px;background:#FFFFFF;" version="1.1" viewBox="0 0 581 488" width="581px" zoomAndPan="magnify"><defs/><g><g><title>Port Authority Officer</title><rect fill="#000000" fill-opacity="0.00000" height="325.7949" width="8" x="76.6387" y="81.4883"/><line style="stroke:#181818;stroke-width:0.5;stroke-dasharray:5,5;" x1="80" x2="80" y1="81.4883" y2="407.2832"/></g><g><title>System</title><rect fill="#000000" fill-opacity="0.00000" height="325.7949" width="8" x="538.6904" y="81.4883"/><line style="stroke:#181818;stroke-width:0.5;stroke-dasharray:5,5;" x1="542.6416" x2="542.6416" y1="81.4883" y2="407.2832"/></g><g class="participant participant-head" data-participant="Officer"><text fill="#000000" font-family="sans-serif" font-size="14" lengthAdjust="spacing" textLength="145.2773" x="5" y="78.5352">Port Authority Officer</text><ellipse cx="80.6387" cy="13.5" fill="#E2E2F0" rx="8" ry="8" style="stroke:#181818;stroke-width:0.5;"/><path d="M80.6387,21.5 L80.6387,48.5 M67.6387,29.5 L93.6387,29.5 M80.6387,48.5 L67.6387,63.5 M80.6387,48.5 L93.6387,63.5" fill="none" style="stroke:#181818;stroke-width:0.5;"/></g><g class="participant participant-tail" data-participant="Officer"><text fill="#000000" font-family="sans-serif" font-size="14" lengthAdjust="spacing" textLength="145.2773" x="5" y="419.8184">Port Authority Officer</text><ellipse cx="80.6387" cy="431.2715" fill="#E2E2F0" rx="8" ry="8" style="stroke:#181818;stroke-width:0.5;"/><path d="M80.6387,439.2715 L80.6387,466.2715 M67.6387,447.2715 L93.6387,447.2715 M80.6387,466.2715 L67.6387,481.2715 M80.6387,466.2715 L93.6387,481.2715" fill="none" style="stroke:#181818;stroke-width:0.5;"/></g><g class="participant participant-head" data-participant="System"><text fill="#000000" font-family="sans-serif" font-size="14" lengthAdjust="spacing" textLength="48.0977" x="515.6416" y="78.5352">System</text><path d="M522.1904,37 L522.1904,61 M522.1904,49 L539.1904,49" fill="none" style="stroke:#181818;stroke-width:0.5;"/><ellipse cx="551.1904" cy="49" fill="#E2E2F0" rx="12" ry="12" style="stroke:#181818;stroke-width:0.5;"/></g><g class="participant participant-tail" data-participant="System"><text fill="#000000" font-family="sans-serif" font-size="14" lengthAdjust="spacing" textLength="48.0977" x="515.6416" y="419.8184">System</text><path d="M522.1904,426.7715 L522.1904,450.7715 M522.1904,438.7715 L539.1904,438.7715" fill="none" style="stroke:#181818;stroke-width:0.5;"/><ellipse cx="551.1904" cy="438.7715" fill="#E2E2F0" rx="12" ry="12" style="stroke:#181818;stroke-width:0.5;"/></g><rect fill="#EEEEEE" height="3" style="stroke:#EEEEEE;stroke-width:1;" width="574.7393" x="0" y="112.1436"/><line style="stroke:#000000;stroke-width:1;" x1="0" x2="574.7393" y1="112.1436" y2="112.1436"/><line style="stroke:#000000;stroke-width:1;" x1="0" x2="574.7393" y1="115.1436" y2="115.1436"/><rect fill="#EEEEEE" height="23.3105" style="stroke:#000000;stroke-width:2;" width="61.6011" x="256.5691" y="101.4883"/><text fill="#000000" font-family="sans-serif" font-size="13" font-weight="bold" lengthAdjust="spacing" textLength="43.3164" x="262.5691" y="118.0566">Create</text><g class="message" data-participant-1="Officer" data-participant-2="System"><polygon fill="#181818" points="530.6904,152.1094,540.6904,156.1094,530.6904,160.1094,534.6904,156.1094" style="stroke:#181818;stroke-width:1;"/><line style="stroke:#181818;stroke-width:1;" x1="80.6387" x2="536.6904" y1="156.1094" y2="156.1094"/><text fill="#000000" font-family="sans-serif" font-size="13" lengthAdjust="spacing" textLength="438.0518" x="87.6387" y="151.3672">Submit CreateVesselType(name, desc, maxRows, maxBays, maxTiers)</text></g><g class="message" data-participant-1="System" data-participant-2="Officer"><polygon fill="#181818" points="91.6387,181.4199,81.6387,185.4199,91.6387,189.4199,87.6387,185.4199" style="stroke:#181818;stroke-width:1;"/><line style="stroke:#181818;stroke-width:1;stroke-dasharray:2,2;" x1="85.6387" x2="541.6904" y1="185.4199" y2="185.4199"/><text fill="#000000" font-family="sans-serif" font-size="13" lengthAdjust="spacing" textLength="155.4541" x="97.6387" y="180.6777">success(VesselTypeDTO)</text></g><rect fill="#EEEEEE" height="3" style="stroke:#EEEEEE;stroke-width:1;" width="574.7393" x="0" y="214.0752"/><line style="stroke:#000000;stroke-width:1;" x1="0" x2="574.7393" y1="214.0752" y2="214.0752"/><line style="stroke:#000000;stroke-width:1;" x1="0" x2="574.7393" y1="217.0752" y2="217.0752"/><rect fill="#EEEEEE" height="23.3105" style="stroke:#000000;stroke-width:2;" width="65.6128" x="254.5632" y="203.4199"/><text fill="#000000" font-family="sans-serif" font-size="13" font-weight="bold" lengthAdjust="spacing" textLength="47.3281" x="260.5632" y="219.9883">Update</text><g class="message" data-participant-1="Officer" data-participant-2="System"><polygon fill="#181818" points="530.6904,254.041,540.6904,258.041,530.6904,262.041,534.6904,258.041" style="stroke:#181818;stroke-width:1;"/><line style="stroke:#181818;stroke-width:1;" x1="80.6387" x2="536.6904" y1="258.041" y2="258.041"/><text fill="#000000" font-family="sans-serif" font-size="13" lengthAdjust="spacing" textLength="239.1797" x="87.6387" y="253.2988">Submit UpdateVesselType(id, fields&#8230;)</text></g><g class="message" data-participant-1="System" data-participant-2="Officer"><polygon fill="#181818" points="91.6387,283.3516,81.6387,287.3516,91.6387,291.3516,87.6387,287.3516" style="stroke:#181818;stroke-width:1;"/><line style="stroke:#181818;stroke-width:1;stroke-dasharray:2,2;" x1="85.6387" x2="541.6904" y1="287.3516" y2="287.3516"/><text fill="#000000" font-family="sans-serif" font-size="13" lengthAdjust="spacing" textLength="155.4541" x="97.6387" y="282.6094">success(VesselTypeDTO)</text></g><rect fill="#EEEEEE" height="3" style="stroke:#EEEEEE;stroke-width:1;" width="574.7393" x="0" y="316.0068"/><line style="stroke:#000000;stroke-width:1;" x1="0" x2="574.7393" y1="316.0068" y2="316.0068"/><line style="stroke:#000000;stroke-width:1;" x1="0" x2="574.7393" y1="319.0068" y2="319.0068"/><rect fill="#EEEEEE" height="23.3105" style="stroke:#000000;stroke-width:2;" width="62.3374" x="256.2009" y="305.3516"/><text fill="#000000" font-family="sans-serif" font-size="13" font-weight="bold" lengthAdjust="spacing" textLength="44.0527" x="262.2009" y="321.9199">Search</text><g class="message" data-participant-1="Officer" data-participant-2="System"><polygon fill="#181818" points="530.6904,355.9727,540.6904,359.9727,530.6904,363.9727,534.6904,359.9727" style="stroke:#181818;stroke-width:1;"/><line style="stroke:#181818;stroke-width:1;" x1="80.6387" x2="536.6904" y1="359.9727" y2="359.9727"/><text fill="#000000" font-family="sans-serif" font-size="13" lengthAdjust="spacing" textLength="244.8228" x="87.6387" y="355.2305">SearchVesselType(name?, description?)</text></g><g class="message" data-participant-1="System" data-participant-2="Officer"><polygon fill="#181818" points="91.6387,385.2832,81.6387,389.2832,91.6387,393.2832,87.6387,389.2832" style="stroke:#181818;stroke-width:1;"/><line style="stroke:#181818;stroke-width:1;stroke-dasharray:2,2;" x1="85.6387" x2="541.6904" y1="389.2832" y2="389.2832"/><text fill="#000000" font-family="sans-serif" font-size="13" lengthAdjust="spacing" textLength="135.2305" x="97.6387" y="384.541">List&lt;VesselTypeDTO)</text></g><!--SRC=[bO_1Qi9G44Ntxok6h1JY3qXJgReiM9he_ldU10UIl30peNqxlyOFyqigISIs8EBkmfqvzrxhD30a7u4LtZez12QDi2bBSiW9MBbgimzTuor7IF8eYdLl3jAOB8CLerM4B3FZ1ynUHn_ca7VxcdGysg48LaLiSTBO6bFmA2w5sdv_XY_fnTB6GHI4B5CpWcONvXK_1-cSkw0cDzwws4pxDjlMFsup7FrgGpw5ah3oSZwUdW_DqR8xt0tjtN_R5yDufbOfD8ixcUya-l8ty0S0]--></g></svg>