<svg xmlns="http://www.w3.org/2000/svg" xmlns:xlink="http://www.w3.org/1999/xlink" contentStyleType="text/css" data-diagram-type="SEQUENCE" height="1191.6px" preserveAspectRatio="none" style="width:993px;height:1191px;background:#FFFFFF;" version="1.1" viewBox="0 0 993 1191" width="993.6px" zoomAndPan="magnify"><title>Sequence Diagram (Full) - Update VVE Berth Time and Dock (US 4.1.8)</title><defs/><g><text fill="#000000" font-family="sans-serif" font-size="8.4" font-weight="bold" lengthAdjust="spacing" textLength="280.5264" x="354.3932" y="18.0645">Sequence Diagram (Full) - Update VVE Berth Time and Dock (US 4.1.8)</text><rect fill="none" height="125.8008" style="stroke:#000000;stroke-width:0.9;" width="738.9448" x="144.8593" y="261.5168"/><rect fill="none" height="548.5008" style="stroke:#000000;stroke-width:0.9;" width="845.0534" x="138.8593" y="583.4637"/><rect fill="none" height="454.4238" style="stroke:#000000;stroke-width:0.9;" width="833.0534" x="144.8593" y="673.3406"/><rect fill="none" height="74.7023" style="stroke:#000000;stroke-width:0.9;" width="243.4163" x="467.8573" y="789.7922"/><g><title>Logistics Operator</title><rect fill="#000000" fill-opacity="0.00000" height="1068.2191" width="4.8" x="36.4819" y="73.9453"/><line style="stroke:#181818;stroke-width:0.3;stroke-dasharray:3,3;" x1="38.4" x2="38.4" y1="73.9453" y2="1142.1645"/></g><g><title>SPA</title><rect fill="#000000" fill-opacity="0.00000" height="1068.2191" width="4.8" x="163.1593" y="73.9453"/><line style="stroke:#181818;stroke-width:0.3;stroke-dasharray:3,3;" x1="165.2593" x2="165.2593" y1="73.9453" y2="1142.1645"/></g><g><title>VVE Routes</title><rect fill="#000000" fill-opacity="0.00000" height="1068.2191" width="4.8" x="266.0062" y="73.9453"/><line style="stroke:#181818;stroke-width:0.3;stroke-dasharray:3,3;" x1="268.3277" x2="268.3277" y1="73.9453" y2="1142.1645"/></g><g><title>VVE Controller</title><rect fill="#000000" fill-opacity="0.00000" height="1068.2191" width="4.8" x="337.1962" y="73.9453"/><line style="stroke:#181818;stroke-width:0.3;stroke-dasharray:3,3;" x1="339.4184" x2="339.4184" y1="73.9453" y2="1142.1645"/></g><g><title>VVE Service</title><rect fill="#000000" fill-opacity="0.00000" height="1068.2191" width="4.8" x="496.8331" y="73.9453"/><line style="stroke:#181818;stroke-width:0.3;stroke-dasharray:3,3;" x1="499.0573" x2="499.0573" y1="73.9453" y2="1142.1645"/></g><g><title>VVE Repo</title><rect fill="#000000" fill-opacity="0.00000" height="1068.2191" width="4.8" x="754.7493" y="73.9453"/><line style="stroke:#181818;stroke-width:0.3;stroke-dasharray:3,3;" x1="756.7377" x2="756.7377" y1="73.9453" y2="1142.1645"/></g><g><title>VVE Mapper</title><rect fill="#000000" fill-opacity="0.00000" height="1068.2191" width="4.8" x="849.7925" y="73.9453"/><line style="stroke:#181818;stroke-width:0.3;stroke-dasharray:3,3;" x1="851.7809" x2="851.7809" y1="73.9453" y2="1142.1645"/></g><g><title>MongoDB .Mongoose.</title><rect fill="#000000" fill-opacity="0.00000" height="1068.2191" width="4.8" x="925.4584" y="73.9453"/><line style="stroke:#181818;stroke-width:0.3;stroke-dasharray:3,3;" x1="927.6041" x2="927.6041" y1="73.9453" y2="1142.1645"/></g><g class="participant participant-head" data-participant="Operator"><text fill="#000000" font-family="sans-serif" font-size="8.4" lengthAdjust="spacing" textLength="68.1639" x="3" y="71.8371">Logistics Operator</text><ellipse cx="38.8819" cy="31.8727" fill="#E3E3E3" rx="4.8" ry="4.8" style="stroke:#181818;stroke-width:0.3;"/><path d="M38.8819,36.6727 L38.8819,52.8727 M31.0819,41.4727 L46.6819,41.4727 M38.8819,52.8727 L31.0819,61.8727 M38.8819,52.8727 L46.6819,61.8727" fill="none" style="stroke:#181818;stroke-width:0.3;"/></g><g class="participant participant-tail" data-participant="Operator"><text fill="#000000" font-family="sans-serif" font-size="8.4" lengthAdjust="spacing" textLength="68.1639" x="3" y="1150.6289">Logistics Operator</text><ellipse cx="38.8819" cy="1157.8371" fill="#E3E3E3" rx="4.8" ry="4.8" style="stroke:#181818;stroke-width:0.3;"/><path d="M38.8819,1162.6371 L38.8819,1178.8371 M31.0819,1167.4371 L46.6819,1167.4371 M38.8819,1178.8371 L31.0819,1187.8371 M38.8819,1178.8371 L46.6819,1187.8371" fill="none" style="stroke:#181818;stroke-width:0.3;"/></g><g class="participant participant-head" data-participant="SPA"><text fill="#000000" font-family="sans-serif" font-size="8.4" lengthAdjust="spacing" textLength="16.8082" x="155.3552" y="71.8371">SPA</text><path d="M153.2593,45.9727 L153.2593,60.3727 M153.2593,53.1727 L163.4593,53.1727" fill="none" style="stroke:#181818;stroke-width:0.3;"/><ellipse cx="170.6593" cy="53.1727" fill="#E3E3E3" rx="7.2" ry="7.2" style="stroke:#181818;stroke-width:0.3;"/></g><g class="participant participant-tail" data-participant="SPA"><text fill="#000000" font-family="sans-serif" font-size="8.4" lengthAdjust="spacing" textLength="16.8082" x="155.3552" y="1150.6289">SPA</text><path d="M153.2593,1155.1371 L153.2593,1169.5371 M153.2593,1162.3371 L163.4593,1162.3371" fill="none" style="stroke:#181818;stroke-width:0.3;"/><ellipse cx="170.6593" cy="1162.3371" fill="#E3E3E3" rx="7.2" ry="7.2" style="stroke:#181818;stroke-width:0.3;"/></g><g class="participant participant-head" data-participant="Routes"><text fill="#000000" font-family="sans-serif" font-size="8.4" lengthAdjust="spacing" textLength="45.757" x="243.7277" y="71.8371">VVE Routes</text><path d="M256.1063,45.9727 L256.1063,60.3727 M256.1063,53.1727 L266.3063,53.1727" fill="none" style="stroke:#181818;stroke-width:0.3;"/><ellipse cx="273.5062" cy="53.1727" fill="#E3E3E3" rx="7.2" ry="7.2" style="stroke:#181818;stroke-width:0.3;"/></g><g class="participant participant-tail" data-participant="Routes"><text fill="#000000" font-family="sans-serif" font-size="8.4" lengthAdjust="spacing" textLength="45.757" x="243.7277" y="1150.6289">VVE Routes</text><path d="M256.1063,1155.1371 L256.1063,1169.5371 M256.1063,1162.3371 L266.3063,1162.3371" fill="none" style="stroke:#181818;stroke-width:0.3;"/><ellipse cx="273.5062" cy="1162.3371" fill="#E3E3E3" rx="7.2" ry="7.2" style="stroke:#181818;stroke-width:0.3;"/></g><g class="participant participant-head" data-participant="Ctrl"><text fill="#000000" font-family="sans-serif" font-size="8.4" lengthAdjust="spacing" textLength="55.5557" x="310.0184" y="71.8371">VVE Controller</text><ellipse cx="339.5962" cy="53.1727" fill="#E3E3E3" rx="7.2" ry="7.2" style="stroke:#181818;stroke-width:0.3;"/><polygon fill="#181818" points="337.1962,45.9727,340.7962,42.9727,339.5962,45.9727,340.7962,48.9727,337.1962,45.9727" style="stroke:#181818;stroke-width:0.6;"/></g><g class="participant participant-tail" data-participant="Ctrl"><text fill="#000000" font-family="sans-serif" font-size="8.4" lengthAdjust="spacing" textLength="55.5557" x="310.0184" y="1150.6289">VVE Controller</text><ellipse cx="339.5962" cy="1162.3371" fill="#E3E3E3" rx="7.2" ry="7.2" style="stroke:#181818;stroke-width:0.3;"/><polygon fill="#181818" points="337.1962,1155.1371,340.7962,1152.1371,339.5962,1155.1371,340.7962,1158.1371,337.1962,1155.1371" style="stroke:#181818;stroke-width:0.6;"/></g><g class="participant participant-head" data-participant="Svc"><text fill="#000000" font-family="sans-serif" font-size="8.4" lengthAdjust="spacing" textLength="47.1516" x="473.8573" y="71.8371">VVE Service</text><ellipse cx="499.2331" cy="53.1727" fill="#E3E3E3" rx="7.2" ry="7.2" style="stroke:#181818;stroke-width:0.3;"/><polygon fill="#181818" points="496.8331,45.9727,500.4331,42.9727,499.2331,45.9727,500.4331,48.9727,496.8331,45.9727" style="stroke:#181818;stroke-width:0.6;"/></g><g class="participant participant-tail" data-participant="Svc"><text fill="#000000" font-family="sans-serif" font-size="8.4" lengthAdjust="spacing" textLength="47.1516" x="473.8573" y="1150.6289">VVE Service</text><ellipse cx="499.2331" cy="1162.3371" fill="#E3E3E3" rx="7.2" ry="7.2" style="stroke:#181818;stroke-width:0.3;"/><polygon fill="#181818" points="496.8331,1155.1371,500.4331,1152.1371,499.2331,1155.1371,500.4331,1158.1371,496.8331,1155.1371" style="stroke:#181818;stroke-width:0.6;"/></g><g class="participant participant-head" data-participant="Repo"><text fill="#000000" font-family="sans-serif" font-size="8.4" lengthAdjust="spacing" textLength="39.2232" x="735.7377" y="71.8371">VVE Repo</text><ellipse cx="757.1493" cy="53.1727" fill="#E3E3E3" rx="7.2" ry="7.2" style="stroke:#181818;stroke-width:0.3;"/><line style="stroke:#181818;stroke-width:0.3;" x1="749.9493" x2="764.3493" y1="61.5727" y2="61.5727"/></g><g class="participant participant-tail" data-participant="Repo"><text fill="#000000" font-family="sans-serif" font-size="8.4" lengthAdjust="spacing" textLength="39.2232" x="735.7377" y="1150.6289">VVE Repo</text><ellipse cx="757.1493" cy="1162.3371" fill="#E3E3E3" rx="7.2" ry="7.2" style="stroke:#181818;stroke-width:0.3;"/><line style="stroke:#181818;stroke-width:0.3;" x1="749.9493" x2="764.3493" y1="1170.7371" y2="1170.7371"/></g><g class="participant participant-head" data-participant="Map"><text fill="#000000" font-family="sans-serif" font-size="8.4" lengthAdjust="spacing" textLength="47.6232" x="826.5809" y="71.8371">VVE Mapper</text><ellipse cx="852.1925" cy="53.1727" fill="#E3E3E3" rx="7.2" ry="7.2" style="stroke:#181818;stroke-width:0.3;"/><line style="stroke:#181818;stroke-width:0.3;" x1="844.9925" x2="859.3925" y1="61.5727" y2="61.5727"/></g><g class="participant participant-tail" data-participant="Map"><text fill="#000000" font-family="sans-serif" font-size="8.4" lengthAdjust="spacing" textLength="47.6232" x="826.5809" y="1150.6289">VVE Mapper</text><ellipse cx="852.1925" cy="1162.3371" fill="#E3E3E3" rx="7.2" ry="7.2" style="stroke:#181818;stroke-width:0.3;"/><line style="stroke:#181818;stroke-width:0.3;" x1="844.9925" x2="859.3925" y1="1170.7371" y2="1170.7371"/></g><g class="participant participant-head" data-participant="DB"><text fill="#000000" font-family="sans-serif" font-size="8.4" lengthAdjust="spacing" textLength="84.5086" x="883.8041" y="71.8371">MongoDB (Mongoose)</text><path d="M917.0584,41.1727 C917.0584,35.1727 927.8584,35.1727 927.8584,35.1727 C927.8584,35.1727 938.6584,35.1727 938.6584,41.1727 L938.6584,56.7727 C938.6584,62.7727 927.8584,62.7727 927.8584,62.7727 C927.8584,62.7727 917.0584,62.7727 917.0584,56.7727 L917.0584,41.1727" fill="#E3E3E3" style="stroke:#181818;stroke-width:0.3;"/><path d="M917.0584,41.1727 C917.0584,47.1727 927.8584,47.1727 927.8584,47.1727 C927.8584,47.1727 938.6584,47.1727 938.6584,41.1727" fill="none" style="stroke:#181818;stroke-width:0.3;"/></g><g class="participant participant-tail" data-participant="DB"><text fill="#000000" font-family="sans-serif" font-size="8.4" lengthAdjust="spacing" textLength="84.5086" x="883.8041" y="1150.6289">MongoDB (Mongoose)</text><path d="M917.0584,1158.7371 C917.0584,1152.7371 927.8584,1152.7371 927.8584,1152.7371 C927.8584,1152.7371 938.6584,1152.7371 938.6584,1158.7371 L938.6584,1174.3371 C938.6584,1180.3371 927.8584,1180.3371 927.8584,1180.3371 C927.8584,1180.3371 917.0584,1180.3371 917.0584,1174.3371 L917.0584,1158.7371" fill="#E3E3E3" style="stroke:#181818;stroke-width:0.3;"/><path d="M917.0584,1158.7371 C917.0584,1164.7371 927.8584,1164.7371 927.8584,1164.7371 C927.8584,1164.7371 938.6584,1164.7371 938.6584,1158.7371" fill="none" style="stroke:#181818;stroke-width:0.3;"/></g><rect fill="#EEEEEE" height="1.8" style="stroke:#EEEEEE;stroke-width:0.6;" width="989.9127" x="0" y="92.9326"/><line style="stroke:#000000;stroke-width:0.6;" x1="0" x2="989.9127" y1="92.9326" y2="92.9326"/><line style="stroke:#000000;stroke-width:0.6;" x1="0" x2="989.9127" y1="94.7326" y2="94.7326"/><rect fill="#EEEEEE" height="15.1746" style="stroke:#000000;stroke-width:1.2;" width="124.9696" x="432.4715" y="85.9453"/><text fill="#000000" font-family="sans-serif" font-size="7.8" font-weight="bold" lengthAdjust="spacing" textLength="114.4025" x="436.0715" y="96.7623">Get VVE (optional for UI prefill)</text><g class="message" data-participant-1="Operator" data-participant-2="SPA"><polygon fill="#181818" points="158.3593,118.6945,164.3593,121.0945,158.3593,123.4945,160.7593,121.0945" style="stroke:#181818;stroke-width:0.6;"/><line style="stroke:#181818;stroke-width:0.6;" x1="38.8819" x2="161.9593" y1="121.0945" y2="121.0945"/><text fill="#000000" font-family="sans-serif" font-size="7.8" lengthAdjust="spacing" textLength="87.1482" x="43.0819" y="117.9369">Open VVE details screen</text></g><g class="message" data-participant-1="SPA" data-participant-2="Routes"><polygon fill="#181818" points="261.2063,137.4691,267.2063,139.8691,261.2063,142.2691,263.6063,139.8691" style="stroke:#181818;stroke-width:0.6;"/><line style="stroke:#181818;stroke-width:0.6;" x1="165.5593" x2="264.8063" y1="139.8691" y2="139.8691"/><text fill="#000000" font-family="sans-serif" font-size="7.8" lengthAdjust="spacing" textLength="58.5267" x="169.7593" y="136.7115">GET /vve/{vveId}</text></g><g class="message" data-participant-1="Routes" data-participant-2="Ctrl"><polygon fill="#181818" points="332.3962,156.2438,338.3962,158.6437,332.3962,161.0438,334.7962,158.6437" style="stroke:#181818;stroke-width:0.6;"/><line style="stroke:#181818;stroke-width:0.6;" x1="268.4063" x2="335.9962" y1="158.6437" y2="158.6437"/><text fill="#000000" font-family="sans-serif" font-size="7.8" lengthAdjust="spacing" textLength="56.7899" x="272.6063" y="155.4861">execute(req,res)</text></g><g class="message" data-participant-1="Ctrl" data-participant-2="Svc"><polygon fill="#181818" points="492.0331,175.0184,498.0331,177.4184,492.0331,179.8184,494.4331,177.4184" style="stroke:#181818;stroke-width:0.6;"/><line style="stroke:#181818;stroke-width:0.6;" x1="339.5962" x2="495.6331" y1="177.4184" y2="177.4184"/><text fill="#000000" font-family="sans-serif" font-size="7.8" lengthAdjust="spacing" textLength="71.5292" x="343.7962" y="174.2607">getByIdAsync(vveId)</text></g><g class="message" data-participant-1="Svc" data-participant-2="Repo"><polygon fill="#181818" points="749.9493,193.793,755.9493,196.193,749.9493,198.593,752.3493,196.193" style="stroke:#181818;stroke-width:0.6;"/><line style="stroke:#181818;stroke-width:0.6;" x1="499.2331" x2="753.5493" y1="196.193" y2="196.193"/><text fill="#000000" font-family="sans-serif" font-size="7.8" lengthAdjust="spacing" textLength="52.0216" x="503.4331" y="193.0354">findById(vveId)</text></g><g class="message" data-participant-1="Repo" data-participant-2="DB"><polygon fill="#181818" points="920.6584,212.5676,926.6584,214.9676,920.6584,217.3676,923.0584,214.9676" style="stroke:#181818;stroke-width:0.6;"/><line style="stroke:#181818;stroke-width:0.6;" x1="757.1493" x2="924.2584" y1="214.9676" y2="214.9676"/><text fill="#000000" font-family="sans-serif" font-size="7.8" lengthAdjust="spacing" textLength="68.9432" x="761.3493" y="211.81">findOne({_id:vveId})</text></g><g class="message" data-participant-1="DB" data-participant-2="Repo"><polygon fill="#181818" points="763.7493,231.3422,757.7493,233.7422,763.7493,236.1422,761.3493,233.7422" style="stroke:#181818;stroke-width:0.6;"/><line style="stroke:#181818;stroke-width:0.6;stroke-dasharray:1.2,1.2;" x1="760.1493" x2="927.2584" y1="233.7422" y2="233.7422"/><text fill="#000000" font-family="sans-serif" font-size="7.8" lengthAdjust="spacing" textLength="26.8849" x="767.3493" y="230.5846">doc/null</text></g><g class="message" data-participant-1="Repo" data-participant-2="Svc"><polygon fill="#181818" points="505.8331,250.1168,499.8331,252.5168,505.8331,254.9168,503.4331,252.5168" style="stroke:#181818;stroke-width:0.6;"/><line style="stroke:#181818;stroke-width:0.6;stroke-dasharray:1.2,1.2;" x1="502.2331" x2="756.5493" y1="252.5168" y2="252.5168"/><text fill="#000000" font-family="sans-serif" font-size="7.8" lengthAdjust="spacing" textLength="34.2545" x="509.4331" y="249.3592">VVE?/null</text></g><path d="M144.8593,261.5168 L180.9618,261.5168 L180.9618,267.0914 L174.9618,273.0914 L144.8593,273.0914 L144.8593,261.5168" fill="#EEEEEE" style="stroke:#000000;stroke-width:0.9;"/><rect fill="none" height="125.8008" style="stroke:#000000;stroke-width:0.9;" width="738.9448" x="144.8593" y="261.5168"/><text fill="#000000" font-family="sans-serif" font-size="7.8" font-weight="bold" lengthAdjust="spacing" textLength="9.1025" x="153.8593" y="270.5338">alt</text><text fill="#000000" font-family="sans-serif" font-size="6.6" font-weight="bold" lengthAdjust="spacing" textLength="49.8545" x="189.9618" y="269.8389">[VVE not found]</text><g class="message" data-participant-1="Svc" data-participant-2="Ctrl"><polygon fill="#181818" points="346.1962,284.666,340.1962,287.066,346.1962,289.466,343.7962,287.066" style="stroke:#181818;stroke-width:0.6;"/><line style="stroke:#181818;stroke-width:0.6;stroke-dasharray:1.2,1.2;" x1="342.5962" x2="498.6331" y1="287.066" y2="287.066"/><text fill="#000000" font-family="sans-serif" font-size="7.8" lengthAdjust="spacing" textLength="138.7318" x="349.7962" y="283.9084">BusinessRuleValidationError(NotFound)</text></g><g class="message" data-participant-1="Ctrl" data-participant-2="SPA"><polygon fill="#181818" points="172.1593,303.4406,166.1593,305.8406,172.1593,308.2406,169.7593,305.8406" style="stroke:#181818;stroke-width:0.6;"/><line style="stroke:#181818;stroke-width:0.6;stroke-dasharray:1.2,1.2;" x1="168.5593" x2="338.9962" y1="305.8406" y2="305.8406"/><text fill="#000000" font-family="sans-serif" font-size="7.8" lengthAdjust="spacing" textLength="51.6026" x="175.7593" y="302.683">404 Not Found</text></g><line style="stroke:#000000;stroke-width:0.6;stroke-dasharray:1.2,1.2;" x1="144.8593" x2="883.8041" y1="311.2406" y2="311.2406"/><text fill="#000000" font-family="sans-serif" font-size="6.6" font-weight="bold" lengthAdjust="spacing" textLength="22.7197" x="147.8593" y="318.3627">[found]</text><g class="message" data-participant-1="Svc" data-participant-2="Map"><polygon fill="#181818" points="844.9925,332.1937,850.9925,334.5938,844.9925,336.9938,847.3925,334.5938" style="stroke:#181818;stroke-width:0.6;"/><line style="stroke:#181818;stroke-width:0.6;" x1="499.2331" x2="848.5925" y1="334.5938" y2="334.5938"/><text fill="#000000" font-family="sans-serif" font-size="7.8" lengthAdjust="spacing" textLength="43.7722" x="503.4331" y="331.4361">toDTO(VVE)</text></g><g class="message" data-participant-1="Svc" data-participant-2="Ctrl"><polygon fill="#181818" points="346.1962,350.9684,340.1962,353.3684,346.1962,355.7684,343.7962,353.3684" style="stroke:#181818;stroke-width:0.6;"/><line style="stroke:#181818;stroke-width:0.6;stroke-dasharray:1.2,1.2;" x1="342.5962" x2="498.6331" y1="353.3684" y2="353.3684"/><text fill="#000000" font-family="sans-serif" font-size="7.8" lengthAdjust="spacing" textLength="48.552" x="349.7962" y="350.2107">Result.ok(dto)</text></g><g class="message" data-participant-1="Ctrl" data-participant-2="SPA"><polygon fill="#181818" points="172.1593,380.1176,166.1593,382.5176,172.1593,384.9176,169.7593,382.5176" style="stroke:#181818;stroke-width:0.6;"/><line style="stroke:#181818;stroke-width:0.6;stroke-dasharray:1.2,1.2;" x1="168.5593" x2="338.9962" y1="382.5176" y2="382.5176"/><text fill="#000000" font-family="sans-serif" font-size="7.8" lengthAdjust="spacing" textLength="26.4507" x="175.7593" y="368.9854">200 OK</text><text fill="#000000" font-family="sans-serif" font-size="7.8" lengthAdjust="spacing" textLength="32.0722" x="175.7593" y="379.36">VVEDTO</text></g><rect fill="#EEEEEE" height="1.8" style="stroke:#EEEEEE;stroke-width:0.6;" width="989.9127" x="0" y="404.5049"/><line style="stroke:#000000;stroke-width:0.6;" x1="0" x2="989.9127" y1="404.5049" y2="404.5049"/><line style="stroke:#000000;stroke-width:0.6;" x1="0" x2="989.9127" y1="406.3049" y2="406.3049"/><rect fill="#EEEEEE" height="15.1746" style="stroke:#000000;stroke-width:1.2;" width="117.1849" x="436.3639" y="397.5176"/><text fill="#000000" font-family="sans-serif" font-size="7.8" font-weight="bold" lengthAdjust="spacing" textLength="106.6178" x="439.9639" y="408.3346">Update Berth Time and Dock</text><g class="message" data-participant-1="Operator" data-participant-2="SPA"><polygon fill="#181818" points="158.3593,430.2668,164.3593,432.6668,158.3593,435.0668,160.7593,432.6668" style="stroke:#181818;stroke-width:0.6;"/><line style="stroke:#181818;stroke-width:0.6;" x1="38.8819" x2="161.9593" y1="432.6668" y2="432.6668"/><text fill="#000000" font-family="sans-serif" font-size="7.8" lengthAdjust="spacing" textLength="112.2773" x="43.0819" y="429.5092">Fill berthTime + dockId + Submit</text></g><g class="message" data-participant-1="SPA" data-participant-2="Routes"><polygon fill="#181818" points="261.2063,459.416,267.2063,461.816,261.2063,464.216,263.6063,461.816" style="stroke:#181818;stroke-width:0.6;"/><line style="stroke:#181818;stroke-width:0.6;" x1="165.5593" x2="264.8063" y1="461.816" y2="461.816"/><text fill="#000000" font-family="sans-serif" font-size="7.8" lengthAdjust="spacing" textLength="88.447" x="169.7593" y="448.2838">PUT /vve/{vveId}/berthing</text><text fill="#000000" font-family="sans-serif" font-size="7.8" lengthAdjust="spacing" textLength="80.1976" x="169.7593" y="458.6584">(Update Berthing DTO)</text></g><g class="message" data-participant-1="Routes" data-participant-2="Ctrl"><polygon fill="#181818" points="332.3962,478.1906,338.3962,480.5906,332.3962,482.9906,334.7962,480.5906" style="stroke:#181818;stroke-width:0.6;"/><line style="stroke:#181818;stroke-width:0.6;" x1="268.4063" x2="335.9962" y1="480.5906" y2="480.5906"/><text fill="#000000" font-family="sans-serif" font-size="7.8" lengthAdjust="spacing" textLength="56.7899" x="272.6063" y="477.433">execute(req,res)</text></g><g class="message" data-participant-1="Ctrl" data-participant-2="Svc"><polygon fill="#181818" points="492.0331,496.9652,498.0331,499.3652,492.0331,501.7652,494.4331,499.3652" style="stroke:#181818;stroke-width:0.6;"/><line style="stroke:#181818;stroke-width:0.6;" x1="339.5962" x2="495.6331" y1="499.3652" y2="499.3652"/><text fill="#000000" font-family="sans-serif" font-size="7.8" lengthAdjust="spacing" textLength="113.1647" x="343.7962" y="496.2076">updateBerthingAsync(vveId, dto)</text></g><g class="message" data-participant-1="Svc" data-participant-2="Repo"><polygon fill="#181818" points="749.9493,515.7398,755.9493,518.1398,749.9493,520.5398,752.3493,518.1398" style="stroke:#181818;stroke-width:0.6;"/><line style="stroke:#181818;stroke-width:0.6;" x1="499.2331" x2="753.5493" y1="518.1398" y2="518.1398"/><text fill="#000000" font-family="sans-serif" font-size="7.8" lengthAdjust="spacing" textLength="52.0216" x="503.4331" y="514.9822">findById(vveId)</text></g><g class="message" data-participant-1="Repo" data-participant-2="DB"><polygon fill="#181818" points="920.6584,534.5145,926.6584,536.9145,920.6584,539.3145,923.0584,536.9145" style="stroke:#181818;stroke-width:0.6;"/><line style="stroke:#181818;stroke-width:0.6;" x1="757.1493" x2="924.2584" y1="536.9145" y2="536.9145"/><text fill="#000000" font-family="sans-serif" font-size="7.8" lengthAdjust="spacing" textLength="68.9432" x="761.3493" y="533.7568">findOne({_id:vveId})</text></g><g class="message" data-participant-1="DB" data-participant-2="Repo"><polygon fill="#181818" points="763.7493,553.2891,757.7493,555.6891,763.7493,558.0891,761.3493,555.6891" style="stroke:#181818;stroke-width:0.6;"/><line style="stroke:#181818;stroke-width:0.6;stroke-dasharray:1.2,1.2;" x1="760.1493" x2="927.2584" y1="555.6891" y2="555.6891"/><text fill="#000000" font-family="sans-serif" font-size="7.8" lengthAdjust="spacing" textLength="26.8849" x="767.3493" y="552.5314">doc/null</text></g><g class="message" data-participant-1="Repo" data-participant-2="Svc"><polygon fill="#181818" points="505.8331,572.0637,499.8331,574.4637,505.8331,576.8637,503.4331,574.4637" style="stroke:#181818;stroke-width:0.6;"/><line style="stroke:#181818;stroke-width:0.6;stroke-dasharray:1.2,1.2;" x1="502.2331" x2="756.5493" y1="574.4637" y2="574.4637"/><text fill="#000000" font-family="sans-serif" font-size="7.8" lengthAdjust="spacing" textLength="34.2545" x="509.4331" y="571.3061">VVE?/null</text></g><path d="M138.8593,583.4637 L174.9618,583.4637 L174.9618,589.0383 L168.9618,595.0383 L138.8593,595.0383 L138.8593,583.4637" fill="#EEEEEE" style="stroke:#000000;stroke-width:0.9;"/><rect fill="none" height="548.5008" style="stroke:#000000;stroke-width:0.9;" width="845.0534" x="138.8593" y="583.4637"/><text fill="#000000" font-family="sans-serif" font-size="7.8" font-weight="bold" lengthAdjust="spacing" textLength="9.1025" x="147.8593" y="592.4807">alt</text><text fill="#000000" font-family="sans-serif" font-size="6.6" font-weight="bold" lengthAdjust="spacing" textLength="49.8545" x="183.9618" y="591.7857">[VVE not found]</text><g class="message" data-participant-1="Svc" data-participant-2="Ctrl"><polygon fill="#181818" points="346.1962,606.6129,340.1962,609.0129,346.1962,611.4129,343.7962,609.0129" style="stroke:#181818;stroke-width:0.6;"/><line style="stroke:#181818;stroke-width:0.6;stroke-dasharray:1.2,1.2;" x1="342.5962" x2="498.6331" y1="609.0129" y2="609.0129"/><text fill="#000000" font-family="sans-serif" font-size="7.8" lengthAdjust="spacing" textLength="138.7318" x="349.7962" y="605.8553">BusinessRuleValidationError(NotFound)</text></g><g class="message" data-participant-1="Ctrl" data-participant-2="SPA"><polygon fill="#181818" points="172.1593,625.3875,166.1593,627.7875,172.1593,630.1875,169.7593,627.7875" style="stroke:#181818;stroke-width:0.6;"/><line style="stroke:#181818;stroke-width:0.6;stroke-dasharray:1.2,1.2;" x1="168.5593" x2="338.9962" y1="627.7875" y2="627.7875"/><text fill="#000000" font-family="sans-serif" font-size="7.8" lengthAdjust="spacing" textLength="51.6026" x="175.7593" y="624.6299">404 Not Found</text></g><line style="stroke:#000000;stroke-width:0.6;stroke-dasharray:1.2,1.2;" x1="138.8593" x2="983.9127" y1="633.1875" y2="633.1875"/><text fill="#000000" font-family="sans-serif" font-size="6.6" font-weight="bold" lengthAdjust="spacing" textLength="22.7197" x="141.8593" y="640.3096">[found]</text><g class="message" data-participant-1="Svc" data-participant-2="Svc"><line style="stroke:#181818;stroke-width:0.6;" x1="499.2331" x2="524.4331" y1="656.5406" y2="656.5406"/><line style="stroke:#181818;stroke-width:0.6;" x1="524.4331" x2="524.4331" y1="656.5406" y2="664.3406"/><line style="stroke:#181818;stroke-width:0.6;" x1="499.8331" x2="524.4331" y1="664.3406" y2="664.3406"/><polygon fill="#181818" points="505.8331,661.9406,499.8331,664.3406,505.8331,666.7406,503.4331,664.3406" style="stroke:#181818;stroke-width:0.6;"/><text fill="#000000" font-family="sans-serif" font-size="7.8" lengthAdjust="spacing" textLength="120.5268" x="503.4331" y="653.383">validate(dto.berthTime, dto.dockId)</text></g><path d="M144.8593,673.3406 L180.9618,673.3406 L180.9618,678.9152 L174.9618,684.9152 L144.8593,684.9152 L144.8593,673.3406" fill="#EEEEEE" style="stroke:#000000;stroke-width:0.9;"/><rect fill="none" height="454.4238" style="stroke:#000000;stroke-width:0.9;" width="833.0534" x="144.8593" y="673.3406"/><text fill="#000000" font-family="sans-serif" font-size="7.8" font-weight="bold" lengthAdjust="spacing" textLength="9.1025" x="153.8593" y="682.3576">alt</text><text fill="#000000" font-family="sans-serif" font-size="6.6" font-weight="bold" lengthAdjust="spacing" textLength="91.1657" x="189.9618" y="681.6627">[VVE status != "In Progress"]</text><g class="message" data-participant-1="Svc" data-participant-2="Ctrl"><polygon fill="#181818" points="346.1962,696.4898,340.1962,698.8898,346.1962,701.2898,343.7962,698.8898" style="stroke:#181818;stroke-width:0.6;"/><line style="stroke:#181818;stroke-width:0.6;stroke-dasharray:1.2,1.2;" x1="342.5962" x2="498.6331" y1="698.8898" y2="698.8898"/><text fill="#000000" font-family="sans-serif" font-size="7.8" lengthAdjust="spacing" textLength="145.2369" x="349.7962" y="695.7322">BusinessRuleValidationError(InvalidState)</text></g><g class="message" data-participant-1="Ctrl" data-participant-2="SPA"><polygon fill="#181818" points="172.1593,715.2645,166.1593,717.6645,172.1593,720.0645,169.7593,717.6645" style="stroke:#181818;stroke-width:0.6;"/><line style="stroke:#181818;stroke-width:0.6;stroke-dasharray:1.2,1.2;" x1="168.5593" x2="338.9962" y1="717.6645" y2="717.6645"/><text fill="#000000" font-family="sans-serif" font-size="7.8" lengthAdjust="spacing" textLength="60.2786" x="175.7593" y="714.5068">400 Bad Request</text></g><line style="stroke:#000000;stroke-width:0.6;stroke-dasharray:1.2,1.2;" x1="144.8593" x2="977.9127" y1="723.0645" y2="723.0645"/><text fill="#000000" font-family="sans-serif" font-size="6.6" font-weight="bold" lengthAdjust="spacing" textLength="75.5777" x="147.8593" y="730.1865">[status is "In Progress"]</text><g class="message" data-participant-1="Svc" data-participant-2="Svc"><line style="stroke:#181818;stroke-width:0.6;" x1="499.2331" x2="524.4331" y1="746.4176" y2="746.4176"/><line style="stroke:#181818;stroke-width:0.6;" x1="524.4331" x2="524.4331" y1="746.4176" y2="754.2176"/><line style="stroke:#181818;stroke-width:0.6;" x1="499.8331" x2="524.4331" y1="754.2176" y2="754.2176"/><polygon fill="#181818" points="505.8331,751.8176,499.8331,754.2176,505.8331,756.6176,503.4331,754.2176" style="stroke:#181818;stroke-width:0.6;"/><text fill="#000000" font-family="sans-serif" font-size="7.8" lengthAdjust="spacing" textLength="249.5162" x="503.4331" y="743.26">plannedDockId = vve.plannedDockId (from linked Operation Plan / VVN)</text></g><g class="message" data-participant-1="Svc" data-participant-2="Svc"><line style="stroke:#181818;stroke-width:0.6;" x1="499.2331" x2="524.4331" y1="772.9922" y2="772.9922"/><line style="stroke:#181818;stroke-width:0.6;" x1="524.4331" x2="524.4331" y1="772.9922" y2="780.7922"/><line style="stroke:#181818;stroke-width:0.6;" x1="499.8331" x2="524.4331" y1="780.7922" y2="780.7922"/><polygon fill="#181818" points="505.8331,778.3922,499.8331,780.7922,505.8331,783.1922,503.4331,780.7922" style="stroke:#181818;stroke-width:0.6;"/><text fill="#000000" font-family="sans-serif" font-size="7.8" lengthAdjust="spacing" textLength="89.9704" x="503.4331" y="769.8346">actualDockId = dto.dockId</text></g><path d="M467.8573,789.7922 L503.9599,789.7922 L503.9599,795.3668 L497.9599,801.3668 L467.8573,801.3668 L467.8573,789.7922" fill="#EEEEEE" style="stroke:#000000;stroke-width:0.9;"/><rect fill="none" height="74.7023" style="stroke:#000000;stroke-width:0.9;" width="243.4163" x="467.8573" y="789.7922"/><text fill="#000000" font-family="sans-serif" font-size="7.8" font-weight="bold" lengthAdjust="spacing" textLength="9.1025" x="476.8573" y="798.8092">alt</text><text fill="#000000" font-family="sans-serif" font-size="6.6" font-weight="bold" lengthAdjust="spacing" textLength="102.4998" x="512.9599" y="798.1143">[actualDockId != plannedDockId]</text><g class="message" data-participant-1="Svc" data-participant-2="Svc"><line style="stroke:#181818;stroke-width:0.6;" x1="499.2331" x2="524.4331" y1="815.3414" y2="815.3414"/><line style="stroke:#181818;stroke-width:0.6;" x1="524.4331" x2="524.4331" y1="815.3414" y2="823.1414"/><line style="stroke:#181818;stroke-width:0.6;" x1="499.8331" x2="524.4331" y1="823.1414" y2="823.1414"/><polygon fill="#181818" points="505.8331,820.7414,499.8331,823.1414,505.8331,825.5414,503.4331,823.1414" style="stroke:#181818;stroke-width:0.6;"/><text fill="#000000" font-family="sans-serif" font-size="7.8" lengthAdjust="spacing" textLength="200.6405" x="503.4331" y="812.1838">vve.addAutoNote("Actual dock differs from planned dock")</text></g><line style="stroke:#000000;stroke-width:0.6;stroke-dasharray:1.2,1.2;" x1="467.8573" x2="711.2736" y1="828.5414" y2="828.5414"/><text fill="#000000" font-family="sans-serif" font-size="6.6" font-weight="bold" lengthAdjust="spacing" textLength="75.5487" x="470.8573" y="835.6635">[matches planned dock]</text><g class="message" data-participant-1="Svc" data-participant-2="Svc"><line style="stroke:#181818;stroke-width:0.6;" x1="499.2331" x2="524.4331" y1="851.8945" y2="851.8945"/><line style="stroke:#181818;stroke-width:0.6;" x1="524.4331" x2="524.4331" y1="851.8945" y2="859.6945"/><line style="stroke:#181818;stroke-width:0.6;" x1="499.8331" x2="524.4331" y1="859.6945" y2="859.6945"/><polygon fill="#181818" points="505.8331,857.2945,499.8331,859.6945,505.8331,862.0945,503.4331,859.6945" style="stroke:#181818;stroke-width:0.6;"/><text fill="#000000" font-family="sans-serif" font-size="7.8" lengthAdjust="spacing" textLength="55.0761" x="503.4331" y="848.7369">(no note added)</text></g><g class="message" data-participant-1="Svc" data-participant-2="Svc"><line style="stroke:#181818;stroke-width:0.6;" x1="499.2331" x2="524.4331" y1="882.6691" y2="882.6691"/><line style="stroke:#181818;stroke-width:0.6;" x1="524.4331" x2="524.4331" y1="882.6691" y2="890.4691"/><line style="stroke:#181818;stroke-width:0.6;" x1="499.8331" x2="524.4331" y1="890.4691" y2="890.4691"/><polygon fill="#181818" points="505.8331,888.0691,499.8331,890.4691,505.8331,892.8691,503.4331,890.4691" style="stroke:#181818;stroke-width:0.6;"/><text fill="#000000" font-family="sans-serif" font-size="7.8" lengthAdjust="spacing" textLength="114.0026" x="503.4331" y="879.5115">vve.setBerthTime(dto.berthTime)</text></g><g class="message" data-participant-1="Svc" data-participant-2="Svc"><line style="stroke:#181818;stroke-width:0.6;" x1="499.2331" x2="524.4331" y1="909.2438" y2="909.2438"/><line style="stroke:#181818;stroke-width:0.6;" x1="524.4331" x2="524.4331" y1="909.2438" y2="917.0437"/><line style="stroke:#181818;stroke-width:0.6;" x1="499.8331" x2="524.4331" y1="917.0437" y2="917.0437"/><polygon fill="#181818" points="505.8331,914.6438,499.8331,917.0437,505.8331,919.4438,503.4331,917.0437" style="stroke:#181818;stroke-width:0.6;"/><text fill="#000000" font-family="sans-serif" font-size="7.8" lengthAdjust="spacing" textLength="105.3457" x="503.4331" y="906.0861">vve.setActualDock(dto.dockId)</text></g><g class="message" data-participant-1="Svc" data-participant-2="Svc"><line style="stroke:#181818;stroke-width:0.6;" x1="499.2331" x2="524.4331" y1="935.8184" y2="935.8184"/><line style="stroke:#181818;stroke-width:0.6;" x1="524.4331" x2="524.4331" y1="935.8184" y2="943.6184"/><line style="stroke:#181818;stroke-width:0.6;" x1="499.8331" x2="524.4331" y1="943.6184" y2="943.6184"/><polygon fill="#181818" points="505.8331,941.2184,499.8331,943.6184,505.8331,946.0184,503.4331,943.6184" style="stroke:#181818;stroke-width:0.6;"/><text fill="#000000" font-family="sans-serif" font-size="7.8" lengthAdjust="spacing" textLength="225.324" x="503.4331" y="932.6607">vve.appendAudit(operatorId, timestamp, "UPDATE_BERTHING")</text></g><g class="message" data-participant-1="Svc" data-participant-2="Repo"><polygon fill="#181818" points="749.9493,959.993,755.9493,962.393,749.9493,964.793,752.3493,962.393" style="stroke:#181818;stroke-width:0.6;"/><line style="stroke:#181818;stroke-width:0.6;" x1="499.2331" x2="753.5493" y1="962.393" y2="962.393"/><text fill="#000000" font-family="sans-serif" font-size="7.8" lengthAdjust="spacing" textLength="33.8089" x="503.4331" y="959.2354">save(vve)</text></g><g class="message" data-participant-1="Repo" data-participant-2="Map"><polygon fill="#181818" points="844.9925,978.7676,850.9925,981.1676,844.9925,983.5676,847.3925,981.1676" style="stroke:#181818;stroke-width:0.6;"/><line style="stroke:#181818;stroke-width:0.6;" x1="757.1493" x2="848.5925" y1="981.1676" y2="981.1676"/><text fill="#000000" font-family="sans-serif" font-size="7.8" lengthAdjust="spacing" textLength="64.5899" x="761.3493" y="978.01">toPersistence(vve)</text></g><g class="message" data-participant-1="Repo" data-participant-2="DB"><polygon fill="#181818" points="920.6584,997.5422,926.6584,999.9422,920.6584,1002.3422,923.0584,999.9422" style="stroke:#181818;stroke-width:0.6;"/><line style="stroke:#181818;stroke-width:0.6;" x1="757.1493" x2="924.2584" y1="999.9422" y2="999.9422"/><text fill="#000000" font-family="sans-serif" font-size="7.8" lengthAdjust="spacing" textLength="124.4458" x="761.3493" y="996.7846">updateOne({_id:vveId}, persistence)</text></g><g class="message" data-participant-1="DB" data-participant-2="Repo"><polygon fill="#181818" points="763.7493,1016.3168,757.7493,1018.7168,763.7493,1021.1168,761.3493,1018.7168" style="stroke:#181818;stroke-width:0.6;"/><line style="stroke:#181818;stroke-width:0.6;stroke-dasharray:1.2,1.2;" x1="760.1493" x2="927.2584" y1="1018.7168" y2="1018.7168"/><text fill="#000000" font-family="sans-serif" font-size="7.8" lengthAdjust="spacing" textLength="42.0659" x="767.3493" y="1015.5592">updatedDoc</text></g><g class="message" data-participant-1="Repo" data-participant-2="Map"><polygon fill="#181818" points="844.9925,1035.0914,850.9925,1037.4914,844.9925,1039.8914,847.3925,1037.4914" style="stroke:#181818;stroke-width:0.6;"/><line style="stroke:#181818;stroke-width:0.6;" x1="757.1493" x2="848.5925" y1="1037.4914" y2="1037.4914"/><text fill="#000000" font-family="sans-serif" font-size="7.8" lengthAdjust="spacing" textLength="80.6432" x="761.3493" y="1034.3338">toDomain(updatedDoc)</text></g><g class="message" data-participant-1="Repo" data-participant-2="Svc"><polygon fill="#181818" points="505.8331,1053.866,499.8331,1056.266,505.8331,1058.666,503.4331,1056.266" style="stroke:#181818;stroke-width:0.6;"/><line style="stroke:#181818;stroke-width:0.6;stroke-dasharray:1.2,1.2;" x1="502.2331" x2="756.5493" y1="1056.266" y2="1056.266"/><text fill="#000000" font-family="sans-serif" font-size="7.8" lengthAdjust="spacing" textLength="15.6076" x="509.4331" y="1053.1084">VVE</text></g><g class="message" data-participant-1="Svc" data-participant-2="Map"><polygon fill="#181818" points="844.9925,1072.6406,850.9925,1075.0406,844.9925,1077.4406,847.3925,1075.0406" style="stroke:#181818;stroke-width:0.6;"/><line style="stroke:#181818;stroke-width:0.6;" x1="499.2331" x2="848.5925" y1="1075.0406" y2="1075.0406"/><text fill="#000000" font-family="sans-serif" font-size="7.8" lengthAdjust="spacing" textLength="43.7722" x="503.4331" y="1071.883">toDTO(VVE)</text></g><g class="message" data-participant-1="Svc" data-participant-2="Ctrl"><polygon fill="#181818" points="346.1962,1091.4152,340.1962,1093.8152,346.1962,1096.2152,343.7962,1093.8152" style="stroke:#181818;stroke-width:0.6;"/><line style="stroke:#181818;stroke-width:0.6;stroke-dasharray:1.2,1.2;" x1="342.5962" x2="498.6331" y1="1093.8152" y2="1093.8152"/><text fill="#000000" font-family="sans-serif" font-size="7.8" lengthAdjust="spacing" textLength="48.552" x="349.7962" y="1090.6576">Result.ok(dto)</text></g><g class="message" data-participant-1="Ctrl" data-participant-2="SPA"><polygon fill="#181818" points="172.1593,1120.5645,166.1593,1122.9645,172.1593,1125.3645,169.7593,1122.9645" style="stroke:#181818;stroke-width:0.6;"/><line style="stroke:#181818;stroke-width:0.6;stroke-dasharray:1.2,1.2;" x1="168.5593" x2="338.9962" y1="1122.9645" y2="1122.9645"/><text fill="#000000" font-family="sans-serif" font-size="7.8" lengthAdjust="spacing" textLength="26.4507" x="175.7593" y="1109.4322">200 OK</text><text fill="#000000" font-family="sans-serif" font-size="7.8" lengthAdjust="spacing" textLength="32.0722" x="175.7593" y="1119.8068">VVEDTO</text></g><!--SRC=[tLPDZnev4BtxLzJs9TtA0BEhEQmYaHKCp0HjCeFuc5EaoDCk68l6xjXkTaTH_dlATWFTm2hATGz0j-jLbT-hSXcxaQhaXczXgvNENupU8ZXJ8RC7YttXGlyZrHfMlB38d7G5mXo_LgXoX97aQmzBxwgYoA03or9mX_3qD8OX6lS22qb1kH8mqla6qkKSRhg_T__C6EEvqmQIZtejhPEvXSSI3QUr1FZnXJthIWbkNY6PJmV1HB-DLPzgfYk7DXZZ8ykrSaONqNmRNmgCeM-TATg0EPgTp356t-KC5V7SnyPInyZqqB9yucLPXwH7HiJvCxS8oIUjrdeqX3GyQ8jP08s6ZFNxS8ykw9FgqacjU04hqc4vWTBWIdeP-tssfm-TzvullFE2gE0dq75PMB2vGLJCMmaKUHFkVho0tcw7lM_qDH7VMMqXZ2TE2FmNSrfA3NwzCcWp5jPzebrEvZMwuUj43EohojCGWuhbJJuBQK2GbLJ2O_Rci4ncuXoDZmhJRr-aU1Vta36oT8x-GkSzHHrJEnvI4xs_ee7n8ggaj2DzgDWC0gXpv36ih5HexQmgy8aNaWf0UewDqIPzqExEUsNa5kaTXBovlW4oGx0pfAvk9tZlgqaufqUBnvJsa9sddg6j2jVLcrGuVI777zVNyFZtPqNU58IwHeJIrwVZqicuMFCxQWTuzkW0Vkk5sqm4FSohvwrqPyMVBjl5xmLdEhwVLTfCxWyqRIpxvUQeGf1zZ4QFN45GWhtfT3hmKNCHgaSl_z_MQVTE85x7Gh3EVxy5cgEL2p8SkYlkTrSZVGDr3oKEAdPZbKbCW3qN7w-oy5iVaec2gT5hAevD2F5Bt2Ogv9txtMN1-OpXDGofU3C_uQqZI21PfvVsGlf0_5PlwS90A0kk58hGgB2pG4E-eWaNNgCA9phK3gFOs7sWgdVRQ-cABYOefDfGt7X6Y0zC2GGz4kSXEuyQqnw27aLb0UjLRK58rrRIW3gj6EsC2p6edAOUm3GPDBW9kLgXiH3ssXGXYRiBAcwvor_ej3NjbpAbIllcfUaW18ewWAht7kGUb6NnMXz6wZ9U2UbWInU3luGk2-stRscqxrkjtNZPVpeC3ZgbpTwyB0zTY8eKejtGxHQdcHyDZZ9G2stBAqYMqz5WCVuo7CyM7oOFzqdMe3Kb2UdFm2c1-kXRlaC_DcBo_U3O3-lQr_yjEGU5wHBbEfalLr0U7QDJU-14BzyN5zEEz9PBbHvHpSJDwTIWEKDN6UK7y2dJ2pVFp- -Udzq-iNdyvmS0]--></g></svg>