<svg xmlns="http://www.w3.org/2000/svg" xmlns:xlink="http://www.w3.org/1999/xlink" contentStyleType="text/css" data-diagram-type="SEQUENCE" height="581px" preserveAspectRatio="none" style="width:818px;height:581px;background:#FFFFFF;" version="1.1" viewBox="0 0 818 581" width="818px" zoomAndPan="magnify"><title>SSD - US 4.1.2: Generate &amp; Store Operation Plans</title><defs/><g><text fill="#000000" font-family="sans-serif" font-size="14" font-weight="bold" lengthAdjust="spacing" textLength="351.9004" x="234.7056" y="28.5352">SSD - US 4.1.2: Generate &amp; Store Operation Plans</text><g><title>System .SPA . OEM.</title><rect fill="#FFFFFF" height="87.9316" style="stroke:#181818;stroke-width:1;" width="10" x="386.4668" y="175.5977"/></g><g><title>System .SPA . OEM.</title><rect fill="#FFFFFF" height="157.1523" style="stroke:#181818;stroke-width:1;" width="10" x="386.4668" y="324.1504"/></g><g><title>Planning Module</title><rect fill="#FFFFFF" height="29.3105" style="stroke:#181818;stroke-width:1;" width="10" x="733.915" y="204.9082"/></g><rect fill="none" height="134.5527" style="stroke:#000000;stroke-width:1.5;" width="792.3115" x="20" y="136.9766"/><rect fill="none" height="195.7734" style="stroke:#000000;stroke-width:1.5;" width="477.0073" x="10" y="285.5293"/><rect fill="none" height="135.1523" style="stroke:#000000;stroke-width:1.5;" width="457.0073" x="20" y="339.1504"/><g><title>Logistics Operator</title><rect fill="#000000" fill-opacity="0.00000" height="378.3262" width="8" x="91.2549" y="119.9766"/><line style="stroke:#181818;stroke-width:0.5;stroke-dasharray:5,5;" x1="95" x2="95" y1="119.9766" y2="498.3027"/></g><g><title>System .SPA . OEM.</title><rect fill="#000000" fill-opacity="0.00000" height="378.3262" width="8" x="387.4668" y="119.9766"/><line style="stroke:#181818;stroke-width:0.5;stroke-dasharray:5,5;" x1="390.9263" x2="390.9263" y1="119.9766" y2="498.3027"/></g><g><title>Planning Module</title><rect fill="#000000" fill-opacity="0.00000" height="378.3262" width="8" x="734.915" y="119.9766"/><line style="stroke:#181818;stroke-width:0.5;stroke-dasharray:5,5;" x1="738.5186" x2="738.5186" y1="119.9766" y2="498.3027"/></g><g class="participant participant-head" data-participant="User"><text fill="#000000" font-family="sans-serif" font-size="14" lengthAdjust="spacing" textLength="124.5098" x="30" y="117.0234">Logistics Operator</text><ellipse cx="95.2549" cy="58.9883" fill="#E2E2F0" rx="16" ry="16" style="stroke:#181818;stroke-width:0.5;"/><path d="M95.2549,78.9883 C99.2549,78.9883 102.2549,78.9883 106.2549,74.9883 C114.2549,74.9883 122.2549,82.9883 122.2549,90.9883 L122.2549,94.9883 C122.2549,98.9883 118.2549,102.9883 114.2549,102.9883 L76.2549,102.9883 C72.2549,102.9883 68.2549,98.9883 68.2549,94.9883 L68.2549,90.9883 C68.2549,82.9883 76.2549,74.9883 84.2549,74.9883 C88.2549,78.9883 91.2549,78.9883 95.2549,78.9883" fill="#E2E2F0" style="stroke:#181818;stroke-width:0.5;"/></g><g class="participant participant-tail" data-participant="User"><text fill="#000000" font-family="sans-serif" font-size="14" lengthAdjust="spacing" textLength="124.5098" x="30" y="510.8379">Logistics Operator</text><ellipse cx="95.2549" cy="530.291" fill="#E2E2F0" rx="16" ry="16" style="stroke:#181818;stroke-width:0.5;"/><path d="M95.2549,550.291 C99.2549,550.291 102.2549,550.291 106.2549,546.291 C114.2549,546.291 122.2549,554.291 122.2549,562.291 L122.2549,566.291 C122.2549,570.291 118.2549,574.291 114.2549,574.291 L76.2549,574.291 C72.2549,574.291 68.2549,570.291 68.2549,566.291 L68.2549,562.291 C68.2549,554.291 76.2549,546.291 84.2549,546.291 C88.2549,550.291 91.2549,550.291 95.2549,550.291" fill="#E2E2F0" style="stroke:#181818;stroke-width:0.5;"/></g><g class="participant participant-head" data-participant="System"><rect fill="#E2E2F0" height="30.4883" rx="2.5" ry="2.5" style="stroke:#181818;stroke-width:0.5;" width="151.0811" x="315.9263" y="88.4883"/><text fill="#000000" font-family="sans-serif" font-size="14" lengthAdjust="spacing" textLength="137.0811" x="322.9263" y="109.0234">System (SPA + OEM)</text></g><g class="participant participant-tail" data-participant="System"><rect fill="#E2E2F0" height="30.4883" rx="2.5" ry="2.5" style="stroke:#181818;stroke-width:0.5;" width="151.0811" x="315.9263" y="497.3027"/><text fill="#000000" font-family="sans-serif" font-size="14" lengthAdjust="spacing" textLength="137.0811" x="322.9263" y="517.8379">System (SPA + OEM)</text></g><g class="participant participant-head" data-participant="Planning"><rect fill="#E2E2F0" height="30.4883" rx="2.5" ry="2.5" style="stroke:#181818;stroke-width:0.5;" width="126.793" x="675.5186" y="88.4883"/><text fill="#000000" font-family="sans-serif" font-size="14" lengthAdjust="spacing" textLength="112.793" x="682.5186" y="109.0234">Planning Module</text></g><g class="participant participant-tail" data-participant="Planning"><rect fill="#E2E2F0" height="30.4883" rx="2.5" ry="2.5" style="stroke:#181818;stroke-width:0.5;" width="126.793" x="675.5186" y="497.3027"/><text fill="#000000" font-family="sans-serif" font-size="14" lengthAdjust="spacing" textLength="112.793" x="682.5186" y="517.8379">Planning Module</text></g><g><title>System .SPA . OEM.</title><rect fill="#FFFFFF" height="87.9316" style="stroke:#181818;stroke-width:1;" width="10" x="386.4668" y="175.5977"/></g><g><title>System .SPA . OEM.</title><rect fill="#FFFFFF" height="157.1523" style="stroke:#181818;stroke-width:1;" width="10" x="386.4668" y="324.1504"/></g><g><title>Planning Module</title><rect fill="#FFFFFF" height="29.3105" style="stroke:#181818;stroke-width:1;" width="10" x="733.915" y="204.9082"/></g><path d="M20,136.9766 L244.7085,136.9766 L244.7085,144.2871 L234.7085,154.2871 L20,154.2871 L20,136.9766" fill="#EEEEEE" style="stroke:#000000;stroke-width:1.5;"/><rect fill="none" height="134.5527" style="stroke:#000000;stroke-width:1.5;" width="792.3115" x="20" y="136.9766"/><text fill="#000000" font-family="sans-serif" font-size="13" font-weight="bold" lengthAdjust="spacing" textLength="179.7085" x="35" y="150.5449">Step 1: Generate &amp; Preview</text><g class="message" data-participant-1="User" data-participant-2="System"><polygon fill="#181818" points="374.4668,171.5977,384.4668,175.5977,374.4668,179.5977,378.4668,175.5977" style="stroke:#181818;stroke-width:1;"/><line style="stroke:#181818;stroke-width:1;" x1="95.2549" x2="380.4668" y1="175.5977" y2="175.5977"/><text fill="#000000" font-family="sans-serif" font-size="13" font-weight="bold" lengthAdjust="spacing" textLength="8.5757" x="102.2549" y="170.8555">1</text><text fill="#000000" font-family="sans-serif" font-size="13" lengthAdjust="spacing" textLength="244.1182" x="114.8306" y="170.8555">initiatePlanGeneration(date, algorithm)</text></g><g class="message" data-participant-1="System" data-participant-2="Planning"><polygon fill="#181818" points="721.915,200.9082,731.915,204.9082,721.915,208.9082,725.915,204.9082" style="stroke:#181818;stroke-width:1;"/><line style="stroke:#181818;stroke-width:1;" x1="396.4668" x2="727.915" y1="204.9082" y2="204.9082"/><text fill="#000000" font-family="sans-serif" font-size="13" font-weight="bold" lengthAdjust="spacing" textLength="8.5757" x="403.4668" y="200.166">2</text><text fill="#000000" font-family="sans-serif" font-size="13" lengthAdjust="spacing" textLength="207.9619" x="416.0425" y="200.166">getBestSchedule(date, algorithm)</text></g><g class="message" data-participant-1="Planning" data-participant-2="System"><polygon fill="#181818" points="407.4668,230.2188,397.4668,234.2188,407.4668,238.2188,403.4668,234.2188" style="stroke:#181818;stroke-width:1;"/><line style="stroke:#181818;stroke-width:1;stroke-dasharray:2,2;" x1="401.4668" x2="737.915" y1="234.2188" y2="234.2188"/><text fill="#000000" font-family="sans-serif" font-size="13" font-weight="bold" lengthAdjust="spacing" textLength="8.5757" x="413.4668" y="229.4766">3</text><text fill="#000000" font-family="sans-serif" font-size="13" lengthAdjust="spacing" textLength="300.8726" x="426.0425" y="229.4766">operationSchedule (resources, times, sequence)</text></g><g class="message" data-participant-1="System" data-participant-2="User"><polygon fill="#181818" points="106.2549,259.5293,96.2549,263.5293,106.2549,267.5293,102.2549,263.5293" style="stroke:#181818;stroke-width:1;"/><line style="stroke:#181818;stroke-width:1;stroke-dasharray:2,2;" x1="100.2549" x2="390.4668" y1="263.5293" y2="263.5293"/><text fill="#000000" font-family="sans-serif" font-size="13" font-weight="bold" lengthAdjust="spacing" textLength="8.5757" x="112.2549" y="258.7871">4</text><text fill="#000000" font-family="sans-serif" font-size="13" lengthAdjust="spacing" textLength="254.6362" x="124.8306" y="258.7871">displayProposedPlan(operationSchedule)</text></g><path d="M10,285.5293 L391.4766,285.5293 L391.4766,292.8398 L381.4766,302.8398 L10,302.8398 L10,285.5293" fill="#EEEEEE" style="stroke:#000000;stroke-width:1.5;"/><rect fill="none" height="195.7734" style="stroke:#000000;stroke-width:1.5;" width="477.0073" x="10" y="285.5293"/><text fill="#000000" font-family="sans-serif" font-size="13" font-weight="bold" lengthAdjust="spacing" textLength="336.4766" x="25" y="299.0977">Step 2: Store Plan (CreateOperationPlanController)</text><g class="message" data-participant-1="User" data-participant-2="System"><polygon fill="#181818" points="374.4668,320.1504,384.4668,324.1504,374.4668,328.1504,378.4668,324.1504" style="stroke:#181818;stroke-width:1;"/><line style="stroke:#181818;stroke-width:1;" x1="95.2549" x2="380.4668" y1="324.1504" y2="324.1504"/><text fill="#000000" font-family="sans-serif" font-size="13" font-weight="bold" lengthAdjust="spacing" textLength="8.5757" x="102.2549" y="319.4082">5</text><text fill="#000000" font-family="sans-serif" font-size="13" lengthAdjust="spacing" textLength="192.8672" x="114.8306" y="319.4082">confirmAndSavePlan(planData)</text></g><path d="M20,339.1504 L82.1387,339.1504 L82.1387,346.4609 L72.1387,356.4609 L20,356.4609 L20,339.1504" fill="#EEEEEE" style="stroke:#000000;stroke-width:1.5;"/><rect fill="none" height="135.1523" style="stroke:#000000;stroke-width:1.5;" width="457.0073" x="20" y="339.1504"/><text fill="#000000" font-family="sans-serif" font-size="13" font-weight="bold" lengthAdjust="spacing" textLength="17.1387" x="35" y="352.7188">alt</text><text fill="#000000" font-family="sans-serif" font-size="11" font-weight="bold" lengthAdjust="spacing" textLength="106.2939" x="97.1387" y="351.7852">[Success (200 OK)]</text><g class="message" data-participant-1="System" data-participant-2="User"><polygon fill="#181818" points="106.2549,373.7715,96.2549,377.7715,106.2549,381.7715,102.2549,377.7715" style="stroke:#181818;stroke-width:1;"/><line style="stroke:#181818;stroke-width:1;stroke-dasharray:2,2;" x1="100.2549" x2="385.4668" y1="377.7715" y2="377.7715"/><text fill="#000000" font-family="sans-serif" font-size="13" font-weight="bold" lengthAdjust="spacing" textLength="8.5757" x="112.2549" y="373.0293">6</text><text fill="#000000" font-family="sans-serif" font-size="13" lengthAdjust="spacing" textLength="210.9771" x="124.8306" y="373.0293">200 OK (Plan Stored Successfully)</text></g><line style="stroke:#000000;stroke-width:1;stroke-dasharray:2,2;" x1="20" x2="477.0073" y1="386.7715" y2="386.7715"/><text fill="#000000" font-family="sans-serif" font-size="11" font-weight="bold" lengthAdjust="spacing" textLength="131.3071" x="25" y="397.4063">[Validation Error (400)]</text><g class="message" data-participant-1="System" data-participant-2="User"><polygon fill="#181818" points="106.2549,418.0371,96.2549,422.0371,106.2549,426.0371,102.2549,422.0371" style="stroke:#181818;stroke-width:1;"/><line style="stroke:#181818;stroke-width:1;stroke-dasharray:2,2;" x1="100.2549" x2="385.4668" y1="422.0371" y2="422.0371"/><text fill="#000000" font-family="sans-serif" font-size="13" font-weight="bold" lengthAdjust="spacing" textLength="8.5757" x="112.2549" y="417.2949">7</text><text fill="#000000" font-family="sans-serif" font-size="13" lengthAdjust="spacing" textLength="208.0635" x="124.8306" y="417.2949">400 Bad Request (Error Message)</text></g><line style="stroke:#000000;stroke-width:1;stroke-dasharray:2,2;" x1="20" x2="477.0073" y1="431.0371" y2="431.0371"/><text fill="#000000" font-family="sans-serif" font-size="11" font-weight="bold" lengthAdjust="spacing" textLength="114.4473" x="25" y="441.6719">[System Error (500)]</text><g class="message" data-participant-1="System" data-participant-2="User"><polygon fill="#181818" points="106.2549,462.3027,96.2549,466.3027,106.2549,470.3027,102.2549,466.3027" style="stroke:#181818;stroke-width:1;"/><line style="stroke:#181818;stroke-width:1;stroke-dasharray:2,2;" x1="100.2549" x2="385.4668" y1="466.3027" y2="466.3027"/><text fill="#000000" font-family="sans-serif" font-size="13" font-weight="bold" lengthAdjust="spacing" textLength="8.5757" x="112.2549" y="461.5605">8</text><text fill="#000000" font-family="sans-serif" font-size="13" lengthAdjust="spacing" textLength="155.0859" x="124.8306" y="461.5605">500 Internal Server Error</text></g><!--SRC=[XLFBRjf05DtxAuwoQ8mQ8XAb6nQLI8Agg4b1Z63HtTHpuqnhpxWpOnBwDr4-eP_0Z_MERI0fL6K1-3xEFVVSO_z3cqewMK9cmJeHLWL1FfAt9IMo3jRKvJToITAaSNHhS-s3pZmc5Jd9iID8Zxdd6iRXZAwa2JWIAn-eH2gc8xp7P7pNQmhRyDlIQI6DqIR7dLLrGKtT9fOaGGUc9CGr-fWBN9oUdPuFyObC74zu1y4agAEZhMbQVP8Sez_lOpeIOe8pRXZFHZECiRWHyz7jpLT-u7oIErjN345LKxH3dJfQQdfCm9-u7VeVE_8OGXiTDDV5KLqFJquLXquWYzmw7HxANjFCmkbbnEnMZx7cwnWJ21rZ4XKfbjsYNFzc2IpugM9iaYMPO64zilLpaN7ADxqT4-Qq5M-8dC8b-I2o1uew_eVELk4OtQBqNwzfDvfk894wTaRjCl8d2BgCFvv-rcGoQk4LxG_OsxQqFZWPzws3BlGlgTXQqOM8ellrYqNgcK7kv58wI6sKxBtPcrasHnb2QSzAhQRELjQJYaFJFTvxtBfRa55lZHATDH_DhjaTwGHNrWHdYu87yOu8BExwcSdt_hOEjxKkZEEHNZdY8Lj7nk0EgdVOKfarzzgL8wE4N3R6IgC3hcMGXtqKWwsqiWWGTSP7yKZF1mDCFhSjXnLhAv0sN1lQQjD-NnV5ghUpA1MUi925LkshDNQEBvLU30Qx0SSOFmsRnIs-hvz1J_7AxJaf_biilfp0rb1yPi-lpfATh5LdvCCKUG0kfS8iUii7fEtWEwOeSxxcZbpNsn7xy9hOFYodSMC2EICB279BZZQTBHwRuTys-GC0]--></g></svg>