<svg xmlns="http://www.w3.org/2000/svg" xmlns:xlink="http://www.w3.org/1999/xlink" contentStyleType="text/css" data-diagram-type="SEQUENCE" height="1847px" preserveAspectRatio="none" style="width:1702px;height:1847px;background:#FFFFFF;" version="1.1" viewBox="0 0 1702 1847" width="1702px" zoomAndPan="magnify"><title>Sequence Diagram (Full) - Missing Plans &amp; Daily Scheduling</title><defs/><g><text fill="#000000" font-family="sans-serif" font-size="14" font-weight="bold" lengthAdjust="spacing" textLength="432.0176" x="631.2754" y="28.5352">Sequence Diagram (Full) - Missing Plans &amp; Daily Scheduling</text><rect fill="none" height="409.9922" style="stroke:#000000;stroke-width:1.5;" width="1454.2114" x="231.3569" y="1339.3984"/><g><title>Logistics Operator</title><rect fill="#000000" fill-opacity="0.00000" height="1647.4141" width="8" x="66.2549" y="118.9766"/><line style="stroke:#181818;stroke-width:0.5;stroke-dasharray:5,5;" x1="70" x2="70" y1="118.9766" y2="1766.3906"/></g><g><title>SPA .SchedulePage.</title><rect fill="#000000" fill-opacity="0.00000" height="1647.4141" width="8" x="305.8657" y="118.9766"/><line style="stroke:#181818;stroke-width:0.5;stroke-dasharray:5,5;" x1="309.3569" x2="309.3569" y1="118.9766" y2="1766.3906"/></g><g><title>Scheduling Routes</title><rect fill="#000000" fill-opacity="0.00000" height="1647.4141" width="8" x="557.3442" y="118.9766"/><line style="stroke:#181818;stroke-width:0.5;stroke-dasharray:5,5;" x1="560.8672" x2="560.8672" y1="118.9766" y2="1766.3906"/></g><g><title>Scheduling Controller</title><rect fill="#000000" fill-opacity="0.00000" height="1647.4141" width="8" x="749.3159" y="118.9766"/><line style="stroke:#181818;stroke-width:0.5;stroke-dasharray:5,5;" x1="752.915" x2="752.915" y1="118.9766" y2="1766.3906"/></g><g><title>Scheduling Service</title><rect fill="#000000" fill-opacity="0.00000" height="1647.4141" width="8" x="960.8638" y="118.9766"/><line style="stroke:#181818;stroke-width:0.5;stroke-dasharray:5,5;" x1="963.8774" x2="963.8774" y1="118.9766" y2="1766.3906"/></g><g><title>Prolog Engine</title><rect fill="#000000" fill-opacity="0.00000" height="1647.4141" width="8" x="1260.1807" y="118.9766"/><line style="stroke:#181818;stroke-width:0.5;stroke-dasharray:5,5;" x1="1263.4741" x2="1263.4741" y1="118.9766" y2="1766.3906"/></g><g><title>Scheduling Repo</title><rect fill="#000000" fill-opacity="0.00000" height="1647.4141" width="8" x="1379.2393" y="118.9766"/><line style="stroke:#181818;stroke-width:0.5;stroke-dasharray:5,5;" x1="1382.8872" x2="1382.8872" y1="118.9766" y2="1766.3906"/></g><g><title>Scheduling Mapper</title><rect fill="#000000" fill-opacity="0.00000" height="1647.4141" width="8" x="1522.5625" y="118.9766"/><line style="stroke:#181818;stroke-width:0.5;stroke-dasharray:5,5;" x1="1525.7715" x2="1525.7715" y1="118.9766" y2="1766.3906"/></g><g><title>MongoDB</title><rect fill="#000000" fill-opacity="0.00000" height="1647.4141" width="8" x="1635.9609" y="118.9766"/><line style="stroke:#181818;stroke-width:0.5;stroke-dasharray:5,5;" x1="1639.3535" x2="1639.3535" y1="118.9766" y2="1766.3906"/></g><g class="participant participant-head" data-participant="LO"><text fill="#000000" font-family="sans-serif" font-size="14" lengthAdjust="spacing" textLength="124.5098" x="5" y="116.0234">Logistics Operator</text><ellipse cx="70.2549" cy="50.9883" fill="#E3E3E3" rx="8" ry="8" style="stroke:#181818;stroke-width:0.5;"/><path d="M70.2549,58.9883 L70.2549,85.9883 M57.2549,66.9883 L83.2549,66.9883 M70.2549,85.9883 L57.2549,100.9883 M70.2549,85.9883 L83.2549,100.9883" fill="none" style="stroke:#181818;stroke-width:0.5;"/></g><g class="participant participant-tail" data-participant="LO"><text fill="#000000" font-family="sans-serif" font-size="14" lengthAdjust="spacing" textLength="124.5098" x="5" y="1778.9258">Logistics Operator</text><ellipse cx="70.2549" cy="1790.3789" fill="#E3E3E3" rx="8" ry="8" style="stroke:#181818;stroke-width:0.5;"/><path d="M70.2549,1798.3789 L70.2549,1825.3789 M57.2549,1806.3789 L83.2549,1806.3789 M70.2549,1825.3789 L57.2549,1840.3789 M70.2549,1825.3789 L83.2549,1840.3789" fill="none" style="stroke:#181818;stroke-width:0.5;"/></g><g class="participant participant-head" data-participant="SPA"><text fill="#000000" font-family="sans-serif" font-size="14" lengthAdjust="spacing" textLength="131.0176" x="241.3569" y="116.0234">SPA (SchedulePage)</text><path d="M289.3657,74.4883 L289.3657,98.4883 M289.3657,86.4883 L306.3657,86.4883" fill="none" style="stroke:#181818;stroke-width:0.5;"/><ellipse cx="318.3657" cy="86.4883" fill="#E3E3E3" rx="12" ry="12" style="stroke:#181818;stroke-width:0.5;"/></g><g class="participant participant-tail" data-participant="SPA"><text fill="#000000" font-family="sans-serif" font-size="14" lengthAdjust="spacing" textLength="131.0176" x="241.3569" y="1778.9258">SPA (SchedulePage)</text><path d="M289.3657,1785.8789 L289.3657,1809.8789 M289.3657,1797.8789 L306.3657,1797.8789" fill="none" style="stroke:#181818;stroke-width:0.5;"/><ellipse cx="318.3657" cy="1797.8789" fill="#E3E3E3" rx="12" ry="12" style="stroke:#181818;stroke-width:0.5;"/></g><g class="participant participant-head" data-participant="Routes"><text fill="#000000" font-family="sans-serif" font-size="14" lengthAdjust="spacing" textLength="124.9541" x="495.8672" y="116.0234">Scheduling Routes</text><path d="M540.8442,74.4883 L540.8442,98.4883 M540.8442,86.4883 L557.8442,86.4883" fill="none" style="stroke:#181818;stroke-width:0.5;"/><ellipse cx="569.8442" cy="86.4883" fill="#E3E3E3" rx="12" ry="12" style="stroke:#181818;stroke-width:0.5;"/></g><g class="participant participant-tail" data-participant="Routes"><text fill="#000000" font-family="sans-serif" font-size="14" lengthAdjust="spacing" textLength="124.9541" x="495.8672" y="1778.9258">Scheduling Routes</text><path d="M540.8442,1785.8789 L540.8442,1809.8789 M540.8442,1797.8789 L557.8442,1797.8789" fill="none" style="stroke:#181818;stroke-width:0.5;"/><ellipse cx="569.8442" cy="1797.8789" fill="#E3E3E3" rx="12" ry="12" style="stroke:#181818;stroke-width:0.5;"/></g><g class="participant participant-head" data-participant="Ctrl"><text fill="#000000" font-family="sans-serif" font-size="14" lengthAdjust="spacing" textLength="146.8018" x="676.915" y="116.0234">Scheduling Controller</text><ellipse cx="753.3159" cy="86.4883" fill="#E3E3E3" rx="12" ry="12" style="stroke:#181818;stroke-width:0.5;"/><polygon fill="#181818" points="749.3159,74.4883,755.3159,69.4883,753.3159,74.4883,755.3159,79.4883,749.3159,74.4883" style="stroke:#181818;stroke-width:1;"/></g><g class="participant participant-tail" data-participant="Ctrl"><text fill="#000000" font-family="sans-serif" font-size="14" lengthAdjust="spacing" textLength="146.8018" x="676.915" y="1778.9258">Scheduling Controller</text><ellipse cx="753.3159" cy="1797.8789" fill="#E3E3E3" rx="12" ry="12" style="stroke:#181818;stroke-width:0.5;"/><polygon fill="#181818" points="749.3159,1785.8789,755.3159,1780.8789,753.3159,1785.8789,755.3159,1790.8789,749.3159,1785.8789" style="stroke:#181818;stroke-width:1;"/></g><g class="participant participant-head" data-participant="Svc"><text fill="#000000" font-family="sans-serif" font-size="14" lengthAdjust="spacing" textLength="125.9727" x="898.8774" y="116.0234">Scheduling Service</text><ellipse cx="964.8638" cy="86.4883" fill="#E3E3E3" rx="12" ry="12" style="stroke:#181818;stroke-width:0.5;"/><polygon fill="#181818" points="960.8638,74.4883,966.8638,69.4883,964.8638,74.4883,966.8638,79.4883,960.8638,74.4883" style="stroke:#181818;stroke-width:1;"/></g><g class="participant participant-tail" data-participant="Svc"><text fill="#000000" font-family="sans-serif" font-size="14" lengthAdjust="spacing" textLength="125.9727" x="898.8774" y="1778.9258">Scheduling Service</text><ellipse cx="964.8638" cy="1797.8789" fill="#E3E3E3" rx="12" ry="12" style="stroke:#181818;stroke-width:0.5;"/><polygon fill="#181818" points="960.8638,1785.8789,966.8638,1780.8789,964.8638,1785.8789,966.8638,1790.8789,960.8638,1785.8789" style="stroke:#181818;stroke-width:1;"/></g><g class="participant participant-head" data-participant="Prolog"><text fill="#000000" font-family="sans-serif" font-size="14" lengthAdjust="spacing" textLength="93.4131" x="1214.4741" y="116.0234">Prolog Engine</text><ellipse cx="1264.1807" cy="86.4883" fill="#E3E3E3" rx="12" ry="12" style="stroke:#181818;stroke-width:0.5;"/><polygon fill="#181818" points="1260.1807,74.4883,1266.1807,69.4883,1264.1807,74.4883,1266.1807,79.4883,1260.1807,74.4883" style="stroke:#181818;stroke-width:1;"/></g><g class="participant participant-tail" data-participant="Prolog"><text fill="#000000" font-family="sans-serif" font-size="14" lengthAdjust="spacing" textLength="93.4131" x="1214.4741" y="1778.9258">Prolog Engine</text><ellipse cx="1264.1807" cy="1797.8789" fill="#E3E3E3" rx="12" ry="12" style="stroke:#181818;stroke-width:0.5;"/><polygon fill="#181818" points="1260.1807,1785.8789,1266.1807,1780.8789,1264.1807,1785.8789,1266.1807,1790.8789,1260.1807,1785.8789" style="stroke:#181818;stroke-width:1;"/></g><g class="participant participant-head" data-participant="Repo"><text fill="#000000" font-family="sans-serif" font-size="14" lengthAdjust="spacing" textLength="112.7041" x="1323.8872" y="116.0234">Scheduling Repo</text><ellipse cx="1383.2393" cy="86.4883" fill="#E3E3E3" rx="12" ry="12" style="stroke:#181818;stroke-width:0.5;"/><line style="stroke:#181818;stroke-width:0.5;" x1="1371.2393" x2="1395.2393" y1="100.4883" y2="100.4883"/></g><g class="participant participant-tail" data-participant="Repo"><text fill="#000000" font-family="sans-serif" font-size="14" lengthAdjust="spacing" textLength="112.7041" x="1323.8872" y="1778.9258">Scheduling Repo</text><ellipse cx="1383.2393" cy="1797.8789" fill="#E3E3E3" rx="12" ry="12" style="stroke:#181818;stroke-width:0.5;"/><line style="stroke:#181818;stroke-width:0.5;" x1="1371.2393" x2="1395.2393" y1="1811.8789" y2="1811.8789"/></g><g class="participant participant-head" data-participant="Map"><text fill="#000000" font-family="sans-serif" font-size="14" lengthAdjust="spacing" textLength="129.582" x="1458.7715" y="116.0234">Scheduling Mapper</text><ellipse cx="1526.5625" cy="86.4883" fill="#E3E3E3" rx="12" ry="12" style="stroke:#181818;stroke-width:0.5;"/><line style="stroke:#181818;stroke-width:0.5;" x1="1514.5625" x2="1538.5625" y1="100.4883" y2="100.4883"/></g><g class="participant participant-tail" data-participant="Map"><text fill="#000000" font-family="sans-serif" font-size="14" lengthAdjust="spacing" textLength="129.582" x="1458.7715" y="1778.9258">Scheduling Mapper</text><ellipse cx="1526.5625" cy="1797.8789" fill="#E3E3E3" rx="12" ry="12" style="stroke:#181818;stroke-width:0.5;"/><line style="stroke:#181818;stroke-width:0.5;" x1="1514.5625" x2="1538.5625" y1="1811.8789" y2="1811.8789"/></g><g class="participant participant-head" data-participant="DB"><text fill="#000000" font-family="sans-serif" font-size="14" lengthAdjust="spacing" textLength="65.2148" x="1604.3535" y="116.0234">MongoDB</text><path d="M1621.9609,66.4883 C1621.9609,56.4883 1639.9609,56.4883 1639.9609,56.4883 C1639.9609,56.4883 1657.9609,56.4883 1657.9609,66.4883 L1657.9609,92.4883 C1657.9609,102.4883 1639.9609,102.4883 1639.9609,102.4883 C1639.9609,102.4883 1621.9609,102.4883 1621.9609,92.4883 L1621.9609,66.4883" fill="#E3E3E3" style="stroke:#181818;stroke-width:0.5;"/><path d="M1621.9609,66.4883 C1621.9609,76.4883 1639.9609,76.4883 1639.9609,76.4883 C1639.9609,76.4883 1657.9609,76.4883 1657.9609,66.4883" fill="none" style="stroke:#181818;stroke-width:0.5;"/></g><g class="participant participant-tail" data-participant="DB"><text fill="#000000" font-family="sans-serif" font-size="14" lengthAdjust="spacing" textLength="65.2148" x="1604.3535" y="1778.9258">MongoDB</text><path d="M1621.9609,1791.8789 C1621.9609,1781.8789 1639.9609,1781.8789 1639.9609,1781.8789 C1639.9609,1781.8789 1657.9609,1781.8789 1657.9609,1791.8789 L1657.9609,1817.8789 C1657.9609,1827.8789 1639.9609,1827.8789 1639.9609,1827.8789 C1639.9609,1827.8789 1621.9609,1827.8789 1621.9609,1817.8789 L1621.9609,1791.8789" fill="#E3E3E3" style="stroke:#181818;stroke-width:0.5;"/><path d="M1621.9609,1791.8789 C1621.9609,1801.8789 1639.9609,1801.8789 1639.9609,1801.8789 C1639.9609,1801.8789 1657.9609,1801.8789 1657.9609,1791.8789" fill="none" style="stroke:#181818;stroke-width:0.5;"/></g><rect fill="#EEEEEE" height="3" style="stroke:#EEEEEE;stroke-width:1;" width="1695.5684" x="0" y="149.6318"/><line style="stroke:#000000;stroke-width:1;" x1="0" x2="1695.5684" y1="149.6318" y2="149.6318"/><line style="stroke:#000000;stroke-width:1;" x1="0" x2="1695.5684" y1="152.6318" y2="152.6318"/><rect fill="#EEEEEE" height="23.3105" style="stroke:#000000;stroke-width:2;" width="155.2163" x="770.176" y="138.9766"/><text fill="#000000" font-family="sans-serif" font-size="13" font-weight="bold" lengthAdjust="spacing" textLength="136.9316" x="776.176" y="155.5449">Check Missing Plans</text><g class="message" data-participant-1="LO" data-participant-2="SPA"><polygon fill="#181818" points="297.8657,189.5977,307.8657,193.5977,297.8657,197.5977,301.8657,193.5977" style="stroke:#181818;stroke-width:1;"/><line style="stroke:#181818;stroke-width:1;" x1="70.2549" x2="303.8657" y1="193.5977" y2="193.5977"/><text fill="#000000" font-family="sans-serif" font-size="13" lengthAdjust="spacing" textLength="172.3389" x="77.2549" y="188.8555">Click "Check Missing Plans"</text></g><g class="message" data-participant-1="SPA" data-participant-2="Routes"><polygon fill="#181818" points="549.3442,218.9082,559.3442,222.9082,549.3442,226.9082,553.3442,222.9082" style="stroke:#181818;stroke-width:1;"/><line style="stroke:#181818;stroke-width:1;" x1="309.8657" x2="555.3442" y1="222.9082" y2="222.9082"/><text fill="#000000" font-family="sans-serif" font-size="13" lengthAdjust="spacing" textLength="201.3604" x="316.8657" y="218.166">GET /scheduling/missing-plans</text></g><g class="message" data-participant-1="Routes" data-participant-2="Ctrl"><polygon fill="#181818" points="741.3159,248.2188,751.3159,252.2188,741.3159,256.2188,745.3159,252.2188" style="stroke:#181818;stroke-width:1;"/><line style="stroke:#181818;stroke-width:1;" x1="561.3442" x2="747.3159" y1="252.2188" y2="252.2188"/><text fill="#000000" font-family="sans-serif" font-size="13" lengthAdjust="spacing" textLength="157.7837" x="568.3442" y="247.4766">getMissingPlans(req, res)</text></g><g class="message" data-participant-1="Ctrl" data-participant-2="Svc"><polygon fill="#181818" points="952.8638,277.5293,962.8638,281.5293,952.8638,285.5293,956.8638,281.5293" style="stroke:#181818;stroke-width:1;"/><line style="stroke:#181818;stroke-width:1;" x1="753.3159" x2="958.8638" y1="281.5293" y2="281.5293"/><text fill="#000000" font-family="sans-serif" font-size="13" lengthAdjust="spacing" textLength="187.5479" x="760.3159" y="276.7871">findDatesWithoutPlansAsync()</text></g><g class="message" data-participant-1="Svc" data-participant-2="Repo"><polygon fill="#181818" points="1371.2393,306.8398,1381.2393,310.8398,1371.2393,314.8398,1375.2393,310.8398" style="stroke:#181818;stroke-width:1;"/><line style="stroke:#181818;stroke-width:1;" x1="964.8638" x2="1377.2393" y1="310.8398" y2="310.8398"/><text fill="#000000" font-family="sans-serif" font-size="13" lengthAdjust="spacing" textLength="130.4824" x="971.8638" y="306.0977">getAllPlannedDates()</text></g><g class="message" data-participant-1="Repo" data-participant-2="DB"><polygon fill="#181818" points="1627.9609,336.1504,1637.9609,340.1504,1627.9609,344.1504,1631.9609,340.1504" style="stroke:#181818;stroke-width:1;"/><line style="stroke:#181818;stroke-width:1;" x1="1383.2393" x2="1633.9609" y1="340.1504" y2="340.1504"/><text fill="#000000" font-family="sans-serif" font-size="13" lengthAdjust="spacing" textLength="131.0347" x="1390.2393" y="335.4082">find({}, {planDate: 1})</text></g><g class="message" data-participant-1="DB" data-participant-2="Repo"><polygon fill="#181818" points="1394.2393,365.4609,1384.2393,369.4609,1394.2393,373.4609,1390.2393,369.4609" style="stroke:#181818;stroke-width:1;"/><line style="stroke:#181818;stroke-width:1;stroke-dasharray:2,2;" x1="1388.2393" x2="1638.9609" y1="369.4609" y2="369.4609"/><text fill="#000000" font-family="sans-serif" font-size="13" lengthAdjust="spacing" textLength="94.4976" x="1400.2393" y="364.7188">existingDates[]</text></g><g class="message" data-participant-1="Repo" data-participant-2="Svc"><polygon fill="#181818" points="975.8638,394.7715,965.8638,398.7715,975.8638,402.7715,971.8638,398.7715" style="stroke:#181818;stroke-width:1;"/><line style="stroke:#181818;stroke-width:1;stroke-dasharray:2,2;" x1="969.8638" x2="1382.2393" y1="398.7715" y2="398.7715"/><text fill="#000000" font-family="sans-serif" font-size="13" lengthAdjust="spacing" textLength="42.5483" x="981.8638" y="394.0293">dates[]</text></g><g class="message" data-participant-1="Svc" data-participant-2="Svc"><line style="stroke:#181818;stroke-width:1;" x1="964.8638" x2="1006.8638" y1="428.082" y2="428.082"/><line style="stroke:#181818;stroke-width:1;" x1="1006.8638" x2="1006.8638" y1="428.082" y2="441.082"/><line style="stroke:#181818;stroke-width:1;" x1="965.8638" x2="1006.8638" y1="441.082" y2="441.082"/><polygon fill="#181818" points="975.8638,437.082,965.8638,441.082,975.8638,445.082,971.8638,441.082" style="stroke:#181818;stroke-width:1;"/><text fill="#000000" font-family="sans-serif" font-size="13" lengthAdjust="spacing" textLength="222.3521" x="971.8638" y="423.3398">Identify gaps in upcoming calendar</text></g><g class="message" data-participant-1="Svc" data-participant-2="Ctrl"><polygon fill="#181818" points="764.3159,466.3926,754.3159,470.3926,764.3159,474.3926,760.3159,470.3926" style="stroke:#181818;stroke-width:1;"/><line style="stroke:#181818;stroke-width:1;stroke-dasharray:2,2;" x1="758.3159" x2="963.8638" y1="470.3926" y2="470.3926"/><text fill="#000000" font-family="sans-serif" font-size="13" lengthAdjust="spacing" textLength="160.1133" x="770.3159" y="465.6504">Result.ok(missingDates[])</text></g><g class="message" data-participant-1="Ctrl" data-participant-2="SPA"><polygon fill="#181818" points="320.8657,495.7031,310.8657,499.7031,320.8657,503.7031,316.8657,499.7031" style="stroke:#181818;stroke-width:1;"/><line style="stroke:#181818;stroke-width:1;stroke-dasharray:2,2;" x1="314.8657" x2="752.3159" y1="499.7031" y2="499.7031"/><text fill="#000000" font-family="sans-serif" font-size="13" lengthAdjust="spacing" textLength="153.1118" x="326.8657" y="494.9609">200 OK (missingDates[])</text></g><g class="message" data-participant-1="SPA" data-participant-2="SPA"><line style="stroke:#181818;stroke-width:1;" x1="309.8657" x2="351.8657" y1="529.0137" y2="529.0137"/><line style="stroke:#181818;stroke-width:1;" x1="351.8657" x2="351.8657" y1="529.0137" y2="542.0137"/><line style="stroke:#181818;stroke-width:1;" x1="310.8657" x2="351.8657" y1="542.0137" y2="542.0137"/><polygon fill="#181818" points="320.8657,538.0137,310.8657,542.0137,320.8657,546.0137,316.8657,542.0137" style="stroke:#181818;stroke-width:1;"/><text fill="#000000" font-family="sans-serif" font-size="13" lengthAdjust="spacing" textLength="129.9429" x="316.8657" y="524.2715">Open Modal with list</text></g><rect fill="#EEEEEE" height="3" style="stroke:#EEEEEE;stroke-width:1;" width="1695.5684" x="0" y="570.6689"/><line style="stroke:#000000;stroke-width:1;" x1="0" x2="1695.5684" y1="570.6689" y2="570.6689"/><line style="stroke:#000000;stroke-width:1;" x1="0" x2="1695.5684" y1="573.6689" y2="573.6689"/><rect fill="#EEEEEE" height="23.3105" style="stroke:#000000;stroke-width:2;" width="180.5435" x="757.5125" y="560.0137"/><text fill="#000000" font-family="sans-serif" font-size="13" font-weight="bold" lengthAdjust="spacing" textLength="162.2588" x="763.5125" y="576.582">Compute Daily Schedule</text><g class="message" data-participant-1="LO" data-participant-2="SPA"><polygon fill="#181818" points="297.8657,625.9453,307.8657,629.9453,297.8657,633.9453,301.8657,629.9453" style="stroke:#181818;stroke-width:1;"/><line style="stroke:#181818;stroke-width:1;" x1="70.2549" x2="303.8657" y1="629.9453" y2="629.9453"/><text fill="#000000" font-family="sans-serif" font-size="13" lengthAdjust="spacing" textLength="215.6108" x="77.2549" y="609.8926">Select Date + Algorithm + Params</text><text fill="#000000" font-family="sans-serif" font-size="13" lengthAdjust="spacing" textLength="102.064" x="77.2549" y="625.2031">Click "Compute"</text></g><g class="message" data-participant-1="SPA" data-participant-2="Routes"><polygon fill="#181818" points="549.3442,670.5664,559.3442,674.5664,549.3442,678.5664,553.3442,674.5664" style="stroke:#181818;stroke-width:1;"/><line style="stroke:#181818;stroke-width:1;" x1="309.8657" x2="555.3442" y1="674.5664" y2="674.5664"/><text fill="#000000" font-family="sans-serif" font-size="13" lengthAdjust="spacing" textLength="173.9258" x="316.8657" y="654.5137">POST /scheduling/compute</text><text fill="#000000" font-family="sans-serif" font-size="13" lengthAdjust="spacing" textLength="135.6748" x="316.8657" y="669.8242">(ComputeConfigDTO)</text></g><g class="message" data-participant-1="Routes" data-participant-2="Ctrl"><polygon fill="#181818" points="741.3159,699.877,751.3159,703.877,741.3159,707.877,745.3159,703.877" style="stroke:#181818;stroke-width:1;"/><line style="stroke:#181818;stroke-width:1;" x1="561.3442" x2="747.3159" y1="703.877" y2="703.877"/><text fill="#000000" font-family="sans-serif" font-size="13" lengthAdjust="spacing" textLength="167.9717" x="568.3442" y="699.1348">computeSchedule(req, res)</text></g><g class="message" data-participant-1="Ctrl" data-participant-2="Svc"><polygon fill="#181818" points="952.8638,729.1875,962.8638,733.1875,952.8638,737.1875,956.8638,733.1875" style="stroke:#181818;stroke-width:1;"/><line style="stroke:#181818;stroke-width:1;" x1="753.3159" x2="958.8638" y1="733.1875" y2="733.1875"/><text fill="#000000" font-family="sans-serif" font-size="13" lengthAdjust="spacing" textLength="178.0835" x="760.3159" y="728.4453">generateScheduleAsync(dto)</text></g><g class="message" data-participant-1="Svc" data-participant-2="Repo"><polygon fill="#181818" points="1371.2393,758.498,1381.2393,762.498,1371.2393,766.498,1375.2393,762.498" style="stroke:#181818;stroke-width:1;"/><line style="stroke:#181818;stroke-width:1;" x1="964.8638" x2="1377.2393" y1="762.498" y2="762.498"/><text fill="#000000" font-family="sans-serif" font-size="13" lengthAdjust="spacing" textLength="203.709" x="971.8638" y="757.7559">getOperationsDataForDate(date)</text></g><g class="message" data-participant-1="Repo" data-participant-2="DB"><polygon fill="#181818" points="1627.9609,787.8086,1637.9609,791.8086,1627.9609,795.8086,1631.9609,791.8086" style="stroke:#181818;stroke-width:1;"/><line style="stroke:#181818;stroke-width:1;" x1="1383.2393" x2="1633.9609" y1="791.8086" y2="791.8086"/><text fill="#000000" font-family="sans-serif" font-size="13" lengthAdjust="spacing" textLength="164.6519" x="1390.2393" y="787.0664">find(VVNs/Cargo for date)</text></g><g class="message" data-participant-1="DB" data-participant-2="Repo"><polygon fill="#181818" points="1394.2393,817.1191,1384.2393,821.1191,1394.2393,825.1191,1390.2393,821.1191" style="stroke:#181818;stroke-width:1;"/><line style="stroke:#181818;stroke-width:1;stroke-dasharray:2,2;" x1="1388.2393" x2="1638.9609" y1="821.1191" y2="821.1191"/><text fill="#000000" font-family="sans-serif" font-size="13" lengthAdjust="spacing" textLength="51.4731" x="1400.2393" y="816.377">rawData</text></g><g class="message" data-participant-1="Repo" data-participant-2="Svc"><polygon fill="#181818" points="975.8638,846.4297,965.8638,850.4297,975.8638,854.4297,971.8638,850.4297" style="stroke:#181818;stroke-width:1;"/><line style="stroke:#181818;stroke-width:1;stroke-dasharray:2,2;" x1="969.8638" x2="1382.2393" y1="850.4297" y2="850.4297"/><text fill="#000000" font-family="sans-serif" font-size="13" lengthAdjust="spacing" textLength="96.167" x="981.8638" y="845.6875">operationsData</text></g><g class="message" data-participant-1="Svc" data-participant-2="Prolog"><polygon fill="#181818" points="1252.1807,886.3955,1262.1807,890.3955,1252.1807,894.3955,1256.1807,890.3955" style="stroke:#181818;stroke-width:1;"/><line style="stroke:#181818;stroke-width:1;" x1="964.8638" x2="1258.1807" y1="890.3955" y2="890.3955"/><text fill="#000000" font-family="sans-serif" font-size="13" lengthAdjust="spacing" textLength="261.2124" x="971.8638" y="885.6533">solve(operationsData, algorithm, params)</text></g><path d="M1269,863.4297 L1269,903.4297 L1451,903.4297 L1451,873.4297 L1441,863.4297 L1269,863.4297" fill="#FAFAFA" style="stroke:#181818;stroke-width:0.5;"/><path d="M1441,863.4297 L1441,873.4297 L1451,873.4297 L1441,863.4297" fill="#FAFAFA" style="stroke:#181818;stroke-width:0.5;"/><text fill="#000000" font-family="sans-serif" font-size="13" lengthAdjust="spacing" textLength="156.749" x="1275" y="880.998">Executes Prolog logic for</text><text fill="#000000" font-family="sans-serif" font-size="13" lengthAdjust="spacing" textLength="161.77" x="1275" y="896.3086">Greedy, Genetic, or Smart</text><g class="message" data-participant-1="Prolog" data-participant-2="Svc"><polygon fill="#181818" points="975.8638,926.3613,965.8638,930.3613,975.8638,934.3613,971.8638,930.3613" style="stroke:#181818;stroke-width:1;"/><line style="stroke:#181818;stroke-width:1;stroke-dasharray:2,2;" x1="969.8638" x2="1263.1807" y1="930.3613" y2="930.3613"/><text fill="#000000" font-family="sans-serif" font-size="13" lengthAdjust="spacing" textLength="275.3169" x="981.8638" y="925.6191">rawPrologResult (best_sequence, delay, etc)</text></g><g class="message" data-participant-1="Svc" data-participant-2="Map"><polygon fill="#181818" points="1514.5625,955.6719,1524.5625,959.6719,1514.5625,963.6719,1518.5625,959.6719" style="stroke:#181818;stroke-width:1;"/><line style="stroke:#181818;stroke-width:1;" x1="964.8638" x2="1520.5625" y1="959.6719" y2="959.6719"/><text fill="#000000" font-family="sans-serif" font-size="13" lengthAdjust="spacing" textLength="211.1865" x="971.8638" y="954.9297">toResponseDTO(rawPrologResult)</text></g><g class="message" data-participant-1="Svc" data-participant-2="Ctrl"><polygon fill="#181818" points="764.3159,984.9824,754.3159,988.9824,764.3159,992.9824,760.3159,988.9824" style="stroke:#181818;stroke-width:1;"/><line style="stroke:#181818;stroke-width:1;stroke-dasharray:2,2;" x1="758.3159" x2="963.8638" y1="988.9824" y2="988.9824"/><text fill="#000000" font-family="sans-serif" font-size="13" lengthAdjust="spacing" textLength="150.833" x="770.3159" y="984.2402">Result.ok(scheduleDTO)</text></g><g class="message" data-participant-1="Ctrl" data-participant-2="SPA"><polygon fill="#181818" points="320.8657,1014.293,310.8657,1018.293,320.8657,1022.293,316.8657,1018.293" style="stroke:#181818;stroke-width:1;"/><line style="stroke:#181818;stroke-width:1;stroke-dasharray:2,2;" x1="314.8657" x2="752.3159" y1="1018.293" y2="1018.293"/><text fill="#000000" font-family="sans-serif" font-size="13" lengthAdjust="spacing" textLength="143.8315" x="326.8657" y="1013.5508">200 OK (scheduleDTO)</text></g><g class="message" data-participant-1="SPA" data-participant-2="SPA"><line style="stroke:#181818;stroke-width:1;" x1="309.8657" x2="351.8657" y1="1047.6035" y2="1047.6035"/><line style="stroke:#181818;stroke-width:1;" x1="351.8657" x2="351.8657" y1="1047.6035" y2="1060.6035"/><line style="stroke:#181818;stroke-width:1;" x1="310.8657" x2="351.8657" y1="1060.6035" y2="1060.6035"/><polygon fill="#181818" points="320.8657,1056.6035,310.8657,1060.6035,320.8657,1064.6035,316.8657,1060.6035" style="stroke:#181818;stroke-width:1;"/><text fill="#000000" font-family="sans-serif" font-size="13" lengthAdjust="spacing" textLength="237.4785" x="316.8657" y="1042.8613">Render results and Comparison Table</text></g><rect fill="#EEEEEE" height="3" style="stroke:#EEEEEE;stroke-width:1;" width="1695.5684" x="0" y="1089.2588"/><line style="stroke:#000000;stroke-width:1;" x1="0" x2="1695.5684" y1="1089.2588" y2="1089.2588"/><line style="stroke:#000000;stroke-width:1;" x1="0" x2="1695.5684" y1="1092.2588" y2="1092.2588"/><rect fill="#EEEEEE" height="23.3105" style="stroke:#000000;stroke-width:2;" width="153.7437" x="770.9124" y="1078.6035"/><text fill="#000000" font-family="sans-serif" font-size="13" font-weight="bold" lengthAdjust="spacing" textLength="135.459" x="776.9124" y="1095.1719">Save Scheduled Plan</text><g class="message" data-participant-1="LO" data-participant-2="SPA"><polygon fill="#181818" points="297.8657,1129.2246,307.8657,1133.2246,297.8657,1137.2246,301.8657,1133.2246" style="stroke:#181818;stroke-width:1;"/><line style="stroke:#181818;stroke-width:1;" x1="70.2549" x2="303.8657" y1="1133.2246" y2="1133.2246"/><text fill="#000000" font-family="sans-serif" font-size="13" lengthAdjust="spacing" textLength="103.0479" x="77.2549" y="1128.4824">Click "Save Plan"</text></g><g class="message" data-participant-1="SPA" data-participant-2="Routes"><polygon fill="#181818" points="549.3442,1173.8457,559.3442,1177.8457,549.3442,1181.8457,553.3442,1177.8457" style="stroke:#181818;stroke-width:1;"/><line style="stroke:#181818;stroke-width:1;" x1="309.8657" x2="555.3442" y1="1177.8457" y2="1177.8457"/><text fill="#000000" font-family="sans-serif" font-size="13" lengthAdjust="spacing" textLength="146.5674" x="316.8657" y="1157.793">POST /scheduling/save</text><text fill="#000000" font-family="sans-serif" font-size="13" lengthAdjust="spacing" textLength="120.8848" x="316.8657" y="1173.1035">(SaveScheduleDTO)</text></g><g class="message" data-participant-1="Routes" data-participant-2="Ctrl"><polygon fill="#181818" points="741.3159,1203.1563,751.3159,1207.1563,741.3159,1211.1563,745.3159,1207.1563" style="stroke:#181818;stroke-width:1;"/><line style="stroke:#181818;stroke-width:1;" x1="561.3442" x2="747.3159" y1="1207.1563" y2="1207.1563"/><text fill="#000000" font-family="sans-serif" font-size="13" lengthAdjust="spacing" textLength="110.5825" x="568.3442" y="1202.4141">savePlan(req, res)</text></g><g class="message" data-participant-1="Ctrl" data-participant-2="Svc"><polygon fill="#181818" points="952.8638,1232.4668,962.8638,1236.4668,952.8638,1240.4668,956.8638,1236.4668" style="stroke:#181818;stroke-width:1;"/><line style="stroke:#181818;stroke-width:1;" x1="753.3159" x2="958.8638" y1="1236.4668" y2="1236.4668"/><text fill="#000000" font-family="sans-serif" font-size="13" lengthAdjust="spacing" textLength="150.5981" x="760.3159" y="1231.7246">saveScheduleAsync(dto)</text></g><g class="message" data-participant-1="Svc" data-participant-2="Repo"><polygon fill="#181818" points="1371.2393,1261.7773,1381.2393,1265.7773,1371.2393,1269.7773,1375.2393,1265.7773" style="stroke:#181818;stroke-width:1;"/><line style="stroke:#181818;stroke-width:1;" x1="964.8638" x2="1377.2393" y1="1265.7773" y2="1265.7773"/><text fill="#000000" font-family="sans-serif" font-size="13" lengthAdjust="spacing" textLength="73.0107" x="971.8638" y="1261.0352">exists(date)</text></g><g class="message" data-participant-1="Repo" data-participant-2="DB"><polygon fill="#181818" points="1627.9609,1291.0879,1637.9609,1295.0879,1627.9609,1299.0879,1631.9609,1295.0879" style="stroke:#181818;stroke-width:1;"/><line style="stroke:#181818;stroke-width:1;" x1="1383.2393" x2="1633.9609" y1="1295.0879" y2="1295.0879"/><text fill="#000000" font-family="sans-serif" font-size="13" lengthAdjust="spacing" textLength="159.0088" x="1390.2393" y="1290.3457">findOne({planDate: date})</text></g><g class="message" data-participant-1="DB" data-participant-2="Repo"><polygon fill="#181818" points="1394.2393,1320.3984,1384.2393,1324.3984,1394.2393,1328.3984,1390.2393,1324.3984" style="stroke:#181818;stroke-width:1;"/><line style="stroke:#181818;stroke-width:1;stroke-dasharray:2,2;" x1="1388.2393" x2="1638.9609" y1="1324.3984" y2="1324.3984"/><text fill="#000000" font-family="sans-serif" font-size="13" lengthAdjust="spacing" textLength="71.1763" x="1400.2393" y="1319.6563">record/null</text></g><path d="M231.3569,1339.3984 L293.4956,1339.3984 L293.4956,1346.709 L283.4956,1356.709 L231.3569,1356.709 L231.3569,1339.3984" fill="#EEEEEE" style="stroke:#000000;stroke-width:1.5;"/><rect fill="none" height="409.9922" style="stroke:#000000;stroke-width:1.5;" width="1454.2114" x="231.3569" y="1339.3984"/><text fill="#000000" font-family="sans-serif" font-size="13" font-weight="bold" lengthAdjust="spacing" textLength="17.1387" x="246.3569" y="1352.9668">alt</text><text fill="#000000" font-family="sans-serif" font-size="11" font-weight="bold" lengthAdjust="spacing" textLength="162.9912" x="308.4956" y="1352.0332">[Plan already exists for date]</text><g class="message" data-participant-1="Svc" data-participant-2="Ctrl"><polygon fill="#181818" points="764.3159,1374.0195,754.3159,1378.0195,764.3159,1382.0195,760.3159,1378.0195" style="stroke:#181818;stroke-width:1;"/><line style="stroke:#181818;stroke-width:1;stroke-dasharray:2,2;" x1="758.3159" x2="963.8638" y1="1378.0195" y2="1378.0195"/><text fill="#000000" font-family="sans-serif" font-size="13" lengthAdjust="spacing" textLength="127.8926" x="770.3159" y="1373.2773">Error (AlreadyExists)</text></g><g class="message" data-participant-1="Ctrl" data-participant-2="SPA"><polygon fill="#181818" points="320.8657,1403.3301,310.8657,1407.3301,320.8657,1411.3301,316.8657,1407.3301" style="stroke:#181818;stroke-width:1;"/><line style="stroke:#181818;stroke-width:1;stroke-dasharray:2,2;" x1="314.8657" x2="752.3159" y1="1407.3301" y2="1407.3301"/><text fill="#000000" font-family="sans-serif" font-size="13" lengthAdjust="spacing" textLength="106.1709" x="326.8657" y="1402.5879">400 Bad Request</text></g><line style="stroke:#000000;stroke-width:1;stroke-dasharray:2,2;" x1="231.3569" x2="1685.5684" y1="1416.3301" y2="1416.3301"/><text fill="#000000" font-family="sans-serif" font-size="11" font-weight="bold" lengthAdjust="spacing" textLength="60.1831" x="236.3569" y="1426.9648">[New Plan]</text><g class="message" data-participant-1="Svc" data-participant-2="Svc"><line style="stroke:#181818;stroke-width:1;" x1="964.8638" x2="1006.8638" y1="1451.5957" y2="1451.5957"/><line style="stroke:#181818;stroke-width:1;" x1="1006.8638" x2="1006.8638" y1="1451.5957" y2="1464.5957"/><line style="stroke:#181818;stroke-width:1;" x1="965.8638" x2="1006.8638" y1="1464.5957" y2="1464.5957"/><polygon fill="#181818" points="975.8638,1460.5957,965.8638,1464.5957,975.8638,1468.5957,971.8638,1464.5957" style="stroke:#181818;stroke-width:1;"/><text fill="#000000" font-family="sans-serif" font-size="13" lengthAdjust="spacing" textLength="144.0601" x="971.8638" y="1446.8535">PlanFactory.create(dto)</text></g><g class="message" data-participant-1="Svc" data-participant-2="Repo"><polygon fill="#181818" points="1371.2393,1489.9063,1381.2393,1493.9063,1371.2393,1497.9063,1375.2393,1493.9063" style="stroke:#181818;stroke-width:1;"/><line style="stroke:#181818;stroke-width:1;" x1="964.8638" x2="1377.2393" y1="1493.9063" y2="1493.9063"/><text fill="#000000" font-family="sans-serif" font-size="13" lengthAdjust="spacing" textLength="63.4194" x="971.8638" y="1489.1641">save(plan)</text></g><g class="message" data-participant-1="Repo" data-participant-2="Map"><polygon fill="#181818" points="1514.5625,1519.2168,1524.5625,1523.2168,1514.5625,1527.2168,1518.5625,1523.2168" style="stroke:#181818;stroke-width:1;"/><line style="stroke:#181818;stroke-width:1;" x1="1383.2393" x2="1520.5625" y1="1523.2168" y2="1523.2168"/><text fill="#000000" font-family="sans-serif" font-size="13" lengthAdjust="spacing" textLength="119.3232" x="1390.2393" y="1518.4746">toPersistence(plan)</text></g><g class="message" data-participant-1="Repo" data-participant-2="DB"><polygon fill="#181818" points="1627.9609,1548.5273,1637.9609,1552.5273,1627.9609,1556.5273,1631.9609,1552.5273" style="stroke:#181818;stroke-width:1;"/><line style="stroke:#181818;stroke-width:1;" x1="1383.2393" x2="1633.9609" y1="1552.5273" y2="1552.5273"/><text fill="#000000" font-family="sans-serif" font-size="13" lengthAdjust="spacing" textLength="143.1714" x="1390.2393" y="1547.7852">create(persistenceDoc)</text></g><g class="message" data-participant-1="DB" data-participant-2="Repo"><polygon fill="#181818" points="1394.2393,1577.8379,1384.2393,1581.8379,1394.2393,1585.8379,1390.2393,1581.8379" style="stroke:#181818;stroke-width:1;"/><line style="stroke:#181818;stroke-width:1;stroke-dasharray:2,2;" x1="1388.2393" x2="1638.9609" y1="1581.8379" y2="1581.8379"/><text fill="#000000" font-family="sans-serif" font-size="13" lengthAdjust="spacing" textLength="71.0684" x="1400.2393" y="1577.0957">createdDoc</text></g><g class="message" data-participant-1="Repo" data-participant-2="Svc"><polygon fill="#181818" points="975.8638,1607.1484,965.8638,1611.1484,975.8638,1615.1484,971.8638,1611.1484" style="stroke:#181818;stroke-width:1;"/><line style="stroke:#181818;stroke-width:1;stroke-dasharray:2,2;" x1="969.8638" x2="1382.2393" y1="1611.1484" y2="1611.1484"/><text fill="#000000" font-family="sans-serif" font-size="13" lengthAdjust="spacing" textLength="62.1499" x="981.8638" y="1606.4063">savedPlan</text></g><g class="message" data-participant-1="Svc" data-participant-2="Map"><polygon fill="#181818" points="1514.5625,1636.459,1524.5625,1640.459,1514.5625,1644.459,1518.5625,1640.459" style="stroke:#181818;stroke-width:1;"/><line style="stroke:#181818;stroke-width:1;" x1="964.8638" x2="1520.5625" y1="1640.459" y2="1640.459"/><text fill="#000000" font-family="sans-serif" font-size="13" lengthAdjust="spacing" textLength="111.5093" x="971.8638" y="1635.7168">toDTO(savedPlan)</text></g><g class="message" data-participant-1="Svc" data-participant-2="Ctrl"><polygon fill="#181818" points="764.3159,1665.7695,754.3159,1669.7695,764.3159,1673.7695,760.3159,1669.7695" style="stroke:#181818;stroke-width:1;"/><line style="stroke:#181818;stroke-width:1;stroke-dasharray:2,2;" x1="758.3159" x2="963.8638" y1="1669.7695" y2="1669.7695"/><text fill="#000000" font-family="sans-serif" font-size="13" lengthAdjust="spacing" textLength="87.9595" x="770.3159" y="1665.0273">Result.ok(dto)</text></g><g class="message" data-participant-1="Ctrl" data-participant-2="SPA"><polygon fill="#181818" points="320.8657,1695.0801,310.8657,1699.0801,320.8657,1703.0801,316.8657,1699.0801" style="stroke:#181818;stroke-width:1;"/><line style="stroke:#181818;stroke-width:1;stroke-dasharray:2,2;" x1="314.8657" x2="752.3159" y1="1699.0801" y2="1699.0801"/><text fill="#000000" font-family="sans-serif" font-size="13" lengthAdjust="spacing" textLength="77.7969" x="326.8657" y="1694.3379">201 Created</text></g><g class="message" data-participant-1="SPA" data-participant-2="SPA"><line style="stroke:#181818;stroke-width:1;" x1="309.8657" x2="351.8657" y1="1728.3906" y2="1728.3906"/><line style="stroke:#181818;stroke-width:1;" x1="351.8657" x2="351.8657" y1="1728.3906" y2="1741.3906"/><line style="stroke:#181818;stroke-width:1;" x1="310.8657" x2="351.8657" y1="1741.3906" y2="1741.3906"/><polygon fill="#181818" points="320.8657,1737.3906,310.8657,1741.3906,320.8657,1745.3906,316.8657,1741.3906" style="stroke:#181818;stroke-width:1;"/><text fill="#000000" font-family="sans-serif" font-size="13" lengthAdjust="spacing" textLength="191.0518" x="316.8657" y="1723.6484">Update UI (isPlanSaved = true)</text></g><!--SRC=[ZPPTQniv58RlzIiElYWphDEqoru5lE3OJYYRr2PEknURiYZIyLX4bgRIEAaf_UzxzE6nnn-mWOH1UlJgw9nNH_4lojJSyHMihB5YwUmAeN5hPBwTyKikxPio5IouziXOengDCCVlQpG2OQnu5RZYPgrr2HTmhxmF-4npu-4TZBdI6vYB9SgrfWd6k6YiWzwThPHlbF0mhT5n6ki1zt0tPSzsRIHt6-ZDPqCeybgSyGhBoD3mFjHgmuDTD-WZapwPiAPnLdUeKHhJc7OSDKwVvEReNfN0jEMhs34p-cihc9XAcJITHXWQIiz1I5ZR511zd0BkULtdIEYJITxmP-uHUlVML7Py7MV6rumD1Z1QedWvIF5WmEwcSF5do0fSmKWhGdedo1uB184fDSJUJXxXqhUXNAuIVb47d6MC5eGC4LvXamMZNk7mUnyS-f9588JmAeXRA2F7dDR-hPebYKHww3T652LZWGb1K3gIvb3hG1XCYuY9SyIChxDQyVDN7tw6i09o1Hz_bOmcBtOw-2EOoLHHufzlMQ8DIURXxUvfz9CCzLXieEAr1sLWNGkx2WaJN6EmL-9tANX0lzRDU_jIv5pb_ROfQClm-uSFCFqBZh1SWWIHyGtSMyarl56gGDCPKftjggRaToyF7fPwZXf50q4RVeEXhgmZbHLzpyBTzKzcQuOaTso0sNJUTO18v9CfyXgwAmjLZH-dvR4VChmDxwmVAZJXWhTWie9ix2atf6QWhF5qBdvZNJXU4UftoXTVltxsboFkAWiBQYe9wph3yRUWTEW8szcd3IHVxIlmLhzYqQNwmBT9xaFiZtHMOodzJbNBvWecFr3496KP-bKYHFPaRXsYtFJXbf91NQyF5EvynLt3ChiBZI9EOybjK3oZR_xrkUNsGQBcf8IDs2MGMWUjR2mjgIbQf8eL1phbUJDd1s2iynadTvYEZH_egg0BbISv3zp8Q63kbBS67lcpnkZgEN_5rimoDgKptIkIOVv_MDOJItuDI-Rx8HxPDO11ywnF_Px4UO_6JkFFEN9giDXhL84wwbKEXNNoqj2BIQyX5JXcWck7N6woVcjd1lHpKBY9SpHR3DEAILnGHl2WTdzGxQwvf8t9EzHRa9vm-8nlSSUTyZO1OVGcFi-RzuAqmyKB6TW3yn52gefmp3IvJSFMXJDqde8ATZr1nMHb_Nf7Zgr8N3TR2PGqkoVIgPbiJxCVwJQMS1DQgZoLpjqzQ4zxT0S-mYZ5aGJsxV-b3dM2Bv-WK3vi4gmeOH3_bIhfoPViFm00]--></g></svg>