<svg xmlns="http://www.w3.org/2000/svg" xmlns:xlink="http://www.w3.org/1999/xlink" contentStyleType="text/css" data-diagram-type="SEQUENCE" height="781px" preserveAspectRatio="none" style="width:1218px;height:781px;background:#FFFFFF;" version="1.1" viewBox="0 0 1218 781" width="1218px" zoomAndPan="magnify"><defs/><g><g><title>Logistics Operator</title><rect fill="#000000" fill-opacity="0.00000" height="619.2109" width="8" x="66.2549" y="81.4883"/><line style="stroke:#181818;stroke-width:0.5;stroke-dasharray:5,5;" x1="70" x2="70" y1="81.4883" y2="700.6992"/></g><g><title>UI</title><rect fill="#000000" fill-opacity="0.00000" height="619.2109" width="8" x="409.9736" y="81.4883"/><line style="stroke:#181818;stroke-width:0.5;stroke-dasharray:5,5;" x1="413.4736" x2="413.4736" y1="81.4883" y2="700.6992"/></g><g><title>RegisterStaffController</title><rect fill="#000000" fill-opacity="0.00000" height="619.2109" width="8" x="581.9883" y="81.4883"/><line style="stroke:#181818;stroke-width:0.5;stroke-dasharray:5,5;" x1="585.8413" x2="585.8413" y1="81.4883" y2="700.6992"/></g><g><title>StaffMemberAppService</title><rect fill="#000000" fill-opacity="0.00000" height="619.2109" width="8" x="755.478" y="81.4883"/><line style="stroke:#181818;stroke-width:0.5;stroke-dasharray:5,5;" x1="759.1353" x2="759.1353" y1="81.4883" y2="700.6992"/></g><g><title>StaffMemberRepository</title><rect fill="#000000" fill-opacity="0.00000" height="619.2109" width="8" x="1033.02" y="81.4883"/><line style="stroke:#181818;stroke-width:0.5;stroke-dasharray:5,5;" x1="1036.9214" x2="1036.9214" y1="81.4883" y2="700.6992"/></g><g><title>Audit Log</title><rect fill="#000000" fill-opacity="0.00000" height="619.2109" width="8" x="1166.9517" y="81.4883"/><line style="stroke:#181818;stroke-width:0.5;stroke-dasharray:5,5;" x1="1170.1187" x2="1170.1187" y1="81.4883" y2="700.6992"/></g><g class="participant participant-head" data-participant="Operator"><text fill="#000000" font-family="sans-serif" font-size="14" lengthAdjust="spacing" textLength="124.5098" x="5" y="78.5352">Logistics Operator</text><ellipse cx="70.2549" cy="13.5" fill="#E2E2F0" rx="8" ry="8" style="stroke:#181818;stroke-width:0.5;"/><path d="M70.2549,21.5 L70.2549,48.5 M57.2549,29.5 L83.2549,29.5 M70.2549,48.5 L57.2549,63.5 M70.2549,48.5 L83.2549,63.5" fill="none" style="stroke:#181818;stroke-width:0.5;"/></g><g class="participant participant-tail" data-participant="Operator"><text fill="#000000" font-family="sans-serif" font-size="14" lengthAdjust="spacing" textLength="124.5098" x="5" y="713.2344">Logistics Operator</text><ellipse cx="70.2549" cy="724.6875" fill="#E2E2F0" rx="8" ry="8" style="stroke:#181818;stroke-width:0.5;"/><path d="M70.2549,732.6875 L70.2549,759.6875 M57.2549,740.6875 L83.2549,740.6875 M70.2549,759.6875 L57.2549,774.6875 M70.2549,759.6875 L83.2549,774.6875" fill="none" style="stroke:#181818;stroke-width:0.5;"/></g><g class="participant participant-head" data-participant="UI"><text fill="#000000" font-family="sans-serif" font-size="14" lengthAdjust="spacing" textLength="13.7334" x="404.1069" y="78.5352">UI</text><path d="M393.4736,37 L393.4736,61 M393.4736,49 L410.4736,49" fill="none" style="stroke:#181818;stroke-width:0.5;"/><ellipse cx="422.4736" cy="49" fill="#E2E2F0" rx="12" ry="12" style="stroke:#181818;stroke-width:0.5;"/></g><g class="participant participant-tail" data-participant="UI"><text fill="#000000" font-family="sans-serif" font-size="14" lengthAdjust="spacing" textLength="13.7334" x="404.1069" y="713.2344">UI</text><path d="M393.4736,720.1875 L393.4736,744.1875 M393.4736,732.1875 L410.4736,732.1875" fill="none" style="stroke:#181818;stroke-width:0.5;"/><ellipse cx="422.4736" cy="732.1875" fill="#E2E2F0" rx="12" ry="12" style="stroke:#181818;stroke-width:0.5;"/></g><g class="participant participant-head" data-participant="Controller"><text fill="#000000" font-family="sans-serif" font-size="14" lengthAdjust="spacing" textLength="154.2939" x="505.8413" y="78.5352">RegisterStaffController</text><path d="M565.4883,37 L565.4883,61 M565.4883,49 L582.4883,49" fill="none" style="stroke:#181818;stroke-width:0.5;"/><ellipse cx="594.4883" cy="49" fill="#E2E2F0" rx="12" ry="12" style="stroke:#181818;stroke-width:0.5;"/></g><g class="participant participant-tail" data-participant="Controller"><text fill="#000000" font-family="sans-serif" font-size="14" lengthAdjust="spacing" textLength="154.2939" x="505.8413" y="713.2344">RegisterStaffController</text><path d="M565.4883,720.1875 L565.4883,744.1875 M565.4883,732.1875 L582.4883,732.1875" fill="none" style="stroke:#181818;stroke-width:0.5;"/><ellipse cx="594.4883" cy="732.1875" fill="#E2E2F0" rx="12" ry="12" style="stroke:#181818;stroke-width:0.5;"/></g><g class="participant participant-head" data-participant="Service"><text fill="#000000" font-family="sans-serif" font-size="14" lengthAdjust="spacing" textLength="160.6855" x="676.1353" y="78.5352">StaffMemberAppService</text><ellipse cx="759.478" cy="49" fill="#E2E2F0" rx="12" ry="12" style="stroke:#181818;stroke-width:0.5;"/><polygon fill="#181818" points="755.478,37,761.478,32,759.478,37,761.478,42,755.478,37" style="stroke:#181818;stroke-width:1;"/></g><g class="participant participant-tail" data-participant="Service"><text fill="#000000" font-family="sans-serif" font-size="14" lengthAdjust="spacing" textLength="160.6855" x="676.1353" y="713.2344">StaffMemberAppService</text><ellipse cx="759.478" cy="732.1875" fill="#E2E2F0" rx="12" ry="12" style="stroke:#181818;stroke-width:0.5;"/><polygon fill="#181818" points="755.478,720.1875,761.478,715.1875,759.478,720.1875,761.478,725.1875,755.478,720.1875" style="stroke:#181818;stroke-width:1;"/></g><g class="participant participant-head" data-participant="Repository"><text fill="#000000" font-family="sans-serif" font-size="14" lengthAdjust="spacing" textLength="158.1973" x="954.9214" y="78.5352">StaffMemberRepository</text><ellipse cx="1037.02" cy="49" fill="#E2E2F0" rx="12" ry="12" style="stroke:#181818;stroke-width:0.5;"/><line style="stroke:#181818;stroke-width:0.5;" x1="1025.02" x2="1049.02" y1="63" y2="63"/></g><g class="participant participant-tail" data-participant="Repository"><text fill="#000000" font-family="sans-serif" font-size="14" lengthAdjust="spacing" textLength="158.1973" x="954.9214" y="713.2344">StaffMemberRepository</text><ellipse cx="1037.02" cy="732.1875" fill="#E2E2F0" rx="12" ry="12" style="stroke:#181818;stroke-width:0.5;"/><line style="stroke:#181818;stroke-width:0.5;" x1="1025.02" x2="1049.02" y1="746.1875" y2="746.1875"/></g><g class="participant participant-head" data-participant="Audit"><rect fill="#E2E2F0" height="30.4883" style="stroke:#181818;stroke-width:0.5;" width="79.666" x="1133.1187" y="46"/><rect fill="#E2E2F0" height="30.4883" style="stroke:#181818;stroke-width:0.5;" width="79.666" x="1129.1187" y="50"/><text fill="#000000" font-family="sans-serif" font-size="14" lengthAdjust="spacing" textLength="65.666" x="1136.1187" y="70.5352">Audit Log</text></g><g class="participant participant-tail" data-participant="Audit"><rect fill="#E2E2F0" height="30.4883" style="stroke:#181818;stroke-width:0.5;" width="79.666" x="1133.1187" y="699.6992"/><rect fill="#E2E2F0" height="30.4883" style="stroke:#181818;stroke-width:0.5;" width="79.666" x="1129.1187" y="703.6992"/><text fill="#000000" font-family="sans-serif" font-size="14" lengthAdjust="spacing" textLength="65.666" x="1136.1187" y="724.2344">Audit Log</text></g><g class="message" data-participant-1="Operator" data-participant-2="UI"><polygon fill="#181818" points="401.9736,108.7988,411.9736,112.7988,401.9736,116.7988,405.9736,112.7988" style="stroke:#181818;stroke-width:1;"/><line style="stroke:#181818;stroke-width:1;" x1="70.2549" x2="407.9736" y1="112.7988" y2="112.7988"/><text fill="#000000" font-family="sans-serif" font-size="13" lengthAdjust="spacing" textLength="230.8389" x="77.2549" y="108.0566">Request StaffMember data for delete</text></g><g class="message" data-participant-1="UI" data-participant-2="Controller"><polygon fill="#181818" points="573.9883,138.1094,583.9883,142.1094,573.9883,146.1094,577.9883,142.1094" style="stroke:#181818;stroke-width:1;"/><line style="stroke:#181818;stroke-width:1;" x1="413.9736" x2="579.9883" y1="142.1094" y2="142.1094"/><text fill="#000000" font-family="sans-serif" font-size="13" lengthAdjust="spacing" textLength="148.0146" x="420.9736" y="137.3672">GetStaffMemberById(id)</text></g><g class="message" data-participant-1="Controller" data-participant-2="Service"><polygon fill="#181818" points="747.478,167.4199,757.478,171.4199,747.478,175.4199,751.478,171.4199" style="stroke:#181818;stroke-width:1;"/><line style="stroke:#181818;stroke-width:1;" x1="585.9883" x2="753.478" y1="171.4199" y2="171.4199"/><text fill="#000000" font-family="sans-serif" font-size="13" lengthAdjust="spacing" textLength="148.0146" x="592.9883" y="166.6777">GetStaffMemberById(id)</text></g><g class="message" data-participant-1="Service" data-participant-2="Repository"><polygon fill="#181818" points="1025.02,196.7305,1035.02,200.7305,1025.02,204.7305,1029.02,200.7305" style="stroke:#181818;stroke-width:1;"/><line style="stroke:#181818;stroke-width:1;" x1="759.478" x2="1031.02" y1="200.7305" y2="200.7305"/><text fill="#000000" font-family="sans-serif" font-size="13" lengthAdjust="spacing" textLength="73.5693" x="766.478" y="195.9883">FindById(id)</text></g><g class="message" data-participant-1="Repository" data-participant-2="Service"><polygon fill="#181818" points="770.478,226.041,760.478,230.041,770.478,234.041,766.478,230.041" style="stroke:#181818;stroke-width:1;"/><line style="stroke:#181818;stroke-width:1;stroke-dasharray:2,2;" x1="764.478" x2="1036.02" y1="230.041" y2="230.041"/><text fill="#000000" font-family="sans-serif" font-size="13" lengthAdjust="spacing" textLength="119.6216" x="776.478" y="225.2988">StaffMember entity</text></g><g class="message" data-participant-1="Service" data-participant-2="Controller"><polygon fill="#181818" points="596.9883,255.3516,586.9883,259.3516,596.9883,263.3516,592.9883,259.3516" style="stroke:#181818;stroke-width:1;"/><line style="stroke:#181818;stroke-width:1;stroke-dasharray:2,2;" x1="590.9883" x2="758.478" y1="259.3516" y2="259.3516"/><text fill="#000000" font-family="sans-serif" font-size="13" lengthAdjust="spacing" textLength="107.98" x="602.9883" y="254.6094">StaffMemberDTO</text></g><g class="message" data-participant-1="Controller" data-participant-2="UI"><polygon fill="#181818" points="424.9736,284.6621,414.9736,288.6621,424.9736,292.6621,420.9736,288.6621" style="stroke:#181818;stroke-width:1;"/><line style="stroke:#181818;stroke-width:1;stroke-dasharray:2,2;" x1="418.9736" x2="584.9883" y1="288.6621" y2="288.6621"/><text fill="#000000" font-family="sans-serif" font-size="13" lengthAdjust="spacing" textLength="107.98" x="430.9736" y="283.9199">StaffMemberDTO</text></g><g class="message" data-participant-1="UI" data-participant-2="Operator"><polygon fill="#181818" points="81.2549,313.9727,71.2549,317.9727,81.2549,321.9727,77.2549,317.9727" style="stroke:#181818;stroke-width:1;"/><line style="stroke:#181818;stroke-width:1;" x1="75.2549" x2="412.9736" y1="317.9727" y2="317.9727"/><text fill="#000000" font-family="sans-serif" font-size="13" lengthAdjust="spacing" textLength="319.7188" x="87.2549" y="313.2305">Display StaffMember data with delete confirmation</text></g><g class="message" data-participant-1="Operator" data-participant-2="UI"><polygon fill="#181818" points="401.9736,343.2832,411.9736,347.2832,401.9736,351.2832,405.9736,347.2832" style="stroke:#181818;stroke-width:1;"/><line style="stroke:#181818;stroke-width:1;" x1="70.2549" x2="407.9736" y1="347.2832" y2="347.2832"/><text fill="#000000" font-family="sans-serif" font-size="13" lengthAdjust="spacing" textLength="177.7217" x="77.2549" y="342.541">Confirm delete StaffMember</text></g><g class="message" data-participant-1="UI" data-participant-2="Controller"><polygon fill="#181818" points="573.9883,372.5938,583.9883,376.5938,573.9883,380.5938,577.9883,376.5938" style="stroke:#181818;stroke-width:1;"/><line style="stroke:#181818;stroke-width:1;" x1="413.9736" x2="579.9883" y1="376.5938" y2="376.5938"/><text fill="#000000" font-family="sans-serif" font-size="13" lengthAdjust="spacing" textLength="140.4038" x="420.9736" y="371.8516">DeleteStaffMember(id)</text></g><g class="message" data-participant-1="Controller" data-participant-2="Service"><polygon fill="#181818" points="747.478,401.9043,757.478,405.9043,747.478,409.9043,751.478,405.9043" style="stroke:#181818;stroke-width:1;"/><line style="stroke:#181818;stroke-width:1;" x1="585.9883" x2="753.478" y1="405.9043" y2="405.9043"/><text fill="#000000" font-family="sans-serif" font-size="13" lengthAdjust="spacing" textLength="140.4038" x="592.9883" y="401.1621">DeleteStaffMember(id)</text></g><g class="message" data-participant-1="Service" data-participant-2="Repository"><polygon fill="#181818" points="1025.02,431.2148,1035.02,435.2148,1025.02,439.2148,1029.02,435.2148" style="stroke:#181818;stroke-width:1;"/><line style="stroke:#181818;stroke-width:1;" x1="759.478" x2="1031.02" y1="435.2148" y2="435.2148"/><text fill="#000000" font-family="sans-serif" font-size="13" lengthAdjust="spacing" textLength="73.5693" x="766.478" y="430.4727">FindById(id)</text></g><g class="message" data-participant-1="Repository" data-participant-2="Service"><polygon fill="#181818" points="770.478,460.5254,760.478,464.5254,770.478,468.5254,766.478,464.5254" style="stroke:#181818;stroke-width:1;"/><line style="stroke:#181818;stroke-width:1;stroke-dasharray:2,2;" x1="764.478" x2="1036.02" y1="464.5254" y2="464.5254"/><text fill="#000000" font-family="sans-serif" font-size="13" lengthAdjust="spacing" textLength="119.6216" x="776.478" y="459.7832">StaffMember entity</text></g><g class="message" data-participant-1="Service" data-participant-2="Service"><line style="stroke:#181818;stroke-width:1;" x1="759.478" x2="801.478" y1="493.8359" y2="493.8359"/><line style="stroke:#181818;stroke-width:1;" x1="801.478" x2="801.478" y1="493.8359" y2="506.8359"/><line style="stroke:#181818;stroke-width:1;" x1="760.478" x2="801.478" y1="506.8359" y2="506.8359"/><polygon fill="#181818" points="770.478,502.8359,760.478,506.8359,770.478,510.8359,766.478,506.8359" style="stroke:#181818;stroke-width:1;"/><text fill="#000000" font-family="sans-serif" font-size="13" lengthAdjust="spacing" textLength="263.542" x="766.478" y="489.0938">Mark StaffMember as deleted (soft delete)</text></g><g class="message" data-participant-1="Service" data-participant-2="Repository"><polygon fill="#181818" points="1025.02,532.1465,1035.02,536.1465,1025.02,540.1465,1029.02,536.1465" style="stroke:#181818;stroke-width:1;"/><line style="stroke:#181818;stroke-width:1;" x1="759.478" x2="1031.02" y1="536.1465" y2="536.1465"/><text fill="#000000" font-family="sans-serif" font-size="13" lengthAdjust="spacing" textLength="168.2002" x="766.478" y="531.4043">Save updated StaffMember</text></g><g class="message" data-participant-1="Repository" data-participant-2="Service"><polygon fill="#181818" points="770.478,561.457,760.478,565.457,770.478,569.457,766.478,565.457" style="stroke:#181818;stroke-width:1;"/><line style="stroke:#181818;stroke-width:1;stroke-dasharray:2,2;" x1="764.478" x2="1036.02" y1="565.457" y2="565.457"/><text fill="#000000" font-family="sans-serif" font-size="13" lengthAdjust="spacing" textLength="176.5728" x="776.478" y="560.7148">Updated StaffMember entity</text></g><g class="message" data-participant-1="Service" data-participant-2="Audit"><polygon fill="#181818" points="1158.9517,590.7676,1168.9517,594.7676,1158.9517,598.7676,1162.9517,594.7676" style="stroke:#181818;stroke-width:1;"/><line style="stroke:#181818;stroke-width:1;" x1="759.478" x2="1164.9517" y1="594.7676" y2="594.7676"/><text fill="#000000" font-family="sans-serif" font-size="13" lengthAdjust="spacing" textLength="103.9238" x="766.478" y="590.0254">Log delete event</text></g><g class="message" data-participant-1="Service" data-participant-2="Controller"><polygon fill="#181818" points="596.9883,620.0781,586.9883,624.0781,596.9883,628.0781,592.9883,624.0781" style="stroke:#181818;stroke-width:1;"/><line style="stroke:#181818;stroke-width:1;stroke-dasharray:2,2;" x1="590.9883" x2="758.478" y1="624.0781" y2="624.0781"/><text fill="#000000" font-family="sans-serif" font-size="13" lengthAdjust="spacing" textLength="122.8335" x="602.9883" y="619.3359">Return SuccessDTO</text></g><g class="message" data-participant-1="Controller" data-participant-2="UI"><polygon fill="#181818" points="424.9736,649.3887,414.9736,653.3887,424.9736,657.3887,420.9736,653.3887" style="stroke:#181818;stroke-width:1;"/><line style="stroke:#181818;stroke-width:1;stroke-dasharray:2,2;" x1="418.9736" x2="584.9883" y1="653.3887" y2="653.3887"/><text fill="#000000" font-family="sans-serif" font-size="13" lengthAdjust="spacing" textLength="122.8335" x="430.9736" y="648.6465">Return SuccessDTO</text></g><g class="message" data-participant-1="UI" data-participant-2="Operator"><polygon fill="#181818" points="81.2549,678.6992,71.2549,682.6992,81.2549,686.6992,77.2549,682.6992" style="stroke:#181818;stroke-width:1;"/><line style="stroke:#181818;stroke-width:1;stroke-dasharray:2,2;" x1="75.2549" x2="412.9736" y1="682.6992" y2="682.6992"/><text fill="#000000" font-family="sans-serif" font-size="13" lengthAdjust="spacing" textLength="157.9297" x="87.2549" y="677.957">Display success message</text></g><!--SRC=[jPF1ReCm38RlF8N5gJlq1NgOrBNQL6bLfR8-G4fC5mq8IqmdtducWH9Qs6sNA4u-Mx__E28bRI1-rnTbIQKM3XKQmMSnY268phekfJ0DnAUTkpdjWhCZjjbe4X9Pjj4b6Ptdw4iCOPJwBSIEssDnHhEkgWJDLQNew6uVOKcAcX5vn4fRnM8QHmuXr-NoAIbTMeZNjLG4t8-ZN1H5VH-mV6RbiEBixnejGL0Vf2016KCISoIC66HyqCzfRqX1nakpamibdwA0uOokXtcy1vWTkc3yLPNo1WKtor7HKBAtQIXuhpTWjn-7aSxUYJl4DttpQmLRPQjSD8zE_IZwxAm2VjbCcKAqRp3XziPVztHGQihahQC2w4-Ff-d_ipZazi9yZM2UED-ZX8NL6NNHl9v4N17gYWtbbD2NMMsdHtX2e_y5g_OVzAxZbR7vKJaYrQQ4f4vJj7PkMXwfzW6d9yPw20fUn0L_0G00]--></g></svg>