<svg xmlns="http://www.w3.org/2000/svg" xmlns:xlink="http://www.w3.org/1999/xlink" contentStyleType="text/css" data-diagram-type="SEQUENCE" height="812px" preserveAspectRatio="none" style="width:1440px;height:812px;background:#FFFFFF;" version="1.1" viewBox="0 0 1440 812" width="1440px" zoomAndPan="magnify"><defs/><g><rect fill="none" height="514.8789" style="stroke:#000000;stroke-width:1.5;" width="1423.2212" x="10" y="199.4199"/><rect fill="none" height="338.3711" style="stroke:#000000;stroke-width:1.5;" width="1403.2212" x="20" y="368.9277"/><g><title>Logistics Operator</title><rect fill="#000000" fill-opacity="0.00000" height="649.8105" width="8" x="91.2549" y="81.4883"/><line style="stroke:#181818;stroke-width:0.5;stroke-dasharray:5,5;" x1="95" x2="95" y1="81.4883" y2="731.2988"/></g><g><title>UI</title><rect fill="#000000" fill-opacity="0.00000" height="649.8105" width="8" x="327.1587" y="81.4883"/><line style="stroke:#181818;stroke-width:0.5;stroke-dasharray:5,5;" x1="330.6587" x2="330.6587" y1="81.4883" y2="731.2988"/></g><g><title>RegisterStaffController</title><rect fill="#000000" fill-opacity="0.00000" height="649.8105" width="8" x="598.895" y="81.4883"/><line style="stroke:#181818;stroke-width:0.5;stroke-dasharray:5,5;" x1="602.748" x2="602.748" y1="81.4883" y2="731.2988"/></g><g><title>StaffMemberAppService</title><rect fill="#000000" fill-opacity="0.00000" height="649.8105" width="8" x="860.0942" y="81.4883"/><line style="stroke:#181818;stroke-width:0.5;stroke-dasharray:5,5;" x1="863.7515" x2="863.7515" y1="81.4883" y2="731.2988"/></g><g><title>StaffMemberRepository</title><rect fill="#000000" fill-opacity="0.00000" height="649.8105" width="8" x="1233.4565" y="81.4883"/><line style="stroke:#181818;stroke-width:0.5;stroke-dasharray:5,5;" x1="1237.3579" x2="1237.3579" y1="81.4883" y2="731.2988"/></g><g><title>Audit Log</title><rect fill="#000000" fill-opacity="0.00000" height="649.8105" width="8" x="1367.3882" y="81.4883"/><line style="stroke:#181818;stroke-width:0.5;stroke-dasharray:5,5;" x1="1370.5552" x2="1370.5552" y1="81.4883" y2="731.2988"/></g><g class="participant participant-head" data-participant="Operator"><text fill="#000000" font-family="sans-serif" font-size="14" lengthAdjust="spacing" textLength="124.5098" x="30" y="78.5352">Logistics Operator</text><ellipse cx="95.2549" cy="13.5" fill="#E2E2F0" rx="8" ry="8" style="stroke:#181818;stroke-width:0.5;"/><path d="M95.2549,21.5 L95.2549,48.5 M82.2549,29.5 L108.2549,29.5 M95.2549,48.5 L82.2549,63.5 M95.2549,48.5 L108.2549,63.5" fill="none" style="stroke:#181818;stroke-width:0.5;"/></g><g class="participant participant-tail" data-participant="Operator"><text fill="#000000" font-family="sans-serif" font-size="14" lengthAdjust="spacing" textLength="124.5098" x="30" y="743.834">Logistics Operator</text><ellipse cx="95.2549" cy="755.2871" fill="#E2E2F0" rx="8" ry="8" style="stroke:#181818;stroke-width:0.5;"/><path d="M95.2549,763.2871 L95.2549,790.2871 M82.2549,771.2871 L108.2549,771.2871 M95.2549,790.2871 L82.2549,805.2871 M95.2549,790.2871 L108.2549,805.2871" fill="none" style="stroke:#181818;stroke-width:0.5;"/></g><g class="participant participant-head" data-participant="UI"><text fill="#000000" font-family="sans-serif" font-size="14" lengthAdjust="spacing" textLength="13.7334" x="321.292" y="78.5352">UI</text><path d="M310.6587,37 L310.6587,61 M310.6587,49 L327.6587,49" fill="none" style="stroke:#181818;stroke-width:0.5;"/><ellipse cx="339.6587" cy="49" fill="#E2E2F0" rx="12" ry="12" style="stroke:#181818;stroke-width:0.5;"/></g><g class="participant participant-tail" data-participant="UI"><text fill="#000000" font-family="sans-serif" font-size="14" lengthAdjust="spacing" textLength="13.7334" x="321.292" y="743.834">UI</text><path d="M310.6587,750.7871 L310.6587,774.7871 M310.6587,762.7871 L327.6587,762.7871" fill="none" style="stroke:#181818;stroke-width:0.5;"/><ellipse cx="339.6587" cy="762.7871" fill="#E2E2F0" rx="12" ry="12" style="stroke:#181818;stroke-width:0.5;"/></g><g class="participant participant-head" data-participant="Controller"><text fill="#000000" font-family="sans-serif" font-size="14" lengthAdjust="spacing" textLength="154.2939" x="522.748" y="78.5352">RegisterStaffController</text><path d="M582.395,37 L582.395,61 M582.395,49 L599.395,49" fill="none" style="stroke:#181818;stroke-width:0.5;"/><ellipse cx="611.395" cy="49" fill="#E2E2F0" rx="12" ry="12" style="stroke:#181818;stroke-width:0.5;"/></g><g class="participant participant-tail" data-participant="Controller"><text fill="#000000" font-family="sans-serif" font-size="14" lengthAdjust="spacing" textLength="154.2939" x="522.748" y="743.834">RegisterStaffController</text><path d="M582.395,750.7871 L582.395,774.7871 M582.395,762.7871 L599.395,762.7871" fill="none" style="stroke:#181818;stroke-width:0.5;"/><ellipse cx="611.395" cy="762.7871" fill="#E2E2F0" rx="12" ry="12" style="stroke:#181818;stroke-width:0.5;"/></g><g class="participant participant-head" data-participant="Service"><text fill="#000000" font-family="sans-serif" font-size="14" lengthAdjust="spacing" textLength="160.6855" x="780.7515" y="78.5352">StaffMemberAppService</text><ellipse cx="864.0942" cy="49" fill="#E2E2F0" rx="12" ry="12" style="stroke:#181818;stroke-width:0.5;"/><polygon fill="#181818" points="860.0942,37,866.0942,32,864.0942,37,866.0942,42,860.0942,37" style="stroke:#181818;stroke-width:1;"/></g><g class="participant participant-tail" data-participant="Service"><text fill="#000000" font-family="sans-serif" font-size="14" lengthAdjust="spacing" textLength="160.6855" x="780.7515" y="743.834">StaffMemberAppService</text><ellipse cx="864.0942" cy="762.7871" fill="#E2E2F0" rx="12" ry="12" style="stroke:#181818;stroke-width:0.5;"/><polygon fill="#181818" points="860.0942,750.7871,866.0942,745.7871,864.0942,750.7871,866.0942,755.7871,860.0942,750.7871" style="stroke:#181818;stroke-width:1;"/></g><g class="participant participant-head" data-participant="Repository"><text fill="#000000" font-family="sans-serif" font-size="14" lengthAdjust="spacing" textLength="158.1973" x="1155.3579" y="78.5352">StaffMemberRepository</text><ellipse cx="1237.4565" cy="49" fill="#E2E2F0" rx="12" ry="12" style="stroke:#181818;stroke-width:0.5;"/><line style="stroke:#181818;stroke-width:0.5;" x1="1225.4565" x2="1249.4565" y1="63" y2="63"/></g><g class="participant participant-tail" data-participant="Repository"><text fill="#000000" font-family="sans-serif" font-size="14" lengthAdjust="spacing" textLength="158.1973" x="1155.3579" y="743.834">StaffMemberRepository</text><ellipse cx="1237.4565" cy="762.7871" fill="#E2E2F0" rx="12" ry="12" style="stroke:#181818;stroke-width:0.5;"/><line style="stroke:#181818;stroke-width:0.5;" x1="1225.4565" x2="1249.4565" y1="776.7871" y2="776.7871"/></g><g class="participant participant-head" data-participant="Audit"><rect fill="#E2E2F0" height="30.4883" style="stroke:#181818;stroke-width:0.5;" width="79.666" x="1333.5552" y="46"/><rect fill="#E2E2F0" height="30.4883" style="stroke:#181818;stroke-width:0.5;" width="79.666" x="1329.5552" y="50"/><text fill="#000000" font-family="sans-serif" font-size="14" lengthAdjust="spacing" textLength="65.666" x="1336.5552" y="70.5352">Audit Log</text></g><g class="participant participant-tail" data-participant="Audit"><rect fill="#E2E2F0" height="30.4883" style="stroke:#181818;stroke-width:0.5;" width="79.666" x="1333.5552" y="730.2988"/><rect fill="#E2E2F0" height="30.4883" style="stroke:#181818;stroke-width:0.5;" width="79.666" x="1329.5552" y="734.2988"/><text fill="#000000" font-family="sans-serif" font-size="14" lengthAdjust="spacing" textLength="65.666" x="1336.5552" y="754.834">Audit Log</text></g><g class="message" data-participant-1="Operator" data-participant-2="UI"><polygon fill="#181818" points="319.1587,108.7988,329.1587,112.7988,319.1587,116.7988,323.1587,112.7988" style="stroke:#181818;stroke-width:1;"/><line style="stroke:#181818;stroke-width:1;" x1="95.2549" x2="325.1587" y1="112.7988" y2="112.7988"/><text fill="#000000" font-family="sans-serif" font-size="13" lengthAdjust="spacing" textLength="211.9038" x="102.2549" y="108.0566">Fill StaffMember form and submit</text></g><g class="message" data-participant-1="UI" data-participant-2="Controller"><polygon fill="#181818" points="590.895,138.1094,600.895,142.1094,590.895,146.1094,594.895,142.1094" style="stroke:#181818;stroke-width:1;"/><line style="stroke:#181818;stroke-width:1;" x1="331.1587" x2="596.895" y1="142.1094" y2="142.1094"/><text fill="#000000" font-family="sans-serif" font-size="13" lengthAdjust="spacing" textLength="247.7363" x="338.1587" y="137.3672">RegisterStaffMember(StaffMemberDTO)</text></g><g class="message" data-participant-1="Controller" data-participant-2="Controller"><line style="stroke:#181818;stroke-width:1;" x1="602.895" x2="644.895" y1="171.4199" y2="171.4199"/><line style="stroke:#181818;stroke-width:1;" x1="644.895" x2="644.895" y1="171.4199" y2="184.4199"/><line style="stroke:#181818;stroke-width:1;" x1="603.895" x2="644.895" y1="184.4199" y2="184.4199"/><polygon fill="#181818" points="613.895,180.4199,603.895,184.4199,613.895,188.4199,609.895,184.4199" style="stroke:#181818;stroke-width:1;"/><text fill="#000000" font-family="sans-serif" font-size="13" lengthAdjust="spacing" textLength="125.6392" x="609.895" y="166.6777">Validate basic fields</text></g><path d="M10,199.4199 L72.1387,199.4199 L72.1387,206.7305 L62.1387,216.7305 L10,216.7305 L10,199.4199" fill="#EEEEEE" style="stroke:#000000;stroke-width:1.5;"/><rect fill="none" height="514.8789" style="stroke:#000000;stroke-width:1.5;" width="1423.2212" x="10" y="199.4199"/><text fill="#000000" font-family="sans-serif" font-size="13" font-weight="bold" lengthAdjust="spacing" textLength="17.1387" x="25" y="212.9883">alt</text><text fill="#000000" font-family="sans-serif" font-size="11" font-weight="bold" lengthAdjust="spacing" textLength="93.5269" x="87.1387" y="212.0547">[Validation fails]</text><g class="message" data-participant-1="Controller" data-participant-2="UI"><polygon fill="#181818" points="342.1587,234.041,332.1587,238.041,342.1587,242.041,338.1587,238.041" style="stroke:#181818;stroke-width:1;"/><line style="stroke:#181818;stroke-width:1;stroke-dasharray:2,2;" x1="336.1587" x2="601.895" y1="238.041" y2="238.041"/><text fill="#000000" font-family="sans-serif" font-size="13" lengthAdjust="spacing" textLength="174.7954" x="348.1587" y="233.2988">Return ValidationErrorsDTO</text></g><g class="message" data-participant-1="UI" data-participant-2="Operator"><polygon fill="#181818" points="106.2549,263.3516,96.2549,267.3516,106.2549,271.3516,102.2549,267.3516" style="stroke:#181818;stroke-width:1;"/><line style="stroke:#181818;stroke-width:1;stroke-dasharray:2,2;" x1="100.2549" x2="330.1587" y1="267.3516" y2="267.3516"/><text fill="#000000" font-family="sans-serif" font-size="13" lengthAdjust="spacing" textLength="153.5308" x="112.2549" y="262.6094">Display validation errors</text></g><line style="stroke:#000000;stroke-width:1;stroke-dasharray:2,2;" x1="10" x2="1433.2212" y1="276.3516" y2="276.3516"/><text fill="#000000" font-family="sans-serif" font-size="11" font-weight="bold" lengthAdjust="spacing" textLength="120.6777" x="15" y="286.9863">[Validation succeeds]</text><g class="message" data-participant-1="Controller" data-participant-2="Service"><polygon fill="#181818" points="852.0942,307.6172,862.0942,311.6172,852.0942,315.6172,856.0942,311.6172" style="stroke:#181818;stroke-width:1;"/><line style="stroke:#181818;stroke-width:1;" x1="602.895" x2="858.0942" y1="311.6172" y2="311.6172"/><text fill="#000000" font-family="sans-serif" font-size="13" lengthAdjust="spacing" textLength="237.1992" x="609.895" y="306.875">CreateStaffMember(StaffMemberDTO)</text></g><g class="message" data-participant-1="Service" data-participant-2="Service"><line style="stroke:#181818;stroke-width:1;" x1="864.0942" x2="906.0942" y1="340.9277" y2="340.9277"/><line style="stroke:#181818;stroke-width:1;" x1="906.0942" x2="906.0942" y1="340.9277" y2="353.9277"/><line style="stroke:#181818;stroke-width:1;" x1="865.0942" x2="906.0942" y1="353.9277" y2="353.9277"/><polygon fill="#181818" points="875.0942,349.9277,865.0942,353.9277,875.0942,357.9277,871.0942,353.9277" style="stroke:#181818;stroke-width:1;"/><text fill="#000000" font-family="sans-serif" font-size="13" lengthAdjust="spacing" textLength="145.1011" x="871.0942" y="336.1855">Validate business rules</text></g><path d="M20,368.9277 L82.1387,368.9277 L82.1387,376.2383 L72.1387,386.2383 L20,386.2383 L20,368.9277" fill="#EEEEEE" style="stroke:#000000;stroke-width:1.5;"/><rect fill="none" height="338.3711" style="stroke:#000000;stroke-width:1.5;" width="1403.2212" x="20" y="368.9277"/><text fill="#000000" font-family="sans-serif" font-size="13" font-weight="bold" lengthAdjust="spacing" textLength="17.1387" x="35" y="382.4961">alt</text><text fill="#000000" font-family="sans-serif" font-size="11" font-weight="bold" lengthAdjust="spacing" textLength="146.0508" x="97.1387" y="381.5625">[Business validation fails]</text><g class="message" data-participant-1="Service" data-participant-2="Controller"><polygon fill="#181818" points="613.895,403.5488,603.895,407.5488,613.895,411.5488,609.895,407.5488" style="stroke:#181818;stroke-width:1;"/><line style="stroke:#181818;stroke-width:1;stroke-dasharray:2,2;" x1="607.895" x2="863.0942" y1="407.5488" y2="407.5488"/><text fill="#000000" font-family="sans-serif" font-size="13" lengthAdjust="spacing" textLength="233.4033" x="619.895" y="402.8066">Return Business ValidationErrorsDTO</text></g><g class="message" data-participant-1="Controller" data-participant-2="UI"><polygon fill="#181818" points="342.1587,432.8594,332.1587,436.8594,342.1587,440.8594,338.1587,436.8594" style="stroke:#181818;stroke-width:1;"/><line style="stroke:#181818;stroke-width:1;stroke-dasharray:2,2;" x1="336.1587" x2="601.895" y1="436.8594" y2="436.8594"/><text fill="#000000" font-family="sans-serif" font-size="13" lengthAdjust="spacing" textLength="233.4033" x="348.1587" y="432.1172">Return Business ValidationErrorsDTO</text></g><g class="message" data-participant-1="UI" data-participant-2="Operator"><polygon fill="#181818" points="106.2549,462.1699,96.2549,466.1699,106.2549,470.1699,102.2549,466.1699" style="stroke:#181818;stroke-width:1;"/><line style="stroke:#181818;stroke-width:1;stroke-dasharray:2,2;" x1="100.2549" x2="330.1587" y1="466.1699" y2="466.1699"/><text fill="#000000" font-family="sans-serif" font-size="13" lengthAdjust="spacing" textLength="147.272" x="112.2549" y="461.4277">Display business errors</text></g><line style="stroke:#000000;stroke-width:1;stroke-dasharray:2,2;" x1="20" x2="1423.2212" y1="475.1699" y2="475.1699"/><text fill="#000000" font-family="sans-serif" font-size="11" font-weight="bold" lengthAdjust="spacing" textLength="173.2017" x="25" y="485.8047">[Business validation succeeds]</text><g class="message" data-participant-1="Service" data-participant-2="Service"><line style="stroke:#181818;stroke-width:1;" x1="864.0942" x2="906.0942" y1="510.4355" y2="510.4355"/><line style="stroke:#181818;stroke-width:1;" x1="906.0942" x2="906.0942" y1="510.4355" y2="523.4355"/><line style="stroke:#181818;stroke-width:1;" x1="865.0942" x2="906.0942" y1="523.4355" y2="523.4355"/><polygon fill="#181818" points="875.0942,519.4355,865.0942,523.4355,875.0942,527.4355,871.0942,523.4355" style="stroke:#181818;stroke-width:1;"/><text fill="#000000" font-family="sans-serif" font-size="13" lengthAdjust="spacing" textLength="210.3359" x="871.0942" y="505.6934">Generate mecanographic number</text></g><g class="message" data-participant-1="Service" data-participant-2="Repository"><polygon fill="#181818" points="1225.4565,548.7461,1235.4565,552.7461,1225.4565,556.7461,1229.4565,552.7461" style="stroke:#181818;stroke-width:1;"/><line style="stroke:#181818;stroke-width:1;" x1="864.0942" x2="1231.4565" y1="552.7461" y2="552.7461"/><text fill="#000000" font-family="sans-serif" font-size="13" lengthAdjust="spacing" textLength="151.8867" x="871.0942" y="548.0039">Save StaffMember entity</text></g><g class="message" data-participant-1="Repository" data-participant-2="Service"><polygon fill="#181818" points="875.0942,578.0566,865.0942,582.0566,875.0942,586.0566,871.0942,582.0566" style="stroke:#181818;stroke-width:1;"/><line style="stroke:#181818;stroke-width:1;stroke-dasharray:2,2;" x1="869.0942" x2="1236.4565" y1="582.0566" y2="582.0566"/><text fill="#000000" font-family="sans-serif" font-size="13" lengthAdjust="spacing" textLength="349.3623" x="881.0942" y="577.3145">StaffMember entity with ID and mecanographic number</text></g><g class="message" data-participant-1="Service" data-participant-2="Audit"><polygon fill="#181818" points="1359.3882,607.3672,1369.3882,611.3672,1359.3882,615.3672,1363.3882,611.3672" style="stroke:#181818;stroke-width:1;"/><line style="stroke:#181818;stroke-width:1;" x1="864.0942" x2="1365.3882" y1="611.3672" y2="611.3672"/><text fill="#000000" font-family="sans-serif" font-size="13" lengthAdjust="spacing" textLength="116.4668" x="871.0942" y="606.625">Log creation event</text></g><g class="message" data-participant-1="Service" data-participant-2="Controller"><polygon fill="#181818" points="613.895,636.6777,603.895,640.6777,613.895,644.6777,609.895,640.6777" style="stroke:#181818;stroke-width:1;"/><line style="stroke:#181818;stroke-width:1;stroke-dasharray:2,2;" x1="607.895" x2="863.0942" y1="640.6777" y2="640.6777"/><text fill="#000000" font-family="sans-serif" font-size="13" lengthAdjust="spacing" textLength="202.7568" x="619.895" y="635.9355">Return StaffMemberSuccessDTO</text></g><g class="message" data-participant-1="Controller" data-participant-2="UI"><polygon fill="#181818" points="342.1587,665.9883,332.1587,669.9883,342.1587,673.9883,338.1587,669.9883" style="stroke:#181818;stroke-width:1;"/><line style="stroke:#181818;stroke-width:1;stroke-dasharray:2,2;" x1="336.1587" x2="601.895" y1="669.9883" y2="669.9883"/><text fill="#000000" font-family="sans-serif" font-size="13" lengthAdjust="spacing" textLength="202.7568" x="348.1587" y="665.2461">Return StaffMemberSuccessDTO</text></g><g class="message" data-participant-1="UI" data-participant-2="Operator"><polygon fill="#181818" points="106.2549,695.2988,96.2549,699.2988,106.2549,703.2988,102.2549,699.2988" style="stroke:#181818;stroke-width:1;"/><line style="stroke:#181818;stroke-width:1;stroke-dasharray:2,2;" x1="100.2549" x2="330.1587" y1="699.2988" y2="699.2988"/><text fill="#000000" font-family="sans-serif" font-size="13" lengthAdjust="spacing" textLength="157.9297" x="112.2549" y="694.5566">Display success message</text></g><!--SRC=[ZLJBJiCm4BpxArOvmQ4_q4EbGW5L0Y6rmDrrDgqbruwyJb3_dhL36eS-Q4v-pEpkp7eZLN0UYbUtrHIq8dYlqKi-Aq0E6x5nZIsbFq3nkKmtdyliR8MHZNuTP5KzEXkyCmQx4CDMg6u9HSAzuNw3VbxNQ_IjLfZGlsk1DkXm625NM3lINCmX8OSjn-NmAcXd2OfvK-e0h2UXqaw8NWTCPbmvJE5P6mDPSAYStuEq9L2psJE5KOmTYcVEI6L7kylMYu_tUv4H_jA_fD6b30WRILf1fT6K9AG9_GtN3vNKXWJmbqVggrvXQBpDy4_UEq-SEL5YpGmzYft2GbDjv07Q8GCcYa13c2UcHYd4yZJthEy9Xtlqo0AkwO_i7Z-Y3keRqXQ9m3S6ktJHWuV-k3rdnYZiQL-IAyS8b-pvnzMR-9SjFkhwDJYYayddb8tSlkZP2zgO1c6FIbgtzRBUySknJRJx77MO2MQlPOkZ9zxDr96NWIUZjASS-DPX1yj56f1RY-a6SHf74LHyEEdrjHpnvfPcbQoZOtHhBwyJBpUHEZ1h999Rx9feI_uTbJy0]--></g></svg>