<svg xmlns="http://www.w3.org/2000/svg" xmlns:xlink="http://www.w3.org/1999/xlink" contentStyleType="text/css" data-diagram-type="DESCRIPTION" height="934px" preserveAspectRatio="none" style="width:659px;height:934px;background:#FFFFFF;" version="1.1" viewBox="0 0 659 934" width="659px" zoomAndPan="magnify"><title>Main Use Case Diagram</title><defs><filter height="300%" id="f1irwa2mjrsm02" width="300%" x="-1" y="-1"><feGaussianBlur result="blurOut" stdDeviation="2"/><feColorMatrix in="blurOut" result="blurOut2" type="matrix" values="0 0 0 0 0 0 0 0 0 0 0 0 0 0 0 0 0 0 .4 0"/><feOffset dx="4" dy="4" in="blurOut2" result="blurOut3"/><feBlend in="SourceGraphic" in2="blurOut3" mode="normal"/></filter></defs><g><g class="title" data-source-line="9"><text fill="#000000" font-family="sans-serif" font-size="14" font-weight="bold" lengthAdjust="spacing" textLength="170.5703" x="237.2798" y="23.5352">Main Use Case Diagram</text></g><!--cluster actors--><g class="cluster" data-entity="actors" data-source-line="13" data-uid="ent0002" id="cluster_actors"><rect fill="none" filter="url(#f1irwa2mjrsm02)" height="245" rx="2.5" ry="2.5" style="stroke:#000000;stroke-width:1;" width="224" x="7" y="397.4883"/><text fill="#000000" font-family="sans-serif" font-size="14" font-weight="bold" lengthAdjust="spacing" textLength="102.7988" x="14.5366" y="413.0234">System Actors</text></g><!--cluster usecases--><g class="cluster" data-entity="usecases" data-source-line="19" data-uid="ent0005" id="cluster_usecases"><rect fill="none" filter="url(#f1irwa2mjrsm02)" height="878" rx="2.5" ry="2.5" style="stroke:#000000;stroke-width:1;" width="327.13" x="320" y="44.4883"/><text fill="#000000" font-family="sans-serif" font-size="14" font-weight="bold" lengthAdjust="spacing" textLength="60.0332" x="453.5484" y="60.0234">Backend</text></g><!--entity PAO--><g class="entity" data-entity="PAO" data-source-line="14" data-uid="ent0003" id="entity_PAO"><ellipse cx="118.4987" cy="441.2483" fill="#F1F1F1" filter="url(#f1irwa2mjrsm02)" rx="8" ry="8" style="stroke:#181818;stroke-width:0.5;"/><path d="M118.4987,449.2483 L118.4987,476.2483 M105.4987,457.2483 L131.4987,457.2483 M118.4987,476.2483 L105.4987,491.2483 M118.4987,476.2483 L131.4987,491.2483" fill="none" filter="url(#f1irwa2mjrsm02)" style="stroke:#181818;stroke-width:0.5;"/><text fill="#000000" font-family="sans-serif" font-size="14" lengthAdjust="spacing" textLength="145.2773" x="45.86" y="509.2834">Port Authority Officer</text></g><!--entity LO--><g class="entity" data-entity="LO" data-source-line="15" data-uid="ent0004" id="entity_LO"><ellipse cx="118.5049" cy="555.2483" fill="#F1F1F1" filter="url(#f1irwa2mjrsm02)" rx="8" ry="8" style="stroke:#181818;stroke-width:0.5;"/><path d="M118.5049,563.2483 L118.5049,590.2483 M105.5049,571.2483 L131.5049,571.2483 M118.5049,590.2483 L105.5049,605.2483 M118.5049,590.2483 L131.5049,605.2483" fill="none" filter="url(#f1irwa2mjrsm02)" style="stroke:#181818;stroke-width:0.5;"/><text fill="#000000" font-family="sans-serif" font-size="14" lengthAdjust="spacing" textLength="124.5098" x="56.25" y="623.2834">Logistics Operator</text></g><!--entity CUVT--><g class="entity" data-entity="CUVT" data-source-line="20" data-uid="ent0006" id="entity_CUVT"><ellipse cx="483.569" cy="102.4841" fill="#F1F1F1" rx="105.479" ry="23.4958" style="stroke:#181818;stroke-width:0.5;"/><text fill="#000000" font-family="sans-serif" font-size="14" lengthAdjust="spacing" textLength="187.6465" x="389.7458" y="107.2282">Create/Update Vessel types</text></g><!--entity CUVR--><g class="entity" data-entity="CUVR" data-source-line="21" data-uid="ent0007" id="entity_CUVR"><ellipse cx="483.5674" cy="185.4858" fill="#F1F1F1" rx="112.2374" ry="24.8475" style="stroke:#181818;stroke-width:0.5;"/><text fill="#000000" font-family="sans-serif" font-size="14" lengthAdjust="spacing" textLength="202.3232" x="382.4058" y="190.2299">Create/Update Vessel records</text></g><!--entity CUD--><g class="entity" data-entity="CUD" data-source-line="22" data-uid="ent0008" id="entity_CUD"><ellipse cx="483.572" cy="265.4847" fill="#F1F1F1" rx="86.582" ry="19.7164" style="stroke:#181818;stroke-width:0.5;"/><text fill="#000000" font-family="sans-serif" font-size="14" lengthAdjust="spacing" textLength="145.4209" x="410.8616" y="270.2288">Create/Update Docks</text></g><!--entity CUSA--><g class="entity" data-entity="CUSA" data-source-line="23" data-uid="ent0009" id="entity_CUSA"><ellipse cx="483.5701" cy="345.4883" fill="#F1F1F1" rx="113.4001" ry="25.08" style="stroke:#181818;stroke-width:0.5;"/><text fill="#000000" font-family="sans-serif" font-size="14" lengthAdjust="spacing" textLength="204.832" x="381.1541" y="350.2324">Create/Update Storages Areas</text></g><!--entity RSAO--><g class="entity" data-entity="RSAO" data-source-line="24" data-uid="ent0010" id="entity_RSAO"><ellipse cx="483.5728" cy="429.4848" fill="#F1F1F1" rx="108.1328" ry="24.0266" style="stroke:#181818;stroke-width:0.5;"/><text fill="#000000" font-family="sans-serif" font-size="14" lengthAdjust="spacing" textLength="193.4297" x="386.858" y="434.229">Register Shipping Agent Org</text></g><!--entity RSAR--><g class="entity" data-entity="RSAR" data-source-line="25" data-uid="ent0011" id="entity_RSAR"><ellipse cx="483.5727" cy="513.4868" fill="#F1F1F1" rx="114.7427" ry="25.3485" style="stroke:#181818;stroke-width:0.5;"/><text fill="#000000" font-family="sans-serif" font-size="14" lengthAdjust="spacing" textLength="207.7236" x="379.7108" y="518.231">Create/Update/Deactivate SAR</text></g><!--entity ARVVN--><g class="entity" data-entity="ARVVN" data-source-line="26" data-uid="ent0012" id="entity_ARVVN"><ellipse cx="483.5657" cy="605.4914" fill="#F1F1F1" rx="147.5657" ry="31.9131" style="stroke:#181818;stroke-width:0.5;"/><text fill="#000000" font-family="sans-serif" font-size="14" lengthAdjust="spacing" textLength="277.1289" x="345.0013" y="610.2356">Approve/Reject Vessel Visit Notifications</text></g><!--entity RMOS--><g class="entity" data-entity="RMOS" data-source-line="36" data-uid="ent0020" id="entity_RMOS"><ellipse cx="483.565" cy="699.4873" fill="#F1F1F1" rx="121.745" ry="26.749" style="stroke:#181818;stroke-width:0.5;"/><text fill="#000000" font-family="sans-serif" font-size="14" lengthAdjust="spacing" textLength="222.7217" x="372.2042" y="704.2314">Register/Manage Operating Staff</text></g><!--entity RMPR--><g class="entity" data-entity="RMPR" data-source-line="37" data-uid="ent0021" id="entity_RMPR"><ellipse cx="483.5749" cy="790.4933" fill="#F1F1F1" rx="133.2249" ry="29.045" style="stroke:#181818;stroke-width:0.5;"/><text fill="#000000" font-family="sans-serif" font-size="14" lengthAdjust="spacing" textLength="247.0576" x="360.046" y="795.2374">Register/Manage Physical Resources</text></g><!--entity RMQ--><g class="entity" data-entity="RMQ" data-source-line="38" data-uid="ent0022" id="entity_RMQ"><ellipse cx="483.5653" cy="880.4913" fill="#F1F1F1" rx="117.2153" ry="25.8431" style="stroke:#181818;stroke-width:0.5;"/><text fill="#000000" font-family="sans-serif" font-size="14" lengthAdjust="spacing" textLength="213.0352" x="377.0477" y="885.2355">Register/Manage Qualifications</text></g><!--link PAO to CUVT--><g class="link" data-entity-1="PAO" data-entity-2="CUVT" data-source-line="28" data-uid="lnk13" id="link_PAO_CUVT"><path d="M131.43,432.2783 C154.36,362.2183 211.44,218.1483 312,143.4883 C333.4,127.5983 354.247,119.1519 380.127,113.1119" fill="none" id="PAO-to-CUVT" style="stroke:#181818;stroke-width:2;"/><polygon fill="#181818" points="385.97,111.7483,376.2964,109.8985,381.1008,112.8847,378.1146,117.6891,385.97,111.7483" style="stroke:#181818;stroke-width:2;"/></g><!--link PAO to CUVR--><g class="link" data-entity-1="PAO" data-entity-2="CUVR" data-source-line="29" data-uid="lnk14" id="link_PAO_CUVR"><path d="M140.03,432.4183 C170.16,377.7283 231.62,280.5683 312,228.4883 C334.17,214.1283 355.0077,206.0076 380.5977,199.6376" fill="none" id="PAO-to-CUVR" style="stroke:#181818;stroke-width:2;"/><polygon fill="#181818" points="386.42,198.1883,376.7203,196.4807,381.5681,199.3961,378.6527,204.2438,386.42,198.1883" style="stroke:#181818;stroke-width:2;"/></g><!--link PAO to CUD--><g class="link" data-entity-1="PAO" data-entity-2="CUD" data-source-line="30" data-uid="lnk15" id="link_PAO_CUD"><path d="M153.56,432.2883 C189.07,393.0583 248.35,334.6983 312,302.4883 C340.52,288.0483 368.5936,280.284 398.6936,274.904" fill="none" id="PAO-to-CUD" style="stroke:#181818;stroke-width:2;"/><polygon fill="#181818" points="404.6,273.8483,395.0366,271.4942,399.678,274.728,396.4442,279.3694,404.6,273.8483" style="stroke:#181818;stroke-width:2;"/></g><!--link PAO to CUSA--><g class="link" data-entity-1="PAO" data-entity-2="CUSA" data-source-line="31" data-uid="lnk16" id="link_PAO_CUSA"><path d="M191.44,437.1483 C227.11,420.5483 271.2,401.3983 312,387.4883 C340.29,377.8383 366.0727,370.8159 394.3427,364.0959" fill="none" id="PAO-to-CUSA" style="stroke:#181818;stroke-width:2;"/><polygon fill="#181818" points="400.18,362.7083,390.4989,360.8981,395.3155,363.8646,392.349,368.6812,400.18,362.7083" style="stroke:#181818;stroke-width:2;"/></g><!--link PAO to RSAO--><g class="link" data-entity-1="PAO" data-entity-2="RSAO" data-source-line="32" data-uid="lnk17" id="link_PAO_RSAO"><path d="M191.23,463.9883 C247.34,457.3483 319.9016,448.7539 381.2916,441.4839" fill="none" id="PAO-to-RSAO" style="stroke:#181818;stroke-width:2;"/><polygon fill="#181818" points="387.25,440.7783,377.842,437.8645,382.2847,441.3663,378.7829,445.8089,387.25,440.7783" style="stroke:#181818;stroke-width:2;"/></g><!--link PAO to RSAR--><g class="link" data-entity-1="PAO" data-entity-2="RSAR" data-source-line="33" data-uid="lnk18" id="link_PAO_RSAR"><path d="M191.23,480.5883 C245.37,486.6983 314.4278,494.5056 374.7878,501.3156" fill="none" id="PAO-to-RSAR" style="stroke:#181818;stroke-width:2;"/><polygon fill="#181818" points="380.75,501.9883,372.2552,497.0045,375.7815,501.4277,371.3583,504.9541,380.75,501.9883" style="stroke:#181818;stroke-width:2;"/></g><!--link PAO to ARVVN--><g class="link" data-entity-1="PAO" data-entity-2="ARVVN" data-source-line="34" data-uid="lnk19" id="link_PAO_ARVVN"><path d="M191.26,506.4883 C227.08,522.7683 271.35,541.8483 312,556.4883 C336.49,565.3083 357.6339,571.9893 382.6939,579.1993" fill="none" id="PAO-to-ARVVN" style="stroke:#181818;stroke-width:2;"/><polygon fill="#181818" points="388.46,580.8583,380.9168,574.5258,383.6549,579.4758,378.7049,582.2139,388.46,580.8583" style="stroke:#181818;stroke-width:2;"/></g><!--link LO to RMOS--><g class="link" data-entity-1="LO" data-entity-2="RMOS" data-source-line="40" data-uid="lnk23" id="link_LO_RMOS"><path d="M181.06,609.6783 C218.63,623.4683 267.79,640.8783 312,654.4883 C340.83,663.3683 366.9223,670.5715 395.2523,677.9215" fill="none" id="LO-to-RMOS" style="stroke:#181818;stroke-width:1;"/><polygon fill="#181818" points="401.06,679.4283,393.3529,673.2963,396.2202,678.1726,391.3439,681.0399,401.06,679.4283" style="stroke:#181818;stroke-width:1;"/></g><!--link LO to RMPR--><g class="link" data-entity-1="LO" data-entity-2="RMPR" data-source-line="41" data-uid="lnk24" id="link_LO_RMPR"><path d="M158.37,626.5483 C194.94,662.0683 252.79,712.9283 312,743.4883 C334.38,755.0383 354.1441,762.3937 378.5341,769.2537" fill="none" id="LO-to-RMPR" style="stroke:#181818;stroke-width:1;"/><polygon fill="#181818" points="384.31,770.8783,376.7292,764.5909,379.4968,769.5245,374.5631,772.2921,384.31,770.8783" style="stroke:#181818;stroke-width:1;"/></g><!--link LO to RMQ--><g class="link" data-entity-1="LO" data-entity-2="RMQ" data-source-line="42" data-uid="lnk25" id="link_LO_RMQ"><path d="M138.98,626.2883 C168.48,682.2783 229.87,783.4783 312,837.4883 C333.05,851.3283 352.4434,859.2073 376.9234,865.5773" fill="none" id="LO-to-RMQ" style="stroke:#181818;stroke-width:1;"/><polygon fill="#181818" points="382.73,867.0883,375.0274,860.9508,377.8911,865.8291,373.0127,868.6929,382.73,867.0883" style="stroke:#181818;stroke-width:1;"/></g><!--SRC=[ZL9DZvj03BtFhx1oN-KNj18RZc59XeRx50pCXZ1eRBP2LVzxpMSfNKMT0yYUzso_vw6xRLhZpGCUhd5PvTq3eJ0reQBrgZNPtPIOS5yZUCpOD6Mz1L1bSlV3DYMmxr1jRbRqJmLoNftFqPzSxJnyhwMi-gKKMvQwaR4Dt0ZXPEGJMbCANwaQ2mPsu6rPCUHsA6XTezHQ6Gv9JumF239sdk3pSm13O2R4DCiOmE7YF4FGSUMyvHxYeh0P-X5-2U8jyknAIsmpWhX5RoGteixn868xpwi8moOVRpl2J0JHr7EEu73oQ1YFjpQN7wH8X3LmtoADhDCj_VOV1EafXguK_OmIkko-8CDdm4I4oRO90aalZ2Jucw9ny08z99Ljss7pGOaDG-pBaQ6JsRlFcnn355FjnzWlq0jb9o1eM-y-yAZnNSnTHAUMBCEROokRCiDZc8OCT9g-gR62B0vUlhny_UFZDgFtcN2VcDMkcLNDDhChisd_Zql7o3HYwVnk1hSIDaKnoOxYv3dhKlKaIclGIAxpsVn6T7JHpudNpjGxatHqdMOyozY3ZgNx6iz5r_Wgh_it]--></g></svg>