<svg xmlns="http://www.w3.org/2000/svg" xmlns:xlink="http://www.w3.org/1999/xlink" contentStyleType="text/css" data-diagram-type="CLASS" height="504px" preserveAspectRatio="none" style="width:648px;height:504px;background:#FFFFFF;" version="1.1" viewBox="0 0 648 504" width="648px" zoomAndPan="magnify"><title>US 4.1.13 - Incident Management (Domain Excerpt)</title><defs/><g><g class="title" data-source-line="3"><text fill="#000000" font-family="sans-serif" font-size="14" font-weight="bold" lengthAdjust="spacing" textLength="369.0518" x="132.7607" y="23.5352">US 4.1.13 - Incident Management (Domain Excerpt)</text></g><!--class Incident--><g class="entity" data-entity="Incident" data-source-line="5" data-uid="ent0002" id="entity_Incident"><rect fill="#F1F1F1" height="229.3711" rx="2.5" ry="2.5" style="stroke:#181818;stroke-width:0.5;" width="292.1709" x="79.83" y="44.4883"/><ellipse cx="194.4277" cy="60.4883" fill="#C2C2C2" rx="11" ry="11" style="stroke:#181818;stroke-width:1;"/><path d="M197.4008,66.1313 Q196.8197,66.4302 196.1806,66.5796 Q195.5414,66.729 194.8359,66.729 Q192.329,66.729 191.0092,65.0771 Q189.6894,63.4253 189.6894,60.3042 Q189.6894,57.1748 191.0092,55.5229 Q192.329,53.8711 194.8359,53.8711 Q195.5414,53.8711 196.1889,54.0205 Q196.8363,54.1699 197.4008,54.4688 L197.4008,57.1914 Q196.7699,56.6104 196.1764,56.3406 Q195.5829,56.0708 194.9521,56.0708 Q193.6073,56.0708 192.9225,57.1375 Q192.2377,58.2041 192.2377,60.3042 Q192.2377,62.396 192.9225,63.4626 Q193.6073,64.5293 194.9521,64.5293 Q195.5829,64.5293 196.1764,64.2595 Q196.7699,63.9897 197.4008,63.4087 Z " fill="#000000"/><text fill="#000000" font-family="sans-serif" font-size="14" lengthAdjust="spacing" textLength="54.4756" x="214.9277" y="65.7793">Incident</text><line style="stroke:#181818;stroke-width:0.5;" x1="80.83" x2="371.0009" y1="76.4883" y2="76.4883"/><ellipse cx="90.83" cy="90.2324" fill="none" rx="3" ry="3" style="stroke:#545454;stroke-width:1;"/><text fill="#000000" font-family="sans-serif" font-size="14" lengthAdjust="spacing" textLength="116.1631" x="99.83" y="94.0234">incidentId: String</text><ellipse cx="90.83" cy="106.7207" fill="none" rx="3" ry="3" style="stroke:#545454;stroke-width:1;"/><text fill="#000000" font-family="sans-serif" font-size="14" lengthAdjust="spacing" textLength="170.9941" x="99.83" y="110.5117">incidentTypeCode: String</text><ellipse cx="90.83" cy="123.209" fill="none" rx="3" ry="3" style="stroke:#545454;stroke-width:1;"/><text fill="#000000" font-family="sans-serif" font-size="14" lengthAdjust="spacing" textLength="138.7217" x="99.83" y="127">startTime: DateTime</text><ellipse cx="90.83" cy="139.6973" fill="none" rx="3" ry="3" style="stroke:#545454;stroke-width:1;"/><text fill="#000000" font-family="sans-serif" font-size="14" lengthAdjust="spacing" textLength="173.0518" x="99.83" y="143.4883">endTime: DateTime [0..1]</text><ellipse cx="90.83" cy="156.1855" fill="none" rx="3" ry="3" style="stroke:#545454;stroke-width:1;"/><text fill="#000000" font-family="sans-serif" font-size="14" lengthAdjust="spacing" textLength="213.8896" x="99.83" y="159.9766">durationMinutes: long [derived]</text><ellipse cx="90.83" cy="172.6738" fill="none" rx="3" ry="3" style="stroke:#545454;stroke-width:1;"/><text fill="#000000" font-family="sans-serif" font-size="14" lengthAdjust="spacing" textLength="113.8799" x="99.83" y="176.4648">severity: Severity</text><ellipse cx="90.83" cy="189.1621" fill="none" rx="3" ry="3" style="stroke:#545454;stroke-width:1;"/><text fill="#000000" font-family="sans-serif" font-size="14" lengthAdjust="spacing" textLength="124.9063" x="99.83" y="192.9531">description: String</text><ellipse cx="90.83" cy="205.6504" fill="none" rx="3" ry="3" style="stroke:#545454;stroke-width:1;"/><text fill="#000000" font-family="sans-serif" font-size="14" lengthAdjust="spacing" textLength="157.6846" x="99.83" y="209.4414">createdByUserId: String</text><ellipse cx="90.83" cy="222.1387" fill="none" rx="3" ry="3" style="stroke:#545454;stroke-width:1;"/><text fill="#000000" font-family="sans-serif" font-size="14" lengthAdjust="spacing" textLength="175.5195" x="99.83" y="225.9297">impactMode: ImpactMode</text><ellipse cx="90.83" cy="238.627" fill="none" rx="3" ry="3" style="stroke:#545454;stroke-width:1;"/><text fill="#000000" font-family="sans-serif" font-size="14" lengthAdjust="spacing" textLength="266.1709" x="99.83" y="242.418">upcomingWindowStart: DateTime [0..1]</text><ellipse cx="90.83" cy="255.1152" fill="none" rx="3" ry="3" style="stroke:#545454;stroke-width:1;"/><text fill="#000000" font-family="sans-serif" font-size="14" lengthAdjust="spacing" textLength="259.7861" x="99.83" y="258.9063">upcomingWindowEnd: DateTime [0..1]</text><line style="stroke:#181818;stroke-width:0.5;" x1="80.83" x2="371.0009" y1="265.8594" y2="265.8594"/></g><!--class IncidentType--><g class="entity" data-entity="IncidentType" data-source-line="19" data-uid="ent0003" id="entity_IncidentType"><rect fill="#F1F1F1" height="130.4414" rx="2.5" ry="2.5" style="stroke:#181818;stroke-width:0.5;" width="193.8223" x="7" y="359.0983"/><ellipse cx="56.0342" cy="375.0983" fill="#C2C2C2" rx="11" ry="11" style="stroke:#181818;stroke-width:1;"/><path d="M59.0073,380.7413 Q58.4263,381.0402 57.7871,381.1896 Q57.1479,381.339 56.4424,381.339 Q53.9355,381.339 52.6157,379.6871 Q51.2959,378.0353 51.2959,374.9142 Q51.2959,371.7848 52.6157,370.1329 Q53.9355,368.4811 56.4424,368.4811 Q57.1479,368.4811 57.7954,368.6305 Q58.4429,368.7799 59.0073,369.0788 L59.0073,371.8014 Q58.3765,371.2204 57.783,370.9506 Q57.1895,370.6808 56.5586,370.6808 Q55.2139,370.6808 54.5291,371.7475 Q53.8442,372.8141 53.8442,374.9142 Q53.8442,377.006 54.5291,378.0726 Q55.2139,379.1393 56.5586,379.1393 Q57.1895,379.1393 57.783,378.8695 Q58.3765,378.5997 59.0073,378.0187 Z " fill="#000000"/><text fill="#000000" font-family="sans-serif" font-size="14" lengthAdjust="spacing" textLength="87.2539" x="76.5342" y="380.3893">IncidentType</text><line style="stroke:#181818;stroke-width:0.5;" x1="8" x2="199.8223" y1="391.0983" y2="391.0983"/><ellipse cx="18" cy="404.8424" fill="none" rx="3" ry="3" style="stroke:#545454;stroke-width:1;"/><text fill="#000000" font-family="sans-serif" font-size="14" lengthAdjust="spacing" textLength="81.2109" x="27" y="408.6334">code: String</text><ellipse cx="18" cy="421.3307" fill="none" rx="3" ry="3" style="stroke:#545454;stroke-width:1;"/><text fill="#000000" font-family="sans-serif" font-size="14" lengthAdjust="spacing" textLength="86.1191" x="27" y="425.1217">name: String</text><ellipse cx="18" cy="437.819" fill="none" rx="3" ry="3" style="stroke:#545454;stroke-width:1;"/><text fill="#000000" font-family="sans-serif" font-size="14" lengthAdjust="spacing" textLength="124.9063" x="27" y="441.61">description: String</text><ellipse cx="18" cy="454.3073" fill="none" rx="3" ry="3" style="stroke:#545454;stroke-width:1;"/><text fill="#000000" font-family="sans-serif" font-size="14" lengthAdjust="spacing" textLength="113.8799" x="27" y="458.0983">severity: Severity</text><ellipse cx="18" cy="470.7955" fill="none" rx="3" ry="3" style="stroke:#545454;stroke-width:1;"/><text fill="#000000" font-family="sans-serif" font-size="14" lengthAdjust="spacing" textLength="167.8223" x="27" y="474.5866">parentCode: String [0..1]</text><line style="stroke:#181818;stroke-width:0.5;" x1="8" x2="199.8223" y1="481.5397" y2="481.5397"/></g><!--class VVE--><g class="entity" data-entity="VVE" data-source-line="27" data-uid="ent0004" id="entity_VVE"><rect fill="#F1F1F1" height="146.9297" rx="2.5" ry="2.5" style="stroke:#181818;stroke-width:0.5;" width="226.0332" x="235.89" y="350.8583"/><ellipse cx="331.7093" cy="366.8583" fill="#C2C2C2" rx="11" ry="11" style="stroke:#181818;stroke-width:1;"/><path d="M334.6825,372.5013 Q334.1014,372.8002 333.4623,372.9496 Q332.8231,373.099 332.1175,373.099 Q329.6107,373.099 328.2909,371.4471 Q326.9711,369.7953 326.9711,366.6742 Q326.9711,363.5448 328.2909,361.8929 Q329.6107,360.2411 332.1175,360.2411 Q332.8231,360.2411 333.4706,360.3905 Q334.118,360.5399 334.6825,360.8388 L334.6825,363.5614 Q334.0516,362.9804 333.4581,362.7106 Q332.8646,362.4408 332.2338,362.4408 Q330.889,362.4408 330.2042,363.5075 Q329.5194,364.5741 329.5194,366.6742 Q329.5194,368.766 330.2042,369.8326 Q330.889,370.8993 332.2338,370.8993 Q332.8646,370.8993 333.4581,370.6295 Q334.0516,370.3597 334.6825,369.7787 Z " fill="#000000"/><text fill="#000000" font-family="sans-serif" font-size="14" lengthAdjust="spacing" textLength="25.8945" x="352.2093" y="372.1493">VVE</text><line style="stroke:#181818;stroke-width:0.5;" x1="236.89" x2="460.9232" y1="382.8583" y2="382.8583"/><ellipse cx="246.89" cy="396.6024" fill="none" rx="3" ry="3" style="stroke:#545454;stroke-width:1;"/><text fill="#000000" font-family="sans-serif" font-size="14" lengthAdjust="spacing" textLength="83.9658" x="255.89" y="400.3934">vveId: String</text><ellipse cx="246.89" cy="413.0907" fill="none" rx="3" ry="3" style="stroke:#545454;stroke-width:1;"/><text fill="#000000" font-family="sans-serif" font-size="14" lengthAdjust="spacing" textLength="102.8398" x="255.89" y="416.8817">vesselId: String</text><ellipse cx="246.89" cy="429.579" fill="none" rx="3" ry="3" style="stroke:#545454;stroke-width:1;"/><text fill="#000000" font-family="sans-serif" font-size="14" lengthAdjust="spacing" textLength="200.0332" x="255.89" y="433.37">plannedStart: DateTime [0..1]</text><ellipse cx="246.89" cy="446.0673" fill="none" rx="3" ry="3" style="stroke:#545454;stroke-width:1;"/><text fill="#000000" font-family="sans-serif" font-size="14" lengthAdjust="spacing" textLength="193.6484" x="255.89" y="449.8583">plannedEnd: DateTime [0..1]</text><ellipse cx="246.89" cy="462.5555" fill="none" rx="3" ry="3" style="stroke:#545454;stroke-width:1;"/><text fill="#000000" font-family="sans-serif" font-size="14" lengthAdjust="spacing" textLength="186.0605" x="255.89" y="466.3466">actualStart: DateTime [0..1]</text><ellipse cx="246.89" cy="479.0438" fill="none" rx="3" ry="3" style="stroke:#545454;stroke-width:1;"/><text fill="#000000" font-family="sans-serif" font-size="14" lengthAdjust="spacing" textLength="179.6758" x="255.89" y="482.8348">actualEnd: DateTime [0..1]</text><line style="stroke:#181818;stroke-width:0.5;" x1="236.89" x2="460.9232" y1="489.788" y2="489.788"/></g><!--class Severity--><g class="entity" data-entity="Severity" data-source-line="38" data-uid="ent0005" id="entity_Severity"><rect fill="#F1F1F1" height="97.4648" rx="2.5" ry="2.5" style="stroke:#181818;stroke-width:0.5;" width="84.7119" x="406.56" y="110.4383"/><ellipse cx="421.56" cy="126.4383" fill="#ABABAB" rx="11" ry="11" style="stroke:#181818;stroke-width:1;"/><path d="M425.6743,132.4383 L417.9545,132.4383 L417.9545,120.0452 L425.6743,120.0452 L425.6743,122.2034 L420.4033,122.2034 L420.4033,124.8763 L425.1762,124.8763 L425.1762,127.0345 L420.4033,127.0345 L420.4033,130.2801 L425.6743,130.2801 Z " fill="#000000"/><text fill="#000000" font-family="sans-serif" font-size="14" lengthAdjust="spacing" textLength="52.7119" x="435.56" y="131.7293">Severity</text><line style="stroke:#181818;stroke-width:0.5;" x1="407.56" x2="490.2719" y1="142.4383" y2="142.4383"/><text fill="#000000" font-family="sans-serif" font-size="14" lengthAdjust="spacing" textLength="39.1221" x="412.56" y="159.9734">Minor</text><text fill="#000000" font-family="sans-serif" font-size="14" lengthAdjust="spacing" textLength="38.377" x="412.56" y="176.4617">Major</text><text fill="#000000" font-family="sans-serif" font-size="14" lengthAdjust="spacing" textLength="47.6943" x="412.56" y="192.95">Critical</text><line style="stroke:#181818;stroke-width:0.5;" x1="407.56" x2="490.2719" y1="199.9031" y2="199.9031"/></g><!--class ImpactMode--><g class="entity" data-entity="ImpactMode" data-source-line="44" data-uid="ent0006" id="entity_ImpactMode"><rect fill="#F1F1F1" height="97.4648" rx="2.5" ry="2.5" style="stroke:#181818;stroke-width:0.5;" width="115.3232" x="526.25" y="110.4383"/><ellipse cx="541.25" cy="126.4383" fill="#ABABAB" rx="11" ry="11" style="stroke:#181818;stroke-width:1;"/><path d="M545.3643,132.4383 L537.6445,132.4383 L537.6445,120.0452 L545.3643,120.0452 L545.3643,122.2034 L540.0933,122.2034 L540.0933,124.8763 L544.8662,124.8763 L544.8662,127.0345 L540.0933,127.0345 L540.0933,130.2801 L545.3643,130.2801 Z " fill="#000000"/><text fill="#000000" font-family="sans-serif" font-size="14" lengthAdjust="spacing" textLength="83.3232" x="555.25" y="131.7293">ImpactMode</text><line style="stroke:#181818;stroke-width:0.5;" x1="527.25" x2="640.5732" y1="142.4383" y2="142.4383"/><text fill="#000000" font-family="sans-serif" font-size="14" lengthAdjust="spacing" textLength="98.2939" x="532.25" y="159.9734">ALL_ONGOING</text><text fill="#000000" font-family="sans-serif" font-size="14" lengthAdjust="spacing" textLength="98.2461" x="532.25" y="176.4617">SPECIFIC_VVES</text><text fill="#000000" font-family="sans-serif" font-size="14" lengthAdjust="spacing" textLength="74.5527" x="532.25" y="192.95">UPCOMING</text><line style="stroke:#181818;stroke-width:0.5;" x1="527.25" x2="640.5732" y1="199.9031" y2="199.9031"/></g><!--link Incident to IncidentType--><g class="link" data-entity-1="Incident" data-entity-2="IncidentType" data-source-line="50" data-uid="lnk7" id="link_Incident_IncidentType"><path codeLine="50" d="M173.11,274.0683 C159.65,303.0983 148.1738,327.8549 136.3138,353.4349" fill="none" id="Incident-to-IncidentType" style="stroke:#181818;stroke-width:1;"/><polygon fill="#181818" points="133.79,358.8783,141.2046,352.3957,135.8932,354.3421,133.9468,349.0307,133.79,358.8783" style="stroke:#181818;stroke-width:1;"/><text fill="#000000" font-family="sans-serif" font-size="13" lengthAdjust="spacing" textLength="76.4893" x="158.61" y="317.4266">classified as</text><text fill="#000000" font-family="sans-serif" font-size="13" lengthAdjust="spacing" textLength="22.7119" x="147.0453" y="294.4875">0..*</text><text fill="#000000" font-family="sans-serif" font-size="13" lengthAdjust="spacing" textLength="8.2202" x="128.6325" y="348.4857">1</text></g><!--link Incident to VVE--><g class="link" data-entity-1="Incident" data-entity-2="VVE" data-source-line="51" data-uid="lnk8" id="link_Incident_VVE"><path codeLine="51" d="M279.15,274.0683 C291.29,300.0383 301.3308,321.5121 312.4008,345.2121" fill="none" id="Incident-to-VVE" style="stroke:#181818;stroke-width:1;"/><polygon fill="#181818" points="314.94,350.6483,314.7554,340.8012,312.824,346.1181,307.5071,344.1867,314.94,350.6483" style="stroke:#181818;stroke-width:1;"/><text fill="#000000" font-family="sans-serif" font-size="13" lengthAdjust="spacing" textLength="21.874" x="299.43" y="317.4266">has</text><text fill="#000000" font-family="sans-serif" font-size="13" lengthAdjust="spacing" textLength="8.2202" x="274.3111" y="294.4875">1</text><text fill="#000000" font-family="sans-serif" font-size="13" lengthAdjust="spacing" textLength="22.7119" x="288.5486" y="340.2413">0..*</text></g><!--SRC=[TLBFJ_Cm3Btthx1sueSsKS5f1wIFCb0bnf3A-0u88IinBD0aLP8M9iJ_ZjDDentRARRVS_tyNF-kJ8KEDMXhh5Wugmc2godn6yGlKDeFPLxX1KjFIL2X99WNS3PAH-af324tGaao0QPey9Lq30ykhKPbOF8fo5NXC4b4YTx_ShyIW6Erpd8vXY8u7jAjtYyhogoaBkO3kd2lD1SlCL2COfcCx1VXyMGqIfyY9ck7GLapLQOEvCTGMbxcKP9J3ScMugdXB2nvqZfg6yaBfwhOsvKW7F4GUR6SUt9RodM58anRpVacZaXT2QkPzLyPThE8M-mKs-TDZFpB-jxsClgqybDikMLGz_8z6-rUdy_F7-yUu8-2XuV9Qd3JKD-9Xhodib-hIZI6vFxbruITMpFCTjPOxczVuViyIn8ojTvisEhcNyAw-E9R-sQCA85bvBVitoEs_7ytDy-ps-jPVdlDMN4toVAhF7jc6mhEvtVPR1eXxjxyvmCMS3I0uV0S1kcWVxCnj3Qg5qKIq7UQqdN7gZdQF8O5Ctu0]--></g></svg>