<svg xmlns="http://www.w3.org/2000/svg" xmlns:xlink="http://www.w3.org/1999/xlink" contentStyleType="text/css" data-diagram-type="SEQUENCE" height="1063px" preserveAspectRatio="none" style="width:1480px;height:1063px;background:#FFFFFF;" version="1.1" viewBox="0 0 1480 1063" width="1480px" zoomAndPan="magnify"><defs/><g><rect fill="none" height="531.1895" style="stroke:#000000;stroke-width:1.5;" width="1463.8501" x="10" y="433.9043"/><rect fill="none" height="354.6816" style="stroke:#000000;stroke-width:1.5;" width="1443.8501" x="20" y="603.4121"/><g><title>Logistics Operator</title><rect fill="#000000" fill-opacity="0.00000" height="900.6055" width="8" x="91.2549" y="81.4883"/><line style="stroke:#181818;stroke-width:0.5;stroke-dasharray:5,5;" x1="95" x2="95" y1="81.4883" y2="982.0938"/></g><g><title>UI</title><rect fill="#000000" fill-opacity="0.00000" height="900.6055" width="8" x="351.2798" y="81.4883"/><line style="stroke:#181818;stroke-width:0.5;stroke-dasharray:5,5;" x1="354.7798" x2="354.7798" y1="81.4883" y2="982.0938"/></g><g><title>RegisterStaffController</title><rect fill="#000000" fill-opacity="0.00000" height="900.6055" width="8" x="616.2939" y="81.4883"/><line style="stroke:#181818;stroke-width:0.5;stroke-dasharray:5,5;" x1="620.147" x2="620.147" y1="81.4883" y2="982.0938"/></g><g><title>StaffMemberAppService</title><rect fill="#000000" fill-opacity="0.00000" height="900.6055" width="8" x="881.3081" y="81.4883"/><line style="stroke:#181818;stroke-width:0.5;stroke-dasharray:5,5;" x1="884.9653" x2="884.9653" y1="81.4883" y2="982.0938"/></g><g><title>StaffMemberRepository</title><rect fill="#000000" fill-opacity="0.00000" height="900.6055" width="8" x="1274.0854" y="81.4883"/><line style="stroke:#181818;stroke-width:0.5;stroke-dasharray:5,5;" x1="1277.9868" x2="1277.9868" y1="81.4883" y2="982.0938"/></g><g><title>Audit Log</title><rect fill="#000000" fill-opacity="0.00000" height="900.6055" width="8" x="1408.0171" y="81.4883"/><line style="stroke:#181818;stroke-width:0.5;stroke-dasharray:5,5;" x1="1411.1841" x2="1411.1841" y1="81.4883" y2="982.0938"/></g><g class="participant participant-head" data-participant="Operator"><text fill="#000000" font-family="sans-serif" font-size="14" lengthAdjust="spacing" textLength="124.5098" x="30" y="78.5352">Logistics Operator</text><ellipse cx="95.2549" cy="13.5" fill="#E2E2F0" rx="8" ry="8" style="stroke:#181818;stroke-width:0.5;"/><path d="M95.2549,21.5 L95.2549,48.5 M82.2549,29.5 L108.2549,29.5 M95.2549,48.5 L82.2549,63.5 M95.2549,48.5 L108.2549,63.5" fill="none" style="stroke:#181818;stroke-width:0.5;"/></g><g class="participant participant-tail" data-participant="Operator"><text fill="#000000" font-family="sans-serif" font-size="14" lengthAdjust="spacing" textLength="124.5098" x="30" y="994.6289">Logistics Operator</text><ellipse cx="95.2549" cy="1006.082" fill="#E2E2F0" rx="8" ry="8" style="stroke:#181818;stroke-width:0.5;"/><path d="M95.2549,1014.082 L95.2549,1041.082 M82.2549,1022.082 L108.2549,1022.082 M95.2549,1041.082 L82.2549,1056.082 M95.2549,1041.082 L108.2549,1056.082" fill="none" style="stroke:#181818;stroke-width:0.5;"/></g><g class="participant participant-head" data-participant="UI"><text fill="#000000" font-family="sans-serif" font-size="14" lengthAdjust="spacing" textLength="13.7334" x="345.4131" y="78.5352">UI</text><path d="M334.7798,37 L334.7798,61 M334.7798,49 L351.7798,49" fill="none" style="stroke:#181818;stroke-width:0.5;"/><ellipse cx="363.7798" cy="49" fill="#E2E2F0" rx="12" ry="12" style="stroke:#181818;stroke-width:0.5;"/></g><g class="participant participant-tail" data-participant="UI"><text fill="#000000" font-family="sans-serif" font-size="14" lengthAdjust="spacing" textLength="13.7334" x="345.4131" y="994.6289">UI</text><path d="M334.7798,1001.582 L334.7798,1025.582 M334.7798,1013.582 L351.7798,1013.582" fill="none" style="stroke:#181818;stroke-width:0.5;"/><ellipse cx="363.7798" cy="1013.582" fill="#E2E2F0" rx="12" ry="12" style="stroke:#181818;stroke-width:0.5;"/></g><g class="participant participant-head" data-participant="Controller"><text fill="#000000" font-family="sans-serif" font-size="14" lengthAdjust="spacing" textLength="154.2939" x="540.147" y="78.5352">RegisterStaffController</text><path d="M599.7939,37 L599.7939,61 M599.7939,49 L616.7939,49" fill="none" style="stroke:#181818;stroke-width:0.5;"/><ellipse cx="628.7939" cy="49" fill="#E2E2F0" rx="12" ry="12" style="stroke:#181818;stroke-width:0.5;"/></g><g class="participant participant-tail" data-participant="Controller"><text fill="#000000" font-family="sans-serif" font-size="14" lengthAdjust="spacing" textLength="154.2939" x="540.147" y="994.6289">RegisterStaffController</text><path d="M599.7939,1001.582 L599.7939,1025.582 M599.7939,1013.582 L616.7939,1013.582" fill="none" style="stroke:#181818;stroke-width:0.5;"/><ellipse cx="628.7939" cy="1013.582" fill="#E2E2F0" rx="12" ry="12" style="stroke:#181818;stroke-width:0.5;"/></g><g class="participant participant-head" data-participant="Service"><text fill="#000000" font-family="sans-serif" font-size="14" lengthAdjust="spacing" textLength="160.6855" x="801.9653" y="78.5352">StaffMemberAppService</text><ellipse cx="885.3081" cy="49" fill="#E2E2F0" rx="12" ry="12" style="stroke:#181818;stroke-width:0.5;"/><polygon fill="#181818" points="881.3081,37,887.3081,32,885.3081,37,887.3081,42,881.3081,37" style="stroke:#181818;stroke-width:1;"/></g><g class="participant participant-tail" data-participant="Service"><text fill="#000000" font-family="sans-serif" font-size="14" lengthAdjust="spacing" textLength="160.6855" x="801.9653" y="994.6289">StaffMemberAppService</text><ellipse cx="885.3081" cy="1013.582" fill="#E2E2F0" rx="12" ry="12" style="stroke:#181818;stroke-width:0.5;"/><polygon fill="#181818" points="881.3081,1001.582,887.3081,996.582,885.3081,1001.582,887.3081,1006.582,881.3081,1001.582" style="stroke:#181818;stroke-width:1;"/></g><g class="participant participant-head" data-participant="Repository"><text fill="#000000" font-family="sans-serif" font-size="14" lengthAdjust="spacing" textLength="158.1973" x="1195.9868" y="78.5352">StaffMemberRepository</text><ellipse cx="1278.0854" cy="49" fill="#E2E2F0" rx="12" ry="12" style="stroke:#181818;stroke-width:0.5;"/><line style="stroke:#181818;stroke-width:0.5;" x1="1266.0854" x2="1290.0854" y1="63" y2="63"/></g><g class="participant participant-tail" data-participant="Repository"><text fill="#000000" font-family="sans-serif" font-size="14" lengthAdjust="spacing" textLength="158.1973" x="1195.9868" y="994.6289">StaffMemberRepository</text><ellipse cx="1278.0854" cy="1013.582" fill="#E2E2F0" rx="12" ry="12" style="stroke:#181818;stroke-width:0.5;"/><line style="stroke:#181818;stroke-width:0.5;" x1="1266.0854" x2="1290.0854" y1="1027.582" y2="1027.582"/></g><g class="participant participant-head" data-participant="Audit"><rect fill="#E2E2F0" height="30.4883" style="stroke:#181818;stroke-width:0.5;" width="79.666" x="1374.1841" y="46"/><rect fill="#E2E2F0" height="30.4883" style="stroke:#181818;stroke-width:0.5;" width="79.666" x="1370.1841" y="50"/><text fill="#000000" font-family="sans-serif" font-size="14" lengthAdjust="spacing" textLength="65.666" x="1377.1841" y="70.5352">Audit Log</text></g><g class="participant participant-tail" data-participant="Audit"><rect fill="#E2E2F0" height="30.4883" style="stroke:#181818;stroke-width:0.5;" width="79.666" x="1374.1841" y="981.0938"/><rect fill="#E2E2F0" height="30.4883" style="stroke:#181818;stroke-width:0.5;" width="79.666" x="1370.1841" y="985.0938"/><text fill="#000000" font-family="sans-serif" font-size="14" lengthAdjust="spacing" textLength="65.666" x="1377.1841" y="1005.6289">Audit Log</text></g><g class="message" data-participant-1="Operator" data-participant-2="UI"><polygon fill="#181818" points="343.2798,108.7988,353.2798,112.7988,343.2798,116.7988,347.2798,112.7988" style="stroke:#181818;stroke-width:1;"/><line style="stroke:#181818;stroke-width:1;" x1="95.2549" x2="349.2798" y1="112.7988" y2="112.7988"/><text fill="#000000" font-family="sans-serif" font-size="13" lengthAdjust="spacing" textLength="236.0249" x="102.2549" y="108.0566">Request StaffMember data for update</text></g><g class="message" data-participant-1="UI" data-participant-2="Controller"><polygon fill="#181818" points="608.2939,138.1094,618.2939,142.1094,608.2939,146.1094,612.2939,142.1094" style="stroke:#181818;stroke-width:1;"/><line style="stroke:#181818;stroke-width:1;" x1="355.2798" x2="614.2939" y1="142.1094" y2="142.1094"/><text fill="#000000" font-family="sans-serif" font-size="13" lengthAdjust="spacing" textLength="148.0146" x="362.2798" y="137.3672">GetStaffMemberById(id)</text></g><g class="message" data-participant-1="Controller" data-participant-2="Service"><polygon fill="#181818" points="873.3081,167.4199,883.3081,171.4199,873.3081,175.4199,877.3081,171.4199" style="stroke:#181818;stroke-width:1;"/><line style="stroke:#181818;stroke-width:1;" x1="620.2939" x2="879.3081" y1="171.4199" y2="171.4199"/><text fill="#000000" font-family="sans-serif" font-size="13" lengthAdjust="spacing" textLength="148.0146" x="627.2939" y="166.6777">GetStaffMemberById(id)</text></g><g class="message" data-participant-1="Service" data-participant-2="Repository"><polygon fill="#181818" points="1266.0854,196.7305,1276.0854,200.7305,1266.0854,204.7305,1270.0854,200.7305" style="stroke:#181818;stroke-width:1;"/><line style="stroke:#181818;stroke-width:1;" x1="885.3081" x2="1272.0854" y1="200.7305" y2="200.7305"/><text fill="#000000" font-family="sans-serif" font-size="13" lengthAdjust="spacing" textLength="73.5693" x="892.3081" y="195.9883">FindById(id)</text></g><g class="message" data-participant-1="Repository" data-participant-2="Service"><polygon fill="#181818" points="896.3081,226.041,886.3081,230.041,896.3081,234.041,892.3081,230.041" style="stroke:#181818;stroke-width:1;"/><line style="stroke:#181818;stroke-width:1;stroke-dasharray:2,2;" x1="890.3081" x2="1277.0854" y1="230.041" y2="230.041"/><text fill="#000000" font-family="sans-serif" font-size="13" lengthAdjust="spacing" textLength="119.6216" x="902.3081" y="225.2988">StaffMember entity</text></g><g class="message" data-participant-1="Service" data-participant-2="Controller"><polygon fill="#181818" points="631.2939,255.3516,621.2939,259.3516,631.2939,263.3516,627.2939,259.3516" style="stroke:#181818;stroke-width:1;"/><line style="stroke:#181818;stroke-width:1;stroke-dasharray:2,2;" x1="625.2939" x2="884.3081" y1="259.3516" y2="259.3516"/><text fill="#000000" font-family="sans-serif" font-size="13" lengthAdjust="spacing" textLength="107.98" x="637.2939" y="254.6094">StaffMemberDTO</text></g><g class="message" data-participant-1="Controller" data-participant-2="UI"><polygon fill="#181818" points="366.2798,284.6621,356.2798,288.6621,366.2798,292.6621,362.2798,288.6621" style="stroke:#181818;stroke-width:1;"/><line style="stroke:#181818;stroke-width:1;stroke-dasharray:2,2;" x1="360.2798" x2="619.2939" y1="288.6621" y2="288.6621"/><text fill="#000000" font-family="sans-serif" font-size="13" lengthAdjust="spacing" textLength="107.98" x="372.2798" y="283.9199">StaffMemberDTO</text></g><g class="message" data-participant-1="UI" data-participant-2="Operator"><polygon fill="#181818" points="106.2549,313.9727,96.2549,317.9727,106.2549,321.9727,102.2549,317.9727" style="stroke:#181818;stroke-width:1;"/><line style="stroke:#181818;stroke-width:1;" x1="100.2549" x2="354.2798" y1="317.9727" y2="317.9727"/><text fill="#000000" font-family="sans-serif" font-size="13" lengthAdjust="spacing" textLength="231.8735" x="112.2549" y="313.2305">Display StaffMember data for editing</text></g><g class="message" data-participant-1="Operator" data-participant-2="UI"><polygon fill="#181818" points="343.2798,343.2832,353.2798,347.2832,343.2798,351.2832,347.2798,347.2832" style="stroke:#181818;stroke-width:1;"/><line style="stroke:#181818;stroke-width:1;" x1="95.2549" x2="349.2798" y1="347.2832" y2="347.2832"/><text fill="#000000" font-family="sans-serif" font-size="13" lengthAdjust="spacing" textLength="215.5728" x="102.2549" y="342.541">Submit updated StaffMember data</text></g><g class="message" data-participant-1="UI" data-participant-2="Controller"><polygon fill="#181818" points="608.2939,372.5938,618.2939,376.5938,608.2939,380.5938,612.2939,376.5938" style="stroke:#181818;stroke-width:1;"/><line style="stroke:#181818;stroke-width:1;" x1="355.2798" x2="614.2939" y1="376.5938" y2="376.5938"/><text fill="#000000" font-family="sans-serif" font-size="13" lengthAdjust="spacing" textLength="241.0142" x="362.2798" y="371.8516">UpdateStaffMember(StaffMemberDTO)</text></g><g class="message" data-participant-1="Controller" data-participant-2="Controller"><line style="stroke:#181818;stroke-width:1;" x1="620.2939" x2="662.2939" y1="405.9043" y2="405.9043"/><line style="stroke:#181818;stroke-width:1;" x1="662.2939" x2="662.2939" y1="405.9043" y2="418.9043"/><line style="stroke:#181818;stroke-width:1;" x1="621.2939" x2="662.2939" y1="418.9043" y2="418.9043"/><polygon fill="#181818" points="631.2939,414.9043,621.2939,418.9043,631.2939,422.9043,627.2939,418.9043" style="stroke:#181818;stroke-width:1;"/><text fill="#000000" font-family="sans-serif" font-size="13" lengthAdjust="spacing" textLength="125.6392" x="627.2939" y="401.1621">Validate basic fields</text></g><path d="M10,433.9043 L72.1387,433.9043 L72.1387,441.2148 L62.1387,451.2148 L10,451.2148 L10,433.9043" fill="#EEEEEE" style="stroke:#000000;stroke-width:1.5;"/><rect fill="none" height="531.1895" style="stroke:#000000;stroke-width:1.5;" width="1463.8501" x="10" y="433.9043"/><text fill="#000000" font-family="sans-serif" font-size="13" font-weight="bold" lengthAdjust="spacing" textLength="17.1387" x="25" y="447.4727">alt</text><text fill="#000000" font-family="sans-serif" font-size="11" font-weight="bold" lengthAdjust="spacing" textLength="93.5269" x="87.1387" y="446.5391">[Validation fails]</text><g class="message" data-participant-1="Controller" data-participant-2="UI"><polygon fill="#181818" points="366.2798,468.5254,356.2798,472.5254,366.2798,476.5254,362.2798,472.5254" style="stroke:#181818;stroke-width:1;"/><line style="stroke:#181818;stroke-width:1;stroke-dasharray:2,2;" x1="360.2798" x2="619.2939" y1="472.5254" y2="472.5254"/><text fill="#000000" font-family="sans-serif" font-size="13" lengthAdjust="spacing" textLength="174.7954" x="372.2798" y="467.7832">Return ValidationErrorsDTO</text></g><g class="message" data-participant-1="UI" data-participant-2="Operator"><polygon fill="#181818" points="106.2549,497.8359,96.2549,501.8359,106.2549,505.8359,102.2549,501.8359" style="stroke:#181818;stroke-width:1;"/><line style="stroke:#181818;stroke-width:1;stroke-dasharray:2,2;" x1="100.2549" x2="354.2798" y1="501.8359" y2="501.8359"/><text fill="#000000" font-family="sans-serif" font-size="13" lengthAdjust="spacing" textLength="153.5308" x="112.2549" y="497.0938">Display validation errors</text></g><line style="stroke:#000000;stroke-width:1;stroke-dasharray:2,2;" x1="10" x2="1473.8501" y1="510.8359" y2="510.8359"/><text fill="#000000" font-family="sans-serif" font-size="11" font-weight="bold" lengthAdjust="spacing" textLength="120.6777" x="15" y="521.4707">[Validation succeeds]</text><g class="message" data-participant-1="Controller" data-participant-2="Service"><polygon fill="#181818" points="873.3081,542.1016,883.3081,546.1016,873.3081,550.1016,877.3081,546.1016" style="stroke:#181818;stroke-width:1;"/><line style="stroke:#181818;stroke-width:1;" x1="620.2939" x2="879.3081" y1="546.1016" y2="546.1016"/><text fill="#000000" font-family="sans-serif" font-size="13" lengthAdjust="spacing" textLength="241.0142" x="627.2939" y="541.3594">UpdateStaffMember(StaffMemberDTO)</text></g><g class="message" data-participant-1="Service" data-participant-2="Service"><line style="stroke:#181818;stroke-width:1;" x1="885.3081" x2="927.3081" y1="575.4121" y2="575.4121"/><line style="stroke:#181818;stroke-width:1;" x1="927.3081" x2="927.3081" y1="575.4121" y2="588.4121"/><line style="stroke:#181818;stroke-width:1;" x1="886.3081" x2="927.3081" y1="588.4121" y2="588.4121"/><polygon fill="#181818" points="896.3081,584.4121,886.3081,588.4121,896.3081,592.4121,892.3081,588.4121" style="stroke:#181818;stroke-width:1;"/><text fill="#000000" font-family="sans-serif" font-size="13" lengthAdjust="spacing" textLength="378.7773" x="892.3081" y="570.6699">Validate business rules (mecanographic number immutable)</text></g><path d="M20,603.4121 L82.1387,603.4121 L82.1387,610.7227 L72.1387,620.7227 L20,620.7227 L20,603.4121" fill="#EEEEEE" style="stroke:#000000;stroke-width:1.5;"/><rect fill="none" height="354.6816" style="stroke:#000000;stroke-width:1.5;" width="1443.8501" x="20" y="603.4121"/><text fill="#000000" font-family="sans-serif" font-size="13" font-weight="bold" lengthAdjust="spacing" textLength="17.1387" x="35" y="616.9805">alt</text><text fill="#000000" font-family="sans-serif" font-size="11" font-weight="bold" lengthAdjust="spacing" textLength="146.0508" x="97.1387" y="616.0469">[Business validation fails]</text><g class="message" data-participant-1="Service" data-participant-2="Controller"><polygon fill="#181818" points="631.2939,638.0332,621.2939,642.0332,631.2939,646.0332,627.2939,642.0332" style="stroke:#181818;stroke-width:1;"/><line style="stroke:#181818;stroke-width:1;stroke-dasharray:2,2;" x1="625.2939" x2="884.3081" y1="642.0332" y2="642.0332"/><text fill="#000000" font-family="sans-serif" font-size="13" lengthAdjust="spacing" textLength="233.4033" x="637.2939" y="637.291">Return Business ValidationErrorsDTO</text></g><g class="message" data-participant-1="Controller" data-participant-2="UI"><polygon fill="#181818" points="366.2798,667.3438,356.2798,671.3438,366.2798,675.3438,362.2798,671.3438" style="stroke:#181818;stroke-width:1;"/><line style="stroke:#181818;stroke-width:1;stroke-dasharray:2,2;" x1="360.2798" x2="619.2939" y1="671.3438" y2="671.3438"/><text fill="#000000" font-family="sans-serif" font-size="13" lengthAdjust="spacing" textLength="233.4033" x="372.2798" y="666.6016">Return Business ValidationErrorsDTO</text></g><g class="message" data-participant-1="UI" data-participant-2="Operator"><polygon fill="#181818" points="106.2549,696.6543,96.2549,700.6543,106.2549,704.6543,102.2549,700.6543" style="stroke:#181818;stroke-width:1;"/><line style="stroke:#181818;stroke-width:1;stroke-dasharray:2,2;" x1="100.2549" x2="354.2798" y1="700.6543" y2="700.6543"/><text fill="#000000" font-family="sans-serif" font-size="13" lengthAdjust="spacing" textLength="147.272" x="112.2549" y="695.9121">Display business errors</text></g><line style="stroke:#000000;stroke-width:1;stroke-dasharray:2,2;" x1="20" x2="1463.8501" y1="709.6543" y2="709.6543"/><text fill="#000000" font-family="sans-serif" font-size="11" font-weight="bold" lengthAdjust="spacing" textLength="173.2017" x="25" y="720.2891">[Business validation succeeds]</text><g class="message" data-participant-1="Service" data-participant-2="Repository"><polygon fill="#181818" points="1266.0854,740.9199,1276.0854,744.9199,1266.0854,748.9199,1270.0854,744.9199" style="stroke:#181818;stroke-width:1;"/><line style="stroke:#181818;stroke-width:1;" x1="885.3081" x2="1272.0854" y1="744.9199" y2="744.9199"/><text fill="#000000" font-family="sans-serif" font-size="13" lengthAdjust="spacing" textLength="73.5693" x="892.3081" y="740.1777">FindById(id)</text></g><g class="message" data-participant-1="Repository" data-participant-2="Service"><polygon fill="#181818" points="896.3081,770.2305,886.3081,774.2305,896.3081,778.2305,892.3081,774.2305" style="stroke:#181818;stroke-width:1;"/><line style="stroke:#181818;stroke-width:1;stroke-dasharray:2,2;" x1="890.3081" x2="1277.0854" y1="774.2305" y2="774.2305"/><text fill="#000000" font-family="sans-serif" font-size="13" lengthAdjust="spacing" textLength="119.6216" x="902.3081" y="769.4883">StaffMember entity</text></g><g class="message" data-participant-1="Service" data-participant-2="Repository"><polygon fill="#181818" points="1266.0854,799.541,1276.0854,803.541,1266.0854,807.541,1270.0854,803.541" style="stroke:#181818;stroke-width:1;"/><line style="stroke:#181818;stroke-width:1;" x1="885.3081" x2="1272.0854" y1="803.541" y2="803.541"/><text fill="#000000" font-family="sans-serif" font-size="13" lengthAdjust="spacing" textLength="207.8984" x="892.3081" y="798.7988">Save updated StaffMember entity</text></g><g class="message" data-participant-1="Repository" data-participant-2="Service"><polygon fill="#181818" points="896.3081,828.8516,886.3081,832.8516,896.3081,836.8516,892.3081,832.8516" style="stroke:#181818;stroke-width:1;"/><line style="stroke:#181818;stroke-width:1;stroke-dasharray:2,2;" x1="890.3081" x2="1277.0854" y1="832.8516" y2="832.8516"/><text fill="#000000" font-family="sans-serif" font-size="13" lengthAdjust="spacing" textLength="176.5728" x="902.3081" y="828.1094">Updated StaffMember entity</text></g><g class="message" data-participant-1="Service" data-participant-2="Audit"><polygon fill="#181818" points="1400.0171,858.1621,1410.0171,862.1621,1400.0171,866.1621,1404.0171,862.1621" style="stroke:#181818;stroke-width:1;"/><line style="stroke:#181818;stroke-width:1;" x1="885.3081" x2="1406.0171" y1="862.1621" y2="862.1621"/><text fill="#000000" font-family="sans-serif" font-size="13" lengthAdjust="spacing" textLength="109.1099" x="892.3081" y="857.4199">Log update event</text></g><g class="message" data-participant-1="Service" data-participant-2="Controller"><polygon fill="#181818" points="631.2939,887.4727,621.2939,891.4727,631.2939,895.4727,627.2939,891.4727" style="stroke:#181818;stroke-width:1;"/><line style="stroke:#181818;stroke-width:1;stroke-dasharray:2,2;" x1="625.2939" x2="884.3081" y1="891.4727" y2="891.4727"/><text fill="#000000" font-family="sans-serif" font-size="13" lengthAdjust="spacing" textLength="202.7568" x="637.2939" y="886.7305">Return StaffMemberSuccessDTO</text></g><g class="message" data-participant-1="Controller" data-participant-2="UI"><polygon fill="#181818" points="366.2798,916.7832,356.2798,920.7832,366.2798,924.7832,362.2798,920.7832" style="stroke:#181818;stroke-width:1;"/><line style="stroke:#181818;stroke-width:1;stroke-dasharray:2,2;" x1="360.2798" x2="619.2939" y1="920.7832" y2="920.7832"/><text fill="#000000" font-family="sans-serif" font-size="13" lengthAdjust="spacing" textLength="202.7568" x="372.2798" y="916.041">Return StaffMemberSuccessDTO</text></g><g class="message" data-participant-1="UI" data-participant-2="Operator"><polygon fill="#181818" points="106.2549,946.0938,96.2549,950.0938,106.2549,954.0938,102.2549,950.0938" style="stroke:#181818;stroke-width:1;"/><line style="stroke:#181818;stroke-width:1;stroke-dasharray:2,2;" x1="100.2549" x2="354.2798" y1="950.0938" y2="950.0938"/><text fill="#000000" font-family="sans-serif" font-size="13" lengthAdjust="spacing" textLength="157.9297" x="112.2549" y="945.3516">Display success message</text></g><!--SRC=[bPNBZfim58RtVeeZLkbYNY2BIZETjehKQgJGT6_m8RLa3FK5YRVliO5W66WoMKGOV_-v_0S3BrrZ8FlHNALrihJmrgBXT2y3FYzOqNWjkEaXkvpYpkMKt3jZKAF97Q-gBursfb4AXn3pafN39MIH-ubrWUQvRNCqdImnqkCrG-sawnVa6Tl6IYgcZ-IyfBWKldIoqHQoPo-a0-edKd75sDG7F7scok58whyUhOCaFWZkE5G4-POkaH58-5m_oRwZInGl_KaSfFZ44eOKOm_x-0GGEtT1-3UfnGrATfuMGTEI1vlcWEjw4_RrrzkYpic95J8qVVFh2A_IjehtsquXkIlrTSFWt1SrpM6mKhnJRvbxYMn27fQrhNrUY7zp9OCS2cvb2PL49IpZoaqxz7H0nQMo3EYtvSGPdJSwuRyQqnWRN0cIKF6sDTsS0QE4eRAO9hQ-B175-zpfOE_t7zJ9mpDBv-wzbHgj1UCLMZZKM7BTN0rl_v0hsiS1oBhsZXSAXuZ1f9T9rssvjSYxTdwqxHPXpxyxjZ-atv_1hV5n0e6EKzZgR36EbQdx9tA2Ft8oxoN8UOURXsIbtyrvkQzDSWylnsDuFOvP0Jl27vvoaYOF9jf7n_j_uVvSxG13JN_yYiDSjQ0FXFW7]--></g></svg>