<svg xmlns="http://www.w3.org/2000/svg" xmlns:xlink="http://www.w3.org/1999/xlink" contentStyleType="text/css" data-diagram-type="SEQUENCE" height="896px" preserveAspectRatio="none" style="width:1707px;height:896px;background:#FFFFFF;" version="1.1" viewBox="0 0 1707 896" width="1707px" zoomAndPan="magnify"><title>Sequence Diagram (Design) - US 4.1.3: Search Operation Plans</title><defs/><g><text fill="#000000" font-family="sans-serif" font-size="14" font-weight="bold" lengthAdjust="spacing" textLength="449.7227" x="624.7156" y="28.5352">Sequence Diagram (Design) - US 4.1.3: Search Operation Plans</text><g><title>GetOperationPlansController</title><rect fill="#FFFFFF" height="427.3477" style="stroke:#181818;stroke-width:1;" width="10" x="855.0908" y="318.8398"/></g><g><title>OperationPlanService</title><rect fill="#FFFFFF" height="326.416" style="stroke:#181818;stroke-width:1;" width="10" x="1147.7534" y="390.4609"/></g><g><title>OperationPlanRepo</title><rect fill="#FFFFFF" height="177.8633" style="stroke:#181818;stroke-width:1;" width="10" x="1377.7202" y="419.7715"/></g><g><title>OperationPlanMap</title><rect fill="#FFFFFF" height="29.3105" style="stroke:#181818;stroke-width:1;" width="10" x="1524.7764" y="532.0137"/></g><g><title>OperationPlanMap</title><rect fill="#FFFFFF" height="29.3105" style="stroke:#181818;stroke-width:1;" width="10" x="1524.7764" y="651.2559"/></g><g><title>MongoDB</title><rect fill="#FFFFFF" height="29.3105" style="stroke:#181818;stroke-width:1;" width="10" x="1639.5464" y="449.082"/></g><rect fill="none" height="518.2344" style="stroke:#000000;stroke-width:1.5;" width="1465.6519" x="224.502" y="280.2188"/><rect fill="none" height="75.9316" style="stroke:#000000;stroke-width:1.5;" width="304.1123" x="1304.8267" y="493.3926"/><rect fill="none" height="75.9316" style="stroke:#000000;stroke-width:1.5;" width="540.7134" x="1068.2256" y="612.6348"/><g><title>Logistics Operator</title><rect fill="#000000" fill-opacity="0.00000" height="696.4766" width="8" x="66.2549" y="118.9766"/><line style="stroke:#181818;stroke-width:0.5;stroke-dasharray:5,5;" x1="70" x2="70" y1="118.9766" y2="815.4531"/></g><g><title>SPA</title><rect fill="#000000" fill-opacity="0.00000" height="696.4766" width="8" x="255.002" y="118.9766"/><line style="stroke:#181818;stroke-width:0.5;stroke-dasharray:5,5;" x1="258.502" x2="258.502" y1="118.9766" y2="815.4531"/></g><g><title>OperationPlan Routes</title><rect fill="#000000" fill-opacity="0.00000" height="696.4766" width="8" x="669.77" y="118.9766"/><line style="stroke:#181818;stroke-width:0.5;stroke-dasharray:5,5;" x1="673.5366" x2="673.5366" y1="118.9766" y2="815.4531"/></g><g><title>GetOperationPlansController</title><rect fill="#000000" fill-opacity="0.00000" height="696.4766" width="8" x="856.0908" y="118.9766"/><line style="stroke:#181818;stroke-width:0.5;stroke-dasharray:5,5;" x1="860.0034" x2="860.0034" y1="118.9766" y2="815.4531"/></g><g><title>OperationPlanService</title><rect fill="#000000" fill-opacity="0.00000" height="696.4766" width="8" x="1148.7534" y="118.9766"/><line style="stroke:#181818;stroke-width:0.5;stroke-dasharray:5,5;" x1="1152.2256" x2="1152.2256" y1="118.9766" y2="815.4531"/></g><g><title>OperationPlanRepo</title><rect fill="#000000" fill-opacity="0.00000" height="696.4766" width="8" x="1378.7202" y="118.9766"/><line style="stroke:#181818;stroke-width:0.5;stroke-dasharray:5,5;" x1="1381.8267" x2="1381.8267" y1="118.9766" y2="815.4531"/></g><g><title>OperationPlanMap</title><rect fill="#000000" fill-opacity="0.00000" height="696.4766" width="8" x="1525.7764" y="118.9766"/><line style="stroke:#181818;stroke-width:0.5;stroke-dasharray:5,5;" x1="1529.6138" x2="1529.6138" y1="118.9766" y2="815.4531"/></g><g><title>MongoDB</title><rect fill="#000000" fill-opacity="0.00000" height="696.4766" width="8" x="1640.5464" y="118.9766"/><line style="stroke:#181818;stroke-width:0.5;stroke-dasharray:5,5;" x1="1643.939" x2="1643.939" y1="118.9766" y2="815.4531"/></g><g class="participant participant-head" data-participant="Operator"><text fill="#000000" font-family="sans-serif" font-size="14" lengthAdjust="spacing" textLength="124.5098" x="5" y="116.0234">Logistics Operator</text><ellipse cx="70.2549" cy="50.9883" fill="#E3E3E3" rx="8" ry="8" style="stroke:#181818;stroke-width:0.5;"/><path d="M70.2549,58.9883 L70.2549,85.9883 M57.2549,66.9883 L83.2549,66.9883 M70.2549,85.9883 L57.2549,100.9883 M70.2549,85.9883 L83.2549,100.9883" fill="none" style="stroke:#181818;stroke-width:0.5;"/></g><g class="participant participant-tail" data-participant="Operator"><text fill="#000000" font-family="sans-serif" font-size="14" lengthAdjust="spacing" textLength="124.5098" x="5" y="827.9883">Logistics Operator</text><ellipse cx="70.2549" cy="839.4414" fill="#E3E3E3" rx="8" ry="8" style="stroke:#181818;stroke-width:0.5;"/><path d="M70.2549,847.4414 L70.2549,874.4414 M57.2549,855.4414 L83.2549,855.4414 M70.2549,874.4414 L57.2549,889.4414 M70.2549,874.4414 L83.2549,889.4414" fill="none" style="stroke:#181818;stroke-width:0.5;"/></g><g class="participant participant-head" data-participant="SPA"><text fill="#000000" font-family="sans-serif" font-size="14" lengthAdjust="spacing" textLength="24.9375" x="243.5332" y="116.0234">SPA</text><path d="M238.502,74.4883 L238.502,98.4883 M238.502,86.4883 L255.502,86.4883" fill="none" style="stroke:#181818;stroke-width:0.5;"/><ellipse cx="267.502" cy="86.4883" fill="#E3E3E3" rx="12" ry="12" style="stroke:#181818;stroke-width:0.5;"/></g><g class="participant participant-tail" data-participant="SPA"><text fill="#000000" font-family="sans-serif" font-size="14" lengthAdjust="spacing" textLength="24.9375" x="243.5332" y="827.9883">SPA</text><path d="M238.502,834.9414 L238.502,858.9414 M238.502,846.9414 L255.502,846.9414" fill="none" style="stroke:#181818;stroke-width:0.5;"/><ellipse cx="267.502" cy="846.9414" fill="#E3E3E3" rx="12" ry="12" style="stroke:#181818;stroke-width:0.5;"/></g><g class="participant participant-head" data-participant="Routes"><text fill="#000000" font-family="sans-serif" font-size="14" lengthAdjust="spacing" textLength="146.4668" x="597.5366" y="116.0234">OperationPlan Routes</text><path d="M653.27,74.4883 L653.27,98.4883 M653.27,86.4883 L670.27,86.4883" fill="none" style="stroke:#181818;stroke-width:0.5;"/><ellipse cx="682.27" cy="86.4883" fill="#E3E3E3" rx="12" ry="12" style="stroke:#181818;stroke-width:0.5;"/></g><g class="participant participant-tail" data-participant="Routes"><text fill="#000000" font-family="sans-serif" font-size="14" lengthAdjust="spacing" textLength="146.4668" x="597.5366" y="827.9883">OperationPlan Routes</text><path d="M653.27,834.9414 L653.27,858.9414 M653.27,846.9414 L670.27,846.9414" fill="none" style="stroke:#181818;stroke-width:0.5;"/><ellipse cx="682.27" cy="846.9414" fill="#E3E3E3" rx="12" ry="12" style="stroke:#181818;stroke-width:0.5;"/></g><g class="participant participant-head" data-participant="Ctrl"><text fill="#000000" font-family="sans-serif" font-size="14" lengthAdjust="spacing" textLength="194.1748" x="760.0034" y="116.0234">GetOperationPlansController</text><ellipse cx="860.0908" cy="86.4883" fill="#E3E3E3" rx="12" ry="12" style="stroke:#181818;stroke-width:0.5;"/><polygon fill="#181818" points="856.0908,74.4883,862.0908,69.4883,860.0908,74.4883,862.0908,79.4883,856.0908,74.4883" style="stroke:#181818;stroke-width:1;"/></g><g class="participant participant-tail" data-participant="Ctrl"><text fill="#000000" font-family="sans-serif" font-size="14" lengthAdjust="spacing" textLength="194.1748" x="760.0034" y="827.9883">GetOperationPlansController</text><ellipse cx="860.0908" cy="846.9414" fill="#E3E3E3" rx="12" ry="12" style="stroke:#181818;stroke-width:0.5;"/><polygon fill="#181818" points="856.0908,834.9414,862.0908,829.9414,860.0908,834.9414,862.0908,839.9414,856.0908,834.9414" style="stroke:#181818;stroke-width:1;"/></g><g class="participant participant-head" data-participant="Svc"><text fill="#000000" font-family="sans-serif" font-size="14" lengthAdjust="spacing" textLength="143.0557" x="1078.2256" y="116.0234">OperationPlanService</text><ellipse cx="1152.7534" cy="86.4883" fill="#E3E3E3" rx="12" ry="12" style="stroke:#181818;stroke-width:0.5;"/><polygon fill="#181818" points="1148.7534,74.4883,1154.7534,69.4883,1152.7534,74.4883,1154.7534,79.4883,1148.7534,74.4883" style="stroke:#181818;stroke-width:1;"/></g><g class="participant participant-tail" data-participant="Svc"><text fill="#000000" font-family="sans-serif" font-size="14" lengthAdjust="spacing" textLength="143.0557" x="1078.2256" y="827.9883">OperationPlanService</text><ellipse cx="1152.7534" cy="846.9414" fill="#E3E3E3" rx="12" ry="12" style="stroke:#181818;stroke-width:0.5;"/><polygon fill="#181818" points="1148.7534,834.9414,1154.7534,829.9414,1152.7534,834.9414,1154.7534,839.9414,1148.7534,834.9414" style="stroke:#181818;stroke-width:1;"/></g><g class="participant participant-head" data-participant="Repo"><text fill="#000000" font-family="sans-serif" font-size="14" lengthAdjust="spacing" textLength="129.7871" x="1314.8267" y="116.0234">OperationPlanRepo</text><ellipse cx="1382.7202" cy="86.4883" fill="#E3E3E3" rx="12" ry="12" style="stroke:#181818;stroke-width:0.5;"/><line style="stroke:#181818;stroke-width:0.5;" x1="1370.7202" x2="1394.7202" y1="100.4883" y2="100.4883"/></g><g class="participant participant-tail" data-participant="Repo"><text fill="#000000" font-family="sans-serif" font-size="14" lengthAdjust="spacing" textLength="129.7871" x="1314.8267" y="827.9883">OperationPlanRepo</text><ellipse cx="1382.7202" cy="846.9414" fill="#E3E3E3" rx="12" ry="12" style="stroke:#181818;stroke-width:0.5;"/><line style="stroke:#181818;stroke-width:0.5;" x1="1370.7202" x2="1394.7202" y1="860.9414" y2="860.9414"/></g><g class="participant participant-head" data-participant="Map"><rect fill="#E3E3E3" height="30.4883" rx="2.5" ry="2.5" style="stroke:#181818;stroke-width:0.5;" width="138.3252" x="1460.6138" y="87.4883"/><text fill="#000000" font-family="sans-serif" font-size="14" lengthAdjust="spacing" textLength="124.3252" x="1467.6138" y="108.0234">OperationPlanMap</text></g><g class="participant participant-tail" data-participant="Map"><rect fill="#E3E3E3" height="30.4883" rx="2.5" ry="2.5" style="stroke:#181818;stroke-width:0.5;" width="138.3252" x="1460.6138" y="814.4531"/><text fill="#000000" font-family="sans-serif" font-size="14" lengthAdjust="spacing" textLength="124.3252" x="1467.6138" y="834.9883">OperationPlanMap</text></g><g class="participant participant-head" data-participant="DB"><text fill="#000000" font-family="sans-serif" font-size="14" lengthAdjust="spacing" textLength="65.2148" x="1608.939" y="116.0234">MongoDB</text><path d="M1626.5464,66.4883 C1626.5464,56.4883 1644.5464,56.4883 1644.5464,56.4883 C1644.5464,56.4883 1662.5464,56.4883 1662.5464,66.4883 L1662.5464,92.4883 C1662.5464,102.4883 1644.5464,102.4883 1644.5464,102.4883 C1644.5464,102.4883 1626.5464,102.4883 1626.5464,92.4883 L1626.5464,66.4883" fill="#E3E3E3" style="stroke:#181818;stroke-width:0.5;"/><path d="M1626.5464,66.4883 C1626.5464,76.4883 1644.5464,76.4883 1644.5464,76.4883 C1644.5464,76.4883 1662.5464,76.4883 1662.5464,66.4883" fill="none" style="stroke:#181818;stroke-width:0.5;"/></g><g class="participant participant-tail" data-participant="DB"><text fill="#000000" font-family="sans-serif" font-size="14" lengthAdjust="spacing" textLength="65.2148" x="1608.939" y="827.9883">MongoDB</text><path d="M1626.5464,840.9414 C1626.5464,830.9414 1644.5464,830.9414 1644.5464,830.9414 C1644.5464,830.9414 1662.5464,830.9414 1662.5464,840.9414 L1662.5464,866.9414 C1662.5464,876.9414 1644.5464,876.9414 1644.5464,876.9414 C1644.5464,876.9414 1626.5464,876.9414 1626.5464,866.9414 L1626.5464,840.9414" fill="#E3E3E3" style="stroke:#181818;stroke-width:0.5;"/><path d="M1626.5464,840.9414 C1626.5464,850.9414 1644.5464,850.9414 1644.5464,850.9414 C1644.5464,850.9414 1662.5464,850.9414 1662.5464,840.9414" fill="none" style="stroke:#181818;stroke-width:0.5;"/></g><g><title>GetOperationPlansController</title><rect fill="#FFFFFF" height="427.3477" style="stroke:#181818;stroke-width:1;" width="10" x="855.0908" y="318.8398"/></g><g><title>OperationPlanService</title><rect fill="#FFFFFF" height="326.416" style="stroke:#181818;stroke-width:1;" width="10" x="1147.7534" y="390.4609"/></g><g><title>OperationPlanRepo</title><rect fill="#FFFFFF" height="177.8633" style="stroke:#181818;stroke-width:1;" width="10" x="1377.7202" y="419.7715"/></g><g><title>OperationPlanMap</title><rect fill="#FFFFFF" height="29.3105" style="stroke:#181818;stroke-width:1;" width="10" x="1524.7764" y="532.0137"/></g><g><title>OperationPlanMap</title><rect fill="#FFFFFF" height="29.3105" style="stroke:#181818;stroke-width:1;" width="10" x="1524.7764" y="651.2559"/></g><g><title>MongoDB</title><rect fill="#FFFFFF" height="29.3105" style="stroke:#181818;stroke-width:1;" width="10" x="1639.5464" y="449.082"/></g><rect fill="#EEEEEE" height="3" style="stroke:#EEEEEE;stroke-width:1;" width="1700.1538" x="0" y="149.6318"/><line style="stroke:#000000;stroke-width:1;" x1="0" x2="1700.1538" y1="149.6318" y2="149.6318"/><line style="stroke:#000000;stroke-width:1;" x1="0" x2="1700.1538" y1="152.6318" y2="152.6318"/><rect fill="#EEEEEE" height="23.3105" style="stroke:#000000;stroke-width:2;" width="102.353" x="798.9004" y="138.9766"/><text fill="#000000" font-family="sans-serif" font-size="13" font-weight="bold" lengthAdjust="spacing" textLength="84.0684" x="804.9004" y="155.5449">Search Plans</text><g class="message" data-participant-1="Operator" data-participant-2="SPA"><polygon fill="#181818" points="247.002,189.5977,257.002,193.5977,247.002,197.5977,251.002,193.5977" style="stroke:#181818;stroke-width:1;"/><line style="stroke:#181818;stroke-width:1;" x1="70.2549" x2="253.002" y1="193.5977" y2="193.5977"/><text fill="#000000" font-family="sans-serif" font-size="13" lengthAdjust="spacing" textLength="164.7471" x="77.2549" y="188.8555">Apply filters (Date/Vessel)</text></g><g class="message" data-participant-1="SPA" data-participant-2="Routes"><polygon fill="#181818" points="661.77,218.9082,671.77,222.9082,661.77,226.9082,665.77,222.9082" style="stroke:#181818;stroke-width:1;"/><line style="stroke:#181818;stroke-width:1;" x1="259.002" x2="667.77" y1="222.9082" y2="222.9082"/><text fill="#000000" font-family="sans-serif" font-size="13" lengthAdjust="spacing" textLength="390.7681" x="266.002" y="218.166">GET /api/operation-plans?startDate=X&amp;endDate=Y&amp;vessel=Z</text></g><g class="message" data-participant-1="Routes" data-participant-2="Routes"><line style="stroke:#181818;stroke-width:1;" x1="673.77" x2="715.77" y1="252.2188" y2="252.2188"/><line style="stroke:#181818;stroke-width:1;" x1="715.77" x2="715.77" y1="252.2188" y2="265.2188"/><line style="stroke:#181818;stroke-width:1;" x1="674.77" x2="715.77" y1="265.2188" y2="265.2188"/><polygon fill="#181818" points="684.77,261.2188,674.77,265.2188,684.77,269.2188,680.77,265.2188" style="stroke:#181818;stroke-width:1;"/><text fill="#000000" font-family="sans-serif" font-size="13" lengthAdjust="spacing" textLength="152.9468" x="680.77" y="247.4766">Middleware: Auth Check</text></g><path d="M224.502,280.2188 L286.6406,280.2188 L286.6406,287.5293 L276.6406,297.5293 L224.502,297.5293 L224.502,280.2188" fill="#EEEEEE" style="stroke:#000000;stroke-width:1.5;"/><rect fill="none" height="518.2344" style="stroke:#000000;stroke-width:1.5;" width="1465.6519" x="224.502" y="280.2188"/><text fill="#000000" font-family="sans-serif" font-size="13" font-weight="bold" lengthAdjust="spacing" textLength="17.1387" x="239.502" y="293.7871">alt</text><text fill="#000000" font-family="sans-serif" font-size="11" font-weight="bold" lengthAdjust="spacing" textLength="70.9951" x="301.6406" y="292.8535">[Authorized]</text><g class="message" data-participant-1="Routes" data-participant-2="Ctrl"><polygon fill="#181818" points="843.0908,314.8398,853.0908,318.8398,843.0908,322.8398,847.0908,318.8398" style="stroke:#181818;stroke-width:1;"/><line style="stroke:#181818;stroke-width:1;" x1="673.77" x2="849.0908" y1="318.8398" y2="318.8398"/><text fill="#000000" font-family="sans-serif" font-size="13" lengthAdjust="spacing" textLength="105.9043" x="680.77" y="314.0977">execute(req, res)</text></g><g class="message" data-participant-1="Ctrl" data-participant-2="Ctrl"><line style="stroke:#181818;stroke-width:1;" x1="865.0908" x2="907.0908" y1="348.1504" y2="348.1504"/><line style="stroke:#181818;stroke-width:1;" x1="907.0908" x2="907.0908" y1="348.1504" y2="361.1504"/><line style="stroke:#181818;stroke-width:1;" x1="866.0908" x2="907.0908" y1="361.1504" y2="361.1504"/><polygon fill="#181818" points="876.0908,357.1504,866.0908,361.1504,876.0908,365.1504,872.0908,361.1504" style="stroke:#181818;stroke-width:1;"/><text fill="#000000" font-family="sans-serif" font-size="13" lengthAdjust="spacing" textLength="217.6167" x="872.0908" y="343.4082">extract(startDate, endDate, vessel)</text></g><g class="message" data-participant-1="Ctrl" data-participant-2="Svc"><polygon fill="#181818" points="1135.7534,386.4609,1145.7534,390.4609,1135.7534,394.4609,1139.7534,390.4609" style="stroke:#181818;stroke-width:1;"/><line style="stroke:#181818;stroke-width:1;" x1="865.0908" x2="1141.7534" y1="390.4609" y2="390.4609"/><text fill="#000000" font-family="sans-serif" font-size="13" lengthAdjust="spacing" textLength="263.6626" x="872.0908" y="385.7188">getPlansAsync(startDate, endDate, vessel)</text></g><g class="message" data-participant-1="Svc" data-participant-2="Repo"><polygon fill="#181818" points="1365.7202,415.7715,1375.7202,419.7715,1365.7202,423.7715,1369.7202,419.7715" style="stroke:#181818;stroke-width:1;"/><line style="stroke:#181818;stroke-width:1;" x1="1157.7534" x2="1371.7202" y1="419.7715" y2="419.7715"/><text fill="#000000" font-family="sans-serif" font-size="13" lengthAdjust="spacing" textLength="200.9668" x="1164.7534" y="415.0293">findByCriteria(start, end, vessel)</text></g><g class="message" data-participant-1="Repo" data-participant-2="DB"><polygon fill="#181818" points="1627.5464,445.082,1637.5464,449.082,1627.5464,453.082,1631.5464,449.082" style="stroke:#181818;stroke-width:1;"/><line style="stroke:#181818;stroke-width:1;" x1="1387.7202" x2="1633.5464" y1="449.082" y2="449.082"/><text fill="#000000" font-family="sans-serif" font-size="13" lengthAdjust="spacing" textLength="203.0679" x="1394.7202" y="444.3398">find(query).sort({ planDate: -1 })</text></g><g class="message" data-participant-1="DB" data-participant-2="Repo"><polygon fill="#181818" points="1398.7202,474.3926,1388.7202,478.3926,1398.7202,482.3926,1394.7202,478.3926" style="stroke:#181818;stroke-width:1;"/><line style="stroke:#181818;stroke-width:1;stroke-dasharray:2,2;" x1="1392.7202" x2="1643.5464" y1="478.3926" y2="478.3926"/><text fill="#000000" font-family="sans-serif" font-size="13" lengthAdjust="spacing" textLength="61.9785" x="1404.7202" y="473.6504">rawDocs[]</text></g><path d="M1304.8267,493.3926 L1379.2734,493.3926 L1379.2734,500.7031 L1369.2734,510.7031 L1304.8267,510.7031 L1304.8267,493.3926" fill="#EEEEEE" style="stroke:#000000;stroke-width:1.5;"/><rect fill="none" height="75.9316" style="stroke:#000000;stroke-width:1.5;" width="304.1123" x="1304.8267" y="493.3926"/><text fill="#000000" font-family="sans-serif" font-size="13" font-weight="bold" lengthAdjust="spacing" textLength="29.4468" x="1319.8267" y="506.9609">loop</text><text fill="#000000" font-family="sans-serif" font-size="11" font-weight="bold" lengthAdjust="spacing" textLength="78.1494" x="1394.2734" y="506.0273">[for each doc]</text><g class="message" data-participant-1="Repo" data-participant-2="Map"><polygon fill="#181818" points="1512.7764,528.0137,1522.7764,532.0137,1512.7764,536.0137,1516.7764,532.0137" style="stroke:#181818;stroke-width:1;"/><line style="stroke:#181818;stroke-width:1;" x1="1387.7202" x2="1518.7764" y1="532.0137" y2="532.0137"/><text fill="#000000" font-family="sans-serif" font-size="13" lengthAdjust="spacing" textLength="117.0635" x="1394.7202" y="527.2715">toDomain(rawDoc)</text></g><g class="message" data-participant-1="Map" data-participant-2="Repo"><polygon fill="#181818" points="1398.7202,557.3242,1388.7202,561.3242,1398.7202,565.3242,1394.7202,561.3242" style="stroke:#181818;stroke-width:1;"/><line style="stroke:#181818;stroke-width:1;stroke-dasharray:2,2;" x1="1392.7202" x2="1528.7764" y1="561.3242" y2="561.3242"/><text fill="#000000" font-family="sans-serif" font-size="13" lengthAdjust="spacing" textLength="62.5752" x="1404.7202" y="556.582">planEntity</text></g><g class="message" data-participant-1="Repo" data-participant-2="Svc"><polygon fill="#181818" points="1168.7534,593.6348,1158.7534,597.6348,1168.7534,601.6348,1164.7534,597.6348" style="stroke:#181818;stroke-width:1;"/><line style="stroke:#181818;stroke-width:1;stroke-dasharray:2,2;" x1="1162.7534" x2="1381.7202" y1="597.6348" y2="597.6348"/><text fill="#000000" font-family="sans-serif" font-size="13" lengthAdjust="spacing" textLength="81.8657" x="1174.7534" y="592.8926">planEntities[]</text></g><path d="M1068.2256,612.6348 L1142.6724,612.6348 L1142.6724,619.9453 L1132.6724,629.9453 L1068.2256,629.9453 L1068.2256,612.6348" fill="#EEEEEE" style="stroke:#000000;stroke-width:1.5;"/><rect fill="none" height="75.9316" style="stroke:#000000;stroke-width:1.5;" width="540.7134" x="1068.2256" y="612.6348"/><text fill="#000000" font-family="sans-serif" font-size="13" font-weight="bold" lengthAdjust="spacing" textLength="29.4468" x="1083.2256" y="626.2031">loop</text><text fill="#000000" font-family="sans-serif" font-size="11" font-weight="bold" lengthAdjust="spacing" textLength="90.5566" x="1157.6724" y="625.2695">[for each entity]</text><g class="message" data-participant-1="Svc" data-participant-2="Map"><polygon fill="#181818" points="1512.7764,647.2559,1522.7764,651.2559,1512.7764,655.2559,1516.7764,651.2559" style="stroke:#181818;stroke-width:1;"/><line style="stroke:#181818;stroke-width:1;" x1="1157.7534" x2="1518.7764" y1="651.2559" y2="651.2559"/><text fill="#000000" font-family="sans-serif" font-size="13" lengthAdjust="spacing" textLength="111.9346" x="1164.7534" y="646.5137">toDTO(planEntity)</text></g><g class="message" data-participant-1="Map" data-participant-2="Svc"><polygon fill="#181818" points="1168.7534,676.5664,1158.7534,680.5664,1168.7534,684.5664,1164.7534,680.5664" style="stroke:#181818;stroke-width:1;"/><line style="stroke:#181818;stroke-width:1;stroke-dasharray:2,2;" x1="1162.7534" x2="1528.7764" y1="680.5664" y2="680.5664"/><text fill="#000000" font-family="sans-serif" font-size="13" lengthAdjust="spacing" textLength="55.2437" x="1174.7534" y="675.8242">planDTO</text></g><g class="message" data-participant-1="Svc" data-participant-2="Ctrl"><polygon fill="#181818" points="876.0908,712.877,866.0908,716.877,876.0908,720.877,872.0908,716.877" style="stroke:#181818;stroke-width:1;"/><line style="stroke:#181818;stroke-width:1;stroke-dasharray:2,2;" x1="870.0908" x2="1151.7534" y1="716.877" y2="716.877"/><text fill="#000000" font-family="sans-serif" font-size="13" lengthAdjust="spacing" textLength="137.2554" x="882.0908" y="712.1348">Result.ok(planDTOs[])</text></g><g class="message" data-participant-1="Ctrl" data-participant-2="SPA"><polygon fill="#181818" points="270.002,742.1875,260.002,746.1875,270.002,750.1875,266.002,746.1875" style="stroke:#181818;stroke-width:1;"/><line style="stroke:#181818;stroke-width:1;stroke-dasharray:2,2;" x1="264.002" x2="859.0908" y1="746.1875" y2="746.1875"/><text fill="#000000" font-family="sans-serif" font-size="13" lengthAdjust="spacing" textLength="116.9683" x="276.002" y="741.4453">200 OK (JSON List)</text></g><line style="stroke:#000000;stroke-width:1;stroke-dasharray:2,2;" x1="224.502" x2="1690.1538" y1="755.1875" y2="755.1875"/><text fill="#000000" font-family="sans-serif" font-size="11" font-weight="bold" lengthAdjust="spacing" textLength="84.686" x="229.502" y="765.8223">[Unauthorized]</text><g class="message" data-participant-1="Routes" data-participant-2="SPA"><polygon fill="#181818" points="270.002,786.4531,260.002,790.4531,270.002,794.4531,266.002,790.4531" style="stroke:#181818;stroke-width:1;"/><line style="stroke:#181818;stroke-width:1;stroke-dasharray:2,2;" x1="264.002" x2="672.77" y1="790.4531" y2="790.4531"/><text fill="#000000" font-family="sans-serif" font-size="13" lengthAdjust="spacing" textLength="113.9658" x="276.002" y="785.7109">401 Unauthorized</text></g><!--SRC=[ZLNDJjj04BxlKunoe8v43A6SaDAA98YgXOOIGFrH3yjwagmmksPt7KYhFaqFFVN48-J5EhjsR2Ub5RdOdlrclfblPZRsHggC6tuBjrffCJFw5i6P79cjJkoC9_fUgYbCU6gHEUbIX37UvQW4mb3ogOT5GxHogjhGWSinxCVT-EK1eRWHCnXbQBYJMi5PofLbZ0kd3RHEz5HQ9uKj4TgqWDSVx5hdAk5c0QtnsM4uecV3MiNrOU5SvmvjW1MlJ6ZbZ4wXTOnk3Mi7nKcA1UF0cRH6hq77QEPIOC4-5mmL2R39VOwPBeZfXP5kL9JCk78Rk5EU1HWzMS8Tl-OMeNMgrLGF- -5as6Uirri95tA5Ne-nbIRGUUL5W0CupB9q0HEPEZIMvESETwxGMapRp2C8MCX0sEEZ2zZXcTpHgsmwcG_zsZhArRlsFcwXIiBRfwrv2DFxp5WPeHdhL2P9YlVS8EMGknaCPYXkgAUf2z_Qo6-OCA1VxUq59bzyG46coE3TDXYqxG2ZQP1pOYxQ44mle1l3qOCpVFbh-LD3Wl0XH-hvcPz9AfUQDT66fbM3mnp4yZ6HKrt42sHDKWeZN5JLkWrbgTimBmLRywCsaziKNP3_q2wK-A_pMWr-HieIzcBevrPmK3eCXfLk-MYa3iUUnCjATYARI9Nq5mCZgPcI5so1wHyiOSwyXK715k9Gl66_Z1RTURtQiTN6HT_1jzjdVG2TBlpOY4P3vx_9jrEdPFZzK0lxvMiuIx29BWjy6SCRcT10bLto5mOCzUtojoghJBNEW1e5v3w3H8jWRIPCgq1aJfCRboegMDiLh6BrAxCoUfz6fhwsex2M5QAHxigHn6nALVMvyfRuHB51wBBS_HZetfZJkjN5NemW6a5zdG1QlsB-mFg-qv3dgOjfcAvuccFKRZ-X2wudNuv6fSp5AAfBVAOqTMta_YnP0ckzDUT5ulecAeEGEErDTQfXBrQdkflsTdTXz0wYj-FHUpYXE_ulpsBLaVvGu5Bnfw-DAjp-RdSTvPF-0m00]--></g></svg>