<svg xmlns="http://www.w3.org/2000/svg" xmlns:xlink="http://www.w3.org/1999/xlink" contentStyleType="text/css" data-diagram-type="SEQUENCE" height="580px" preserveAspectRatio="none" style="width:503px;height:580px;background:#FFFFFF;" version="1.1" viewBox="0 0 503 580" width="503px" zoomAndPan="magnify"><defs/><g><g><title>Shipping Agent Representative</title><rect fill="#000000" fill-opacity="0.00000" height="417.6582" width="8" x="108.125" y="81.4883"/><line style="stroke:#181818;stroke-width:0.5;stroke-dasharray:5,5;" x1="112" x2="112" y1="81.4883" y2="499.1465"/></g><g><title>VVN Management API</title><rect fill="#000000" fill-opacity="0.00000" height="417.6582" width="8" x="411.5107" y="81.4883"/><line style="stroke:#181818;stroke-width:0.5;stroke-dasharray:5,5;" x1="415.2739" x2="415.2739" y1="81.4883" y2="499.1465"/></g><g class="participant participant-head" data-participant="Agent"><text fill="#000000" font-family="sans-serif" font-size="14" lengthAdjust="spacing" textLength="208.25" x="5" y="78.5352">Shipping Agent Representative</text><ellipse cx="112.125" cy="13.5" fill="#E2E2F0" rx="8" ry="8" style="stroke:#181818;stroke-width:0.5;"/><path d="M112.125,21.5 L112.125,48.5 M99.125,29.5 L125.125,29.5 M112.125,48.5 L99.125,63.5 M112.125,48.5 L125.125,63.5" fill="none" style="stroke:#181818;stroke-width:0.5;"/></g><g class="participant participant-tail" data-participant="Agent"><text fill="#000000" font-family="sans-serif" font-size="14" lengthAdjust="spacing" textLength="208.25" x="5" y="511.6816">Shipping Agent Representative</text><ellipse cx="112.125" cy="523.1348" fill="#E2E2F0" rx="8" ry="8" style="stroke:#181818;stroke-width:0.5;"/><path d="M112.125,531.1348 L112.125,558.1348 M99.125,539.1348 L125.125,539.1348 M112.125,558.1348 L99.125,573.1348 M112.125,558.1348 L125.125,573.1348" fill="none" style="stroke:#181818;stroke-width:0.5;"/></g><g class="participant participant-head" data-participant="System"><text fill="#000000" font-family="sans-serif" font-size="14" lengthAdjust="spacing" textLength="146.4736" x="339.2739" y="78.5352">VVN Management API</text><path d="M395.0107,37 L395.0107,61 M395.0107,49 L412.0107,49" fill="none" style="stroke:#181818;stroke-width:0.5;"/><ellipse cx="424.0107" cy="49" fill="#E2E2F0" rx="12" ry="12" style="stroke:#181818;stroke-width:0.5;"/></g><g class="participant participant-tail" data-participant="System"><text fill="#000000" font-family="sans-serif" font-size="14" lengthAdjust="spacing" textLength="146.4736" x="339.2739" y="511.6816">VVN Management API</text><path d="M395.0107,518.6348 L395.0107,542.6348 M395.0107,530.6348 L412.0107,530.6348" fill="none" style="stroke:#181818;stroke-width:0.5;"/><ellipse cx="424.0107" cy="530.6348" fill="#E2E2F0" rx="12" ry="12" style="stroke:#181818;stroke-width:0.5;"/></g><rect fill="#EEEEEE" height="3" style="stroke:#EEEEEE;stroke-width:1;" width="496.7476" x="0" y="112.1436"/><line style="stroke:#000000;stroke-width:1;" x1="0" x2="496.7476" y1="112.1436" y2="112.1436"/><line style="stroke:#000000;stroke-width:1;" x1="0" x2="496.7476" y1="115.1436" y2="115.1436"/><rect fill="#EEEEEE" height="23.3105" style="stroke:#000000;stroke-width:2;" width="141.8418" x="177.4529" y="101.4883"/><text fill="#000000" font-family="sans-serif" font-size="13" font-weight="bold" lengthAdjust="spacing" textLength="123.5571" x="183.4529" y="118.0566">Update VVN Fields</text><g class="message" data-participant-1="Agent" data-participant-2="System"><polygon fill="#181818" points="403.5107,182.7305,413.5107,186.7305,403.5107,190.7305,407.5107,186.7305" style="stroke:#181818;stroke-width:1;"/><line style="stroke:#181818;stroke-width:1;" x1="112.125" x2="409.5107" y1="186.7305" y2="186.7305"/><text fill="#000000" font-family="sans-serif" font-size="13" lengthAdjust="spacing" textLength="110.0176" x="119.125" y="151.3672">PUT /api/vvn/{id}</text><text fill="#000000" font-family="sans-serif" font-size="13" lengthAdjust="spacing" textLength="246.6636" x="119.125" y="166.6777">Body: UpdateVesselVisitNotificationDto</text><text fill="#000000" font-family="sans-serif" font-size="13" lengthAdjust="spacing" textLength="279.3857" x="119.125" y="181.9883">(ETA, ETD, Volume, Docks, Documents, etc.)</text></g><g class="message" data-participant-1="System" data-participant-2="Agent"><polygon fill="#181818" points="123.125,242.6621,113.125,246.6621,123.125,250.6621,119.125,246.6621" style="stroke:#181818;stroke-width:1;"/><line style="stroke:#181818;stroke-width:1;stroke-dasharray:2,2;" x1="117.125" x2="414.5107" y1="246.6621" y2="246.6621"/><text fill="#000000" font-family="sans-serif" font-size="13" lengthAdjust="spacing" textLength="47.3599" x="129.125" y="211.2988">200 OK</text><text fill="#000000" font-family="sans-serif" font-size="13" lengthAdjust="spacing" textLength="266.4746" x="129.125" y="226.6094">Body: VesselVisitNotificationDto (updated)</text><text fill="#000000" font-family="sans-serif" font-size="13" lengthAdjust="spacing" textLength="128.6035" x="129.125" y="241.9199">OR 400 Bad Request</text></g><rect fill="#EEEEEE" height="3" style="stroke:#EEEEEE;stroke-width:1;" width="496.7476" x="0" y="275.3174"/><line style="stroke:#000000;stroke-width:1;" x1="0" x2="496.7476" y1="275.3174" y2="275.3174"/><line style="stroke:#000000;stroke-width:1;" x1="0" x2="496.7476" y1="278.3174" y2="278.3174"/><rect fill="#EEEEEE" height="23.3105" style="stroke:#000000;stroke-width:2;" width="113.8931" x="191.4272" y="264.6621"/><text fill="#000000" font-family="sans-serif" font-size="13" font-weight="bold" lengthAdjust="spacing" textLength="95.6084" x="197.4272" y="281.2305">Withdraw VVN</text><g class="message" data-participant-1="Agent" data-participant-2="System"><polygon fill="#181818" points="403.5107,315.2832,413.5107,319.2832,403.5107,323.2832,407.5107,319.2832" style="stroke:#181818;stroke-width:1;"/><line style="stroke:#181818;stroke-width:1;" x1="112.125" x2="409.5107" y1="319.2832" y2="319.2832"/><text fill="#000000" font-family="sans-serif" font-size="13" lengthAdjust="spacing" textLength="174.2368" x="119.125" y="314.541">PUT /api/vvn/{id}/withdraw</text></g><g class="message" data-participant-1="System" data-participant-2="Agent"><polygon fill="#181818" points="123.125,359.9043,113.125,363.9043,123.125,367.9043,119.125,363.9043" style="stroke:#181818;stroke-width:1;"/><line style="stroke:#181818;stroke-width:1;stroke-dasharray:2,2;" x1="117.125" x2="414.5107" y1="363.9043" y2="363.9043"/><text fill="#000000" font-family="sans-serif" font-size="13" lengthAdjust="spacing" textLength="47.3599" x="129.125" y="343.8516">200 OK</text><text fill="#000000" font-family="sans-serif" font-size="13" lengthAdjust="spacing" textLength="113.4009" x="129.125" y="359.1621">Status: Withdrawn</text></g><rect fill="#EEEEEE" height="3" style="stroke:#EEEEEE;stroke-width:1;" width="496.7476" x="0" y="392.5596"/><line style="stroke:#000000;stroke-width:1;" x1="0" x2="496.7476" y1="392.5596" y2="392.5596"/><line style="stroke:#000000;stroke-width:1;" x1="0" x2="496.7476" y1="395.5596" y2="395.5596"/><rect fill="#EEEEEE" height="23.3105" style="stroke:#000000;stroke-width:2;" width="153.731" x="171.5083" y="381.9043"/><text fill="#000000" font-family="sans-serif" font-size="13" font-weight="bold" lengthAdjust="spacing" textLength="135.4463" x="177.5083" y="398.4727">Submit for Approval</text><g class="message" data-participant-1="Agent" data-participant-2="System"><polygon fill="#181818" points="403.5107,432.5254,413.5107,436.5254,403.5107,440.5254,407.5107,436.5254" style="stroke:#181818;stroke-width:1;"/><line style="stroke:#181818;stroke-width:1;" x1="112.125" x2="409.5107" y1="436.5254" y2="436.5254"/><text fill="#000000" font-family="sans-serif" font-size="13" lengthAdjust="spacing" textLength="160.4688" x="119.125" y="431.7832">PUT /api/vvn/{id}/submit</text></g><g class="message" data-participant-1="System" data-participant-2="Agent"><polygon fill="#181818" points="123.125,477.1465,113.125,481.1465,123.125,485.1465,119.125,481.1465" style="stroke:#181818;stroke-width:1;"/><line style="stroke:#181818;stroke-width:1;stroke-dasharray:2,2;" x1="117.125" x2="414.5107" y1="481.1465" y2="481.1465"/><text fill="#000000" font-family="sans-serif" font-size="13" lengthAdjust="spacing" textLength="47.3599" x="129.125" y="461.0938">200 OK</text><text fill="#000000" font-family="sans-serif" font-size="13" lengthAdjust="spacing" textLength="111.1221" x="129.125" y="476.4043">Status: Submitted</text></g><!--SRC=[ZP51QuD048Nl_eh1KmAcXjAJOC5W2gKq2T7OIouRTsAMwkxMtJL8wN_lkjhUMdBQWPqtttipfDIY1J-xC2aPho2fa6lOesnHsOferg4FH8qVtaaOJadRWryK6tWbd5JO38faz-pQibvfR3mlZk4WAT48G-CJmvegY6DldBzud1eXWjqXXv185dOT3pyP_JhobQ1zDEaBL0hhWYccDqApCokj9y5JBOvyjiwJ0DPv6a0XQjDW0AaetvLxpE3BbgZBkxatuHQMF5g8u7wvXEtB3-rl3ioCSqBdHxxTmuELhGYrE_emgBIB-iRqXRRawiBUbZAyJfh_h6Ns04P5l_EvesNcr30DPtkuHCfMTAI-5QgSz1Ra2B6flm40]--></g></svg>