<svg xmlns="http://www.w3.org/2000/svg" xmlns:xlink="http://www.w3.org/1999/xlink" contentStyleType="text/css" data-diagram-type="SEQUENCE" height="751px" preserveAspectRatio="none" style="width:660px;height:751px;background:#FFFFFF;" version="1.1" viewBox="0 0 660 751" width="660px" zoomAndPan="magnify"><defs/><g><g><title>Qualification Management System</title><rect fill="#FFFFFF" height="533.5684" style="stroke:#181818;stroke-width:1;" width="10" x="395.0698" y="128.1094"/></g><g><title>Qualification Management System</title><rect fill="#FFFFFF" height="299.4395" style="stroke:#181818;stroke-width:1;" width="10" x="400.0698" y="362.2383"/></g><g><title>Qualification Management System</title><rect fill="#FFFFFF" height="71.6211" style="stroke:#181818;stroke-width:1;" width="10" x="405.0698" y="581.0566"/></g><rect fill="none" height="133.1973" style="stroke:#000000;stroke-width:1.5;" width="643.394" x="10" y="185.4199"/><rect fill="none" height="133.1973" style="stroke:#000000;stroke-width:1.5;" width="639.4355" x="10" y="419.5488"/><g><title>Logistic Operator</title><rect fill="#000000" fill-opacity="0.00000" height="589.1895" width="8" x="77.6865" y="81.4883"/><line style="stroke:#181818;stroke-width:0.5;stroke-dasharray:5,5;" x1="81" x2="81" y1="81.4883" y2="670.6777"/></g><g><title>Qualification Management System</title><rect fill="#000000" fill-opacity="0.00000" height="589.1895" width="8" x="396.0698" y="81.4883"/><line style="stroke:#181818;stroke-width:0.5;stroke-dasharray:5,5;" x1="399.7954" x2="399.7954" y1="81.4883" y2="670.6777"/></g><g class="participant participant-head" data-participant="Operator"><text fill="#000000" font-family="sans-serif" font-size="14" lengthAdjust="spacing" textLength="117.373" x="20" y="78.5352">Logistic Operator</text><ellipse cx="81.6865" cy="13.5" fill="#E2E2F0" rx="8" ry="8" style="stroke:#181818;stroke-width:0.5;"/><path d="M81.6865,21.5 L81.6865,48.5 M68.6865,29.5 L94.6865,29.5 M81.6865,48.5 L68.6865,63.5 M81.6865,48.5 L94.6865,63.5" fill="none" style="stroke:#181818;stroke-width:0.5;"/></g><g class="participant participant-tail" data-participant="Operator"><text fill="#000000" font-family="sans-serif" font-size="14" lengthAdjust="spacing" textLength="117.373" x="20" y="683.2129">Logistic Operator</text><ellipse cx="81.6865" cy="694.666" fill="#E2E2F0" rx="8" ry="8" style="stroke:#181818;stroke-width:0.5;"/><path d="M81.6865,702.666 L81.6865,729.666 M68.6865,710.666 L94.6865,710.666 M81.6865,729.666 L68.6865,744.666 M81.6865,729.666 L94.6865,744.666" fill="none" style="stroke:#181818;stroke-width:0.5;"/></g><g class="participant participant-head" data-participant="System"><rect fill="#E2E2F0" height="30.4883" rx="2.5" ry="2.5" style="stroke:#181818;stroke-width:0.5;" width="244.5488" x="277.7954" y="50"/><text fill="#000000" font-family="sans-serif" font-size="14" lengthAdjust="spacing" textLength="230.5488" x="284.7954" y="70.5352">Qualification Management System</text></g><g class="participant participant-tail" data-participant="System"><rect fill="#E2E2F0" height="30.4883" rx="2.5" ry="2.5" style="stroke:#181818;stroke-width:0.5;" width="244.5488" x="277.7954" y="669.6777"/><text fill="#000000" font-family="sans-serif" font-size="14" lengthAdjust="spacing" textLength="230.5488" x="284.7954" y="690.2129">Qualification Management System</text></g><g><title>Qualification Management System</title><rect fill="#FFFFFF" height="533.5684" style="stroke:#181818;stroke-width:1;" width="10" x="395.0698" y="128.1094"/></g><g><title>Qualification Management System</title><rect fill="#FFFFFF" height="299.4395" style="stroke:#181818;stroke-width:1;" width="10" x="400.0698" y="362.2383"/></g><g><title>Qualification Management System</title><rect fill="#FFFFFF" height="71.6211" style="stroke:#181818;stroke-width:1;" width="10" x="405.0698" y="581.0566"/></g><g class="message" data-participant-1="Operator" data-participant-2="System"><polygon fill="#181818" points="383.0698,124.1094,393.0698,128.1094,383.0698,132.1094,387.0698,128.1094" style="stroke:#181818;stroke-width:1;"/><line style="stroke:#181818;stroke-width:1;" x1="81.6865" x2="389.0698" y1="128.1094" y2="128.1094"/><text fill="#000000" font-family="sans-serif" font-size="13" lengthAdjust="spacing" textLength="223.4883" x="88.6865" y="108.0566">Request to create new Qualification</text><text fill="#000000" font-family="sans-serif" font-size="13" lengthAdjust="spacing" textLength="143.3872" x="88.6865" y="123.3672">(provides Code, Name)</text></g><g class="message" data-participant-1="System" data-participant-2="System"><line style="stroke:#181818;stroke-width:1;" x1="405.0698" x2="447.0698" y1="157.4199" y2="157.4199"/><line style="stroke:#181818;stroke-width:1;" x1="447.0698" x2="447.0698" y1="157.4199" y2="170.4199"/><line style="stroke:#181818;stroke-width:1;" x1="406.0698" x2="447.0698" y1="170.4199" y2="170.4199"/><polygon fill="#181818" points="416.0698,166.4199,406.0698,170.4199,416.0698,174.4199,412.0698,170.4199" style="stroke:#181818;stroke-width:1;"/><text fill="#000000" font-family="sans-serif" font-size="13" lengthAdjust="spacing" textLength="214.6904" x="412.0698" y="152.6777">Validate provided Code and Name</text></g><path d="M10,185.4199 L72.1387,185.4199 L72.1387,192.7305 L62.1387,202.7305 L10,202.7305 L10,185.4199" fill="#EEEEEE" style="stroke:#000000;stroke-width:1.5;"/><rect fill="none" height="133.1973" style="stroke:#000000;stroke-width:1.5;" width="643.394" x="10" y="185.4199"/><text fill="#000000" font-family="sans-serif" font-size="13" font-weight="bold" lengthAdjust="spacing" textLength="17.1387" x="25" y="198.9883">alt</text><text fill="#000000" font-family="sans-serif" font-size="11" font-weight="bold" lengthAdjust="spacing" textLength="176.752" x="87.1387" y="198.0547">[Code is unique and data valid]</text><g class="message" data-participant-1="System" data-participant-2="System"><line style="stroke:#181818;stroke-width:1;" x1="405.0698" x2="447.0698" y1="224.041" y2="224.041"/><line style="stroke:#181818;stroke-width:1;" x1="447.0698" x2="447.0698" y1="224.041" y2="237.041"/><line style="stroke:#181818;stroke-width:1;" x1="406.0698" x2="447.0698" y1="237.041" y2="237.041"/><polygon fill="#181818" points="416.0698,233.041,406.0698,237.041,416.0698,241.041,412.0698,237.041" style="stroke:#181818;stroke-width:1;"/><text fill="#000000" font-family="sans-serif" font-size="13" lengthAdjust="spacing" textLength="219.3242" x="412.0698" y="219.2988">Save new Qualification to database</text></g><g class="message" data-participant-1="System" data-participant-2="Operator"><polygon fill="#181818" points="92.6865,262.3516,82.6865,266.3516,92.6865,270.3516,88.6865,266.3516" style="stroke:#181818;stroke-width:1;"/><line style="stroke:#181818;stroke-width:1;stroke-dasharray:2,2;" x1="86.6865" x2="394.0698" y1="266.3516" y2="266.3516"/><text fill="#000000" font-family="sans-serif" font-size="13" lengthAdjust="spacing" textLength="133.5547" x="98.6865" y="261.6094">Success confirmation</text></g><line style="stroke:#000000;stroke-width:1;stroke-dasharray:2,2;" x1="10" x2="653.394" y1="275.3516" y2="275.3516"/><text fill="#000000" font-family="sans-serif" font-size="11" font-weight="bold" lengthAdjust="spacing" textLength="93.5269" x="15" y="285.9863">[Validation fails]</text><g class="message" data-participant-1="System" data-participant-2="Operator"><polygon fill="#181818" points="92.6865,306.6172,82.6865,310.6172,92.6865,314.6172,88.6865,310.6172" style="stroke:#181818;stroke-width:1;"/><line style="stroke:#181818;stroke-width:1;stroke-dasharray:2,2;" x1="86.6865" x2="394.0698" y1="310.6172" y2="310.6172"/><text fill="#000000" font-family="sans-serif" font-size="13" lengthAdjust="spacing" textLength="289.3833" x="98.6865" y="305.875">Error message (duplicate code or invalid data)</text></g><g class="message" data-participant-1="Operator" data-participant-2="System"><polygon fill="#181818" points="388.0698,358.2383,398.0698,362.2383,388.0698,366.2383,392.0698,362.2383" style="stroke:#181818;stroke-width:1;"/><line style="stroke:#181818;stroke-width:1;" x1="81.6865" x2="394.0698" y1="362.2383" y2="362.2383"/><text fill="#000000" font-family="sans-serif" font-size="13" lengthAdjust="spacing" textLength="253.7666" x="88.6865" y="342.1855">Request to update existing Qualification</text><text fill="#000000" font-family="sans-serif" font-size="13" lengthAdjust="spacing" textLength="143.3872" x="88.6865" y="357.4961">(provides Code, Name)</text></g><g class="message" data-participant-1="System" data-participant-2="System"><line style="stroke:#181818;stroke-width:1;" x1="410.0698" x2="452.0698" y1="391.5488" y2="391.5488"/><line style="stroke:#181818;stroke-width:1;" x1="452.0698" x2="452.0698" y1="391.5488" y2="404.5488"/><line style="stroke:#181818;stroke-width:1;" x1="411.0698" x2="452.0698" y1="404.5488" y2="404.5488"/><polygon fill="#181818" points="421.0698,400.5488,411.0698,404.5488,421.0698,408.5488,417.0698,404.5488" style="stroke:#181818;stroke-width:1;"/><text fill="#000000" font-family="sans-serif" font-size="13" lengthAdjust="spacing" textLength="229.5186" x="417.0698" y="386.8066">Validate updated data and existence</text></g><path d="M10,419.5488 L72.1387,419.5488 L72.1387,426.8594 L62.1387,436.8594 L10,436.8594 L10,419.5488" fill="#EEEEEE" style="stroke:#000000;stroke-width:1.5;"/><rect fill="none" height="133.1973" style="stroke:#000000;stroke-width:1.5;" width="639.4355" x="10" y="419.5488"/><text fill="#000000" font-family="sans-serif" font-size="13" font-weight="bold" lengthAdjust="spacing" textLength="17.1387" x="25" y="433.1172">alt</text><text fill="#000000" font-family="sans-serif" font-size="11" font-weight="bold" lengthAdjust="spacing" textLength="203.2529" x="87.1387" y="432.1836">[Data valid and Qualification exists]</text><g class="message" data-participant-1="System" data-participant-2="System"><line style="stroke:#181818;stroke-width:1;" x1="410.0698" x2="452.0698" y1="458.1699" y2="458.1699"/><line style="stroke:#181818;stroke-width:1;" x1="452.0698" x2="452.0698" y1="458.1699" y2="471.1699"/><line style="stroke:#181818;stroke-width:1;" x1="411.0698" x2="452.0698" y1="471.1699" y2="471.1699"/><polygon fill="#181818" points="421.0698,467.1699,411.0698,471.1699,421.0698,475.1699,417.0698,471.1699" style="stroke:#181818;stroke-width:1;"/><text fill="#000000" font-family="sans-serif" font-size="13" lengthAdjust="spacing" textLength="205.3657" x="417.0698" y="453.4277">Update Qualification in database</text></g><g class="message" data-participant-1="System" data-participant-2="Operator"><polygon fill="#181818" points="92.6865,496.4805,82.6865,500.4805,92.6865,504.4805,88.6865,500.4805" style="stroke:#181818;stroke-width:1;"/><line style="stroke:#181818;stroke-width:1;stroke-dasharray:2,2;" x1="86.6865" x2="399.0698" y1="500.4805" y2="500.4805"/><text fill="#000000" font-family="sans-serif" font-size="13" lengthAdjust="spacing" textLength="133.5547" x="98.6865" y="495.7383">Success confirmation</text></g><line style="stroke:#000000;stroke-width:1;stroke-dasharray:2,2;" x1="10" x2="649.4355" y1="509.4805" y2="509.4805"/><text fill="#000000" font-family="sans-serif" font-size="11" font-weight="bold" lengthAdjust="spacing" textLength="168.5557" x="15" y="520.1152">[Validation fails or not exists]</text><g class="message" data-participant-1="System" data-participant-2="Operator"><polygon fill="#181818" points="92.6865,540.7461,82.6865,544.7461,92.6865,548.7461,88.6865,544.7461" style="stroke:#181818;stroke-width:1;"/><line style="stroke:#181818;stroke-width:1;stroke-dasharray:2,2;" x1="86.6865" x2="399.0698" y1="544.7461" y2="544.7461"/><text fill="#000000" font-family="sans-serif" font-size="13" lengthAdjust="spacing" textLength="264.9575" x="98.6865" y="540.0039">Error message (not found or invalid input)</text></g><g class="message" data-participant-1="Operator" data-participant-2="System"><polygon fill="#181818" points="393.0698,577.0566,403.0698,581.0566,393.0698,585.0566,397.0698,581.0566" style="stroke:#181818;stroke-width:1;"/><line style="stroke:#181818;stroke-width:1;" x1="81.6865" x2="399.0698" y1="581.0566" y2="581.0566"/><text fill="#000000" font-family="sans-serif" font-size="13" lengthAdjust="spacing" textLength="260.8252" x="88.6865" y="576.3145">Request list of Qualifications (with filters)</text></g><g class="message" data-participant-1="System" data-participant-2="System"><line style="stroke:#181818;stroke-width:1;" x1="415.0698" x2="457.0698" y1="610.3672" y2="610.3672"/><line style="stroke:#181818;stroke-width:1;" x1="457.0698" x2="457.0698" y1="610.3672" y2="623.3672"/><line style="stroke:#181818;stroke-width:1;" x1="416.0698" x2="457.0698" y1="623.3672" y2="623.3672"/><polygon fill="#181818" points="426.0698,619.3672,416.0698,623.3672,426.0698,627.3672,422.0698,623.3672" style="stroke:#181818;stroke-width:1;"/><text fill="#000000" font-family="sans-serif" font-size="13" lengthAdjust="spacing" textLength="169.5459" x="422.0698" y="605.625">Query database with filters</text></g><g class="message" data-participant-1="System" data-participant-2="Operator"><polygon fill="#181818" points="92.6865,648.6777,82.6865,652.6777,92.6865,656.6777,88.6865,652.6777" style="stroke:#181818;stroke-width:1;"/><line style="stroke:#181818;stroke-width:1;stroke-dasharray:2,2;" x1="86.6865" x2="399.0698" y1="652.6777" y2="652.6777"/><text fill="#000000" font-family="sans-serif" font-size="13" lengthAdjust="spacing" textLength="286.0063" x="98.6865" y="647.9355">List of Qualifications (filtered by Code/Name)</text></g><!--SRC=[hL8zJyCm4DtzAqwTMWd4pi02R0LKAfXOhlQbd9JOmHyf_VUSdQPge0M6Pabov_VktNj67Ps7oTojEKJMyDIIHobD0CF-HxNefSajsWYJHSAQAzOOsLbuG8jhQaWwoss8r1Ha_wdKm02NDxlQDJpJHw8G8JhGdZ0IMDh0YFNDJbllEZOKuDOPke17R6YcK4VkCcBWxz-7xAz2O_AH7O4f183M50w5TUmh721P5Ycb9n24BcCLoFEJTudT4Q5vYGnTOQ0HK933xe9DMbC8e9sjs3S5gQWEDAZDJ1Lo7Kvpt7ilDZP28tR3rAIspXf8I6KPQR4jyekScI9h_dG_jSKe-ipHs_Nv8-W7xCpDBfTHP7KVmztUyz8S6rkEXXDXlFJAnmYsPuqYUsfTF2Rajs0of799zZd8X6sRuZz2gMKKk6gyM83fXkCxL5n7yk5V4ImI-UtU3ZZ4gwDRp4zCxa6IuMfRhi5LVmkKeMyglW00]--></g></svg>