<svg xmlns="http://www.w3.org/2000/svg" xmlns:xlink="http://www.w3.org/1999/xlink" contentStyleType="text/css" data-diagram-type="SEQUENCE" height="390px" preserveAspectRatio="none" style="width:680px;height:390px;background:#FFFFFF;" version="1.1" viewBox="0 0 680 390" width="680px" zoomAndPan="magnify"><title>SSD: Check and Select Missing Plans</title><defs/><g><text fill="#000000" font-family="sans-serif" font-size="14" font-weight="bold" lengthAdjust="spacing" textLength="260.6475" x="216.8875" y="28.5352">SSD: Check and Select Missing Plans</text><g><title>System</title><rect fill="#FFFFFF" height="71.6211" style="stroke:#181818;stroke-width:1;" width="10" x="424.8154" y="150.2871"/></g><g><title>System</title><rect fill="#FFFFFF" height="113.9316" style="stroke:#181818;stroke-width:1;" width="10" x="424.8154" y="251.2188"/></g><g><title>Logistics Operator</title><rect fill="#000000" fill-opacity="0.00000" height="264.1738" width="8" x="66.2549" y="118.9766"/><line style="stroke:#181818;stroke-width:0.5;stroke-dasharray:5,5;" x1="70" x2="70" y1="118.9766" y2="383.1504"/></g><g><title>System</title><rect fill="#000000" fill-opacity="0.00000" height="264.1738" width="8" x="425.8154" y="118.9766"/><line style="stroke:#181818;stroke-width:0.5;stroke-dasharray:5,5;" x1="429.7666" x2="429.7666" y1="118.9766" y2="383.1504"/></g><g class="participant participant-head" data-participant="LO"><text fill="#000000" font-family="sans-serif" font-size="14" lengthAdjust="spacing" textLength="124.5098" x="5" y="116.0234">Logistics Operator</text><ellipse cx="70.2549" cy="50.9883" fill="#E2E2F0" rx="8" ry="8" style="stroke:#181818;stroke-width:0.5;"/><path d="M70.2549,58.9883 L70.2549,85.9883 M57.2549,66.9883 L83.2549,66.9883 M70.2549,85.9883 L57.2549,100.9883 M70.2549,85.9883 L83.2549,100.9883" fill="none" style="stroke:#181818;stroke-width:0.5;"/></g><g class="participant participant-head" data-participant="System"><rect fill="#E2E2F0" height="30.4883" rx="2.5" ry="2.5" style="stroke:#181818;stroke-width:0.5;" width="62.0977" x="398.7666" y="87.4883"/><text fill="#000000" font-family="sans-serif" font-size="14" lengthAdjust="spacing" textLength="48.0977" x="405.7666" y="108.0234">System</text></g><g><title>System</title><rect fill="#FFFFFF" height="71.6211" style="stroke:#181818;stroke-width:1;" width="10" x="424.8154" y="150.2871"/></g><g><title>System</title><rect fill="#FFFFFF" height="113.9316" style="stroke:#181818;stroke-width:1;" width="10" x="424.8154" y="251.2188"/></g><g class="message" data-participant-1="LO" data-participant-2="System"><polygon fill="#181818" points="412.8154,146.2871,422.8154,150.2871,412.8154,154.2871" style="stroke:#181818;stroke-width:1;"/><line style="stroke:#181818;stroke-width:1;" x1="70.2549" x2="418.8154" y1="150.2871" y2="150.2871"/><text fill="#000000" font-family="sans-serif" font-size="13" lengthAdjust="spacing" textLength="178.9658" x="77.2549" y="145.5449">Clicks "Check Missing Plans"</text></g><g class="message" data-participant-1="System" data-participant-2="System"><line style="stroke:#181818;stroke-width:1;" x1="434.8154" x2="476.8154" y1="179.5977" y2="179.5977"/><line style="stroke:#181818;stroke-width:1;" x1="476.8154" x2="476.8154" y1="179.5977" y2="192.5977"/><line style="stroke:#181818;stroke-width:1;" x1="435.8154" x2="476.8154" y1="192.5977" y2="192.5977"/><polygon fill="#181818" points="445.8154,188.5977,435.8154,192.5977,445.8154,196.5977" style="stroke:#181818;stroke-width:1;"/><text fill="#000000" font-family="sans-serif" font-size="13" lengthAdjust="spacing" textLength="231.6069" x="441.8154" y="174.8555">Search for dates without saved plans</text></g><g class="message" data-participant-1="System" data-participant-2="LO"><polygon fill="#181818" points="81.2549,217.9082,71.2549,221.9082,81.2549,225.9082" style="stroke:#181818;stroke-width:1;"/><line style="stroke:#181818;stroke-width:1;stroke-dasharray:2,2;" x1="75.2549" x2="428.8154" y1="221.9082" y2="221.9082"/><text fill="#000000" font-family="sans-serif" font-size="13" lengthAdjust="spacing" textLength="237.7007" x="87.2549" y="217.166">Show Modal with list of missing dates</text></g><g class="message" data-participant-1="LO" data-participant-2="System"><polygon fill="#181818" points="412.8154,247.2188,422.8154,251.2188,412.8154,255.2188" style="stroke:#181818;stroke-width:1;"/><line style="stroke:#181818;stroke-width:1;" x1="70.2549" x2="418.8154" y1="251.2188" y2="251.2188"/><text fill="#000000" font-family="sans-serif" font-size="13" lengthAdjust="spacing" textLength="213.1543" x="77.2549" y="246.4766">Select a specific date from the list</text></g><g class="message" data-participant-1="System" data-participant-2="System"><line style="stroke:#181818;stroke-width:1;" x1="434.8154" x2="476.8154" y1="280.5293" y2="280.5293"/><line style="stroke:#181818;stroke-width:1;" x1="476.8154" x2="476.8154" y1="280.5293" y2="293.5293"/><line style="stroke:#181818;stroke-width:1;" x1="435.8154" x2="476.8154" y1="293.5293" y2="293.5293"/><polygon fill="#181818" points="445.8154,289.5293,435.8154,293.5293,445.8154,297.5293" style="stroke:#181818;stroke-width:1;"/><text fill="#000000" font-family="sans-serif" font-size="13" lengthAdjust="spacing" textLength="182.438" x="441.8154" y="275.7871">Update selected date in form</text></g><g class="message" data-participant-1="System" data-participant-2="System"><line style="stroke:#181818;stroke-width:1;" x1="434.8154" x2="476.8154" y1="322.8398" y2="322.8398"/><line style="stroke:#181818;stroke-width:1;" x1="476.8154" x2="476.8154" y1="322.8398" y2="335.8398"/><line style="stroke:#181818;stroke-width:1;" x1="435.8154" x2="476.8154" y1="335.8398" y2="335.8398"/><polygon fill="#181818" points="445.8154,331.8398,435.8154,335.8398,445.8154,339.8398" style="stroke:#181818;stroke-width:1;"/><text fill="#000000" font-family="sans-serif" font-size="13" lengthAdjust="spacing" textLength="209.1807" x="441.8154" y="318.0977">Clear previous calculation results</text></g><g class="message" data-participant-1="System" data-participant-2="LO"><polygon fill="#181818" points="81.2549,361.1504,71.2549,365.1504,81.2549,369.1504" style="stroke:#181818;stroke-width:1;"/><line style="stroke:#181818;stroke-width:1;stroke-dasharray:2,2;" x1="75.2549" x2="428.8154" y1="365.1504" y2="365.1504"/><text fill="#000000" font-family="sans-serif" font-size="13" lengthAdjust="spacing" textLength="330.5605" x="87.2549" y="360.4082">Close modal and display date ready for computation</text></g><!--SRC=[ZL4xRiCm3Drr2i9xBz2XIpecI06Z1o0aEYOiMO989_3jooXkq3OPkWWI-Jvyb4my5woOG7IDP6TbhqkAJkwTWdx24_KDKCchS-WrL-Zs-SIYx0MEXIfQhGCKs1-TCQtE1MU5hbz5ARNMxUgSiffOtx-_mcuaFm7E0NgAfWu75k7v11yHPt5kVuINjuq81e_i9u7kHlk5xQvpyHcLxZuRxQT0JrZz28C520OLkB2EUL4GF5E0qbo_UKOqVoED-GA7730sE4JB3Nc0jFat9HVeOO0_qsyH4QIGvu5zOy9GSm8TgUd-AyLdQKHfUZPsU_5yZPMUuNVHOaEfTEQy27YCVeced6VxKbcYFcRUnIm4gOM-VazWiUMiDwjA6DQsH9zJMRH9FLd05m00]--></g></svg>