<svg xmlns="http://www.w3.org/2000/svg" xmlns:xlink="http://www.w3.org/1999/xlink" contentStyleType="text/css" data-diagram-type="CLASS" height="1292px" preserveAspectRatio="none" style="width:1510px;height:1292px;background:#FFFFFF;" version="1.1" viewBox="0 0 1510 1292" width="1510px" zoomAndPan="magnify"><defs/><g><!--cluster Domain--><g class="cluster" data-entity="Domain" data-source-line="2" data-uid="ent0002" id="cluster_Domain"><path d="M461.5,929.68 L518.0967,929.68 A3.75,3.75 0 0 1 520.5967,932.18 L527.5967,952.1683 L985.5,952.1683 A2.5,2.5 0 0 1 988,954.6683 L988,1282.57 A2.5,2.5 0 0 1 985.5,1285.07 L461.5,1285.07 A2.5,2.5 0 0 1 459,1282.57 L459,932.18 A2.5,2.5 0 0 1 461.5,929.68" fill="none" style="stroke:#000000;stroke-width:1.5;"/><line style="stroke:#000000;stroke-width:1.5;" x1="459" x2="527.5967" y1="952.1683" y2="952.1683"/><text fill="#000000" font-family="sans-serif" font-size="14" font-weight="bold" lengthAdjust="spacing" textLength="55.5967" x="463" y="945.2152">Domain</text></g><!--cluster DTOs--><g class="cluster" data-entity="DTOs" data-source-line="31" data-uid="ent0008" id="cluster_DTOs"><path d="M758.5,724.23 L799.7021,724.23 A3.75,3.75 0 0 1 802.2021,726.73 L809.2021,746.7183 L1431.5,746.7183 A2.5,2.5 0 0 1 1434,749.2183 L1434,903.18 A2.5,2.5 0 0 1 1431.5,905.68 L758.5,905.68 A2.5,2.5 0 0 1 756,903.18 L756,726.73 A2.5,2.5 0 0 1 758.5,724.23" fill="none" style="stroke:#000000;stroke-width:1.5;"/><line style="stroke:#000000;stroke-width:1.5;" x1="756" x2="809.2021" y1="746.7183" y2="746.7183"/><text fill="#000000" font-family="sans-serif" font-size="14" font-weight="bold" lengthAdjust="spacing" textLength="40.2021" x="760" y="739.7652">DTOs</text></g><!--cluster Application--><g class="cluster" data-entity="Application" data-source-line="53" data-uid="ent0012" id="cluster_Application"><path d="M711.5,260.91 L794.5107,260.91 A3.75,3.75 0 0 1 797.0107,263.41 L804.0107,283.3983 L1206.5,283.3983 A2.5,2.5 0 0 1 1209,285.8983 L1209,671.51 A2.5,2.5 0 0 1 1206.5,674.01 L711.5,674.01 A2.5,2.5 0 0 1 709,671.51 L709,263.41 A2.5,2.5 0 0 1 711.5,260.91" fill="none" style="stroke:#000000;stroke-width:1.5;"/><line style="stroke:#000000;stroke-width:1.5;" x1="709" x2="804.0107" y1="283.3983" y2="283.3983"/><text fill="#000000" font-family="sans-serif" font-size="14" font-weight="bold" lengthAdjust="spacing" textLength="82.0107" x="713" y="276.4452">Application</text></g><!--cluster Infrastructure--><g class="cluster" data-entity="Infrastructure" data-source-line="71" data-uid="ent0015" id="cluster_Infrastructure"><path d="M8.5,500.82 L109.7695,500.82 A3.75,3.75 0 0 1 112.2695,503.32 L119.2695,523.3083 L682.5,523.3083 A2.5,2.5 0 0 1 685,525.8083 L685,861.95 A2.5,2.5 0 0 1 682.5,864.45 L8.5,864.45 A2.5,2.5 0 0 1 6,861.95 L6,503.32 A2.5,2.5 0 0 1 8.5,500.82" fill="none" style="stroke:#000000;stroke-width:1.5;"/><line style="stroke:#000000;stroke-width:1.5;" x1="6" x2="119.2695" y1="523.3083" y2="523.3083"/><text fill="#000000" font-family="sans-serif" font-size="14" font-weight="bold" lengthAdjust="spacing" textLength="100.2695" x="10" y="516.3552">Infrastructure</text></g><!--cluster Presentation--><g class="cluster" data-entity="Presentation" data-source-line="93" data-uid="ent0022" id="cluster_Presentation"><path d="M876.5,6 L968.2334,6 A3.75,3.75 0 0 1 970.7334,8.5 L977.7334,28.4883 L1347.5,28.4883 A2.5,2.5 0 0 1 1350,30.9883 L1350,234.41 A2.5,2.5 0 0 1 1347.5,236.91 L876.5,236.91 A2.5,2.5 0 0 1 874,234.41 L874,8.5 A2.5,2.5 0 0 1 876.5,6" fill="none" style="stroke:#000000;stroke-width:1.5;"/><line style="stroke:#000000;stroke-width:1.5;" x1="874" x2="977.7334" y1="28.4883" y2="28.4883"/><text fill="#000000" font-family="sans-serif" font-size="14" font-weight="bold" lengthAdjust="spacing" textLength="90.7334" x="878" y="21.5352">Presentation</text></g><!--cluster Cross-cutting--><g class="cluster" data-entity="Cross-cutting" data-source-line="106" data-uid="ent0024" id="cluster_Cross-cutting"><path d="M1235.5,533.79 L1337.5283,533.79 A3.75,3.75 0 0 1 1340.0283,536.29 L1347.0283,556.2783 L1500.5,556.2783 A2.5,2.5 0 0 1 1503,558.7783 L1503,679.76 A2.5,2.5 0 0 1 1500.5,682.26 L1235.5,682.26 A2.5,2.5 0 0 1 1233,679.76 L1233,536.29 A2.5,2.5 0 0 1 1235.5,533.79" fill="none" style="stroke:#000000;stroke-width:1.5;"/><line style="stroke:#000000;stroke-width:1.5;" x1="1233" x2="1347.0283" y1="556.2783" y2="556.2783"/><text fill="#000000" font-family="sans-serif" font-size="14" font-weight="bold" lengthAdjust="spacing" textLength="101.0283" x="1237" y="549.3252">Cross-cutting</text></g><!--class Vessel--><g class="entity" data-entity="Vessel" data-source-line="3" data-uid="ent0003" id="entity_Vessel"><rect fill="#F1F1F1" height="163.418" rx="2.5" ry="2.5" style="stroke:#181818;stroke-width:0.5;" width="207.8223" x="475.09" y="964.68"/><ellipse cx="553.2145" cy="980.68" fill="#ADD1B2" rx="11" ry="11" style="stroke:#181818;stroke-width:1;"/><path d="M556.1877,986.3231 Q555.6066,986.6219 554.9674,986.7713 Q554.3283,986.9207 553.6227,986.9207 Q551.1159,986.9207 549.7961,985.2689 Q548.4762,983.617 548.4762,980.4959 Q548.4762,977.3665 549.7961,975.7147 Q551.1159,974.0628 553.6227,974.0628 Q554.3283,974.0628 554.9757,974.2122 Q555.6232,974.3616 556.1877,974.6605 L556.1877,977.3831 Q555.5568,976.8021 554.9633,976.5323 Q554.3698,976.2625 553.7389,976.2625 Q552.3942,976.2625 551.7094,977.3292 Q551.0246,978.3958 551.0246,980.4959 Q551.0246,982.5877 551.7094,983.6544 Q552.3942,984.721 553.7389,984.721 Q554.3698,984.721 554.9633,984.4512 Q555.5568,984.1815 556.1877,983.6004 Z " fill="#000000"/><text fill="#000000" font-family="sans-serif" font-size="14" lengthAdjust="spacing" textLength="43.0732" x="573.7145" y="985.971">Vessel</text><line style="stroke:#181818;stroke-width:0.5;" x1="476.09" x2="681.9123" y1="996.68" y2="996.68"/><rect fill="none" height="6" style="stroke:#C82930;stroke-width:1;" width="6" x="483.09" y="1007.4241"/><text fill="#000000" font-family="sans-serif" font-size="14" lengthAdjust="spacing" textLength="164.7188" x="495.09" y="1014.2152">ImoNumber ImoNumber</text><rect fill="none" height="6" style="stroke:#C82930;stroke-width:1;" width="6" x="483.09" y="1023.9124"/><text fill="#000000" font-family="sans-serif" font-size="14" lengthAdjust="spacing" textLength="82.9404" x="495.09" y="1030.7034">string Name</text><rect fill="none" height="6" style="stroke:#C82930;stroke-width:1;" width="6" x="483.09" y="1040.4007"/><text fill="#000000" font-family="sans-serif" font-size="14" lengthAdjust="spacing" textLength="87.876" x="495.09" y="1047.1917">string Owner</text><rect fill="none" height="6" style="stroke:#C82930;stroke-width:1;" width="6" x="483.09" y="1056.889"/><text fill="#000000" font-family="sans-serif" font-size="14" lengthAdjust="spacing" textLength="181.8223" x="495.09" y="1063.68">VesselTypeId VesselTypeId</text><line style="stroke:#181818;stroke-width:0.5;" x1="476.09" x2="681.9123" y1="1070.6331" y2="1070.6331"/><ellipse cx="486.09" cy="1084.3773" fill="#84BE84" rx="3" ry="3" style="stroke:#038048;stroke-width:1;"/><text fill="#000000" font-family="sans-serif" font-size="14" lengthAdjust="spacing" textLength="135.707" x="495.09" y="1088.1683">UpdateName(string)</text><ellipse cx="486.09" cy="1100.8655" fill="#84BE84" rx="3" ry="3" style="stroke:#038048;stroke-width:1;"/><text fill="#000000" font-family="sans-serif" font-size="14" lengthAdjust="spacing" textLength="140.6426" x="495.09" y="1104.6566">UpdateOwner(string)</text><ellipse cx="486.09" cy="1117.3538" fill="#84BE84" rx="3" ry="3" style="stroke:#038048;stroke-width:1;"/><text fill="#000000" font-family="sans-serif" font-size="14" lengthAdjust="spacing" textLength="119.3828" x="495.09" y="1121.1448">ToString() : string</text></g><!--class VesselId--><g class="entity" data-entity="VesselId" data-source-line="13" data-uid="ent0004" id="entity_VesselId"><rect fill="#F1F1F1" height="80.9766" rx="2.5" ry="2.5" style="stroke:#181818;stroke-width:0.5;" width="128.5186" x="474.74" y="1188.09"/><ellipse cx="508.0103" cy="1204.09" fill="#ADD1B2" rx="11" ry="11" style="stroke:#181818;stroke-width:1;"/><path d="M510.9834,1209.7331 Q510.4024,1210.0319 509.7632,1210.1813 Q509.124,1210.3307 508.4185,1210.3307 Q505.9116,1210.3307 504.5918,1208.6789 Q503.272,1207.027 503.272,1203.9059 Q503.272,1200.7765 504.5918,1199.1247 Q505.9116,1197.4728 508.4185,1197.4728 Q509.124,1197.4728 509.7715,1197.6222 Q510.419,1197.7716 510.9834,1198.0705 L510.9834,1200.7931 Q510.3525,1200.2121 509.759,1199.9423 Q509.1655,1199.6725 508.5347,1199.6725 Q507.19,1199.6725 506.5051,1200.7392 Q505.8203,1201.8058 505.8203,1203.9059 Q505.8203,1205.9977 506.5051,1207.0644 Q507.19,1208.131 508.5347,1208.131 Q509.1655,1208.131 509.759,1207.8612 Q510.3525,1207.5915 510.9834,1207.0104 Z " fill="#000000"/><text fill="#000000" font-family="sans-serif" font-size="14" lengthAdjust="spacing" textLength="55.918" x="526.0703" y="1209.381">VesselId</text><line style="stroke:#181818;stroke-width:0.5;" x1="475.74" x2="602.2586" y1="1220.09" y2="1220.09"/><rect fill="none" height="6" style="stroke:#C82930;stroke-width:1;" width="6" x="482.74" y="1230.8341"/><text fill="#000000" font-family="sans-serif" font-size="14" lengthAdjust="spacing" textLength="73.5137" x="494.74" y="1237.6252">Guid Value</text><line style="stroke:#181818;stroke-width:0.5;" x1="475.74" x2="602.2586" y1="1244.5783" y2="1244.5783"/><ellipse cx="485.74" cy="1258.3224" fill="#84BE84" rx="3" ry="3" style="stroke:#038048;stroke-width:1;"/><text fill="#000000" font-family="sans-serif" font-size="14" lengthAdjust="spacing" textLength="102.5186" x="494.74" y="1262.1134">AsGuid() : Guid</text></g><!--class ImoNumber--><g class="entity" data-entity="ImoNumber" data-source-line="18" data-uid="ent0005" id="entity_ImoNumber"><rect fill="#F1F1F1" height="80.9766" rx="2.5" ry="2.5" style="stroke:#181818;stroke-width:0.5;" width="145.3828" x="638.31" y="1188.09"/><ellipse cx="668.2672" cy="1204.09" fill="#ADD1B2" rx="11" ry="11" style="stroke:#181818;stroke-width:1;"/><path d="M671.2404,1209.7331 Q670.6593,1210.0319 670.0202,1210.1813 Q669.381,1210.3307 668.6754,1210.3307 Q666.1686,1210.3307 664.8488,1208.6789 Q663.5289,1207.027 663.5289,1203.9059 Q663.5289,1200.7765 664.8488,1199.1247 Q666.1686,1197.4728 668.6754,1197.4728 Q669.381,1197.4728 670.0285,1197.6222 Q670.6759,1197.7716 671.2404,1198.0705 L671.2404,1200.7931 Q670.6095,1200.2121 670.016,1199.9423 Q669.4225,1199.6725 668.7916,1199.6725 Q667.4469,1199.6725 666.7621,1200.7392 Q666.0773,1201.8058 666.0773,1203.9059 Q666.0773,1205.9977 666.7621,1207.0644 Q667.4469,1208.131 668.7916,1208.131 Q669.4225,1208.131 670.016,1207.8612 Q670.6095,1207.5915 671.2404,1207.0104 Z " fill="#000000"/><text fill="#000000" font-family="sans-serif" font-size="14" lengthAdjust="spacing" textLength="80.1445" x="685.5911" y="1209.381">ImoNumber</text><line style="stroke:#181818;stroke-width:0.5;" x1="639.31" x2="782.6928" y1="1220.09" y2="1220.09"/><rect fill="none" height="6" style="stroke:#C82930;stroke-width:1;" width="6" x="646.31" y="1230.8341"/><text fill="#000000" font-family="sans-serif" font-size="14" lengthAdjust="spacing" textLength="59.8213" x="658.31" y="1237.6252">int Value</text><line style="stroke:#181818;stroke-width:0.5;" x1="639.31" x2="782.6928" y1="1244.5783" y2="1244.5783"/><ellipse cx="649.31" cy="1258.3224" fill="#84BE84" rx="3" ry="3" style="stroke:#038048;stroke-width:1;"/><text fill="#000000" font-family="sans-serif" font-size="14" lengthAdjust="spacing" textLength="119.3828" x="658.31" y="1262.1134">ToString() : string</text></g><!--class VesselTypeId--><g class="entity" data-entity="VesselTypeId" data-source-line="23" data-uid="ent0006" id="entity_VesselTypeId"><rect fill="#F1F1F1" height="80.9766" rx="2.5" ry="2.5" style="stroke:#181818;stroke-width:0.5;" width="128.5186" x="818.74" y="1188.09"/><ellipse cx="837.26" cy="1204.09" fill="#ADD1B2" rx="11" ry="11" style="stroke:#181818;stroke-width:1;"/><path d="M840.2332,1209.7331 Q839.6521,1210.0319 839.0129,1210.1813 Q838.3738,1210.3307 837.6682,1210.3307 Q835.1614,1210.3307 833.8416,1208.6789 Q832.5217,1207.027 832.5217,1203.9059 Q832.5217,1200.7765 833.8416,1199.1247 Q835.1614,1197.4728 837.6682,1197.4728 Q838.3738,1197.4728 839.0213,1197.6222 Q839.6687,1197.7716 840.2332,1198.0705 L840.2332,1200.7931 Q839.6023,1200.2121 839.0088,1199.9423 Q838.4153,1199.6725 837.7844,1199.6725 Q836.4397,1199.6725 835.7549,1200.7392 Q835.0701,1201.8058 835.0701,1203.9059 Q835.0701,1205.9977 835.7549,1207.0644 Q836.4397,1208.131 837.7844,1208.131 Q838.4153,1208.131 839.0088,1207.8612 Q839.6023,1207.5915 840.2332,1207.0104 Z " fill="#000000"/><text fill="#000000" font-family="sans-serif" font-size="14" lengthAdjust="spacing" textLength="88.6963" x="852.0422" y="1209.381">VesselTypeId</text><line style="stroke:#181818;stroke-width:0.5;" x1="819.74" x2="946.2586" y1="1220.09" y2="1220.09"/><rect fill="none" height="6" style="stroke:#C82930;stroke-width:1;" width="6" x="826.74" y="1230.8341"/><text fill="#000000" font-family="sans-serif" font-size="14" lengthAdjust="spacing" textLength="73.5137" x="838.74" y="1237.6252">Guid Value</text><line style="stroke:#181818;stroke-width:0.5;" x1="819.74" x2="946.2586" y1="1244.5783" y2="1244.5783"/><ellipse cx="829.74" cy="1258.3224" fill="#84BE84" rx="3" ry="3" style="stroke:#038048;stroke-width:1;"/><text fill="#000000" font-family="sans-serif" font-size="14" lengthAdjust="spacing" textLength="102.5186" x="838.74" y="1262.1134">AsGuid() : Guid</text></g><!--class BusinessRuleValidationException--><g class="entity" data-entity="BusinessRuleValidationException" data-source-line="28" data-uid="ent0007" id="entity_BusinessRuleValidationException"><rect fill="#F1F1F1" height="48" rx="2.5" ry="2.5" style="stroke:#181818;stroke-width:0.5;" width="254.6943" x="717.65" y="1022.38"/><ellipse cx="732.65" cy="1038.38" fill="#ADD1B2" rx="11" ry="11" style="stroke:#181818;stroke-width:1;"/><path d="M735.6231,1044.0231 Q735.0421,1044.3219 734.4029,1044.4713 Q733.7638,1044.6207 733.0582,1044.6207 Q730.5514,1044.6207 729.2315,1042.9689 Q727.9117,1041.317 727.9117,1038.1959 Q727.9117,1035.0665 729.2315,1033.4147 Q730.5514,1031.7628 733.0582,1031.7628 Q733.7638,1031.7628 734.4112,1031.9122 Q735.0587,1032.0616 735.6231,1032.3605 L735.6231,1035.0831 Q734.9923,1034.5021 734.3988,1034.2323 Q733.8053,1033.9625 733.1744,1033.9625 Q731.8297,1033.9625 731.1449,1035.0292 Q730.4601,1036.0958 730.4601,1038.1959 Q730.4601,1040.2877 731.1449,1041.3544 Q731.8297,1042.421 733.1744,1042.421 Q733.8053,1042.421 734.3988,1042.1512 Q734.9923,1041.8815 735.6231,1041.3004 Z " fill="#000000"/><text fill="#000000" font-family="sans-serif" font-size="14" lengthAdjust="spacing" textLength="222.6943" x="746.65" y="1043.671">BusinessRuleValidationException</text><line style="stroke:#181818;stroke-width:0.5;" x1="718.65" x2="971.3443" y1="1054.38" y2="1054.38"/><line style="stroke:#181818;stroke-width:0.5;" x1="718.65" x2="971.3443" y1="1062.38" y2="1062.38"/></g><!--class CreatingVesselDto--><g class="entity" data-entity="CreatingVesselDto" data-source-line="32" data-uid="ent0009" id="entity_CreatingVesselDto"><rect fill="#F1F1F1" height="113.9531" rx="2.5" ry="2.5" style="stroke:#181818;stroke-width:0.5;" width="207.8223" x="772.09" y="767.48"/><ellipse cx="809.9407" cy="783.48" fill="#ADD1B2" rx="11" ry="11" style="stroke:#181818;stroke-width:1;"/><path d="M812.9138,789.1231 Q812.3328,789.4219 811.6936,789.5713 Q811.0545,789.7207 810.3489,789.7207 Q807.8421,789.7207 806.5222,788.0689 Q805.2024,786.417 805.2024,783.2959 Q805.2024,780.1665 806.5222,778.5147 Q807.8421,776.8628 810.3489,776.8628 Q811.0545,776.8628 811.7019,777.0122 Q812.3494,777.1616 812.9138,777.4605 L812.9138,780.1831 Q812.283,779.6021 811.6895,779.3323 Q811.096,779.0625 810.4651,779.0625 Q809.1204,779.0625 808.4356,780.1292 Q807.7507,781.1958 807.7507,783.2959 Q807.7507,785.3877 808.4356,786.4544 Q809.1204,787.521 810.4651,787.521 Q811.096,787.521 811.6895,787.2512 Q812.283,786.9815 812.9138,786.4004 Z " fill="#000000"/><text fill="#000000" font-family="sans-serif" font-size="14" lengthAdjust="spacing" textLength="125.043" x="829.0186" y="788.771">CreatingVesselDto</text><line style="stroke:#181818;stroke-width:0.5;" x1="773.09" x2="978.9123" y1="799.48" y2="799.48"/><ellipse cx="783.09" cy="813.2241" fill="none" rx="3" ry="3" style="stroke:#038048;stroke-width:1;"/><text fill="#000000" font-family="sans-serif" font-size="14" lengthAdjust="spacing" textLength="124.1406" x="792.09" y="817.0152">string ImoNumber</text><ellipse cx="783.09" cy="829.7124" fill="none" rx="3" ry="3" style="stroke:#038048;stroke-width:1;"/><text fill="#000000" font-family="sans-serif" font-size="14" lengthAdjust="spacing" textLength="82.9404" x="792.09" y="833.5034">string Name</text><ellipse cx="783.09" cy="846.2007" fill="none" rx="3" ry="3" style="stroke:#038048;stroke-width:1;"/><text fill="#000000" font-family="sans-serif" font-size="14" lengthAdjust="spacing" textLength="87.876" x="792.09" y="849.9917">string Owner</text><ellipse cx="783.09" cy="862.689" fill="none" rx="3" ry="3" style="stroke:#038048;stroke-width:1;"/><text fill="#000000" font-family="sans-serif" font-size="14" lengthAdjust="spacing" textLength="181.8223" x="792.09" y="866.48">VesselTypeId VesselTypeId</text><line style="stroke:#181818;stroke-width:0.5;" x1="773.09" x2="978.9123" y1="873.4331" y2="873.4331"/></g><!--class UpdatingVesselDto--><g class="entity" data-entity="UpdatingVesselDto" data-source-line="39" data-uid="ent0010" id="entity_UpdatingVesselDto"><rect fill="#F1F1F1" height="80.9766" rx="2.5" ry="2.5" style="stroke:#181818;stroke-width:0.5;" width="161.1514" x="1014.42" y="783.97"/><ellipse cx="1029.42" cy="799.97" fill="#ADD1B2" rx="11" ry="11" style="stroke:#181818;stroke-width:1;"/><path d="M1032.3931,805.6131 Q1031.8121,805.9119 1031.1729,806.0613 Q1030.5338,806.2107 1029.8282,806.2107 Q1027.3214,806.2107 1026.0015,804.5589 Q1024.6817,802.907 1024.6817,799.7859 Q1024.6817,796.6565 1026.0015,795.0047 Q1027.3214,793.3528 1029.8282,793.3528 Q1030.5338,793.3528 1031.1812,793.5022 Q1031.8287,793.6516 1032.3931,793.9505 L1032.3931,796.6731 Q1031.7623,796.0921 1031.1688,795.8223 Q1030.5753,795.5525 1029.9444,795.5525 Q1028.5997,795.5525 1027.9149,796.6192 Q1027.2301,797.6858 1027.2301,799.7859 Q1027.2301,801.8777 1027.9149,802.9444 Q1028.5997,804.011 1029.9444,804.011 Q1030.5753,804.011 1031.1688,803.7412 Q1031.7623,803.4715 1032.3931,802.8904 Z " fill="#000000"/><text fill="#000000" font-family="sans-serif" font-size="14" lengthAdjust="spacing" textLength="129.1514" x="1043.42" y="805.261">UpdatingVesselDto</text><line style="stroke:#181818;stroke-width:0.5;" x1="1015.42" x2="1174.5714" y1="815.97" y2="815.97"/><ellipse cx="1025.42" cy="829.7141" fill="none" rx="3" ry="3" style="stroke:#038048;stroke-width:1;"/><text fill="#000000" font-family="sans-serif" font-size="14" lengthAdjust="spacing" textLength="88.8467" x="1034.42" y="833.5052">string? Name</text><ellipse cx="1025.42" cy="846.2024" fill="none" rx="3" ry="3" style="stroke:#038048;stroke-width:1;"/><text fill="#000000" font-family="sans-serif" font-size="14" lengthAdjust="spacing" textLength="93.7822" x="1034.42" y="849.9934">string? Owner</text><line style="stroke:#181818;stroke-width:0.5;" x1="1015.42" x2="1174.5714" y1="856.9466" y2="856.9466"/></g><!--class VesselDto--><g class="entity" data-entity="VesselDto" data-source-line="44" data-uid="ent0011" id="entity_VesselDto"><rect fill="#F1F1F1" height="130.4414" rx="2.5" ry="2.5" style="stroke:#181818;stroke-width:0.5;" width="207.8223" x="1210.09" y="759.23"/><ellipse cx="1276.0534" cy="775.23" fill="#ADD1B2" rx="11" ry="11" style="stroke:#181818;stroke-width:1;"/><path d="M1279.0265,780.8731 Q1278.4455,781.1719 1277.8063,781.3213 Q1277.1671,781.4707 1276.4616,781.4707 Q1273.9547,781.4707 1272.6349,779.8189 Q1271.3151,778.167 1271.3151,775.0459 Q1271.3151,771.9165 1272.6349,770.2647 Q1273.9547,768.6128 1276.4616,768.6128 Q1277.1671,768.6128 1277.8146,768.7622 Q1278.4621,768.9116 1279.0265,769.2105 L1279.0265,771.9331 Q1278.3957,771.3521 1277.8022,771.0823 Q1277.2087,770.8125 1276.5778,770.8125 Q1275.2331,770.8125 1274.5483,771.8792 Q1273.8634,772.9458 1273.8634,775.0459 Q1273.8634,777.1377 1274.5483,778.2044 Q1275.2331,779.271 1276.5778,779.271 Q1277.2087,779.271 1277.8022,779.0012 Q1278.3957,778.7315 1279.0265,778.1504 Z " fill="#000000"/><text fill="#000000" font-family="sans-serif" font-size="14" lengthAdjust="spacing" textLength="67.3955" x="1296.5534" y="780.521">VesselDto</text><line style="stroke:#181818;stroke-width:0.5;" x1="1211.09" x2="1416.9123" y1="791.23" y2="791.23"/><ellipse cx="1221.09" cy="804.9741" fill="none" rx="3" ry="3" style="stroke:#038048;stroke-width:1;"/><text fill="#000000" font-family="sans-serif" font-size="14" lengthAdjust="spacing" textLength="48.9385" x="1230.09" y="808.7652">Guid Id</text><ellipse cx="1221.09" cy="821.4624" fill="none" rx="3" ry="3" style="stroke:#038048;stroke-width:1;"/><text fill="#000000" font-family="sans-serif" font-size="14" lengthAdjust="spacing" textLength="164.7188" x="1230.09" y="825.2534">ImoNumber ImoNumber</text><ellipse cx="1221.09" cy="837.9507" fill="none" rx="3" ry="3" style="stroke:#038048;stroke-width:1;"/><text fill="#000000" font-family="sans-serif" font-size="14" lengthAdjust="spacing" textLength="82.9404" x="1230.09" y="841.7417">string Name</text><ellipse cx="1221.09" cy="854.439" fill="none" rx="3" ry="3" style="stroke:#038048;stroke-width:1;"/><text fill="#000000" font-family="sans-serif" font-size="14" lengthAdjust="spacing" textLength="87.876" x="1230.09" y="858.23">string Owner</text><ellipse cx="1221.09" cy="870.9273" fill="none" rx="3" ry="3" style="stroke:#038048;stroke-width:1;"/><text fill="#000000" font-family="sans-serif" font-size="14" lengthAdjust="spacing" textLength="181.8223" x="1230.09" y="874.7183">VesselTypeId VesselTypeId</text><line style="stroke:#181818;stroke-width:0.5;" x1="1211.09" x2="1416.9123" y1="881.6714" y2="881.6714"/></g><!--class VesselService--><g class="entity" data-entity="VesselService" data-source-line="54" data-uid="ent0013" id="entity_VesselService"><rect fill="#F1F1F1" height="179.9063" rx="2.5" ry="2.5" style="stroke:#181818;stroke-width:0.5;" width="467.8887" x="725.06" y="295.91"/><ellipse cx="909.5517" cy="311.91" fill="#ADD1B2" rx="11" ry="11" style="stroke:#181818;stroke-width:1;"/><path d="M912.5248,317.5531 Q911.9438,317.8519 911.3046,318.0013 Q910.6655,318.1507 909.9599,318.1507 Q907.4531,318.1507 906.1332,316.4989 Q904.8134,314.847 904.8134,311.7259 Q904.8134,308.5965 906.1332,306.9447 Q907.4531,305.2928 909.9599,305.2928 Q910.6655,305.2928 911.3129,305.4422 Q911.9604,305.5916 912.5248,305.8905 L912.5248,308.6131 Q911.894,308.0321 911.3005,307.7623 Q910.707,307.4925 910.0761,307.4925 Q908.7314,307.4925 908.0466,308.5592 Q907.3618,309.6258 907.3618,311.7259 Q907.3618,313.8177 908.0466,314.8844 Q908.7314,315.951 910.0761,315.951 Q910.707,315.951 911.3005,315.6812 Q911.894,315.4115 912.5248,314.8304 Z " fill="#000000"/><text fill="#000000" font-family="sans-serif" font-size="14" lengthAdjust="spacing" textLength="90.4053" x="930.0517" y="317.201">VesselService</text><line style="stroke:#181818;stroke-width:0.5;" x1="726.06" x2="1191.9487" y1="327.91" y2="327.91"/><line style="stroke:#181818;stroke-width:0.5;" x1="726.06" x2="1191.9487" y1="335.91" y2="335.91"/><ellipse cx="736.06" cy="349.6541" fill="#84BE84" rx="3" ry="3" style="stroke:#038048;stroke-width:1;"/><text fill="#000000" font-family="sans-serif" font-size="14" lengthAdjust="spacing" textLength="216.8086" x="745.06" y="353.4452">GetAllAsync() : List&lt;VesselDto&gt;</text><ellipse cx="736.06" cy="366.1424" fill="#84BE84" rx="3" ry="3" style="stroke:#038048;stroke-width:1;"/><text fill="#000000" font-family="sans-serif" font-size="14" lengthAdjust="spacing" textLength="237.043" x="745.06" y="369.9334">GetByIdAsync(VesselId) : VesselDto</text><ellipse cx="736.06" cy="382.6307" fill="#84BE84" rx="3" ry="3" style="stroke:#038048;stroke-width:1;"/><text fill="#000000" font-family="sans-serif" font-size="14" lengthAdjust="spacing" textLength="287.9912" x="745.06" y="386.4217">GetByImoNumberAsync(string) : VesselDto</text><ellipse cx="736.06" cy="399.119" fill="#84BE84" rx="3" ry="3" style="stroke:#038048;stroke-width:1;"/><text fill="#000000" font-family="sans-serif" font-size="14" lengthAdjust="spacing" textLength="292.9336" x="745.06" y="402.91">GetByNameAsync(string) : List&lt;VesselDto&gt;</text><ellipse cx="736.06" cy="415.6073" fill="#84BE84" rx="3" ry="3" style="stroke:#038048;stroke-width:1;"/><text fill="#000000" font-family="sans-serif" font-size="14" lengthAdjust="spacing" textLength="297.8691" x="745.06" y="419.3983">GetByOwnerAsync(string) : List&lt;VesselDto&gt;</text><ellipse cx="736.06" cy="432.0955" fill="#84BE84" rx="3" ry="3" style="stroke:#038048;stroke-width:1;"/><text fill="#000000" font-family="sans-serif" font-size="14" lengthAdjust="spacing" textLength="441.8887" x="745.06" y="435.8866">GetFilterAsync(string?, string?, string?, string?) : List&lt;VesselDto&gt;</text><ellipse cx="736.06" cy="448.5838" fill="#84BE84" rx="3" ry="3" style="stroke:#038048;stroke-width:1;"/><text fill="#000000" font-family="sans-serif" font-size="14" lengthAdjust="spacing" textLength="298.7852" x="745.06" y="452.3748">CreateAsync(CreatingVesselDto) : VesselDto</text><ellipse cx="736.06" cy="465.0721" fill="#84BE84" rx="3" ry="3" style="stroke:#038048;stroke-width:1;"/><text fill="#000000" font-family="sans-serif" font-size="14" lengthAdjust="spacing" textLength="384.9727" x="745.06" y="468.8631">PatchByImoAsync(string, UpdatingVesselDto) : VesselDto</text></g><!--class VesselFactory--><g class="entity" data-entity="VesselFactory" data-source-line="65" data-uid="ent0014" id="entity_VesselFactory"><rect fill="#F1F1F1" height="80.9766" rx="2.5" ry="2.5" style="stroke:#181818;stroke-width:0.5;" width="303.5664" x="807.22" y="577.04"/><ellipse cx="908.573" cy="593.04" fill="#ADD1B2" rx="11" ry="11" style="stroke:#181818;stroke-width:1;"/><path d="M911.5462,598.6831 Q910.9651,598.9819 910.326,599.1313 Q909.6868,599.2807 908.9812,599.2807 Q906.4744,599.2807 905.1546,597.6289 Q903.8347,595.977 903.8347,592.8559 Q903.8347,589.7265 905.1546,588.0747 Q906.4744,586.4228 908.9812,586.4228 Q909.6868,586.4228 910.3343,586.5722 Q910.9817,586.7216 911.5462,587.0205 L911.5462,589.7431 Q910.9153,589.1621 910.3218,588.8923 Q909.7283,588.6225 909.0974,588.6225 Q907.7527,588.6225 907.0679,589.6892 Q906.3831,590.7558 906.3831,592.8559 Q906.3831,594.9477 907.0679,596.0144 Q907.7527,597.081 909.0974,597.081 Q909.7283,597.081 910.3218,596.8112 Q910.9153,596.5415 911.5462,595.9604 Z " fill="#000000"/><text fill="#000000" font-family="sans-serif" font-size="14" lengthAdjust="spacing" textLength="92.3604" x="929.073" y="598.331">VesselFactory</text><line style="stroke:#181818;stroke-width:0.5;" x1="808.22" x2="1109.7864" y1="609.04" y2="609.04"/><line style="stroke:#181818;stroke-width:0.5;" x1="808.22" x2="1109.7864" y1="617.04" y2="617.04"/><ellipse cx="818.22" cy="630.7841" fill="#84BE84" rx="3" ry="3" style="stroke:#038048;stroke-width:1;"/><text fill="#000000" font-family="sans-serif" font-size="14" lengthAdjust="spacing" textLength="277.5664" x="827.22" y="634.5752">CreateVessel(CreatingVesselDto) : Vessel</text><ellipse cx="818.22" cy="647.2724" fill="#84BE84" rx="3" ry="3" style="stroke:#038048;stroke-width:1;"/><text fill="#000000" font-family="sans-serif" font-size="14" lengthAdjust="spacing" textLength="244.2412" x="827.22" y="651.0634">CreateVesselDto(Vessel) : VesselDto</text></g><!--class IVesselRepository--><g class="entity" data-entity="IVesselRepository" data-source-line="72" data-uid="ent0016" id="entity_IVesselRepository"><rect fill="#F1F1F1" height="163.418" rx="2.5" ry="2.5" style="stroke:#181818;stroke-width:0.5;" width="484.1445" x="21.93" y="535.82"/><ellipse cx="200.1361" cy="551.82" fill="#B4A7E5" rx="11" ry="11" style="stroke:#181818;stroke-width:1;"/><path d="M196.0638,547.5851 L196.0638,545.4269 L203.4432,545.4269 L203.4432,547.5851 L200.9779,547.5851 L200.9779,555.6618 L203.4432,555.6618 L203.4432,557.82 L196.0638,557.82 L196.0638,555.6618 L198.5291,555.6618 L198.5291,547.5851 Z " fill="#000000"/><text fill="#000000" font-family="sans-serif" font-size="14" font-style="italic" lengthAdjust="spacing" textLength="119.2324" x="220.6361" y="557.111">IVesselRepository</text><line style="stroke:#181818;stroke-width:0.5;" x1="22.93" x2="505.0745" y1="567.82" y2="567.82"/><line style="stroke:#181818;stroke-width:0.5;" x1="22.93" x2="505.0745" y1="575.82" y2="575.82"/><ellipse cx="32.93" cy="589.5641" fill="#84BE84" rx="3" ry="3" style="stroke:#038048;stroke-width:1;"/><text fill="#000000" font-family="sans-serif" font-size="14" lengthAdjust="spacing" textLength="192.4863" x="41.93" y="593.3552">GetAllAsync() : List&lt;Vessel&gt;</text><ellipse cx="32.93" cy="606.0524" fill="#84BE84" rx="3" ry="3" style="stroke:#038048;stroke-width:1;"/><text fill="#000000" font-family="sans-serif" font-size="14" lengthAdjust="spacing" textLength="212.7207" x="41.93" y="609.8434">GetByIdAsync(VesselId) : Vessel</text><ellipse cx="32.93" cy="622.5407" fill="#84BE84" rx="3" ry="3" style="stroke:#038048;stroke-width:1;"/><text fill="#000000" font-family="sans-serif" font-size="14" lengthAdjust="spacing" textLength="310.1533" x="41.93" y="626.3317">GetByImoNumberAsync(ImoNumber) : Vessel?</text><ellipse cx="32.93" cy="639.029" fill="#84BE84" rx="3" ry="3" style="stroke:#038048;stroke-width:1;"/><text fill="#000000" font-family="sans-serif" font-size="14" lengthAdjust="spacing" textLength="268.6113" x="41.93" y="642.82">GetByNameAsync(string) : List&lt;Vessel&gt;</text><ellipse cx="32.93" cy="655.5173" fill="#84BE84" rx="3" ry="3" style="stroke:#038048;stroke-width:1;"/><text fill="#000000" font-family="sans-serif" font-size="14" lengthAdjust="spacing" textLength="273.5469" x="41.93" y="659.3083">GetByOwnerAsync(string) : List&lt;Vessel&gt;</text><ellipse cx="32.93" cy="672.0055" fill="#84BE84" rx="3" ry="3" style="stroke:#038048;stroke-width:1;"/><text fill="#000000" font-family="sans-serif" font-size="14" lengthAdjust="spacing" textLength="458.1445" x="41.93" y="675.7966">GetFilterAsync(string?, ImoNumber?, string?, string?) : List&lt;Vessel&gt;</text><ellipse cx="32.93" cy="688.4938" fill="#84BE84" rx="3" ry="3" style="stroke:#038048;stroke-width:1;"/><text fill="#000000" font-family="sans-serif" font-size="14" lengthAdjust="spacing" textLength="119.4307" x="41.93" y="692.2848">AddAsync(Vessel)</text></g><!--class VesselRepository--><g class="entity" data-entity="VesselRepository" data-source-line="82" data-uid="ent0017" id="entity_VesselRepository"><rect fill="#F1F1F1" height="48" rx="2.5" ry="2.5" style="stroke:#181818;stroke-width:0.5;" width="147.1992" x="278.4" y="800.45"/><ellipse cx="293.4" cy="816.45" fill="#ADD1B2" rx="11" ry="11" style="stroke:#181818;stroke-width:1;"/><path d="M296.3731,822.0931 Q295.7921,822.3919 295.1529,822.5413 Q294.5138,822.6907 293.8082,822.6907 Q291.3014,822.6907 289.9815,821.0389 Q288.6617,819.387 288.6617,816.2659 Q288.6617,813.1365 289.9815,811.4847 Q291.3014,809.8328 293.8082,809.8328 Q294.5138,809.8328 295.1612,809.9822 Q295.8087,810.1316 296.3731,810.4305 L296.3731,813.1531 Q295.7423,812.5721 295.1488,812.3023 Q294.5553,812.0325 293.9244,812.0325 Q292.5797,812.0325 291.8949,813.0992 Q291.2101,814.1658 291.2101,816.2659 Q291.2101,818.3577 291.8949,819.4244 Q292.5797,820.491 293.9244,820.491 Q294.5553,820.491 295.1488,820.2212 Q295.7423,819.9515 296.3731,819.3704 Z " fill="#000000"/><text fill="#000000" font-family="sans-serif" font-size="14" lengthAdjust="spacing" textLength="115.1992" x="307.4" y="821.741">VesselRepository</text><line style="stroke:#181818;stroke-width:0.5;" x1="279.4" x2="424.5992" y1="832.45" y2="832.45"/><line style="stroke:#181818;stroke-width:0.5;" x1="279.4" x2="424.5992" y1="840.45" y2="840.45"/></g><!--class IUnitOfWork--><g class="entity" data-entity="IUnitOfWork" data-source-line="85" data-uid="ent0019" id="entity_IUnitOfWork"><rect fill="#F1F1F1" height="64.4883" rx="2.5" ry="2.5" style="stroke:#181818;stroke-width:0.5;" width="128.7852" x="540.61" y="585.28"/><ellipse cx="562.1662" cy="601.28" fill="#B4A7E5" rx="11" ry="11" style="stroke:#181818;stroke-width:1;"/><path d="M558.0939,597.0451 L558.0939,594.8869 L565.4733,594.8869 L565.4733,597.0451 L563.008,597.0451 L563.008,605.1218 L565.4733,605.1218 L565.4733,607.28 L558.0939,607.28 L558.0939,605.1218 L560.5593,605.1218 L560.5593,597.0451 Z " fill="#000000"/><text fill="#000000" font-family="sans-serif" font-size="14" font-style="italic" lengthAdjust="spacing" textLength="82.2158" x="577.6231" y="606.571">IUnitOfWork</text><line style="stroke:#181818;stroke-width:0.5;" x1="541.61" x2="668.3952" y1="617.28" y2="617.28"/><line style="stroke:#181818;stroke-width:0.5;" x1="541.61" x2="668.3952" y1="625.28" y2="625.28"/><ellipse cx="551.61" cy="639.0241" fill="#84BE84" rx="3" ry="3" style="stroke:#038048;stroke-width:1;"/><text fill="#000000" font-family="sans-serif" font-size="14" lengthAdjust="spacing" textLength="102.7852" x="560.61" y="642.8152">CommitAsync()</text></g><!--class UnitOfWork--><g class="entity" data-entity="UnitOfWork" data-source-line="89" data-uid="ent0020" id="entity_UnitOfWork"><rect fill="#F1F1F1" height="48" rx="2.5" ry="2.5" style="stroke:#181818;stroke-width:0.5;" width="110.1826" x="549.91" y="800.45"/><ellipse cx="564.91" cy="816.45" fill="#ADD1B2" rx="11" ry="11" style="stroke:#181818;stroke-width:1;"/><path d="M567.8831,822.0931 Q567.3021,822.3919 566.6629,822.5413 Q566.0238,822.6907 565.3182,822.6907 Q562.8114,822.6907 561.4915,821.0389 Q560.1717,819.387 560.1717,816.2659 Q560.1717,813.1365 561.4915,811.4847 Q562.8114,809.8328 565.3182,809.8328 Q566.0238,809.8328 566.6712,809.9822 Q567.3187,810.1316 567.8831,810.4305 L567.8831,813.1531 Q567.2523,812.5721 566.6588,812.3023 Q566.0653,812.0325 565.4344,812.0325 Q564.0897,812.0325 563.4049,813.0992 Q562.7201,814.1658 562.7201,816.2659 Q562.7201,818.3577 563.4049,819.4244 Q564.0897,820.491 565.4344,820.491 Q566.0653,820.491 566.6588,820.2212 Q567.2523,819.9515 567.8831,819.3704 Z " fill="#000000"/><text fill="#000000" font-family="sans-serif" font-size="14" lengthAdjust="spacing" textLength="78.1826" x="578.91" y="821.741">UnitOfWork</text><line style="stroke:#181818;stroke-width:0.5;" x1="550.91" x2="659.0926" y1="832.45" y2="832.45"/><line style="stroke:#181818;stroke-width:0.5;" x1="550.91" x2="659.0926" y1="840.45" y2="840.45"/></g><!--class VesselController--><g class="entity" data-entity="VesselController" data-source-line="94" data-uid="ent0023" id="entity_VesselController"><rect fill="#F1F1F1" height="179.9063" rx="2.5" ry="2.5" style="stroke:#181818;stroke-width:0.5;" width="443.2861" x="890.36" y="41"/><ellipse cx="1052.1359" cy="57" fill="#ADD1B2" rx="11" ry="11" style="stroke:#181818;stroke-width:1;"/><path d="M1055.109,62.6431 Q1054.528,62.9419 1053.8888,63.0913 Q1053.2496,63.2407 1052.5441,63.2407 Q1050.0372,63.2407 1048.7174,61.5889 Q1047.3976,59.937 1047.3976,56.8159 Q1047.3976,53.6865 1048.7174,52.0347 Q1050.0372,50.3828 1052.5441,50.3828 Q1053.2496,50.3828 1053.8971,50.5322 Q1054.5446,50.6816 1055.109,50.9805 L1055.109,53.7031 Q1054.4782,53.1221 1053.8847,52.8523 Q1053.2912,52.5825 1052.6603,52.5825 Q1051.3156,52.5825 1050.6308,53.6492 Q1049.9459,54.7158 1049.9459,56.8159 Q1049.9459,58.9077 1050.6308,59.9744 Q1051.3156,61.041 1052.6603,61.041 Q1053.2912,61.041 1053.8847,60.7712 Q1054.4782,60.5015 1055.109,59.9204 Z " fill="#000000"/><text fill="#000000" font-family="sans-serif" font-size="14" lengthAdjust="spacing" textLength="111.2344" x="1072.6359" y="62.291">VesselController</text><line style="stroke:#181818;stroke-width:0.5;" x1="891.36" x2="1332.6461" y1="73" y2="73"/><line style="stroke:#181818;stroke-width:0.5;" x1="891.36" x2="1332.6461" y1="81" y2="81"/><ellipse cx="901.36" cy="94.7441" fill="#84BE84" rx="3" ry="3" style="stroke:#038048;stroke-width:1;"/><text fill="#000000" font-family="sans-serif" font-size="14" lengthAdjust="spacing" textLength="176.8389" x="910.36" y="98.5352">GetAll() : List&lt;VesselDto&gt;</text><ellipse cx="901.36" cy="111.2324" fill="#84BE84" rx="3" ry="3" style="stroke:#038048;stroke-width:1;"/><text fill="#000000" font-family="sans-serif" font-size="14" lengthAdjust="spacing" textLength="172.8193" x="910.36" y="115.0234">GetById(Guid) : VesselDto</text><ellipse cx="901.36" cy="127.7207" fill="#84BE84" rx="3" ry="3" style="stroke:#038048;stroke-width:1;"/><text fill="#000000" font-family="sans-serif" font-size="14" lengthAdjust="spacing" textLength="193.5801" x="910.36" y="131.5117">GetByImo(string) : VesselDto</text><ellipse cx="901.36" cy="144.209" fill="#84BE84" rx="3" ry="3" style="stroke:#038048;stroke-width:1;"/><text fill="#000000" font-family="sans-serif" font-size="14" lengthAdjust="spacing" textLength="252.9639" x="910.36" y="148">GetByName(string) : List&lt;VesselDto&gt;</text><ellipse cx="901.36" cy="160.6973" fill="#84BE84" rx="3" ry="3" style="stroke:#038048;stroke-width:1;"/><text fill="#000000" font-family="sans-serif" font-size="14" lengthAdjust="spacing" textLength="257.8994" x="910.36" y="164.4883">GetByOwner(string) : List&lt;VesselDto&gt;</text><ellipse cx="901.36" cy="177.1855" fill="#84BE84" rx="3" ry="3" style="stroke:#038048;stroke-width:1;"/><text fill="#000000" font-family="sans-serif" font-size="14" lengthAdjust="spacing" textLength="417.2861" x="910.36" y="180.9766">GetByFilter(string?, string?, string?, string?) : List&lt;VesselDto&gt;</text><ellipse cx="901.36" cy="193.6738" fill="#84BE84" rx="3" ry="3" style="stroke:#038048;stroke-width:1;"/><text fill="#000000" font-family="sans-serif" font-size="14" lengthAdjust="spacing" textLength="258.8154" x="910.36" y="197.4648">Create(CreatingVesselDto) : VesselDto</text><ellipse cx="901.36" cy="210.1621" fill="#84BE84" rx="3" ry="3" style="stroke:#038048;stroke-width:1;"/><text fill="#000000" font-family="sans-serif" font-size="14" lengthAdjust="spacing" textLength="345.0029" x="910.36" y="213.9531">PatchByImo(string, UpdatingVesselDto) : VesselDto</text></g><!--class ILogger--><g class="entity" data-entity="ILogger" data-source-line="107" data-uid="ent0025" id="entity_ILogger"><rect fill="#F1F1F1" height="97.4648" rx="2.5" ry="2.5" style="stroke:#181818;stroke-width:0.5;" width="238.1055" x="1248.95" y="568.79"/><ellipse cx="1332.4163" cy="584.79" fill="#B4A7E5" rx="11" ry="11" style="stroke:#181818;stroke-width:1;"/><path d="M1328.344,580.5551 L1328.344,578.3969 L1335.7234,578.3969 L1335.7234,580.5551 L1333.2581,580.5551 L1333.2581,588.6318 L1335.7234,588.6318 L1335.7234,590.79 L1328.344,590.79 L1328.344,588.6318 L1330.8094,588.6318 L1330.8094,580.5551 Z " fill="#000000"/><text fill="#000000" font-family="sans-serif" font-size="14" font-style="italic" lengthAdjust="spacing" textLength="51.085" x="1352.9163" y="590.081">ILogger</text><rect fill="#FFFFFF" height="16.1328" style="stroke:#181818;stroke-width:1;stroke-dasharray:2,2;" width="9.5879" x="1480.4676" y="565.79"/><text fill="#000000" font-family="sans-serif" font-size="12" font-style="italic" lengthAdjust="spacing" textLength="7.5879" x="1481.4676" y="578.3916">T</text><line style="stroke:#181818;stroke-width:0.5;" x1="1249.95" x2="1486.0555" y1="600.79" y2="600.79"/><line style="stroke:#181818;stroke-width:0.5;" x1="1249.95" x2="1486.0555" y1="608.79" y2="608.79"/><ellipse cx="1259.95" cy="622.5341" fill="#84BE84" rx="3" ry="3" style="stroke:#038048;stroke-width:1;"/><text fill="#000000" font-family="sans-serif" font-size="14" lengthAdjust="spacing" textLength="212.1055" x="1268.95" y="626.3252">LogInformation(string, params)</text><ellipse cx="1259.95" cy="639.0224" fill="#84BE84" rx="3" ry="3" style="stroke:#038048;stroke-width:1;"/><text fill="#000000" font-family="sans-serif" font-size="14" lengthAdjust="spacing" textLength="188.125" x="1268.95" y="642.8134">LogWarning(string, params)</text><ellipse cx="1259.95" cy="655.5107" fill="#84BE84" rx="3" ry="3" style="stroke:#038048;stroke-width:1;"/><text fill="#000000" font-family="sans-serif" font-size="14" lengthAdjust="spacing" textLength="165.9082" x="1268.95" y="659.3017">LogError(string, params)</text></g><!--reverse link IVesselRepository to VesselRepository--><g class="link" data-entity-1="IVesselRepository" data-entity-2="VesselRepository" data-uid="lnk18" id="link_IVesselRepository_VesselRepository"><path d="M305.8838,716.0589 C321.4538,752.3089 331.52,775.77 342.04,800.26" fill="none" id="IVesselRepository-backto-VesselRepository" style="stroke:#181818;stroke-width:1;stroke-dasharray:7,7;"/><polygon fill="none" points="298.78,699.52,300.3708,718.4269,311.3967,713.691,298.78,699.52" style="stroke:#181818;stroke-width:1;"/></g><!--reverse link IUnitOfWork to UnitOfWork--><g class="link" data-entity-1="IUnitOfWork" data-entity-2="UnitOfWork" data-uid="lnk21" id="link_IUnitOfWork_UnitOfWork"><path d="M605,668.1 C605,709.53 605,763.28 605,800.13" fill="none" id="IUnitOfWork-backto-UnitOfWork" style="stroke:#181818;stroke-width:1;stroke-dasharray:7,7;"/><polygon fill="none" points="605,650.1,599,668.1,611,668.1,605,650.1" style="stroke:#181818;stroke-width:1;"/></g><!--reverse link Vessel to VesselId--><g class="link" data-entity-1="Vessel" data-entity-2="VesselId" data-source-line="115" data-uid="lnk26" id="link_Vessel_VesselId"><path codeLine="115" d="M558.3905,1140.235 C553.8305,1160.785 551.73,1170.25 547.85,1187.73" fill="none" id="Vessel-backto-VesselId" style="stroke:#181818;stroke-width:1;"/><polygon fill="#181818" points="560.99,1128.52,555.7852,1133.511,558.3905,1140.235,563.5952,1135.244,560.99,1128.52" style="stroke:#181818;stroke-width:1;"/><text fill="#000000" font-family="sans-serif" font-size="13" lengthAdjust="spacing" textLength="8.2202" x="551.1079" y="1148.8044">1</text><text fill="#000000" font-family="sans-serif" font-size="13" lengthAdjust="spacing" textLength="8.2202" x="540.6716" y="1177.3164">1</text></g><!--reverse link Vessel to ImoNumber--><g class="link" data-entity-1="Vessel" data-entity-2="ImoNumber" data-source-line="116" data-uid="lnk27" id="link_Vessel_ImoNumber"><path codeLine="116" d="M645.5302,1138.2014 C660.5802,1158.7514 669,1170.25 681.8,1187.73" fill="none" id="Vessel-backto-ImoNumber" style="stroke:#181818;stroke-width:1;"/><polygon fill="#181818" points="638.44,1128.52,638.758,1135.7241,645.5302,1138.2014,645.2122,1130.9973,638.44,1128.52" style="stroke:#181818;stroke-width:1;"/><text fill="#000000" font-family="sans-serif" font-size="13" lengthAdjust="spacing" textLength="8.2202" x="635.2137" y="1148.8044">1</text><text fill="#000000" font-family="sans-serif" font-size="13" lengthAdjust="spacing" textLength="8.2202" x="668.3193" y="1177.3164">1</text></g><!--link Vessel to VesselTypeId--><g class="link" data-entity-1="Vessel" data-entity-2="VesselTypeId" data-source-line="117" data-uid="lnk28" id="link_Vessel_VesselTypeId"><path codeLine="117" d="M683.23,1117.76 C688.87,1121.3 694.49,1124.77 700,1128.09 C738.54,1151.36 777.5748,1172.7274 812.9548,1191.4174" fill="none" id="Vessel-to-VesselTypeId" style="stroke:#181818;stroke-width:1;"/><polygon fill="#181818" points="818.26,1194.22,812.1705,1186.4793,813.839,1191.8845,808.4338,1193.553,818.26,1194.22" style="stroke:#181818;stroke-width:1;"/><text fill="#000000" font-family="sans-serif" font-size="13" lengthAdjust="spacing" textLength="8.2202" x="690.8476" y="1119.8302">1</text></g><!--link VesselService to IVesselRepository--><g class="link" data-entity-1="VesselService" data-entity-2="IVesselRepository" data-source-line="119" data-uid="lnk29" id="link_VesselService_IVesselRepository"><path codeLine="119" d="M724.73,434.37 C658.67,450.29 587.3,469.92 523,492.82 C489.2,504.85 459.3629,517.3751 426.1229,532.7951" fill="none" id="VesselService-to-IVesselRepository" style="stroke:#181818;stroke-width:1;"/><polygon fill="#181818" points="420.68,535.32,430.5276,535.1612,425.2157,533.2159,427.161,527.904,420.68,535.32" style="stroke:#181818;stroke-width:1;"/></g><!--link VesselService to IUnitOfWork--><g class="link" data-entity-1="VesselService" data-entity-2="IUnitOfWork" data-source-line="120" data-uid="lnk30" id="link_VesselService_IUnitOfWork"><path codeLine="120" d="M733.29,476.31 C724.9,481.57 716.77,487.07 709,492.82 C674.47,518.33 647.4727,552.5882 628.5927,580.0082" fill="none" id="VesselService-to-IUnitOfWork" style="stroke:#181818;stroke-width:1;"/><polygon fill="#181818" points="625.19,584.95,633.5886,579.8057,628.0256,580.8318,626.9995,575.2688,625.19,584.95" style="stroke:#181818;stroke-width:1;"/></g><!--link VesselService to VesselFactory--><g class="link" data-entity-1="VesselService" data-entity-2="VesselFactory" data-source-line="121" data-uid="lnk31" id="link_VesselService_VesselFactory"><path codeLine="121" d="M959,476.31 C959,511.08 959,543.1 959,570.78" fill="none" id="VesselService-to-VesselFactory" style="stroke:#181818;stroke-width:1;"/><polygon fill="#181818" points="959,576.78,963,567.78,959,571.78,955,567.78,959,576.78" style="stroke:#181818;stroke-width:1;"/></g><!--link VesselService to ILogger--><g class="link" data-entity-1="VesselService" data-entity-2="ILogger" data-source-line="122" data-uid="lnk32" id="link_VesselService_ILogger"><path codeLine="122" d="M1179.11,476.25 C1189.33,481.62 1199.35,487.15 1209,492.82 C1245.94,514.51 1279.3284,539.9317 1308.9084,564.5517" fill="none" id="VesselService-to-ILogger" style="stroke:#181818;stroke-width:1;"/><polygon fill="#181818" points="1313.52,568.39,1309.1615,559.5581,1309.677,565.1914,1304.0437,565.7069,1313.52,568.39" style="stroke:#181818;stroke-width:1;"/></g><!--link VesselRepository to Vessel--><g class="link" data-entity-1="VesselRepository" data-entity-2="Vessel" data-source-line="123" data-uid="lnk33" id="link_VesselRepository_Vessel"><path codeLine="123" d="M375.86,848.58 C404.09,875.93 448.3305,918.7852 490.8805,960.0052" fill="none" id="VesselRepository-to-Vessel" style="stroke:#181818;stroke-width:1;"/><polygon fill="#181818" points="495.19,964.18,491.509,955.0449,491.5988,960.701,485.9426,960.7908,495.19,964.18" style="stroke:#181818;stroke-width:1;"/></g><!--link VesselFactory to Vessel--><g class="link" data-entity-1="VesselFactory" data-entity-2="Vessel" data-source-line="124" data-uid="lnk34" id="link_VesselFactory_Vessel"><path codeLine="124" d="M837.28,658.4 C807.59,672.81 778.07,691.76 756,716.23 C693.56,785.49 730.64,832.35 685,913.68 C675.3,930.95 666.9943,943.5135 654.6543,959.6535" fill="none" id="VesselFactory-to-Vessel" style="stroke:#181818;stroke-width:1;"/><polygon fill="#181818" points="651.01,964.42,659.654,959.6998,654.0469,960.4479,653.2987,954.8408,651.01,964.42" style="stroke:#181818;stroke-width:1;"/></g><!--link VesselFactory to VesselDto--><g class="link" data-entity-1="VesselFactory" data-entity-2="VesselDto" data-source-line="125" data-uid="lnk35" id="link_VesselFactory_VesselDto"><path codeLine="125" d="M1075.51,658.4 C1114.25,673.91 1156.73,693.48 1193,716.23 C1212.38,728.39 1227.1702,739.7125 1244.4802,754.9025" fill="none" id="VesselFactory-to-VesselDto" style="stroke:#181818;stroke-width:1;"/><polygon fill="#181818" points="1248.99,758.86,1244.8636,749.9172,1245.2318,755.5621,1239.587,755.9303,1248.99,758.86" style="stroke:#181818;stroke-width:1;"/></g><!--link VesselController to VesselService--><g class="link" data-entity-1="VesselController" data-entity-2="VesselService" data-source-line="126" data-uid="lnk36" id="link_VesselController_VesselService"><path codeLine="126" d="M1058.06,221.12 C1043.43,245.3 1030.706,266.3365 1016.076,290.5165" fill="none" id="VesselController-to-VesselService" style="stroke:#181818;stroke-width:1;"/><polygon fill="#181818" points="1012.97,295.65,1021.0513,290.0204,1015.5583,291.3721,1014.2067,285.8791,1012.97,295.65" style="stroke:#181818;stroke-width:1;"/></g><!--link VesselController to ILogger--><g class="link" data-entity-1="VesselController" data-entity-2="ILogger" data-source-line="127" data-uid="lnk37" id="link_VesselController_ILogger"><path codeLine="127" d="M1187.79,221.21 C1195.35,231.62 1202.59,242.32 1209,252.91 C1273.46,359.46 1324.1518,491.1661 1349.5618,562.7061" fill="none" id="VesselController-to-ILogger" style="stroke:#181818;stroke-width:1;"/><polygon fill="#181818" points="1351.57,568.36,1352.327,558.5403,1349.8965,563.6484,1344.7884,561.2179,1351.57,568.36" style="stroke:#181818;stroke-width:1;"/></g><!--SRC=[hLPTRvim57tdLrXvMRAKXxrELIAQjbEaggdIj7tsY9DPDJQopRPesd-VRS3660YPcfS0zzpFStmXX-axF28mkMKPn7G2_aG0f0GA0LwH48YO1m34O9snnoBxZhYxgYn2SaoFu15co7-o-KKjg8osE-LelVTkZ7qENl8zb4Z7c9RUCyzWGhKiE_PixgSpyBLAgIn_erO7Ab_TmxS2g-IG5AWAaGZzo0JG5xwxwxZsnrHwxYChgBh-lofk2e6f2hCj259EM4q3CthtEqMvleWKDBSaxZQYIU6A8uMcnxACMycg6kOrGpwLyu3AUKZbV93AHk66k87aop3DqkO9PjZqDmEqokaJveTqqvnkakS4fsRyuJbvHlmdJf6h4Sc4a4ISQ6g8VS12NjjM5WvrSrhlIrWjLmstI0zOzrVYgzFGXzPjju43LPYPZCRVOo9z-F8Az5xqXp8AhSeCrDhLsXEKwGypYcRogr1jRUT0KVSmbOoVB6DbAQLjg9OEkB9Nx8LPcmfQqmE7gk8YbGL7fOZKJa7y09LqrgNZ5kLCOA-q0J6DLDA0ZEojGoylqD558Zgd85lBUH7LePAzr_IiY-h6I76M4vGXAaNFl8rpWvGNYkNcyCRukrCAop8iApfQIy-XcvbQGNnLF74a5AndiQmObPmHObz3jHpEhvMfNfH3ssJC2hbWUuo3biH_mDQuT65SiYkQ_Amu4o9E2wbzWaFxm8v7nAzt2qkFUg8EEkEPOTHcpI67cPWvq1laL7yyz0BkE6UymspA-mJYrWzi4J4fHM2Ae-fhRl9b0ZuhgFwljqINpRrA6yOuNlXloCX_zsbxSAYwCEuuT5YzxTpbNKuy2awlSuxy3J_2e7aFpfipL_cx8NL1_m00]--></g></svg>