<svg xmlns="http://www.w3.org/2000/svg" xmlns:xlink="http://www.w3.org/1999/xlink" contentStyleType="text/css" data-diagram-type="SEQUENCE" height="2564px" preserveAspectRatio="none" style="width:1426px;height:2564px;background:#FFFFFF;" version="1.1" viewBox="0 0 1426 2564" width="1426px" zoomAndPan="magnify"><defs/><g><g><title>Port Authority Officer</title><rect fill="#000000" fill-opacity="0.00000" height="2401.9121" width="8" x="76.6387" y="81.4883"/><line style="stroke:#181818;stroke-width:0.5;stroke-dasharray:5,5;" x1="80" x2="80" y1="81.4883" y2="2483.4004"/></g><g><title>API Controller</title><rect fill="#000000" fill-opacity="0.00000" height="2401.9121" width="8" x="474.084" y="81.4883"/><line style="stroke:#181818;stroke-width:0.5;stroke-dasharray:5,5;" x1="478.0732" x2="478.0732" y1="81.4883" y2="2483.4004"/></g><g><title>VesselService</title><rect fill="#000000" fill-opacity="0.00000" height="2401.9121" width="8" x="742.145" y="81.4883"/><line style="stroke:#181818;stroke-width:0.5;stroke-dasharray:5,5;" x1="745.9424" x2="745.9424" y1="81.4883" y2="2483.4004"/></g><g><title>VesselRepository</title><rect fill="#000000" fill-opacity="0.00000" height="2401.9121" width="8" x="984.3521" y="81.4883"/><line style="stroke:#181818;stroke-width:0.5;stroke-dasharray:5,5;" x1="987.7524" x2="987.7524" y1="81.4883" y2="2483.4004"/></g><g><title>VesselTypeRepository</title><rect fill="#000000" fill-opacity="0.00000" height="2401.9121" width="8" x="1131.9404" y="81.4883"/><line style="stroke:#181818;stroke-width:0.5;stroke-dasharray:5,5;" x1="1134.9517" x2="1134.9517" y1="81.4883" y2="2483.4004"/></g><g><title>VesselFactory</title><rect fill="#000000" fill-opacity="0.00000" height="2401.9121" width="8" x="1268.1094" y="81.4883"/><line style="stroke:#181818;stroke-width:0.5;stroke-dasharray:5,5;" x1="1271.9292" x2="1271.9292" y1="81.4883" y2="2483.4004"/></g><g><title>Audit Log</title><rect fill="#000000" fill-opacity="0.00000" height="2401.9121" width="8" x="1369.1226" y="81.4883"/><line style="stroke:#181818;stroke-width:0.5;stroke-dasharray:5,5;" x1="1372.2896" x2="1372.2896" y1="81.4883" y2="2483.4004"/></g><g class="participant participant-head" data-participant="Officer"><text fill="#000000" font-family="sans-serif" font-size="14" lengthAdjust="spacing" textLength="145.2773" x="5" y="78.5352">Port Authority Officer</text><ellipse cx="80.6387" cy="13.5" fill="#E2E2F0" rx="8" ry="8" style="stroke:#181818;stroke-width:0.5;"/><path d="M80.6387,21.5 L80.6387,48.5 M67.6387,29.5 L93.6387,29.5 M80.6387,48.5 L67.6387,63.5 M80.6387,48.5 L93.6387,63.5" fill="none" style="stroke:#181818;stroke-width:0.5;"/></g><g class="participant participant-tail" data-participant="Officer"><text fill="#000000" font-family="sans-serif" font-size="14" lengthAdjust="spacing" textLength="145.2773" x="5" y="2495.9355">Port Authority Officer</text><ellipse cx="80.6387" cy="2507.3887" fill="#E2E2F0" rx="8" ry="8" style="stroke:#181818;stroke-width:0.5;"/><path d="M80.6387,2515.3887 L80.6387,2542.3887 M67.6387,2523.3887 L93.6387,2523.3887 M80.6387,2542.3887 L67.6387,2557.3887 M80.6387,2542.3887 L93.6387,2557.3887" fill="none" style="stroke:#181818;stroke-width:0.5;"/></g><g class="participant participant-head" data-participant="Controller"><text fill="#000000" font-family="sans-serif" font-size="14" lengthAdjust="spacing" textLength="94.0215" x="428.0732" y="78.5352">API Controller</text><path d="M457.584,37 L457.584,61 M457.584,49 L474.584,49" fill="none" style="stroke:#181818;stroke-width:0.5;"/><ellipse cx="486.584" cy="49" fill="#E2E2F0" rx="12" ry="12" style="stroke:#181818;stroke-width:0.5;"/></g><g class="participant participant-tail" data-participant="Controller"><text fill="#000000" font-family="sans-serif" font-size="14" lengthAdjust="spacing" textLength="94.0215" x="428.0732" y="2495.9355">API Controller</text><path d="M457.584,2502.8887 L457.584,2526.8887 M457.584,2514.8887 L474.584,2514.8887" fill="none" style="stroke:#181818;stroke-width:0.5;"/><ellipse cx="486.584" cy="2514.8887" fill="#E2E2F0" rx="12" ry="12" style="stroke:#181818;stroke-width:0.5;"/></g><g class="participant participant-head" data-participant="Service"><text fill="#000000" font-family="sans-serif" font-size="14" lengthAdjust="spacing" textLength="90.4053" x="697.9424" y="78.5352">VesselService</text><ellipse cx="746.145" cy="49" fill="#E2E2F0" rx="12" ry="12" style="stroke:#181818;stroke-width:0.5;"/><polygon fill="#181818" points="742.145,37,748.145,32,746.145,37,748.145,42,742.145,37" style="stroke:#181818;stroke-width:1;"/></g><g class="participant participant-tail" data-participant="Service"><text fill="#000000" font-family="sans-serif" font-size="14" lengthAdjust="spacing" textLength="90.4053" x="697.9424" y="2495.9355">VesselService</text><ellipse cx="746.145" cy="2514.8887" fill="#E2E2F0" rx="12" ry="12" style="stroke:#181818;stroke-width:0.5;"/><polygon fill="#181818" points="742.145,2502.8887,748.145,2497.8887,746.145,2502.8887,748.145,2507.8887,742.145,2502.8887" style="stroke:#181818;stroke-width:1;"/></g><g class="participant participant-head" data-participant="Repo"><text fill="#000000" font-family="sans-serif" font-size="14" lengthAdjust="spacing" textLength="115.1992" x="927.7524" y="78.5352">VesselRepository</text><ellipse cx="988.3521" cy="49" fill="#E2E2F0" rx="12" ry="12" style="stroke:#181818;stroke-width:0.5;"/><line style="stroke:#181818;stroke-width:0.5;" x1="976.3521" x2="1000.3521" y1="63" y2="63"/></g><g class="participant participant-tail" data-participant="Repo"><text fill="#000000" font-family="sans-serif" font-size="14" lengthAdjust="spacing" textLength="115.1992" x="927.7524" y="2495.9355">VesselRepository</text><ellipse cx="988.3521" cy="2514.8887" fill="#E2E2F0" rx="12" ry="12" style="stroke:#181818;stroke-width:0.5;"/><line style="stroke:#181818;stroke-width:0.5;" x1="976.3521" x2="1000.3521" y1="2528.8887" y2="2528.8887"/></g><g class="participant participant-head" data-participant="TypeRepo"><text fill="#000000" font-family="sans-serif" font-size="14" lengthAdjust="spacing" textLength="147.9775" x="1058.9517" y="78.5352">VesselTypeRepository</text><ellipse cx="1135.9404" cy="49" fill="#E2E2F0" rx="12" ry="12" style="stroke:#181818;stroke-width:0.5;"/><line style="stroke:#181818;stroke-width:0.5;" x1="1123.9404" x2="1147.9404" y1="63" y2="63"/></g><g class="participant participant-tail" data-participant="TypeRepo"><text fill="#000000" font-family="sans-serif" font-size="14" lengthAdjust="spacing" textLength="147.9775" x="1058.9517" y="2495.9355">VesselTypeRepository</text><ellipse cx="1135.9404" cy="2514.8887" fill="#E2E2F0" rx="12" ry="12" style="stroke:#181818;stroke-width:0.5;"/><line style="stroke:#181818;stroke-width:0.5;" x1="1123.9404" x2="1147.9404" y1="2528.8887" y2="2528.8887"/></g><g class="participant participant-head" data-participant="Factory"><text fill="#000000" font-family="sans-serif" font-size="14" lengthAdjust="spacing" textLength="92.3604" x="1222.9292" y="78.5352">VesselFactory</text><ellipse cx="1272.1094" cy="49" fill="#E2E2F0" rx="12" ry="12" style="stroke:#181818;stroke-width:0.5;"/><polygon fill="#181818" points="1268.1094,37,1274.1094,32,1272.1094,37,1274.1094,42,1268.1094,37" style="stroke:#181818;stroke-width:1;"/></g><g class="participant participant-tail" data-participant="Factory"><text fill="#000000" font-family="sans-serif" font-size="14" lengthAdjust="spacing" textLength="92.3604" x="1222.9292" y="2495.9355">VesselFactory</text><ellipse cx="1272.1094" cy="2514.8887" fill="#E2E2F0" rx="12" ry="12" style="stroke:#181818;stroke-width:0.5;"/><polygon fill="#181818" points="1268.1094,2502.8887,1274.1094,2497.8887,1272.1094,2502.8887,1274.1094,2507.8887,1268.1094,2502.8887" style="stroke:#181818;stroke-width:1;"/></g><g class="participant participant-head" data-participant="Audit"><rect fill="#E2E2F0" height="30.4883" style="stroke:#181818;stroke-width:0.5;" width="79.666" x="1335.2896" y="46"/><rect fill="#E2E2F0" height="30.4883" style="stroke:#181818;stroke-width:0.5;" width="79.666" x="1331.2896" y="50"/><text fill="#000000" font-family="sans-serif" font-size="14" lengthAdjust="spacing" textLength="65.666" x="1338.2896" y="70.5352">Audit Log</text></g><g class="participant participant-tail" data-participant="Audit"><rect fill="#E2E2F0" height="30.4883" style="stroke:#181818;stroke-width:0.5;" width="79.666" x="1335.2896" y="2482.4004"/><rect fill="#E2E2F0" height="30.4883" style="stroke:#181818;stroke-width:0.5;" width="79.666" x="1331.2896" y="2486.4004"/><text fill="#000000" font-family="sans-serif" font-size="14" lengthAdjust="spacing" textLength="65.666" x="1338.2896" y="2506.9355">Audit Log</text></g><rect fill="#EEEEEE" height="3" style="stroke:#EEEEEE;stroke-width:1;" width="1419.9556" x="0" y="112.1436"/><line style="stroke:#000000;stroke-width:1;" x1="0" x2="1419.9556" y1="112.1436" y2="112.1436"/><line style="stroke:#000000;stroke-width:1;" x1="0" x2="1419.9556" y1="115.1436" y2="115.1436"/><rect fill="#EEEEEE" height="23.3105" style="stroke:#000000;stroke-width:2;" width="109.1323" x="655.4116" y="101.4883"/><text fill="#000000" font-family="sans-serif" font-size="13" font-weight="bold" lengthAdjust="spacing" textLength="90.8477" x="661.4116" y="118.0566">Create Vessel</text><g class="message" data-participant-1="Officer" data-participant-2="Controller"><polygon fill="#181818" points="466.084,152.1094,476.084,156.1094,466.084,160.1094,470.084,156.1094" style="stroke:#181818;stroke-width:1;"/><line style="stroke:#181818;stroke-width:1;" x1="80.6387" x2="472.084" y1="156.1094" y2="156.1094"/><text fill="#000000" font-family="sans-serif" font-size="13" lengthAdjust="spacing" textLength="141.1973" x="87.6387" y="151.3672">POST /api/vessel {dto}</text></g><g class="message" data-participant-1="Controller" data-participant-2="Service"><polygon fill="#181818" points="734.145,181.4199,744.145,185.4199,734.145,189.4199,738.145,185.4199" style="stroke:#181818;stroke-width:1;"/><line style="stroke:#181818;stroke-width:1;" x1="478.084" x2="740.145" y1="185.4199" y2="185.4199"/><text fill="#000000" font-family="sans-serif" font-size="13" lengthAdjust="spacing" textLength="107.4404" x="485.084" y="180.6777">CreateAsync(dto)</text></g><g class="message" data-participant-1="Service" data-participant-2="TypeRepo"><polygon fill="#181818" points="1123.9404,210.7305,1133.9404,214.7305,1123.9404,218.7305,1127.9404,214.7305" style="stroke:#181818;stroke-width:1;"/><line style="stroke:#181818;stroke-width:1;" x1="746.145" x2="1129.9404" y1="214.7305" y2="214.7305"/><text fill="#000000" font-family="sans-serif" font-size="13" lengthAdjust="spacing" textLength="163.6553" x="753.145" y="209.9883">GetById(dto.VesselTypeId)</text></g><g class="message" data-participant-1="TypeRepo" data-participant-2="Service"><polygon fill="#181818" points="757.145,240.041,747.145,244.041,757.145,248.041,753.145,244.041" style="stroke:#181818;stroke-width:1;"/><line style="stroke:#181818;stroke-width:1;stroke-dasharray:2,2;" x1="751.145" x2="1134.9404" y1="244.041" y2="244.041"/><text fill="#000000" font-family="sans-serif" font-size="13" lengthAdjust="spacing" textLength="115.6162" x="763.145" y="239.2988">VesselType or null</text></g><g class="message" data-participant-1="Service" data-participant-2="Repo"><polygon fill="#181818" points="976.3521,269.3516,986.3521,273.3516,976.3521,277.3516,980.3521,273.3516" style="stroke:#181818;stroke-width:1;"/><line style="stroke:#181818;stroke-width:1;" x1="746.145" x2="982.3521" y1="273.3516" y2="273.3516"/><text fill="#000000" font-family="sans-serif" font-size="13" lengthAdjust="spacing" textLength="218.207" x="753.145" y="268.6094">GetByImoNumber(dto.ImoNumber)</text></g><g class="message" data-participant-1="Repo" data-participant-2="Service"><polygon fill="#181818" points="757.145,298.6621,747.145,302.6621,757.145,306.6621,753.145,302.6621" style="stroke:#181818;stroke-width:1;"/><line style="stroke:#181818;stroke-width:1;stroke-dasharray:2,2;" x1="751.145" x2="987.3521" y1="302.6621" y2="302.6621"/><text fill="#000000" font-family="sans-serif" font-size="13" lengthAdjust="spacing" textLength="45.481" x="763.145" y="297.9199">Vessel?</text></g><g class="message" data-participant-1="Service" data-participant-2="Factory"><polygon fill="#181818" points="1260.1094,327.9727,1270.1094,331.9727,1260.1094,335.9727,1264.1094,331.9727" style="stroke:#181818;stroke-width:1;"/><line style="stroke:#181818;stroke-width:1;" x1="746.145" x2="1266.1094" y1="331.9727" y2="331.9727"/><text fill="#000000" font-family="sans-serif" font-size="13" lengthAdjust="spacing" textLength="110.3223" x="753.145" y="327.2305">CreateVessel(dto)</text></g><g class="message" data-participant-1="Factory" data-participant-2="Service"><polygon fill="#181818" points="757.145,357.2832,747.145,361.2832,757.145,365.2832,753.145,361.2832" style="stroke:#181818;stroke-width:1;"/><line style="stroke:#181818;stroke-width:1;stroke-dasharray:2,2;" x1="751.145" x2="1271.1094" y1="361.2832" y2="361.2832"/><text fill="#000000" font-family="sans-serif" font-size="13" lengthAdjust="spacing" textLength="39.9966" x="763.145" y="356.541">Vessel</text></g><g class="message" data-participant-1="Service" data-participant-2="Repo"><polygon fill="#181818" points="976.3521,386.5938,986.3521,390.5938,976.3521,394.5938,980.3521,390.5938" style="stroke:#181818;stroke-width:1;"/><line style="stroke:#181818;stroke-width:1;" x1="746.145" x2="982.3521" y1="390.5938" y2="390.5938"/><text fill="#000000" font-family="sans-serif" font-size="13" lengthAdjust="spacing" textLength="109.1289" x="753.145" y="385.8516">AddAsync(vessel)</text></g><g class="message" data-participant-1="Service" data-participant-2="Audit"><polygon fill="#181818" points="1361.1226,415.9043,1371.1226,419.9043,1361.1226,423.9043,1365.1226,419.9043" style="stroke:#181818;stroke-width:1;"/><line style="stroke:#181818;stroke-width:1;" x1="746.145" x2="1367.1226" y1="419.9043" y2="419.9043"/><text fill="#000000" font-family="sans-serif" font-size="13" lengthAdjust="spacing" textLength="400.9497" x="753.145" y="415.1621">log(CREATE, officerId, vessel.ImoNumber, timestamp, SUCCESS)</text></g><g class="message" data-participant-1="Service" data-participant-2="Controller"><polygon fill="#181818" points="489.084,445.2148,479.084,449.2148,489.084,453.2148,485.084,449.2148" style="stroke:#181818;stroke-width:1;"/><line style="stroke:#181818;stroke-width:1;stroke-dasharray:2,2;" x1="483.084" x2="745.145" y1="449.2148" y2="449.2148"/><text fill="#000000" font-family="sans-serif" font-size="13" lengthAdjust="spacing" textLength="62.5815" x="495.084" y="444.4727">VesselDto</text></g><g class="message" data-participant-1="Controller" data-participant-2="Officer"><polygon fill="#181818" points="91.6387,474.5254,81.6387,478.5254,91.6387,482.5254,87.6387,478.5254" style="stroke:#181818;stroke-width:1;"/><line style="stroke:#181818;stroke-width:1;stroke-dasharray:2,2;" x1="85.6387" x2="477.084" y1="478.5254" y2="478.5254"/><text fill="#000000" font-family="sans-serif" font-size="13" lengthAdjust="spacing" textLength="152.9468" x="97.6387" y="473.7832">201 Created (VesselDto)</text></g><rect fill="#EEEEEE" height="3" style="stroke:#EEEEEE;stroke-width:1;" width="1419.9556" x="0" y="507.1807"/><line style="stroke:#000000;stroke-width:1;" x1="0" x2="1419.9556" y1="507.1807" y2="507.1807"/><line style="stroke:#000000;stroke-width:1;" x1="0" x2="1419.9556" y1="510.1807" y2="510.1807"/><rect fill="#EEEEEE" height="23.3105" style="stroke:#000000;stroke-width:2;" width="224.5581" x="597.6987" y="496.5254"/><text fill="#000000" font-family="sans-serif" font-size="13" font-weight="bold" lengthAdjust="spacing" textLength="206.2734" x="603.6987" y="513.0938">Update Vessel (PATCH by IMO)</text><g class="message" data-participant-1="Officer" data-participant-2="Controller"><polygon fill="#181818" points="466.084,547.1465,476.084,551.1465,466.084,555.1465,470.084,551.1465" style="stroke:#181818;stroke-width:1;"/><line style="stroke:#181818;stroke-width:1;" x1="80.6387" x2="472.084" y1="551.1465" y2="551.1465"/><text fill="#000000" font-family="sans-serif" font-size="13" lengthAdjust="spacing" textLength="221.4634" x="87.6387" y="546.4043">PATCH /api/vessel/imo/{imo} {dto}</text></g><g class="message" data-participant-1="Controller" data-participant-2="Service"><polygon fill="#181818" points="734.145,576.457,744.145,580.457,734.145,584.457,738.145,580.457" style="stroke:#181818;stroke-width:1;"/><line style="stroke:#181818;stroke-width:1;" x1="478.084" x2="740.145" y1="580.457" y2="580.457"/><text fill="#000000" font-family="sans-serif" font-size="13" lengthAdjust="spacing" textLength="170.7964" x="485.084" y="575.7148">PatchByImoAsync(imo, dto)</text></g><g class="message" data-participant-1="Service" data-participant-2="Repo"><polygon fill="#181818" points="976.3521,605.7676,986.3521,609.7676,976.3521,613.7676,980.3521,609.7676" style="stroke:#181818;stroke-width:1;"/><line style="stroke:#181818;stroke-width:1;" x1="746.145" x2="982.3521" y1="609.7676" y2="609.7676"/><text fill="#000000" font-family="sans-serif" font-size="13" lengthAdjust="spacing" textLength="142.5239" x="753.145" y="605.0254">GetByImoNumber(imo)</text></g><g class="message" data-participant-1="Repo" data-participant-2="Service"><polygon fill="#181818" points="757.145,635.0781,747.145,639.0781,757.145,643.0781,753.145,639.0781" style="stroke:#181818;stroke-width:1;"/><line style="stroke:#181818;stroke-width:1;stroke-dasharray:2,2;" x1="751.145" x2="987.3521" y1="639.0781" y2="639.0781"/><text fill="#000000" font-family="sans-serif" font-size="13" lengthAdjust="spacing" textLength="85.1792" x="763.145" y="634.3359">Vessel or null</text></g><g class="message" data-participant-1="Service" data-participant-2="Service"><line style="stroke:#181818;stroke-width:1;" x1="746.145" x2="788.145" y1="668.3887" y2="668.3887"/><line style="stroke:#181818;stroke-width:1;" x1="788.145" x2="788.145" y1="668.3887" y2="681.3887"/><line style="stroke:#181818;stroke-width:1;" x1="747.145" x2="788.145" y1="681.3887" y2="681.3887"/><polygon fill="#181818" points="757.145,677.3887,747.145,681.3887,757.145,685.3887,753.145,681.3887" style="stroke:#181818;stroke-width:1;"/><text fill="#000000" font-family="sans-serif" font-size="13" lengthAdjust="spacing" textLength="195.3618" x="753.145" y="663.6465">Apply updates (name?, owner?)</text></g><g class="message" data-participant-1="Service" data-participant-2="Audit"><polygon fill="#181818" points="1361.1226,706.6992,1371.1226,710.6992,1361.1226,714.6992,1365.1226,710.6992" style="stroke:#181818;stroke-width:1;"/><line style="stroke:#181818;stroke-width:1;" x1="746.145" x2="1367.1226" y1="710.6992" y2="710.6992"/><text fill="#000000" font-family="sans-serif" font-size="13" lengthAdjust="spacing" textLength="309.7402" x="753.145" y="705.957">log(UPDATE, officerId, imo, timestamp, SUCCESS)</text></g><g class="message" data-participant-1="Service" data-participant-2="Repo"><polygon fill="#181818" points="976.3521,736.0098,986.3521,740.0098,976.3521,744.0098,980.3521,740.0098" style="stroke:#181818;stroke-width:1;"/><line style="stroke:#181818;stroke-width:1;" x1="746.145" x2="982.3521" y1="740.0098" y2="740.0098"/><text fill="#000000" font-family="sans-serif" font-size="13" lengthAdjust="spacing" textLength="105.936" x="753.145" y="735.2676">Commit changes</text></g><g class="message" data-participant-1="Service" data-participant-2="Controller"><polygon fill="#181818" points="489.084,765.3203,479.084,769.3203,489.084,773.3203,485.084,769.3203" style="stroke:#181818;stroke-width:1;"/><line style="stroke:#181818;stroke-width:1;stroke-dasharray:2,2;" x1="483.084" x2="745.145" y1="769.3203" y2="769.3203"/><text fill="#000000" font-family="sans-serif" font-size="13" lengthAdjust="spacing" textLength="62.5815" x="495.084" y="764.5781">VesselDto</text></g><g class="message" data-participant-1="Controller" data-participant-2="Officer"><polygon fill="#181818" points="91.6387,794.6309,81.6387,798.6309,91.6387,802.6309,87.6387,798.6309" style="stroke:#181818;stroke-width:1;"/><line style="stroke:#181818;stroke-width:1;stroke-dasharray:2,2;" x1="85.6387" x2="477.084" y1="798.6309" y2="798.6309"/><text fill="#000000" font-family="sans-serif" font-size="13" lengthAdjust="spacing" textLength="122.5098" x="97.6387" y="793.8887">200 OK (VesselDto)</text></g><rect fill="#EEEEEE" height="3" style="stroke:#EEEEEE;stroke-width:1;" width="1419.9556" x="0" y="827.2861"/><line style="stroke:#000000;stroke-width:1;" x1="0" x2="1419.9556" y1="827.2861" y2="827.2861"/><line style="stroke:#000000;stroke-width:1;" x1="0" x2="1419.9556" y1="830.2861" y2="830.2861"/><rect fill="#EEEEEE" height="23.3105" style="stroke:#000000;stroke-width:2;" width="118.0571" x="650.9492" y="816.6309"/><text fill="#000000" font-family="sans-serif" font-size="13" font-weight="bold" lengthAdjust="spacing" textLength="99.7725" x="656.9492" y="833.1992">Get All Vessels</text><g class="message" data-participant-1="Officer" data-participant-2="Controller"><polygon fill="#181818" points="466.084,867.252,476.084,871.252,466.084,875.252,470.084,871.252" style="stroke:#181818;stroke-width:1;"/><line style="stroke:#181818;stroke-width:1;" x1="80.6387" x2="472.084" y1="871.252" y2="871.252"/><text fill="#000000" font-family="sans-serif" font-size="13" lengthAdjust="spacing" textLength="99.7534" x="87.6387" y="866.5098">GET /api/vessel</text></g><g class="message" data-participant-1="Controller" data-participant-2="Service"><polygon fill="#181818" points="734.145,896.5625,744.145,900.5625,734.145,904.5625,738.145,900.5625" style="stroke:#181818;stroke-width:1;"/><line style="stroke:#181818;stroke-width:1;" x1="478.084" x2="740.145" y1="900.5625" y2="900.5625"/><text fill="#000000" font-family="sans-serif" font-size="13" lengthAdjust="spacing" textLength="83.5542" x="485.084" y="895.8203">GetAllAsync()</text></g><g class="message" data-participant-1="Service" data-participant-2="Repo"><polygon fill="#181818" points="976.3521,925.873,986.3521,929.873,976.3521,933.873,980.3521,929.873" style="stroke:#181818;stroke-width:1;"/><line style="stroke:#181818;stroke-width:1;" x1="746.145" x2="982.3521" y1="929.873" y2="929.873"/><text fill="#000000" font-family="sans-serif" font-size="13" lengthAdjust="spacing" textLength="83.5542" x="753.145" y="925.1309">GetAllAsync()</text></g><g class="message" data-participant-1="Repo" data-participant-2="Service"><polygon fill="#181818" points="757.145,955.1836,747.145,959.1836,757.145,963.1836,753.145,959.1836" style="stroke:#181818;stroke-width:1;"/><line style="stroke:#181818;stroke-width:1;stroke-dasharray:2,2;" x1="751.145" x2="987.3521" y1="959.1836" y2="959.1836"/><text fill="#000000" font-family="sans-serif" font-size="13" lengthAdjust="spacing" textLength="82.8433" x="763.145" y="954.4414">List&lt;Vessel&gt;</text></g><g class="message" data-participant-1="Service" data-participant-2="Factory"><polygon fill="#181818" points="1260.1094,984.4941,1270.1094,988.4941,1260.1094,992.4941,1264.1094,988.4941" style="stroke:#181818;stroke-width:1;"/><line style="stroke:#181818;stroke-width:1;" x1="746.145" x2="1266.1094" y1="988.4941" y2="988.4941"/><text fill="#000000" font-family="sans-serif" font-size="13" lengthAdjust="spacing" textLength="156.3682" x="753.145" y="983.752">CreateVesselDto(vessel*)</text></g><g class="message" data-participant-1="Factory" data-participant-2="Service"><polygon fill="#181818" points="757.145,1013.8047,747.145,1017.8047,757.145,1021.8047,753.145,1017.8047" style="stroke:#181818;stroke-width:1;"/><line style="stroke:#181818;stroke-width:1;stroke-dasharray:2,2;" x1="751.145" x2="1271.1094" y1="1017.8047" y2="1017.8047"/><text fill="#000000" font-family="sans-serif" font-size="13" lengthAdjust="spacing" textLength="68.8467" x="763.145" y="1013.0625">VesselDto*</text></g><g class="message" data-participant-1="Service" data-participant-2="Controller"><polygon fill="#181818" points="489.084,1043.1152,479.084,1047.1152,489.084,1051.1152,485.084,1047.1152" style="stroke:#181818;stroke-width:1;"/><line style="stroke:#181818;stroke-width:1;stroke-dasharray:2,2;" x1="483.084" x2="745.145" y1="1047.1152" y2="1047.1152"/><text fill="#000000" font-family="sans-serif" font-size="13" lengthAdjust="spacing" textLength="105.4282" x="495.084" y="1042.373">List&lt;VesselDto&gt;</text></g><g class="message" data-participant-1="Controller" data-participant-2="Officer"><polygon fill="#181818" points="91.6387,1072.4258,81.6387,1076.4258,91.6387,1080.4258,87.6387,1076.4258" style="stroke:#181818;stroke-width:1;"/><line style="stroke:#181818;stroke-width:1;stroke-dasharray:2,2;" x1="85.6387" x2="477.084" y1="1076.4258" y2="1076.4258"/><text fill="#000000" font-family="sans-serif" font-size="13" lengthAdjust="spacing" textLength="128.7749" x="97.6387" y="1071.6836">200 OK (VesselDto*)</text></g><rect fill="#EEEEEE" height="3" style="stroke:#EEEEEE;stroke-width:1;" width="1419.9556" x="0" y="1105.0811"/><line style="stroke:#000000;stroke-width:1;" x1="0" x2="1419.9556" y1="1105.0811" y2="1105.0811"/><line style="stroke:#000000;stroke-width:1;" x1="0" x2="1419.9556" y1="1108.0811" y2="1108.0811"/><rect fill="#EEEEEE" height="23.3105" style="stroke:#000000;stroke-width:2;" width="126.0806" x="646.9375" y="1094.4258"/><text fill="#000000" font-family="sans-serif" font-size="13" font-weight="bold" lengthAdjust="spacing" textLength="107.7959" x="652.9375" y="1110.9941">Get Vessel by Id</text><g class="message" data-participant-1="Officer" data-participant-2="Controller"><polygon fill="#181818" points="466.084,1145.0469,476.084,1149.0469,466.084,1153.0469,470.084,1149.0469" style="stroke:#181818;stroke-width:1;"/><line style="stroke:#181818;stroke-width:1;" x1="80.6387" x2="472.084" y1="1149.0469" y2="1149.0469"/><text fill="#000000" font-family="sans-serif" font-size="13" lengthAdjust="spacing" textLength="145.7231" x="87.6387" y="1144.3047">GET /api/vessel/id/{id}</text></g><g class="message" data-participant-1="Controller" data-participant-2="Service"><polygon fill="#181818" points="734.145,1174.3574,744.145,1178.3574,734.145,1182.3574,738.145,1178.3574" style="stroke:#181818;stroke-width:1;"/><line style="stroke:#181818;stroke-width:1;" x1="478.084" x2="740.145" y1="1178.3574" y2="1178.3574"/><text fill="#000000" font-family="sans-serif" font-size="13" lengthAdjust="spacing" textLength="105.2061" x="485.084" y="1173.6152">GetByIdAsync(id)</text></g><g class="message" data-participant-1="Service" data-participant-2="Repo"><polygon fill="#181818" points="976.3521,1203.668,986.3521,1207.668,976.3521,1211.668,980.3521,1207.668" style="stroke:#181818;stroke-width:1;"/><line style="stroke:#181818;stroke-width:1;" x1="746.145" x2="982.3521" y1="1207.668" y2="1207.668"/><text fill="#000000" font-family="sans-serif" font-size="13" lengthAdjust="spacing" textLength="68.0913" x="753.145" y="1202.9258">GetById(id)</text></g><g class="message" data-participant-1="Repo" data-participant-2="Service"><polygon fill="#181818" points="757.145,1232.9785,747.145,1236.9785,757.145,1240.9785,753.145,1236.9785" style="stroke:#181818;stroke-width:1;"/><line style="stroke:#181818;stroke-width:1;stroke-dasharray:2,2;" x1="751.145" x2="987.3521" y1="1236.9785" y2="1236.9785"/><text fill="#000000" font-family="sans-serif" font-size="13" lengthAdjust="spacing" textLength="85.1792" x="763.145" y="1232.2363">Vessel or null</text></g><g class="message" data-participant-1="Service" data-participant-2="Factory"><polygon fill="#181818" points="1260.1094,1262.2891,1270.1094,1266.2891,1260.1094,1270.2891,1264.1094,1266.2891" style="stroke:#181818;stroke-width:1;"/><line style="stroke:#181818;stroke-width:1;" x1="746.145" x2="1266.1094" y1="1266.2891" y2="1266.2891"/><text fill="#000000" font-family="sans-serif" font-size="13" lengthAdjust="spacing" textLength="150.103" x="753.145" y="1261.5469">CreateVesselDto(vessel)</text></g><g class="message" data-participant-1="Factory" data-participant-2="Service"><polygon fill="#181818" points="757.145,1291.5996,747.145,1295.5996,757.145,1299.5996,753.145,1295.5996" style="stroke:#181818;stroke-width:1;"/><line style="stroke:#181818;stroke-width:1;stroke-dasharray:2,2;" x1="751.145" x2="1271.1094" y1="1295.5996" y2="1295.5996"/><text fill="#000000" font-family="sans-serif" font-size="13" lengthAdjust="spacing" textLength="62.5815" x="763.145" y="1290.8574">VesselDto</text></g><g class="message" data-participant-1="Service" data-participant-2="Controller"><polygon fill="#181818" points="489.084,1320.9102,479.084,1324.9102,489.084,1328.9102,485.084,1324.9102" style="stroke:#181818;stroke-width:1;"/><line style="stroke:#181818;stroke-width:1;stroke-dasharray:2,2;" x1="483.084" x2="745.145" y1="1324.9102" y2="1324.9102"/><text fill="#000000" font-family="sans-serif" font-size="13" lengthAdjust="spacing" textLength="62.5815" x="495.084" y="1320.168">VesselDto</text></g><g class="message" data-participant-1="Controller" data-participant-2="Officer"><polygon fill="#181818" points="91.6387,1350.2207,81.6387,1354.2207,91.6387,1358.2207,87.6387,1354.2207" style="stroke:#181818;stroke-width:1;"/><line style="stroke:#181818;stroke-width:1;stroke-dasharray:2,2;" x1="85.6387" x2="477.084" y1="1354.2207" y2="1354.2207"/><text fill="#000000" font-family="sans-serif" font-size="13" lengthAdjust="spacing" textLength="122.5098" x="97.6387" y="1349.4785">200 OK (VesselDto)</text></g><rect fill="#EEEEEE" height="3" style="stroke:#EEEEEE;stroke-width:1;" width="1419.9556" x="0" y="1382.876"/><line style="stroke:#000000;stroke-width:1;" x1="0" x2="1419.9556" y1="1382.876" y2="1382.876"/><line style="stroke:#000000;stroke-width:1;" x1="0" x2="1419.9556" y1="1385.876" y2="1385.876"/><rect fill="#EEEEEE" height="23.3105" style="stroke:#000000;stroke-width:2;" width="139.9692" x="639.9932" y="1372.2207"/><text fill="#000000" font-family="sans-serif" font-size="13" font-weight="bold" lengthAdjust="spacing" textLength="121.6846" x="645.9932" y="1388.7891">Get Vessel by IMO</text><g class="message" data-participant-1="Officer" data-participant-2="Controller"><polygon fill="#181818" points="466.084,1422.8418,476.084,1426.8418,466.084,1430.8418,470.084,1426.8418" style="stroke:#181818;stroke-width:1;"/><line style="stroke:#181818;stroke-width:1;" x1="80.6387" x2="472.084" y1="1426.8418" y2="1426.8418"/><text fill="#000000" font-family="sans-serif" font-size="13" lengthAdjust="spacing" textLength="169.603" x="87.6387" y="1422.0996">GET /api/vessel/imo/{imo}</text></g><g class="message" data-participant-1="Controller" data-participant-2="Service"><polygon fill="#181818" points="734.145,1452.1523,744.145,1456.1523,734.145,1460.1523,738.145,1456.1523" style="stroke:#181818;stroke-width:1;"/><line style="stroke:#181818;stroke-width:1;" x1="478.084" x2="740.145" y1="1456.1523" y2="1456.1523"/><text fill="#000000" font-family="sans-serif" font-size="13" lengthAdjust="spacing" textLength="179.6387" x="485.084" y="1451.4102">GetByImoNumberAsync(imo)</text></g><g class="message" data-participant-1="Service" data-participant-2="Repo"><polygon fill="#181818" points="976.3521,1481.4629,986.3521,1485.4629,976.3521,1489.4629,980.3521,1485.4629" style="stroke:#181818;stroke-width:1;"/><line style="stroke:#181818;stroke-width:1;" x1="746.145" x2="982.3521" y1="1485.4629" y2="1485.4629"/><text fill="#000000" font-family="sans-serif" font-size="13" lengthAdjust="spacing" textLength="142.5239" x="753.145" y="1480.7207">GetByImoNumber(imo)</text></g><g class="message" data-participant-1="Repo" data-participant-2="Service"><polygon fill="#181818" points="757.145,1510.7734,747.145,1514.7734,757.145,1518.7734,753.145,1514.7734" style="stroke:#181818;stroke-width:1;"/><line style="stroke:#181818;stroke-width:1;stroke-dasharray:2,2;" x1="751.145" x2="987.3521" y1="1514.7734" y2="1514.7734"/><text fill="#000000" font-family="sans-serif" font-size="13" lengthAdjust="spacing" textLength="85.1792" x="763.145" y="1510.0313">Vessel or null</text></g><g class="message" data-participant-1="Service" data-participant-2="Factory"><polygon fill="#181818" points="1260.1094,1540.084,1270.1094,1544.084,1260.1094,1548.084,1264.1094,1544.084" style="stroke:#181818;stroke-width:1;"/><line style="stroke:#181818;stroke-width:1;" x1="746.145" x2="1266.1094" y1="1544.084" y2="1544.084"/><text fill="#000000" font-family="sans-serif" font-size="13" lengthAdjust="spacing" textLength="150.103" x="753.145" y="1539.3418">CreateVesselDto(vessel)</text></g><g class="message" data-participant-1="Factory" data-participant-2="Service"><polygon fill="#181818" points="757.145,1569.3945,747.145,1573.3945,757.145,1577.3945,753.145,1573.3945" style="stroke:#181818;stroke-width:1;"/><line style="stroke:#181818;stroke-width:1;stroke-dasharray:2,2;" x1="751.145" x2="1271.1094" y1="1573.3945" y2="1573.3945"/><text fill="#000000" font-family="sans-serif" font-size="13" lengthAdjust="spacing" textLength="62.5815" x="763.145" y="1568.6523">VesselDto</text></g><g class="message" data-participant-1="Service" data-participant-2="Controller"><polygon fill="#181818" points="489.084,1598.7051,479.084,1602.7051,489.084,1606.7051,485.084,1602.7051" style="stroke:#181818;stroke-width:1;"/><line style="stroke:#181818;stroke-width:1;stroke-dasharray:2,2;" x1="483.084" x2="745.145" y1="1602.7051" y2="1602.7051"/><text fill="#000000" font-family="sans-serif" font-size="13" lengthAdjust="spacing" textLength="62.5815" x="495.084" y="1597.9629">VesselDto</text></g><g class="message" data-participant-1="Controller" data-participant-2="Officer"><polygon fill="#181818" points="91.6387,1628.0156,81.6387,1632.0156,91.6387,1636.0156,87.6387,1632.0156" style="stroke:#181818;stroke-width:1;"/><line style="stroke:#181818;stroke-width:1;stroke-dasharray:2,2;" x1="85.6387" x2="477.084" y1="1632.0156" y2="1632.0156"/><text fill="#000000" font-family="sans-serif" font-size="13" lengthAdjust="spacing" textLength="122.5098" x="97.6387" y="1627.2734">200 OK (VesselDto)</text></g><rect fill="#EEEEEE" height="3" style="stroke:#EEEEEE;stroke-width:1;" width="1419.9556" x="0" y="1660.6709"/><line style="stroke:#000000;stroke-width:1;" x1="0" x2="1419.9556" y1="1660.6709" y2="1660.6709"/><line style="stroke:#000000;stroke-width:1;" x1="0" x2="1419.9556" y1="1663.6709" y2="1663.6709"/><rect fill="#EEEEEE" height="23.3105" style="stroke:#000000;stroke-width:2;" width="168.0005" x="625.9775" y="1650.0156"/><text fill="#000000" font-family="sans-serif" font-size="13" font-weight="bold" lengthAdjust="spacing" textLength="149.7158" x="631.9775" y="1666.584">Get Vessel(s) by Name</text><g class="message" data-participant-1="Officer" data-participant-2="Controller"><polygon fill="#181818" points="466.084,1700.6367,476.084,1704.6367,466.084,1708.6367,470.084,1704.6367" style="stroke:#181818;stroke-width:1;"/><line style="stroke:#181818;stroke-width:1;" x1="80.6387" x2="472.084" y1="1704.6367" y2="1704.6367"/><text fill="#000000" font-family="sans-serif" font-size="13" lengthAdjust="spacing" textLength="191.0962" x="87.6387" y="1699.8945">GET /api/vessel/name/{name}</text></g><g class="message" data-participant-1="Controller" data-participant-2="Service"><polygon fill="#181818" points="734.145,1729.9473,744.145,1733.9473,734.145,1737.9473,738.145,1733.9473" style="stroke:#181818;stroke-width:1;"/><line style="stroke:#181818;stroke-width:1;" x1="478.084" x2="740.145" y1="1733.9473" y2="1733.9473"/><text fill="#000000" font-family="sans-serif" font-size="13" lengthAdjust="spacing" textLength="152.1279" x="485.084" y="1729.2051">GetByNameAsync(name)</text></g><g class="message" data-participant-1="Service" data-participant-2="Repo"><polygon fill="#181818" points="976.3521,1759.2578,986.3521,1763.2578,976.3521,1767.2578,980.3521,1763.2578" style="stroke:#181818;stroke-width:1;"/><line style="stroke:#181818;stroke-width:1;" x1="746.145" x2="982.3521" y1="1763.2578" y2="1763.2578"/><text fill="#000000" font-family="sans-serif" font-size="13" lengthAdjust="spacing" textLength="115.0132" x="753.145" y="1758.5156">GetByName(name)</text></g><g class="message" data-participant-1="Repo" data-participant-2="Service"><polygon fill="#181818" points="757.145,1788.5684,747.145,1792.5684,757.145,1796.5684,753.145,1792.5684" style="stroke:#181818;stroke-width:1;"/><line style="stroke:#181818;stroke-width:1;stroke-dasharray:2,2;" x1="751.145" x2="987.3521" y1="1792.5684" y2="1792.5684"/><text fill="#000000" font-family="sans-serif" font-size="13" lengthAdjust="spacing" textLength="82.8433" x="763.145" y="1787.8262">List&lt;Vessel&gt;</text></g><g class="message" data-participant-1="Service" data-participant-2="Factory"><polygon fill="#181818" points="1260.1094,1817.8789,1270.1094,1821.8789,1260.1094,1825.8789,1264.1094,1821.8789" style="stroke:#181818;stroke-width:1;"/><line style="stroke:#181818;stroke-width:1;" x1="746.145" x2="1266.1094" y1="1821.8789" y2="1821.8789"/><text fill="#000000" font-family="sans-serif" font-size="13" lengthAdjust="spacing" textLength="156.3682" x="753.145" y="1817.1367">CreateVesselDto(vessel*)</text></g><g class="message" data-participant-1="Factory" data-participant-2="Service"><polygon fill="#181818" points="757.145,1847.1895,747.145,1851.1895,757.145,1855.1895,753.145,1851.1895" style="stroke:#181818;stroke-width:1;"/><line style="stroke:#181818;stroke-width:1;stroke-dasharray:2,2;" x1="751.145" x2="1271.1094" y1="1851.1895" y2="1851.1895"/><text fill="#000000" font-family="sans-serif" font-size="13" lengthAdjust="spacing" textLength="68.8467" x="763.145" y="1846.4473">VesselDto*</text></g><g class="message" data-participant-1="Service" data-participant-2="Controller"><polygon fill="#181818" points="489.084,1876.5,479.084,1880.5,489.084,1884.5,485.084,1880.5" style="stroke:#181818;stroke-width:1;"/><line style="stroke:#181818;stroke-width:1;stroke-dasharray:2,2;" x1="483.084" x2="745.145" y1="1880.5" y2="1880.5"/><text fill="#000000" font-family="sans-serif" font-size="13" lengthAdjust="spacing" textLength="105.4282" x="495.084" y="1875.7578">List&lt;VesselDto&gt;</text></g><g class="message" data-participant-1="Controller" data-participant-2="Officer"><polygon fill="#181818" points="91.6387,1905.8105,81.6387,1909.8105,91.6387,1913.8105,87.6387,1909.8105" style="stroke:#181818;stroke-width:1;"/><line style="stroke:#181818;stroke-width:1;stroke-dasharray:2,2;" x1="85.6387" x2="477.084" y1="1909.8105" y2="1909.8105"/><text fill="#000000" font-family="sans-serif" font-size="13" lengthAdjust="spacing" textLength="128.7749" x="97.6387" y="1905.0684">200 OK (VesselDto*)</text></g><rect fill="#EEEEEE" height="3" style="stroke:#EEEEEE;stroke-width:1;" width="1419.9556" x="0" y="1938.4658"/><line style="stroke:#000000;stroke-width:1;" x1="0" x2="1419.9556" y1="1938.4658" y2="1938.4658"/><line style="stroke:#000000;stroke-width:1;" x1="0" x2="1419.9556" y1="1941.4658" y2="1941.4658"/><rect fill="#EEEEEE" height="23.3105" style="stroke:#000000;stroke-width:2;" width="174.126" x="622.9148" y="1927.8105"/><text fill="#000000" font-family="sans-serif" font-size="13" font-weight="bold" lengthAdjust="spacing" textLength="155.8413" x="628.9148" y="1944.3789">Get Vessel(s) by Owner</text><g class="message" data-participant-1="Officer" data-participant-2="Controller"><polygon fill="#181818" points="466.084,1978.4316,476.084,1982.4316,466.084,1986.4316,470.084,1982.4316" style="stroke:#181818;stroke-width:1;"/><line style="stroke:#181818;stroke-width:1;" x1="80.6387" x2="472.084" y1="1982.4316" y2="1982.4316"/><text fill="#000000" font-family="sans-serif" font-size="13" lengthAdjust="spacing" textLength="199.1069" x="87.6387" y="1977.6895">GET /api/vessel/owner/{owner}</text></g><g class="message" data-participant-1="Controller" data-participant-2="Service"><polygon fill="#181818" points="734.145,2007.7422,744.145,2011.7422,734.145,2015.7422,738.145,2011.7422" style="stroke:#181818;stroke-width:1;"/><line style="stroke:#181818;stroke-width:1;" x1="478.084" x2="740.145" y1="2011.7422" y2="2011.7422"/><text fill="#000000" font-family="sans-serif" font-size="13" lengthAdjust="spacing" textLength="160.7163" x="485.084" y="2007">GetByOwnerAsync(owner)</text></g><g class="message" data-participant-1="Service" data-participant-2="Repo"><polygon fill="#181818" points="976.3521,2037.0527,986.3521,2041.0527,976.3521,2045.0527,980.3521,2041.0527" style="stroke:#181818;stroke-width:1;"/><line style="stroke:#181818;stroke-width:1;" x1="746.145" x2="982.3521" y1="2041.0527" y2="2041.0527"/><text fill="#000000" font-family="sans-serif" font-size="13" lengthAdjust="spacing" textLength="123.6016" x="753.145" y="2036.3105">GetByOwner(owner)</text></g><g class="message" data-participant-1="Repo" data-participant-2="Service"><polygon fill="#181818" points="757.145,2066.3633,747.145,2070.3633,757.145,2074.3633,753.145,2070.3633" style="stroke:#181818;stroke-width:1;"/><line style="stroke:#181818;stroke-width:1;stroke-dasharray:2,2;" x1="751.145" x2="987.3521" y1="2070.3633" y2="2070.3633"/><text fill="#000000" font-family="sans-serif" font-size="13" lengthAdjust="spacing" textLength="82.8433" x="763.145" y="2065.6211">List&lt;Vessel&gt;</text></g><g class="message" data-participant-1="Service" data-participant-2="Factory"><polygon fill="#181818" points="1260.1094,2095.6738,1270.1094,2099.6738,1260.1094,2103.6738,1264.1094,2099.6738" style="stroke:#181818;stroke-width:1;"/><line style="stroke:#181818;stroke-width:1;" x1="746.145" x2="1266.1094" y1="2099.6738" y2="2099.6738"/><text fill="#000000" font-family="sans-serif" font-size="13" lengthAdjust="spacing" textLength="156.3682" x="753.145" y="2094.9316">CreateVesselDto(vessel*)</text></g><g class="message" data-participant-1="Factory" data-participant-2="Service"><polygon fill="#181818" points="757.145,2124.9844,747.145,2128.9844,757.145,2132.9844,753.145,2128.9844" style="stroke:#181818;stroke-width:1;"/><line style="stroke:#181818;stroke-width:1;stroke-dasharray:2,2;" x1="751.145" x2="1271.1094" y1="2128.9844" y2="2128.9844"/><text fill="#000000" font-family="sans-serif" font-size="13" lengthAdjust="spacing" textLength="68.8467" x="763.145" y="2124.2422">VesselDto*</text></g><g class="message" data-participant-1="Service" data-participant-2="Controller"><polygon fill="#181818" points="489.084,2154.2949,479.084,2158.2949,489.084,2162.2949,485.084,2158.2949" style="stroke:#181818;stroke-width:1;"/><line style="stroke:#181818;stroke-width:1;stroke-dasharray:2,2;" x1="483.084" x2="745.145" y1="2158.2949" y2="2158.2949"/><text fill="#000000" font-family="sans-serif" font-size="13" lengthAdjust="spacing" textLength="105.4282" x="495.084" y="2153.5527">List&lt;VesselDto&gt;</text></g><g class="message" data-participant-1="Controller" data-participant-2="Officer"><polygon fill="#181818" points="91.6387,2183.6055,81.6387,2187.6055,91.6387,2191.6055,87.6387,2187.6055" style="stroke:#181818;stroke-width:1;"/><line style="stroke:#181818;stroke-width:1;stroke-dasharray:2,2;" x1="85.6387" x2="477.084" y1="2187.6055" y2="2187.6055"/><text fill="#000000" font-family="sans-serif" font-size="13" lengthAdjust="spacing" textLength="128.7749" x="97.6387" y="2182.8633">200 OK (VesselDto*)</text></g><rect fill="#EEEEEE" height="3" style="stroke:#EEEEEE;stroke-width:1;" width="1419.9556" x="0" y="2216.2607"/><line style="stroke:#000000;stroke-width:1;" x1="0" x2="1419.9556" y1="2216.2607" y2="2216.2607"/><line style="stroke:#000000;stroke-width:1;" x1="0" x2="1419.9556" y1="2219.2607" y2="2219.2607"/><rect fill="#EEEEEE" height="23.3105" style="stroke:#000000;stroke-width:2;" width="107.8818" x="656.0369" y="2205.6055"/><text fill="#000000" font-family="sans-serif" font-size="13" font-weight="bold" lengthAdjust="spacing" textLength="89.5972" x="662.0369" y="2222.1738">Filter Vessels</text><g class="message" data-participant-1="Officer" data-participant-2="Controller"><polygon fill="#181818" points="466.084,2256.2266,476.084,2260.2266,466.084,2264.2266,470.084,2260.2266" style="stroke:#181818;stroke-width:1;"/><line style="stroke:#181818;stroke-width:1;" x1="80.6387" x2="472.084" y1="2260.2266" y2="2260.2266"/><text fill="#000000" font-family="sans-serif" font-size="13" lengthAdjust="spacing" textLength="373.4453" x="87.6387" y="2255.4844">GET /api/vessel/filter?name=x&amp;imo=y&amp;owner=z&amp;query=q</text></g><g class="message" data-participant-1="Controller" data-participant-2="Service"><polygon fill="#181818" points="734.145,2285.5371,744.145,2289.5371,734.145,2293.5371,738.145,2289.5371" style="stroke:#181818;stroke-width:1;"/><line style="stroke:#181818;stroke-width:1;" x1="478.084" x2="740.145" y1="2289.5371" y2="2289.5371"/><text fill="#000000" font-family="sans-serif" font-size="13" lengthAdjust="spacing" textLength="244.061" x="485.084" y="2284.7949">GetFilterAsync(name,imo,owner,query)</text></g><g class="message" data-participant-1="Service" data-participant-2="Repo"><polygon fill="#181818" points="976.3521,2314.8477,986.3521,2318.8477,976.3521,2322.8477,980.3521,2318.8477" style="stroke:#181818;stroke-width:1;"/><line style="stroke:#181818;stroke-width:1;" x1="746.145" x2="982.3521" y1="2318.8477" y2="2318.8477"/><text fill="#000000" font-family="sans-serif" font-size="13" lengthAdjust="spacing" textLength="206.9463" x="753.145" y="2314.1055">GetFilter(name,imo,owner,query)</text></g><g class="message" data-participant-1="Repo" data-participant-2="Service"><polygon fill="#181818" points="757.145,2344.1582,747.145,2348.1582,757.145,2352.1582,753.145,2348.1582" style="stroke:#181818;stroke-width:1;"/><line style="stroke:#181818;stroke-width:1;stroke-dasharray:2,2;" x1="751.145" x2="987.3521" y1="2348.1582" y2="2348.1582"/><text fill="#000000" font-family="sans-serif" font-size="13" lengthAdjust="spacing" textLength="82.8433" x="763.145" y="2343.416">List&lt;Vessel&gt;</text></g><g class="message" data-participant-1="Service" data-participant-2="Factory"><polygon fill="#181818" points="1260.1094,2373.4688,1270.1094,2377.4688,1260.1094,2381.4688,1264.1094,2377.4688" style="stroke:#181818;stroke-width:1;"/><line style="stroke:#181818;stroke-width:1;" x1="746.145" x2="1266.1094" y1="2377.4688" y2="2377.4688"/><text fill="#000000" font-family="sans-serif" font-size="13" lengthAdjust="spacing" textLength="156.3682" x="753.145" y="2372.7266">CreateVesselDto(vessel*)</text></g><g class="message" data-participant-1="Factory" data-participant-2="Service"><polygon fill="#181818" points="757.145,2402.7793,747.145,2406.7793,757.145,2410.7793,753.145,2406.7793" style="stroke:#181818;stroke-width:1;"/><line style="stroke:#181818;stroke-width:1;stroke-dasharray:2,2;" x1="751.145" x2="1271.1094" y1="2406.7793" y2="2406.7793"/><text fill="#000000" font-family="sans-serif" font-size="13" lengthAdjust="spacing" textLength="68.8467" x="763.145" y="2402.0371">VesselDto*</text></g><g class="message" data-participant-1="Service" data-participant-2="Controller"><polygon fill="#181818" points="489.084,2432.0898,479.084,2436.0898,489.084,2440.0898,485.084,2436.0898" style="stroke:#181818;stroke-width:1;"/><line style="stroke:#181818;stroke-width:1;stroke-dasharray:2,2;" x1="483.084" x2="745.145" y1="2436.0898" y2="2436.0898"/><text fill="#000000" font-family="sans-serif" font-size="13" lengthAdjust="spacing" textLength="105.4282" x="495.084" y="2431.3477">List&lt;VesselDto&gt;</text></g><g class="message" data-participant-1="Controller" data-participant-2="Officer"><polygon fill="#181818" points="91.6387,2461.4004,81.6387,2465.4004,91.6387,2469.4004,87.6387,2465.4004" style="stroke:#181818;stroke-width:1;"/><line style="stroke:#181818;stroke-width:1;stroke-dasharray:2,2;" x1="85.6387" x2="477.084" y1="2465.4004" y2="2465.4004"/><text fill="#000000" font-family="sans-serif" font-size="13" lengthAdjust="spacing" textLength="128.7749" x="97.6387" y="2460.6582">200 OK (VesselDto*)</text></g><!--SRC=[tPLTJwDG48Rl-HMJNfXYS77tqYmsB5QtMRMDhNkFdAEI00VXu2xR-D-Tyq6XtG8XkoR6cmhop33pldC6F-0iWz62PHpSWZ-oBEGbpE_lmu1c8_3pwjguOqL2_Ao4aRkOWSSIdh4eqb1zQmJg4aO_QPxJQ4cpPuoNbBusQCB5MpHnGrEMXrX6AI5nkqEiofJkKDM_TbztxWSRHbyZWeK5F6H9ZiKN9EHmoHua8kyCmt70owZFAQWiu3Y6xXkEJXlTmGaiviiLs7uQsi-ANHFENem6Wn6wKyHLNZSlas2Ce6bKZv2gca3iWl9lvOm8v5FTz8oOnWOwsifRGu069aKKDJDlPOtPTH7VqKmctzoPHclMIJELLd7JYa9KBzMpVKdsbECIeeHGocrfeNmvWOWzZBsRgRkQMi2K1JDYWOgegxU0Xp7DkH-d5YnlFM-wN3RoxPgcIZhZRCidf2gNJ-3ByMVT8O7nXZVbSDocf34SuuMxyhx3NGcpgxdPEIiIR0oB7SRCNkFFIy_OB7mUF4hlb68OOi7k_Ent6T4ER_TDIysuQHgLKCXsSnWdVamdwCElX6QJLhjk5sUxTiboEntQLE-nECPKmQEVFD3y7oqyXlcFlzn3VS2D8fqXxpBiOhfrjbljmPIOKLdJOadZ-HupBiESVrK5dVQVDcn5dvb34pfF7PA7xHestehWwG0b3sifzHo9yIS3jBH3WfDFNheq5IjGppjfdtGYdmwQy3vPpJvHtsek6s9UpGUfMIsI7ZshjR1P8s-oGTwvlkFS519VupeReh5OV_PQ_FQeB18hWGNSgh30DF5VLyBxs0XQvBduM0nHMNvTxBNyqwEppAs4bdYhqXAic0-ZzNaOSGI6VyViUnav4RFd_3x0y-sK1r8Tvy_1Kq6pqddgKbwzk9vmItpVPRmberjyK64j4H_2bLS0]--></g></svg>