<svg xmlns="http://www.w3.org/2000/svg" xmlns:xlink="http://www.w3.org/1999/xlink" contentStyleType="text/css" data-diagram-type="SEQUENCE" height="660px" preserveAspectRatio="none" style="width:1316px;height:660px;background:#FFFFFF;" version="1.1" viewBox="0 0 1316 660" width="1316px" zoomAndPan="magnify"><title>System Sequence Diagram - Get Physical Resources (US2.2.4)</title><defs/><g><text fill="#000000" font-family="sans-serif" font-size="14" font-weight="bold" lengthAdjust="spacing" textLength="441.9023" x="438.1157" y="28.5352">System Sequence Diagram - Get Physical Resources (US2.2.4)</text><rect fill="none" height="149.5078" style="stroke:#000000;stroke-width:1.5;" width="594.0776" x="715.0562" y="194.5977"/><rect fill="none" height="204.8184" style="stroke:#000000;stroke-width:1.5;" width="1213.9287" x="10" y="358.1055"/><g><title>Port Authority Officer</title><rect fill="#000000" fill-opacity="0.00000" height="460.9473" width="8" x="91.6387" y="118.9766"/><line style="stroke:#181818;stroke-width:0.5;stroke-dasharray:5,5;" x1="95" x2="95" y1="118.9766" y2="579.9238"/></g><g><title>API Controller</title><rect fill="#000000" fill-opacity="0.00000" height="460.9473" width="8" x="518.0166" y="118.9766"/><line style="stroke:#181818;stroke-width:0.5;stroke-dasharray:5,5;" x1="522.0059" x2="522.0059" y1="118.9766" y2="579.9238"/></g><g><title>StorageAreaService</title><rect fill="#000000" fill-opacity="0.00000" height="460.9473" width="8" x="788.8643" y="118.9766"/><line style="stroke:#181818;stroke-width:0.5;stroke-dasharray:5,5;" x1="792.0562" x2="792.0562" y1="118.9766" y2="579.9238"/></g><g><title>StorageAreaRepository</title><rect fill="#000000" fill-opacity="0.00000" height="460.9473" width="8" x="1214.9287" y="118.9766"/><line style="stroke:#181818;stroke-width:0.5;stroke-dasharray:5,5;" x1="1218.7236" x2="1218.7236" y1="118.9766" y2="579.9238"/></g><g class="participant participant-head" data-participant="Officer"><text fill="#000000" font-family="sans-serif" font-size="14" lengthAdjust="spacing" textLength="145.2773" x="20" y="116.0234">Port Authority Officer</text><ellipse cx="95.6387" cy="50.9883" fill="#E2E2F0" rx="8" ry="8" style="stroke:#181818;stroke-width:0.5;"/><path d="M95.6387,58.9883 L95.6387,85.9883 M82.6387,66.9883 L108.6387,66.9883 M95.6387,85.9883 L82.6387,100.9883 M95.6387,85.9883 L108.6387,100.9883" fill="none" style="stroke:#181818;stroke-width:0.5;"/></g><g class="participant participant-tail" data-participant="Officer"><text fill="#000000" font-family="sans-serif" font-size="14" lengthAdjust="spacing" textLength="145.2773" x="20" y="592.459">Port Authority Officer</text><ellipse cx="95.6387" cy="603.9121" fill="#E2E2F0" rx="8" ry="8" style="stroke:#181818;stroke-width:0.5;"/><path d="M95.6387,611.9121 L95.6387,638.9121 M82.6387,619.9121 L108.6387,619.9121 M95.6387,638.9121 L82.6387,653.9121 M95.6387,638.9121 L108.6387,653.9121" fill="none" style="stroke:#181818;stroke-width:0.5;"/></g><g class="participant participant-head" data-participant="Controller"><text fill="#000000" font-family="sans-serif" font-size="14" lengthAdjust="spacing" textLength="94.0215" x="472.0059" y="116.0234">API Controller</text><path d="M501.5166,74.4883 L501.5166,98.4883 M501.5166,86.4883 L518.5166,86.4883" fill="none" style="stroke:#181818;stroke-width:0.5;"/><ellipse cx="530.5166" cy="86.4883" fill="#E2E2F0" rx="12" ry="12" style="stroke:#181818;stroke-width:0.5;"/></g><g class="participant participant-tail" data-participant="Controller"><text fill="#000000" font-family="sans-serif" font-size="14" lengthAdjust="spacing" textLength="94.0215" x="472.0059" y="592.459">API Controller</text><path d="M501.5166,599.4121 L501.5166,623.4121 M501.5166,611.4121 L518.5166,611.4121" fill="none" style="stroke:#181818;stroke-width:0.5;"/><ellipse cx="530.5166" cy="611.4121" fill="#E2E2F0" rx="12" ry="12" style="stroke:#181818;stroke-width:0.5;"/></g><g class="participant participant-head" data-participant="Service"><text fill="#000000" font-family="sans-serif" font-size="14" lengthAdjust="spacing" textLength="129.6162" x="725.0562" y="116.0234">StorageAreaService</text><ellipse cx="792.8643" cy="86.4883" fill="#E2E2F0" rx="12" ry="12" style="stroke:#181818;stroke-width:0.5;"/><polygon fill="#181818" points="788.8643,74.4883,794.8643,69.4883,792.8643,74.4883,794.8643,79.4883,788.8643,74.4883" style="stroke:#181818;stroke-width:1;"/></g><g class="participant participant-tail" data-participant="Service"><text fill="#000000" font-family="sans-serif" font-size="14" lengthAdjust="spacing" textLength="129.6162" x="725.0562" y="592.459">StorageAreaService</text><ellipse cx="792.8643" cy="611.4121" fill="#E2E2F0" rx="12" ry="12" style="stroke:#181818;stroke-width:0.5;"/><polygon fill="#181818" points="788.8643,599.4121,794.8643,594.4121,792.8643,599.4121,794.8643,604.4121,788.8643,599.4121" style="stroke:#181818;stroke-width:1;"/></g><g class="participant participant-head" data-participant="Repo"><text fill="#000000" font-family="sans-serif" font-size="14" lengthAdjust="spacing" textLength="154.4102" x="1138.7236" y="116.0234">StorageAreaRepository</text><ellipse cx="1218.9287" cy="86.4883" fill="#E2E2F0" rx="12" ry="12" style="stroke:#181818;stroke-width:0.5;"/><line style="stroke:#181818;stroke-width:0.5;" x1="1206.9287" x2="1230.9287" y1="100.4883" y2="100.4883"/></g><g class="participant participant-tail" data-participant="Repo"><text fill="#000000" font-family="sans-serif" font-size="14" lengthAdjust="spacing" textLength="154.4102" x="1138.7236" y="592.459">StorageAreaRepository</text><ellipse cx="1218.9287" cy="611.4121" fill="#E2E2F0" rx="12" ry="12" style="stroke:#181818;stroke-width:0.5;"/><line style="stroke:#181818;stroke-width:0.5;" x1="1206.9287" x2="1230.9287" y1="625.4121" y2="625.4121"/></g><g class="message" data-participant-1="Officer" data-participant-2="Controller"><polygon fill="#181818" points="510.0166,146.2871,520.0166,150.2871,510.0166,154.2871,514.0166,150.2871" style="stroke:#181818;stroke-width:1;"/><line style="stroke:#181818;stroke-width:1;" x1="95.6387" x2="516.0166" y1="150.2871" y2="150.2871"/><text fill="#000000" font-family="sans-serif" font-size="13" lengthAdjust="spacing" textLength="402.3779" x="102.6387" y="145.5449">GET /api/storageareas/physicalresources?name={name}|id={id}</text></g><g class="message" data-participant-1="Controller" data-participant-2="Service"><polygon fill="#181818" points="780.8643,175.5977,790.8643,179.5977,780.8643,183.5977,784.8643,179.5977" style="stroke:#181818;stroke-width:1;"/><line style="stroke:#181818;stroke-width:1;" x1="522.0166" x2="786.8643" y1="179.5977" y2="179.5977"/><text fill="#000000" font-family="sans-serif" font-size="13" lengthAdjust="spacing" textLength="246.8477" x="529.0166" y="174.8555">GetPhysicalResourcesAsync(name?, id?)</text></g><path d="M715.0562,194.5977 L777.1948,194.5977 L777.1948,201.9082 L767.1948,211.9082 L715.0562,211.9082 L715.0562,194.5977" fill="#EEEEEE" style="stroke:#000000;stroke-width:1.5;"/><rect fill="none" height="149.5078" style="stroke:#000000;stroke-width:1.5;" width="594.0776" x="715.0562" y="194.5977"/><text fill="#000000" font-family="sans-serif" font-size="13" font-weight="bold" lengthAdjust="spacing" textLength="17.1387" x="730.0562" y="208.166">alt</text><text fill="#000000" font-family="sans-serif" font-size="11" font-weight="bold" lengthAdjust="spacing" textLength="57.5137" x="792.1948" y="207.2324">[by Name]</text><g class="message" data-participant-1="Service" data-participant-2="Repo"><polygon fill="#181818" points="1206.9287,229.2188,1216.9287,233.2188,1206.9287,237.2188,1210.9287,233.2188" style="stroke:#181818;stroke-width:1;"/><line style="stroke:#181818;stroke-width:1;" x1="792.8643" x2="1212.9287" y1="233.2188" y2="233.2188"/><text fill="#000000" font-family="sans-serif" font-size="13" lengthAdjust="spacing" textLength="152.1279" x="799.8643" y="228.4766">GetByNameAsync(name)</text></g><g class="message" data-participant-1="Repo" data-participant-2="Service"><polygon fill="#181818" points="803.8643,258.5293,793.8643,262.5293,803.8643,266.5293,799.8643,262.5293" style="stroke:#181818;stroke-width:1;"/><line style="stroke:#181818;stroke-width:1;stroke-dasharray:2,2;" x1="797.8643" x2="1217.9287" y1="262.5293" y2="262.5293"/><text fill="#000000" font-family="sans-serif" font-size="13" lengthAdjust="spacing" textLength="121.5894" x="809.8643" y="257.7871">StorageArea or null</text></g><line style="stroke:#000000;stroke-width:1;stroke-dasharray:2,2;" x1="715.0562" x2="1309.1338" y1="271.5293" y2="271.5293"/><text fill="#000000" font-family="sans-serif" font-size="11" font-weight="bold" lengthAdjust="spacing" textLength="36.416" x="720.0562" y="282.1641">[by Id]</text><g class="message" data-participant-1="Service" data-participant-2="Repo"><polygon fill="#181818" points="1206.9287,302.7949,1216.9287,306.7949,1206.9287,310.7949,1210.9287,306.7949" style="stroke:#181818;stroke-width:1;"/><line style="stroke:#181818;stroke-width:1;" x1="792.8643" x2="1212.9287" y1="306.7949" y2="306.7949"/><text fill="#000000" font-family="sans-serif" font-size="13" lengthAdjust="spacing" textLength="105.2061" x="799.8643" y="302.0527">GetByIdAsync(id)</text></g><g class="message" data-participant-1="Repo" data-participant-2="Service"><polygon fill="#181818" points="803.8643,332.1055,793.8643,336.1055,803.8643,340.1055,799.8643,336.1055" style="stroke:#181818;stroke-width:1;"/><line style="stroke:#181818;stroke-width:1;stroke-dasharray:2,2;" x1="797.8643" x2="1217.9287" y1="336.1055" y2="336.1055"/><text fill="#000000" font-family="sans-serif" font-size="13" lengthAdjust="spacing" textLength="121.5894" x="809.8643" y="331.3633">StorageArea or null</text></g><path d="M10,358.1055 L72.1387,358.1055 L72.1387,365.416 L62.1387,375.416 L10,375.416 L10,358.1055" fill="#EEEEEE" style="stroke:#000000;stroke-width:1.5;"/><rect fill="none" height="204.8184" style="stroke:#000000;stroke-width:1.5;" width="1213.9287" x="10" y="358.1055"/><text fill="#000000" font-family="sans-serif" font-size="13" font-weight="bold" lengthAdjust="spacing" textLength="17.1387" x="25" y="371.6738">alt</text><text fill="#000000" font-family="sans-serif" font-size="11" font-weight="bold" lengthAdjust="spacing" textLength="114.0498" x="87.1387" y="370.7402">[StorageArea found]</text><g class="message" data-participant-1="Service" data-participant-2="Service"><line style="stroke:#181818;stroke-width:1;" x1="792.8643" x2="834.8643" y1="396.7266" y2="396.7266"/><line style="stroke:#181818;stroke-width:1;" x1="834.8643" x2="834.8643" y1="396.7266" y2="409.7266"/><line style="stroke:#181818;stroke-width:1;" x1="793.8643" x2="834.8643" y1="409.7266" y2="409.7266"/><polygon fill="#181818" points="803.8643,405.7266,793.8643,409.7266,803.8643,413.7266,799.8643,409.7266" style="stroke:#181818;stroke-width:1;"/><text fill="#000000" font-family="sans-serif" font-size="13" lengthAdjust="spacing" textLength="254.1855" x="799.8643" y="391.9844">Extract PhysicalResources (List&lt;string&gt;)</text></g><g class="message" data-participant-1="Service" data-participant-2="Controller"><polygon fill="#181818" points="533.0166,435.0371,523.0166,439.0371,533.0166,443.0371,529.0166,439.0371" style="stroke:#181818;stroke-width:1;"/><line style="stroke:#181818;stroke-width:1;stroke-dasharray:2,2;" x1="527.0166" x2="791.8643" y1="439.0371" y2="439.0371"/><text fill="#000000" font-family="sans-serif" font-size="13" lengthAdjust="spacing" textLength="79.5869" x="539.0166" y="434.2949">List&lt;string&gt;</text></g><g class="message" data-participant-1="Controller" data-participant-2="Officer"><polygon fill="#181818" points="106.6387,464.3477,96.6387,468.3477,106.6387,472.3477,102.6387,468.3477" style="stroke:#181818;stroke-width:1;"/><line style="stroke:#181818;stroke-width:1;stroke-dasharray:2,2;" x1="100.6387" x2="521.0166" y1="468.3477" y2="468.3477"/><text fill="#000000" font-family="sans-serif" font-size="13" lengthAdjust="spacing" textLength="205.9878" x="112.6387" y="463.6055">200 OK (PhysicalResourceCode*)</text></g><line style="stroke:#000000;stroke-width:1;stroke-dasharray:2,2;" x1="10" x2="1223.9287" y1="477.3477" y2="477.3477"/><text fill="#000000" font-family="sans-serif" font-size="11" font-weight="bold" lengthAdjust="spacing" textLength="63.8086" x="15" y="487.9824">[not found]</text><g class="message" data-participant-1="Service" data-participant-2="Service"><line style="stroke:#181818;stroke-width:1;" x1="792.8643" x2="834.8643" y1="512.6133" y2="512.6133"/><line style="stroke:#181818;stroke-width:1;" x1="834.8643" x2="834.8643" y1="512.6133" y2="525.6133"/><line style="stroke:#181818;stroke-width:1;" x1="793.8643" x2="834.8643" y1="525.6133" y2="525.6133"/><polygon fill="#181818" points="803.8643,521.6133,793.8643,525.6133,803.8643,529.6133,799.8643,525.6133" style="stroke:#181818;stroke-width:1;"/><text fill="#000000" font-family="sans-serif" font-size="13" lengthAdjust="spacing" textLength="412.0645" x="799.8643" y="507.8711">throw BusinessRuleValidationException("Storage Area not found")</text></g><g class="message" data-participant-1="Controller" data-participant-2="Officer"><polygon fill="#181818" points="106.6387,550.9238,96.6387,554.9238,106.6387,558.9238,102.6387,554.9238" style="stroke:#181818;stroke-width:1;"/><line style="stroke:#181818;stroke-width:1;stroke-dasharray:2,2;" x1="100.6387" x2="521.0166" y1="554.9238" y2="554.9238"/><text fill="#000000" font-family="sans-serif" font-size="13" lengthAdjust="spacing" textLength="94.6118" x="112.6387" y="550.1816">404 Not Found</text></g><!--SRC=[bP9DJm8n48Rl_HMJFR56Fa8u4OMiYeHeb8XwB-q0JKgxjbrre_vts_s0XGF6FMocstUUUMTcANFQG3JNna6IkOqsmkNmk5e9XYO2QkkOB7McE3KvHCby1jTQEQEbh4Jx8s5b2D72a-aQ4uDqWURTGmff5HDKBfHgofumrLRuSruemv4Ghv88YzmwtFhajmmLGxWHT6te5jemHGVpJMu5ezAdM9qPXXPQBuj-fzyPn8HK7K1xrF09GvXEdg5BKz6rfGNgBTXkMh5CZHehkiNBh_3- -HRyyalm7z80UMpLKs2Ygytil2GsLwmLyiVd8FZOMwBImJA71_-DW7zgW6U5halGLHxkzzbn8ItksmT56oC4lqsLIKbGMWmbPlnKWHalyOB_3wvusKFpSXL-aEDYUyxaqndAzhjghEfUM7TXdH5gFOeF2SSxQqeBPNCHNbplUWZzNWyUxw1rNEzQSpoBo_aexVwoxJP6Vy1LPeL2QvyoYQzK2awTq6hooJ0DGQl-Yw6On0uRnQSz3de3UF3Ysy93cEel]--></g></svg>